<?xml version="1.0" encoding="utf-8"?>
<!-- Generator: Adobe Illustrator 22.0.0, SVG Export Plug-In . SVG Version: 6.00 Build 0)  -->
<svg version="1.1" id="Layer_1" xmlns="http://www.w3.org/2000/svg" xmlns:xlink="http://www.w3.org/1999/xlink" x="0px" y="0px"
	 viewBox="0 0 512 512" style="enable-background:new 0 0 512 512;" xml:space="preserve">
<style type="text/css">
	.st0{fill:#5E686B;}
	.st1{fill:#3FC6F1;}
</style>
<path class="st0" d="M447.3,88.6H72.7c-13,0-23.6,10.7-23.6,23.8v373.3c0,13.1,10.6,23.7,23.6,23.7h374.6c13,0,23.6-10.6,23.6-23.7
	V112.3C471,99.2,460.4,88.6,447.3,88.6z M454.9,485.6c0,4.2-3.4,7.7-7.6,7.7H72.7c-4.2,0-7.6-3.4-7.6-7.7V112.3
	c0-4.3,3.4-7.7,7.6-7.7v0h374.6c4.2,0,7.6,3.5,7.6,7.7L454.9,485.6L454.9,485.6z"/>
<path class="st1" d="M371.3,247.7h-57.5v-57.5c0-4.4-3.6-8-8-8h-91.6c-4.4,0-8,3.6-8,8v57.5h-57.5c-4.4,0-8,3.6-8,8v91.7
	c0,4.4,3.6,8,8,8h57.5V413c0,4.4,3.6,8,8,8h91.6c4.4,0,8-3.6,8-8v-57.5h57.5c4.4,0,8-3.6,8-8v-91.7
	C379.3,251.3,375.8,247.7,371.3,247.7z M363.3,339.4h-57.5c-4.4,0-8,3.6-8,8v57.5h-75.6v-57.5c0-4.4-3.6-8-8-8h-57.5v-75.7h57.5
	c4.4,0,8-3.6,8-8v-57.5h75.6v57.5c0,4.4,3.6,8,8,8h57.5V339.4z"/>
<path class="st0" d="M380.2,22H139.8c-4.4,0-8-3.6-8-8c0-4.4,3.6-8,8-8h240.4c4.4,0,8,3.6,8,8C388.3,18.4,384.7,22,380.2,22z"/>
</svg>
