<?xml version="1.0" encoding="utf-8"?>
<!-- Generator: Adobe Illustrator 22.0.0, SVG Export Plug-In . SVG Version: 6.00 Build 0)  -->
<svg version="1.1" id="Layer_1" xmlns="http://www.w3.org/2000/svg" xmlns:xlink="http://www.w3.org/1999/xlink" x="0px" y="0px"
	 viewBox="0 0 512 512" style="enable-background:new 0 0 512 512;" xml:space="preserve">
<style type="text/css">
	.st0{fill:#3FC6F1;}
	.st1{fill:#5E686B;}
</style>
<path class="st0" d="M262.7,278.3c0-0.1,0-0.2,0.1-0.3c0-0.1,0-0.3,0.1-0.4c0-0.1,0-0.1,0-0.2c0-0.2,0-0.3,0-0.5c0,0,0-0.1,0-0.1
	V95.1c0-3.8-3.1-6.9-6.9-6.9s-6.9,3.1-6.9,6.9v171.6l-148.1-56.9c-3.6-1.3-7.5,0.4-8.9,3.9c-1.4,3.5,0.4,7.5,3.9,8.9l157.4,60.5
	c0.1,0,0.1,0,0.2,0.1c0.1,0,0.2,0.1,0.3,0.1c0.1,0,0.2,0,0.3,0.1c0.1,0,0.2,0.1,0.4,0.1c0.1,0,0.2,0,0.3,0c0.1,0,0.2,0,0.3,0
	c0.2,0,0.4,0,0.7,0c0.3,0,0.6,0,0.9-0.1c0.1,0,0.1,0,0.2,0c0.6-0.1,1.2-0.3,1.8-0.6c0,0,0.1,0,0.1,0c0.6-0.3,1.1-0.6,1.6-1.1
	c0,0,0.1-0.1,0.1-0.1c0.2-0.2,0.4-0.4,0.6-0.7c0,0,0,0,0.1-0.1c0.2-0.2,0.3-0.5,0.5-0.7c0,0,0.1-0.1,0.1-0.1
	c0.2-0.3,0.3-0.6,0.4-0.9c0,0,0,0,0-0.1c0-0.1,0-0.1,0.1-0.2c0-0.1,0.1-0.2,0.1-0.4C262.6,278.5,262.6,278.4,262.7,278.3z"/>
<path class="st1" d="M398.6,452.1c53.7-42.3,88.2-107.9,88.2-181.4c0-127.3-103.6-230.8-230.8-230.8
	c-127.3,0-230.8,103.6-230.8,230.8c0,73.5,34.5,139.1,88.2,181.4l-44.2,44.2c-2.7,2.7-2.7,7,0,9.7c1.3,1.3,3.1,2,4.8,2
	c1.8,0,3.5-0.7,4.8-2l45.7-45.7c37.3,26,82.7,41.2,131.5,41.2c48.8,0,94.1-15.3,131.5-41.2l45.7,45.7c1.3,1.3,3.1,2,4.8,2
	c1.8,0,3.5-0.7,4.8-2c2.7-2.7,2.7-7,0-9.7L398.6,452.1z M128.3,446.2c-0.3-0.3-0.7-0.6-1.1-0.8c-53.6-39.6-88.4-103.2-88.4-174.7
	C38.9,151,136.3,53.6,256,53.6c119.7,0,217.1,97.4,217.1,217.1c0,71.4-34.6,134.8-87.9,174.4c-0.7,0.3-1.3,0.8-1.9,1.3
	c0,0-0.1,0.1-0.1,0.1c-35.8,25.9-79.7,41.3-127.2,41.3C208.3,487.8,164.2,472.3,128.3,446.2z"/>
<path class="st0" d="M214.9,17.2h82.3c3.8,0,6.9-3.1,6.9-6.9s-3.1-6.9-6.9-6.9h-82.3c-3.8,0-6.9,3.1-6.9,6.9S211.1,17.2,214.9,17.2z
	"/>
</svg>
