<?xml version="1.0" encoding="utf-8"?>
<!-- Generator: Adobe Illustrator 22.0.0, SVG Export Plug-In . SVG Version: 6.00 Build 0)  -->
<svg version="1.1" id="Layer_1" xmlns="http://www.w3.org/2000/svg" xmlns:xlink="http://www.w3.org/1999/xlink" x="0px" y="0px"
	 viewBox="0 0 512 512" style="enable-background:new 0 0 512 512;" xml:space="preserve">
<style type="text/css">
	.st0{fill:#5E686B;}
	.st1{fill:#3FC6F1;}
</style>
<path class="st0" d="M433.6,485.7L433.6,485.7H80.4c-30.3-0.1-54.8-12.5-67.3-34.1c-13.1-22.7-11.4-51.9,4.8-80l178-306.7
	c16-27.5,37.7-42.6,61.1-42.6c23.4,0,45.1,15.1,61.1,42.6l178,307c16.1,28.1,17.9,57.1,4.8,79.8C488.5,473.3,464,485.7,433.6,485.7z
	 M257,35.9c-18.4,0-35.9,12.7-49.3,35.8l-178,306.6c-13.7,23.8-15.4,48-4.8,66.4c10,17.3,30.2,27.3,55.5,27.3h353.2
	c25.3,0,45.6-10,55.6-27.2c10.6-18.3,8.8-42.4-4.8-66.1l-178-307C292.9,48.6,275.4,35.9,257,35.9z"/>
<path class="st1" d="M257,311.6c-3.8,0-6.8-3-6.8-6.8V159.7c0-3.8,3.1-6.8,6.8-6.8c3.8,0,6.8,3.1,6.8,6.8v145.1
	C263.8,308.5,260.8,311.6,257,311.6z"/>
<path class="st1" d="M256.1,411.4c-18.8,0-34.1-15.3-34.1-34.1c0-18.8,15.3-34.1,34.1-34.1c18.8,0,34.1,15.3,34.1,34.1
	C290.2,396.1,274.9,411.4,256.1,411.4z M256.1,356.9c-11.3,0-20.5,9.2-20.5,20.4c0,11.3,9.2,20.5,20.5,20.5
	c11.3,0,20.5-9.2,20.5-20.5C276.5,366,267.4,356.9,256.1,356.9z"/>
</svg>
