<?xml version="1.0" encoding="utf-8"?>
<!-- Generator: Adobe Illustrator 22.0.0, SVG Export Plug-In . SVG Version: 6.00 Build 0)  -->
<svg version="1.1" id="Layer_1" xmlns="http://www.w3.org/2000/svg" xmlns:xlink="http://www.w3.org/1999/xlink" x="0px" y="0px"
	 viewBox="0 0 512 512" style="enable-background:new 0 0 512 512;" xml:space="preserve">
<style type="text/css">
	.st0{fill:#3FC6F1;}
	.st1{fill:#5E686C;}
</style>
<path class="st0" d="M252.2,361.8c-59.2,0-107.4-48.2-107.4-107.4S193,147.1,252.2,147.1c59.2,0,107.4,48.2,107.4,107.4
	S311.4,361.8,252.2,361.8z M252.2,160.5c-51.8,0-94,42.1-94,94s42.2,94,94,94c51.8,0,94-42.1,94-94S304,160.5,252.2,160.5z"/>
<path class="st1" d="M254.9,505.4C116.5,505.4,3.9,392.8,3.9,254.5c0-67,26.1-130.1,73.5-177.5C124.8,29.6,187.8,3.5,254.8,3.5
	c138.4,0,251,112.6,251,250.9v24.4c0,44.1-35.9,80-80,80s-80-35.9-80-80V156.7c0-3.7,3-6.7,6.7-6.7s6.7,3,6.7,6.7v122.1
	c0,36.7,29.9,66.6,66.6,66.6c36.7,0,66.6-29.9,66.6-66.6v-24.4c0-131-106.6-237.5-237.5-237.5c-63.5,0-123.1,24.7-168,69.6
	C42,131.4,17.3,191,17.3,254.5c0,131,106.6,237.5,237.5,237.5c51.9,0,103.2-17.4,144.4-48.9c2.9-2.3,7.2-1.7,9.4,1.2
	c2.2,2.9,1.7,7.2-1.3,9.4C363.9,487,309.7,505.4,254.9,505.4z"/>
</svg>
