<?xml version="1.0" encoding="utf-8"?>
<!-- Generator: Adobe Illustrator 22.0.0, SVG Export Plug-In . SVG Version: 6.00 Build 0)  -->
<svg version="1.1" id="Layer_1" xmlns="http://www.w3.org/2000/svg" xmlns:xlink="http://www.w3.org/1999/xlink" x="0px" y="0px"
	 viewBox="0 0 512 512" style="enable-background:new 0 0 512 512;" xml:space="preserve">
<style type="text/css">
	.st0{fill:#3FC6F1;}
	.st1{fill:#5E686C;}
</style>
<path class="st0" d="M497.4,281.4c-36.2,0-65-60.2-93-118.5c-9.7-20.2-18.8-39.3-27.4-53.8c-2-3.3-0.9-7.6,2.4-9.6
	c3.3-1.9,7.6-0.9,9.6,2.5c8.9,15.1,18.2,34.4,28,54.9c24.6,51.4,55.5,115.4,83.8,110.3c3.7-0.6,7.4,1.8,8.1,5.6
	c0.7,3.8-1.8,7.4-5.6,8.1C501.3,281.3,499.3,281.4,497.4,281.4z"/>
<path class="st0" d="M200,358.4c-1.6,0-3.2-0.5-4.5-1.6c-3-2.5-3.4-6.9-0.9-9.8c23.7-28.5,45.6-82.9,66.7-135.4
	c16.3-40.5,31.7-78.8,47.4-104.2c2-3.3,6.4-4.3,9.6-2.3c3.3,2,4.3,6.3,2.3,9.6c-15.1,24.4-30.3,62.1-46.3,102
	c-21.5,53.6-43.8,109-68.9,139.2C204,357.5,202,358.4,200,358.4z"/>
<path class="st1" d="M11.6,379.8c-1.2,0-2.3-0.3-3.4-0.9c-3.4-1.9-4.6-6.1-2.7-9.5c18.4-32.9,34.9-49.8,51.9-53
	c18.3-3.4,33.4,8.9,49.3,22c5.6,4.6,11.5,9.4,17.6,13.7c3.2,2.2,4,6.6,1.8,9.7c-2.2,3.2-6.6,4-9.7,1.8c-6.6-4.6-12.7-9.6-18.6-14.4
	c-13.9-11.4-26-21.3-37.8-19c-12.4,2.3-26.2,17.4-42.2,46.1C16.5,378.5,14.1,379.8,11.6,379.8z"/>
<path class="st1" d="M502,465.6H12.7c-3.9,0-7-3.1-7-7s3.1-7,7-7H502c3.9,0,7,3.1,7,7S505.9,465.6,502,465.6z"/>
<path class="st0" d="M348.8,130.1c-27,0-48.9-22-48.9-48.9s22-48.9,48.9-48.9c27,0,48.9,22,48.9,48.9S375.8,130.1,348.8,130.1z
	 M348.8,46.2c-19.3,0-35,15.7-35,35s15.7,35,35,35c19.3,0,35-15.7,35-35S368.1,46.2,348.8,46.2z"/>
<path class="st1" d="M163.5,421c-27,0-48.9-22-48.9-48.9c0-27,22-48.9,48.9-48.9s48.9,22,48.9,48.9C212.5,399,190.5,421,163.5,421z
	 M163.5,337.1c-19.3,0-35,15.7-35,35s15.7,35,35,35s35-15.7,35-35S182.8,337.1,163.5,337.1z"/>
</svg>
