<?xml version="1.0" encoding="utf-8"?>
<!-- Generator: Adobe Illustrator 22.0.0, SVG Export Plug-In . SVG Version: 6.00 Build 0)  -->
<svg version="1.1" id="Layer_1" xmlns="http://www.w3.org/2000/svg" xmlns:xlink="http://www.w3.org/1999/xlink" x="0px" y="0px"
	 viewBox="0 0 512 512" style="enable-background:new 0 0 512 512;" xml:space="preserve">
<style type="text/css">
	.st0{fill:#5E686C;}
	.st1{fill:#3FC6F1;}
</style>
<path class="st0" d="M384.7,170.2H135.2c-3.7,0-6.7,3-6.7,6.7v201.3c0,19.7,15.7,35.7,34.9,35.7h37.3v86.2c0,3.7,3,6.7,6.7,6.7
	s6.7-3,6.7-6.7v-86.2h88.4v86.2c0,3.7,3,6.7,6.7,6.7c3.7,0,6.7-3,6.7-6.7v-86.2h40.3c19.3,0,35-16,35-35.7V177
	C391.4,173.2,388.4,170.2,384.7,170.2z M377.9,378.2c0,12.3-9.6,22.2-21.5,22.2H312c-0.8-0.3-1.7-0.5-2.6-0.5
	c-0.9,0-1.8,0.2-2.6,0.5h-96.6c-0.8-0.3-1.7-0.5-2.6-0.5s-1.8,0.2-2.6,0.5h-41.4c-11.8,0-21.5-10-21.5-22.2V183.7h236L377.9,378.2
	L377.9,378.2z"/>
<path class="st1" d="M326.9,47.6l19.8-30.4c2-3.1,1.2-7.3-2-9.3c-3.1-2-7.3-1.1-9.3,2l-21,32.2c-34.3-13.4-74.7-13.5-109.3,0.1
	L184.4,9.9c-2-3.1-6.2-4-9.3-2c-3.1,2-4,6.2-2,9.3l19.7,30.5c-39.7,20.2-64.3,56.8-64.3,96.2c0,3.7,3,6.7,6.7,6.7h249.4
	c3.7,0,6.7-3,6.7-6.7C391.4,104.5,366.9,67.9,326.9,47.6z M142.3,137.2c2.7-32.6,24.9-62.3,59.1-78.7l8.1-3.6
	c31.6-12.6,69.6-12.5,100.8-0.1l3.2,1.4c0.5,0.3,1.1,0.6,1.7,0.7l3.2,1.4c34.4,16.4,56.6,46.2,59.3,78.7H142.3z"/>
<path class="st1" d="M210.8,66.6c-14.9,0-27,12.1-27,26.9c0,14.9,12.1,27,27,27c14.9,0,26.9-12.1,26.9-27
	C237.7,78.7,225.6,66.6,210.8,66.6z M210.8,107c-7.4,0-13.5-6.1-13.5-13.5c0-7.4,6-13.4,13.5-13.4c7.4,0,13.5,6,13.5,13.4
	C224.3,101,218.2,107,210.8,107z"/>
<path class="st1" d="M310.4,66.6c-14.9,0-27,12.1-27,26.9c0,14.9,12.1,27,27,27c14.9,0,26.9-12.1,26.9-27
	C337.4,78.7,325.3,66.6,310.4,66.6z M310.4,107c-7.4,0-13.5-6.1-13.5-13.5c0-7.4,6.1-13.4,13.5-13.4c7.4,0,13.5,6,13.5,13.4
	C323.9,101,317.8,107,310.4,107z"/>
<path class="st0" d="M89.4,170.2c-3.7,0-6.7,3-6.7,6.7v172.3c0,3.7,3,6.7,6.7,6.7s6.7-3,6.7-6.7V177
	C96.1,173.2,93.1,170.2,89.4,170.2z"/>
<path class="st0" d="M430.5,170.2c-3.7,0-6.7,3-6.7,6.7v172.3c0,3.7,3,6.7,6.7,6.7s6.7-3,6.7-6.7V177
	C437.3,173.2,434.2,170.2,430.5,170.2z"/>
</svg>
