<?xml version="1.0" encoding="utf-8"?>
<!-- Generator: Adobe Illustrator 22.0.0, SVG Export Plug-In . SVG Version: 6.00 Build 0)  -->
<svg version="1.1" id="Layer_1" xmlns="http://www.w3.org/2000/svg" xmlns:xlink="http://www.w3.org/1999/xlink" x="0px" y="0px"
	 viewBox="0 0 512 512" style="enable-background:new 0 0 512 512;" xml:space="preserve">
<style type="text/css">
	.st0{fill:#3FC6F1;}
	.st1{fill:#5E686C;}
</style>
<path class="st0" d="M255.6,130.9L255.6,130.9c-1.9,0-3.9-0.1-5.8-0.2c-3.2-0.2-5.8-2.7-6.2-5.8c-4.5-31.6,12.4-62.8,29.7-81.5
	c20.3-22.1,54.2-38.3,82.4-39.3c4.1-0.6,6.6,2.5,7,6c3.3,28.1-7.6,59.3-29.1,83.6C313.1,116.6,283.2,130.9,255.6,130.9z M349.6,18.2
	c-23.2,2.9-50.2,16.7-66.4,34.4c-13.5,14.6-27.9,39.6-26.7,64.7c23.3-0.3,49.5-13.1,66.9-32.6C340.6,65.1,350.2,40.7,349.6,18.2z"/>
<path class="st1" d="M173.2,508.1c-35.6,0-61.4-30.7-86.8-64.8C35.8,375.1,6.7,262.7,52.7,188.5c24.3-39.3,68.2-64.1,114.7-64.7
	c0,0,1.4,0,1.4,0c20,0,38.8,6.9,55.3,13c11.6,4.3,22.5,8.3,30.3,8.3c6.9,0,17.2-3.8,29.2-8.2c20.1-7.4,45.8-16.7,72.3-14.3
	c19.4,0.8,68.9,7.4,101.2,51.3c1.1,1.5,1.6,3.5,1.2,5.4c-0.4,1.9-1.5,3.5-3.2,4.5c-13.1,7.5-54.2,35.3-53.6,87.5
	c0.7,68.1,63.6,91.9,66.2,92.8c1.7,0.6,3.1,1.9,3.9,3.5c0.8,1.6,0.9,3.5,0.2,5.2c-4,11.7-15.2,41.2-37.4,71.5
	c-21.5,29.2-45.8,62.3-86,63l-1.7,0c-17.7,0-29.9-4.9-41.7-9.7c-12.5-5.1-24.4-9.8-43.7-9.8c-20.3,0-32.7,4.9-45.9,10.2
	c-11.6,4.6-23.5,9.4-40.2,10L173.2,508.1z M168.8,137.4c-43.1,0.6-82.7,22.9-104.5,58.2c-42.8,69.1-14.9,175,33,239.5
	c23.3,31.3,46.6,59.3,75.9,59.3l1.6,0c14.3-0.5,24.7-4.6,35.7-9c13.1-5.2,28-11.1,50.9-11.1c22,0,36.2,5.8,48.8,10.8
	c11.6,4.7,21.6,8.7,36.6,8.7l1.5,0c33.5-0.5,55.7-30.8,75.3-57.4c18.2-24.8,28.6-49,33.5-62c-18-8.4-68.4-37.9-69-102.9
	c-0.6-52.5,35.4-83.1,53.7-95.2c-28.7-34-69.7-39.3-86.6-40c-2.9-0.3-5.5-0.4-8.1-0.4c-20.9,0-40.9,7.4-58.6,13.9
	c-13.2,4.8-24.6,9-33.9,9c-10.2,0-21.7-4.2-35-9.2C203.9,143.9,186.4,137.4,168.8,137.4z"/>
</svg>
