<?xml version="1.0" encoding="utf-8"?>
<!-- Generator: Adobe Illustrator 22.0.0, SVG Export Plug-In . SVG Version: 6.00 Build 0)  -->
<svg version="1.1" id="Layer_1" xmlns="http://www.w3.org/2000/svg" xmlns:xlink="http://www.w3.org/1999/xlink" x="0px" y="0px"
	 viewBox="0 0 512 512" style="enable-background:new 0 0 512 512;" xml:space="preserve">
<style type="text/css">
	.st0{fill:#3FC6F1;}
	.st1{fill:#5E686C;}
</style>
<path class="st0" d="M432.2,450.4c-1.7,0-3.3-0.6-4.7-1.9c-2.7-2.6-2.8-6.8-0.2-9.5c42.2-44.2,66.5-109,66.5-177.6
	S469.6,128,427.3,83.8c-2.6-2.7-2.5-7,0.2-9.5c2.7-2.6,7-2.5,9.5,0.2c44.6,46.7,70.2,114.9,70.2,186.9c0,72.1-25.6,140.2-70.2,186.9
	C435.7,449.7,434,450.4,432.2,450.4z"/>
<path class="st0" d="M378.2,400.3c-1.8,0-3.5-0.7-4.8-2c-2.6-2.7-2.5-6.9,0.1-9.5c31.7-30.9,49.9-77.4,49.9-127.4
	c0-50-18.2-96.5-49.9-127.4c-2.7-2.6-2.7-6.9-0.1-9.5c2.6-2.7,6.9-2.7,9.5-0.1c34.3,33.5,54,83.4,54,137s-19.7,103.6-54,137
	C381.6,399.7,379.9,400.3,378.2,400.3z"/>
<path class="st1" d="M324.8,349.3c-1.9,0-3.8-0.8-5.2-2.4c-2.4-2.9-2-7.1,0.8-9.5c20.4-17,32.5-45.4,32.5-76
	c0-31-12.5-59.7-33.3-76.7c-2.9-2.4-3.3-6.6-1-9.5c2.4-2.9,6.6-3.3,9.5-1c24,19.5,38.3,52.1,38.3,87.1c0,34.5-14,66.8-37.3,86.4
	C327.9,348.8,326.4,349.3,324.8,349.3z"/>
<path class="st1" d="M225.9,462.9c-1.4,0-2.8-0.4-4-1.3L86.2,360.1H13.6c-3.7,0-6.7-3-6.7-6.7V169.4c0-3.7,3-6.7,6.7-6.7h72.5
	L221.8,61.2c2.1-1.5,4.8-1.8,7.1-0.6c2.3,1.1,3.7,3.5,3.7,6v389.5c0,2.6-1.4,4.9-3.7,6C227.9,462.6,226.9,462.9,225.9,462.9z
	 M20.4,346.6h68c1.5,0,2.9,0.5,4,1.3l126.7,94.7V80.1L92.4,174.8c-1.2,0.9-2.6,1.3-4,1.3h-68V346.6z"/>
</svg>
