<?xml version="1.0" encoding="utf-8"?>
<!-- Generator: Adobe Illustrator 22.0.0, SVG Export Plug-In . SVG Version: 6.00 Build 0)  -->
<svg version="1.1" id="Layer_1" xmlns="http://www.w3.org/2000/svg" xmlns:xlink="http://www.w3.org/1999/xlink" x="0px" y="0px"
	 viewBox="0 0 512 512" style="enable-background:new 0 0 512 512;" xml:space="preserve">
<style type="text/css">
	.st0{fill:#5E686C;}
	.st1{fill:#3FC6F1;}
</style>
<path class="st0" d="M258.1,6.9C111,6.9,39.6,54.7,39.6,153.3c0,113.5,206.1,244.8,214.8,250.3c0,0,0,0,0,0c0.2,0.1,0.3,0.2,0.5,0.3
	c0.1,0.1,0.2,0.1,0.3,0.2c0.1,0,0.1,0.1,0.2,0.1c0.1,0,0.2,0.1,0.3,0.1c0.1,0,0.3,0.1,0.4,0.1c0.1,0,0.1,0,0.2,0c0.1,0,0.2,0,0.2,0
	c0.1,0,0.2,0,0.3,0.1c0.4,0.1,0.7,0.1,1.1,0.1s0.8,0,1.1-0.1c0.1,0,0.2,0,0.3-0.1c0.1,0,0.2,0,0.2-0.1c0.1,0,0.2,0,0.2,0
	c0.1,0,0.3-0.1,0.4-0.1c0.1,0,0.2-0.1,0.2-0.1c0.1,0,0.2-0.1,0.2-0.1c0.1-0.1,0.2-0.1,0.3-0.2c0.2-0.1,0.4-0.2,0.5-0.3c0,0,0,0,0,0
	c8.8-5.5,214.8-136.8,214.8-250.3C476.6,54.7,405.1,6.9,258.1,6.9z M321.8,153.3c0,88.8-46.7,193.9-63.7,229.1
	c-17-35.2-63.7-140.3-63.7-229.1c0-118.9,36.4-132.7,63.7-132.7S321.8,34.3,321.8,153.3z M180.7,153.3c0,77.7,33.2,164.8,54.4,212.3
	c-42.5-44.2-119-134.7-119-212.3c0-75.3,31.2-117.1,97.5-129.1C191.5,46.1,180.7,88.8,180.7,153.3z M335.5,153.3
	c0-64.4-10.8-107.2-32.9-129.1c66.3,11.9,97.6,53.8,97.6,129.1c0,77.5-76.6,168-119,212.2C302.2,318,335.5,230.9,335.5,153.3z
	 M53.3,153.3c0-64.6,33.2-104.6,103-122.2c-36.2,23.4-54,64-54,122.2c0,68.9,54.1,144.7,97.7,194.6C138.5,300,53.3,221.4,53.3,153.3
	z M316.2,347.8c43.5-49.8,97.6-125.6,97.6-194.5c0-58.2-17.8-98.8-54-122.2c69.8,17.6,103,57.6,103,122.2
	C462.8,221.3,377.7,299.9,316.2,347.8z"/>
<path class="st1" d="M297.3,430.1h-78.4c-3.8,0-6.9,3.1-6.9,6.9v47c0,12.8,9.7,22.5,22.5,22.5h47c12.8,0,22.5-9.7,22.5-22.5v-47
	C304.1,433.2,301,430.1,297.3,430.1z M290.4,484c0,5.2-3.6,8.8-8.8,8.8h-47c-5.2,0-8.8-3.6-8.8-8.8v-40.2h64.7L290.4,484L290.4,484z
	"/>
</svg>
