<?xml version="1.0" encoding="utf-8"?>
<!-- Generator: Adobe Illustrator 22.0.0, SVG Export Plug-In . SVG Version: 6.00 Build 0)  -->
<svg version="1.1" id="Layer_1" xmlns="http://www.w3.org/2000/svg" xmlns:xlink="http://www.w3.org/1999/xlink" x="0px" y="0px"
	 viewBox="0 0 512 512" style="enable-background:new 0 0 512 512;" xml:space="preserve">
<style type="text/css">
	.st0{fill:#3FC6F1;}
	.st1{fill:#5E686C;}
</style>
<path class="st0" d="M167.2,211c-0.8,0-1.5-0.1-2.3-0.4c-3.5-1.3-5.4-5.2-4.1-8.7L229.9,9.3c1.3-3.5,5.2-5.4,8.7-4.1
	c3.5,1.3,5.4,5.2,4.1,8.7l-69.1,192.5C172.6,209.3,170,211,167.2,211z"/>
<path class="st0" d="M352.5,211c-2.8,0-5.5-1.8-6.4-4.6L278.7,13.9c-1.2-3.6,0.6-7.5,4.2-8.7c3.6-1.2,7.5,0.6,8.7,4.2L359,201.9
	c1.3,3.6-0.6,7.5-4.2,8.7C354,210.9,353.3,211,352.5,211z"/>
<path class="st1" d="M167.2,459.1c-3.8,0-6.8-3.1-6.8-6.8V315.8c0-3.8,3.1-6.8,6.8-6.8s6.8,3.1,6.8,6.8v136.5
	C174,456.1,171,459.1,167.2,459.1z"/>
<path class="st1" d="M352.5,459.1c-3.8,0-6.8-3.1-6.8-6.8V315.8c0-3.8,3.1-6.8,6.8-6.8s6.8,3.1,6.8,6.8v136.5
	C359.4,456.1,356.3,459.1,352.5,459.1z"/>
<path class="st1" d="M458.2,507.2H61.6c-9.8,0-17.8-8-17.8-17.8V265.9H28.6c-9.9,0-17.9-8.2-17.9-18.2v-32.2c0-10,8-18.2,17.9-18.2
	h462.6c9.8,0,17.8,8.1,17.8,18.2v32.2c0,10-8,18.2-17.8,18.2H476v223.5C476,499.2,468,507.2,458.2,507.2z M28.6,211
	c-2.3,0-4.2,2-4.2,4.5v32.2c0,2.5,1.9,4.5,4.2,4.5h22c3.8,0,6.8,3.1,6.8,6.8v230.3c0,2.3,1.9,4.2,4.2,4.2h396.5
	c2.3,0,4.2-1.9,4.2-4.2V259c0-3.8,3.1-6.8,6.8-6.8h22c2.3,0,4.2-2,4.2-4.5v-32.2c0-2.5-1.9-4.5-4.2-4.5L28.6,211L28.6,211z"/>
</svg>
