<?xml version="1.0" encoding="utf-8"?>
<!-- Generator: Adobe Illustrator 22.0.0, SVG Export Plug-In . SVG Version: 6.00 Build 0)  -->
<svg version="1.1" id="Layer_1" xmlns="http://www.w3.org/2000/svg" xmlns:xlink="http://www.w3.org/1999/xlink" x="0px" y="0px"
	 viewBox="0 0 512 512" style="enable-background:new 0 0 512 512;" xml:space="preserve">
<style type="text/css">
	.st0{fill:#3FC6F1;}
	.st1{fill:#5E686C;}
</style>
<path class="st0" d="M182.1,137.3h-38.5V88.2c0-3.8-3-6.8-6.8-6.8s-6.8,3-6.8,6.8v49.1H81.2V88.2c0-3.8-3-6.8-6.8-6.8
	s-6.8,3-6.8,6.8v49.1H33.3c-3.8,0-6.8,3-6.8,6.8v46c0,26.6,22.4,49,49,49h25.4v261.5c0,3.8,3,6.8,6.8,6.8s6.8-3,6.8-6.8V239.1h25.4
	c27,0,49.1-22,49.1-49v-46C188.9,140.3,185.9,137.3,182.1,137.3z M175.3,190c0,19.5-15.9,35.5-35.5,35.5H75.5
	c-19.2,0-35.5-16.2-35.5-35.5v-39.2h135.3L175.3,190L175.3,190z"/>
<path class="st1" d="M466.5,50.2H237.3c-12.6,0-23.3,11.1-23.3,24.2v408.7c0,13.1,10.7,24.2,23.3,24.2h229.2
	c12.7,0,23.4-11.1,23.4-24.2V74.4C489.9,61.3,479.2,50.2,466.5,50.2z M476.3,483.1c0,6.1-5.2,10.6-9.8,10.6H237.3
	c-5.2,0-9.8-5-9.8-10.6V74.4c0-5.7,4.6-10.7,9.8-10.7v0h229.2c5.1,0,9.8,5.1,9.8,10.7V483.1z"/>
<path class="st1" d="M270.9,18.2H433c3.8,0,6.8-3,6.8-6.8c0-3.8-3-6.8-6.8-6.8H270.9c-3.8,0-6.8,3-6.8,6.8
	C264.1,15.2,267.1,18.2,270.9,18.2z"/>
<path class="st0" d="M392,285.3l-69.6-7.8l40.2-96.4c1.4-3.5-0.2-7.4-3.7-8.9c-3.4-1.5-7.4,0.2-8.9,3.7l-43.6,104.8
	c-0.8,2-0.7,4.2,0.4,6.1c1.1,1.8,3,3.1,5.1,3.3l70,7.8l-32,87.9c-1.3,3.5,0.5,7.4,4.1,8.7c0.8,0.3,1.5,0.4,2.3,0.4
	c2.8,0,5.4-1.7,6.4-4.5l34.9-96.1c0.7-1.9,0.5-4.1-0.6-5.9C395.9,286.7,394.1,285.6,392,285.3z"/>
</svg>
