<?xml version="1.0" encoding="utf-8"?>
<!-- Generator: Adobe Illustrator 22.0.0, SVG Export Plug-In . SVG Version: 6.00 Build 0)  -->
<svg version="1.1" id="Layer_1" xmlns="http://www.w3.org/2000/svg" xmlns:xlink="http://www.w3.org/1999/xlink" x="0px" y="0px"
	 viewBox="0 0 512 512" style="enable-background:new 0 0 512 512;" xml:space="preserve">
<style type="text/css">
	.st0{fill:#3FC6F1;}
	.st1{fill:#5E686C;}
</style>
<path class="st0" d="M162.3,398c-1.7,0-3.4-0.6-4.7-1.9c-2.7-2.6-2.8-6.9-0.2-9.6l43.1-44.6c2.6-2.7,6.9-2.8,9.6-0.2
	c2.7,2.6,2.8,6.9,0.2,9.6L167.2,396C165.9,397.4,164.1,398,162.3,398z"/>
<path class="st1" d="M420.9,95c-1.2,0-2.4-0.3-3.5-1c-3.2-1.9-4.3-6.1-2.3-9.3c8.1-13.6,10-27.3,5.5-39.6
	c-4.3-11.7-14.2-21.2-26.4-25.4c-10.9-3.7-22.5-2.9-32.8,2.1c-10.3,5.1-18,13.8-21.7,24.7c-0.4,1.3-0.8,2.6-1.1,3.9
	c-0.8,3.7-4.5,6-8.2,5.1c-3.7-0.8-6-4.5-5.1-8.2c0.4-1.7,0.9-3.5,1.5-5.2C336.8,12.6,369-3.2,398.5,6.8c16.1,5.5,29.1,18,34.8,33.6
	c4.2,11.4,6.4,29.6-6.6,51.3C425.4,93.9,423.2,95,420.9,95z"/>
<path class="st1" d="M438.2,489.6c-3.3,0-6.2-2.4-6.7-5.8c-0.7-4.7-16.9-115.7,11.8-200c16.9-49.6,21.3-92.1,13.1-126.4
	c-10.6-44.3-42.9-75.9-95.9-93.9c-93.8-31.9-161.1,9.8-200,124.1C131.7,271.9,51.2,349.9,47.8,353.2c-2.7,2.6-7,2.5-9.6-0.2
	c-2.6-2.7-2.5-7,0.2-9.6c0.8-0.8,81.6-79.1,109.2-160.2c41.2-121.1,116.4-167,217.3-132.6c57.7,19.6,93,54.5,104.8,103.7
	c8.8,36.8,4.3,81.9-13.4,134c-27.6,81.2-11.4,192.5-11.2,193.6c0.6,3.7-2,7.2-5.7,7.7C438.9,489.6,438.6,489.6,438.2,489.6z"/>
<path class="st0" d="M402.4,238.5c-3.7,0-6.7-2.9-6.8-6.6c-1.1-34.8-14.9-62.1-41.1-81.1c-3-2.2-3.7-6.5-1.5-9.5s6.5-3.7,9.5-1.5
	c29.8,21.7,45.5,52.5,46.8,91.7c0.1,3.8-2.8,6.9-6.6,7C402.5,238.5,402.4,238.5,402.4,238.5z"/>
<path class="st1" d="M384.8,508c-5.5,0-11.4-0.2-17.6-0.6c-41.3-2.7-93.4-14.2-146.7-32.4c-22.3-7.6-43.9-16-64-25
	c-3.4-1.5-5-5.6-3.4-9c1.5-3.4,5.6-5,9-3.4c19.8,8.8,41,17.1,62.9,24.6c52.2,17.8,103.1,29,143.2,31.7c42.7,2.8,60.9-5,63.7-13.2
	c2.8-8.2-6.9-25.5-42.4-49.3c-33.4-22.4-80.6-44.5-132.9-62.3c-52.2-17.8-103.1-29-143.2-31.7c-42.7-2.9-60.9,4.9-63.7,13.1
	c-2.8,8.4,7.2,26,43.9,50.3c3.1,2.1,4,6.3,1.9,9.4c-2.1,3.1-6.3,4-9.4,1.9c-26.7-17.7-56.9-43.5-49.2-66c6-17.6,32.8-25.3,77.5-22.4
	c41.3,2.7,93.4,14.2,146.7,32.4c53.3,18.2,101.6,40.8,136,63.9c37.3,24.9,53.8,47.4,47.8,65C439.5,500.2,419,508,384.8,508z"/>
<path class="st0" d="M129.5,463.3c-5.2,0-10.4-0.9-15.4-2.5c-24.9-8.5-38.2-35.6-29.8-60.5c6.6-19.3,24.7-32.3,45.2-32.3
	c5.2,0,10.4,0.9,15.3,2.5c12.1,4.1,21.8,12.7,27.4,24.1c5.6,11.4,6.5,24.4,2.3,36.5C168.1,450.3,149.9,463.3,129.5,463.3z
	 M129.5,381.5c-14.6,0-27.6,9.3-32.3,23.1c-6,17.8,3.5,37.2,21.3,43.2c17.5,5.9,37.3-3.9,43.2-21.2c2.9-8.6,2.3-17.9-1.7-26
	c-4-8.2-11-14.3-19.6-17.2C136.9,382.1,133.2,381.5,129.5,381.5z"/>
</svg>
