<?xml version="1.0" encoding="utf-8"?>
<!-- Generator: Adobe Illustrator 22.0.0, SVG Export Plug-In . SVG Version: 6.00 Build 0)  -->
<svg version="1.1" id="Layer_1" xmlns="http://www.w3.org/2000/svg" xmlns:xlink="http://www.w3.org/1999/xlink" x="0px" y="0px"
	 viewBox="0 0 512 512" style="enable-background:new 0 0 512 512;" xml:space="preserve">
<style type="text/css">
	.st0{fill:#5E686C;}
	.st1{fill:#3FC6F1;}
</style>
<path class="st0" d="M256.2,3.5C127.1,3.5,19.2,100.2,5.3,228.3c-0.4,3.7,2.3,7,5.9,7.4c3.6,0.3,7-2.3,7.4-5.9
	C31.8,108.4,133.9,16.9,256.2,16.9c131.8,0,238.9,107.2,238.9,238.9S387.9,494.8,256.2,494.8c-122.2,0-224.4-91.5-237.5-212.9
	c-0.4-3.7-3.8-6.4-7.4-5.9c-3.7,0.4-6.3,3.7-5.9,7.4c13.9,128.2,121.8,224.8,250.8,224.8c139.1,0,252.3-113.2,252.3-252.3
	C508.5,116.7,395.3,3.5,256.2,3.5z"/>
<path class="st0" d="M256.2,440.4c101.8,0,184.6-82.8,184.6-184.6c0-101.8-82.8-184.6-184.6-184.6c-101.8,0-184.6,82.8-184.6,184.6
	C71.6,357.6,154.4,440.4,256.2,440.4z M256.2,84.7c94.4,0,171.2,76.8,171.2,171.2c0,94.4-76.8,171.2-171.2,171.2
	C161.8,427,85,350.2,85,255.8C85,161.4,161.8,84.7,256.2,84.7z"/>
<path class="st1" d="M207.1,255.8v69.5h-10.2c-3.7,0-6.7,3-6.7,6.7c0,3.7,3,6.7,6.7,6.7h16.9h10.3V349c0,3.7,3,6.7,6.7,6.7
	s6.7-3,6.7-6.7v-10.2h37.4V349c0,3.7,3,6.7,6.7,6.7c3.7,0,6.7-3,6.7-6.7v-11.6c19.4-4.9,33.9-22.5,33.9-43.5
	c0-20.2-13.4-37.3-31.9-42.9c9.1-8.2,14.9-20.1,14.9-33.3c0-14.2-6.6-26.8-16.9-35v-20c0-3.7-3-6.7-6.7-6.7c-3.7,0-6.7,3-6.7,6.7
	v12.7c-4.5-1.6-9.4-2.4-14.5-2.4h-22.9v-10.2c0-3.7-3-6.7-6.7-6.7c-3.7,0-6.7,3-6.7,6.7v10.2h-10.3l0,0l0,0h-16.9
	c-3.7,0-6.7,3-6.7,6.7s3,6.7,6.7,6.7h10.2L207.1,255.8C207.1,255.8,207.1,255.8,207.1,255.8z M277.4,262.5
	c17.3,0,31.4,14.1,31.4,31.4c0,16.1-12.2,29.4-27.8,31.2c-0.1,0-0.2,0-0.4,0c-1.1,0.1-2.2,0.2-3.3,0.2h-56.8v-62.8h39.9L277.4,262.5
	L277.4,262.5z M291.8,217.7c0,17.3-14.1,31.4-31.4,31.4h-39.9v-62.8h39.9C277.7,186.3,291.8,200.4,291.8,217.7z"/>
</svg>
