<?xml version="1.0" encoding="utf-8"?>
<!-- Generator: Adobe Illustrator 22.0.0, SVG Export Plug-In . SVG Version: 6.00 Build 0)  -->
<svg version="1.1" id="Layer_1" xmlns="http://www.w3.org/2000/svg" xmlns:xlink="http://www.w3.org/1999/xlink" x="0px" y="0px"
	 viewBox="0 0 512 512" style="enable-background:new 0 0 512 512;" xml:space="preserve">
<style type="text/css">
	.st0{fill:#5E686C;}
	.st1{fill:#3FC6F1;}
</style>
<path class="st0" d="M338.8,505H176.9c-0.3,0-0.6,0-0.9-0.1c-94.2-1-167.8-74.7-167.8-168.1V175.7C8.2,83.4,83.8,7.8,176.9,7.2h70.8
	c0.4-0.1,0.9-0.1,1.2-0.1c90.3,0.6,161.3,69.5,166,160.5c0.2,0.7,0.4,1.4,0.4,2.2c0,0.5,0,0.9-0.1,1.4c2.2,6.1,9.1,18.2,27.8,18.2
	h22.2c21.8,0,41,18,41,38.6v108.9c0,96.5-87.2,165.7-165.9,168C339.7,504.9,339.2,505,338.8,505z M177.7,491.4h159.8
	c0.3-0.1,0.7-0.1,1.1-0.1c72.8-1.5,153.9-65.3,153.9-154.5V228c0-12.9-13.3-25.1-27.5-25.1h-22.2c-28.3,0-39.9-21.1-42-32.3
	c-0.3-1.3-0.1-2.7,0.4-3.9c-5-82.6-69.4-145-151.3-146.1c-0.4,0.1-0.7,0.1-1.1,0.1h-71.9c-87,0.6-155.2,68.7-155.2,155v161.1
	c0,86.2,68.2,154,155.3,154.6C177.2,491.4,177.4,491.4,177.7,491.4z"/>
<path class="st1" d="M363,352.6H134.4c-3.7,0-6.8-3-6.8-6.8c0-3.7,3-6.8,6.8-6.8H363c3.7,0,6.8,3,6.8,6.8
	C369.7,349.5,366.7,352.6,363,352.6z"/>
<path class="st1" d="M287.2,202.9H134.4c-3.7,0-6.8-3-6.8-6.8s3-6.8,6.8-6.8h152.8c3.7,0,6.8,3,6.8,6.8S291,202.9,287.2,202.9z"/>
</svg>
