<?xml version="1.0" encoding="utf-8"?>
<!-- Generator: Adobe Illustrator 22.0.0, SVG Export Plug-In . SVG Version: 6.00 Build 0)  -->
<svg version="1.1" id="Layer_1" xmlns="http://www.w3.org/2000/svg" xmlns:xlink="http://www.w3.org/1999/xlink" x="0px" y="0px"
	 viewBox="0 0 512 512" style="enable-background:new 0 0 512 512;" xml:space="preserve">
<style type="text/css">
	.st0{fill:#5E686C;}
	.st1{fill:none;stroke:#5E686C;stroke-linecap:round;stroke-linejoin:round;stroke-miterlimit:10;}
	.st2{fill:#3FC6F1;}
</style>
<path class="st0" d="M246.3,509.9c-0.9,0-1.8-0.2-2.6-0.5c-2.6-1.1-4.2-3.6-4.2-6.3V254.6l-96.7-89.2c-2.8-2.6-3-6.9-0.4-9.7
	c2.6-2.8,6.9-2.9,9.7-0.4l229.7,211.9c1.4,1.3,2.2,3,2.2,4.9c0,1.9-0.7,3.7-2,5L251.1,507.9C249.8,509.2,248,509.9,246.3,509.9z
	 M253.1,267.2v219.3l114.1-114L253.1,267.2z"/>
<path class="st1" d="M246.5,252"/>
<path class="st0" d="M148.7,350.1c-1.8,0-3.7-0.7-5-2.2c-2.6-2.8-2.4-7.1,0.3-9.7l97.8-91.3c2.8-2.6,7.1-2.4,9.7,0.3
	c2.6,2.8,2.4,7.1-0.3,9.7l-97.8,91.3C152.1,349.5,150.4,350.1,148.7,350.1z"/>
<path class="st2" d="M246.3,258.8c-3.8,0-6.8-3.1-6.8-6.8V6.8c0-2.8,1.7-5.3,4.2-6.3c2.6-1.1,5.5-0.5,7.5,1.5l127,126.9
	c1.3,1.3,2,3.1,2,5c0,1.8-0.8,3.6-2.2,4.9L251.2,257c-1.4,1.3-2.8,1.9-4.8,1.8C246.4,258.8,246.3,258.8,246.3,258.8z M253.1,23.3
	v213.2l110.3-102.9L253.1,23.3z"/>
</svg>
