<?xml version="1.0" encoding="utf-8"?>
<!-- Generator: Adobe Illustrator 22.0.0, SVG Export Plug-In . SVG Version: 6.00 Build 0)  -->
<svg version="1.1" id="Layer_1" xmlns="http://www.w3.org/2000/svg" xmlns:xlink="http://www.w3.org/1999/xlink" x="0px" y="0px"
	 viewBox="0 0 512 512" style="enable-background:new 0 0 512 512;" xml:space="preserve">
<style type="text/css">
	.st0{fill:#5E686C;}
	.st1{clip-path:url(#SVGID_5_);fill:#5E686C;}
	.st2{fill:#3FC6F1;}
	.st3{clip-path:url(#SVGID_11_);}
	.st4{clip-path:url(#SVGID_12_);fill:#5E686C;}
</style>
<path id="SVGID_1_" class="st0" d="M464.5,193.5h-58.1c-3.7,0-6.7-3-6.7-6.7c0-3.7,3-6.7,6.7-6.7h51.3v-79.4h-51.3
	c-3.7,0-6.7-3-6.7-6.7s3-6.7,6.7-6.7h58.1c3.7,0,6.7,3,6.7,6.7v92.9C471.2,190.5,468.2,193.5,464.5,193.5z"/>
<g>
	<defs>
		<path id="SVGID_2_" d="M464.5,193.5h-58.1c-3.7,0-6.7-3-6.7-6.7c0-3.7,3-6.7,6.7-6.7h51.3v-79.4h-51.3c-3.7,0-6.7-3-6.7-6.7
			s3-6.7,6.7-6.7h58.1c3.7,0,6.7,3,6.7,6.7v92.9C471.2,190.5,468.2,193.5,464.5,193.5z"/>
	</defs>
	<clipPath id="SVGID_5_">
		<use xlink:href="#SVGID_2_"  style="overflow:visible;"/>
	</clipPath>
	<path class="st1" d="M464.5,193.5h-81.3c-3.7,0-6.7-3-6.7-6.7V93.9c0-3.7,3-6.7,6.7-6.7h81.3c3.7,0,6.7,3,6.7,6.7v92.9
		C471.2,190.5,468.2,193.5,464.5,193.5z M390,180h67.8v-79.4H390V180z"/>
</g>
<path id="SVGID_3_" class="st2" d="M139.4,507H46.5c-3.7,0-6.7-3-6.7-6.7V12.6c0-3.7,3-6.7,6.7-6.7h92.9c3.7,0,6.7,3,6.7,6.7
	s-3,6.7-6.7,6.7H53.3v474.1h86.1c3.7,0,6.7,3,6.7,6.7S143.1,507,139.4,507z"/>
<path id="SVGID_4_" class="st0" d="M360,507H141c-3.7,0-6.7-3-6.7-6.7s3-6.7,6.7-6.7H360c21.9,0,39.7-17.9,39.7-39.8V59.1
	c0-21.9-17.8-39.8-39.7-39.8H141.6c-3.7,0-6.7-3-6.7-6.7s3-6.7,6.7-6.7H360c29.4,0,53.2,23.9,53.2,53.3v394.6
	C413.2,483.1,389.3,507,360,507z"/>
<g>
	<defs>
		<path id="SVGID_6_" d="M139.4,507H46.5c-3.7,0-6.7-3-6.7-6.7V12.6c0-3.7,3-6.7,6.7-6.7h92.9c3.7,0,6.7,3,6.7,6.7s-3,6.7-6.7,6.7
			H53.3v474.1h86.1c3.7,0,6.7,3,6.7,6.7S143.1,507,139.4,507z"/>
	</defs>
	<clipPath id="SVGID_8_">
		<use xlink:href="#SVGID_6_"  style="overflow:visible;"/>
	</clipPath>
</g>
<g>
	<defs>
		<path id="SVGID_9_" d="M139.4,507H46.5c-3.7,0-6.7-3-6.7-6.7V12.6c0-3.7,3-6.7,6.7-6.7h92.9c3.7,0,6.7,3,6.7,6.7s-3,6.7-6.7,6.7
			H53.3v474.1h86.1c3.7,0,6.7,3,6.7,6.7S143.1,507,139.4,507z"/>
	</defs>
	<defs>
		<path id="SVGID_10_" d="M360,507H141c-3.7,0-6.7-3-6.7-6.7s3-6.7,6.7-6.7H360c21.9,0,39.7-17.9,39.7-39.8V59.1
			c0-21.9-17.8-39.8-39.7-39.8H141.6c-3.7,0-6.7-3-6.7-6.7s3-6.7,6.7-6.7H360c29.4,0,53.2,23.9,53.2,53.3v394.6
			C413.2,483.1,389.3,507,360,507z"/>
	</defs>
	<clipPath id="SVGID_11_">
		<use xlink:href="#SVGID_9_"  style="overflow:visible;"/>
	</clipPath>
	<clipPath id="SVGID_12_" class="st3">
		<use xlink:href="#SVGID_10_"  style="overflow:visible;"/>
	</clipPath>
	<path class="st4" d="M360,507H46.5c-3.7,0-6.7-3-6.7-6.7V12.6c0-3.7,3-6.7,6.7-6.7H360c29.4,0,53.2,23.9,53.2,53.3v394.6
		C413.2,483.1,389.3,507,360,507z M53.3,493.5H360c21.9,0,39.7-17.9,39.7-39.8V59.1c0-21.9-17.8-39.8-39.7-39.8H53.3V493.5z"/>
</g>
<path id="SVGID_7_" class="st2" d="M139.4,507c-3.7,0-6.7-3-6.7-6.7V12.6c0-3.7,3-6.7,6.7-6.7c3.7,0,6.7,3,6.7,6.7v487.6
	C146.2,504,143.1,507,139.4,507z"/>
<path class="st0" d="M313.6,134.7c-3.7,0-6.7-3-6.7-6.7V60.5c0-3.7,3-6.7,6.7-6.7s6.7,3,6.7,6.7V128
	C320.3,131.7,317.3,134.7,313.6,134.7z"/>
</svg>
