<?xml version="1.0" encoding="utf-8"?>
<!-- Generator: Adobe Illustrator 22.0.0, SVG Export Plug-In . SVG Version: 6.00 Build 0)  -->
<svg version="1.1" id="Layer_1" xmlns="http://www.w3.org/2000/svg" xmlns:xlink="http://www.w3.org/1999/xlink" x="0px" y="0px"
	 viewBox="0 0 512 512" style="enable-background:new 0 0 512 512;" xml:space="preserve">
<style type="text/css">
	.st0{fill:#3FC6F1;}
	.st1{fill:#5E686C;}
</style>
<path class="st0" d="M183.8,320c-1.7,0-3.4-0.7-4.8-2c-2.6-2.6-2.6-6.9,0-9.5l183-183.1c2.6-2.6,6.9-2.6,9.5,0
	c2.6,2.6,2.6,6.9,0,9.5L188.6,318C187.2,319.3,185.5,320,183.8,320z"/>
<path class="st1" d="M224.2,56.4c-1.7,0-3.4-0.7-4.8-2l-35.7-35.7l-35.7,35.7c-2.6,2.6-6.9,2.6-9.5,0c-2.6-2.6-2.6-6.9,0-9.5
	L179,4.5c2.6-2.6,6.9-2.6,9.5,0L229,44.9c2.6,2.6,2.6,6.9,0,9.5C227.7,55.7,225.9,56.4,224.2,56.4z"/>
<path class="st0" d="M366.8,194.1c-3.7,0-6.7-3-6.7-6.7v-50.4h-50.4c-3.7,0-6.7-3-6.7-6.7s3-6.7,6.7-6.7h57.2c3.7,0,6.7,3,6.7,6.7
	v57.2C373.6,191.1,370.5,194.1,366.8,194.1z"/>
<path class="st1" d="M183.8,510c-22.3,0-40.4-18.1-40.4-40.4c0-22.3,18.1-40.4,40.4-40.4s40.4,18.1,40.4,40.4
	C224.2,491.9,206.1,510,183.8,510z M183.8,442.6c-14.9,0-26.9,12.1-26.9,26.9s12.1,26.9,26.9,26.9s26.9-12.1,26.9-26.9
	S198.7,442.6,183.8,442.6z"/>
<path class="st1" d="M183.8,442.6c-3.7,0-6.7-3-6.7-6.7V9.1c0-3.7,3-6.7,6.7-6.7s6.7,3,6.7,6.7v426.8
	C190.5,439.6,187.5,442.6,183.8,442.6z"/>
</svg>
