<?xml version="1.0" encoding="utf-8"?>
<!-- Generator: Adobe Illustrator 22.0.0, SVG Export Plug-In . SVG Version: 6.00 Build 0)  -->
<svg version="1.1" id="Layer_1" xmlns="http://www.w3.org/2000/svg" xmlns:xlink="http://www.w3.org/1999/xlink" x="0px" y="0px"
	 viewBox="0 0 512 512" style="enable-background:new 0 0 512 512;" xml:space="preserve">
<style type="text/css">
	.st0{fill:#3FC6F1;}
	.st1{fill:#5E686C;}
	.st2{clip-path:url(#SVGID_4_);fill:#5E686C;}
</style>
<g>
	<path id="SVGID_1_" class="st0" d="M345.8,120.5H168.8c-3.8,0-6.8-3.1-6.8-6.8V83.9c0-25.1,20.4-45.6,45.5-45.6h99.8
		c25.1,0,45.5,20.4,45.5,45.6v29.7C352.7,117.4,349.6,120.5,345.8,120.5z M175.6,106.8H339V83.9c0-17.6-14.3-31.9-31.8-31.9h-99.8
		c-17.5,0-31.8,14.3-31.8,31.9L175.6,106.8L175.6,106.8z"/>
</g>
<path class="st1" d="M168.8,474.6H80.2c-3.8,0-6.8-3.1-6.8-6.8v-33.2c0-3.8,3.1-6.8,6.8-6.8s6.8,3.1,6.8,6.8v26.4h74.9v-26.4
	c0-3.8,3.1-6.8,6.8-6.8s6.8,3.1,6.8,6.8v33.2C175.6,471.5,172.5,474.6,168.8,474.6z"/>
<path class="st1" d="M434.4,474.6h-88.5c-3.8,0-6.8-3.1-6.8-6.8v-33.2c0-3.8,3.1-6.8,6.8-6.8s6.8,3.1,6.8,6.8v26.4h74.9v-26.4
	c0-3.8,3.1-6.8,6.8-6.8s6.8,3.1,6.8,6.8v33.2C441.2,471.5,438.1,474.6,434.4,474.6z"/>
<g>
	<g>
		<path id="SVGID_3_" class="st1" d="M445.4,441.4H69.2C34.9,441.4,7,413.5,7,379.2V169c0-34.3,27.9-62.2,62.2-62.2h376.2
			c34.3,0,62.2,27.9,62.2,62.2v210.2C507.6,413.5,479.7,441.4,445.4,441.4z M69.2,120.5c-26.8,0-48.6,21.8-48.6,48.5v210.2
			c0,26.8,21.8,48.5,48.6,48.5h376.2c26.8,0,48.5-21.8,48.5-48.5V169c0-26.7-21.8-48.5-48.5-48.5H69.2z"/>
	</g>
	<g>
		<defs>
			<path id="SVGID_2_" d="M445.4,441.4H69.2C34.9,441.4,7,413.5,7,379.2V169c0-34.3,27.9-62.2,62.2-62.2h376.2
				c34.3,0,62.2,27.9,62.2,62.2v210.2C507.6,413.5,479.7,441.4,445.4,441.4z M69.2,120.5c-26.8,0-48.6,21.8-48.6,48.5v210.2
				c0,26.8,21.8,48.5,48.6,48.5h376.2c26.8,0,48.5-21.8,48.5-48.5V169c0-26.7-21.8-48.5-48.5-48.5H69.2z"/>
		</defs>
		<clipPath id="SVGID_4_">
			<use xlink:href="#SVGID_2_"  style="overflow:visible;"/>
		</clipPath>
		<path class="st2" d="M445.4,441.4H69.2C34.9,441.4,7,413.5,7,379.2V169c0-34.3,27.9-62.2,62.2-62.2h376.2
			c34.3,0,62.2,27.9,62.2,62.2v210.2C507.6,413.5,479.7,441.4,445.4,441.4z M69.2,120.5c-26.8,0-48.6,21.8-48.6,48.5v210.2
			c0,26.8,21.8,48.5,48.6,48.5h376.2c26.8,0,48.5-21.8,48.5-48.5V169c0-26.7-21.8-48.5-48.5-48.5H69.2z"/>
	</g>
</g>
</svg>
