<?xml version="1.0" encoding="utf-8"?>
<!-- Generator: Adobe Illustrator 22.0.0, SVG Export Plug-In . SVG Version: 6.00 Build 0)  -->
<svg version="1.1" id="Layer_1" xmlns="http://www.w3.org/2000/svg" xmlns:xlink="http://www.w3.org/1999/xlink" x="0px" y="0px"
	 viewBox="0 0 512 512" style="enable-background:new 0 0 512 512;" xml:space="preserve">
<style type="text/css">
	.st0{fill:#5E686C;}
	.st1{fill:#3FC6F1;}
</style>
<path class="st0" d="M502.7,57.4h-491c-3.8,0-6.8,3-6.8,6.8V457c0,3.8,3,6.8,6.8,6.8h491c3.8,0,6.8-3,6.8-6.8V64.2
	C509.5,60.4,506.5,57.4,502.7,57.4z M495.9,71v103.6H18.5V71H495.9z M18.5,450.2V188.3h477.4v261.9H18.5z"/>
<path class="st1" d="M80.9,150.1c15,0,27.3-12.2,27.3-27.2c0-15-12.2-27.3-27.3-27.3c-15,0-27.2,12.2-27.2,27.3
	C53.7,137.9,65.9,150.1,80.9,150.1z M80.9,109.2c7.5,0,13.6,6.1,13.6,13.7c0,7.5-6.1,13.6-13.6,13.6c-7.5,0-13.6-6.1-13.6-13.6
	C67.3,115.4,73.4,109.2,80.9,109.2z"/>
<path class="st1" d="M152.8,150.1c15,0,27.2-12.2,27.2-27.2c0-15-12.2-27.3-27.2-27.3c-15,0-27.3,12.2-27.3,27.3
	C125.6,137.9,137.8,150.1,152.8,150.1z M152.8,109.2c7.5,0,13.6,6.1,13.6,13.7c0,7.5-6.1,13.6-13.6,13.6c-7.5,0-13.6-6.1-13.6-13.6
	C139.2,115.4,145.3,109.2,152.8,109.2z"/>
<path class="st1" d="M224.7,150.1c15,0,27.3-12.2,27.3-27.2c0-15-12.2-27.3-27.3-27.3c-15,0-27.2,12.2-27.2,27.3
	C197.5,137.9,209.7,150.1,224.7,150.1z M224.7,109.2c7.5,0,13.6,6.1,13.6,13.7c0,7.5-6.1,13.6-13.6,13.6c-7.5,0-13.6-6.1-13.6-13.6
	C211.1,115.4,217.2,109.2,224.7,109.2z"/>
</svg>
