<?xml version="1.0" encoding="utf-8"?>
<!-- Generator: Adobe Illustrator 22.0.0, SVG Export Plug-In . SVG Version: 6.00 Build 0)  -->
<svg version="1.1" id="Layer_1" xmlns="http://www.w3.org/2000/svg" xmlns:xlink="http://www.w3.org/1999/xlink" x="0px" y="0px"
	 viewBox="0 0 512 512" style="enable-background:new 0 0 512 512;" xml:space="preserve">
<style type="text/css">
	.st0{fill:#3FC6F1;}
	.st1{fill:#5E686C;}
</style>
<path class="st0" d="M261.6,508c-28.9,0-47.5-21.9-47.5-55.9c0-6.6,1.2-13.2,3.6-19.6c0.1-0.5,0.3-1,0.5-1.5l1.5-3.3
	c3.3-7.4,12.2-26.9,12.2-68.8c0-24.4-28.5-25.6-34.2-25.6l-78.8,0c-16.1,0-29.2-13.1-29.2-29.2V31.2C89.7,15.1,102.8,2,118.9,2
	h285.3c16.1,0,29.2,13.1,29.2,29.2v272.9c0,16.1-13.1,29.2-29.2,29.2h-72.7c-28.8,0-39.3,15.3-39.3,25.6c0,46.8,7.4,60.6,10.9,67.3
	c0.7,1.2,1.2,2.3,1.6,3.2l-0.1,0c1,1.1,1.7,2.6,1.8,4.3c2.1,6,3.2,12.2,3.2,18.4C309.6,485.5,290.3,508,261.6,508z M231,436
	c-0.1,0.2-0.1,0.4-0.2,0.6c-2,5.1-3.1,10.4-3.1,15.6c0,20.4,8.9,42.2,33.9,42.2c25.3,0,34.4-21.8,34.4-42.2c0-5.2-1-10.4-3.1-15.6
	c-0.1-0.2-0.2-0.4-0.2-0.6c-0.1-0.1-0.1-0.2-0.1-0.2c-0.7-1.5-1.1-2.3-1.5-3.1c-4.1-7.6-12.5-23.5-12.5-73.7
	c0-15.8,14.1-39.2,52.9-39.2h72.7c8.6,0,15.5-7,15.5-15.6V31.2c0-8.6-7-15.5-15.5-15.5H118.9c-8.6,0-15.5,7-15.5,15.5v272.9
	c0,8.6,7,15.6,15.5,15.6h78.3c0,0,0,0,0,0c18.3,0,48.3,8.3,48.3,39.2c0,44.8-9.7,66.3-13.4,74.4l-0.7,1.5
	C231.5,434.8,231.2,435.5,231,436z"/>
<path class="st1" d="M426.6,269.8H96.6c-3.8,0-6.8-3.1-6.8-6.8s3.1-6.8,6.8-6.8h330.1c3.8,0,6.8,3.1,6.8,6.8
	S430.4,269.8,426.6,269.8z"/>
<path class="st1" d="M426.6,191.3H96.6c-3.8,0-6.8-3.1-6.8-6.8s3.1-6.8,6.8-6.8h330.1c3.8,0,6.8,3.1,6.8,6.8
	C433.5,188.2,430.4,191.3,426.6,191.3z"/>
</svg>
