<?xml version="1.0" encoding="utf-8"?>
<!-- Generator: Adobe Illustrator 22.0.0, SVG Export Plug-In . SVG Version: 6.00 Build 0)  -->
<svg version="1.1" id="Layer_1" xmlns="http://www.w3.org/2000/svg" xmlns:xlink="http://www.w3.org/1999/xlink" x="0px" y="0px"
	 viewBox="0 0 512 512" style="enable-background:new 0 0 512 512;" xml:space="preserve">
<style type="text/css">
	.st0{fill:#5E686C;}
	.st1{fill:#3FC6F1;}
</style>
<path class="st0" d="M256,2.6C125.5,2.6,19.4,108.7,19.4,239.2c0,77,37.3,148.8,100,193.2l-23.1,69.2c-0.9,2.6-0.1,5.5,2,7.4
	c1.3,1.1,2.9,1.7,4.5,1.7c1,0,2.1-0.2,3.1-0.7l85.8-42.9c20.8,5.9,42.4,8.8,64.2,8.8c130.5,0,236.6-106.1,236.6-236.6
	C492.6,108.7,386.5,2.6,256,2.6z M256,462.1c-21.5,0-42.6-3-63-9c-1.7-0.5-3.5-0.3-5,0.4l-73.4,36.7l19.4-58.3
	c1-2.9-0.1-6.1-2.7-7.9c-61.5-41.6-98.2-110.6-98.2-184.8c0-122.9,100-222.9,222.9-222.9c122.9,0,222.9,100,222.9,222.9
	C478.9,362.1,378.9,462.1,256,462.1z"/>
<path class="st1" d="M152.1,225c-24.2,0-43.9,19.7-43.9,43.9c0,24.2,19.7,43.9,43.9,43.9c24.2,0,43.9-19.7,43.9-43.9
	C196,244.7,176.3,225,152.1,225z M152.1,299.2c-16.7,0-30.2-13.6-30.2-30.2s13.5-30.2,30.2-30.2c16.7,0,30.2,13.5,30.2,30.2
	C182.3,285.6,168.7,299.2,152.1,299.2z"/>
<path class="st1" d="M344.3,145.4c0-24.2-19.7-43.9-43.9-43.9c-24.2,0-44,19.7-44,43.9c0,24.2,19.7,43.9,44,43.9
	C324.6,189.3,344.3,169.6,344.3,145.4z M270.2,145.4c0-16.7,13.6-30.2,30.2-30.2c16.7,0,30.2,13.5,30.2,30.2
	c0,16.7-13.5,30.2-30.2,30.2C283.7,175.6,270.2,162,270.2,145.4z"/>
<path class="st1" d="M325.1,274.5c-24.2,0-43.9,19.7-43.9,43.9c0,24.2,19.7,44,43.9,44c24.2,0,43.9-19.7,43.9-44
	C369,294.2,349.3,274.5,325.1,274.5z M325.1,348.6c-16.7,0-30.2-13.6-30.2-30.2c0-16.7,13.5-30.2,30.2-30.2
	c16.7,0,30.2,13.5,30.2,30.2C355.3,335,341.7,348.6,325.1,348.6z"/>
</svg>
