<?xml version="1.0" encoding="utf-8"?>
<!-- Generator: Adobe Illustrator 22.0.0, SVG Export Plug-In . SVG Version: 6.00 Build 0)  -->
<svg version="1.1" id="Layer_1" xmlns="http://www.w3.org/2000/svg" xmlns:xlink="http://www.w3.org/1999/xlink" x="0px" y="0px"
	 viewBox="0 0 512 512" style="enable-background:new 0 0 512 512;" xml:space="preserve">
<style type="text/css">
	.st0{fill:#3FC6F1;}
	.st1{fill:#5E686C;}
</style>
<path class="st0" d="M393.7,137.6L393.7,137.6c-6.2,0-12.7-1.4-19.3-4.2c-11-4.6-19.2-12.5-23.3-22.3c-4.1-9.9-3.9-21.3,0.7-32.2
	c2.4-5.8,6.6-11.1,11.1-16.7c10.9-13.8,21.3-26.8,7.8-47.3c-1.5-2.3-1.5-5.4,0.1-7.6c1.6-2.3,4.4-3.4,7.1-2.7
	c46.3,11.2,63,52.3,59,85.8C433.7,118.6,416.3,137.6,393.7,137.6z M389.4,23c5.7,20.6-6.5,35.9-15.8,47.7c-3.9,4.9-7.5,9.5-9.2,13.5
	c-3.2,7.7-3.5,15.2-0.7,21.7c2.7,6.6,8.3,11.8,16.1,15c4.9,2.1,9.6,3.1,14,3.1h0c18.9,0,27.9-19,29.8-35.3
	C426.4,64.9,416.5,36.4,389.4,23z"/>
<path class="st0" d="M314.7,230.9c-1.1,0-2.2-0.3-3.3-0.9c-3.3-1.8-4.5-6-2.6-9.2l55.9-100.5c1.8-3.3,6-4.4,9.2-2.6
	c3.3,1.8,4.5,6,2.6,9.2l-55.9,100.5C319.4,229.7,317,230.9,314.7,230.9z"/>
<path class="st0" d="M357.5,230.9c-0.8,0-1.6-0.1-2.4-0.4c-3.5-1.3-5.3-5.2-4-8.8l35.2-93.1c1.3-3.5,5.2-5.3,8.8-4
	c3.5,1.3,5.3,5.2,4,8.8l-35.2,93.1C362.9,229.3,360.3,230.9,357.5,230.9z"/>
<path class="st1" d="M400.4,402.4H379c-3.8,0-6.8-3-6.8-6.8s3-6.8,6.8-6.8h21.4c31.7,0,57.5-25.8,57.5-57.5s-25.8-57.5-57.5-57.5
	H379c-3.8,0-6.8-3-6.8-6.8s3-6.8,6.8-6.8h21.4c39.2,0,71.1,31.9,71.1,71.1C471.5,370.5,439.6,402.4,400.4,402.4z"/>
<path class="st1" d="M336.1,509.6H143.2c-27.4,0-49.7-22.3-49.7-49.6V224.1c0-3.8,3-6.8,6.8-6.8H379c3.8,0,6.8,3,6.8,6.8v235.8
	C385.8,487.3,363.5,509.6,336.1,509.6z M107.1,230.9v229c0,19.9,16.2,36.1,36.1,36.1h192.9c19.9,0,36.1-16.2,36.1-36.1v-229H107.1z"
	/>
<path class="st1" d="M186.3,230.9c-0.1,0-0.2,0-0.3,0h-64.3c-2.6,0-4.9-1.5-6.1-3.8l-32.2-64.3c-0.3-0.6-0.5-1.3-0.6-1.9L72.2,96.6
	c-0.4-2.6,0.7-5.2,2.9-6.7c2.2-1.5,5-1.6,7.3-0.2l53.6,32.2c1,0.6,1.9,1.5,2.4,2.5l52.8,95c1.2,1.2,1.9,2.9,1.9,4.7
	C193.1,227.9,190.1,230.9,186.3,230.9z M125.9,217.4h48.6l-47.1-84.8L88,108.9l8.1,48.8L125.9,217.4z"/>
<path class="st1" d="M89.6,166.6c-2.1,0-4.1-0.9-5.4-2.7c-2.3-3-1.6-7.3,1.4-9.5l42.9-32.2c3-2.2,7.2-1.7,9.5,1.4
	c2.3,3,1.6,7.3-1.4,9.5l-42.9,32.2C92.4,166.2,91,166.6,89.6,166.6z"/>
<path class="st1" d="M293.2,230.9h-85.7c-3.8,0-6.8-3-6.8-6.8V9.8c0-3.8,3-6.8,6.8-6.8h85.7c3.8,0,6.8,3,6.8,6.8v214.4
	C300,227.9,297,230.9,293.2,230.9z M214.3,217.4h72.2V16.6h-72.2L214.3,217.4L214.3,217.4z"/>
<path class="st1" d="M293.2,59.5h-42.9c-3.8,0-6.8-3-6.8-6.8s3-6.8,6.8-6.8h42.9c3.8,0,6.8,3,6.8,6.8S297,59.5,293.2,59.5z"/>
<path class="st1" d="M293.2,102.3h-21.4c-3.8,0-6.8-3-6.8-6.8c0-3.8,3-6.8,6.8-6.8h21.4c3.8,0,6.8,3,6.8,6.8
	C300,99.3,297,102.3,293.2,102.3z"/>
<path class="st1" d="M293.2,145.2h-42.9c-3.8,0-6.8-3-6.8-6.8s3-6.8,6.8-6.8h42.9c3.8,0,6.8,3,6.8,6.8
	C300,142.2,297,145.2,293.2,145.2z"/>
<path class="st1" d="M293.2,188.1h-21.4c-3.8,0-6.8-3-6.8-6.8s3-6.8,6.8-6.8h21.4c3.8,0,6.8,3,6.8,6.8
	C300,185,297,188.1,293.2,188.1z"/>
</svg>
