<?xml version="1.0" encoding="utf-8"?>
<!-- Generator: Adobe Illustrator 22.0.0, SVG Export Plug-In . SVG Version: 6.00 Build 0)  -->
<svg version="1.1" id="Layer_1" xmlns="http://www.w3.org/2000/svg" xmlns:xlink="http://www.w3.org/1999/xlink" x="0px" y="0px"
	 viewBox="0 0 512 512" style="enable-background:new 0 0 512 512;" xml:space="preserve">
<style type="text/css">
	.st0{fill:#5E686C;}
	.st1{fill:#3FC6F1;}
</style>
<path class="st0" d="M260,429.6c-34.1,0-52.7-4.1-62.3-13.7c-8.6-8.6-8.5-19.8-8.5-31.6c0-12.4,0.1-26.5-9.5-41.7
	c-8.8-14.1-20.1-29.2-32.1-45.1C118,257.9,87.4,217,87.4,181.6C87.4,85.3,164.8,7,260,7c95.2,0,172.6,78.3,172.6,174.6
	c0,35.5-30.6,76.4-60.3,115.9c-11.9,15.9-23.2,31-32.1,45.1c-9.6,15.3-9.5,29.3-9.5,41.7c0,11.8,0.1,23-8.5,31.6
	C312.7,425.5,294.1,429.6,260,429.6z M260,20.5c-87.7,0-159.1,72.3-159.1,161.1c0,31,29.3,70,57.6,107.8
	c12.1,16.2,23.6,31.4,32.7,46c11.6,18.6,11.6,35.4,11.5,49c0,11.1,0.1,17.6,4.5,22c6.5,6.6,23.8,9.8,52.8,9.8
	c29,0,46.2-3.2,52.8-9.8c4.4-4.4,4.6-10.9,4.6-22c-0.1-13.5-0.1-30.4,11.5-49c9.1-14.6,20.6-29.9,32.7-46
	c28.3-37.8,57.6-76.8,57.6-107.8C419.1,92.7,347.7,20.5,260,20.5z"/>
<path class="st0" d="M304.2,473.8h-88.4c-3.7,0-6.7-3-6.7-6.7s3-6.7,6.7-6.7h88.4c3.7,0,6.7,3,6.7,6.7
	C311,470.8,307.9,473.8,304.2,473.8z"/>
<path class="st0" d="M304.2,507h-88.4c-3.7,0-6.7-3-6.7-6.7c0-3.7,3-6.7,6.7-6.7h88.4c3.7,0,6.7,3,6.7,6.7
	C311,504,307.9,507,304.2,507z"/>
<path class="st1" d="M304.2,208.4c-1.7,0-3.5-0.7-4.8-2l-61.6-61.6l-61.6,61.6c-2.6,2.6-6.9,2.6-9.5,0c-2.6-2.6-2.6-6.9,0-9.5
	l66.4-66.4c1.3-1.3,3-2,4.8-2l0,0c1.8,0,3.5,0.7,4.8,2l66.3,66.4c2.6,2.6,2.6,6.9,0,9.5C307.7,207.8,305.9,208.4,304.2,208.4z"/>
<path class="st1" d="M354,208.4c-1.7,0-3.5-0.7-4.8-2l-61.6-61.6L226,206.5c-2.6,2.6-6.9,2.6-9.5,0c-2.6-2.6-2.6-6.9,0-9.5
	l66.4-66.4c2.6-2.6,6.9-2.6,9.5,0l66.4,66.4c2.6,2.6,2.6,6.9,0,9.5C357.4,207.8,355.7,208.4,354,208.4z"/>
</svg>
