<?xml version="1.0" encoding="utf-8"?>
<!-- Generator: Adobe Illustrator 22.0.0, SVG Export Plug-In . SVG Version: 6.00 Build 0)  -->
<svg version="1.1" id="Layer_1" xmlns="http://www.w3.org/2000/svg" xmlns:xlink="http://www.w3.org/1999/xlink" x="0px" y="0px"
	 viewBox="0 0 512 512" style="enable-background:new 0 0 512 512;" xml:space="preserve">
<style type="text/css">
	.st0{fill:#5E686C;}
	.st1{fill:#3FC6F1;}
</style>
<path class="st0" d="M341.9,148.7H195.2c-3.1,0-5.8-2.1-6.5-5.1L156,13.1c-0.5-2-0.1-4.1,1.2-5.8c1.3-1.6,3.2-2.6,5.3-2.6h212
	c2.1,0,4,1,5.3,2.6c1.3,1.6,1.7,3.8,1.2,5.8l-32.6,130.5C347.7,146.6,345,148.7,341.9,148.7z M200.4,135.2h136.2l29.2-117H171.2
	L200.4,135.2z"/>
<path class="st1" d="M260.4,507.4c-1.2,0-2.3-0.3-3.3-0.9l-114.1-65.2c-2.5-1.4-3.8-4.3-3.3-7.2l48.9-244.6c0.7-3.7,4.4-6,7.9-5.3
	c3.7,0.7,6,4.3,5.3,7.9l-48,239.8l106.6,60.9l106.9-61.1l-32-240.1c-0.5-3.7,2.1-7.1,5.8-7.6c3.6-0.5,7.1,2.1,7.6,5.8l32.6,244.6
	c0.4,2.7-1,5.4-3.3,6.7l-114.1,65.2C262.7,507.1,261.5,507.4,260.4,507.4z"/>
<path class="st0" d="M211.4,360.6c-3.2,0-6.1-2.3-6.6-5.6c-0.6-3.7,1.9-7.1,5.5-7.7l97.8-16.3c3.6-0.7,7.1,1.9,7.7,5.5
	c0.6,3.7-1.9,7.1-5.5,7.7l-97.8,16.3C212.2,360.6,211.8,360.6,211.4,360.6z"/>
<path class="st0" d="M211.4,425.9c-3.2,0-6.1-2.3-6.6-5.6c-0.6-3.7,1.9-7.1,5.5-7.7l97.8-16.3c3.6-0.7,7.1,1.9,7.7,5.5
	c0.6,3.7-1.9,7.1-5.5,7.7l-97.8,16.3C212.2,425.9,211.8,425.9,211.4,425.9z"/>
</svg>
