<?xml version="1.0" encoding="utf-8"?>
<!-- Generator: Adobe Illustrator 22.0.0, SVG Export Plug-In . SVG Version: 6.00 Build 0)  -->
<svg version="1.1" id="Layer_1" xmlns="http://www.w3.org/2000/svg" xmlns:xlink="http://www.w3.org/1999/xlink" x="0px" y="0px"
	 viewBox="0 0 512 512" style="enable-background:new 0 0 512 512;" xml:space="preserve">
<style type="text/css">
	.st0{fill:#5E686C;}
	.st1{fill:#3FC6F1;}
</style>
<path class="st0" d="M440.3,436.5H73.6C36.3,436.5,6,406.2,6,368.9V200.6c0-3.8,3-6.8,6.8-6.8h488.3c3.8,0,6.8,3,6.8,6.8v168.4
	C507.9,406.2,477.5,436.5,440.3,436.5z M19.6,207.3v161.6c0,29.8,24.3,54.1,54.1,54.1h366.6c29.8,0,54.1-24.2,54.1-54.1V207.3H19.6z
	"/>
<path class="st1" d="M501.1,167.6H12.8c-3.8,0-6.8-3-6.8-6.8v-4c0-37.3,30.3-67.7,67.6-67.7h366.6c37.3,0,67.6,30.3,67.6,67.7v4
	C507.9,164.6,504.9,167.6,501.1,167.6z M19.6,154.1h474.6c-1.5-28.5-25.1-51.3-54-51.3H73.6C44.8,102.8,21.1,125.5,19.6,154.1z"/>
<path class="st0" d="M433.3,310.8H257c-3.8,0-6.8-3-6.8-6.8c0-3.7,3-6.8,6.8-6.8h176.4c3.8,0,6.8,3,6.8,6.8
	C440.1,307.8,437.1,310.8,433.3,310.8z"/>
</svg>
