<?xml version="1.0" encoding="utf-8"?>
<!-- Generator: Adobe Illustrator 22.0.0, SVG Export Plug-In . SVG Version: 6.00 Build 0)  -->
<svg version="1.1" id="Layer_1" xmlns="http://www.w3.org/2000/svg" xmlns:xlink="http://www.w3.org/1999/xlink" x="0px" y="0px"
	 viewBox="0 0 512 512" style="enable-background:new 0 0 512 512;" xml:space="preserve">
<style type="text/css">
	.st0{fill:#5E686C;}
	.st1{fill:#3FC6F1;}
</style>
<path class="st0" d="M104.8,54c0-3.8-3-6.8-6.8-6.8H9.6c-3.8,0-6.8,3-6.8,6.8c0,3.8,3,6.8,6.8,6.8H98
	C101.8,60.8,104.8,57.8,104.8,54z"/>
<path class="st0" d="M497.1,87.4H75.9c-6.6,0-12,5.4-11.9,13l35.4,228.7c-0.3,0.9-0.3,1.9-0.2,2.9l8.1,49.4
	c0.9,6.8,6.8,11.8,13.6,11.8h17.9c-1.7,5.3-2.6,10.9-2.6,16.7c0,30,24.4,54.3,54.3,54.3c30,0,54.4-24.4,54.4-54.3
	c0-5.8-0.9-11.5-2.6-16.7h106.1c-1.7,5.3-2.6,10.9-2.6,16.7c0,30,24.4,54.3,54.3,54.3c30,0,54.4-24.4,54.4-54.3
	c0-30-24.4-54.4-54.4-54.4c-18.7,0-35.3,9.5-45.1,24c0,0-0.1,0-0.1,0H235.7c0,0-0.1,0-0.1,0c-9.8-14.5-26.3-24-45.1-24
	c-18.7,0-35.3,9.5-45.1,24c0,0-0.1,0-0.1,0l-24.6-0.3l-5.6-34.5l346.8-51.1c6,0,10.9-5.4,10.8-10.6l36.3-183.7
	C509.1,92.7,503.7,87.4,497.1,87.4z M400,369.1c22.5,0,40.8,18.3,40.8,40.8c0,22.5-18.3,40.8-40.8,40.8c-22.5,0-40.7-18.3-40.7-40.8
	C359.3,387.4,377.6,369.1,400,369.1z M190.6,369.1c22.5,0,40.8,18.3,40.8,40.8c0,22.5-18.3,40.8-40.8,40.8
	c-22.5,0-40.8-18.3-40.8-40.8C149.8,387.4,168.1,369.1,190.6,369.1z M459.6,280.4l-346.1,51L77.8,101H495L459.6,280.4z"/>
<path class="st1" d="M279.1,251.3c0.3,0.3,0.7,0.6,1.1,0.9c0,0,0.1,0,0.1,0.1c0.1,0.1,0.3,0.2,0.5,0.3c0.1,0,0.1,0.1,0.2,0.1
	c0.1,0.1,0.3,0.1,0.4,0.2c0.1,0,0.1,0,0.2,0.1c0.1,0.1,0.3,0.1,0.4,0.1c0.1,0,0.2,0,0.2,0.1c0.1,0,0.3,0.1,0.4,0.1
	c0.1,0,0.2,0,0.3,0c0.1,0,0.2,0,0.3,0.1c0.2,0,0.4,0,0.7,0s0.4,0,0.7,0c0.1,0,0.2,0,0.3,0c0.1,0,0.2,0,0.3,0c0.1,0,0.3-0.1,0.4-0.1
	c0.1,0,0.2,0,0.2-0.1c0.1,0,0.3-0.1,0.4-0.1c0.1,0,0.1,0,0.2-0.1c0.1-0.1,0.3-0.1,0.4-0.2c0.1,0,0.1-0.1,0.2-0.1
	c0.2-0.1,0.3-0.2,0.5-0.3c0,0,0.1,0,0.1-0.1c0.4-0.3,0.8-0.6,1.1-0.9l41.7-41.6c2.7-2.6,2.7-7,0-9.6c-2.7-2.7-7-2.7-9.6,0
	l-30.1,30.1V159c0-3.8-3-6.8-6.8-6.8c-3.8,0-6.8,3-6.8,6.8v71.2L247,200.1c-2.7-2.7-7-2.7-9.6,0c-2.7,2.7-2.7,7,0,9.6L279.1,251.3z"
	/>
</svg>
