<?xml version="1.0" encoding="utf-8"?>
<!-- Generator: Adobe Illustrator 22.0.0, SVG Export Plug-In . SVG Version: 6.00 Build 0)  -->
<svg version="1.1" id="Layer_1" xmlns="http://www.w3.org/2000/svg" xmlns:xlink="http://www.w3.org/1999/xlink" x="0px" y="0px"
	 viewBox="0 0 512 512" style="enable-background:new 0 0 512 512;" xml:space="preserve">
<style type="text/css">
	.st0{fill:#5E686C;}
	.st1{fill:#3FC6F1;}
</style>
<path class="st0" d="M105,54c0-3.8-3-6.8-6.8-6.8H9.7c-3.8,0-6.8,3-6.8,6.8s3,6.8,6.8,6.8h88.5C102,60.8,105,57.7,105,54z"/>
<path class="st0" d="M497.4,87.3H76.1c-6.6,0-12,5.4-11.9,13l35.4,228.8c-0.3,0.9-0.3,1.9-0.2,2.9l8.1,49.4
	c0.9,6.8,6.8,11.9,13.6,11.9h17.9c-1.7,5.3-2.6,10.9-2.6,16.8c0,30,24.4,54.4,54.4,54.4c30,0,54.4-24.4,54.4-54.4
	c0-5.8-0.9-11.5-2.7-16.8h106.1c-1.7,5.3-2.6,10.9-2.6,16.8c0,30,24.4,54.4,54.4,54.4c30,0,54.4-24.4,54.4-54.4
	c0-30-24.4-54.4-54.4-54.4c-18.8,0-35.3,9.5-45.1,24c0,0-0.1,0-0.1,0H236c0,0-0.1,0-0.1,0c-9.8-14.5-26.3-24-45.1-24
	c-18.8,0-35.3,9.5-45.1,24c0,0-0.1,0-0.1,0l-24.6-0.3l-5.6-34.5l346.9-51.2c6,0,10.9-5.4,10.8-10.6l36.3-183.8
	C509.4,92.7,504,87.3,497.4,87.3z M400.3,369.2c22.5,0,40.8,18.3,40.8,40.8c0,22.5-18.3,40.8-40.8,40.8c-22.5,0-40.8-18.3-40.8-40.8
	C359.6,387.5,377.8,369.2,400.3,369.2z M190.8,369.2c22.5,0,40.8,18.3,40.8,40.8c0,22.5-18.3,40.8-40.8,40.8
	c-22.5,0-40.8-18.3-40.8-40.8C150,387.5,168.3,369.2,190.8,369.2z M459.8,280.4l-346.2,51L78,100.9h417.4L459.8,280.4z"/>
<path class="st1" d="M245,207.4c1.7,0,3.5-0.7,4.8-2l30.1-30.1v71.2c0,3.8,3,6.8,6.8,6.8s6.8-3,6.8-6.8v-71.2l30.1,30.1
	c1.3,1.3,3.1,2,4.8,2s3.5-0.7,4.8-2c2.7-2.7,2.7-7,0-9.6l-41.7-41.7c-0.3-0.3-0.7-0.6-1.1-0.9c0,0-0.1-0.1-0.1-0.1
	c-0.1-0.1-0.3-0.2-0.4-0.3c-0.1,0-0.1-0.1-0.2-0.1c-0.1-0.1-0.3-0.1-0.4-0.2c-0.1,0-0.1-0.1-0.2-0.1c-0.1,0-0.3-0.1-0.4-0.1
	c-0.1,0-0.2,0-0.3-0.1c-0.1,0-0.2-0.1-0.4-0.1c-0.1,0-0.2,0-0.3-0.1c-0.1,0-0.2,0-0.3,0c-0.4,0-0.9,0-1.3,0c-0.1,0-0.2,0-0.3,0
	c-0.1,0-0.2,0-0.4,0.1c-0.1,0-0.2,0.1-0.4,0.1c-0.1,0-0.2,0-0.3,0.1c-0.1,0-0.2,0.1-0.4,0.1c-0.1,0-0.2,0.1-0.3,0.1
	c-0.1,0.1-0.2,0.1-0.4,0.2c-0.1,0-0.2,0.1-0.2,0.1c-0.1,0.1-0.3,0.2-0.4,0.2c-0.1,0-0.1,0.1-0.2,0.1c-0.2,0.1-0.3,0.2-0.5,0.4
	c0,0,0,0,0,0c-0.2,0.2-0.4,0.3-0.5,0.5l-41.7,41.7c-2.7,2.6-2.7,7,0,9.6C241.5,206.8,243.3,207.4,245,207.4z"/>
</svg>
