<?xml version="1.0" encoding="utf-8"?>
<!-- Generator: Adobe Illustrator 22.0.0, SVG Export Plug-In . SVG Version: 6.00 Build 0)  -->
<svg version="1.1" id="Layer_1" xmlns="http://www.w3.org/2000/svg" xmlns:xlink="http://www.w3.org/1999/xlink" x="0px" y="0px"
	 viewBox="0 0 512 512" style="enable-background:new 0 0 512 512;" xml:space="preserve">
<style type="text/css">
	.st0{fill:#5E686C;}
	.st1{fill:#3FC6F1;}
</style>
<path class="st0" d="M106.3,56c0-3.7-3-6.7-6.7-6.7H12c-3.7,0-6.7,3-6.7,6.7s3,6.7,6.7,6.7h87.6C103.3,62.8,106.3,59.7,106.3,56z"/>
<path class="st0" d="M494.7,89h-417c-6.5,0-11.8,5.3-11.8,12.9L101,328.3c-0.3,0.9-0.3,1.9-0.2,2.9l8,48.9
	c0.9,6.7,6.8,11.7,13.5,11.7H140c-1.7,5.2-2.6,10.8-2.6,16.6c0,29.7,24.1,53.8,53.8,53.8c29.7,0,53.8-24.1,53.8-53.8
	c0-5.8-0.9-11.4-2.6-16.6h105c-1.7,5.2-2.6,10.8-2.6,16.6c0,29.7,24.1,53.8,53.8,53.8c29.7,0,53.8-24.1,53.8-53.8
	s-24.1-53.8-53.8-53.8c-18.6,0-34.9,9.4-44.6,23.8c0,0-0.1,0-0.1,0h-118c0,0-0.1,0-0.1,0c-9.7-14.3-26.1-23.8-44.6-23.8
	s-35,9.4-44.6,23.8c0,0-0.1,0-0.1,0l-24.4-0.3l-5.6-34.1l343.3-50.6c6,0,10.8-5.3,10.7-10.5l36-181.9C506.5,94.4,501.2,89,494.7,89z
	 M398.6,368c22.3,0,40.4,18.1,40.4,40.4s-18.1,40.4-40.4,40.4c-22.2,0-40.3-18.1-40.3-40.4S376.3,368,398.6,368z M191.2,368
	c22.3,0,40.4,18.1,40.4,40.4s-18.1,40.4-40.4,40.4s-40.4-18.1-40.4-40.4S168.9,368,191.2,368z M457.5,280.1l-342.6,50.4L79.5,102.5
	h413.1L457.5,280.1z"/>
<path class="st1" d="M179.1,256.8c3.7,0,6.7-3,6.7-6.7v-94.2c0-3.7-3-6.7-6.7-6.7c-3.7,0-6.7,3-6.7,6.7v94.2
	C172.4,253.8,175.4,256.8,179.1,256.8z"/>
<path class="st1" d="M248.2,256.8c3.7,0,6.7-3,6.7-6.7v-94.2c0-3.7-3-6.7-6.7-6.7s-6.7,3-6.7,6.7v94.2
	C241.5,253.8,244.5,256.8,248.2,256.8z"/>
<path class="st1" d="M317.4,256.8c3.7,0,6.7-3,6.7-6.7v-94.2c0-3.7-3-6.7-6.7-6.7s-6.7,3-6.7,6.7v94.2
	C310.6,253.8,313.6,256.8,317.4,256.8z"/>
<path class="st1" d="M386.5,256.8c3.7,0,6.7-3,6.7-6.7v-94.2c0-3.7-3-6.7-6.7-6.7c-3.7,0-6.7,3-6.7,6.7v94.2
	C379.8,253.8,382.8,256.8,386.5,256.8z"/>
</svg>
