<?xml version="1.0" encoding="utf-8"?>
<!-- Generator: Adobe Illustrator 22.0.0, SVG Export Plug-In . SVG Version: 6.00 Build 0)  -->
<svg version="1.1" id="Layer_1" xmlns="http://www.w3.org/2000/svg" xmlns:xlink="http://www.w3.org/1999/xlink" x="0px" y="0px"
	 viewBox="0 0 512 512" style="enable-background:new 0 0 512 512;" xml:space="preserve">
<style type="text/css">
	.st0{fill:#5E686C;}
	.st1{fill:#3FC6F1;}
</style>
<path class="st0" d="M106.8,56c0-3.7-3-6.7-6.7-6.7H12.5c-3.7,0-6.7,3-6.7,6.7c0,3.7,3,6.7,6.7,6.7h87.6
	C103.8,62.8,106.8,59.7,106.8,56z"/>
<path class="st0" d="M495.2,89h-417c-6.5,0-11.8,5.3-11.8,12.9l35.1,226.4c-0.3,0.9-0.3,1.9-0.2,2.9l8,48.9
	c0.9,6.7,6.8,11.7,13.5,11.7h17.7c-1.7,5.2-2.6,10.8-2.6,16.6c0,29.7,24.1,53.8,53.8,53.8s53.8-24.1,53.8-53.8
	c0-5.8-0.9-11.4-2.6-16.6h105c-1.7,5.2-2.6,10.8-2.6,16.6c0,29.7,24.1,53.8,53.8,53.8s53.8-24.1,53.8-53.8s-24.1-53.8-53.8-53.8
	c-18.6,0-35,9.4-44.6,23.8c0,0-0.1,0-0.1,0h-118c0,0-0.1,0-0.1,0c-9.7-14.3-26.1-23.8-44.6-23.8s-35,9.4-44.6,23.8c0,0-0.1,0-0.1,0
	l-24.4-0.3l-5.6-34.1l343.4-50.6c6,0,10.8-5.3,10.7-10.5l36-181.9C507,94.3,501.7,89,495.2,89z M399.1,368
	c22.3,0,40.4,18.1,40.4,40.4s-18.1,40.4-40.4,40.4s-40.4-18.1-40.4-40.4S376.8,368,399.1,368z M191.7,368
	c22.3,0,40.4,18.1,40.4,40.4s-18.1,40.4-40.4,40.4c-22.3,0-40.4-18.1-40.4-40.4S169.4,368,191.7,368z M458,280.1l-342.7,50.4
	L80,102.5h413.1L458,280.1z"/>
<path class="st1" d="M274.6,203.3L239,238.9c-2.6,2.6-2.6,6.9,0,9.5c1.3,1.3,3,2,4.8,2c1.7,0,3.4-0.7,4.8-2l35.6-35.6l35.6,35.6
	c1.3,1.3,3,2,4.8,2s3.4-0.7,4.8-2c2.6-2.6,2.6-6.9,0-9.5l-35.6-35.6l35.6-35.6c2.6-2.6,2.6-6.9,0-9.5c-2.6-2.6-6.9-2.6-9.5,0
	l-35.6,35.6l-35.6-35.6c-2.6-2.6-6.9-2.6-9.5,0c-2.6,2.6-2.6,6.9,0,9.5L274.6,203.3z"/>
</svg>
