<?xml version="1.0" encoding="utf-8"?>
<!-- Generator: Adobe Illustrator 22.0.0, SVG Export Plug-In . SVG Version: 6.00 Build 0)  -->
<svg version="1.1" id="Layer_1" xmlns="http://www.w3.org/2000/svg" xmlns:xlink="http://www.w3.org/1999/xlink" x="0px" y="0px"
	 viewBox="0 0 512 512" style="enable-background:new 0 0 512 512;" xml:space="preserve">
<style type="text/css">
	.st0{fill:#3FC6F1;}
	.st1{fill:#5E686C;}
</style>
<path class="st0" d="M442,236.7c-1,0-2-0.2-3-0.7c-3.3-1.6-4.7-5.7-3.1-9l59.3-121.4c1.6-3.3,5.7-4.7,9-3.1c3.3,1.6,4.7,5.7,3.1,9
	L448,232.9C446.8,235.3,444.5,236.7,442,236.7z"/>
<path class="st1" d="M205.6,453.2H16.8c-3.7,0-6.7-3-6.7-6.7c0-3.7,3-6.7,6.7-6.7h182.1V237.3c0-3.7,3-6.7,6.7-6.7s6.7,3,6.7,6.7
	v209.3C212.4,450.2,209.4,453.2,205.6,453.2z"/>
<path class="st0" d="M345.4,250.8c-0.3,0-0.6,0-0.9-0.1L34.3,210.6c-11-1.4-19.2-5.8-24.6-13.1c-8.3-11.3-5.9-25.2-5.8-25.8
	L20.1,46.3c3.8-29.1,29.4-31.4,37.1-31.4c2.7,0,4.3,0.2,4.3,0.2l379.8,49.1c2.2,0.3,4.1,1.7,5.1,3.6c1,2,1,4.3-0.1,6.3l-95.1,173.1
	C350.1,249.4,347.8,250.8,345.4,250.8z M57.2,28.4c-9.7,0-21.6,3.4-23.7,19.7L17.2,173.8c-0.1,0.4-1.4,9.3,3.4,15.8
	c3.1,4.2,8.3,6.7,15.4,7.6l305.6,39.5l88.2-160.4l-370-47.9C59.7,28.5,58.7,28.4,57.2,28.4z"/>
<path class="st1" d="M205.9,175.3c-1.7,0-3.5-0.1-5.2-0.3c-10.7-1.4-20.2-6.8-26.8-15.4c-6.6-8.5-9.5-19.1-8.1-29.8
	c2.8-21.8,22.9-37.8,45.2-34.9c22.1,2.8,37.7,23.1,34.9,45.2C243.3,160.2,226.1,175.3,205.9,175.3z M205.8,108
	c-13.4,0-24.9,10.1-26.6,23.5c-0.9,7.1,1,14.2,5.4,19.9c4.4,5.7,10.7,9.3,17.9,10.3c14.9,1.9,28.3-8.7,30.2-23.2
	c1.9-14.7-8.6-28.2-23.3-30.1C208.1,108.1,206.9,108,205.8,108z"/>
<path class="st1" d="M16.8,490.6c-3.7,0-6.7-3-6.7-6.7v-74.8c0-3.7,3-6.7,6.7-6.7c3.7,0,6.7,3,6.7,6.7v74.8
	C23.6,487.6,20.5,490.6,16.8,490.6z"/>
</svg>
