<?xml version="1.0" encoding="utf-8"?>
<!-- Generator: Adobe Illustrator 22.0.0, SVG Export Plug-In . SVG Version: 6.00 Build 0)  -->
<svg version="1.1" id="Layer_1" xmlns="http://www.w3.org/2000/svg" xmlns:xlink="http://www.w3.org/1999/xlink" x="0px" y="0px"
	 viewBox="0 0 512 512" style="enable-background:new 0 0 512 512;" xml:space="preserve">
<style type="text/css">
	.st0{fill:#5E686C;}
	.st1{fill:#3FC6F1;}
</style>
<path class="st0" d="M257.3,144c-38.1,0-69.1-31-69.1-69.2c0-38.1,31-69.1,69.1-69.1c38.1,0,69.1,31,69.1,69.1
	C326.5,113,295.5,144,257.3,144z M257.3,19.6c-30.5,0-55.3,24.8-55.3,55.3c0,30.5,24.8,55.3,55.3,55.3c30.5,0,55.3-24.8,55.3-55.3
	S287.9,19.6,257.3,19.6z"/>
<path class="st0" d="M289.2,400.4h-63.7c-3.8,0-6.9-3.1-6.9-6.9v-86.6c-41.4-18.1-63.7-77.3-63.7-125.8c0-3.8,3.1-6.9,6.9-6.9h191.1
	c3.8,0,6.9,3.1,6.9,6.9c0,48.5-22.3,107.7-63.7,125.8v86.6C296.1,397.3,293,400.4,289.2,400.4z M232.4,386.5h49.9v-84.4
	c0-2.9,1.9-5.6,4.6-6.5c38.4-13.5,56.9-68.7,58.9-107.6h-177c2,38.9,20.5,94.1,58.9,107.6c2.8,1,4.6,3.6,4.6,6.5V386.5z"/>
<path class="st0" d="M257.3,453.5c-62.5,0-155.6-11.7-155.6-44.1c0-20.7,37.7-31.7,69.3-37.3c3.7-0.8,7.3,1.8,8,5.6
	c0.7,3.8-1.9,7.3-5.6,8c-42.1,7.4-57.8,18.5-57.8,23.7c0,10.3,50,30.3,141.8,30.3c91.7,0,141.8-20,141.8-30.3
	c0-5.2-15.6-16.3-57.6-23.6c-3.8-0.7-6.3-4.2-5.6-8c0.6-3.8,4.3-6.4,8-5.6c31.5,5.5,69,16.5,69,37.2
	C412.9,441.7,319.9,453.5,257.3,453.5z"/>
<path class="st1" d="M257.3,506.6c-140.8,0-251.2-40.4-251.2-91.9c0-39.6,64.9-73.6,165.3-86.6c3.9-0.5,7.3,2.2,7.8,6
	c0.5,3.8-2.2,7.3-6,7.8C83,353.5,20,383.5,20,414.7c0,37.7,95.4,78,237.3,78c142,0,237.3-40.4,237.3-78c0-31.2-63-61.2-153.2-72.8
	c-3.8-0.5-6.5-4-6-7.8c0.5-3.8,3.9-6.5,7.8-6c100.4,13,165.3,47,165.3,86.6C508.5,466.2,398.2,506.6,257.3,506.6z"/>
</svg>
