<?xml version="1.0" encoding="utf-8"?>
<!-- Generator: Adobe Illustrator 22.0.0, SVG Export Plug-In . SVG Version: 6.00 Build 0)  -->
<svg version="1.1" id="Layer_1" xmlns="http://www.w3.org/2000/svg" xmlns:xlink="http://www.w3.org/1999/xlink" x="0px" y="0px"
	 viewBox="0 0 512 512" style="enable-background:new 0 0 512 512;" xml:space="preserve">
<style type="text/css">
	.st0{fill:#5E686C;}
	.st1{fill:#3FC6F1;}
</style>
<path class="st0" d="M398.8,285.1c-0.3,0-0.7,0-1-0.1c-3.6-0.5-6-3.9-5.5-7.4l19-123.6c5.1-33.3-4.5-67-26.4-92.5
	c-21.9-25.6-53.8-40.2-87.5-40.2h-81.5c-33.7,0-65.6,14.7-87.5,40.2C106.5,87,96.9,120.7,102,154l19,123.6c0.5,3.6-1.9,6.9-5.5,7.4
	c-3.6,0.6-6.9-1.9-7.4-5.5L89.1,156c-5.7-37,5-74.6,29.4-103C143,24.5,178.5,8.2,215.9,8.2h81.5c37.5,0,73,16.3,97.4,44.8
	c24.4,28.4,35.1,66,29.4,103l-19,123.6C404.8,282.8,402,285.1,398.8,285.1z"/>
<path class="st0" d="M145,507c-3.6,0-6.5-2.9-6.5-6.5v-39.2c0-3.6,2.9-6.5,6.5-6.5s6.5,2.9,6.5,6.5v39.2
	C151.6,504.1,148.7,507,145,507z"/>
<path class="st0" d="M368.4,500.5c-3.6,0-6.5-2.9-6.5-6.5v-26.1c0-3.6,2.9-6.5,6.5-6.5s6.5,2.9,6.5,6.5v26.1
	C374.9,497.5,372,500.5,368.4,500.5z"/>
<path class="st1" d="M388.7,467.8H124.8c-37.2,0-67.4-30.2-67.4-67.4v-40.6c0-7.5-4.6-14.5-11.6-17.4c-17.6-7.3-29-24.4-29-43.5
	c0-26,21.1-47.1,47.1-47.1c42.8,0,77.6,34.8,77.6,77.6v20C157,343,192,333,256.7,333S356.4,343,372,349.4v-20
	c0-42.8,34.8-77.6,77.6-77.6c26,0,47.1,21.1,47.1,47.1c0,19.1-11.4,36.2-29,43.5c-7,2.9-11.6,9.7-11.6,17.4v40.6
	C456.1,437.6,425.8,467.8,388.7,467.8z M63.9,264.8c-18.8,0-34.1,15.3-34.1,34.1c0,13.8,8.2,26.2,21,31.5
	c11.9,4.9,19.6,16.5,19.6,29.4v40.6c0,30,24.4,54.4,54.4,54.4h263.9c30,0,54.4-24.4,54.4-54.4v-40.6c0-13,7.7-24.6,19.6-29.4
	c12.7-5.3,21-17.7,21-31.5c0-18.8-15.3-34.1-34.1-34.1c-35.6,0-64.5,28.9-64.5,64.5v30.5c0,2.4-1.3,4.6-3.4,5.8
	c-2.1,1.1-4.7,1-6.7-0.3c-0.3-0.2-30.7-19.2-118.2-19.2c-87.4,0-117.9,19-118.2,19.2c-2,1.3-4.6,1.4-6.7,0.3
	c-2.1-1.1-3.4-3.3-3.4-5.7v-30.5C128.4,293.8,99.4,264.8,63.9,264.8z"/>
</svg>
