<?xml version="1.0" encoding="utf-8"?>
<!-- Generator: Adobe Illustrator 22.0.0, SVG Export Plug-In . SVG Version: 6.00 Build 0)  -->
<svg version="1.1" id="Layer_1" xmlns="http://www.w3.org/2000/svg" xmlns:xlink="http://www.w3.org/1999/xlink" x="0px" y="0px"
	 viewBox="0 0 512 512" style="enable-background:new 0 0 512 512;" xml:space="preserve">
<style type="text/css">
	.st0{fill:#5E686C;}
	.st1{fill:#3FC6F1;}
</style>
<path class="st0" d="M256.5,504.5c-139,0-252-113.1-252-252c0-128.3,96-235.9,223.2-250.4c3.7-0.5,7.3,2.3,7.8,6.2
	c0.4,3.8-2.3,7.3-6.2,7.7C109.1,29.6,18.5,131.3,18.5,252.4c0,131.2,106.8,238,238,238s238-106.8,238-238
	c0-121.2-90.6-222.8-210.8-236.5c-3.8-0.4-6.6-3.9-6.2-7.7c0.4-3.8,4-6.6,7.8-6.2c127.3,14.5,223.2,122.1,223.2,250.4
	C508.5,391.4,395.5,504.5,256.5,504.5z"/>
<path class="st1" d="M256.5,387.8c-1.1,0-2.1-0.2-3.1-0.7l-116.7-58.3c-3.5-1.7-4.9-5.9-3.1-9.4c1.8-3.5,5.9-4.8,9.4-3.1l109.5,54.8
	l84.9-249.1c1.3-3.7,5.2-5.6,8.9-4.4c3.7,1.2,5.6,5.2,4.4,8.9L263.2,383c-0.7,1.9-2.1,3.5-4,4.2
	C258.3,387.6,257.4,387.8,256.5,387.8z"/>
</svg>
