<?xml version="1.0" encoding="utf-8"?>
<!-- Generator: Adobe Illustrator 22.0.0, SVG Export Plug-In . SVG Version: 6.00 Build 0)  -->
<svg version="1.1" id="Layer_1" xmlns="http://www.w3.org/2000/svg" xmlns:xlink="http://www.w3.org/1999/xlink" x="0px" y="0px"
	 viewBox="0 0 512 512" style="enable-background:new 0 0 512 512;" xml:space="preserve">
<style type="text/css">
	.st0{fill:#3FC6F1;}
	.st1{fill:#5E686C;}
</style>
<path class="st0" d="M260.9,510c-69.6,0-126.3-58.3-126.3-129.9V91.7c0-0.8,0.1-1.5,0.4-2.2C138.7,40.3,179.7,2,229.2,2
	c3.8,0,6.9,3.1,6.9,6.9c0,3.8-3.1,6.9-6.9,6.9c-42.8,0-78.3,33.5-80.7,76.3c0,0.5-0.1,1-0.2,1.4v286.6
	c0,64.1,50.5,116.2,112.6,116.2c62.1,0,112.6-52.1,112.6-116.2V81.8c0-3.8,3.1-6.9,6.9-6.9c3.8,0,6.9,3.1,6.9,6.9v298.3
	C387.1,451.7,330.5,510,260.9,510z"/>
<path class="st1" d="M262.2,446.8c-34,0-61.7-27.7-61.7-61.7V126.5c0-3.8,3.1-6.9,6.9-6.9c3.8,0,6.9,3.1,6.9,6.9V385
	c0,26.5,21.5,48,48,48c26.5,0,48-21.5,48-48V93.5c-0.1-0.5-0.2-0.9-0.2-1.4c-2.4-42.8-37.9-76.3-80.7-76.3V2
	c49.5,0,90.6,38.3,94.3,87.5c0.3,0.7,0.4,1.4,0.4,2.2V385C323.9,419.1,296.2,446.8,262.2,446.8z"/>
</svg>
