<?xml version="1.0" encoding="utf-8"?>
<!-- Generator: Adobe Illustrator 22.0.0, SVG Export Plug-In . SVG Version: 6.00 Build 0)  -->
<svg version="1.1" id="Layer_1" xmlns="http://www.w3.org/2000/svg" xmlns:xlink="http://www.w3.org/1999/xlink" x="0px" y="0px"
	 viewBox="0 0 512 512" style="enable-background:new 0 0 512 512;" xml:space="preserve">
<style type="text/css">
	.st0{fill:#5E686C;}
	.st1{fill:#3FC6F1;}
</style>
<path class="st0" d="M340.9,57.9c-0.2,0-0.4,0-0.6,0h-2.5c-0.2,0-0.4,0-0.6,0c-87.4,1.5-161.6,68.7-169.6,154.2
	c-0.3,3.6-0.2,7.1-0.1,10.7c0.1,1.7,0.1,3.4,0.1,5.2c0,3.8,3.1,6.9,6.9,6.9s6.9-3.1,6.9-6.9c0-1.9-0.1-3.8-0.1-5.6
	c-0.1-3.1-0.2-6.1,0-9c7.4-79.1,76.5-141.1,157.7-141.7c85.7,0.7,155.2,70.6,155.2,156.4c0,86.2-70.2,156.4-156.4,156.4
	c-3.8,0-6.9,3.1-6.9,6.9c0,3.8,3.1,6.9,6.9,6.9c93.8,0,170.1-76.3,170.1-170.1C508,135.2,433.3,59.5,340.9,57.9z"/>
<path class="st0" d="M339.2,136.9c3.8,0,6.8-3.2,6.8-6.9c-0.1-3.8-3.1-6.8-6.9-6.8c0,0-0.1,0-0.1,0c-53.8,0.7-101.5,43.3-106.3,96.2
	l0.1,1.2c0.1,2.4,0.2,4.9,0.2,7.4c0,3.8,3.1,6.9,6.9,6.9s6.9-3.1,6.9-6.9c0-2.6-0.1-5.3-0.2-8.3l-0.1-0.3
	C250.6,174.5,292.2,137.5,339.2,136.9z"/>
<path class="st0" d="M174.6,384.4h-48.9c-59.2,0-107.5-48.2-107.5-107.4c0-59.2,48.2-107.4,107.4-107.4c3.8,0,6.9-3.1,6.9-6.9
	s-3.1-6.9-6.9-6.9C58.9,155.8,4.6,210.2,4.6,277c0,66.8,54.4,121.2,121.2,121.2h48.9c3.8,0,6.9-3.1,6.9-6.9
	C181.5,387.5,178.4,384.4,174.6,384.4z"/>
<path class="st1" d="M260.9,323.8c-2.7-2.5-6.8-2.5-9.4,0l-48.9,46.2c-2.8,2.6-2.9,6.9-0.3,9.7c1.4,1.4,3.2,2.2,5,2.2
	c1.7,0,3.4-0.6,4.7-1.9l37.3-35.2V457c0,3.6,3.1,6.4,6.9,6.4c3.8,0,6.9-2.9,6.9-6.4V344.6l37.5,35.3c2.8,2.6,7.1,2.5,9.7-0.3
	c2.6-2.8,2.5-7.1-0.3-9.7L260.9,323.8z"/>
</svg>
