<?xml version="1.0" encoding="utf-8"?>
<!-- Generator: Adobe Illustrator 22.0.0, SVG Export Plug-In . SVG Version: 6.00 Build 0)  -->
<svg version="1.1" id="Layer_1" xmlns="http://www.w3.org/2000/svg" xmlns:xlink="http://www.w3.org/1999/xlink" x="0px" y="0px"
	 viewBox="0 0 512 512" style="enable-background:new 0 0 512 512;" xml:space="preserve">
<style type="text/css">
	.st0{fill:#5E686C;}
	.st1{fill:#3FC6F1;}
</style>
<path class="st0" d="M248.3,330.8c0-55.1,46-88.7,90.5-89.2c3.7,0,6.6-3.1,6.6-6.7c-0.1-3.7-3.1-6.7-6.7-6.6
	c-51,0.6-103.7,39.2-103.7,102.6c0,3.7,3,6.7,6.7,6.7C245.3,337.4,248.3,334.5,248.3,330.8z"/>
<path class="st1" d="M340.5,164.3c-0.2,0-0.4,0-0.6,0h-2.4c-0.2,0-0.4,0-0.6,0c-83,1.3-166,58.5-166,166.5c0,3.7,3,6.7,6.7,6.7
	s6.7-3,6.7-6.7c0-104.7,79.8-152.6,154.4-153.2c83.9,0.6,152,69.1,152,153.2c0,84.5-68.7,153.2-153.2,153.2H129.9
	c-58,0-105.2-47.2-105.2-105.2s47.2-105.2,105.2-105.2c3.7,0,6.7-3,6.7-6.7c0-3.7-3-6.7-6.7-6.7c-65.4,0-118.5,53.2-118.5,118.5
	s53.2,118.5,118.5,118.5h207.6c91.8,0,166.5-74.7,166.5-166.5C504,240,430.9,165.9,340.5,164.3z"/>
<path class="st0" d="M68.8,139.3h26.6c3.7,0,6.7-3,6.7-6.7s-3-6.7-6.7-6.7H68.8c-3.7,0-6.7,3-6.7,6.7
	C62.2,136.3,65.1,139.3,68.8,139.3z"/>
<path class="st0" d="M148.6,139.3h26.6c3.7,0,6.7-3,6.7-6.7s-3-6.7-6.7-6.7h-26.6c-3.7,0-6.7,3-6.7,6.7
	C141.9,136.3,144.9,139.3,148.6,139.3z"/>
<path class="st0" d="M122,233.4c62.4,0,113.2-50.8,113.2-113.2C235.2,57.8,184.4,7,122,7C59.6,7,8.8,57.8,8.8,120.2
	S59.6,233.4,122,233.4z M122,20.3c19.5,0,37.7,5.6,53.1,15.3L36.3,69C53.8,39.8,85.7,20.3,122,20.3z M28.8,84.4l160-38.4
	c20.3,18.3,33.1,44.8,33.1,74.2c0,55.1-44.8,99.9-99.9,99.9c-55.1,0-99.9-44.8-99.9-99.9C22.1,107.6,24.5,95.5,28.8,84.4z"/>
</svg>
