<?xml version="1.0" encoding="utf-8"?>
<!-- Generator: Adobe Illustrator 22.0.0, SVG Export Plug-In . SVG Version: 6.00 Build 0)  -->
<svg version="1.1" id="Layer_1" xmlns="http://www.w3.org/2000/svg" xmlns:xlink="http://www.w3.org/1999/xlink" x="0px" y="0px"
	 viewBox="0 0 512 512" style="enable-background:new 0 0 512 512;" xml:space="preserve">
<style type="text/css">
	.st0{fill:none;stroke:#69C299;stroke-linecap:round;stroke-linejoin:round;stroke-miterlimit:10;}
	.st1{fill:#3FC6F1;}
	.st2{fill:#5E686C;}
</style>
<path class="st0" d="M92.5,415.7"/>
<path class="st1" d="M239.4,262.9c-3.8,0-6.9-3.1-6.9-6.9c0-65.7,54.7-105.7,107.5-106.4c3.5-0.4,6.9,3,7,6.8c0.1,3.8-3,6.9-6.8,7
	c-46.1,0.6-93.9,35.4-93.9,92.6C246.3,259.8,243.2,262.9,239.4,262.9z"/>
<path class="st2" d="M338.8,428.7H123.5c-67.8,0-123-55.2-123-122.9c0-67.8,55.2-122.9,122.9-122.9c3.8,0,6.9,3.1,6.9,6.9
	c0,3.8-3.1,6.9-6.9,6.9c-60.2,0-109.1,49-109.1,109.1c0,60.2,49,109.1,109.1,109.1h215.4c87.6,0,158.9-71.3,158.9-158.9
	c0-87.2-70.6-158.2-157.7-158.9c-77.4,0.6-160.1,50.3-160.1,158.9c0,3.8-3.1,6.9-6.9,6.9c-3.8,0-6.9-3.1-6.9-6.9
	c0-112,86.1-171.3,172.1-172.7c0.2,0,0.4,0,0.6,0h2.5c0.2,0,0.4,0,0.6,0C435.7,85,511.5,161.8,511.5,256
	C511.5,351.2,434,428.7,338.8,428.7z"/>
</svg>
