<?xml version="1.0" encoding="utf-8"?>
<!-- Generator: Adobe Illustrator 22.0.0, SVG Export Plug-In . SVG Version: 6.00 Build 0)  -->
<svg version="1.1" id="Layer_1" xmlns="http://www.w3.org/2000/svg" xmlns:xlink="http://www.w3.org/1999/xlink" x="0px" y="0px"
	 viewBox="0 0 512 512" style="enable-background:new 0 0 512 512;" xml:space="preserve">
<style type="text/css">
	.st0{fill:#5E686C;}
	.st1{fill:#3FC6F1;}
</style>
<path class="st0" d="M301.5,191.5H188.2c-37.5,0-68-30.5-68-68s30.5-68,68-68c3.8,0,6.9,3.1,6.9,6.9s-3.1,6.9-6.9,6.9
	c-29.8,0-54.1,24.3-54.1,54.1s24.3,54.1,54.1,54.1h113.3c44.2,0,80.2-36,80.2-80.2c0-44-35.7-79.9-79.6-80.2
	c-39.1,0.3-80.9,25.4-80.9,80.2c0,3.8-3.1,6.9-6.9,6.9c-3.8,0-6.9-3.1-6.9-6.9c0-61,46.8-93.3,93.7-94.1c0.4,0,0.7,0,1.1,0
	c0.4,0,0.8,0,1.2,0c51.1,1,92.3,42.8,92.3,94.1C395.6,149.2,353.4,191.5,301.5,191.5z"/>
<path class="st0" d="M300.4,507.9H190.1c-36.6,0-66.4-29.8-66.4-66.3s29.8-66.4,66.4-66.4c3.8,0,6.9,3.1,6.9,6.9
	c0,3.8-3.1,6.9-6.9,6.9c-28.9,0-52.5,23.5-52.5,52.5c0,28.9,23.5,52.5,52.5,52.5h110.3c43,0,77.9-35,77.9-77.9
	c0-42.8-34.6-77.6-77.3-77.9c-38,0.3-78.6,24.7-78.6,77.9c0,3.8-3.1,6.9-6.9,6.9c-3.8,0-6.9-3.1-6.9-6.9c0-59.5,45.7-91,91.4-91.8
	c0.4,0,0.7,0,1.1,0c0.4,0,0.8,0,1.1,0c49.8,0.9,90.1,41.8,90.1,91.8C392.2,466.7,351,507.9,300.4,507.9z"/>
<path class="st1" d="M64.2,416.7c-1.8,0-3.6-0.7-4.9-2c-26.5-26.5-41.7-65.2-41.7-106.3c0-41,15.2-79.8,41.7-106.3l14.5-14.5
	c2.7-2.7,7.1-2.7,9.8,0s2.7,7.1,0,9.8l-14.5,14.5c-23.9,23.9-37.6,59.1-37.6,96.5c0,37.4,13.7,72.5,37.6,96.5c2.7,2.7,2.7,7.1,0,9.8
	C67.8,416,66,416.7,64.2,416.7z"/>
<path class="st1" d="M78.7,244.1c-3.8,0-6.9-3.1-6.9-6.9v-37.7l-37.1,0c-3.8,0-6.9-3.1-6.9-6.9c0-3.8,3.1-6.9,6.9-6.9l44.1,0
	c1.8,0,3.6,0.7,4.9,2c1.3,1.3,2,3.1,2,4.9v44.6C85.6,241,82.5,244.1,78.7,244.1z"/>
<path class="st1" d="M431.6,394.7c-1.8,0-3.6-0.7-4.9-2c-2.7-2.7-2.7-7.1,0-9.8l14.5-14.5c50.5-50.5,50.5-142.4,0-192.9
	c-2.7-2.7-2.7-7.1,0-9.8c2.7-2.7,7.1-2.7,9.8,0c55.6,55.6,55.6,156.9,0,212.6l-14.5,14.5C435.2,394,433.4,394.7,431.6,394.7z"/>
<path class="st1" d="M431.6,394.7c-1.8,0-3.6-0.7-4.9-2c-1.3-1.3-2-3.1-2-4.9v-44.6c0-3.8,3.1-6.9,6.9-6.9s6.9,3.1,6.9,6.9v37.7
	l37.1,0c3.8,0,6.9,3.1,6.9,6.9c0,3.8-3.1,6.9-6.9,6.9L431.6,394.7z"/>
</svg>
