<?xml version="1.0" encoding="utf-8"?>
<!-- Generator: Adobe Illustrator 22.0.0, SVG Export Plug-In . SVG Version: 6.00 Build 0)  -->
<svg version="1.1" id="Layer_1" xmlns="http://www.w3.org/2000/svg" xmlns:xlink="http://www.w3.org/1999/xlink" x="0px" y="0px"
	 viewBox="0 0 512 512" style="enable-background:new 0 0 512 512;" xml:space="preserve">
<style type="text/css">
	.st0{fill:#3FC6F1;}
	.st1{fill:none;stroke:#69C299;stroke-linecap:round;stroke-linejoin:round;stroke-miterlimit:10;}
	.st2{fill:#5E686C;}
</style>
<path class="st0" d="M323.1,342.5c-0.8,0-1.5-0.1-2.3-0.4c-3.5-1.3-5.3-5.2-4-8.7l19.5-53.7l-42-4.7c-2.1-0.2-4-1.5-5.1-3.3
	c-1.1-1.8-1.2-4.1-0.4-6l28.1-67.5c1.4-3.5,5.4-5.1,8.9-3.6c3.5,1.4,5.1,5.4,3.6,8.9l-24.6,59.1l41.6,4.6c2.1,0.2,3.9,1.4,5,3.2
	c1.1,1.8,1.3,3.9,0.6,5.9L329.5,338C328.5,340.8,325.9,342.5,323.1,342.5z"/>
<path class="st1" d="M109.8,419.3"/>
<path class="st2" d="M337.4,426.1H126.3C59.8,426.1,5.7,372,5.7,305.5C5.7,239.1,59.8,185,126.2,185c3.7,0,6.8,3,6.8,6.8
	c0,3.7-3,6.8-6.8,6.8c-59,0-107,48-107,107c0,59,48,107,107,107h211.1c85.9,0,155.8-69.9,155.8-155.7c0-85.5-69.2-155.1-154.6-155.8
	c-75.9,0.5-157,49.3-157,155.8c0,3.7-3,6.8-6.8,6.8s-6.8-3-6.8-6.8c0-109.8,84.4-167.9,168.8-169.3c0.2,0,0.4,0,0.6,0h2.4
	c0.2,0,0.4,0,0.6,0c92,1.6,166.2,76.9,166.2,169.3C506.7,350.1,430.7,426.1,337.4,426.1z"/>
</svg>
