<?xml version="1.0" encoding="utf-8"?>
<!-- Generator: Adobe Illustrator 22.0.0, SVG Export Plug-In . SVG Version: 6.00 Build 0)  -->
<svg version="1.1" id="Layer_1" xmlns="http://www.w3.org/2000/svg" xmlns:xlink="http://www.w3.org/1999/xlink" x="0px" y="0px"
	 viewBox="0 0 512 512" style="enable-background:new 0 0 512 512;" xml:space="preserve">
<style type="text/css">
	.st0{fill:none;stroke:#69C299;stroke-linecap:round;stroke-linejoin:round;stroke-miterlimit:10;}
	.st1{fill:#5E686C;}
	.st2{fill:#3FC6F1;}
</style>
<path class="st0" d="M106,282.9"/>
<path class="st1" d="M363.3,254c-1.8,0-3.6-0.7-4.9-2.1c-2.6-2.7-2.4-7,0.3-9.6c25.2-23.7,39-55.8,39-90.4
	c0-68.1-55.2-123.6-123.2-124.2C210,28.2,155.1,77.5,149.3,140.2c-0.2,2.3-0.1,4.7,0,7.1c0.1,1.5,0.1,3,0.1,4.6c0,3.8-3,6.8-6.8,6.8
	s-6.8-3-6.8-6.8c0-1.4,0-2.7-0.1-4.1c-0.1-2.9-0.2-5.8,0.1-8.8C142.2,69.8,202.2,15.4,273,14.2c0.2,0,0.4,0,0.6,0h2
	c0.2,0,0.4,0,0.6,0c74.8,1.4,135.2,62.6,135.2,137.7c0,38.4-15.4,74-43.3,100.3C366.7,253.4,365,254,363.3,254z"/>
<path class="st1" d="M194.9,158.7c-3.8,0-6.8-3-6.8-6.8c0-2-0.1-3.9-0.1-5.9c0-0.3-0.1-1.9-0.1-2.2c3.9-42.1,42.7-76.8,86.5-77.3
	c0,0,0.1,0,0.1,0c3.7,0,6.7,3,6.8,6.7c0.1,3.7-3,6.8-6.7,6.9c-37.1,0.5-69.9,29.6-73.2,65c0.2,2.6,0.3,4.7,0.3,6.8
	C201.7,155.6,198.7,158.7,194.9,158.7z"/>
<path class="st1" d="M103.4,289.6c-54.3,0-98.5-44.2-98.5-98.5s44.2-98.5,98.5-98.5c3.8,0,6.8,3,6.8,6.8s-3,6.8-6.8,6.8
	c-46.8,0-84.9,38.1-84.9,84.9c0,46.8,38.1,84.9,84.9,84.9c3.8,0,6.8,3,6.8,6.8C110.2,286.6,107.1,289.6,103.4,289.6z"/>
<path class="st1" d="M306.1,505.7c-15,0-27.1-12.2-27.1-27.2s12.2-27.2,27.1-27.2c15,0,27.2,12.2,27.2,27.2
	C333.2,493.5,321,505.7,306.1,505.7z M306.1,465c-7.5,0-13.6,6.1-13.6,13.6c0,7.5,6.1,13.6,13.6,13.6c7.5,0,13.6-6.1,13.6-13.6
	C319.7,471,313.6,465,306.1,465z"/>
<path class="st1" d="M306.1,465c-3.8,0-6.8-3-6.8-6.8v-40.7c0-3.8,3-6.8,6.8-6.8c3.8,0,6.8,3,6.8,6.8v40.7
	C312.9,461.9,309.8,465,306.1,465z"/>
<path class="st1" d="M285.7,485.3H172.1c-3.8,0-6.8-3-6.8-6.8c0-3.8,3-6.8,6.8-6.8h113.6c3.8,0,6.8,3,6.8,6.8
	C292.5,482.3,289.5,485.3,285.7,485.3z"/>
<path class="st1" d="M440,485.3H326.4c-3.8,0-6.8-3-6.8-6.8c0-3.8,3-6.8,6.8-6.8H440c3.8,0,6.8,3,6.8,6.8
	C446.8,482.3,443.8,485.3,440,485.3z"/>
<path class="st2" d="M416.1,345.9c-15,0-27.2-12.2-27.2-27.2s12.2-27.2,27.2-27.2c15,0,27.2,12.2,27.2,27.2
	C443.2,333.7,431.1,345.9,416.1,345.9z M416.1,305.2c-7.5,0-13.6,6.1-13.6,13.6c0,7.5,6.1,13.6,13.6,13.6c7.5,0,13.6-6.1,13.6-13.6
	C429.7,311.2,423.6,305.2,416.1,305.2z"/>
<path class="st2" d="M479.7,397.1H125.3c-15.3,0-27.7-11.5-27.7-25.7V266.1c0-14.2,12.4-25.7,27.7-25.7h354.4
	c15.3,0,27.7,11.5,27.7,25.7v105.3C507.4,385.6,495,397.1,479.7,397.1z M125.3,254c-7.8,0-14.2,5.4-14.2,12.1v105.3
	c0,6.7,6.4,12.1,14.2,12.1h354.4c7.8,0,14.1-5.4,14.1-12.1V266.1c0-6.7-6.4-12.1-14.1-12.1L125.3,254L125.3,254z"/>
</svg>
