<?xml version="1.0" encoding="utf-8"?>
<!-- Generator: Adobe Illustrator 22.0.0, SVG Export Plug-In . SVG Version: 6.00 Build 0)  -->
<svg version="1.1" id="Layer_1" xmlns="http://www.w3.org/2000/svg" xmlns:xlink="http://www.w3.org/1999/xlink" x="0px" y="0px"
	 viewBox="0 0 512 512" style="enable-background:new 0 0 512 512;" xml:space="preserve">
<style type="text/css">
	.st0{fill:#3FC6F1;}
	.st1{fill:none;stroke:#69C299;stroke-linecap:round;stroke-linejoin:round;stroke-miterlimit:10;}
	.st2{fill:#5E686C;}
</style>
<path class="st0" d="M248.8,511c-41.1,0-74.5-33.4-74.5-74.5c0-41.1,33.4-74.5,74.5-74.5c41.1,0,74.5,33.4,74.5,74.5
	C323.3,477.6,289.9,511,248.8,511z M248.8,375.5c-33.6,0-61,27.3-61,61s27.4,61,61,61c33.6,0,60.9-27.3,60.9-61
	S282.4,375.5,248.8,375.5z"/>
<path class="st0" d="M248.8,466.9c-3.7,0-6.8-3-6.8-6.8v-37.8c0-3.7,3-6.8,6.8-6.8c3.7,0,6.8,3,6.8,6.8v37.8
	C255.6,463.8,252.5,466.9,248.8,466.9z"/>
<path class="st0" d="M281.8,363c-3.7,0-6.8-3-6.8-6.8V335c0-3.7,3-6.8,6.8-6.8s6.8,3,6.8,6.8v21.2C288.6,360,285.6,363,281.8,363z"
	/>
<path class="st1" d="M131.5,331.7"/>
<path class="st2" d="M334.3,341.3H123.1c-66.5,0-120.6-54.1-120.6-120.6s54.1-120.6,120.6-120.6c3.7,0,6.8,3,6.8,6.8s-3,6.8-6.8,6.8
	c-59,0-107,48-107,107c0,59,48,107,107,107h211.2c85.9,0,155.8-69.9,155.8-155.8c0-85.5-69.2-155.1-154.6-155.8
	c-75.9,0.5-157,49.3-157,155.8c0,3.7-3,6.8-6.8,6.8s-6.8-3-6.8-6.8c0-109.9,84.4-168,168.8-169.3c0.2,0,0.4,0,0.6,0h2.4
	c0.2,0,0.4,0,0.6,0c92,1.6,166.3,77,166.3,169.3C503.6,265.3,427.6,341.3,334.3,341.3z"/>
<path class="st2" d="M236.7,178.7c-3.7,0-6.8-3-6.8-6.8c0-2.5-0.1-4.9-0.2-7.4l-0.1-1.2c4.8-52.7,52.2-95,105.7-95.7
	c0,0,0.1,0,0.1,0c3.7,0,6.7,3,6.8,6.7c0.1,3.7-2.9,6.8-6.7,6.9c-46.8,0.6-88.3,37.4-92.4,82.1l0.2,0.3c0.1,3,0.2,5.7,0.2,8.3
	C243.5,175.7,240.5,178.7,236.7,178.7z"/>
<path class="st0" d="M215.7,363c-3.7,0-6.8-3-6.8-6.8V335c0-15.5,12.6-28,28-28c3.7,0,6.8,3,6.8,6.8c0,3.7-3,6.8-6.8,6.8
	c-8,0-14.5,6.5-14.5,14.5v21.2C222.5,360,219.5,363,215.7,363z"/>
</svg>
