<?xml version="1.0" encoding="utf-8"?>
<!-- Generator: Adobe Illustrator 22.0.0, SVG Export Plug-In . SVG Version: 6.00 Build 0)  -->
<svg version="1.1" id="Layer_1" xmlns="http://www.w3.org/2000/svg" xmlns:xlink="http://www.w3.org/1999/xlink" x="0px" y="0px"
	 viewBox="0 0 512 512" style="enable-background:new 0 0 512 512;" xml:space="preserve">
<style type="text/css">
	.st0{fill:#5E686C;}
	.st1{fill:#3FC6F1;}
</style>
<path class="st0" d="M47.1,87.3c-22.3,0-40.5-18.1-40.5-40.4c0-22.3,18.1-40.5,40.5-40.5s40.5,18.2,40.5,40.5
	C87.5,69.2,69.4,87.3,47.1,87.3z M47.1,19.9c-14.9,0-27,12.1-27,27c0,14.9,12.1,27,27,27s27-12.1,27-27C74.1,32,62,19.9,47.1,19.9z"
	/>
<path class="st0" d="M257,473.1c-122.1,0-221.5-99.4-221.5-221.5S134.8,30.1,257,30.1c122.1,0,221.5,99.4,221.5,221.5
	S379.1,473.1,257,473.1z M257,43.6c-114.7,0-208,93.3-208,208c0,114.7,93.3,208,208,208c114.7,0,208-93.3,208-208
	C465,136.9,371.7,43.6,257,43.6z"/>
<path class="st0" d="M436.6,442c-1.7,0-3.5-0.7-4.8-2L302.4,310.7c-2.6-2.6-2.6-6.9,0-9.5c2.6-2.6,6.9-2.6,9.5,0l129.4,129.3
	c2.6,2.6,2.6,6.9,0,9.5C440.1,441.3,438.4,442,436.6,442z"/>
<path class="st0" d="M202.2,207.7c-1.7,0-3.5-0.7-4.8-2L67.7,76.2c-2.6-2.6-2.6-6.9,0-9.5c2.6-2.6,6.9-2.6,9.5,0l129.7,129.5
	c2.6,2.6,2.6,6.9,0,9.5C205.6,207.1,203.9,207.7,202.2,207.7z"/>
<path class="st1" d="M71.6,442.1c-1.7,0-3.5-0.7-4.8-2c-2.6-2.6-2.6-6.9,0-9.5l134.3-133.4c2.6-2.6,6.9-2.6,9.5,0
	c2.6,2.6,2.6,6.9,0,9.5L76.4,440.2C75,441.5,73.3,442.1,71.6,442.1z"/>
<path class="st1" d="M461,87.3c-22.3,0-40.4-18.1-40.4-40.4c0-22.3,18.1-40.5,40.4-40.5c22.3,0,40.5,18.2,40.5,40.5
	C501.4,69.2,483.3,87.3,461,87.3z M461,19.9c-14.9,0-27,12.1-27,27c0,14.9,12.1,27,27,27c14.9,0,27-12.1,27-27
	C487.9,32,475.8,19.9,461,19.9z"/>
<path class="st1" d="M47.1,501.4c-22.3,0-40.5-18.1-40.5-40.4c0-22.3,18.1-40.5,40.5-40.5s40.5,18.2,40.5,40.5
	C87.5,483.3,69.4,501.4,47.1,501.4z M47.1,434c-14.9,0-27,12.1-27,27c0,14.9,12.1,26.9,27,26.9s27-12.1,27-26.9
	C74.1,446.1,62,434,47.1,434z"/>
<path class="st0" d="M461,501.4c-22.3,0-40.4-18.1-40.4-40.4c0-22.3,18.1-40.5,40.4-40.5c22.3,0,40.5,18.2,40.5,40.5
	C501.4,483.3,483.3,501.4,461,501.4z M461,434c-14.9,0-27,12.1-27,27c0,14.9,12.1,26.9,27,26.9c14.9,0,27-12.1,27-26.9
	C487.9,446.1,475.8,434,461,434z"/>
<path class="st1" d="M257,329.9c-43.2,0-78.3-35.1-78.3-78.3s35.1-78.3,78.3-78.3c43.2,0,78.3,35.1,78.3,78.3S300.2,329.9,257,329.9
	z M257,186.7c-35.8,0-64.8,29.1-64.8,64.9c0,35.8,29.1,64.8,64.8,64.8c35.8,0,64.8-29.1,64.8-64.8
	C321.8,215.8,292.7,186.7,257,186.7z"/>
<path class="st1" d="M308.1,206.9c-1.7,0-3.5-0.7-4.8-2c-2.6-2.6-2.6-6.9,0-9.5L431.8,67.8c2.7-2.6,6.9-2.6,9.5,0
	c2.6,2.6,2.6,6.9,0,9.5L312.9,204.9C311.6,206.2,309.9,206.9,308.1,206.9z"/>
</svg>
