<?xml version="1.0" encoding="utf-8"?>
<!-- Generator: Adobe Illustrator 22.0.0, SVG Export Plug-In . SVG Version: 6.00 Build 0)  -->
<svg version="1.1" id="Layer_1" xmlns="http://www.w3.org/2000/svg" xmlns:xlink="http://www.w3.org/1999/xlink" x="0px" y="0px"
	 viewBox="0 0 512 512" style="enable-background:new 0 0 512 512;" xml:space="preserve">
<style type="text/css">
	.st0{fill:#5E686C;}
	.st1{fill:#3FC6F1;}
</style>
<path class="st0" d="M395.3,225c3.8-40.7,6.5-70.4,6.5-70.4c0.2-1.9-0.5-3.9-1.8-5.3c-1.3-1.4-3.2-2.3-5.1-2.3H47.4
	c-1.9,0-3.8,0.8-5.1,2.3c-1.3,1.4-2,3.4-1.8,5.3c0,0,25.2,275.6,27.6,301.4c4.1,43.3,31.1,52.4,53,52.4h197.6
	c30.9,0,52.1-21.2,55.4-55.2c1.7-17.6,12.3-132.3,19.9-214.3c43.7,2.8,78.3,35.1,78.3,74.4c0,29-19.3,55.7-49.2,67.8
	c-3.5,1.4-5.2,5.5-3.8,9c1.1,2.7,3.7,4.3,6.4,4.3c0.9,0,1.8-0.2,2.6-0.5c35.1-14.3,57.8-45.9,57.8-80.6
	C486.1,266.7,446,228.5,395.3,225z M360.4,451.8c-2.6,27.2-17.8,42.7-41.6,42.7H121.2c-24.2,0-36.7-12.7-39.2-39.8
	C79.7,431.4,59,205.3,55,160.9h332.3C383.3,204.8,362.8,426.8,360.4,451.8z"/>
<path class="st1" d="M134.3,99.4c3.8,0,6.9-3.1,6.9-6.9V26.3c0-3.8-3.1-6.9-6.9-6.9c-3.8,0-6.9,3.1-6.9,6.9v66.2
	C127.4,96.3,130.5,99.4,134.3,99.4z"/>
<path class="st1" d="M221.2,116.6c3.8,0,6.9-3.1,6.9-6.9V9.2c0-3.8-3.1-6.9-6.9-6.9c-3.8,0-6.9,3.1-6.9,6.9v100.5
	C214.2,113.5,217.3,116.6,221.2,116.6z"/>
<path class="st1" d="M308,99.4c3.8,0,6.9-3.1,6.9-6.9V26.3c0-3.8-3.1-6.9-6.9-6.9c-3.8,0-6.9,3.1-6.9,6.9v66.2
	C301.1,96.3,304.2,99.4,308,99.4z"/>
</svg>
