<?xml version="1.0" encoding="utf-8"?>
<!-- Generator: Adobe Illustrator 22.0.0, SVG Export Plug-In . SVG Version: 6.00 Build 0)  -->
<svg version="1.1" id="Layer_1" xmlns="http://www.w3.org/2000/svg" xmlns:xlink="http://www.w3.org/1999/xlink" x="0px" y="0px"
	 viewBox="0 0 512 512" style="enable-background:new 0 0 512 512;" xml:space="preserve">
<style type="text/css">
	.st0{fill:#5E686C;}
	.st1{fill:#3FC6F1;}
</style>
<path class="st0" d="M401.2,261.9c1-2.5,0.4-5.3-1.4-7.2L218.4,73.4V56.7c0-26-21.1-47.1-47.1-47.1c-26,0-47.1,21.1-47.1,47.1v99.5
	l-88.4,88.4c-8.9,8.9-13.8,20.7-13.8,33.3c0,12.6,4.9,24.4,13.8,33.3l94.7,94.7c8.9,8.9,20.7,13.8,33.3,13.8s24.4-4.9,33.3-13.8
	L337,265.9h58.1C397.8,265.9,400.2,264.3,401.2,261.9z M137.4,56.7c0-18.7,15.2-34,34-34c18.7,0,34,15.2,34,34v18.4l-67.9,67.9V56.7
	L137.4,56.7z M334.3,252.8c-1.7,0-3.4,0.7-4.6,1.9L187.8,396.6c-12.8,12.8-35.2,12.8-48,0l-94.7-94.7c-6.4-6.4-10-15-10-24
	s3.5-17.6,10-24l90.3-90.3c0,0,0,0,0,0l69.8-69.8v125.1c0,3.6,2.9,6.6,6.6,6.6s6.6-2.9,6.6-6.6V92l160.8,160.8H334.3z"/>
<path class="st1" d="M421,316.8c-1.2-2-3.3-3.2-5.6-3.2c-2.3,0-4.4,1.2-5.6,3.2c-5.3,8.7-51.6,85.9-51.6,114.9
	c0,31.6,25.7,57.2,57.2,57.2s57.2-25.7,57.2-57.2C472.6,402.6,426.3,325.5,421,316.8z M415.4,475.7c-24.3,0-44.1-19.8-44.1-44.1
	c0-19,28-71,44.1-98.6c16.1,27.6,44.1,79.6,44.1,98.6C459.5,456,439.7,475.7,415.4,475.7z"/>
</svg>
