<?xml version="1.0" encoding="utf-8"?>
<!-- Generator: Adobe Illustrator 22.0.0, SVG Export Plug-In . SVG Version: 6.00 Build 0)  -->
<svg version="1.1" id="Layer_1" xmlns="http://www.w3.org/2000/svg" xmlns:xlink="http://www.w3.org/1999/xlink" x="0px" y="0px"
	 viewBox="0 0 512 512" style="enable-background:new 0 0 512 512;" xml:space="preserve">
<style type="text/css">
	.st0{fill:#5E686C;}
	.st1{fill:#3FC6F1;}
</style>
<path class="st0" d="M255.4,3C116.2,3,2.9,116.3,2.9,255.5C2.9,394.7,116.2,508,255.4,508c139.2,0,252.5-113.3,252.5-252.5
	C507.9,116.3,394.6,3,255.4,3z M262.4,493.9V448c0-3.9-3.1-7-7-7c-3.9,0-7,3.1-7,7v45.9C122.5,490.2,20.7,388.4,17.1,262.5h45.9
	c3.9,0,7-3.1,7-7c0-3.9-3.1-7-7-7H17.1C20.7,122.6,122.5,20.8,248.4,17.1v47c0,3.9,3.1,7,7,7c3.9,0,7-3.1,7-7v-47
	c125.9,3.7,227.7,105.4,231.4,231.3h-45.9c-3.9,0-7,3.1-7,7c0,3.9,3.1,7,7,7h45.9C490.1,388.4,388.4,490.2,262.4,493.9z"/>
<path class="st0" d="M261.1,271.1c1.4,1.4,3.2,2.1,5,2.1c1.8,0,3.6-0.7,5-2.1c2.7-2.7,2.7-7.2,0-9.9l-21.3-21.3
	c-2.7-2.7-7.2-2.7-9.9,0c-2.7,2.7-2.7,7.2,0,9.9L261.1,271.1z"/>
<path class="st1" d="M364.3,137l-140.5,84.3c-0.2,0.1-0.5,0.3-0.7,0.4c0,0-0.1,0.1-0.1,0.1c-0.1,0.1-0.3,0.2-0.4,0.3
	c-0.1,0.1-0.2,0.2-0.3,0.3c-0.1,0.1-0.1,0.1-0.2,0.2c-0.1,0.1-0.2,0.3-0.3,0.4c0,0-0.1,0.1-0.1,0.1c-0.1,0.2-0.3,0.4-0.4,0.6
	c0,0,0,0,0,0l0,0c0,0,0,0,0,0l-84.3,140.5c-1.7,2.8-1.2,6.3,1.1,8.6c1.3,1.4,3.1,2.1,5,2.1c1.2,0,2.5-0.3,3.6-1l140.6-84.3
	c0.2-0.1,0.3-0.2,0.5-0.3c0,0,0.1,0,0.1-0.1c0.2-0.2,0.4-0.3,0.6-0.5c0,0,0.1-0.1,0.1-0.1c0.2-0.2,0.3-0.3,0.4-0.5
	c0.1-0.1,0.1-0.1,0.2-0.2c0.1-0.2,0.3-0.4,0.4-0.6c0,0,0-0.1,0.1-0.1l84.3-140.6c1.7-2.8,1.2-6.3-1.1-8.6
	C370.6,135.8,367,135.4,364.3,137z M278.4,278.5l-115,69l69-115l115-69L278.4,278.5z"/>
</svg>
