<?xml version="1.0" encoding="utf-8"?>
<!-- Generator: Adobe Illustrator 22.0.0, SVG Export Plug-In . SVG Version: 6.00 Build 0)  -->
<svg version="1.1" id="Layer_1" xmlns="http://www.w3.org/2000/svg" xmlns:xlink="http://www.w3.org/1999/xlink" x="0px" y="0px"
	 viewBox="0 0 512 512" style="enable-background:new 0 0 512 512;" xml:space="preserve">
<style type="text/css">
	.st0{fill:#5E686C;}
	.st1{fill:#3FC6F1;}
</style>
<path class="st0" d="M322.1,98.9h115.6c3.7,0,6.7-3,6.7-6.7c0-3.7-3-6.7-6.7-6.7H322.1c-3.4-33.8-31.9-60.2-66.6-60.2
	c-34.6,0-63.2,26.5-66.6,60.2H73.4c-3.7,0-6.7,3-6.7,6.7c0,3.7,3,6.7,6.7,6.7H189c3.4,33.8,31.9,60.2,66.6,60.2
	S318.8,132.7,322.1,98.9z M255.6,145.8c-29.5,0-53.5-24-53.5-53.5c0-29.5,24-53.5,53.5-53.5c29.5,0,53.5,24,53.5,53.5
	C309.1,121.8,285.1,145.8,255.6,145.8z"/>
<path class="st1" d="M238,369.3c-0.1-0.8-0.4-1.6-0.8-2.3L127.1,167.2c-0.2-0.5-0.5-0.9-0.9-1.3c0,0,0,0,0,0
	c-0.1-0.2-0.3-0.3-0.4-0.5c0,0,0,0,0,0c-0.1-0.1-0.3-0.3-0.4-0.4c0,0,0,0-0.1,0c-0.1-0.1-0.3-0.2-0.5-0.3c0,0,0,0-0.1,0
	c-0.1-0.1-0.2-0.1-0.3-0.2c-0.1,0-0.1-0.1-0.2-0.1c0,0,0,0,0,0c-0.8-0.4-1.6-0.6-2.4-0.7c0,0-0.1,0-0.1,0c-0.2,0-0.3,0-0.5,0
	c-0.1,0-0.3,0-0.4,0c-0.1,0-0.1,0-0.2,0c-0.2,0-0.4,0-0.6,0.1c0,0,0,0,0,0c-0.6,0.1-1.2,0.3-1.8,0.6c0,0,0,0,0,0
	c-0.1,0-0.1,0.1-0.2,0.1c-0.1,0.1-0.2,0.1-0.3,0.2c0,0-0.1,0-0.1,0c-0.2,0.1-0.3,0.2-0.5,0.3c0,0,0,0-0.1,0.1
	c-0.2,0.1-0.3,0.2-0.4,0.4c0,0,0,0-0.1,0c-0.1,0.1-0.3,0.3-0.4,0.4c0,0,0,0,0,0c-0.1,0.2-0.3,0.3-0.4,0.5c0,0,0,0,0,0
	c-0.2,0.3-0.3,0.5-0.5,0.8L4.9,367.1c-0.5,0.9-0.8,1.9-0.9,2.9c0,0.1,0,0.3,0,0.4c0,0,0,0,0,0C4,435,56.5,487.5,121.1,487.5
	c64.5,0,117-52.5,117-117.1c0,0,0,0,0,0C238.1,370.1,238.1,369.7,238,369.3z M121.1,184.1l99,179.7H22L121.1,184.1z M121.1,474.1
	c-54.9,0-100-42.9-103.5-97h206.9C221.1,431.2,176,474.1,121.1,474.1z"/>
<path class="st0" d="M504.7,367.2L393.7,167c0-0.1-0.1-0.1-0.1-0.2c-0.1-0.1-0.1-0.2-0.2-0.3c-0.1-0.1-0.1-0.1-0.2-0.2
	c-0.1-0.1-0.2-0.2-0.3-0.3c0-0.1-0.1-0.1-0.1-0.2c-0.1-0.1-0.2-0.2-0.3-0.3c0-0.1-0.1-0.1-0.2-0.1c-0.1-0.1-0.2-0.2-0.3-0.3
	c-0.1,0-0.1-0.1-0.2-0.1c-0.1-0.1-0.2-0.2-0.4-0.3c-0.1,0-0.1-0.1-0.2-0.1c-0.1-0.1-0.2-0.1-0.3-0.2c0,0-0.1,0-0.1-0.1
	c-0.1,0-0.1-0.1-0.2-0.1c-0.1-0.1-0.3-0.1-0.4-0.2c-0.1,0-0.1,0-0.2-0.1c-0.1-0.1-0.3-0.1-0.4-0.1c-0.1,0-0.1,0-0.2-0.1
	c-0.1,0-0.3-0.1-0.4-0.1c-0.1,0-0.3,0-0.4-0.1c-0.1,0-0.1,0-0.2,0c-1.2-0.1-2.5,0.1-3.6,0.7c0,0-0.1,0-0.1,0.1c0,0-0.1,0-0.1,0.1
	c-0.1,0-0.2,0.1-0.2,0.1c-0.1,0-0.1,0.1-0.2,0.1c-0.1,0.1-0.2,0.1-0.3,0.2c-0.1,0.1-0.1,0.1-0.2,0.2c-0.1,0.1-0.2,0.2-0.3,0.3
	c-0.1,0.1-0.1,0.1-0.2,0.2c-0.1,0.1-0.2,0.2-0.3,0.3c0,0.1-0.1,0.1-0.1,0.2c-0.1,0.1-0.2,0.2-0.3,0.4c0,0.1-0.1,0.1-0.1,0.2
	c-0.1,0.1-0.2,0.3-0.3,0.4c0,0,0,0.1-0.1,0.1L273.3,365.2c-1.6,1.2-2.6,3.1-2.6,5.3c0,64.5,52.5,117.1,117.1,117.1
	c63.6,0,115.5-50.9,117-114.2C505.7,371.5,505.8,369.2,504.7,367.2z M387.9,184.1l99.6,179.6H289.4L387.9,184.1z M387.8,474.1
	c-54.9,0-100-42.9-103.5-97h206.9C487.8,431.2,442.7,474.1,387.8,474.1z"/>
</svg>
