<?xml version="1.0" encoding="utf-8"?>
<!-- Generator: Adobe Illustrator 22.0.0, SVG Export Plug-In . SVG Version: 6.00 Build 0)  -->
<svg version="1.1" id="Layer_1" xmlns="http://www.w3.org/2000/svg" xmlns:xlink="http://www.w3.org/1999/xlink" x="0px" y="0px"
	 viewBox="0 0 512 512" style="enable-background:new 0 0 512 512;" xml:space="preserve">
<style type="text/css">
	.st0{fill:#5E686C;}
	.st1{fill:#3FC6F1;}
</style>
<path class="st0" d="M128.2,232.3c-3.4,0-6.3-2.6-6.6-6.1l-5.8-67.8c-0.3-3.7,2.4-6.9,6-7.2c3.7-0.4,6.9,2.4,7.2,6l5.8,67.8
	c0.3,3.7-2.4,6.9-6,7.2C128.6,232.3,128.4,232.3,128.2,232.3z"/>
<path class="st0" d="M381,232.8c-0.2,0-0.3,0-0.5,0c-3.7-0.3-6.4-3.5-6.1-7.1l5-68.2c0.3-3.7,3.5-6.4,7.1-6.1
	c3.7,0.3,6.4,3.4,6.1,7.1l-5,68.2C387.4,230.1,384.4,232.8,381,232.8z"/>
<path class="st0" d="M360.5,164.6c-2.5,0-4.9-1.4-6-3.8l-41.8-88.7H195.6l-43.7,88.8c-1.6,3.3-5.6,4.7-8.9,3c-3.3-1.6-4.6-5.6-3-8.9
	l45.5-92.5c1.1-2.3,3.4-3.7,6-3.7h125.4c2.6,0,4.9,1.5,6,3.8l43.5,92.5c1.6,3.3,0.1,7.3-3.2,8.8
	C362.4,164.3,361.4,164.6,360.5,164.6z"/>
<path class="st0" d="M286.5,69.7c-3.7,0-6.6-3-6.6-6.6V22.8h-51.3v40.3c0,3.7-3,6.6-6.6,6.6s-6.6-3-6.6-6.6V16.2
	c0-3.7,3-6.6,6.6-6.6h64.6c3.7,0,6.6,3,6.6,6.6v46.9C293.1,66.8,290.2,69.7,286.5,69.7z"/>
<path class="st1" d="M146.7,487.2c-3,0-5.7-2-6.4-5L81.9,249c-0.7-2.8,0.5-5.8,3-7.3c4.2-2.6,104.2-62.7,168-62.7c0.9,0,1.8,0,2.6,0
	c63.7,0,163.6,60.1,167.8,62.7c2.5,1.5,3.7,4.5,3,7.3l-58.3,233.1c-0.9,3.6-4.5,5.7-8,4.8c-3.6-0.9-5.7-4.5-4.8-8l57.1-228.3
	c-19.7-11.4-103.8-58.3-156.9-58.3c-0.8,0-1.6,0-2.3,0c-53.2,0-137.4,46.9-157.1,58.3L153.2,479c0.9,3.6-1.3,7.2-4.8,8
	C147.8,487.2,147.3,487.2,146.7,487.2z"/>
<path class="st1" d="M255.5,487.3c-3.7,0-6.6-3-6.6-6.6V185.8c0-3.7,3-6.6,6.6-6.6s6.6,3,6.6,6.6v294.9
	C262.1,484.3,259.2,487.3,255.5,487.3z"/>
<path class="st0" d="M390.4,504.7c-11.1,0-16.5-2.9-22.3-6c-5.8-3.2-11.6-6.3-23.1-6.3c-11.4,0-17.2,3.1-22.9,6.2
	c-6,3.2-11.4,6.1-22.5,6.1c-11.1,0-16.5-2.9-22.2-6c-5.9-3.2-11.8-6.4-23.2-6.4c-11.4,0-17.3,3.2-22.9,6.2
	c-5.9,3.2-11.3,6.1-22.5,6.1c-11.1,0-16.5-2.9-22.3-6c-5.9-3.2-11.7-6.3-23.1-6.3c-11.5,0-17.3,3.1-22.9,6.2
	c-6,3.2-11.4,6.1-22.5,6.1s-16.5-2.9-22.3-6c-5.9-3.2-11.7-6.3-23.2-6.3c-3.7,0-6.6-3-6.6-6.6c0-3.7,3-6.6,6.6-6.6
	c14.8,0,22.8,4.3,29.2,7.8c5.3,2.9,8.4,4.5,16.2,4.5s10.9-1.7,16-4.4c6.6-3.6,14.6-7.9,29.4-7.9c14.8,0,22.8,4.3,29.2,7.8
	c5.3,2.9,8.4,4.5,16.2,4.5c7.8,0,10.9-1.7,16-4.4c6.6-3.6,14.6-7.9,29.4-7.9c14.8,0,22.8,4.3,29.2,7.8c5.4,2.9,8.5,4.5,16.2,4.5
	c7.8,0,10.9-1.7,16-4.4c6.6-3.6,14.6-7.9,29.4-7.9c14.9,0,22.8,4.3,29.3,7.8c5.3,2.8,8.4,4.5,16.1,4.5c7.8,0,10.9-1.7,16-4.4
	c6.6-3.6,14.6-7.9,29.4-7.9c3.7,0,6.6,3,6.6,6.6c0,3.7-3,6.6-6.6,6.6c-11.5,0-17.3,3.2-22.9,6.2C407,501.8,401.6,504.7,390.4,504.7z
	"/>
<path class="st0" d="M386,164.6H122.4c-3.7,0-6.6-3-6.6-6.6c0-3.7,3-6.6,6.6-6.6H386c3.7,0,6.6,3,6.6,6.6
	C392.7,161.6,389.7,164.6,386,164.6z"/>
</svg>
