<?xml version="1.0" encoding="utf-8"?>
<!-- Generator: Adobe Illustrator 22.0.0, SVG Export Plug-In . SVG Version: 6.00 Build 0)  -->
<svg version="1.1" id="Layer_1" xmlns="http://www.w3.org/2000/svg" xmlns:xlink="http://www.w3.org/1999/xlink" x="0px" y="0px"
	 viewBox="0 0 512 512" style="enable-background:new 0 0 512 512;" xml:space="preserve">
<style type="text/css">
	.st0{fill:#5E686C;}
	.st1{fill:#3FC6F1;}
</style>
<path class="st0" d="M93.8,205.6c-48.6,0-88.1-39.5-88.1-88.1s39.5-88.1,88.1-88.1s88.1,39.5,88.1,88.1
	C181.8,166.1,142.3,205.6,93.8,205.6z M93.8,43c-41.1,0-74.5,33.4-74.5,74.5S52.7,192,93.8,192c41.1,0,74.5-33.4,74.5-74.5
	S134.8,43,93.8,43z"/>
<path class="st0" d="M93.8,488.5c-48.6,0-88.1-39.5-88.1-88.1c0-48.6,39.5-88.1,88.1-88.1s88.1,39.5,88.1,88.1
	C181.8,448.9,142.3,488.5,93.8,488.5z M93.8,325.9c-41.1,0-74.5,33.4-74.5,74.5c0,41.1,33.4,74.5,74.5,74.5
	c41.1,0,74.5-33.4,74.5-74.5C168.3,359.3,134.8,325.9,93.8,325.9z"/>
<path class="st0" d="M320.5,241.6c-2.2,0-4.4-1.1-5.7-3.2c-2-3.2-1-7.4,2.1-9.3l172.4-108.5c3.2-2,7.4-1.1,9.3,2.1
	c2,3.2,1,7.4-2.1,9.3L324.1,240.6C323,241.3,321.8,241.6,320.5,241.6z"/>
<path class="st0" d="M153.1,346.1c-2.3,0-4.5-1.1-5.8-3.2c-2-3.2-1-7.4,2.2-9.3l93.8-58.2c3.2-1.9,7.4-1,9.3,2.2
	c2,3.2,1,7.4-2.2,9.3l-93.8,58.2C155.6,345.8,154.3,346.1,153.1,346.1z"/>
<path class="st0" d="M493,390.4c-1.2,0-2.4-0.3-3.5-1L317,285.2c-3.2-1.9-4.2-6.1-2.3-9.3c1.9-3.2,6.1-4.2,9.3-2.3l172.4,104.3
	c3.2,1.9,4.2,6.1,2.3,9.3C497.5,389.3,495.3,390.4,493,390.4z"/>
<path class="st0" d="M246.9,241.6c-1.2,0-2.4-0.3-3.5-1l-93.8-56.3c-3.2-1.9-4.3-6.1-2.3-9.3c1.9-3.2,6.1-4.2,9.3-2.3l93.8,56.3
	c3.2,1.9,4.3,6.1,2.3,9.3C251.5,240.5,249.2,241.6,246.9,241.6z"/>
<path class="st1" d="M496.7,263.1H456c-3.7,0-6.8-3-6.8-6.8c0-3.7,3-6.8,6.8-6.8h40.6c3.7,0,6.8,3,6.8,6.8
	C503.5,260,500.4,263.1,496.7,263.1z"/>
<path class="st1" d="M401.8,263.1h-40.6c-3.7,0-6.8-3-6.8-6.8c0-3.7,3-6.8,6.8-6.8h40.6c3.7,0,6.8,3,6.8,6.8
	C408.6,260,405.6,263.1,401.8,263.1z"/>
<path class="st1" d="M284.2,303.7c-26.2,0-47.4-21.3-47.4-47.4s21.3-47.4,47.4-47.4c26.1,0,47.4,21.3,47.4,47.4
	C331.6,282.4,310.3,303.7,284.2,303.7z M284.2,222.4c-18.7,0-33.9,15.2-33.9,33.9c0,18.7,15.2,33.9,33.9,33.9
	c18.7,0,33.9-15.2,33.9-33.9C318.1,237.6,302.9,222.4,284.2,222.4z"/>
</svg>
