<?xml version="1.0" encoding="utf-8"?>
<!-- Generator: Adobe Illustrator 22.0.0, SVG Export Plug-In . SVG Version: 6.00 Build 0)  -->
<svg version="1.1" id="Layer_1" xmlns="http://www.w3.org/2000/svg" xmlns:xlink="http://www.w3.org/1999/xlink" x="0px" y="0px"
	 viewBox="0 0 512 512" style="enable-background:new 0 0 512 512;" xml:space="preserve">
<style type="text/css">
	.st0{fill:#3FC6F1;}
	.st1{fill:#5E686B;}
</style>
<path class="st0" d="M351.7,152H159.5c-3.8,0-6.9,3.1-6.9,6.9v192.2c0,3.8,3.1,6.9,6.9,6.9h192.2c3.8,0,6.9-3.1,6.9-6.9V158.9
	C358.6,155.1,355.5,152,351.7,152z M344.8,344.2H166.4V165.8h178.5V344.2z"/>
<path class="st1" d="M502.7,220.7c3.8,0,6.9-3.1,6.9-6.9c0-3.8-3.1-6.9-6.9-6.9h-75.5v-68.6h75.5c3.8,0,6.9-3.1,6.9-6.9
	c0-3.8-3.1-6.9-6.9-6.9h-75.5V90.2c0-3.8-3.1-6.9-6.9-6.9H386V7.9c0-3.8-3.1-6.9-6.9-6.9s-6.9,3.1-6.9,6.9v75.5h-68.6V7.9
	c0-3.8-3.1-6.9-6.9-6.9c-3.8,0-6.9,3.1-6.9,6.9v75.5h-68.6V7.9c0-3.8-3.1-6.9-6.9-6.9c-3.8,0-6.9,3.1-6.9,6.9v75.5h-68.6V7.9
	c0-3.8-3.1-6.9-6.9-6.9s-6.9,3.1-6.9,6.9v75.5H90.8c-3.8,0-6.9,3.1-6.9,6.9v34.3H8.5c-3.8,0-6.9,3.1-6.9,6.9s3.1,6.9,6.9,6.9H84V207
	H8.5c-3.8,0-6.9,3.1-6.9,6.9c0,3.8,3.1,6.9,6.9,6.9H84v68.6H8.5c-3.8,0-6.9,3.1-6.9,6.9c0,3.8,3.1,6.9,6.9,6.9H84v68.6H8.5
	c-3.8,0-6.9,3.1-6.9,6.9c0,3.8,3.1,6.9,6.9,6.9H84v34.3c0,3.8,3.1,6.9,6.9,6.9h34.3v75.5c0,3.8,3.1,6.9,6.9,6.9s6.9-3.1,6.9-6.9
	v-75.5h68.6v75.5c0,3.8,3.1,6.9,6.9,6.9s6.9-3.1,6.9-6.9v-75.5h68.6v75.5c0,3.8,3.1,6.9,6.9,6.9c3.8,0,6.9-3.1,6.9-6.9v-75.5h68.6
	v75.5c0,3.8,3.1,6.9,6.9,6.9s6.9-3.1,6.9-6.9v-75.5h34.3c3.8,0,6.9-3.1,6.9-6.9v-34.3h75.5c3.8,0,6.9-3.1,6.9-6.9
	c0-3.8-3.1-6.9-6.9-6.9h-75.5v-68.6h75.5c3.8,0,6.9-3.1,6.9-6.9c0-3.8-3.1-6.9-6.9-6.9h-75.5v-68.6L502.7,220.7L502.7,220.7z
	 M413.5,412.9H97.7V97.1h315.8V412.9L413.5,412.9z"/>
</svg>
