<?xml version="1.0" encoding="utf-8"?>
<!-- Generator: Adobe Illustrator 22.0.0, SVG Export Plug-In . SVG Version: 6.00 Build 0)  -->
<svg version="1.1" id="Layer_1" xmlns="http://www.w3.org/2000/svg" xmlns:xlink="http://www.w3.org/1999/xlink" x="0px" y="0px"
	 viewBox="0 0 512 512" style="enable-background:new 0 0 512 512;" xml:space="preserve">
<style type="text/css">
	.st0{fill:#5E686B;}
	.st1{fill:#3FC6F1;}
</style>
<path class="st0" d="M409.4,394.2H100.5c-3.7,0-6.7-3-6.7-6.7v-87.3L59.4,180c-29,2-54.6-21.4-54.6-50.4c0-27.8,23-50.5,51.2-50.5
	c28.2,0,51.2,22.7,51.2,50.5c0,4.3-0.5,8.4-1.6,12.5c58.1,17.9,102.6,12.5,125.2-16.8c-16.5-8.6-27.1-25.6-27.1-44.5
	c0-27.9,23-50.5,51.2-50.5c28.2,0,51.2,22.7,51.2,50.5c0,19-10.8,36.1-27.5,44.7c24.9,38.3,68.5,45.7,127.1,21.3
	c-2-5.5-3.1-11.4-3.1-17.2c0-27.8,23-50.5,51.2-50.5c28.2,0,51.2,22.6,51.2,50.5c0,28.9-25.1,52.4-54.3,50.4l-34.7,122v85.5
	C416.1,391.2,413.1,394.2,409.4,394.2z M107.2,380.8h295.5v-79.7c0-0.6,0.1-1.2,0.3-1.8l36.5-128.4c0.9-3.3,4.2-5.5,7.7-4.8
	c2.2,0.4,4.4,0.6,6.7,0.6c20.8,0,37.8-16.6,37.8-37.1c0-20.4-16.9-37.1-37.8-37.1c-20.8,0-37.7,16.6-37.7,37.1
	c0,6.2,1.5,12,4.5,17.5c0.9,1.6,1.1,3.6,0.5,5.4c-0.6,1.8-1.9,3.2-3.6,4c-26.8,11.9-51.2,18-72.7,18c-45.3,0-69.4-26.6-81.7-48.9
	c-1-1.8-1.1-3.8-0.4-5.7c0.7-1.9,2.3-3.3,4.2-3.9c15.4-5.1,25.8-19.2,25.8-35.1c0-20.5-16.9-37.1-37.7-37.1
	c-20.8,0-37.8,16.6-37.8,37.1c0,16,10.4,30.1,25.9,35.1c2,0.6,3.5,2.1,4.2,4c0.7,1.9,0.5,4.1-0.6,5.8
	c-16.2,26.6-43.2,40.1-80.3,40.1c-21.2,0-45.2-4.4-71.4-13.1c-1.8-0.6-3.2-1.9-4-3.6c-0.8-1.7-0.8-3.7-0.1-5.4
	c1.9-4.5,2.9-9.3,2.9-14.2c0-20.4-16.9-37.1-37.8-37.1c-20.8,0-37.7,16.6-37.7,37.1c0,20.5,16.9,37.1,37.7,37.1
	c2.4,0,4.8-0.3,7.1-0.7c3.4-0.6,6.7,1.4,7.7,4.8l36.2,126.6c0.2,0.6,0.3,1.2,0.3,1.9L107.2,380.8L107.2,380.8z"/>
<path class="st1" d="M408.3,484.9H99.5c-3.7,0-6.7-3-6.7-6.7c0-3.7,3-6.7,6.7-6.7h308.9c3.7,0,6.7,3,6.7,6.7
	C415.1,481.9,412,484.9,408.3,484.9z"/>
</svg>
