<?xml version="1.0" encoding="utf-8"?>
<!-- Generator: Adobe Illustrator 22.0.0, SVG Export Plug-In . SVG Version: 6.00 Build 0)  -->
<svg version="1.1" id="Layer_1" xmlns="http://www.w3.org/2000/svg" xmlns:xlink="http://www.w3.org/1999/xlink" x="0px" y="0px"
	 viewBox="0 0 512 512" style="enable-background:new 0 0 512 512;" xml:space="preserve">
<style type="text/css">
	.st0{fill:#3FC6F1;}
	.st1{fill:#5E686C;}
</style>
<path class="st0" d="M222.2,133.7c-3.7,0-6.8-3-6.8-6.8V69.2c0-35.6,28.9-64.5,64.5-64.5s64.5,28.9,64.5,64.5
	c0,21.8,17.7,39.5,39.5,39.5s39.5-17.7,39.5-39.5c0-16.5,13.4-29.9,29.9-29.9c3.7,0,6.8,3,6.8,6.8s-3,6.8-6.8,6.8
	c-9,0-16.3,7.3-16.3,16.3c0,29.2-23.8,53-53,53s-53-23.8-53-53c0-28.1-22.9-51-51-51c-28.1,0-51,22.9-51,51v57.8
	C229,130.7,225.9,133.7,222.2,133.7z"/>
<path class="st1" d="M129.5,402.8c-2.1,0-4.2-1-5.5-2.9c-20.4-29.3-28.2-64.9-22-100.1c6.3-35.2,25.9-65.8,55.2-86.2
	c3-2.1,7.3-1.4,9.4,1.7c2.1,3.1,1.4,7.3-1.7,9.4c-26.4,18.4-44,45.9-49.6,77.5c-5.6,31.6,1.4,63.6,19.7,90c2.1,3.1,1.4,7.3-1.7,9.4
	C132.2,402.4,130.9,402.8,129.5,402.8z"/>
<path class="st1" d="M233.8,503.4c-99.3,0-180.1-80.8-180.1-180.1c0-74.4,46.2-141.3,115.5-167.9v-28.5c0-3.7,3-6.8,6.8-6.8h115.5
	c3.7,0,6.8,3,6.8,6.8v28.5c69.3,26.6,115.5,93.5,115.5,167.9C413.8,422.6,333,503.4,233.8,503.4z M182.7,133.7v26.4
	c0,2.9-1.8,5.4-4.5,6.4c-66.4,23.5-111,86.6-111,156.9c0,91.8,74.7,166.6,166.5,166.6c91.8,0,166.5-74.7,166.5-166.6
	c0-70.3-44.6-133.3-111-156.9c-2.7-1-4.5-3.5-4.5-6.4v-26.4H182.7z"/>
</svg>
