<?xml version="1.0" encoding="utf-8"?>
<!-- Generator: Adobe Illustrator 22.0.0, SVG Export Plug-In . SVG Version: 6.00 Build 0)  -->
<svg version="1.1" id="Layer_1" xmlns="http://www.w3.org/2000/svg" xmlns:xlink="http://www.w3.org/1999/xlink" x="0px" y="0px"
	 viewBox="0 0 512 512" style="enable-background:new 0 0 512 512;" xml:space="preserve">
<style type="text/css">
	.st0{fill:#3FC6F1;}
	.st1{fill:#5E686C;}
</style>
<path class="st0" d="M360.4,217.8c12.6,0,22.8-10.2,22.8-22.8c0-12.6-10.2-22.8-22.8-22.8c-12.6,0-22.8,10.2-22.8,22.8
	C337.6,207.5,347.8,217.8,360.4,217.8z M360.4,185.4c5.3,0,9.5,4.3,9.5,9.5c0,5.3-4.3,9.5-9.5,9.5c-5.2,0-9.5-4.3-9.5-9.5
	C350.9,189.7,355.1,185.4,360.4,185.4z"/>
<path class="st0" d="M360.4,301.9c-12.6,0-22.8,10.2-22.8,22.8c0,12.6,10.2,22.8,22.8,22.8c12.6,0,22.8-10.2,22.8-22.8
	C383.2,312.1,373,301.9,360.4,301.9z M360.4,334.2c-5.2,0-9.5-4.3-9.5-9.5c0-5.2,4.3-9.5,9.5-9.5c5.3,0,9.5,4.3,9.5,9.5
	C369.9,329.9,365.6,334.2,360.4,334.2z"/>
<path class="st1" d="M455.2,331.8V203.1c0,0,0,0,0-0.1c0,0,0,0,0,0V74.3c0-45.8-102.9-70.6-199.6-70.6C158.8,3.7,56,28.4,55.9,74.2
	c0,0,0,0,0,0.1v257.8c0,0.2,0,0.4,0,0.6c1.2,45.3,103.4,69.8,199.6,69.8c96.4,0,198.7-24.5,199.6-70c0-0.1,0-0.3,0-0.4L455.2,331.8
	C455.2,331.9,455.2,331.9,455.2,331.8C455.2,331.8,455.2,331.8,455.2,331.8z M69.2,100.9c30.8,28.7,110.5,43.9,186.4,43.9
	c75.9,0,155.5-15.2,186.3-43.9v102.1c-0.1,27.1-76.6,57.2-186.3,57.2c-109.8,0-186.4-30.2-186.4-57.3c0,0,0,0,0,0L69.2,100.9
	L69.2,100.9z M255.5,17c109.8,0,186.3,30.2,186.3,57.3c0,0,0,0,0,0v0c0,27.1-76.6,57.3-186.3,57.3c-109.8,0-186.4-30.2-186.4-57.3
	C69.2,47.2,145.7,17,255.5,17z M255.5,389.1c-109.8,0-186.4-30.2-186.4-57.3c0,0,0,0,0,0V229.7c30.8,28.7,110.5,43.9,186.4,43.9
	c75.9,0,155.5-15.2,186.3-43.9v102.1C441.8,359,365.3,389.1,255.5,389.1z"/>
<path class="st1" d="M381.9,475.5H276.6c-2.4-9.3-9.8-16.7-19.1-19.1v-34.1c0-3.7-3-6.6-6.6-6.6s-6.6,3-6.6,6.6v34.1
	c-9.3,2.4-16.7,9.8-19.1,19.1H119.7c-3.7,0-6.6,3-6.6,6.6c0,3.7,3,6.6,6.6,6.6h105.4c3,11.5,13.4,19.9,25.7,19.9
	c12.4,0,22.8-8.5,25.7-19.9h105.4c3.7,0,6.6-3,6.6-6.6C388.6,478.5,385.6,475.5,381.9,475.5z M250.8,495.4c-7.3,0-13.3-6-13.3-13.3
	c0-7.3,6-13.3,13.3-13.3c7.3,0,13.3,6,13.3,13.3C264.1,489.4,258.2,495.4,250.8,495.4z"/>
</svg>
