<?xml version="1.0" encoding="utf-8"?>
<!-- Generator: Adobe Illustrator 22.0.0, SVG Export Plug-In . SVG Version: 6.00 Build 0)  -->
<svg version="1.1" id="Layer_1" xmlns="http://www.w3.org/2000/svg" xmlns:xlink="http://www.w3.org/1999/xlink" x="0px" y="0px"
	 viewBox="0 0 512 512" style="enable-background:new 0 0 512 512;" xml:space="preserve">
<style type="text/css">
	.st0{fill:#5E686C;}
	.st1{fill:#3FC6F1;}
</style>
<path class="st0" d="M409.9,505.1H105.3c-3.6,0-6.5-2.8-6.7-6.3L73.2,79.8c-0.2-3.7,2.6-6.9,6.3-7.1c3.7-0.2,6.9,2.6,7.1,6.3
	l25,412.6h292l25-412.6c0.2-3.7,3.5-6.5,7.1-6.3c3.7,0.2,6.5,3.4,6.3,7.1l-25.4,418.9C416.4,502.3,413.5,505.1,409.9,505.1z"/>
<path class="st0" d="M187.8,368c-3.3,0-6.2-2.4-6.7-5.8l-19-132.2c-0.5-3.7,2-7.1,5.7-7.6c3.7-0.6,7.1,2,7.6,5.7l19,132.2
	c0.5,3.7-2,7.1-5.7,7.6C188.4,368,188.1,368,187.8,368z"/>
<path class="st0" d="M333.8,368c-0.3,0-0.6,0-1-0.1c-3.7-0.5-6.2-3.9-5.7-7.6l19-132.2c0.5-3.7,3.9-6.2,7.6-5.7
	c3.7,0.5,6.2,3.9,5.7,7.6l-19,132.2C339.9,365.6,337.1,368,333.8,368z"/>
<path class="st0" d="M261,368c-3.7,0-6.7-3-6.7-6.7V229.1c0-3.7,3-6.7,6.7-6.7s6.7,3,6.7,6.7v132.2C267.7,365,264.7,368,261,368z"/>
<path class="st1" d="M473.6,86.1H41.8c-3.7,0-6.7-3-6.7-6.7s3-6.7,6.7-6.7h431.8c3.7,0,6.7,3,6.7,6.7S477.3,86.1,473.6,86.1z"/>
<path class="st1" d="M346.5,86.1c-3.7,0-6.7-3-6.7-6.7V22.7H188.2v56.7c0,3.7-3,6.7-6.7,6.7c-3.7,0-6.7-3-6.7-6.7V15.9
	c0-3.7,3-6.7,6.7-6.7h165c3.7,0,6.7,3,6.7,6.7v63.5C353.2,83.1,350.2,86.1,346.5,86.1z"/>
</svg>
