<?xml version="1.0" encoding="utf-8"?>
<!-- Generator: Adobe Illustrator 22.0.0, SVG Export Plug-In . SVG Version: 6.00 Build 0)  -->
<svg version="1.1" id="Layer_1" xmlns="http://www.w3.org/2000/svg" xmlns:xlink="http://www.w3.org/1999/xlink" x="0px" y="0px"
	 viewBox="0 0 512 512" style="enable-background:new 0 0 512 512;" xml:space="preserve">
<style type="text/css">
	.st0{fill:#5E686C;}
	.st1{fill:#3FC6F1;}
</style>
<path class="st0" d="M343.9,422.1c-2.4,0-4.8-1.3-6.1-3.6l-70.7-126.1c-1.9-3.4-0.7-7.6,2.7-9.5c3.4-1.9,7.6-0.7,9.5,2.7L350,411.7
	c1.9,3.4,0.7,7.6-2.7,9.5C346.2,421.8,345.1,422.1,343.9,422.1z M163.1,420.1c-1.2,0-2.4-0.3-3.5-0.9c-3.4-1.9-4.5-6.2-2.6-9.6
	l73.3-126.5c1.9-3.4,6.2-4.5,9.6-2.5c3.4,1.9,4.5,6.2,2.6,9.6l-73.3,126.5C167.9,418.9,165.5,420.1,163.1,420.1z M431.4,265.6H291.4
	c-3.9,0-7-3.1-7-7c0-3.9,3.1-7,7-7h139.9c3.9,0,7,3.1,7,7C438.4,262.5,435.2,265.6,431.4,265.6z M222,265.6H80.9c-3.9,0-7-3.1-7-7
	c0-3.9,3.1-7,7-7H222c3.9,0,7,3.1,7,7C229,262.5,225.9,265.6,222,265.6z M239.3,235.7c-2.4,0-4.8-1.3-6.1-3.6l-71-126.6
	c-1.9-3.4-0.7-7.6,2.7-9.5c3.4-1.9,7.6-0.7,9.5,2.7l71,126.6c1.9,3.4,0.7,7.6-2.7,9.5C241.7,235.4,240.5,235.7,239.3,235.7z
	 M271,234c-1.2,0-2.4-0.3-3.5-0.9c-3.4-1.9-4.5-6.2-2.6-9.6l72.5-125.1c1.9-3.4,6.2-4.5,9.6-2.6c3.3,1.9,4.5,6.2,2.5,9.6L277,230.5
	C275.7,232.8,273.4,234,271,234z"/>
<path class="st0" d="M138.4,420.1c-2.4,0-4.8-1.3-6.1-3.5L60,290.6c-1.9-3.4-0.8-7.6,2.6-9.6c3.3-1.9,7.6-0.8,9.6,2.6l72.3,126.1
	c1.9,3.4,0.8,7.6-2.6,9.6C140.7,419.8,139.5,420.1,138.4,420.1z"/>
<path class="st0" d="M326.9,445.1H185.4c-3.9,0-7-3.1-7-7c0-3.9,3.1-7,7-7h141.5c3.9,0,7,3.1,7,7
	C333.9,441.9,330.7,445.1,326.9,445.1z"/>
<path class="st0" d="M373.9,420.1c-1.2,0-2.4-0.3-3.5-0.9c-3.4-1.9-4.5-6.2-2.6-9.6l72.3-126.1c1.9-3.4,6.2-4.5,9.6-2.6
	c3.4,1.9,4.5,6.2,2.6,9.6L380,416.6C378.7,418.9,376.3,420.1,373.9,420.1z"/>
<path class="st0" d="M446.1,237.1c-2.4,0-4.8-1.3-6.1-3.5l-72.2-125.9c-1.9-3.4-0.8-7.6,2.6-9.6c3.3-1.9,7.6-0.8,9.6,2.6l72.2,125.9
	c1.9,3.4,0.8,7.6-2.6,9.6C448.5,236.8,447.3,237.1,446.1,237.1z"/>
<path class="st0" d="M326.9,86.2H185.4c-3.9,0-7-3.1-7-7s3.1-7,7-7h141.5c3.9,0,7,3.1,7,7S330.7,86.2,326.9,86.2z"/>
<path class="st0" d="M66.1,237.3c-1.2,0-2.4-0.3-3.5-0.9c-3.4-1.9-4.5-6.2-2.6-9.6l72.3-126.1c1.9-3.4,6.2-4.5,9.6-2.6
	c3.4,1.9,4.5,6.2,2.6,9.6L72.1,233.7C70.8,236,68.5,237.3,66.1,237.3z"/>
<path class="st0" d="M151.5,114c-23.2,0-42-18.8-42-42s18.8-42,42-42c23.2,0,42,18.8,42,42S174.6,114,151.5,114z M151.5,44
	c-15.4,0-28,12.6-28,28c0,15.4,12.6,28,28,28c15.4,0,28-12.6,28-28S166.9,44,151.5,44z"/>
<path class="st0" d="M46.2,300.6c-23.2,0-42-18.8-42-42c0-23.2,18.8-42,42-42c23.2,0,42,18.9,42,42
	C88.2,281.8,69.4,300.6,46.2,300.6z M46.2,230.6c-15.4,0-28,12.6-28,28c0,15.4,12.6,28,28,28s28-12.6,28-28
	C74.2,243.2,61.6,230.6,46.2,230.6z"/>
<path class="st0" d="M151.5,487.2c-23.2,0-42-18.8-42-42c0-23.2,18.8-42,42-42c23.2,0,42,18.8,42,42
	C193.5,468.4,174.6,487.2,151.5,487.2z M151.5,417.2c-15.4,0-28,12.6-28,28c0,15.4,12.6,28,28,28c15.4,0,28-12.6,28-28
	C179.5,429.8,166.9,417.2,151.5,417.2z"/>
<path class="st0" d="M360.8,486.9c-23,0-41.7-18.7-41.7-41.7c0-23,18.7-41.7,41.7-41.7s41.7,18.7,41.7,41.7
	C402.5,468.2,383.8,486.9,360.8,486.9z M360.8,417.5c-15.3,0-27.7,12.4-27.7,27.7c0,15.3,12.4,27.7,27.7,27.7
	c15.3,0,27.7-12.4,27.7-27.7C388.5,430,376.1,417.5,360.8,417.5z"/>
<path class="st1" d="M256.7,300.6c-23.2,0-42-18.8-42-42c0-23.2,18.8-42,42-42c23.2,0,42,18.9,42,42
	C298.7,281.8,279.9,300.6,256.7,300.6z M256.7,230.6c-15.4,0-28,12.6-28,28c0,15.4,12.6,28,28,28s28-12.6,28-28
	C284.7,243.2,272.2,230.6,256.7,230.6z"/>
<path class="st1" d="M466,300.6c-23.2,0-42-18.8-42-42c0-23.2,18.8-42,42-42c23.2,0,42,18.9,42,42
	C508.1,281.8,489.2,300.6,466,300.6z M466,230.6c-15.4,0-28,12.6-28,28c0,15.4,12.6,28,28,28c15.5,0,28-12.6,28-28
	C494.1,243.2,481.5,230.6,466,230.6z"/>
<path class="st1" d="M360.8,114c-23.2,0-42-18.8-42-42s18.8-42,42-42c23.2,0,42,18.8,42,42S384,114,360.8,114z M360.8,44
	c-15.4,0-28,12.6-28,28c0,15.4,12.6,28,28,28c15.4,0,28-12.6,28-28S376.2,44,360.8,44z"/>
</svg>
