<?xml version="1.0" encoding="utf-8"?>
<!-- Generator: Adobe Illustrator 22.0.0, SVG Export Plug-In . SVG Version: 6.00 Build 0)  -->
<svg version="1.1" id="Layer_1" xmlns="http://www.w3.org/2000/svg" xmlns:xlink="http://www.w3.org/1999/xlink" x="0px" y="0px"
	 viewBox="0 0 512 512" style="enable-background:new 0 0 512 512;" xml:space="preserve">
<style type="text/css">
	.st0{fill:#5E686C;}
	.st1{fill:#3FC6F1;}
</style>
<path class="st0" d="M305.9,399.5h-294c-3.7,0-6.8-3-6.8-6.8V83.6c0-3.7,3-6.8,6.8-6.8h294c3.7,0,6.8,3,6.8,6.8c0,3.7-3,6.8-6.8,6.8
	H18.7V386h287.3c3.7,0,6.8,3,6.8,6.8C312.7,396.5,309.7,399.5,305.9,399.5z"/>
<path class="st0" d="M305.9,306.5H13.2c-3.7,0-6.8-3-6.8-6.8s3-6.8,6.8-6.8h292.7c3.7,0,6.8,3,6.8,6.8
	C312.7,303.5,309.7,306.5,305.9,306.5z"/>
<path class="st0" d="M214.2,455.7c-3.7,0-6.8-3-6.8-6.8v-56.2c0-3.7,3-6.8,6.8-6.8c3.7,0,6.8,3,6.8,6.8v56.2
	C221,452.7,217.9,455.7,214.2,455.7z"/>
<path class="st0" d="M305.9,455.7H115.3c-3.7,0-6.8-3-6.8-6.8s3-6.8,6.8-6.8h190.7c3.7,0,6.8,3,6.8,6.8S309.7,455.7,305.9,455.7z"/>
<path class="st1" d="M472.1,505H333.3c-18.8,0-34.1-12.5-34.1-27.9V34.8c0-15.4,15.3-27.9,34.1-27.9h138.8
	c18.8,0,34.1,12.5,34.1,27.9v442.4C506.2,492.5,490.9,505,472.1,505z M333.3,20.4c-11.2,0-20.6,6.6-20.6,14.3v442.4
	c0,7.8,9.4,14.3,20.6,14.3h138.8c11.2,0,20.6-6.6,20.6-14.3V34.8c0-7.8-9.4-14.3-20.6-14.3L333.3,20.4L333.3,20.4z"/>
<path class="st0" d="M403,162.6c-1.7,0-3.5-0.1-5.3-0.3c-22.2-2.9-37.9-23.3-35-45.5c2.8-21.9,23.2-37.8,45.5-35
	c22.2,2.9,37.9,23.3,35.1,45.5C440.6,147.4,423.3,162.6,403,162.6z M402.9,94.9c-13.5,0-25,10.1-26.8,23.6
	c-1.9,14.8,8.6,28.4,23.4,30.3c15,1.9,28.4-8.8,30.3-23.4c1.9-14.8-8.6-28.4-23.4-30.3C405.3,95,404.1,94.9,402.9,94.9z"/>
</svg>
