<?xml version="1.0" encoding="utf-8"?>
<!-- Generator: Adobe Illustrator 22.0.0, SVG Export Plug-In . SVG Version: 6.00 Build 0)  -->
<svg version="1.1" id="Layer_1" xmlns="http://www.w3.org/2000/svg" xmlns:xlink="http://www.w3.org/1999/xlink" x="0px" y="0px"
	 viewBox="0 0 512 512" style="enable-background:new 0 0 512 512;" xml:space="preserve">
<style type="text/css">
	.st0{fill:#3FC6F1;}
	.st1{fill:#5E686C;}
</style>
<path class="st0" d="M260,396.7c-1.3,0-2.6-0.4-3.7-1.1l-113.8-75.8c-1.9-1.2-3-3.3-3-5.6v-37.9c0-3.7,3-6.7,6.7-6.7
	c3.7,0,6.7,3,6.7,6.7v34.3l110.8,73.8c3.1,2.1,3.9,6.2,1.9,9.3C264.3,395.6,262.1,396.7,260,396.7z"/>
<path class="st0" d="M179.8,278.6h-67.1c-3.7,0-6.7-3-6.7-6.7v-67.1c0-3.7,3-6.7,6.7-6.7h67.1c3.7,0,6.7,3,6.7,6.7v67.1
	C186.5,275.6,183.5,278.6,179.8,278.6z M119.4,265.2H173v-53.7h-53.7V265.2z"/>
<path class="st1" d="M316.9,74.4c-1.7,0-3.4-0.7-4.7-2L260,20.3l-52.1,52.1c-2.6,2.6-6.9,2.6-9.5,0c-2.6-2.6-2.6-6.9,0-9.5L255.2,6
	c2.6-2.6,6.9-2.6,9.5,0l56.9,56.9c2.6,2.6,2.6,6.9,0,9.5C320.3,73.7,318.6,74.4,316.9,74.4z"/>
<path class="st1" d="M260,434.6c-3.7,0-6.7-3-6.7-6.7V10.8c0-3.7,3-6.7,6.7-6.7s6.7,3,6.7,6.7v417.1
	C266.7,431.6,263.7,434.6,260,434.6z"/>
<path class="st1" d="M260,506.1c-22.2,0-40.3-18.1-40.3-40.3s18.1-40.3,40.3-40.3s40.3,18.1,40.3,40.3S282.2,506.1,260,506.1z
	 M260,439c-14.8,0-26.8,12-26.8,26.8c0,14.8,12,26.8,26.8,26.8s26.8-12,26.8-26.8C286.8,451,274.8,439,260,439z"/>
<path class="st1" d="M260,339.8c-2.2,0-4.3-1-5.6-3c-2.1-3.1-1.2-7.2,1.9-9.3L367,253.7v-34.3c0-3.7,3-6.7,6.7-6.7s6.7,3,6.7,6.7
	v37.9c0,2.2-1.1,4.3-3,5.6l-113.8,75.8C262.6,339.4,261.3,339.8,260,339.8z"/>
<path class="st1" d="M373.7,221.7c-22.2,0-40.3-18.1-40.3-40.3s18.1-40.3,40.3-40.3c22.2,0,40.3,18.1,40.3,40.3
	C414,203.6,395.9,221.7,373.7,221.7z M373.7,154.6c-14.8,0-26.8,12-26.8,26.8s12,26.8,26.8,26.8c14.8,0,26.8-12,26.8-26.8
	S388.5,154.6,373.7,154.6z"/>
</svg>
