<?xml version="1.0" encoding="utf-8"?>
<!-- Generator: Adobe Illustrator 22.0.0, SVG Export Plug-In . SVG Version: 6.00 Build 0)  -->
<svg version="1.1" id="Layer_1" xmlns="http://www.w3.org/2000/svg" xmlns:xlink="http://www.w3.org/1999/xlink" x="0px" y="0px"
	 viewBox="0 0 512 512" style="enable-background:new 0 0 512 512;" xml:space="preserve">
<style type="text/css">
	.st0{fill:#5E686C;}
	.st1{fill:#3FC6F1;}
</style>
<path class="st0" d="M445.4,506.5c-33.4,0-60.6-27.2-60.6-60.6s27.2-60.6,60.6-60.6s60.6,27.2,60.6,60.6S478.8,506.5,445.4,506.5z
	 M445.4,398.8c-26,0-47.1,21.1-47.1,47.1c0,26,21.1,47.1,47.1,47.1s47.1-21.1,47.1-47.1C492.5,419.9,471.4,398.8,445.4,398.8z"/>
<path class="st0" d="M64.2,506.5c-33.4,0-60.6-27.2-60.6-60.6s27.2-60.6,60.6-60.6s60.6,27.2,60.6,60.6S97.6,506.5,64.2,506.5z
	 M64.2,398.8c-26,0-47.1,21.1-47.1,47.1c0,26,21.1,47.1,47.1,47.1s47.1-21.1,47.1-47.1C111.3,419.9,90.1,398.8,64.2,398.8z"/>
<path class="st0" d="M254.8,452.6c-33.4,0-60.6-27.2-60.6-60.6s27.2-60.6,60.6-60.6s60.6,27.2,60.6,60.6S288.2,452.6,254.8,452.6z
	 M254.8,345c-26,0-47.1,21.1-47.1,47.1c0,26,21.1,47.1,47.1,47.1s47.1-21.1,47.1-47.1C301.9,366.1,280.8,345,254.8,345z"/>
<path class="st0" d="M254.8,345c-3.7,0-6.7-3-6.7-6.7v-170c0-3.7,3-6.7,6.7-6.7s6.7,3,6.7,6.7v170C261.5,342,258.5,345,254.8,345z"
	/>
<path class="st0" d="M445.4,261.4H64.2c-3.7,0-6.7-3-6.7-6.7s3-6.7,6.7-6.7h381.3c3.7,0,6.7,3,6.7,6.7
	C452.2,258.4,449.2,261.4,445.4,261.4z"/>
<path class="st0" d="M445.4,398.8c-3.7,0-6.7-3-6.7-6.7V254.7c0-3.7,3-6.7,6.7-6.7c3.7,0,6.7,3,6.7,6.7v137.4
	C452.2,395.8,449.2,398.8,445.4,398.8z"/>
<path class="st0" d="M64.2,398.8c-3.7,0-6.7-3-6.7-6.7V254.7c0-3.7,3-6.7,6.7-6.7c3.7,0,6.7,3,6.7,6.7v137.4
	C70.9,395.8,67.9,398.8,64.2,398.8z"/>
<path class="st1" d="M254.8,174.9c-48.2,0-87.5-39.2-87.5-87.5S206.6,0,254.8,0s87.5,39.2,87.5,87.5S303,174.9,254.8,174.9z
	 M254.8,13.5c-40.8,0-74,33.2-74,74c0,40.8,33.2,74,74,74s74-33.2,74-74C328.8,46.7,295.6,13.5,254.8,13.5z"/>
</svg>
