<?xml version="1.0" encoding="utf-8"?>
<!-- Generator: Adobe Illustrator 22.0.0, SVG Export Plug-In . SVG Version: 6.00 Build 0)  -->
<svg version="1.1" id="Layer_1" xmlns="http://www.w3.org/2000/svg" xmlns:xlink="http://www.w3.org/1999/xlink" x="0px" y="0px"
	 viewBox="0 0 512 512" style="enable-background:new 0 0 512 512;" xml:space="preserve">
<style type="text/css">
	.st0{fill:#5E686C;}
	.st1{fill:#3FC6F1;}
</style>
<path class="st0" d="M259.8,506c-3.7,0-6.6-3-6.6-6.6V366.8c0-3.7,3-6.6,6.6-6.6c3.7,0,6.6,3,6.6,6.6v132.6
	C266.5,503.1,263.5,506,259.8,506z"/>
<path class="st0" d="M259.8,49.4c-3.7,0-6.6-3-6.6-6.6V16.2c0-3.7,3-6.6,6.6-6.6c3.7,0,6.6,3,6.6,6.6v26.5
	C266.5,46.4,263.5,49.4,259.8,49.4z"/>
<path class="st1" d="M326.4,193.6H115.8c-6.2,0-14.2-3.1-18.7-7.3l-53.4-41.9c-3.3-3.1-5-6.9-5-10.8c0-3.9,1.7-7.7,4.6-10.4
	l54.2-42.6c4.1-3.8,12.2-7,18.3-7h210.6c8.2,0,14.8,6.6,14.8,14.7v90.4C341.2,187,334.6,193.6,326.4,193.6z M115.8,87
	c-2.8,0-7.7,1.9-9.7,3.8l-54.2,42.6l53.8,42.9c2.5,2.3,7.3,4.1,10.1,4.1h210.6c0.8,0,1.6-0.7,1.6-1.5V88.4c0-0.8-0.7-1.5-1.6-1.5
	H115.8z"/>
<path class="st0" d="M401.1,330.7H190.5c-8.2,0-14.9-6.6-14.9-14.7v-90.4c0-8.1,6.7-14.7,14.9-14.7h210.6c6.1,0,14.2,3.1,18.7,7.3
	l53.4,41.9c3.3,3.1,5,6.9,5,10.8c0,3.9-1.7,7.7-4.6,10.4l-54.2,42.6C415.3,327.5,407.3,330.7,401.1,330.7z M190.5,224
	c-0.9,0-1.6,0.7-1.6,1.5v90.4c0,0.8,0.7,1.5,1.6,1.5h210.6c2.8,0,7.6-1.9,9.7-3.8l54.2-42.6l-53.8-42.9c-2.5-2.3-7.3-4.1-10.1-4.1
	H190.5z"/>
</svg>
