<?xml version="1.0" encoding="utf-8"?>
<!-- Generator: Adobe Illustrator 22.0.0, SVG Export Plug-In . SVG Version: 6.00 Build 0)  -->
<svg version="1.1" id="Layer_1" xmlns="http://www.w3.org/2000/svg" xmlns:xlink="http://www.w3.org/1999/xlink" x="0px" y="0px"
	 viewBox="0 0 512 512" style="enable-background:new 0 0 512 512;" xml:space="preserve">
<style type="text/css">
	.st0{fill:#5E686C;}
	.st1{fill:#3FC6F1;}
</style>
<path class="st0" d="M249.2,509.6c-3.8,0-6.9-3.1-6.9-6.9V238.6c0-3.8,3.1-6.9,6.9-6.9s6.9,3.1,6.9,6.9v264.2
	C256,506.5,252.9,509.6,249.2,509.6z"/>
<path class="st0" d="M249.2,107.6c-3.8,0-6.9-3.1-6.9-6.9V8.9c0-3.8,3.1-6.9,6.9-6.9s6.9,3.1,6.9,6.9v91.9
	C256,104.5,252.9,107.6,249.2,107.6z"/>
<path class="st0" d="M283.4,509.6h-68.5c-3.8,0-6.9-3.1-6.9-6.9s3.1-6.9,6.9-6.9h68.5c3.8,0,6.9,3.1,6.9,6.9
	C290.3,506.5,287.2,509.6,283.4,509.6z"/>
<path class="st1" d="M398.5,245.4H53.9c-3.8,0-6.9-3.1-6.9-6.9V100.7c0-3.8,3.1-6.9,6.9-6.9h344.6c2,0,4,0.9,5.3,2.5l57.4,68.9
	c2.1,2.5,2.1,6.2,0,8.8L403.7,243C402.4,244.5,400.5,245.4,398.5,245.4z M60.8,231.7h334.5l51.7-62.1l-51.7-62.1H60.8V231.7z"/>
</svg>
