<?xml version="1.0" encoding="utf-8"?>
<!-- Generator: Adobe Illustrator 22.0.0, SVG Export Plug-In . SVG Version: 6.00 Build 0)  -->
<svg version="1.1" id="Layer_1" xmlns="http://www.w3.org/2000/svg" xmlns:xlink="http://www.w3.org/1999/xlink" x="0px" y="0px"
	 viewBox="0 0 512 512" style="enable-background:new 0 0 512 512;" xml:space="preserve">
<style type="text/css">
	.st0{fill:#5E686C;}
	.st1{fill:#3FC6F1;}
</style>
<path class="st0" d="M352,111.6c-30.3,0-55-24.6-55-54.9c0-30.3,24.6-55,55-55s55,24.7,55,55C406.9,87,382.3,111.6,352,111.6z
	 M352,15.5c-22.7,0-41.2,18.5-41.2,41.2c0,22.7,18.5,41.2,41.2,41.2c22.7,0,41.2-18.5,41.2-41.2C393.2,34,374.7,15.5,352,15.5z"/>
<path class="st1" d="M219.7,510.1c-76.7,0-139.2-62.4-139.2-139.2c0-76.7,62.4-139.2,139.2-139.2c3.8,0,6.9,3.1,6.9,6.9
	s-3.1,6.9-6.9,6.9c-69.2,0-125.4,56.3-125.4,125.4c0,69.2,56.3,125.4,125.4,125.4c69.2,0,125.4-56.3,125.4-125.4
	c0-3.8,3.1-6.9,6.9-6.9c3.8,0,6.9,3.1,6.9,6.9C358.9,447.7,296.4,510.1,219.7,510.1z"/>
<path class="st0" d="M401.6,493.6c-0.5,0-0.9,0-1.4-0.1c-3.7-0.7-6.1-4.4-5.4-8.1l31.4-157.2H252.8c-2.3,0-4.4-1.1-5.7-3
	c-1.3-1.9-1.5-4.3-0.7-6.4l62.3-155.8l-103.5,1.6l-98.3,63.3c-3.2,2-7.4,1.1-9.5-2.1c-2.1-3.2-1.1-7.4,2.1-9.5l99.9-64.4
	c1.1-0.7,2.3-1.1,3.6-1.1l115.8-1.8c2.2,0.1,4.5,1.1,5.8,3c1.3,1.9,1.6,4.3,0.7,6.4l-62.4,156h171.8c2.1,0,4,0.9,5.3,2.5
	c1.3,1.6,1.8,3.7,1.4,5.7L408.4,488C407.7,491.3,404.9,493.6,401.6,493.6z"/>
</svg>
