<?xml version="1.0" encoding="utf-8"?>
<!-- Generator: Adobe Illustrator 22.0.0, SVG Export Plug-In . SVG Version: 6.00 Build 0)  -->
<svg version="1.1" id="Layer_1" xmlns="http://www.w3.org/2000/svg" xmlns:xlink="http://www.w3.org/1999/xlink" x="0px" y="0px"
	 viewBox="0 0 512 512" style="enable-background:new 0 0 512 512;" xml:space="preserve">
<style type="text/css">
	.st0{fill:#3FC6F1;}
	.st1{fill:#5E686C;}
	.st2{clip-path:url(#SVGID_3_);fill:#5E686C;}
</style>
<path class="st0" d="M357.1,135.7H70c-3.8,0-6.8-3.1-6.8-6.8v-118C63.2,7.1,66.3,4,70,4s6.8,3.1,6.8,6.8V122h273.4V10.8
	c0-3.8,3.1-6.8,6.8-6.8c3.8,0,6.8,3.1,6.8,6.8v118C364,132.6,360.9,135.7,357.1,135.7z"/>
<path class="st0" d="M328,376.5H123c-3.8,0-6.8-3.1-6.8-6.8c0-3.8,3.1-6.8,6.8-6.8h205c3.8,0,6.8,3.1,6.8,6.8
	C334.9,373.5,331.8,376.5,328,376.5z"/>
<path class="st0" d="M328,436.3H123c-3.8,0-6.8-3.1-6.8-6.8c0-3.8,3.1-6.8,6.8-6.8h205c3.8,0,6.8,3.1,6.8,6.8
	C334.9,433.3,331.8,436.3,328,436.3z"/>
<g>
	<g>
		<path id="SVGID_1_" class="st1" d="M500.7,508.1H10.2c-3.8,0-6.8-3.1-6.8-6.8V10.8C3.4,7.1,6.5,4,10.2,4H388
			c1.8,0,3.6,0.7,4.9,2.1l112.7,116.2c1.2,1.3,1.9,3,1.9,4.8v374.3C507.5,505,504.4,508.1,500.7,508.1z M17.1,494.4h476.8V129.8
			L385.1,17.7h-368V494.4z"/>
	</g>
	<g>
		<defs>
			<path id="SVGID_2_" d="M500.7,508.1H10.2c-3.8,0-6.8-3.1-6.8-6.8V10.8C3.4,7.1,6.5,4,10.2,4H388c1.8,0,3.6,0.7,4.9,2.1
				l112.7,116.2c1.2,1.3,1.9,3,1.9,4.8v374.3C507.5,505,504.4,508.1,500.7,508.1z M17.1,494.4h476.8V129.8L385.1,17.7h-368V494.4z"
				/>
		</defs>
		<clipPath id="SVGID_3_">
			<use xlink:href="#SVGID_2_"  style="overflow:visible;"/>
		</clipPath>
		<path class="st2" d="M500.7,508.1H10.2c-3.8,0-6.8-3.1-6.8-6.8V10.8C3.4,7.1,6.5,4,10.2,4H388c1.8,0,3.6,0.7,4.9,2.1l112.7,116.2
			c1.2,1.3,1.9,3,1.9,4.8v374.3C507.5,505,504.4,508.1,500.7,508.1z M17.1,494.4h476.8V129.8L385.1,17.7h-368V494.4z"/>
	</g>
</g>
</svg>
