<?xml version="1.0" encoding="utf-8"?>
<!-- Generator: Adobe Illustrator 22.0.0, SVG Export Plug-In . SVG Version: 6.00 Build 0)  -->
<svg version="1.1" id="Layer_1" xmlns="http://www.w3.org/2000/svg" xmlns:xlink="http://www.w3.org/1999/xlink" x="0px" y="0px"
	 viewBox="0 0 512 512" style="enable-background:new 0 0 512 512;" xml:space="preserve">
<style type="text/css">
	.st0{fill:#5E686C;}
	.st1{fill:#3FC6F1;}
</style>
<path class="st0" d="M501.8,82.1H10.2c-3.8,0-6.8,3-6.8,6.8v304.3c0,3.8,3,6.8,6.8,6.8h239v27.2h-27.2c-3.8,0-6.8,3-6.8,6.8
	c0,3.8,3,6.8,6.8,6.8h67.9c3.8,0,6.8-3,6.8-6.8c0-3.8-3-6.8-6.8-6.8h-27.2V400h239c3.8,0,6.8-3,6.8-6.8V88.9
	C508.6,85.2,505.6,82.1,501.8,82.1z M495,386.5H17V95.7H495V386.5z"/>
<path class="st1" d="M217.5,287.9c1,0.6,2.2,0.9,3.4,0.9c1.2,0,2.4-0.3,3.4-0.9l70.2-41c2.1-1.2,3.4-3.4,3.4-5.9s-1.3-4.6-3.4-5.9
	l-70.2-41c-2.1-1.2-4.7-1.2-6.8,0c-2.1,1.2-3.4,3.5-3.4,5.9v81.9C214.1,284.5,215.4,286.7,217.5,287.9z M227.7,212l50,29.1l-50,29.1
	L227.7,212L227.7,212z"/>
</svg>
