<?xml version="1.0" encoding="utf-8"?>
<!-- Generator: Adobe Illustrator 22.0.0, SVG Export Plug-In . SVG Version: 6.00 Build 0)  -->
<svg version="1.1" id="Layer_1" xmlns="http://www.w3.org/2000/svg" xmlns:xlink="http://www.w3.org/1999/xlink" x="0px" y="0px"
	 viewBox="0 0 512 512" style="enable-background:new 0 0 512 512;" xml:space="preserve">
<style type="text/css">
	.st0{fill:#5E686C;}
	.st1{fill:#3FC6F1;}
</style>
<path class="st0" d="M255.5,421c-64.7,0-117.4-52.7-117.4-117.4c0-3.8,3.1-6.9,6.9-6.9s6.9,3.1,6.9,6.9
	c0,57.1,46.5,103.6,103.6,103.6s103.6-46.5,103.6-103.6c0-3.8,3.1-6.9,6.9-6.9s6.9,3.1,6.9,6.9C372.9,368.3,320.2,421,255.5,421z"/>
<path class="st0" d="M501.1,506.9H9.9c-3.8,0-6.9-3.1-6.9-6.9V303.6c0-3.8,3.1-6.9,6.9-6.9c3.8,0,6.9,3.1,6.9,6.9v189.6h477.4V303.6
	c0-3.8,3.1-6.9,6.9-6.9c3.8,0,6.9,3.1,6.9,6.9V500C508,503.8,504.9,506.9,501.1,506.9z"/>
<path class="st1" d="M501.1,310.4H9.9c-3.8,0-6.9-3.1-6.9-6.9V107.1c0-3.8,3.1-6.9,6.9-6.9H145c3.8,0,6.9,3.1,6.9,6.9
	c0,57.2,46.5,103.6,103.6,103.6s103.6-46.5,103.6-103.6c0-3.8,3.1-6.9,6.9-6.9h135.1c3.8,0,6.9,3.1,6.9,6.9v196.5
	C508,307.4,504.9,310.4,501.1,310.4z M16.8,296.7h477.4V114H372.7c-3.6,61.5-54.8,110.5-117.2,110.5s-113.6-49-117.2-110.5H16.8
	V296.7z"/>
<path class="st1" d="M501.1,114c-2.8,0-5.4-1.7-6.4-4.5l-35.2-93.8h-408l-35.2,93.8c-1.3,3.6-5.3,5.3-8.8,4c-3.5-1.3-5.3-5.3-4-8.8
	L40.3,6.5c1-2.7,3.6-4.5,6.4-4.5h417.5c2.9,0,5.4,1.8,6.4,4.5l36.8,98.2c1.3,3.6-0.5,7.5-4,8.8C502.7,113.8,501.9,114,501.1,114z"/>
</svg>
