<?xml version="1.0" encoding="utf-8"?>
<!-- Generator: Adobe Illustrator 22.0.0, SVG Export Plug-In . SVG Version: 6.00 Build 0)  -->
<svg version="1.1" id="Layer_1" xmlns="http://www.w3.org/2000/svg" xmlns:xlink="http://www.w3.org/1999/xlink" x="0px" y="0px"
	 viewBox="0 0 512 512" style="enable-background:new 0 0 512 512;" xml:space="preserve">
<style type="text/css">
	.st0{fill:none;stroke:#69C299;stroke-linecap:round;stroke-linejoin:round;stroke-miterlimit:10;}
	.st1{fill:#5E686C;}
	.st2{fill:#3FC6F1;}
</style>
<path class="st0" d="M109.8,419.3"/>
<path class="st1" d="M264.3,483.6c-59.6,0-108.1-48.5-108.1-108.1c0-3.8,3.1-6.9,6.9-6.9c3.8,0,6.9,3.1,6.9,6.9
	c0,52.1,42.4,94.4,94.4,94.4c52.1,0,94.4-42.4,94.4-94.4c0-49.7-39.9-87.7-99.4-94.5c-67.7-7.7-116.9-57.2-116.9-117.6
	c0-64.9,52.8-117.7,117.7-117.7c64.9,0,117.7,52.8,117.7,117.7c0,3.8-3.1,6.9-6.9,6.9s-6.9-3.1-6.9-6.9c0-57.3-46.6-104-104-104
	s-103.9,46.6-103.9,104c0,54.2,43.1,97,104.7,104c66.7,7.6,111.5,51.1,111.5,108.1C372.5,435.1,323.9,483.6,264.3,483.6z"/>
<path class="st2" d="M260.1,505.5c-3.8,0-6.9-3.1-6.9-6.9V10.3c0-3.8,3.1-6.9,6.9-6.9s6.9,3.1,6.9,6.9v488.3
	C267,502.5,263.9,505.5,260.1,505.5z"/>
</svg>
