<?xml version="1.0" encoding="utf-8"?>
<!-- Generator: Adobe Illustrator 22.0.0, SVG Export Plug-In . SVG Version: 6.00 Build 0)  -->
<svg version="1.1" id="Layer_1" xmlns="http://www.w3.org/2000/svg" xmlns:xlink="http://www.w3.org/1999/xlink" x="0px" y="0px"
	 viewBox="0 0 512 512" style="enable-background:new 0 0 512 512;" xml:space="preserve">
<style type="text/css">
	.st0{fill:#3FC6F1;}
	.st1{fill:#5E686C;}
</style>
<path class="st0" d="M170.3,107.9c-0.3,0-0.5,0-0.8,0l-39.2-4.4c-1.9-0.2-3.7-1.2-4.8-2.8c-1.2-1.5-1.6-3.5-1.3-5.4l4.4-24.7
	c0.3-2,1.5-3.7,3.3-4.8l19-11.4l2.2-14.3L150.5,30c-0.9-3.7,1.4-7.5,5.1-8.5c3.7-0.9,7.5,1.4,8.5,5.1l2.9,11.6
	c0.2,0.9,0.3,1.8,0.1,2.7l-2.9,18.9c-0.3,2.1-1.5,3.9-3.3,4.9l-19.1,11.4l-2.5,14.2l29.6,3.3l30.6-17.3l19.3-19.3
	c-2.5-3.4-4.9-8.2-4.4-13.5c0.4-4,2.5-9.8,10.7-14.2c14.4-7.9,27.1-25.3,27.2-25.5c2.2-3.1,6.6-3.8,9.7-1.6c3.1,2.2,3.8,6.6,1.6,9.7
	c-0.6,0.8-14.7,20.3-31.8,29.6c-2.1,1.1-3.4,2.4-3.5,3.2c-0.2,2,2.9,5.6,4.5,7c1.5,1.2,2.5,3.1,2.6,5.1c0.1,2-0.6,3.9-2,5.3
	L208.6,87c-0.4,0.4-0.9,0.8-1.5,1.1L173.7,107C172.7,107.6,171.5,107.9,170.3,107.9z"/>
<path class="st0" d="M9.9,241.8c-2.7,0-5.3-1.6-6.4-4.3c-1.5-3.6,0.2-7.6,3.8-9.1l35.5-14.8c0.9-0.4,1.8-0.5,2.7-0.5
	c1.6-0.4,12.4-4.3,22.5-8.2l6.8-64c0.2-2.2,1.5-4.1,3.3-5.2l3.9-2.3V73c0-3.9,3.1-7,7-7s7,3.1,7,7v64.2c0,2.5-1.3,4.7-3.4,6
	l-4.3,2.6l-6.9,64.8c-0.3,2.6-2,4.8-4.4,5.8c-19.7,7.7-26.7,9.8-29.6,10.4l-34.8,14.5C11.7,241.6,10.8,241.8,9.9,241.8z"/>
<path class="st0" d="M215.8,505.4c-2.1,0-4.3-1-5.6-2.9l-28.6-39l-27.5-13.8c-0.7-0.3-1.3-0.8-1.8-1.3l-7.3-7.3l-16.4-19.3
	c-1.1-1.3-1.7-2.9-1.7-4.5v-18.9c0-1.4,0.4-2.8,1.3-4c3.3-4.7,6.4-10,7.4-12.5c-0.6-2.2-0.7-4.8-0.5-7.1l-7.2-3.6l-24.8-13.8h-5.4
	c-2,0-3.9-0.8-5.2-2.3l-26.1-29c-2.1-2.3-2.4-5.6-0.8-8.3l1.2-1.9l-18-14l-31,13c-3.5,1.5-7.6-0.2-9.1-3.7c-1.5-3.6,0.2-7.6,3.8-9.1
	l34.8-14.6c2.3-1,5-0.6,7,0.9l26.1,20.3c2.8,2.2,3.5,6.1,1.7,9.1l-1.7,2.8l20.6,22.9h4.1c1.2,0,2.4,0.3,3.4,0.9l37.5,20.2
	c2.8,1.4,4.3,4.5,3.7,7.6c-0.4,2.2-0.6,5.2-0.4,6.1c1,2,3,5.9-8.2,22.3v14.1l14.3,16.9l6.1,6l28,14c1,0.5,1.9,1.2,2.5,2.1l29.6,40.3
	c2.3,3.1,1.6,7.5-1.5,9.8C218.7,505,217.3,505.4,215.8,505.4z"/>
<path class="st0" d="M321.3,454.9c-1.8,0-3.6-0.7-4.9-2l-23.2-23.2c-0.9-0.9-1.6-2.1-1.9-3.4l-5.8-26.1c-0.7-3.1,0.8-6.3,3.7-7.8
	l6.5-3.3l7.7-16.7c0.7-1.5,1.8-4.4,2.7-6.8l-11.4-11.4c-1.2-1.2-1.9-2.9-2-4.6l-1.2-26.3l-11.8-5.5l-23,12.8c-2.9,1.6-6.6,1-8.8-1.6
	l-21.8-26.1c-1-1.2-1.5-2.6-1.6-4.1l-1.4-26.1c-0.1-1.2,0.2-2.4,0.7-3.5l24.7-49.4l18.7-44.6c0.4-1.1,1.1-2,2-2.7
	c0,0,16-13.1,23.3-18.9c4-3.2,10.6-15.7,13.9-23.4c0.6-1.5,1.7-2.7,3.1-3.4L355,103l-6.8-16.9c-0.9-2.2-0.6-4.7,0.8-6.7
	c32-44.6,34.8-43.3,40.3-40.6c3.4,1.7,4.9,5.9,3.1,9.4c-0.8,1.7-2.3,2.9-4,3.5c-3.9,3.5-15.6,18.7-25.8,32.7l7.3,18.2
	c1.2,2.9,0.2,6.3-2.3,8.2l-5.8,4.4L318,137.9c-2.8,6.3-10,20.9-17,26.6c-6,4.8-17.8,14.5-21.8,17.7l-18.2,43.4l-24,48.1l1.2,22
	l16.6,19.9l21.1-11.7c1.9-1.1,4.3-1.2,6.3-0.2l18.9,8.7c2.4,1.1,3.9,3.4,4,6l1.3,27.8l12.6,12.6c1.9,1.9,2.5,4.6,1.7,7.1
	c-0.5,1.5-3.1,9.4-4.8,12.5l-8.6,18.7c-0.7,1.4-1.8,2.6-3.2,3.3l-3.8,1.9l4.2,18.8l17.8,17.8c7-4.6,13.8-9.5,15.2-11
	c1.4-2.3,8.8-18.9,15.3-33.7c0.4-0.8,0.9-1.5,1.5-2.2l33.4-33.4l17.7-24.7l13.1-30.2l-5.9-16.5l-9.3-10.6c-2-2.3-2.3-5.7-0.7-8.3
	l7.3-11.6c0.3-0.5,0.7-1,1.2-1.4c17.2-15.8,22.1-14.6,24.6-13.9c2.3,0.6,4.9,3,5.6,5.3c1.1,3.2,4.8,17.8,7.1,26.9l13.7-4l0.6-3.1
	c0.5-2.7,2.6-4.8,5.2-5.4l33.4-7.8c3.8-1,7.5,1.4,8.4,5.2c0.9,3.7-1.4,7.5-5.2,8.4l-29,6.8l-0.6,2.9c-0.5,2.5-2.4,4.6-4.9,5.3
	l-24.7,7.3c-1.8,0.5-3.8,0.3-5.4-0.6c-1.6-0.9-2.9-2.5-3.3-4.4c-2-7.9-4.8-19-6.7-26.1c-2.6,1.9-5.8,4.5-8.7,7.2l-4,6.4l6.7,7.7
	c0.6,0.7,1,1.4,1.3,2.2l7.3,20.3c0.6,1.7,0.5,3.5-0.2,5.1l-14.5,33.4c-0.2,0.5-0.4,0.9-0.7,1.3l-18.9,26.1l-33.2,33.3
	c-10.6,24.3-14.1,31.6-15.7,34.2c-0.8,1.6-3.4,5.2-24.1,18.5C323.9,454.5,322.6,454.9,321.3,454.9z"/>
<path class="st1" d="M256,508.7C116,508.7,2.1,394.8,2.1,254.8C2.1,114.9,116,1,256,1c156.8,0,253.8,131.8,253.8,253.8
	C509.8,394.8,395.9,508.7,256,508.7z M256,15C123.7,15,16.1,122.6,16.1,254.8c0,132.3,107.6,239.9,239.9,239.9
	c132.3,0,239.9-107.6,239.9-239.9C495.8,139.5,404.1,15,256,15z"/>
</svg>
