<?xml version="1.0" encoding="utf-8"?>
<!-- Generator: Adobe Illustrator 22.0.0, SVG Export Plug-In . SVG Version: 6.00 Build 0)  -->
<svg version="1.1" id="Layer_1" xmlns="http://www.w3.org/2000/svg" xmlns:xlink="http://www.w3.org/1999/xlink" x="0px" y="0px"
	 viewBox="0 0 512 512" style="enable-background:new 0 0 512 512;" xml:space="preserve">
<style type="text/css">
	.st0{fill:#5E686C;}
	.st1{fill:none;stroke:#69C299;stroke-linecap:round;stroke-linejoin:round;stroke-miterlimit:10;}
	.st2{fill:#3FC6F1;}
</style>
<path class="st0" d="M103.2,322c-1.1,0-2.3-0.3-3.3-0.9c-50.8-30.2-82.3-85.7-82.3-144.7C17.5,83.5,93,8.1,185.8,8.1
	c92.8,0,168.3,75.5,168.3,168.3c0,31.2-8.6,61.6-24.8,88c-1.9,3-5.8,4-8.9,2.1c-3-1.9-4-5.8-2.1-8.9c15-24.4,22.9-52.5,22.9-81.3
	C341.2,90.7,271.5,21,185.8,21C100.2,21,30.5,90.7,30.5,176.3c0,54.5,29.1,105.7,76,133.6c3.1,1.8,4.1,5.8,2.2,8.8
	C107.5,320.8,105.4,322,103.2,322z"/>
<path class="st0" d="M110.9,271.2c-2.6,0-5.1-1.6-6.1-4.3c-9.8-27-14.9-58.3-14.9-90.6C89.9,82,132.1,8.1,185.8,8.1
	s95.9,73.9,95.9,168.3c0,30.7-4.7,60.7-13.5,86.7c-1.2,3.4-4.8,5.2-8.2,4c-3.4-1.1-5.2-4.8-4-8.2c8.4-24.7,12.9-53.3,12.9-82.6
	c0-85.7-37.2-155.4-83-155.4c-45.8,0-83,69.7-83,155.4c0,30.8,4.9,60.6,14.1,86.2c1.2,3.4-0.5,7-3.9,8.3
	C112.4,271.1,111.6,271.2,110.9,271.2z"/>
<path class="st0" d="M185.8,125.4c-50.7,0-97.8-14.2-132.6-40c-2.9-2.1-3.5-6.2-1.3-9c2.1-2.9,6.2-3.5,9-1.3
	c32.1,23.8,77.6,37.4,124.9,37.4c47.3,0,92.8-13.7,124.9-37.4c2.9-2.1,6.9-1.5,9,1.3c2.1,2.9,1.5,6.9-1.3,9
	C283.6,111.2,236.6,125.4,185.8,125.4z"/>
<path class="st0" d="M347.7,188H24c-3.6,0-6.5-2.9-6.5-6.5s2.9-6.4,6.5-6.4h323.7c3.6,0,6.5,2.9,6.5,6.4S351.2,188,347.7,188z"/>
<path class="st0" d="M185.8,267.4c-3.6,0-6.5-2.9-6.5-6.5V14.5c0-3.6,2.9-6.4,6.5-6.4s6.4,2.9,6.4,6.4V261
	C192.3,264.5,189.4,267.4,185.8,267.4z"/>
<path class="st1" d="M104.8,294.8"/>
<path class="st0" d="M286.3,506.6c-14.2,0-25.8-11.6-25.8-25.8c0-14.2,11.6-25.8,25.8-25.8c14.2,0,25.8,11.6,25.8,25.8
	C312.1,495,300.6,506.6,286.3,506.6z M286.3,467.9c-7.1,0-12.9,5.8-12.9,12.9s5.8,12.9,12.9,12.9c7.1,0,12.9-5.8,12.9-12.9
	S293.5,467.9,286.3,467.9z"/>
<path class="st0" d="M286.3,467.9c-3.6,0-6.5-2.9-6.5-6.4v-38.7c0-3.6,2.9-6.5,6.5-6.5c3.6,0,6.5,2.9,6.5,6.5v38.7
	C292.8,465,289.9,467.9,286.3,467.9z"/>
<path class="st0" d="M267,487.2H159c-3.6,0-6.4-2.9-6.4-6.5c0-3.6,2.9-6.4,6.4-6.4H267c3.6,0,6.5,2.9,6.5,6.4
	C273.4,484.3,270.6,487.2,267,487.2z"/>
<path class="st0" d="M413.6,487.2H305.7c-3.6,0-6.5-2.9-6.5-6.5c0-3.6,2.9-6.4,6.5-6.4h107.9c3.6,0,6.5,2.9,6.5,6.4
	C420.1,484.3,417.2,487.2,413.6,487.2z"/>
<path class="st2" d="M399.4,354.7c-14.2,0-25.8-11.6-25.8-25.8c0-14.2,11.6-25.8,25.8-25.8s25.8,11.6,25.8,25.8
	C425.2,343.2,413.6,354.7,399.4,354.7z M399.4,316c-7.1,0-12.9,5.8-12.9,12.9c0,7.1,5.8,12.9,12.9,12.9c7.1,0,12.9-5.8,12.9-12.9
	C412.3,321.8,406.5,316,399.4,316z"/>
<path class="st2" d="M459.8,403.4H123.1c-14.5,0-26.4-10.9-26.4-24.4V278.9c0-13.5,11.8-24.4,26.4-24.4h336.7
	c14.5,0,26.3,10.9,26.3,24.4V379C486.2,392.4,474.3,403.4,459.8,403.4z M123.1,267.4c-7.4,0-13.5,5.2-13.5,11.5V379
	c0,6.3,6,11.5,13.5,11.5h336.7c7.4,0,13.4-5.2,13.4-11.5V278.9c0-6.3-6-11.5-13.4-11.5L123.1,267.4L123.1,267.4z"/>
</svg>
