<?xml version="1.0" encoding="utf-8"?>
<!-- Generator: Adobe Illustrator 22.0.0, SVG Export Plug-In . SVG Version: 6.00 Build 0)  -->
<svg version="1.1" id="Layer_1" xmlns="http://www.w3.org/2000/svg" xmlns:xlink="http://www.w3.org/1999/xlink" x="0px" y="0px"
	 viewBox="0 0 512 512" style="enable-background:new 0 0 512 512;" xml:space="preserve">
<style type="text/css">
	.st0{fill:#3FC6F1;}
	.st1{fill:#5E686C;}
</style>
<path class="st0" d="M12.8,4.2c1.6,0,3.1,0.5,4.3,1.6l293,244.2c1.5,1.3,2.4,3.2,2.4,5.2c0,2-0.9,3.9-2.4,5.2l-293,244.2
	c-2,1.7-4.9,2.1-7.2,0.9c-2.4-1.1-3.9-3.5-3.9-6.1V11c0-2.6,1.5-5,3.9-6.1C10.8,4.4,11.8,4.2,12.8,4.2z M295.2,255.1L19.6,25.4
	v459.4L295.2,255.1z"/>
<path class="st1" d="M201.8,4.2c1.6,0,3.1,0.5,4.3,1.6l293,244.2c1.5,1.3,2.4,3.2,2.4,5.2c0,2-0.9,3.9-2.4,5.2l-293,244.2
	c-2,1.7-4.9,2.1-7.2,0.9c-2.4-1.1-3.9-3.5-3.9-6.1v-75.6c0-3.7,3-6.8,6.8-6.8s6.8,3,6.8,6.8v61.1l275.6-229.7L208.6,25.4v61.1
	c0,3.8-3,6.8-6.8,6.8s-6.8-3-6.8-6.8V11c0-2.6,1.5-5,3.9-6.1C199.9,4.4,200.8,4.2,201.8,4.2z"/>
</svg>
