<?xml version="1.0" encoding="utf-8"?>
<!-- Generator: Adobe Illustrator 22.0.0, SVG Export Plug-In . SVG Version: 6.00 Build 0)  -->
<svg version="1.1" id="Layer_1" xmlns="http://www.w3.org/2000/svg" xmlns:xlink="http://www.w3.org/1999/xlink" x="0px" y="0px"
	 viewBox="0 0 512 512" style="enable-background:new 0 0 512 512;" xml:space="preserve">
<style type="text/css">
	.st0{fill:#3FC6F1;}
	.st1{fill:#5E686C;}
</style>
<path class="st0" d="M494.8,506.1c-1.5,0-3.1-0.5-4.3-1.6l-293-244.2c-1.5-1.3-2.4-3.2-2.4-5.2c0-2,0.9-3.9,2.4-5.2l293-244.2
	c2-1.7,4.9-2.1,7.2-0.9c2.4,1.1,3.9,3.5,3.9,6.1v488.3c0,2.6-1.5,5-3.9,6.1C496.8,505.9,495.8,506.1,494.8,506.1z M212.4,255.1
	L488,484.8V25.4L212.4,255.1z"/>
<path class="st1" d="M305.8,506.1c-1.6,0-3.1-0.5-4.3-1.6L8.4,260.3C6.9,259,6,257.1,6,255.1c0-2,0.9-3.9,2.4-5.2l293-244.2
	c2-1.7,4.9-2.1,7.2-0.9c2.4,1.1,3.9,3.5,3.9,6.1v75.6c0,3.7-3,6.8-6.8,6.8s-6.8-3-6.8-6.8V25.4L23.4,255.1L299,484.8v-61.1
	c0-3.8,3-6.8,6.8-6.8s6.8,3,6.8,6.8v75.6c0,2.6-1.5,5-3.9,6.1C307.7,505.9,306.8,506.1,305.8,506.1z"/>
</svg>
