<?xml version="1.0" encoding="utf-8"?>
<!-- Generator: Adobe Illustrator 22.0.0, SVG Export Plug-In . SVG Version: 6.00 Build 0)  -->
<svg version="1.1" id="Layer_1" xmlns="http://www.w3.org/2000/svg" xmlns:xlink="http://www.w3.org/1999/xlink" x="0px" y="0px"
	 viewBox="0 0 512 512" style="enable-background:new 0 0 512 512;" xml:space="preserve">
<style type="text/css">
	.st0{fill:#5E686C;}
	.st1{fill:#3FC6F1;}
</style>
<path class="st0" d="M488.4,394.8c-3.8,0-6.8,3-6.8,6.8v93.2H38.4v-93.2c0-3.8-3-6.8-6.8-6.8s-6.8,3-6.8,6.8v100
	c0,3.8,3,6.8,6.8,6.8h456.8c3.8,0,6.8-3,6.8-6.8v-100C495.2,397.9,492.2,394.8,488.4,394.8z"/>
<path class="st1" d="M256,406.5c1.3,1.3,3,1.9,4.7,1.9c1.7,0,3.4-0.6,4.7-1.9l131.1-126.7c2.7-2.6,2.8-6.9,0.2-9.6
	c-2.6-2.7-6.9-2.8-9.6-0.2L267.6,385.6V12.3c0-3.8-3-6.8-6.8-6.8c-3.8,0-6.8,3-6.8,6.8v373.3L134.4,270.1c-2.7-2.6-7-2.5-9.6,0.2
	c-2.6,2.7-2.5,7,0.2,9.6L256,406.5z"/>
</svg>
