<?xml version="1.0" encoding="utf-8"?>
<!-- Generator: Adobe Illustrator 22.0.0, SVG Export Plug-In . SVG Version: 6.00 Build 0)  -->
<svg version="1.1" id="Layer_1" xmlns="http://www.w3.org/2000/svg" xmlns:xlink="http://www.w3.org/1999/xlink" x="0px" y="0px"
	 viewBox="0 0 512 512" style="enable-background:new 0 0 512 512;" xml:space="preserve">
<style type="text/css">
	.st0{fill:#3FC6F1;}
	.st1{fill:#5E686C;}
</style>
<path class="st0" d="M362.7,485c-3.4,0-6.4-2.5-6.8-6C334.7,308.9,275,175.2,156.5,32.2c-2.4-2.9-2-7.2,0.9-9.7
	c2.9-2.4,7.2-2,9.7,0.9C287.4,168.6,348,304.4,369.6,477.2c0.5,3.8-2.2,7.2-6,7.7C363.3,484.9,363,485,362.7,485z"/>
<path class="st1" d="M255.5,509.4C115.8,509.4,2.1,395.7,2.1,256C2.1,116.2,115.8,2.5,255.5,2.5C395.3,2.5,509,116.2,509,256
	C509,395.7,395.3,509.4,255.5,509.4z M255.5,16.2C123.4,16.2,15.8,123.8,15.8,256s107.5,239.7,239.7,239.7S495.3,388.1,495.3,256
	S387.7,16.2,255.5,16.2z"/>
<path class="st1" d="M10,238.8c-3.7,0-6.8-3-6.9-6.7c-0.1-3.8,2.9-6.9,6.7-7c223.1-5,332.2-42.9,416.6-145c2.4-2.9,6.7-3.3,9.7-0.9
	c2.9,2.4,3.3,6.7,0.9,9.7C349.7,194.4,238,233.7,10.2,238.8C10.1,238.8,10.1,238.8,10,238.8z"/>
<path class="st1" d="M86.4,442.3c-1.3,0-2.6-0.4-3.8-1.1c-3.2-2.1-4.1-6.3-2-9.5c104.7-159.3,238.7-208.2,421.7-154
	c3.6,1.1,5.7,4.9,4.6,8.5c-1.1,3.6-4.9,5.7-8.5,4.6C322.1,238.6,193,285.7,92.1,439.2C90.8,441.2,88.6,442.3,86.4,442.3z"/>
</svg>
