<?xml version="1.0" encoding="utf-8"?>
<!-- Generator: Adobe Illustrator 22.0.0, SVG Export Plug-In . SVG Version: 6.00 Build 0)  -->
<svg version="1.1" id="Layer_1" xmlns="http://www.w3.org/2000/svg" xmlns:xlink="http://www.w3.org/1999/xlink" x="0px" y="0px"
	 viewBox="0 0 512 512" style="enable-background:new 0 0 512 512;" xml:space="preserve">
<style type="text/css">
	.st0{fill:#5E686C;}
	.st1{fill:#3FC6F1;}
</style>
<path class="st0" d="M226.6,500.9c-3.7,0-6.7-3-6.7-6.7V280.7c0-3.7,3-6.7,6.7-6.7s6.7,3,6.7,6.7v213.5
	C233.3,497.9,230.3,500.9,226.6,500.9z"/>
<path class="st0" d="M282.8,508.5H170.3c-3.7,0-6.7-3-6.7-6.7c0-3.7,3-6.7,6.7-6.7h112.5c3.7,0,6.7,3,6.7,6.7
	C289.6,505.5,286.6,508.5,282.8,508.5z"/>
<path class="st0" d="M388,186c-18.5,0-36.1-5.9-51-16.9c-3-2.2-3.6-6.4-1.4-9.4c2.2-3,6.4-3.6,9.4-1.4c12.6,9.3,27.4,14.3,42.9,14.3
	c40.4,0,73.2-33.7,73.2-75c0-41.4-32.9-75-73.2-75c-40.4,0-73.2,33.7-73.2,75c0,3.7-3,6.7-6.7,6.7s-6.7-3-6.7-6.7
	C301.3,48.7,340.2,9,388,9c47.8,0,86.7,39.7,86.7,88.5C474.7,146.3,435.8,186,388,186z"/>
<path class="st1" d="M226.6,287.4c-1.8,0-3.5-0.7-4.8-2L44.1,103.7c-1.9-1.9-2.4-4.8-1.4-7.3s3.5-4.1,6.2-4.1h355.4
	c2.7,0,5.2,1.6,6.2,4.1c1.1,2.5,0.5,5.4-1.4,7.3L231.4,285.4C230.1,286.7,228.4,287.4,226.6,287.4z M64.9,105.8l161.7,165.3
	l161.7-165.3H64.9z"/>
</svg>
