<?xml version="1.0" encoding="utf-8"?>
<!-- Generator: Adobe Illustrator 22.0.0, SVG Export Plug-In . SVG Version: 6.00 Build 0)  -->
<svg version="1.1" id="Layer_1" xmlns="http://www.w3.org/2000/svg" xmlns:xlink="http://www.w3.org/1999/xlink" x="0px" y="0px"
	 viewBox="0 0 512 512" style="enable-background:new 0 0 512 512;" xml:space="preserve">
<style type="text/css">
	.st0{fill:#5E686B;}
	.st1{fill:#3FC6F1;}
</style>
<path class="st0" d="M445.9,3.3H66.1c-3.8,0-6.8,3-6.8,6.8v490.5c0,3.8,3,6.8,6.8,6.8h379.8c3.8,0,6.8-3,6.8-6.8V10.2
	C452.7,6.4,449.6,3.3,445.9,3.3z M439.1,493.9H72.9V17h105.1c-0.1,0.4-0.1,0.7-0.1,1.1v61.8c0,3.8,3,6.8,6.8,6.8
	c3.8,0,6.8-3,6.8-6.8V18.1c0-0.4,0-0.7-0.1-1.1h34.1c-0.1,0.4-0.1,0.7-0.1,1.1v61.8c0,3.8,3,6.8,6.8,6.8c3.8,0,6.8-3,6.8-6.8V18.1
	c0-0.4,0-0.7-0.1-1.1h34c-0.1,0.4-0.1,0.7-0.1,1.1v61.8c0,3.8,3,6.8,6.8,6.8c3.8,0,6.8-3,6.8-6.8V18.1c0-0.4,0-0.7-0.1-1.1h34
	c-0.1,0.4-0.1,0.7-0.1,1.1v61.8c0,3.8,3,6.8,6.8,6.8c3.8,0,6.8-3,6.8-6.8V18.1c0-0.4,0-0.7-0.1-1.1h105.2L439.1,493.9L439.1,493.9z"
	/>
<path class="st1" d="M138.4,150.8V360c0,3.8,3,6.8,6.8,6.8h221.5c3.8,0,6.8-3,6.8-6.8V150.8c0-3.8-3-6.8-6.8-6.8H145.2
	C141.5,144,138.4,147.1,138.4,150.8z M152.1,157.6H360v195.6H152.1V157.6z"/>
</svg>
