<?xml version="1.0" encoding="utf-8"?>
<!-- Generator: Adobe Illustrator 22.0.0, SVG Export Plug-In . SVG Version: 6.00 Build 0)  -->
<svg version="1.1" id="Layer_1" xmlns="http://www.w3.org/2000/svg" xmlns:xlink="http://www.w3.org/1999/xlink" x="0px" y="0px"
	 viewBox="0 0 512 512" style="enable-background:new 0 0 512 512;" xml:space="preserve">
<style type="text/css">
	.st0{fill:#5E686B;}
	.st1{fill:#3FC6F1;}
</style>
<path class="st0" d="M442.5,7.5h-373c-3.8,0-6.9,3.1-6.9,6.9v481.8c0,3.8,3.1,6.9,6.9,6.9h373c3.8,0,6.9-3.1,6.9-6.9V14.4
	C449.4,10.6,446.3,7.5,442.5,7.5z M435.6,489.3H76.4V21.3h359.3L435.6,489.3L435.6,489.3z"/>
<path class="st1" d="M256,363.2c20.9,0,40.5-6,57-16.4l30.8,46.2c1.3,2,3.5,3.1,5.7,3.1c1.3,0,2.6-0.4,3.8-1.1
	c3.1-2.1,4-6.4,1.9-9.5l-31.1-46.6c24.2-19.8,39.7-49.9,39.7-83.5c0-59.5-48.4-107.9-107.9-107.9c-59.5,0-107.9,48.4-107.9,107.9
	C148.1,314.8,196.5,363.2,256,363.2z M256,161.1c51.9,0,94.2,42.2,94.2,94.2s-42.2,94.2-94.2,94.2c-51.9,0-94.2-42.2-94.2-94.2
	S204.1,161.1,256,161.1z"/>
<path class="st0" d="M256,301c25.2,0,45.7-20.5,45.7-45.7s-20.5-45.7-45.7-45.7c-25.2,0-45.7,20.5-45.7,45.7S230.8,301,256,301z
	 M256,223.3c17.6,0,32,14.4,32,32s-14.4,32-32,32c-17.6,0-32-14.4-32-32C224,237.6,238.4,223.3,256,223.3z"/>
</svg>
