<?xml version="1.0" encoding="utf-8"?>
<!-- Generator: Adobe Illustrator 22.0.0, SVG Export Plug-In . SVG Version: 6.00 Build 0)  -->
<svg version="1.1" id="Layer_1" xmlns="http://www.w3.org/2000/svg" xmlns:xlink="http://www.w3.org/1999/xlink" x="0px" y="0px"
	 viewBox="0 0 512 512" style="enable-background:new 0 0 512 512;" xml:space="preserve">
<style type="text/css">
	.st0{fill:#5E686C;}
	.st1{fill:#3FC6F1;}
</style>
<path class="st0" d="M328.4,192c-1.7,0-3.4-0.7-4.7-2c-2.6-2.6-2.6-6.9,0-9.5l64.6-64.6c2.6-2.6,6.9-2.6,9.5,0
	c2.6,2.6,2.6,6.9,0,9.5l-64.6,64.6C331.9,191.4,330.2,192,328.4,192z"/>
<path class="st0" d="M121,399.5c-1.7,0-3.4-0.7-4.7-2c-2.6-2.6-2.6-6.9,0-9.5l65.1-65.1c2.6-2.6,6.9-2.6,9.5,0
	c2.6,2.6,2.6,6.9,0,9.5l-65.1,65.1C124.4,398.8,122.7,399.5,121,399.5z"/>
<path class="st0" d="M392.4,398.4c-1.7,0-3.4-0.7-4.7-2l-64-64c-2.6-2.6-2.6-6.9,0-9.5c2.6-2.6,6.9-2.6,9.5,0l64,64
	c2.6,2.6,2.6,6.9,0,9.5C395.9,397.7,394.1,398.4,392.4,398.4z"/>
<path class="st0" d="M186.1,192c-1.7,0-3.4-0.7-4.7-2L116.2,125c-2.6-2.6-2.6-6.9,0-9.5s6.9-2.6,9.5,0l65.1,65.1
	c2.6,2.6,2.6,6.9,0,9.5C189.5,191.4,187.8,192,186.1,192z"/>
<path class="st0" d="M73.5,79.5c-1.7,0-3.4-0.7-4.7-2L51.1,59.8c-2.6-2.6-2.6-6.9,0-9.5c2.6-2.6,6.9-2.6,9.5,0L78.3,68
	c2.6,2.6,2.6,6.9,0,9.5C77,78.8,75.2,79.5,73.5,79.5z"/>
<path class="st0" d="M97.3,136.8c-22.2,0-40.3-18.1-40.3-40.3c0-22.2,18.1-40.3,40.3-40.3s40.3,18.1,40.3,40.3
	C137.5,118.7,119.5,136.8,97.3,136.8z M97.3,69.6c-14.8,0-26.8,12-26.8,26.8s12,26.8,26.8,26.8s26.8-12,26.8-26.8
	C124.1,81.7,112.1,69.6,97.3,69.6z"/>
<path class="st0" d="M121,79.5c-1.7,0-3.4-0.7-4.7-2c-2.6-2.6-2.6-6.9,0-9.5l56.3-56.3c2.6-2.6,6.9-2.6,9.5,0c2.6,2.6,2.6,6.9,0,9.5
	l-56.3,56.3C124.4,78.8,122.7,79.5,121,79.5z"/>
<path class="st0" d="M17.2,183.2c-1.7,0-3.4-0.7-4.7-2c-2.6-2.6-2.6-6.9,0-9.5l56.3-56.3c2.6-2.6,6.9-2.6,9.5,0
	c2.6,2.6,2.6,6.9,0,9.5L22,181.3C20.7,182.6,18.9,183.2,17.2,183.2z"/>
<path class="st0" d="M55.8,463.6c-1.7,0-3.4-0.7-4.7-2c-2.6-2.6-2.6-6.9,0-9.5l17.7-17.7c2.6-2.6,6.9-2.6,9.5,0
	c2.6,2.6,2.6,6.9,0,9.5l-17.7,17.7C59.2,462.9,57.5,463.6,55.8,463.6z"/>
<path class="st0" d="M97.3,455.6c-22.2,0-40.3-18.1-40.3-40.3c0-22.2,18.1-40.3,40.3-40.3s40.3,18.1,40.3,40.3
	C137.5,437.6,119.5,455.6,97.3,455.6z M97.3,388.5c-14.8,0-26.8,12-26.8,26.8c0,14.8,12,26.8,26.8,26.8s26.8-12,26.8-26.8
	C124.1,400.6,112.1,388.5,97.3,388.5z"/>
<path class="st0" d="M73.5,398.4c-1.7,0-3.4-0.7-4.7-2l-56.3-56.3c-2.6-2.6-2.6-6.9,0-9.5c2.6-2.6,6.9-2.6,9.5,0l56.3,56.3
	c2.6,2.6,2.6,6.9,0,9.5C77,397.7,75.2,398.4,73.5,398.4z"/>
<path class="st0" d="M177.3,502.1c-1.7,0-3.4-0.7-4.7-2l-56.3-56.3c-2.6-2.6-2.6-6.9,0-9.5c2.6-2.6,6.9-2.6,9.5,0l56.3,56.3
	c2.6,2.6,2.6,6.9,0,9.5C180.7,501.5,179,502.1,177.3,502.1z"/>
<path class="st0" d="M439.9,79.4c-1.7,0-3.4-0.7-4.7-2c-2.6-2.6-2.6-6.9,0-9.5l17.7-17.7c2.6-2.6,6.9-2.6,9.5,0
	c2.6,2.6,2.6,6.9,0,9.5l-17.7,17.7C443.3,78.8,441.6,79.4,439.9,79.4z"/>
<path class="st0" d="M416.2,136.8c-22.2,0-40.3-18.1-40.3-40.3c0-22.2,18.1-40.3,40.3-40.3c22.2,0,40.3,18.1,40.3,40.3
	C456.4,118.7,438.4,136.8,416.2,136.8z M416.2,69.6c-14.8,0-26.8,12-26.8,26.8s12,26.8,26.8,26.8c14.8,0,26.8-12,26.8-26.8
	C443,81.7,430.9,69.6,416.2,69.6z"/>
<path class="st0" d="M496.2,183.2c-1.7,0-3.4-0.7-4.7-2l-56.3-56.4c-2.6-2.6-2.6-6.9,0-9.5c2.6-2.6,6.9-2.6,9.5,0l56.3,56.4
	c2.6,2.6,2.6,6.9,0,9.5C499.6,182.6,497.9,183.2,496.2,183.2z"/>
<path class="st0" d="M392.4,79.5c-1.7,0-3.4-0.7-4.7-2l-56.3-56.3c-2.6-2.6-2.6-6.9,0-9.5c2.6-2.6,6.9-2.6,9.5,0L397.2,68
	c2.6,2.6,2.6,6.9,0,9.5C395.9,78.8,394.2,79.5,392.4,79.5z"/>
<path class="st0" d="M457.6,463.6c-1.7,0-3.4-0.7-4.7-2l-17.7-17.7c-2.6-2.6-2.6-6.9,0-9.5c2.6-2.6,6.9-2.6,9.5,0l17.7,17.7
	c2.6,2.6,2.6,6.9,0,9.5C461,462.9,459.3,463.6,457.6,463.6z"/>
<path class="st0" d="M416.1,455.6c-22.2,0-40.3-18.1-40.3-40.3c0-22.2,18.1-40.3,40.3-40.3c22.2,0,40.3,18.1,40.3,40.3
	C456.4,437.6,438.3,455.6,416.1,455.6z M416.1,388.5c-14.8,0-26.8,12-26.8,26.8c0,14.8,12,26.8,26.8,26.8c14.8,0,26.8-12,26.8-26.8
	C443,400.6,430.9,388.5,416.1,388.5z"/>
<path class="st0" d="M336.1,502.1c-1.7,0-3.4-0.7-4.7-2c-2.6-2.6-2.6-6.9,0-9.5l56.3-56.3c2.6-2.6,6.9-2.6,9.5,0
	c2.6,2.6,2.6,6.9,0,9.5l-56.3,56.3C339.5,501.5,337.8,502.1,336.1,502.1z"/>
<path class="st0" d="M439.9,398.4c-1.7,0-3.4-0.7-4.7-2c-2.6-2.6-2.6-6.9,0-9.5l56.3-56.3c2.6-2.6,6.9-2.6,9.5,0
	c2.6,2.6,2.6,6.9,0,9.5l-56.3,56.3C443.3,397.7,441.6,398.4,439.9,398.4z"/>
<path class="st1" d="M257.3,363.9c-59.2,0-107.4-48.2-107.4-107.4s48.2-107.4,107.4-107.4s107.4,48.2,107.4,107.4
	S316.5,363.9,257.3,363.9z M257.3,162.5c-51.8,0-94,42.2-94,94c0,51.8,42.1,94,94,94s94-42.2,94-94
	C351.2,204.7,309.1,162.5,257.3,162.5z"/>
</svg>
