<?xml version="1.0" encoding="utf-8"?>
<!-- Generator: Adobe Illustrator 22.0.0, SVG Export Plug-In . SVG Version: 6.00 Build 0)  -->
<svg version="1.1" id="Layer_1" xmlns="http://www.w3.org/2000/svg" xmlns:xlink="http://www.w3.org/1999/xlink" x="0px" y="0px"
	 viewBox="0 0 512 512" style="enable-background:new 0 0 512 512;" xml:space="preserve">
<style type="text/css">
	.st0{fill:#5E686C;}
	.st1{fill:#3FC6F1;}
</style>
<path class="st0" d="M339.5,346c-1.2,0-2.3-0.3-3.4-0.9l-85.5-48.9c-3.3-1.9-4.4-6-2.5-9.3c1.9-3.3,6-4.4,9.3-2.5l85.5,48.9
	c3.3,1.9,4.4,6,2.5,9.3C344.1,344.7,341.8,346,339.5,346z"/>
<path class="st0" d="M99.4,208.5c-1.2,0-2.3-0.3-3.4-0.9L5.8,155.9c-3.3-1.9-4.4-6-2.5-9.3c1.9-3.3,6-4.4,9.3-2.5l90.2,51.7
	c3.3,1.9,4.4,6,2.5,9.3C104,207.2,101.7,208.5,99.4,208.5z"/>
<path class="st0" d="M339.5,346c-2.4,0-4.7-1.2-5.9-3.5c-1.9-3.3-0.7-7.4,2.6-9.3l153.3-87.3c3.3-1.8,7.4-0.7,9.3,2.6
	c1.9,3.3,0.7,7.4-2.6,9.3l-153.3,87.3C341.8,345.7,340.6,346,339.5,346z"/>
<path class="st0" d="M492.8,258.6c-1.3,0-2.5-0.3-3.6-1.1l-85.3-53.9c-3.2-2-4.1-6.2-2.1-9.4c2-3.2,6.3-4.1,9.4-2.1l85.3,53.9
	c3.2,2,4.1,6.2,2.1,9.4C497.3,257.5,495,258.6,492.8,258.6z"/>
<path class="st0" d="M9.2,156.8c-2.4,0-4.6-1.2-5.9-3.4c-1.9-3.3-0.8-7.4,2.5-9.3l168-97.6c3.2-1.9,7.4-0.8,9.3,2.5
	c1.9,3.3,0.8,7.4-2.5,9.3l-168,97.7C11.5,156.5,10.3,156.8,9.2,156.8z"/>
<path class="st0" d="M256.2,109.1c-2.3,0-4.5-1.1-5.8-3.2c-2-3.2-1.1-7.4,2.1-9.4l78.8-49.9c3.2-2,7.4-1.1,9.4,2.1
	c2,3.2,1.1,7.4-2.1,9.4L259.8,108C258.7,108.7,257.4,109.1,256.2,109.1z"/>
<path class="st0" d="M9.2,265.5c-2.3,0-4.5-1.1-5.8-3.2c-2-3.2-1.1-7.4,2.1-9.4l90.1-57.1c3.2-2,7.4-1.1,9.4,2.1
	c2,3.2,1.1,7.4-2.1,9.4l-90.1,57.1C11.7,265.2,10.4,265.5,9.2,265.5z"/>
<path class="st0" d="M503,147.2c-1.1,0-2.2-0.3-3.2-0.8l-168-88c-3.3-1.7-4.6-5.9-2.9-9.2c1.8-3.4,5.9-4.6,9.2-2.9l168,88
	c3.3,1.8,4.6,5.9,2.9,9.2C507.9,145.8,505.5,147.2,503,147.2z"/>
<path class="st0" d="M172.7,346c-2.3,0-4.6-1.2-5.8-3.3c-1.9-3.2-0.9-7.4,2.3-9.4l81.3-48.9c3.2-1.9,7.4-0.9,9.4,2.3
	c1.9,3.2,0.9,7.4-2.3,9.4L176.2,345C175.1,345.6,173.9,346,172.7,346z"/>
<path class="st0" d="M405.3,206c-2.3,0-4.6-1.2-5.8-3.3c-1.9-3.2-0.9-7.4,2.3-9.4l97.8-58.8c3.3-1.9,7.4-0.9,9.4,2.3
	c1.9,3.2,0.9,7.4-2.3,9.4L408.8,205C407.7,205.7,406.5,206,405.3,206z"/>
<path class="st0" d="M172.7,346c-1,0-2-0.2-3-0.7L6.2,264.8c-3.4-1.7-4.8-5.7-3.1-9.1c1.7-3.4,5.8-4.8,9.1-3.1L175.7,333
	c3.4,1.7,4.8,5.7,3.1,9.1C177.6,344.6,175.2,346,172.7,346z"/>
<path class="st0" d="M113.6,382.7c-3.8,0-6.8-3.1-6.8-6.8v-65.8c0-3.8,3.1-6.8,6.8-6.8s6.8,3.1,6.8,6.8v65.8
	C120.4,379.7,117.3,382.7,113.6,382.7z"/>
<path class="st0" d="M255.9,466.5c-1.2,0-2.4-0.3-3.5-0.9l-142.3-83.8c-3.3-1.9-4.3-6.1-2.4-9.3c1.9-3.2,6.1-4.3,9.3-2.4l142.3,83.8
	c3.3,1.9,4.3,6.1,2.4,9.3C260.5,465.3,258.2,466.5,255.9,466.5z"/>
<path class="st0" d="M255.9,466.5c-2.4,0-4.6-1.2-5.9-3.4c-1.9-3.3-0.8-7.4,2.5-9.3l152.5-88.6c3.2-1.9,7.4-0.8,9.3,2.5
	c1.9,3.3,0.8,7.4-2.5,9.3l-152.5,88.6C258.2,466.2,257.1,466.5,255.9,466.5z"/>
<path class="st0" d="M408.4,377.9c-3.8,0-6.8-3.1-6.8-6.8v-71.1c0-3.8,3.1-6.8,6.8-6.8c3.8,0,6.8,3.1,6.8,6.8V371
	C415.2,374.8,412.1,377.9,408.4,377.9z"/>
<path class="st0" d="M256.1,109c-1.2,0-2.5-0.3-3.6-1.1l-78.9-49.9c-3.2-2-4.1-6.2-2.1-9.4c2-3.2,6.2-4.1,9.4-2.1l78.9,49.9
	c3.2,2,4.1,6.2,2.1,9.4C260.6,107.9,258.4,109,256.1,109z"/>
<path class="st1" d="M254,297c-1.2,0-2.3-0.3-3.4-0.9L96,207.6c-3.3-1.9-4.4-6-2.5-9.3c1.9-3.3,6-4.4,9.3-2.5l154.7,88.6
	c3.3,1.9,4.4,6,2.5,9.3C258.7,295.8,256.4,297,254,297z"/>
<path class="st1" d="M99.3,208.4c-2.3,0-4.5-1.1-5.8-3.2c-2-3.2-1.1-7.4,2.1-9.4l156.9-99.4c3.2-2,7.4-1.1,9.4,2.1
	c2,3.2,1.1,7.4-2.1,9.4L103,207.4C101.8,208.1,100.6,208.4,99.3,208.4z"/>
<path class="st1" d="M254,297c-2.3,0-4.6-1.2-5.8-3.3c-1.9-3.2-0.9-7.4,2.3-9.4l151.2-91c3.3-1.9,7.4-0.9,9.4,2.3
	c1.9,3.2,0.9,7.4-2.3,9.4l-151.2,91C256.4,296.7,255.2,297,254,297z"/>
<path class="st1" d="M407.5,204.7c-1.3,0-2.5-0.3-3.6-1.1L252.5,108c-3.2-2-4.1-6.2-2.1-9.4c2-3.2,6.2-4.1,9.4-2.1l151.4,95.7
	c3.2,2,4.1,6.2,2.1,9.4C412,203.6,409.7,204.7,407.5,204.7z"/>
</svg>
