<?xml version="1.0" encoding="utf-8"?>
<!-- Generator: Adobe Illustrator 22.0.0, SVG Export Plug-In . SVG Version: 6.00 Build 0)  -->
<svg version="1.1" id="Layer_1" xmlns="http://www.w3.org/2000/svg" xmlns:xlink="http://www.w3.org/1999/xlink" x="0px" y="0px"
	 viewBox="0 0 512 512" style="enable-background:new 0 0 512 512;" xml:space="preserve">
<style type="text/css">
	.st0{fill:#5E686C;}
	.st1{fill:#3FC6F1;}
</style>
<path class="st0" d="M260,503.2c-54.6,0-115.5-32.6-148-79.2c-25.1-36-31.2-76.9-17-115.3c35.7-97.4,154.4-288.8,159.4-296.9
	c1.2-1.9,3.3-3.1,5.6-3.2c2,0.1,4.4,1.1,5.7,3c5,7.6,123.9,187.1,159.6,297.3c14.2,43.9,8,85.9-17.9,121.7
	C375.6,474,316.5,503.2,260,503.2z M260.1,27.8C235.8,67.5,138.4,229,107.4,313.2c-16.1,43.8-0.5,80.3,15.5,103.1
	c30.2,43.3,86.6,73.5,137.1,73.5c52.4,0,107.2-27,136.4-67.1c23.3-32.1,28.9-70,16-109.7C381.6,218.2,284.8,65.8,260.1,27.8z"/>
<path class="st1" d="M260,441.7c-59.9,0-108.7-48.7-108.7-108.7c0-3.7,3-6.7,6.7-6.7s6.7,3,6.7,6.7c0,52.5,42.7,95.3,95.3,95.3
	c3.7,0,6.7,3,6.7,6.7C266.6,438.8,263.7,441.7,260,441.7z"/>
</svg>
