<?xml version="1.0" encoding="utf-8"?>
<!-- Generator: Adobe Illustrator 22.0.0, SVG Export Plug-In . SVG Version: 6.00 Build 0)  -->
<svg version="1.1" id="Layer_1" xmlns="http://www.w3.org/2000/svg" xmlns:xlink="http://www.w3.org/1999/xlink" x="0px" y="0px"
	 viewBox="0 0 512 512" style="enable-background:new 0 0 512 512;" xml:space="preserve">
<style type="text/css">
	.st0{fill:#5E686C;}
	.st1{fill:#3FC6F1;}
</style>
<path class="st0" d="M449.1,91.6c-2.5-3-6.9-3.3-9.9-0.8c-3,2.5-3.3,6.9-0.8,9.9c36.4,43,56.5,97.8,56.5,154.3
	c0,131.8-107.2,238.9-238.9,238.9c-18.3,0-36-2.1-53.1-6c49.7-1.8,75.3-22.7,88.5-42.6c34.3-51.8,13.7-138.9-23.1-194.6
	c-35.8-54.2-57.9-136-28.2-180.7c20.3-30.6,61.5-40.3,122.5-28.8c0.1,0,0.2,0,0.3,0c17,8.5,33.1,19.1,47.7,31.6
	c2.9,2.5,7.4,2.2,9.9-0.8c2.5-3,2.2-7.4-0.8-9.9C374.2,23.4,316.1,2,256,2C116.5,2,3,115.5,3,255c0,139.5,113.5,253,253,253
	c139.5,0,253-113.5,253-253C509,195.2,487.7,137.1,449.1,91.6z M17.1,255C17.1,123.2,124.2,16.1,256,16.1c19.1,0,37.9,2.3,56.2,6.7
	c-47.3,1.5-71.5,20.9-83.9,39.5c-33.4,50.3-11.1,136.8,28.2,196.2c34.8,52.7,53,134.1,23.1,179.1c-21.5,32.4-65.9,43.5-128.6,32
	C71.8,430.7,17.1,349.1,17.1,255z"/>
<path class="st1" d="M173.9,399.9c19.4,0,35.2-15.8,35.2-35.1c0-19.4-15.8-35.1-35.2-35.1c-19.4,0-35.1,15.8-35.1,35.1
	C138.8,384.1,154.6,399.9,173.9,399.9z M173.9,343.6c11.6,0,21.1,9.5,21.1,21.1c0,11.6-9.5,21.1-21.1,21.1
	c-11.6,0-21.1-9.5-21.1-21.1C152.9,353.1,162.3,343.6,173.9,343.6z"/>
<path class="st1" d="M310.1,146.4c0,19.4,15.7,35.2,35.1,35.2c19.4,0,35.2-15.8,35.2-35.2c0-19.4-15.8-35.1-35.2-35.1
	C325.9,111.3,310.1,127,310.1,146.4z M366.3,146.4c0,11.6-9.5,21.1-21.1,21.1c-11.6,0-21-9.5-21-21.1c0-11.6,9.4-21.1,21-21.1
	C356.8,125.3,366.3,134.8,366.3,146.4z"/>
</svg>
