<?xml version="1.0" encoding="utf-8"?>
<!-- Generator: Adobe Illustrator 22.0.0, SVG Export Plug-In . SVG Version: 6.00 Build 0)  -->
<svg version="1.1" id="Layer_1" xmlns="http://www.w3.org/2000/svg" xmlns:xlink="http://www.w3.org/1999/xlink" x="0px" y="0px"
	 viewBox="0 0 512 512" style="enable-background:new 0 0 512 512;" xml:space="preserve">
<style type="text/css">
	.st0{fill:#3FC6F1;}
	.st1{fill:#5E686C;}
</style>
<path class="st0" d="M255.2,379.1c-3.8,0-6.8-3.1-6.8-6.8c0-3.8,3.1-6.8,6.8-6.8c61,0,110.7-49.7,110.7-110.7c0-3.8,3.1-6.8,6.8-6.8
	s6.8,3.1,6.8,6.8C379.6,323.3,323.8,379.1,255.2,379.1z"/>
<path class="st1" d="M255.2,509C115,509,1,395,1,254.8C1,124.9,98.2,16.3,227.1,2.1c3.6-0.4,7.1,2.3,7.5,6c0.4,3.8-2.3,7.1-6,7.5
	c-122,13.4-214,116.2-214,239.1c0,132.6,107.9,240.6,240.6,240.6c132.6,0,240.6-107.9,240.6-240.6c0-122.9-92-225.7-214-239.1
	c-3.8-0.4-6.5-3.8-6-7.5c0.4-3.8,3.8-6.4,7.5-6c128.9,14.2,226.1,122.8,226.1,252.7C509.4,395,395.4,509,255.2,509z"/>
<path class="st0" d="M255.2,329.6c-41.3,0-74.9-33.6-74.9-74.9c0-41.3,33.6-74.9,74.9-74.9s74.9,33.6,74.9,74.9
	C330.1,296.1,296.5,329.6,255.2,329.6z M255.2,193.6c-33.7,0-61.2,27.5-61.2,61.2c0,33.7,27.5,61.2,61.2,61.2
	c33.7,0,61.2-27.5,61.2-61.2C316.4,221,289,193.6,255.2,193.6z"/>
</svg>
