<?xml version="1.0" encoding="utf-8"?>
<!-- Generator: Adobe Illustrator 22.0.0, SVG Export Plug-In . SVG Version: 6.00 Build 0)  -->
<svg version="1.1" id="Layer_1" xmlns="http://www.w3.org/2000/svg" xmlns:xlink="http://www.w3.org/1999/xlink" x="0px" y="0px"
	 viewBox="0 0 512 512" style="enable-background:new 0 0 512 512;" xml:space="preserve">
<style type="text/css">
	.st0{fill:#5E686C;}
	.st1{fill:#3FC6F1;}
</style>
<path class="st0" d="M268.3,400.8h-15.7c-0.7,0-1.3-0.1-2-0.3C208.2,387.8,120,361.2,120,254.6c0-103,70.7-179.9,127.5-241.7
	l7.9-8.6c2.6-2.8,7.5-2.8,10.1,0l7.9,8.6C330.2,74.7,401,151.6,401,254.6c0,106.6-88.3,133.2-130.7,145.9
	C269.7,400.7,269,400.8,268.3,400.8z M253.6,387.1h13.7c42.5-12.8,120-36.8,120-132.5c0-97.7-68.7-172.4-123.9-232.5l-2.9-3.1
	l-2.9,3.2C202.4,82.2,133.7,157,133.7,254.6C133.7,350.3,211.1,374.3,253.6,387.1z"/>
<path class="st1" d="M260.5,507.5c-3.8,0-6.9-3.1-6.9-6.8V128.2c0-3.8,3.1-6.8,6.9-6.8c3.8,0,6.8,3.1,6.8,6.8v372.5
	C267.3,504.4,264.2,507.5,260.5,507.5z"/>
<path class="st1" d="M260.5,218.6c-1.8,0-3.5-0.7-4.8-2l-47.2-47.1c-2.7-2.7-2.7-7,0-9.7c2.7-2.7,7-2.7,9.7,0l47.2,47.1
	c2.7,2.7,2.7,7,0,9.7C264,217.9,262.2,218.6,260.5,218.6z"/>
<path class="st1" d="M260.5,333.5c-1.8,0-3.5-0.7-4.8-2c-2.7-2.7-2.7-7,0-9.7l55.1-55.1c2.7-2.7,7-2.7,9.7,0c2.7,2.7,2.7,7,0,9.7
	l-55.1,55.1C264,332.9,262.2,333.5,260.5,333.5z"/>
</svg>
