<?xml version="1.0" encoding="utf-8"?>
<!-- Generator: Adobe Illustrator 22.0.0, SVG Export Plug-In . SVG Version: 6.00 Build 0)  -->
<svg version="1.1" id="Layer_1" xmlns="http://www.w3.org/2000/svg" xmlns:xlink="http://www.w3.org/1999/xlink" x="0px" y="0px"
	 viewBox="0 0 512 512" style="enable-background:new 0 0 512 512;" xml:space="preserve">
<style type="text/css">
	.st0{fill:#5E686B;}
	.st1{fill:#3FC6F1;}
</style>
<path class="st0" d="M507.3,196.9c0-0.5,0-0.9-0.1-1.2L477.6,18.6c-1.2-7.5-7.8-13.1-15.4-13.1H48.9c-7.7,0-14.2,5.5-15.4,13.1
	L3.7,198.2c0,23.3,11,45.3,29.5,59.4v235.8c0,8.6,7,15.6,15.6,15.6h413.3c8.6,0,15.6-7,15.6-15.6v-236
	c17.6-13.6,28.1-34.1,29.1-57.1c0.2-0.7,0.4-1.5,0.4-2.1C507.4,197.8,507.3,197.3,507.3,196.9z M387.5,495.4h-86.8V349.5h86.8V495.4
	z M462.2,495.4h-61V342.7c0-3.8-3.1-6.9-6.9-6.9H293.8c-3.8,0-6.9,3.1-6.9,6.9v152.7h-238c-1.1,0-1.9-0.8-1.9-1.9V264.9
	c0.5,0.2,0.9,0.4,1.4,0.6c4.2,2,8,3.7,8.8,4c7.9,2.3,14.6,3.4,21.2,3.4c23.2,0,45-10.9,59-29c14.1,18.1,35.8,29,59.1,29
	s45-10.9,59-29c14,18.1,35.8,29,59.1,29c23.2,0,45-10.9,59-29c14.1,18.1,35.8,29,59.1,29c6.6,0,13.4-1.1,21.8-3.6
	c0.2-0.1,3.3-1.5,7.1-3.3c0.9-0.4,1.8-0.8,2.7-1.3v228.7C464.2,494.5,463.3,495.4,462.2,495.4z M493.4,197.9c0,0.3-0.1,0.6-0.1,0.8
	c-0.5,20.1-9.9,38-25.8,49.3c-1.4,0.7-4.5,2.1-12,5.6c-3.1,1.5-5.8,2.7-5.7,2.7c0,0,0,0,0,0c-6.5,1.9-12,2.9-17.3,2.9
	c-21.9,0-42.2-11.9-53.1-31c-1.2-2.1-3.5-3.5-6-3.5c-2.5,0-4.7,1.3-6,3.5c-10.9,19.1-31.2,31-53.1,31c-21.9,0-42.2-11.9-53.1-31
	c-2.4-4.3-9.5-4.3-11.9,0c-10.8,19.1-31.2,31-53.1,31c-21.9,0-42.2-11.9-53.1-31c-2.4-4.3-9.5-4.3-11.9,0c-10.8,19.1-31.2,31-53,31
	c-5.2,0-10.7-0.9-16.6-2.5c-0.5-0.2-3.9-1.8-7.6-3.6c-4-1.9-8.4-3.9-10.5-4.9c-16.4-11.5-26.2-30.1-26.3-48.9L47,20.8
	c0.2-1,0.9-1.6,1.9-1.6h413.3c0.9,0,1.7,0.7,1.9,1.6L493.5,197C493.4,197.3,493.4,197.6,493.4,197.9z"/>
<path class="st1" d="M217.3,335.8H116.7c-3.8,0-6.9,3.1-6.9,6.9v100.5c0,3.8,3.1,6.9,6.9,6.9h100.5c3.8,0,6.9-3.1,6.9-6.9V342.7
	C224.1,338.9,221.1,335.8,217.3,335.8z M210.4,436.3h-86.8v-86.7h86.8V436.3z"/>
</svg>
