<?xml version="1.0" encoding="utf-8"?>
<!-- Generator: Adobe Illustrator 22.0.0, SVG Export Plug-In . SVG Version: 6.00 Build 0)  -->
<svg version="1.1" id="Layer_1" xmlns="http://www.w3.org/2000/svg" xmlns:xlink="http://www.w3.org/1999/xlink" x="0px" y="0px"
	 viewBox="0 0 512 512" style="enable-background:new 0 0 512 512;" xml:space="preserve">
<style type="text/css">
	.st0{fill:#5E686C;}
	.st1{fill:#3FC6F1;}
</style>
<path class="st0" d="M436.9,348.9c-3.8,0-6.8-3-6.8-6.8v-16.4c0-79.3-50.8-146.6-126.3-167.5c-3.6-1-5.7-4.7-4.7-8.4
	c1-3.6,4.8-5.7,8.4-4.7c81.5,22.5,136.3,95.1,136.3,180.6v16.4C443.7,345.8,440.7,348.9,436.9,348.9z"/>
<path class="st0" d="M75.8,348.9c-3.8,0-6.8-3-6.8-6.8v-16.4c0-83.6,56-157.9,136.3-180.6c3.6-1,7.4,1.1,8.4,4.7
	c1,3.6-1.1,7.4-4.7,8.4c-74.4,21-126.4,89.9-126.4,167.5v16.4C82.6,345.8,79.5,348.9,75.8,348.9z"/>
<path class="st1" d="M207.1,135.5h-98.5c-3.8,0-6.8-3-6.8-6.8s3-6.8,6.8-6.8h98.5c3.8,0,6.8,3,6.8,6.8S210.8,135.5,207.1,135.5z"/>
<path class="st1" d="M404.1,135.5h-98.5c-3.8,0-6.8-3-6.8-6.8s3-6.8,6.8-6.8h98.5c3.8,0,6.8,3,6.8,6.8S407.8,135.5,404.1,135.5z"/>
<path class="st1" d="M59.3,183C29.4,183,5,158.7,5,128.7c0-30,24.4-54.3,54.3-54.3s54.3,24.4,54.3,54.3
	C113.7,158.7,89.3,183,59.3,183z M59.3,87.9c-22.5,0-40.8,18.3-40.8,40.8s18.3,40.8,40.8,40.8c22.5,0,40.8-18.3,40.8-40.8
	S81.8,87.9,59.3,87.9z"/>
<path class="st1" d="M453.3,183c-30,0-54.3-24.4-54.3-54.3c0-30,24.4-54.3,54.3-54.3c30,0,54.3,24.4,54.3,54.3
	C507.7,158.7,483.3,183,453.3,183z M453.3,87.9c-22.5,0-40.8,18.3-40.8,40.8s18.3,40.8,40.8,40.8s40.8-18.3,40.8-40.8
	S475.8,87.9,453.3,87.9z"/>
<path class="st0" d="M123.3,445.7H28.2c-3.8,0-6.8-3-6.8-6.8v-95.1c0-3.8,3-6.8,6.8-6.8h95.1c3.8,0,6.8,3,6.8,6.8v95.1
	C130.1,442.7,127.1,445.7,123.3,445.7z M35,432.1h81.5v-81.5H35V432.1z"/>
<path class="st0" d="M484.5,445.7h-95.1c-3.8,0-6.8-3-6.8-6.8v-95.1c0-3.8,3-6.8,6.8-6.8h95.1c3.8,0,6.8,3,6.8,6.8v95.1
	C491.2,442.7,488.2,445.7,484.5,445.7z M396.1,432.1h81.5v-81.5h-81.5V432.1z"/>
<path class="st0" d="M303.9,183h-95.1c-3.8,0-6.8-3-6.8-6.8V81.1c0-3.8,3-6.8,6.8-6.8h95.1c3.8,0,6.8,3,6.8,6.8v95.1
	C310.7,180,307.6,183,303.9,183z M215.6,169.4h81.5V87.9h-81.5V169.4z"/>
</svg>
