<?xml version="1.0" encoding="utf-8"?>
<!-- Generator: Adobe Illustrator 22.0.0, SVG Export Plug-In . SVG Version: 6.00 Build 0)  -->
<svg version="1.1" id="Layer_1" xmlns="http://www.w3.org/2000/svg" xmlns:xlink="http://www.w3.org/1999/xlink" x="0px" y="0px"
	 viewBox="0 0 512 512" style="enable-background:new 0 0 512 512;" xml:space="preserve">
<style type="text/css">
	.st0{fill:#5E686C;}
	.st1{fill:#3FC6F1;}
</style>
<path class="st0" d="M22.5,425.3c-1.5,0-2.9-0.5-4.2-1.4c-3-2.3-3.5-6.6-1.2-9.5l164-210.9c2.3-3,6.6-3.5,9.5-1.2
	c3,2.3,3.5,6.6,1.2,9.5l-164,210.9C26.5,424.4,24.5,425.3,22.5,425.3z"/>
<path class="st0" d="M491.1,425.3c-2,0-4-0.9-5.4-2.6l-164-210.9c-2.3-3-1.8-7.2,1.2-9.5c2.9-2.3,7.2-1.8,9.5,1.2l164,210.9
	c2.3,3,1.8,7.2-1.2,9.5C494.1,424.9,492.6,425.3,491.1,425.3z"/>
<path class="st1" d="M256.8,261.3c-1.4,0-2.8-0.4-4-1.3L30.2,95.9c-3-2.2-3.7-6.5-1.4-9.5c2.2-3,6.5-3.7,9.5-1.4l218.6,161.1
	L475.4,85c3-2.2,7.3-1.6,9.5,1.4c2.2,3,1.6,7.3-1.4,9.5L260.8,260C259.6,260.9,258.2,261.3,256.8,261.3z"/>
<path class="st0" d="M479.5,437H34.2C17.5,437,4,423.5,4,406.9V113.8c0-16.6,13.5-30.1,30.2-30.1c3.7,0,6.8,3,6.8,6.8
	c0,3.7-3,6.8-6.8,6.8c-9.2,0-16.6,7.4-16.6,16.6v293.1c0,9.1,7.5,16.6,16.6,16.6h445.3c9.2,0,16.6-7.4,16.6-16.6V113.8
	c0-9.1-7.5-16.6-16.6-16.6c-3.7,0-6.8-3-6.8-6.8c0-3.7,3-6.8,6.8-6.8c16.6,0,30.2,13.5,30.2,30.1v293.1
	C509.7,423.5,496.1,437,479.5,437z"/>
<path class="st1" d="M479.5,97.3H34.2c-3.7,0-6.8-3-6.8-6.8c0-3.7,3-6.8,6.8-6.8h445.3c3.7,0,6.8,3,6.8,6.8
	C486.2,94.2,483.2,97.3,479.5,97.3z"/>
</svg>
