<?xml version="1.0" encoding="utf-8"?>
<!-- Generator: Adobe Illustrator 22.0.0, SVG Export Plug-In . SVG Version: 6.00 Build 0)  -->
<svg version="1.1" id="Layer_1" xmlns="http://www.w3.org/2000/svg" xmlns:xlink="http://www.w3.org/1999/xlink" x="0px" y="0px"
	 viewBox="0 0 512 512" style="enable-background:new 0 0 512 512;" xml:space="preserve">
<style type="text/css">
	.st0{fill:#3FC6F1;}
	.st1{fill:#5E686C;}
</style>
<path class="st0" d="M451.9,319.1c-3.8,0-6.8-3-6.8-6.8c0-3.8,3-6.8,6.8-6.8c23.2,0,42-18.8,42-42c0-23.2-18.8-42-42-42
	c-3.8,0-6.8-3-6.8-6.8c0-3.8,3-6.8,6.8-6.8c30.7,0,55.6,24.9,55.6,55.6C507.5,294.1,482.5,319.1,451.9,319.1z"/>
<path class="st1" d="M403.1,400.4H126.5c-3.8,0-6.8-3-6.8-6.8c0-3.8,3-6.8,6.8-6.8h269.8V140.1H126.5c-3.8,0-6.8-3-6.8-6.8
	c0-3.8,3-6.8,6.8-6.8h276.6c3.8,0,6.8,3,6.8,6.8v260.3C409.9,397.4,406.8,400.4,403.1,400.4z"/>
<path class="st1" d="M77.7,400.4H12.6c-3.8,0-6.8-3-6.8-6.8V133.3c0-3.8,3-6.8,6.8-6.8h65.1c3.8,0,6.8,3,6.8,6.8v260.3
	C84.5,397.4,81.5,400.4,77.7,400.4z M19.4,386.8h51.5V140.1H19.4C19.4,140.1,19.4,386.8,19.4,386.8z"/>
</svg>
