<?xml version="1.0" encoding="utf-8"?>
<!-- Generator: Adobe Illustrator 22.0.0, SVG Export Plug-In . SVG Version: 6.00 Build 0)  -->
<svg version="1.1" id="Layer_1" xmlns="http://www.w3.org/2000/svg" xmlns:xlink="http://www.w3.org/1999/xlink" x="0px" y="0px"
	 viewBox="0 0 512 512" style="enable-background:new 0 0 512 512;" xml:space="preserve">
<style type="text/css">
	.st0{fill:#5E686C;}
	.st1{fill:#3FC6F1;}
</style>
<path class="st0" d="M259.4,266.8c-18.6,0-33.8-15.2-33.8-33.8c0-18.7,15.2-33.8,33.8-33.8c18.6,0,33.8,15.2,33.8,33.8
	C293.2,251.6,278,266.8,259.4,266.8z M259.4,212.6c-11.2,0-20.3,9.1-20.3,20.3c0,11.2,9.1,20.3,20.3,20.3c11.2,0,20.3-9.1,20.3-20.3
	C279.7,221.8,270.6,212.6,259.4,212.6z"/>
<path class="st0" d="M309.8,506.5H209c-1.9,0-3.8-0.8-5.1-2.3c-1.3-1.5-1.9-3.4-1.7-5.3l25.2-210c0.4-3.7,3.9-6.3,7.5-5.9
	c3.7,0.4,6.4,3.8,5.9,7.5L216.6,493h85.5l-24.3-202.4c-0.4-3.7,2.2-7.1,5.9-7.5c3.6-0.5,7.1,2.2,7.5,5.9l25.2,210
	c0.2,1.9-0.4,3.8-1.6,5.3C313.6,505.7,311.7,506.5,309.8,506.5z"/>
<path class="st1" d="M432.7,355.4L432.7,355.4c-3.1,0-6.2-0.5-9.2-1.6l-123.6-57.2h-78.3c-31.7,14.6-125.8,57-125.8,57
	c-14.4,5.2-26.5-0.6-32.8-11.8c-6.4-11.4-3.9-25.5,6-34.4c1.4-1.1,81.5-57.1,108.8-77.4l44.6-62.2c0.8-10.7,4.4-57.2,10.8-138.5
	c2.5-13.8,13.6-23.4,26.3-23.4c12.9,0,23.7,9.3,26.2,22.6c6.5,81.9,10.1,128.4,10.9,139.2l44.6,62.2
	c27.3,20.3,107.3,76.3,108.1,76.9c10.5,9.3,13,23.5,6.6,34.9C451,350.3,442.4,355.4,432.7,355.4z M220.1,283h81.3c1,0,2,0.2,2.8,0.6
	l124.4,57.6c0.9,0.3,2.5,0.6,4.1,0.6c4.8,0,9-2.5,11.4-6.7c3.2-5.8,1.9-13.1-3.2-17.7c-0.2-0.1-82-57.4-108.7-77.2
	c-0.6-0.4-1-0.9-1.4-1.5l-46.4-64.6c-0.8-1.1-1.3-2.5-1.3-3.9c-0.2-2.8-7.2-92.7-10.9-139.8c-1.2-6.1-6.5-10.9-12.8-10.9
	c-6.3,0-11.7,4.8-12.9,11.6c-3.6,46.4-10.7,136.3-10.8,139.4c-0.1,1.3-0.5,2.6-1.3,3.7l-46.3,64.6c-0.4,0.6-0.9,1.1-1.4,1.5
	C160,260.1,78.1,317.3,77.3,317.9c-4.5,4.1-5.8,11.4-2.5,17.2c3.1,5.6,9.9,8,16,5.9c0,0,96.3-43.4,126.5-57.4
	C218.1,283.3,219.1,283,220.1,283z"/>
</svg>
