<?xml version="1.0" encoding="utf-8"?>
<!-- Generator: Adobe Illustrator 22.0.0, SVG Export Plug-In . SVG Version: 6.00 Build 0)  -->
<svg version="1.1" id="Layer_1" xmlns="http://www.w3.org/2000/svg" xmlns:xlink="http://www.w3.org/1999/xlink" x="0px" y="0px"
	 viewBox="0 0 512 512" style="enable-background:new 0 0 512 512;" xml:space="preserve">
<style type="text/css">
	.st0{fill:#5E686C;}
	.st1{fill:#3FC6F1;}
</style>
<path class="st0" d="M290.1,508c-90.4,0-163.9-73.5-163.9-163.8V166.8c0-90.4,73.5-163.9,163.9-163.9c68.4,0,130.2,43.5,153.7,108.4
	c1.3,3.6-0.6,7.7-4.2,9c-3.6,1.3-7.6-0.6-9-4.2c-21.5-59.3-77.9-99.1-140.5-99.1c-82.7,0-149.9,67.2-149.9,149.9v177.3
	c0,82.6,67.2,149.8,149.9,149.8c62.6,0,119-39.8,140.5-99.1c1.3-3.6,5.4-5.5,9-4.2c3.6,1.3,5.5,5.3,4.2,9
	C420.3,464.5,358.6,508,290.1,508z"/>
<path class="st1" d="M378.5,233.2H74c-3.9,0-7-3.1-7-7s3.1-7,7-7h304.5c3.9,0,7,3.1,7,7S382.4,233.2,378.5,233.2z"/>
<path class="st1" d="M378.5,291.7H74c-3.9,0-7-3.1-7-7c0-3.9,3.1-7,7-7h304.5c3.9,0,7,3.1,7,7C385.5,288.6,382.4,291.7,378.5,291.7z
	"/>
</svg>
