<?xml version="1.0" encoding="utf-8"?>
<!-- Generator: Adobe Illustrator 22.0.0, SVG Export Plug-In . SVG Version: 6.00 Build 0)  -->
<svg version="1.1" id="Layer_1" xmlns="http://www.w3.org/2000/svg" xmlns:xlink="http://www.w3.org/1999/xlink" x="0px" y="0px"
	 viewBox="0 0 512 512" style="enable-background:new 0 0 512 512;" xml:space="preserve">
<style type="text/css">
	.st0{fill:#5E686C;}
	.st1{fill:#3FC6F1;}
</style>
<path class="st0" d="M257.8,405.5C124.7,405.5,15,270.4,10.4,264.6c-1.9-2.4-1.9-5.9,0-8.3c4.5-5.8,112.5-140.9,247.4-140.9
	c133.1,0,242.8,135.1,247.4,140.9c1.9,2.4,1.9,5.9,0,8.3C500.6,270.4,390.9,405.5,257.8,405.5z M24.3,260.5
	C44,283.2,143.8,392.2,257.8,392.2c114,0,213.8-108.9,233.5-131.7c-19.7-22.8-119.5-131.7-233.5-131.7
	C142.2,128.8,43.7,237.6,24.3,260.5z"/>
<path class="st1" d="M257.8,336.4c-60.9,0-110.5-49.6-110.5-110.5c0-60.9,49.5-110.5,110.5-110.5c60.9,0,110.4,49.6,110.4,110.5
	C368.3,286.8,318.7,336.4,257.8,336.4z M257.8,128.8c-53.6,0-97.1,43.6-97.1,97.1c0,53.6,43.6,97.1,97.1,97.1
	c53.5,0,97.1-43.6,97.1-97.1C354.9,172.3,311.4,128.8,257.8,128.8z"/>
<path class="st0" d="M257.8,267.1c-22.7,0-41.3-18.5-41.3-41.2c0-3.7,3-6.7,6.7-6.7c3.7,0,6.7,3,6.7,6.7c0,15.4,12.5,27.9,27.9,27.9
	c3.7,0,6.7,3,6.7,6.7C264.5,264.2,261.5,267.1,257.8,267.1z"/>
</svg>
