<?xml version="1.0" encoding="utf-8"?>
<!-- Generator: Adobe Illustrator 22.0.0, SVG Export Plug-In . SVG Version: 6.00 Build 0)  -->
<svg version="1.1" id="Layer_1" xmlns="http://www.w3.org/2000/svg" xmlns:xlink="http://www.w3.org/1999/xlink" x="0px" y="0px"
	 viewBox="0 0 512 512" style="enable-background:new 0 0 512 512;" xml:space="preserve">
<style type="text/css">
	.st0{fill:#5E686C;}
	.st1{fill:#3FC6F1;}
</style>
<path class="st0" d="M297.8,509.6h-99.3c-3.8,0-6.9-3.1-6.9-6.9V263h-42.7c-3.8,0-6.9-3.1-6.9-6.9v-74c0-3.8,3.1-6.9,6.9-6.9h42.7
	v-67.1c0-70,27.4-105.6,81.5-105.6h99.3c3.8,0,6.9,3.1,6.9,6.9s-3.1,6.9-6.9,6.9H273c-60.6,0-67.6,52.3-67.6,91.7v74
	c0,3.8-3.1,6.9-6.9,6.9h-42.7v60.1h42.7c3.8,0,6.9,3.1,6.9,6.9v239.6h92.4c3.8,0,6.9,3.1,6.9,6.9
	C304.8,506.5,301.7,509.6,297.8,509.6z"/>
<path class="st1" d="M297.8,509.6c-3.8,0-6.9-3.1-6.9-6.9V256.1c0-3.8,3.1-6.9,6.9-6.9h67.5v-60.1h-67.5c-1.8,0-3.6-0.7-4.9-2
	s-2-3.1-2-4.9l0.1-41.3c0-28.5,13.1-39.7,46.6-39.7h27.8V9.5c0-3.8,3.1-6.9,6.9-6.9c3.8,0,6.9,3.1,6.9,6.9v98.6
	c0,3.8-3.1,6.9-6.9,6.9h-34.7c-29.4,0-32.7,8.3-32.7,25.8l-0.1,34.3h67.5c3.8,0,6.9,3.1,6.9,6.9v74c0,3.8-3.1,6.9-6.9,6.9h-67.5
	v239.6C304.8,506.5,301.7,509.6,297.8,509.6z"/>
</svg>
