<?xml version="1.0" encoding="utf-8"?>
<!-- Generator: Adobe Illustrator 22.0.0, SVG Export Plug-In . SVG Version: 6.00 Build 0)  -->
<svg version="1.1" id="Layer_1" xmlns="http://www.w3.org/2000/svg" xmlns:xlink="http://www.w3.org/1999/xlink" x="0px" y="0px"
	 viewBox="0 0 512 512" style="enable-background:new 0 0 512 512;" xml:space="preserve">
<style type="text/css">
	.st0{fill:#5E686C;}
	.st1{fill:#3FC6F1;}
</style>
<path class="st0" d="M153.4,88.9h-142c-3.8,0-6.8-3.1-6.8-6.8v-70c0-3.8,3.1-6.8,6.8-6.8h142c3.8,0,6.8,3.1,6.8,6.8v70
	C160.2,85.8,157.2,88.9,153.4,88.9z M18.2,75.2h128.4V18.9H18.2V75.2z"/>
<path class="st0" d="M501.8,509.5H11.2c-3.8,0-6.8-3.1-6.8-6.8V117.8c0-3.8,3.1-6.8,6.8-6.8h142c3.8,0,6.8,3.1,6.8,6.8v96
	l339.8-102.5c2.1-0.6,4.3-0.2,6,1.1c1.7,1.3,2.8,3.3,2.8,5.5v384.8C508.6,506.4,505.5,509.5,501.8,509.5z M18,495.8h476.9V127
	L155.1,229.5c-2.1,0.6-4.3,0.2-6-1.1c-1.7-1.3-2.8-3.3-2.8-5.5v-98.3H18V495.8z"/>
<path class="st1" d="M256.7,402.1H153.4c-3.8,0-6.8-3.1-6.8-6.8V293.5c0-3.8,3.1-6.8,6.8-6.8h103.3c3.8,0,6.8,3.1,6.8,6.8v101.8
	C263.5,399.1,260.5,402.1,256.7,402.1z M160.2,388.5h89.6v-88.1h-89.6V388.5z"/>
<path class="st1" d="M431,402.1H327.7c-3.8,0-6.8-3.1-6.8-6.8V293.5c0-3.8,3.1-6.8,6.8-6.8H431c3.8,0,6.8,3.1,6.8,6.8v101.8
	C437.8,399.1,434.8,402.1,431,402.1z M334.5,388.5h89.6v-88.1h-89.6V388.5z"/>
</svg>
