<?xml version="1.0" encoding="utf-8"?>
<!-- Generator: Adobe Illustrator 22.0.0, SVG Export Plug-In . SVG Version: 6.00 Build 0)  -->
<svg version="1.1" id="Layer_1" xmlns="http://www.w3.org/2000/svg" xmlns:xlink="http://www.w3.org/1999/xlink" x="0px" y="0px"
	 viewBox="0 0 512 512" style="enable-background:new 0 0 512 512;" xml:space="preserve">
<style type="text/css">
	.st0{fill:#5E686C;}
	.st1{fill:#3FC6F1;}
</style>
<path class="st0" d="M256.1,479.7c-2.1,0-4.1-0.9-5.5-2.7c-2.3-3-1.7-7.3,1.3-9.6c2.4-1.9,243.5-188.1,243.5-291.1
	c0-88.1-39.3-127.4-127.4-127.4c-42.8,0-82.5,21.3-106.2,57c-2.1,3.2-6.4,4-9.5,1.9c-3.2-2.1-4-6.4-1.9-9.5
	c26.3-39.5,70.2-63.1,117.6-63.1c95,0,141.2,46.2,141.2,141.2c0,109.7-238.8,294.2-248.9,302C259,479.3,257.6,479.7,256.1,479.7z"/>
<path class="st1" d="M256.1,479.7c-1.4,0-2.9-0.4-4.1-1.4C241.8,470.8,3,291.9,3,176.3C3,51.9,74.4,35.1,144.2,35.1
	c47.4,0,91.4,23.6,117.6,63.1c2.1,3.2,1.2,7.4-1.9,9.5c-3.2,2.1-7.4,1.2-9.5-1.9c-23.7-35.7-63.4-57-106.2-57
	C78,48.9,16.7,64.3,16.7,176.3c0,108.8,241,289.3,243.5,291.1c3,2.3,3.7,6.6,1.4,9.6C260.3,478.8,258.2,479.7,256.1,479.7z"/>
</svg>
