<?xml version="1.0" encoding="utf-8"?>
<!-- Generator: Adobe Illustrator 22.0.0, SVG Export Plug-In . SVG Version: 6.00 Build 0)  -->
<svg version="1.1" id="Layer_1" xmlns="http://www.w3.org/2000/svg" xmlns:xlink="http://www.w3.org/1999/xlink" x="0px" y="0px"
	 viewBox="0 0 512 512" style="enable-background:new 0 0 512 512;" xml:space="preserve">
<style type="text/css">
	.st0{fill:#3FC6F1;}
	.st1{fill:#5E686B;}
</style>
<path class="st0" d="M294.5,502.4c-0.9,0-1.7-0.2-2.6-0.5l-32.3-13.5c-2.4-1-4-3.4-4.1-6l-1.1-45.3L243.4,426l-44.8-0.3
	c-2.7,0-5.1-1.6-6.1-4.1l-13.3-32.4c-1-2.4-0.5-5.2,1.3-7.1l31.2-32.9l0.1-15.7l-31.5-31.9c-1.9-1.9-2.4-4.8-1.4-7.2l13.5-32.3
	c1-2.4,3.3-4,6-4.1l45.3-1.2l11.1-11.1l0.3-44.8c0-2.7,1.6-5.1,4.1-6.1l32.4-13.3c2.4-1,5.2-0.5,7.1,1.3l32.9,31.2l15.7,0.1
	l31.9-31.5c1.9-1.9,4.8-2.4,7.2-1.4l32.3,13.5c2.4,1,4,3.3,4.1,6l1.2,45.3l11.1,11.1l44.8,0.3c2.7,0,5.1,1.6,6.1,4.1l13.3,32.4
	c1,2.4,0.5,5.2-1.3,7.1l-31.2,32.8l0,15.8l31.5,31.9c1.9,1.9,2.4,4.8,1.4,7.2L486.1,421c-1,2.4-3.3,4-6,4.1l-45.3,1.2l-11.2,11.1
	l-0.3,44.8c0,2.7-1.6,5.1-4.1,6.1l-32.5,13.3c-2.4,1-5.2,0.5-7.1-1.3L346.8,469l-15.7,0l-31.9,31.5
	C297.9,501.7,296.2,502.4,294.5,502.4z M268.8,477.8l24.3,10.1l30.7-30.3c1.2-1.2,2.9-1.9,4.7-1.9c0,0,0,0,0,0l21.1,0.1
	c1.7,0,3.3,0.7,4.6,1.8l31.6,30.1l24.4-10l0.3-43.1c0-1.8,0.7-3.4,2-4.7l15-14.9c1.2-1.2,2.8-1.9,4.5-1.9l43.6-1.1l10.1-24.2
	L455.3,357c-1.2-1.2-1.9-2.9-1.9-4.7l0.1-21.1c0-1.7,0.7-3.3,1.8-4.6l30.1-31.6l-10-24.3l-43.1-0.3c-1.7,0-3.4-0.7-4.7-1.9
	l-14.9-14.9c-1.2-1.2-1.9-2.8-1.9-4.5l-1.1-43.6l-24.2-10.1l-30.7,30.3c-1.3,1.2-3.4,2.1-4.7,1.9l-21.1-0.1c-1.7,0-3.3-0.7-4.6-1.8
	l-31.7-30.1l-24.3,10l-0.3,43.1c0,1.8-0.7,3.4-2,4.7L251.1,268c-1.2,1.2-2.8,1.9-4.5,1.9l-43.6,1.1l-10.1,24.2l30.3,30.7
	c1.2,1.2,1.9,2.9,1.9,4.7l-0.1,21.1c0,1.7-0.7,3.3-1.8,4.5l-30.1,31.7l10,24.3l43.1,0.3c1.8,0,3.4,0.7,4.7,2l14.9,15
	c1.2,1.2,1.9,2.8,1.9,4.5L268.8,477.8z"/>
<path class="st0" d="M339.1,401.4c-7.9,0-15.7-1.5-23-4.6c-14.7-6.2-26.2-17.7-32.2-32.5c-6.1-14.8-6-31.1,0.1-45.8
	c9.3-22.4,31.1-36.8,55.3-36.8c7.9,0,15.6,1.5,23,4.6c14.7,6.1,26.2,17.7,32.3,32.5c6.1,14.8,6,31.1-0.1,45.8
	C385.1,386.9,363.4,401.4,339.1,401.4z M339.3,294.9c-18.9,0-35.8,11.2-43.1,28.6c-4.8,11.5-4.8,24.1-0.1,35.6
	c4.7,11.5,13.6,20.5,25,25.3c5.7,2.4,11.7,3.6,17.9,3.6c18.9,0,35.8-11.2,43.1-28.6c4.8-11.5,4.8-24.1,0.1-35.6
	c-4.7-11.5-13.7-20.5-25.1-25.3C351.4,296.1,345.4,294.9,339.3,294.9z"/>
<path class="st1" d="M142.7,254.2h-25.4c-2.6,0-5-1.5-6.1-3.9L98.1,221l-9.2-3.8l-29.4,12c-2.4,1-5.3,0.5-7.2-1.5l-18-18
	c-1.9-1.9-2.4-4.6-1.5-7.1l11.5-30.1l-3.8-9.2l-29.3-12.3c-2.5-1-4.1-3.4-4.1-6.1v-25.4c0-2.6,1.5-5,3.9-6.1l29.4-13.1l3.8-9.2
	L32,61.8c-1-2.5-0.4-5.3,1.5-7.2l18-18c1.8-1.9,4.6-2.5,7.1-1.5l30.1,11.4l9.2-3.8l12.3-29.3c1-2.5,3.4-4.1,6.1-4.1h25.4
	c2.6,0,5,1.5,6.1,3.9l13.1,29.3l9.2,3.8l29.4-12c2.5-1,5.3-0.4,7.2,1.5l18,18c1.9,1.9,2.4,4.6,1.5,7.1L214.7,91l3.8,9.2l29.3,12.3
	c2.5,1,4.1,3.5,4.1,6.1V144c0,2.6-1.5,5-3.9,6.1l-29.4,13.1l-3.8,9.2l12.1,29.4c1,2.5,0.4,5.3-1.5,7.2l-18,18
	c-1.9,1.9-4.6,2.5-7.1,1.5l-30-11.5l-9.2,3.8l-12.3,29.3C147.8,252.6,145.4,254.2,142.7,254.2z M121.6,240.9h16.7l11.6-27.8
	c0.7-1.6,2-2.9,3.6-3.6l14.2-5.9c1.6-0.6,3.3-0.7,4.9-0.1l28.5,10.9l11.8-11.8l-11.4-27.9c-0.7-1.6-0.7-3.4,0-5.1l5.8-14.2
	c0.6-1.6,1.9-2.8,3.4-3.5l27.8-12.5V123l-27.7-11.6c-1.6-0.7-2.9-2-3.6-3.6l-5.9-14.2c-0.6-1.6-0.7-3.3-0.1-4.9l10.9-28.5
	l-11.8-11.8l-27.9,11.4c-1.6,0.7-3.4,0.7-5.1,0l-14.2-5.8c-1.6-0.6-2.8-1.9-3.5-3.4l-12.5-27.8h-16.7L109,50.4
	c-0.7,1.6-2,2.9-3.6,3.6l-14.1,5.9c-1.6,0.7-3.3,0.7-4.9,0.1L57.8,49.1L46,60.9l11.4,27.9c0.7,1.6,0.7,3.4,0,5.1l-5.9,14.2
	c-0.6,1.6-1.9,2.8-3.4,3.5l-27.8,12.4v16.7l27.8,11.6c1.6,0.7,2.9,2,3.6,3.6l5.9,14.1c0.6,1.6,0.7,3.3,0.1,4.9l-10.9,28.5l11.8,11.8
	l27.8-11.4c1.6-0.7,3.4-0.7,5.1,0l14.2,5.9c1.6,0.6,2.8,1.9,3.5,3.4L121.6,240.9z"/>
<path class="st1" d="M129.4,171.7c-22,0-39.9-17.9-39.9-39.9c0-22,17.9-39.9,39.9-39.9c22,0,39.9,17.9,39.9,39.9
	C169.4,153.8,151.5,171.7,129.4,171.7z M129.4,105.2c-14.7,0-26.6,11.9-26.6,26.6c0,14.7,11.9,26.6,26.6,26.6
	c14.7,0,26.6-11.9,26.6-26.6C156.1,117.1,144.1,105.2,129.4,105.2z"/>
</svg>
