<?xml version="1.0" encoding="utf-8"?>
<!-- Generator: Adobe Illustrator 22.0.0, SVG Export Plug-In . SVG Version: 6.00 Build 0)  -->
<svg version="1.1" id="Layer_1" xmlns="http://www.w3.org/2000/svg" xmlns:xlink="http://www.w3.org/1999/xlink" x="0px" y="0px"
	 viewBox="0 0 512 512" style="enable-background:new 0 0 512 512;" xml:space="preserve">
<style type="text/css">
	.st0{fill:#5E686B;}
	.st1{fill:#3FC6F1;}
</style>
<path class="st0" d="M257.3,112.6c-30.1,0-54.6-24.5-54.6-54.6c0-30.1,24.5-54.6,54.6-54.6c30.1,0,54.6,24.5,54.6,54.6
	C311.9,88.1,287.4,112.6,257.3,112.6z M257.3,17.1c-22.6,0-41,18.4-41,41c0,22.6,18.4,40.9,41,40.9c22.6,0,40.9-18.4,40.9-40.9
	C298.2,35.4,279.9,17.1,257.3,17.1z"/>
<path class="st0" d="M142.3,344.1c-0.1,0-0.3,0-0.4,0c-3.8-0.2-6.6-3.4-6.4-7.2l8.2-147.9c0.1-1.9,1-3.6,2.4-4.8l57.5-49.3
	c2.9-2.5,7.1-2.1,9.6,0.7c2.5,2.9,2.1,7.2-0.7,9.6l-55.3,47.4l-8.1,145C148.9,341.3,145.9,344.1,142.3,344.1z"/>
<path class="st0" d="M372.3,344.1c-3.6,0-6.6-2.8-6.8-6.5l-8.1-145l-55.3-47.4c-2.9-2.5-3.2-6.8-0.7-9.6c2.5-2.9,6.8-3.2,9.6-0.7
	l57.5,49.3c1.4,1.2,2.3,2.9,2.4,4.8l8.2,147.9c0.2,3.8-2.7,7-6.4,7.2C372.6,344.1,372.4,344.1,372.3,344.1z"/>
<path class="st1" d="M339.5,393.4H175.2c-2.1,0-4-0.9-5.3-2.6c-1.3-1.6-1.8-3.7-1.3-5.7l32.8-147.9c0.8-3.7,4.4-6,8.1-5.2
	c3.7,0.8,6,4.5,5.2,8.1l-31,139.6H331l-31-139.6c-0.8-3.7,1.5-7.3,5.2-8.1c3.7-0.8,7.3,1.5,8.1,5.2l32.8,147.9c0.4,2,0,4.1-1.3,5.7
	C343.5,392.5,341.5,393.4,339.5,393.4z"/>
<path class="st0" d="M290.2,508.4h-65.7c-3.5,0-6.4-2.7-6.8-6.2l-6.4-65.3c-0.4-3.7,2.4-7.1,6.1-7.5c3.7-0.1,7.1,2.4,7.5,6.1
	l5.8,59.1H284l5.9-60.7c0.4-3.7,3.8-6.4,7.5-6.1c3.7,0.4,6.5,3.7,6.1,7.5l-6.5,66.8C296.6,505.8,293.7,508.4,290.2,508.4z"/>
</svg>
