<?xml version="1.0" encoding="utf-8"?>
<!-- Generator: Adobe Illustrator 22.0.0, SVG Export Plug-In . SVG Version: 6.00 Build 0)  -->
<svg version="1.1" id="Layer_1" xmlns="http://www.w3.org/2000/svg" xmlns:xlink="http://www.w3.org/1999/xlink" x="0px" y="0px"
	 viewBox="0 0 512 512" style="enable-background:new 0 0 512 512;" xml:space="preserve">
<style type="text/css">
	.st0{fill:#5E686B;}
	.st1{fill:#3FC6F1;}
</style>
<path class="st0" d="M509.2,11.1c-2.7-5.2-8-8.4-13.9-8.4H18.1c-5.9,0-11.2,3.2-13.9,8.4c-2.7,5.2-2.3,11.4,1,16.1l220.1,327.5
	v107.4v39.1c0,3.8,3.1,6.8,6.8,6.8c3.8,0,6.8-3.1,6.8-6.8v-39.1V352.6c0-1.4-0.4-2.7-1.2-3.8L16.5,19.5c-0.6-0.8-0.4-1.6-0.1-2.1
	c0.2-0.4,0.7-1.1,1.8-1.1h477.2c1,0,1.5,0.6,1.8,1.1c0.3,0.5,0.4,1.2-0.2,2.2L275.6,348.8c-0.8,1.1-1.2,2.5-1.2,3.8v70.7v38.8
	c0,3.8,3.1,6.8,6.8,6.8c3.8,0,6.8-3.1,6.8-6.8v-38.8v-68.6L508.2,27.3C511.5,22.5,511.9,16.3,509.2,11.1z"/>
<path class="st1" d="M378.8,115.5c-2.1-2.3-5.5-3-8.3-1.5c-0.1,0.1-10.7,5.4-30.6,5.4c-24.2,0-51.2-7.5-80.1-22.4
	c-18.8-9.7-37.3-14.6-54.9-14.6c-45.6,0-69.8,32.2-70.8,33.5c-1.7,2.3-1.8,5.5-0.2,7.9l117,174.1c1.3,1.9,3.4,3,5.7,3
	c2.3,0,4.4-1.1,5.7-3l117-174.1C381.2,121.3,380.9,117.9,378.8,115.5z M256.7,281.9L148.3,120.6c7.1-7.5,26.5-24.4,56.7-24.4
	c15.4,0,31.8,4.4,48.6,13c30.9,15.9,59.9,23.9,86.3,23.9c6.8,0,12.7-0.6,17.7-1.4L256.7,281.9z"/>
</svg>
