<?xml version="1.0" encoding="utf-8"?>
<!-- Generator: Adobe Illustrator 22.0.0, SVG Export Plug-In . SVG Version: 6.00 Build 0)  -->
<svg version="1.1" id="Layer_1" xmlns="http://www.w3.org/2000/svg" xmlns:xlink="http://www.w3.org/1999/xlink" x="0px" y="0px"
	 viewBox="0 0 512 512" style="enable-background:new 0 0 512 512;" xml:space="preserve">
<style type="text/css">
	.st0{fill:#5E686B;}
	.st1{fill:#3FC6F1;}
</style>
<path class="st0" d="M474.2,79.4c-3.8,0-6.8,3-6.8,6.8v246.3c0,4.2-3.4,7.7-7.7,7.7H54.1c-4.2,0-7.7-3.4-7.7-7.7V86.2
	c0-3.8-3-6.8-6.8-6.8c-3.8,0-6.8,3-6.8,6.8v246.3c0,11.7,9.6,21.3,21.3,21.3h405.6c11.7,0,21.3-9.6,21.3-21.3V86.2
	C481,82.4,478,79.4,474.2,79.4z"/>
<path class="st0" d="M503.2,22.3H10.7c-3.8,0-6.8,3-6.8,6.8s3,6.8,6.8,6.8h492.5c3.8,0,6.8-3,6.8-6.8C510,25.3,507,22.3,503.2,22.3z
	"/>
<path class="st1" d="M203.8,153.8c-2.5-2.5-6.5-2.7-9.2-0.4l-86.9,72.4c-2.9,2.4-3.3,6.7-0.9,9.6c2.4,2.9,6.7,3.3,9.6,0.9l82.1-68.4
	l82.5,82.5c1.3,1.3,3,2,4.8,2c1.8,0,3.5-0.7,4.8-2L395,146.1v56c0,3.8,3,6.8,6.8,6.8c3.8,0,6.8-3,6.8-6.8v-72.4c0-0.2,0-0.3,0-0.5
	c0-0.1,0-0.1,0-0.2c0-0.2,0-0.3-0.1-0.5c0-0.1,0-0.1,0-0.2c0-0.2-0.1-0.3-0.1-0.5c0,0,0-0.1,0-0.1c0-0.2-0.1-0.3-0.2-0.5
	c0,0,0-0.1-0.1-0.1c-0.1-0.2-0.1-0.3-0.2-0.5c0,0,0-0.1-0.1-0.1c-0.1-0.2-0.2-0.3-0.3-0.5c0,0,0,0,0-0.1c-0.5-0.8-1.2-1.4-1.9-1.9
	c0,0-0.1,0-0.1-0.1c-0.1-0.1-0.3-0.2-0.5-0.3c-0.1,0-0.1-0.1-0.2-0.1c-0.1-0.1-0.3-0.1-0.4-0.2c-0.1,0-0.1-0.1-0.2-0.1
	c-0.1-0.1-0.3-0.1-0.4-0.1c-0.1,0-0.2,0-0.2-0.1c-0.1,0-0.3-0.1-0.4-0.1c-0.1,0-0.2,0-0.3,0c-0.1,0-0.2,0-0.4-0.1
	c-0.2,0-0.4,0-0.6,0c0,0,0,0,0,0h-72.4c-3.8,0-6.8,3-6.8,6.8s3,6.8,6.8,6.8h56l-99.4,99.4L203.8,153.8z"/>
<path class="st0" d="M361.5,485.8l-97.8-51.2v-47.3c0-3.8-3-6.8-6.8-6.8s-6.8,3-6.8,6.8v47.3l-97.8,51.2c-3.3,1.8-4.6,5.9-2.9,9.2
	c1.7,3.3,5.9,4.6,9.2,2.9l98.3-51.5l98.2,51.5c1,0.5,2.1,0.8,3.2,0.8c2.4,0,4.8-1.3,6-3.6C366.1,491.6,364.8,487.5,361.5,485.8z"/>
</svg>
