<?xml version="1.0" encoding="utf-8"?>
<!-- Generator: Adobe Illustrator 22.0.0, SVG Export Plug-In . SVG Version: 6.00 Build 0)  -->
<svg version="1.1" id="Layer_1" xmlns="http://www.w3.org/2000/svg" xmlns:xlink="http://www.w3.org/1999/xlink" x="0px" y="0px"
	 viewBox="0 0 512 512" style="enable-background:new 0 0 512 512;" xml:space="preserve">
<style type="text/css">
	.st0{fill:#5E686C;}
	.st1{fill:#3FC6F1;}
</style>
<path class="st0" d="M499.9,20.5H10.8c-3.7,0-6.7-3-6.7-6.7s3-6.7,6.7-6.7h489.1c3.7,0,6.7,3,6.7,6.7
	C506.6,17.5,503.6,20.5,499.9,20.5z"/>
<path class="st0" d="M499.9,382.4H10.8c-3.7,0-6.7-3-6.7-6.7c0-3.7,3-6.7,6.7-6.7h489.1c3.7,0,6.7,3,6.7,6.7
	C506.6,379.4,503.6,382.4,499.9,382.4z"/>
<path class="st0" d="M499.9,500.8H10.8c-3.7,0-6.7-3-6.7-6.7s3-6.7,6.7-6.7h489.1c3.7,0,6.7,3,6.7,6.7S503.6,500.8,499.9,500.8z"/>
<path class="st0" d="M371,141.2c-3.7,0-6.7-3-6.7-6.7V13.9c0-3.7,3-6.7,6.7-6.7c3.7,0,6.7,3,6.7,6.7v120.6
	C377.6,138.2,374.6,141.2,371,141.2z"/>
<path class="st0" d="M129.2,141.1c-3.7,0-6.7-3-6.7-6.7V13.9c0-3.7,3-6.7,6.7-6.7s6.7,3,6.7,6.7v120.6
	C135.8,138.2,132.9,141.1,129.2,141.1z"/>
<path class="st0" d="M229.2,500.8c-3.7,0-6.7-3-6.7-6.7V376.8c0-3.7,3-6.7,6.7-6.7s6.7,3,6.7,6.7v117.4
	C235.9,497.9,232.9,500.8,229.2,500.8z"/>
<path class="st0" d="M454.3,500.8c-3.7,0-6.7-3-6.7-6.7V376.8c0-3.7,3-6.7,6.7-6.7c3.7,0,6.7,3,6.7,6.7v117.4
	C461,497.9,458,500.8,454.3,500.8z"/>
<path class="st0" d="M323.1,382.9c-3.7,0-6.7-3-6.7-6.7V255.7c0-3.7,3-6.7,6.7-6.7c3.7,0,6.7,3,6.7,6.7v120.6
	C329.8,380,326.8,382.9,323.1,382.9z"/>
<path class="st0" d="M71.9,382.9c-3.7,0-6.7-3-6.7-6.7V255.7c0-3.7,3-6.7,6.7-6.7s6.7,3,6.7,6.7v120.6
	C78.6,380,75.6,382.9,71.9,382.9z"/>
<path class="st1" d="M499.9,141.1H10.8c-3.7,0-6.7-3-6.7-6.7s3-6.7,6.7-6.7h489.1c3.7,0,6.7,3,6.7,6.7
	C506.6,138.1,503.6,141.1,499.9,141.1z"/>
<path class="st1" d="M499.9,261.8H10.8c-3.7,0-6.7-3-6.7-6.7s3-6.7,6.7-6.7h489.1c3.7,0,6.7,3,6.7,6.7
	C506.6,258.8,503.6,261.8,499.9,261.8z"/>
<path class="st1" d="M248.7,261.8c-3.7,0-6.7-3-6.7-6.7V134.5c0-3.7,3-6.7,6.7-6.7s6.7,3,6.7,6.7v120.6
	C255.3,258.8,252.4,261.8,248.7,261.8z"/>
<path class="st1" d="M417.6,261.8c-3.7,0-6.7-3-6.7-6.7V134.5c0-3.7,3-6.7,6.7-6.7s6.7,3,6.7,6.7v120.6
	C424.3,258.8,421.3,261.8,417.6,261.8z"/>
</svg>
