<?xml version="1.0" encoding="utf-8"?>
<!-- Generator: Adobe Illustrator 22.0.0, SVG Export Plug-In . SVG Version: 6.00 Build 0)  -->
<svg version="1.1" id="Layer_1" xmlns="http://www.w3.org/2000/svg" xmlns:xlink="http://www.w3.org/1999/xlink" x="0px" y="0px"
	 viewBox="0 0 512 512" style="enable-background:new 0 0 512 512;" xml:space="preserve">
<style type="text/css">
	.st0{fill:#3FC6F1;}
	.st1{fill:#5E686C;}
</style>
<path class="st0" d="M433.8,269.4H76.1c-3.7,0-6.7-3-6.7-6.7s3-6.7,6.7-6.7h344.3l-75.5-102.5c-1.8-2.4-1.8-5.6,0-8l75.5-102.5H76.1
	c-3.7,0-6.7-3-6.7-6.7c0-3.7,3-6.7,6.7-6.7h357.7c2.5,0,4.9,1.4,6,3.7c1.1,2.3,0.9,5-0.6,7l-80.5,109.3l80.5,109.3
	c1.5,2,1.7,4.8,0.6,7C438.7,268,436.4,269.4,433.8,269.4z"/>
<path class="st1" d="M76.1,507.9c-3.7,0-6.7-3-6.7-6.7V11.7c0-3.7,3-6.7,6.7-6.7s6.7,3,6.7,6.7v489.4
	C82.9,504.9,79.9,507.9,76.1,507.9z"/>
</svg>
