<?xml version="1.0" encoding="utf-8"?>
<!-- Generator: Adobe Illustrator 22.0.0, SVG Export Plug-In . SVG Version: 6.00 Build 0)  -->
<svg version="1.1" id="Layer_1" xmlns="http://www.w3.org/2000/svg" xmlns:xlink="http://www.w3.org/1999/xlink" x="0px" y="0px"
	 viewBox="0 0 512 512" style="enable-background:new 0 0 512 512;" xml:space="preserve">
<style type="text/css">
	.st0{fill:#5E686C;}
	.st1{fill:#3FC6F1;}
</style>
<path class="st0" d="M255,504.2c-137.3,0-249-111.7-249-249c0-137.3,111.7-249,249-249c59.1,0,116.3,21,161.1,59.2
	c2.9,2.5,3.3,6.8,0.8,9.7c-2.5,2.9-6.9,3.3-9.8,0.8C364.9,39.8,310.8,20,255,20C125.3,20,19.8,125.5,19.8,255.2
	S125.3,490.3,255,490.3c129.7,0,235.2-105.5,235.2-235.2c0-55.6-19.8-109.6-55.6-151.8c-2.5-2.9-2.1-7.3,0.8-9.8
	c2.9-2.5,7.3-2.1,9.7,0.8c38,44.8,58.9,101.9,58.9,160.8C504,392.4,392.3,504.2,255,504.2z"/>
<path class="st1" d="M200.9,445.3L200.9,445.3c-2.1,0-4.9-1.3-6.2-2.9s-2-4.8-1.6-6.8l33.8-143.9c-0.1,0-0.2-0.1-0.3-0.1l-43.1-14.5
	c-4.1-1.6-6.9-4.3-8-7.7c-1.1-3.4-0.5-7.1,1.6-10.4L302.2,68.9c1.5-2.4,4.2-3.9,7-3.9c2.1,0,4.9,1.4,6.2,3.1c1.6,2,2.1,4.6,1.4,7.2
	l-33.4,141.7l43.2,14.5c5.1,1.9,7.1,4.9,7.9,7.2c1,2.9,0.6,6.2-1.2,9.1L208.2,441.1C206.7,443.6,203.9,445.3,200.9,445.3z
	 M189.9,264.6l41.1,13.8c3.6,1.3,12.4,4.5,10,13.8l-26.9,114.2l105.3-162.7L279.1,230c-3.5-1.3-12.1-4.4-9.4-15.2l26.2-111.3
	L189.9,264.6z"/>
</svg>
