<?xml version="1.0" encoding="utf-8"?>
<!-- Generator: Adobe Illustrator 22.0.0, SVG Export Plug-In . SVG Version: 6.00 Build 0)  -->
<svg version="1.1" id="Layer_1" xmlns="http://www.w3.org/2000/svg" xmlns:xlink="http://www.w3.org/1999/xlink" x="0px" y="0px"
	 viewBox="0 0 512 512" style="enable-background:new 0 0 512 512;" xml:space="preserve">
<style type="text/css">
	.st0{fill:#5E686C;}
	.st1{fill:#3FC6F1;}
</style>
<path class="st0" d="M465.9,479.6H47.2c-24.9,0-45.1-20.1-45.1-44.8V202.5c0-3.8,3-6.8,6.8-6.8c3.8,0,6.8,3,6.8,6.8v232.3
	c0,17.2,14.1,31.2,31.5,31.2h418.7c17.4,0,31.5-14,31.5-31.2V154.9c0-3.8,3-6.8,6.8-6.8c3.8,0,6.8,3,6.8,6.8v279.9
	C511,459.5,490.8,479.6,465.9,479.6z"/>
<path class="st0" d="M165.3,255.1H81.6c-39.5,0-64.6-15.9-79-50c-1.5-3.5,0.2-7.5,3.6-8.9c3.5-1.4,7.5,0.2,8.9,3.6
	c12.3,29.2,32.2,41.6,66.4,41.6h83.7c22.2,0,28.1-7.9,35.6-17.9c9.3-12.3,19.8-26.3,56.7-26.3h208.6c14.5,0,31.1-4.3,31.1-38.1
	c0-3.8,3-6.8,6.8-6.8c3.8,0,6.8,3,6.8,6.8c0,42.7-24.3,51.7-44.7,51.7H257.7c-30.1,0-37.4,9.7-45.9,20.9
	C203.6,242.7,194.2,255.1,165.3,255.1z"/>
<path class="st1" d="M2.2,200.9l0-64.7c0-45,9-96.7,79.5-96.7h83.7c29,0,38.3,12.5,46.5,23.5c8.4,11.3,15.7,21.1,45.9,21.1h208.6
	c20.4,0,44.7,9,44.7,52.1v23.1h-13.6v-23.1c0-34.1-16.6-38.5-31.1-38.5H257.7c-36.9,0-47.9-14.7-56.8-26.5
	c-7.5-10.1-13.5-18-35.6-18H81.6c-46.8,0-65.9,24.1-65.9,83.1l0,64.7L2.2,200.9L2.2,200.9z"/>
</svg>
