<?xml version="1.0" encoding="utf-8"?>
<!-- Generator: Adobe Illustrator 22.0.0, SVG Export Plug-In . SVG Version: 6.00 Build 0)  -->
<svg version="1.1" id="Layer_1" xmlns="http://www.w3.org/2000/svg" xmlns:xlink="http://www.w3.org/1999/xlink" x="0px" y="0px"
	 viewBox="0 0 512 512" style="enable-background:new 0 0 512 512;" xml:space="preserve">
<style type="text/css">
	.st0{fill:#5E686C;}
	.st1{fill:#3FC6F1;}
</style>
<path class="st0" d="M186.2,144.2c-0.3,0-0.5,0-0.8,0l-29.6-3.3c-1.9-0.2-3.6-1.2-4.7-2.7c-1.1-1.5-1.6-3.4-1.3-5.3l3.3-18.6
	c0.3-2,1.5-3.7,3.2-4.7l13.7-8.2l1.5-9.7l-1.9-7.4c-0.9-3.7,1.3-7.4,5-8.3c3.6-0.9,7.4,1.3,8.3,5l2.2,8.8c0.2,0.9,0.3,1.8,0.1,2.7
	l-2.2,14.3c-0.3,2-1.5,3.8-3.2,4.8l-13.8,8.3l-1.5,8.3l20.1,2.2l22.5-12.7l13.5-13.5c-1.7-2.7-3.2-6.2-2.8-10.2
	c0.3-3.4,2.1-8.3,8.9-12c10.5-5.7,16.4-13.4,16.4-13.5c2.3-3,6.6-3.6,9.6-1.3c3,2.3,3.6,6.6,1.4,9.6c-0.3,0.4-7.6,10-20.8,17.2
	c-1.3,0.7-1.8,1.2-1.8,1.4c0.1,0.6,1.5,2.6,2.9,3.7c1.5,1.2,2.4,3,2.5,5c0.1,1.9-0.6,3.8-2,5.2l-18.6,18.6c-0.4,0.4-0.9,0.8-1.5,1.1
	l-25.2,14.3C188.5,143.9,187.4,144.2,186.2,144.2z"/>
<path class="st0" d="M65.1,245.3c-2.7,0-5.2-1.6-6.3-4.2c-1.5-3.5,0.2-7.5,3.7-9l26.8-11.2c0.8-0.3,1.7-0.5,2.6-0.5
	c1-0.3,8.3-3,15.5-5.7l5-47.3c0.2-2.1,1.4-4,3.3-5.1l2.2-1.3v-44.5c0-3.8,3.1-6.9,6.9-6.9c3.8,0,6.9,3.1,6.9,6.9v48.4
	c0,2.4-1.3,4.6-3.3,5.9l-2.6,1.5l-5.1,48.1c-0.3,2.6-1.9,4.7-4.3,5.7c-14.6,5.7-20.1,7.4-22.5,7.9l-26.1,10.9
	C66.9,245.1,66,245.3,65.1,245.3z"/>
<path class="st0" d="M218,439c-2,0-4.1-0.9-5.4-2.6l-18.8-24l-20.5-10.2c-0.7-0.3-1.3-0.8-1.8-1.3l-5.5-5.5l-12.4-14.7
	c-1-1.2-1.6-2.8-1.6-4.4V362c0-1.4,0.4-2.8,1.2-3.9c2.1-3.1,4.4-6.8,5.2-8.7c-0.3-1.4-0.4-2.8-0.4-4.2l-4.5-2.2l-18.4-10.2h-3.7
	c-1.9,0-3.8-0.8-5.1-2.3l-19.7-21.9c-2-2.2-2.3-5.5-0.8-8.1l0.2-0.3L94.2,291l-16,7.1c-3.4,1.6-7.5,0-9.1-3.5
	c-1.5-3.5,0-7.5,3.5-9.1l19.7-8.8c2.3-1,5-0.7,7,0.9l19.7,15.4c2.7,2.1,3.5,6,1.7,8.9l-0.7,1.1l14.3,15.9h2.4c1.2,0,2.3,0.3,3.3,0.9
	l28.2,15.2c2.8,1.4,4.3,4.4,3.7,7.5c-0.3,1.4-0.4,3.4-0.3,4c0.9,1.6,2.5,4.9-6.1,17.6v9.6l14.7,16.6l20.9,10.5
	c0.9,0.5,1.7,1.1,2.3,1.9l19.7,25.2c2.3,3,1.8,7.3-1.2,9.6C220.9,438.5,219.4,439,218,439z"/>
<path class="st0" d="M300.2,406.1c-1.8,0-3.5-0.7-4.9-2l-17.5-17.5c-0.9-0.9-1.6-2.1-1.8-3.4l-4.4-19.7c-0.7-3.1,0.8-6.2,3.6-7.6
	l4.4-2.2l5.6-12.1c0.5-0.9,1.1-2.5,1.6-4.1l-7.9-7.9c-1.2-1.2-1.9-2.8-2-4.5l-0.9-18.9l-7.3-3.4l-16.7,9.3c-2.9,1.6-6.5,0.9-8.6-1.6
	l-16.4-19.7c-0.9-1.1-1.5-2.5-1.6-4l-1.1-19.7c-0.1-1.2,0.2-2.4,0.7-3.4l18.6-37.3l14.1-33.6c0.4-1,1.1-1.9,2-2.7
	c0,0,12.1-9.9,17.6-14.3c2.7-2.2,7.6-11.3,10-17.1c0.6-1.4,1.7-2.6,3.1-3.4l33.2-17.2l-4.6-11.5c-0.8-2-0.6-4.3,0.5-6.2
	c15.2-24.6,19.3-27.4,25.3-24.5c3.4,1.7,4.8,5.8,3.1,9.2c-0.8,1.6-2,2.7-3.5,3.3c-2.2,2.3-7.1,9.5-11.4,16.3l5.3,13.2
	c1.2,2.9,0.2,6.2-2.2,8l-4.4,3.3l-32.8,17c-2.3,5.1-7.7,15.8-13.1,20.1c-4.4,3.5-12.9,10.4-16.1,13.1L256.1,232l-18,36.1l0.9,15.7
	l11.3,13.6l14.8-8.2c1.9-1.1,4.2-1.2,6.2-0.2l14.3,6.6c2.3,1.1,3.9,3.3,4,5.9l1,20.4l9.1,9.1c1.8,1.8,2.5,4.5,1.7,7
	c0,0-2.5,7.2-3.7,9.7l-6.5,14.1c-0.7,1.4-1.8,2.6-3.2,3.3l-1.8,0.9l2.8,12.6l12.2,12.2c4.7-3.1,9-6.3,10.1-7.3
	c0.9-1.6,6.5-14,11.2-25c0.3-0.8,0.8-1.5,1.4-2.1l25.2-25.2l13.1-18.3l9.6-22l-4.1-11.6l-6.8-7.8c-2-2.3-2.3-5.6-0.6-8.1l5.5-8.8
	c0.3-0.5,0.7-1,1.2-1.4c13.7-12.6,17.7-11.5,20-10.9c2.3,0.6,4.6,2.8,5.3,5c0.8,2.3,3.2,11.8,5,18.8l7.8-2.3l0.3-1.4
	c0.5-2.7,2.6-4.8,5.3-5.4l15.3-3.3c3.7-0.8,7.3,1.6,8.1,5.3c0.8,3.7-1.6,7.3-5.3,8.1l-10.9,2.4l-0.2,1.1c-0.5,2.5-2.4,4.5-4.8,5.2
	l-18.6,5.5c-1.8,0.5-3.7,0.3-5.3-0.6c-1.6-0.9-2.8-2.5-3.2-4.3c-1.3-5-3-12.1-4.4-17.4c-1.4,1.1-3,2.4-4.4,3.7l-2.3,3.6l4.3,4.9
	c0.6,0.6,1,1.4,1.3,2.2l5.5,15.4c0.6,1.6,0.5,3.4-0.2,5l-11,25.2c-0.2,0.4-0.4,0.9-0.7,1.3l-14.2,19.7l-25,25.1
	c-7.7,17.7-10.5,23.5-11.8,25.7c-0.8,1.5-2.8,4.3-18.7,14.5C302.7,405.8,301.4,406.1,300.2,406.1z"/>
<path class="st0" d="M250.8,446.7c-106.5,0-193.2-86.7-193.2-193.2c0-106.5,86.7-193.2,193.2-193.2C357.3,60.3,444,147,444,253.5
	C444,360,357.3,446.7,250.8,446.7z M250.8,74.1c-99,0-179.4,80.5-179.4,179.4c0,99,80.5,179.5,179.4,179.5s179.5-80.5,179.5-179.5
	C430.3,154.6,349.8,74.1,250.8,74.1z"/>
<path class="st1" d="M54.9,412.2c-23,0-39.9-5.9-47.8-19.3c-13.6-22.4,7.2-63.7,55.8-110.4c2.7-2.6,7.1-2.5,9.7,0.2
	c2.6,2.7,2.5,7.1-0.2,9.7c-47.9,46-61.3,80.7-53.5,93.5c17.2,29.3,133.3,6.2,272.4-73.6C398.2,250,481,175.6,492.6,131.5
	c2-7.5,1.6-13.5-1.1-18.1c-10.8-18-56.1-16.9-118,3.1c-3.6,1.2-7.5-0.8-8.6-4.4c-1.2-3.6,0.8-7.5,4.4-8.6
	c70.4-22.7,119.3-21.6,134,3c4.6,7.8,5.5,17.4,2.6,28.5c-12.6,48.2-96.1,124.2-207.7,189.2C211.7,373.7,113.6,412.2,54.9,412.2z"/>
</svg>
