<?xml version="1.0" encoding="utf-8"?>
<!-- Generator: Adobe Illustrator 22.0.0, SVG Export Plug-In . SVG Version: 6.00 Build 0)  -->
<svg version="1.1" id="Layer_1" xmlns="http://www.w3.org/2000/svg" xmlns:xlink="http://www.w3.org/1999/xlink" x="0px" y="0px"
	 viewBox="0 0 512 512" style="enable-background:new 0 0 512 512;" xml:space="preserve">
<style type="text/css">
	.st0{fill:#5E686C;}
	.st1{fill:#3FC6F1;}
</style>
<path class="st0" d="M260.5,302.7c-26.1,0-47.3-21.2-47.3-47.3s21.2-47.3,47.3-47.3c26.1,0,47.3,21.2,47.3,47.3
	C307.8,281.4,286.6,302.7,260.5,302.7z M260.5,221.5c-18.6,0-33.8,15.2-33.8,33.8c0,18.6,15.2,33.8,33.8,33.8
	c18.6,0,33.8-15.2,33.8-33.8C294.3,236.7,279.1,221.5,260.5,221.5z"/>
<path class="st0" d="M445,508.1c-67.7,0-178.9-65.7-276.7-163.5C36.4,212.7-28,70.4,21.7,20.7C32.8,9.5,48.7,3.8,69,3.8
	c67.7,0,178.9,65.7,276.7,163.5c62.1,62.1,111.8,129.4,139.8,189.5c29,62.1,31.4,109.9,6.9,134.5C481.2,502.5,465.3,508.1,445,508.1
	z M69,17.4c-16.5,0-29.2,4.3-37.7,12.9c-42.9,42.9,24.3,182.5,146.7,304.8c95.4,95.4,202.8,159.5,267.1,159.5
	c16.5,0,29.2-4.3,37.7-12.9c20-20,16.5-63.4-9.6-119.2c-27.4-58.7-76.1-124.6-137.1-185.7C240.7,81.5,133.3,17.4,69,17.4z"/>
<path class="st1" d="M68.1,508.6c-19.9,0-35.6-5.6-46.6-16.6c-24.4-24.4-21.8-72,7.4-134.1c28.2-60,77.9-127.2,140.1-189.4
	C267.1,70.4,378.3,4.5,445.8,4.5c19.9,0,35.6,5.6,46.6,16.6c49.3,49.4-15.4,191.4-147.4,323.5C246.8,442.7,135.6,508.6,68.1,508.6z
	 M445.8,18c-64.1,0-171.5,64.3-267.3,160.1c-61.1,61.1-109.9,127-137.4,185.6c-26.2,55.7-29.8,99-10.1,118.7
	c8.4,8.4,20.9,12.6,37.1,12.6c64.1,0,171.5-64.3,267.2-160.1c122.4-122.4,190-261.8,147.4-304.3C474.4,22.3,462,18,445.8,18z"/>
</svg>
