<?xml version="1.0" encoding="utf-8"?>
<!-- Generator: Adobe Illustrator 22.0.0, SVG Export Plug-In . SVG Version: 6.00 Build 0)  -->
<svg version="1.1" id="Layer_1" xmlns="http://www.w3.org/2000/svg" xmlns:xlink="http://www.w3.org/1999/xlink" x="0px" y="0px"
	 viewBox="0 0 512 512" style="enable-background:new 0 0 512 512;" xml:space="preserve">
<style type="text/css">
	.st0{fill:#5E686B;}
	.st1{fill:#3FC6F1;}
</style>
<path class="st0" d="M364.6,502.5c0,0,0.1-0.1,0.1-0.1c0.1-0.1,0.2-0.3,0.3-0.4c0,0,0-0.1,0.1-0.1c0.1-0.1,0.2-0.3,0.2-0.4
	c0,0,0-0.1,0.1-0.1c0.1-0.1,0.1-0.3,0.1-0.4c0-0.1,0.1-0.1,0.1-0.2c0-0.1,0.1-0.2,0.1-0.3c0-0.1,0.1-0.2,0.1-0.3c0-0.1,0-0.1,0-0.2
	c0-0.2,0.1-0.3,0.1-0.5c0,0,0-0.1,0-0.1c0-0.2,0-0.4,0-0.6c0,0,0,0,0,0c0,0,0,0,0-0.1c0-0.2,0-0.4,0-0.6c0-0.1,0-0.1,0-0.2
	c0-0.2,0-0.3-0.1-0.5c0-0.1,0-0.1,0-0.2c0-0.1,0-0.2-0.1-0.3l-87.3-309.6c21.7-6.6,37.5-26.8,37.5-50.6c0-29.2-23.8-52.9-52.9-52.9
	c-29.2,0-52.9,23.8-52.9,52.9c0,24.4,16.6,45,39.1,51l-87.7,309.1c0,0.1,0,0.1,0,0.2c0,0.1-0.1,0.3-0.1,0.4c0,0.1,0,0.2,0,0.3
	c0,0.1,0,0.2,0,0.4c0,0.1,0,0.2,0,0.3c0,0.1,0,0.2,0,0.2c0,0,0,0.1,0,0.1c0,0.1,0,0.2,0,0.3c0,0.1,0,0.2,0,0.4c0,0.1,0,0.1,0,0.2
	c0,0.2,0,0.3,0.1,0.5c0,0,0,0,0,0c0.3,1.5,1.2,2.8,2.3,3.7c0,0,0.1,0,0.1,0.1c0.1,0.1,0.3,0.2,0.4,0.3c0.1,0,0.1,0.1,0.2,0.1
	c0.1,0.1,0.2,0.2,0.4,0.2c0.1,0,0.2,0.1,0.2,0.1c0.1,0.1,0.2,0.1,0.3,0.2c0.1,0,0.2,0.1,0.3,0.1c0.1,0,0.2,0.1,0.3,0.1
	c0,0,0.1,0,0.1,0c0.1,0,0.1,0,0.2,0c0.2,0,0.4,0.1,0.6,0.1c0.1,0,0.2,0,0.2,0c0.3,0,0.5,0.1,0.8,0.1h191.5c0.3,0,0.5,0,0.8-0.1
	c0.1,0,0.1,0,0.2,0c0.2,0,0.4-0.1,0.6-0.1c0,0,0.1,0,0.1,0c0,0,0.1,0,0.1,0c0.1,0,0.2-0.1,0.4-0.1c0.1,0,0.2-0.1,0.3-0.1
	c0.1,0,0.2-0.1,0.3-0.2c0.1,0,0.2-0.1,0.3-0.1c0.1-0.1,0.2-0.1,0.3-0.2c0.1-0.1,0.2-0.1,0.3-0.2c0.1-0.1,0.2-0.1,0.3-0.2
	c0.1-0.1,0.2-0.1,0.2-0.2c0.1-0.1,0.2-0.2,0.3-0.2c0.1-0.1,0.1-0.1,0.2-0.2c0.1-0.1,0.2-0.2,0.3-0.3c0-0.1,0.1-0.1,0.1-0.2
	C364.4,502.7,364.5,502.6,364.6,502.5z M213.8,360.5h99.6L350.5,492h-174L213.8,360.5z M223.2,136.6c0-21.9,17.8-39.7,39.7-39.7
	c21.9,0,39.7,17.8,39.7,39.7c0,21.9-17.8,39.7-39.7,39.7C241,176.3,223.2,158.5,223.2,136.6z M262.8,189.5c0.8,0,1.5,0,2.3-0.1
	l44.5,157.8h-92.1l44.7-157.8C262.5,189.5,262.6,189.5,262.8,189.5z"/>
<path class="st1" d="M190.1,219.5c1.7,0,3.4-0.6,4.7-1.9c2.6-2.6,2.6-6.8,0-9.4c-37.2-37.2-37.2-102.4,0-139.6
	c2.6-2.6,2.6-6.8,0-9.4c-2.6-2.6-6.8-2.6-9.4,0c-42.9,42.9-42.9,115.4,0,158.3C186.7,218.8,188.4,219.5,190.1,219.5z"/>
<path class="st1" d="M146.5,11.2c-2.6-2.6-6.8-2.6-9.4,0c-71.3,71.3-71.3,183,0,254.4c1.3,1.3,3,1.9,4.7,1.9s3.4-0.6,4.7-1.9
	c2.6-2.6,2.6-6.8,0-9.4c-66.1-66.1-66.1-169.6,0-235.6C149.1,18,149.1,13.8,146.5,11.2z"/>
<path class="st1" d="M327.3,59.3c-2.6,2.6-2.6,6.8,0,9.4c37.2,37.2,37.2,102.4,0,139.6c-2.6,2.6-2.6,6.8,0,9.4
	c1.3,1.3,3,1.9,4.7,1.9c1.7,0,3.4-0.6,4.7-1.9c42.9-42.9,42.9-115.4,0-158.3C334,56.7,329.8,56.7,327.3,59.3z"/>
<path class="st1" d="M384.9,11.2c-2.6-2.6-6.8-2.6-9.4,0c-2.6,2.6-2.6,6.8,0,9.4c66.1,66.1,66.1,169.6,0,235.7
	c-2.6,2.6-2.6,6.8,0,9.4c1.3,1.3,3,1.9,4.7,1.9c1.7,0,3.4-0.6,4.7-1.9C456.2,194.3,456.2,82.6,384.9,11.2z"/>
</svg>
