<?xml version="1.0" encoding="utf-8"?>
<!-- Generator: Adobe Illustrator 22.0.0, SVG Export Plug-In . SVG Version: 6.00 Build 0)  -->
<svg version="1.1" id="Layer_1" xmlns="http://www.w3.org/2000/svg" xmlns:xlink="http://www.w3.org/1999/xlink" x="0px" y="0px"
	 viewBox="0 0 512 512" style="enable-background:new 0 0 512 512;" xml:space="preserve">
<style type="text/css">
	.st0{fill:#3FC6F1;}
	.st1{fill:#5E686B;}
</style>
<path class="st0" d="M502.2,4.6H371.6c-3.8,0-6.8,3.1-6.8,6.8s3,6.8,6.8,6.8h114.1L255.5,246.3c-2.7,2.6-2.7,7,0,9.6
	c1.3,1.3,3.1,2,4.8,2c1.7,0,3.5-0.7,4.8-2L495.4,27.9V142c0,3.8,3,6.8,6.8,6.8c3.8,0,6.8-3,6.8-6.8V11.4
	C509.1,7.7,506,4.6,502.2,4.6z"/>
<path class="st1" d="M374.8,509.1H88.1c-46,0-83.5-37.5-83.5-83.5V138.9c0-46,37.5-83.5,83.5-83.5h184c3.8,0,6.8,3,6.8,6.8
	c0,3.8-3.1,6.8-6.8,6.8h-184c-38.5,0-69.9,31.3-69.9,69.9v286.7c0,38.5,31.3,69.9,69.9,69.9h286.7c38.5,0,69.9-31.3,69.9-69.9V234.7
	c0-3.8,3-6.8,6.8-6.8c3.8,0,6.8,3,6.8,6.8v190.8C458.3,471.6,420.8,509.1,374.8,509.1z"/>
</svg>
