<?xml version="1.0" encoding="utf-8"?>
<!-- Generator: Adobe Illustrator 22.0.0, SVG Export Plug-In . SVG Version: 6.00 Build 0)  -->
<svg version="1.1" id="Layer_1" xmlns="http://www.w3.org/2000/svg" xmlns:xlink="http://www.w3.org/1999/xlink" x="0px" y="0px"
	 viewBox="0 0 512 512" style="enable-background:new 0 0 512 512;" xml:space="preserve">
<style type="text/css">
	.st0{fill:#3FC6F1;}
	.st1{fill:#5E686B;}
</style>
<path class="st0" d="M451,311.1c-3.8,0-6.9-3.1-6.9-6.9c0-3.8,3.1-6.9,6.9-6.9c23.1,0,41.8-18.7,41.8-41.8c0-23-18.7-41.8-41.8-41.8
	c-3.8,0-6.9-3.1-6.9-6.9c0-3.8,3.1-6.9,6.9-6.9c30.6,0,55.5,24.9,55.5,55.5S481.6,311.1,451,311.1z"/>
<path class="st1" d="M402.3,392.2H126.5c-3.8,0-6.9-3.1-6.9-6.9c0-3.8,3.1-6.9,6.9-6.9h268.9V132.7H126.5c-3.8,0-6.9-3.1-6.9-6.9
	c0-3.8,3.1-6.9,6.9-6.9h275.8c3.8,0,6.9,3.1,6.9,6.9v259.5C409.2,389.2,406.1,392.2,402.3,392.2z"/>
<path class="st0" d="M223.9,344.8c-0.4,0-0.9,0-1.3-0.1c-3.7-0.7-6.2-4.3-5.4-8.1L249,173.2c0.7-3.7,4.4-6.2,8.1-5.4
	c3.7,0.7,6.2,4.3,5.4,8.1l-32,163.5C230,342.6,227.1,344.8,223.9,344.8z"/>
<path class="st0" d="M142.8,344.8c-0.4,0-0.9,0-1.3-0.1c-3.7-0.7-6.2-4.3-5.4-8.1l32-163.5c0.7-3.7,4.4-6.2,8.1-5.4
	c3.7,0.7,6.2,4.3,5.4,8.1l-31.9,163.5C148.9,342.6,146,344.8,142.8,344.8z"/>
<path class="st0" d="M305,344.8c-0.4,0-0.9,0-1.3-0.1c-3.7-0.7-6.2-4.4-5.4-8.1l31.9-163.5c0.7-3.7,4.4-6.2,8.1-5.4
	c3.7,0.7,6.2,4.3,5.4,8.1l-31.9,163.5C311.1,342.6,308.2,344.8,305,344.8z"/>
<path class="st1" d="M77.9,392.2H13c-3.8,0-6.9-3.1-6.9-6.9V125.8c0-3.8,3.1-6.9,6.9-6.9h64.9c3.8,0,6.9,3.1,6.9,6.9v259.5
	C84.7,389.2,81.7,392.2,77.9,392.2z M19.8,378.5H71V132.7H19.8V378.5z"/>
</svg>
