<?xml version="1.0" encoding="utf-8"?>
<!-- Generator: Adobe Illustrator 22.0.0, SVG Export Plug-In . SVG Version: 6.00 Build 0)  -->
<svg version="1.1" id="Layer_1" xmlns="http://www.w3.org/2000/svg" xmlns:xlink="http://www.w3.org/1999/xlink" x="0px" y="0px"
	 viewBox="0 0 512 512" style="enable-background:new 0 0 512 512;" xml:space="preserve">
<style type="text/css">
	.st0{fill:#5E686B;}
	.st1{fill:#3FC6F1;}
</style>
<path class="st0" d="M307.1,433.2c1.2,0.2,2.4,0.2,3.6,0.2c14,0,26-10.5,27.8-24.5c2-15.3-8.9-29.4-24.2-31.4
	c-15.4-2.1-29.5,9.1-31.4,24.2C280.9,417.1,291.8,431.2,307.1,433.2z M296.8,403.6c0.9-7,6.9-12.2,13.9-12.2c0.6,0,1.2,0,1.8,0.1
	c7.7,1,13.1,8,12.1,15.7c-1,7.6-7.9,13.2-15.7,12.1C301.2,418.3,295.8,411.3,296.8,403.6z"/>
<path class="st0" d="M410.7,433.2c1.2,0.2,2.4,0.2,3.6,0.2c14,0,26-10.5,27.8-24.5c2-15.3-8.9-29.4-24.2-31.4
	c-15.4-2.1-29.5,9.1-31.4,24.2C384.5,417.1,395.4,431.2,410.7,433.2z M400.4,403.6c0.9-7,6.9-12.2,13.9-12.2c0.6,0,1.2,0,1.8,0.1
	c7.7,1,13.1,8,12.1,15.7c-1,7.6-7.9,13.2-15.7,12.1C404.9,418.3,399.4,411.3,400.4,403.6z"/>
<path class="st0" d="M501.5,214.3H263V7c0-3.9-3.1-7-7-7c-3.9,0-7,3.1-7,7v207.3H10.6c-3.9,0-7,3.1-7,7v280.5c0,3.9,3.1,7,7,7h490.9
	c3.9,0,7-3.1,7-7V221.3C508.5,217.4,505.4,214.3,501.5,214.3z M494.5,494.8H17.6V228.3h476.9V494.8z"/>
<path class="st1" d="M61.4,368.6h63.1v63.1c0,3.9,3.1,7,7,7c3.9,0,7-3.1,7-7v-63.1h63.1c3.9,0,7-3.1,7-7c0-3.9-3.1-7-7-7h-63.1
	v-63.1c0-3.9-3.1-7-7-7s-7,3.1-7,7v63.1H61.4c-3.9,0-7,3.1-7,7C54.4,365.4,57.5,368.6,61.4,368.6z"/>
</svg>
