<?xml version="1.0" encoding="utf-8"?>
<!-- Generator: Adobe Illustrator 22.0.0, SVG Export Plug-In . SVG Version: 6.00 Build 0)  -->
<svg version="1.1" id="Layer_1" xmlns="http://www.w3.org/2000/svg" xmlns:xlink="http://www.w3.org/1999/xlink" x="0px" y="0px"
	 viewBox="0 0 512 512" style="enable-background:new 0 0 512 512;" xml:space="preserve">
<style type="text/css">
	.st0{fill:#5E686B;}
	.st1{fill:#3FC6F1;}
</style>
<path class="st0" d="M442.1,207.6h-372c-3.9,0-7,3.2-7,7V502c0,3.9,3.2,7,7,7h372c3.9,0,7-3.2,7-7V214.6
	C449.1,210.7,446,207.6,442.1,207.6z M435,351.3H263.2V221.6H435V351.3z M249.1,221.6v129.6H77.1V221.6H249.1z M77.1,365.4h171.9
	V495H77.1V365.4z M263.2,495V365.4H435V495H263.2z"/>
<path class="st1" d="M481.6,137.1h-86.8c11.1-14.4,17.1-32,17.1-50.5c0-45.8-37.3-83.1-83.1-83.1c-37.4,0-68,25.4-77.1,60.9
	c-11.6-17-31.2-28.1-53.3-28.1c-35.6,0-64.5,29-64.5,64.5c0,13.1,4,25.7,11.2,36.3H30.7c-3.9,0-7,3.2-7,7s3.2,7,7,7h450.9
	c3.9,0,7-3.2,7-7S485.5,137.1,481.6,137.1z M328.7,17.6c38.1,0,69,31,69,69c0,18.4-7.2,35.7-20.1,48.7c-0.5,0.5-1,1.1-1.3,1.8H262.9
	v-36.3c0,0,0,0,0,0c0,0,0,0,0,0V86.6c0,0,0,0,0,0C262.9,47.2,291.2,17.6,328.7,17.6z M147.9,100.8c0-27.8,22.6-50.4,50.4-50.4
	c27.8,0,50.4,22.6,50.4,50.4v36.4h-85.4C153.5,127.6,147.9,114.5,147.9,100.8z"/>
</svg>
