<?xml version="1.0" encoding="utf-8"?>
<!-- Generator: Adobe Illustrator 22.0.0, SVG Export Plug-In . SVG Version: 6.00 Build 0)  -->
<svg version="1.1" id="Layer_1" xmlns="http://www.w3.org/2000/svg" xmlns:xlink="http://www.w3.org/1999/xlink" x="0px" y="0px"
	 viewBox="0 0 512 512" style="enable-background:new 0 0 512 512;" xml:space="preserve">
<style type="text/css">
	.st0{fill:#3FC6F1;}
	.st1{fill:#5E686C;}
</style>
<path class="st0" d="M249.6,364.3c-1.2,0-2.4-0.3-3.5-1l-134.1-79.7c-3.3-1.9-4.4-6.2-2.4-9.5c1.9-3.3,6.2-4.4,9.5-2.4l134.1,79.7
	c3.3,1.9,4.4,6.2,2.4,9.5C254.2,363.1,251.9,364.3,249.6,364.3z"/>
<path class="st1" d="M249.6,85.1c-22.8,0-41.4-18.6-41.4-41.4s18.6-41.4,41.4-41.4c22.8,0,41.4,18.6,41.4,41.4
	C291,66.5,272.4,85.1,249.6,85.1z M249.6,16.1c-15.2,0-27.6,12.4-27.6,27.6c0,15.2,12.4,27.6,27.6,27.6s27.6-12.4,27.6-27.6
	C277.2,28.4,264.8,16.1,249.6,16.1z"/>
<path class="st1" d="M393.1,274.7c-22.8,0-41.4-18.6-41.4-41.4c0-22.8,18.6-41.4,41.4-41.4c22.8,0,41.4,18.6,41.4,41.4
	C434.5,256.2,415.9,274.7,393.1,274.7z M393.1,205.7c-15.2,0-27.6,12.4-27.6,27.6s12.4,27.6,27.6,27.6c15.2,0,27.6-12.4,27.6-27.6
	C420.7,218.1,408.3,205.7,393.1,205.7z"/>
<path class="st0" d="M115.4,193.9c-22.8,0-41.4-18.6-41.4-41.4S92.6,111,115.4,111s41.4,18.6,41.4,41.4S138.3,193.9,115.4,193.9z
	 M115.4,124.8c-15.2,0-27.6,12.4-27.6,27.6s12.4,27.6,27.6,27.6s27.6-12.4,27.6-27.6C143.1,137.2,130.7,124.8,115.4,124.8z"/>
<path class="st1" d="M249.6,507.9c-3.8,0-6.9-3.1-6.9-6.9V79.9c0-3.8,3.1-6.9,6.9-6.9c3.8,0,6.9,3.1,6.9,6.9V501
	C256.5,504.8,253.4,507.9,249.6,507.9z"/>
<path class="st1" d="M429.3,507.9H69.9c-3.8,0-6.9-3.1-6.9-6.9c0-3.8,3.1-6.9,6.9-6.9h359.5c3.8,0,6.9,3.1,6.9,6.9
	C436.2,504.8,433.1,507.9,429.3,507.9z"/>
<path class="st1" d="M249.6,444c-2.2,0-4.4-1.1-5.8-3.1c-2.1-3.2-1.2-7.5,1.9-9.6l143.5-95.4c3.2-2.1,7.5-1.2,9.6,1.9
	c2.1,3.2,1.2,7.5-1.9,9.6l-143.5,95.4C252.2,443.6,250.9,444,249.6,444z"/>
<path class="st1" d="M393.1,348.6c-3.8,0-6.9-3.1-6.9-6.9v-72.2c0-3.8,3.1-6.9,6.9-6.9c3.8,0,6.9,3.1,6.9,6.9v72.2
	C400,345.5,396.9,348.6,393.1,348.6z"/>
<path class="st0" d="M115.4,284.6c-3.8,0-6.9-3.1-6.9-6.9v-89c0-3.8,3.1-6.9,6.9-6.9c3.8,0,6.9,3.1,6.9,6.9v89
	C122.4,281.5,119.3,284.6,115.4,284.6z"/>
</svg>
