<?xml version="1.0" encoding="utf-8"?>
<!-- Generator: Adobe Illustrator 22.0.0, SVG Export Plug-In . SVG Version: 6.00 Build 0)  -->
<svg version="1.1" id="Layer_1" xmlns="http://www.w3.org/2000/svg" xmlns:xlink="http://www.w3.org/1999/xlink" x="0px" y="0px"
	 viewBox="0 0 512 512" style="enable-background:new 0 0 512 512;" xml:space="preserve">
<style type="text/css">
	.st0{fill:#3FC6F1;}
	.st1{fill:#5E686C;}
</style>
<path class="st0" d="M353,508h-98.8c-3.9,0-7-3.1-7-7c0-3.9,3.1-7,7-7H346v-17.6c0-29.4-9.6-50.3-29.4-63.9
	c-2.4-1.7-3.6-4.7-2.8-7.5c0.7-2.9,3.2-4.9,6.1-5.2c13.1-1.3,25.4-3.1,36.6-5.4c11-2.3,22.8-5.6,35.1-9.9
	c12.1-4.2,23.1-9.4,32.7-15.2c9.4-5.7,18.7-13.4,27.6-22.7c8.7-9.2,16.1-19.8,22.1-31.6c5.9-11.8,10.7-26.2,14.2-42.9
	c3.6-16.8,5.4-35.6,5.4-55.9c0-38.4-12.7-71.6-37.7-98.5c-1.8-2-2.4-4.8-1.4-7.3c10.9-28.4,10.1-59.7-2.4-93.2l-5.6-0.7
	c-3.2-0.4-11.7,0.2-33.4,8.2c-17,6.3-36.4,16.8-57.8,31.3c-1.7,1.2-3.8,1.5-5.8,1c-30.3-8.4-62.2-12.7-94.8-12.7c-3.9,0-7-3.1-7-7
	s3.1-7,7-7c32.7,0,64.8,4.1,95.4,12.3C371.5,28.5,391,18,408.3,11.6c19.2-7.1,31.9-9.9,39.8-9l9.8,1.2c2.5,0.3,4.7,2,5.7,4.4
	c14.6,36.7,16.4,71.4,5.4,103.2c25.6,29,38.5,64.3,38.5,104.9c0,21.3-1.9,41.1-5.7,58.8c-3.7,17.8-8.9,33.4-15.4,46.3
	c-6.6,13-14.9,24.8-24.5,34.9c-9.7,10.2-20,18.7-30.4,25c-10.4,6.4-22.3,11.9-35.4,16.5c-12.8,4.5-25.3,8-36.9,10.4
	c-7,1.4-14.3,2.7-22,3.7c15.1,15.9,22.7,37.5,22.7,64.6V501C360,504.9,356.9,508,353,508z"/>
<path class="st1" d="M254.2,508h-97.3c-3.9,0-7-3.1-7-7v-24.6c0-27.2,7.5-48.8,22.3-64.6c-7.7-1-15.1-2.3-22-3.7
	c-11.6-2.4-24.1-5.9-36.9-10.4c-13-4.6-24.9-10.1-35.4-16.5c-10.5-6.4-20.7-14.8-30.4-25.1c-9.6-10.2-17.9-21.9-24.5-34.9
	c-6.5-12.8-11.7-28.4-15.5-46.3C3.9,257.1,2,237.4,2,216.2c0-40.6,13-75.8,38.5-104.9c-11-31.5-9.2-66.2,5.4-103.2
	c0.7-1.9,2.3-3.4,4.2-4c1.2-0.4,2.9-0.8,5.3-1.1c1.6-0.2,4.7-0.4,13.8,0.3c6.9,0.6,14.3,2,22.2,4.4c7.8,2.3,17.9,6.6,30.9,13
	c11.8,5.8,24.4,13.2,37.5,22c30.1-8.2,62-12.3,95.1-12.3v14c-32.9,0-64.6,4.3-94.4,12.7c-2,0.6-4.1,0.2-5.8-0.9
	c-13.6-9.2-26.5-16.9-38.5-22.8c-12-5.9-21.7-10-28.7-12.1c-6.9-2.1-13.4-3.3-19.3-3.8c-7.2-0.6-9.7-0.5-10.5-0.5
	C45,50.7,44.1,82.1,55.1,110.4c1,2.5,0.4,5.3-1.4,7.3c-25,26.9-37.7,60.1-37.7,98.5c0,20.2,1.8,39,5.3,55.9
	c3.5,16.7,8.3,31.2,14.3,42.9c6,11.8,13.4,22.4,22.1,31.6c8.8,9.3,18.1,17,27.5,22.7c9.6,5.8,20.6,11,32.7,15.2
	c12.3,4.3,24.1,7.6,35.1,9.9c11.2,2.3,23.5,4.1,36.6,5.4c2.9,0.3,5.4,2.4,6.1,5.2c0.7,2.9-0.4,5.9-2.8,7.5
	c-19.5,13.3-29,34.2-29,63.9V494h90.3L254.2,508L254.2,508z"/>
</svg>
