<?xml version="1.0" encoding="utf-8"?>
<!-- Generator: Adobe Illustrator 22.0.0, SVG Export Plug-In . SVG Version: 6.00 Build 0)  -->
<svg version="1.1" id="Layer_1" xmlns="http://www.w3.org/2000/svg" xmlns:xlink="http://www.w3.org/1999/xlink" x="0px" y="0px"
	 viewBox="0 0 512 512" style="enable-background:new 0 0 512 512;" xml:space="preserve">
<style type="text/css">
	.st0{fill:#5E686C;}
	.st1{fill:#3FC6F1;}
</style>
<path class="st0" d="M286.5,248.4h-67.9c-3.8,0-6.8-3-6.8-6.8c0-3.8,3-6.8,6.8-6.8h67.9c3.8,0,6.8,3,6.8,6.8
	C293.3,245.3,290.3,248.4,286.5,248.4z"/>
<path class="st0" d="M457,209.9c-1.7,0-3.5-0.7-4.8-2c-2.7-2.7-2.7-7,0-9.6l40.8-40.8c2.7-2.7,7-2.7,9.6,0c2.7,2.7,2.7,7,0,9.6
	l-40.8,40.8C460.5,209.2,458.7,209.9,457,209.9z"/>
<path class="st0" d="M54.2,204.5c-1.7,0-3.5-0.7-4.8-2L8.6,161.8c-2.7-2.7-2.7-7,0-9.6c2.7-2.7,7-2.7,9.6,0L59,192.9
	c2.7,2.7,2.7,7,0,9.6C57.7,203.9,55.9,204.5,54.2,204.5z"/>
<path class="st1" d="M120.9,384.6c-59.9,0-108.7-48.8-108.7-108.7S61,167.2,120.9,167.2c59.9,0,108.7,48.8,108.7,108.7
	S180.9,384.6,120.9,384.6z M120.9,180.8c-52.4,0-95.1,42.7-95.1,95.1S68.5,371,120.9,371c52.4,0,95.1-42.7,95.1-95.1
	S173.4,180.8,120.9,180.8z"/>
<path class="st1" d="M384.2,384.6c-59.9,0-108.7-48.8-108.7-108.7s48.8-108.7,108.7-108.7c59.9,0,108.7,48.8,108.7,108.7
	S444.1,384.6,384.2,384.6z M384.2,180.8c-52.4,0-95.1,42.7-95.1,95.1s42.7,95.1,95.1,95.1c52.4,0,95.1-42.7,95.1-95.1
	S436.7,180.8,384.2,180.8z"/>
</svg>
