<?xml version="1.0" encoding="utf-8"?>
<!-- Generator: Adobe Illustrator 22.0.0, SVG Export Plug-In . SVG Version: 6.00 Build 0)  -->
<svg version="1.1" id="Layer_1" xmlns="http://www.w3.org/2000/svg" xmlns:xlink="http://www.w3.org/1999/xlink" x="0px" y="0px"
	 viewBox="0 0 512 512" style="enable-background:new 0 0 512 512;" xml:space="preserve">
<style type="text/css">
	.st0{fill:#3FC6F1;}
	.st1{fill:#5E686C;}
</style>
<path class="st0" d="M256.1,393.1c-140.7,0-250.9-56.5-250.9-128.6l0.3-18c0-72,110.1-128.4,250.6-128.4
	c140.5,0,250.6,56.5,250.6,128.6l0.3,17.8C507,336.7,396.8,393.1,256.1,393.1z M256.1,132.1c-130.5,0-236.7,51.4-236.7,114.6
	l-0.3,18c0,63.1,106.3,114.5,237,114.5c130.7,0,237-51.4,237-114.6l-0.3-17.8C492.7,183.5,386.6,132.1,256.1,132.1z"/>
<path class="st1" d="M256.1,506.7C117.8,506.7,5.2,394.2,5.2,255.9C5.2,117.6,117.8,5,256.1,5c138.3,0,250.9,112.5,250.9,250.9
	C506.9,394.2,394.4,506.7,256.1,506.7z M256.1,19C125.4,19,19.2,125.2,19.2,255.9c0,130.6,106.3,236.9,236.9,236.9
	c130.6,0,236.9-106.3,236.9-236.9C493,125.2,386.7,19,256.1,19z"/>
<path class="st1" d="M247.4,506.3c-72.1,0-128.6-110.1-128.6-250.7C118.8,115.1,175.3,5,247.4,5c3.9,0,7,3.1,7,7s-3.1,7-7,7
	c-63.2,0-114.6,106.2-114.6,236.7c0,130.5,51.4,236.7,114.6,236.7c3.9,0,7,3.1,7,7S251.2,506.3,247.4,506.3z"/>
<path class="st1" d="M270.2,506c-3.9,0-7-3.1-7-7c0-3.9,3.1-7,7-7c63.2,0,114.6-106.1,114.6-236.4c0-130.4-51.4-236.4-114.6-236.4
	c-3.9,0-7-3.1-7-7s3.1-7,7-7c72.1,0,128.6,110,128.6,250.4C398.8,396,342.3,506,270.2,506z"/>
</svg>
