<?xml version="1.0" encoding="utf-8"?>
<!-- Generator: Adobe Illustrator 22.0.0, SVG Export Plug-In . SVG Version: 6.00 Build 0)  -->
<svg version="1.1" id="Layer_1" xmlns="http://www.w3.org/2000/svg" xmlns:xlink="http://www.w3.org/1999/xlink" x="0px" y="0px"
	 viewBox="0 0 512 512" style="enable-background:new 0 0 512 512;" xml:space="preserve">
<style type="text/css">
	.st0{fill:#5E686B;}
	.st1{fill:#3FC6F1;}
</style>
<path class="st0" d="M316.2,493.9H288v-91.6c0,0,0,0,0,0c0-1.9-0.8-3.6-2-4.8c-1.2-1.2-3-2-4.8-2c0,0,0,0,0,0
	c-118.4,0-214.8-96.4-214.8-214.8c0-3.8-3.1-6.9-6.9-6.9s-6.9,3.1-6.9,6.9c0,123.7,98.8,224.7,221.6,228.4v84.9h-26.7
	c-3.8,0-6.9,3.1-6.9,6.9s3.1,6.9,6.9,6.9h68.5c3.8,0,6.9-3.1,6.9-6.9S320,493.9,316.2,493.9z"/>
<path class="st1" d="M281.2,2.4C182.9,2.4,103,82.3,103,180.6c0,98.2,79.9,178.2,178.2,178.2c98.2,0,178.2-79.9,178.2-178.2
	S379.4,2.4,281.2,2.4z M281.2,345c-90.7,0-164.5-73.8-164.5-164.5c0-90.7,73.8-164.5,164.5-164.5c90.7,0,164.5,73.8,164.5,164.5
	C445.6,271.3,371.8,345,281.2,345z"/>
</svg>
