<?xml version="1.0" encoding="utf-8"?>
<!-- Generator: Adobe Illustrator 22.0.0, SVG Export Plug-In . SVG Version: 6.00 Build 0)  -->
<svg version="1.1" id="Layer_1" xmlns="http://www.w3.org/2000/svg" xmlns:xlink="http://www.w3.org/1999/xlink" x="0px" y="0px"
	 viewBox="0 0 512 512" style="enable-background:new 0 0 512 512;" xml:space="preserve">
<style type="text/css">
	.st0{fill:#5E686B;}
	.st1{fill:#3FC6F1;}
</style>
<path class="st0" d="M256,206.8c-27.1,0-49.2,22.1-49.2,49.2c0,27.1,22.1,49.2,49.2,49.2c27.1,0,49.2-22.1,49.2-49.2
	C305.2,228.9,283.1,206.8,256,206.8z M256,291.1c-19.4,0-35.1-15.8-35.1-35.1c0-19.4,15.8-35.1,35.1-35.1
	c19.4,0,35.1,15.8,35.1,35.1C291.2,275.4,275.4,291.1,256,291.1z"/>
<path class="st1" d="M256,108.4c-81.4,0-147.6,66.2-147.6,147.6S174.6,403.6,256,403.6c81.4,0,147.6-66.2,147.6-147.6
	S337.4,108.4,256,108.4z M256,389.5c-73.6,0-133.5-59.9-133.5-133.5S182.4,122.4,256,122.4S389.5,182.3,389.5,256
	S329.6,389.5,256,389.5z"/>
<path class="st0" d="M256,3C116.5,3,3,116.5,3,256s113.5,253,253,253c139.5,0,253-113.5,253-253C509,116.5,395.5,3,256,3z
	 M263,494.8v-35c0-3.9-3.1-7-7-7c-3.9,0-7,3.1-7,7v35C122.8,491.1,20.8,389.2,17.2,263h35c3.9,0,7-3.1,7-7s-3.1-7-7-7h-35
	C20.8,122.8,122.8,20.8,249,17.1v35c0,3.9,3.1,7,7,7c3.9,0,7-3.1,7-7v-35c126.2,3.7,228.1,105.6,231.8,231.8h-36.7c-3.9,0-7,3.1-7,7
	c0,3.9,3.1,7,7,7h36.7C491.2,389.2,389.2,491.1,263,494.8z"/>
</svg>
