<?xml version="1.0" encoding="utf-8"?>
<!-- Generator: Adobe Illustrator 22.0.0, SVG Export Plug-In . SVG Version: 6.00 Build 0)  -->
<svg version="1.1" id="Layer_1" xmlns="http://www.w3.org/2000/svg" xmlns:xlink="http://www.w3.org/1999/xlink" x="0px" y="0px"
	 viewBox="0 0 512 512" style="enable-background:new 0 0 512 512;" xml:space="preserve">
<style type="text/css">
	.st0{fill:#5E686B;}
	.st1{fill:#3FC6F1;}
</style>
<path class="st0" d="M209.8,310.4c-96.3,0-145.1,27-145.1,80.3c0,54.9,41.5,89,108.3,89c72.1,0,111.7-26.6,111.7-74.8
	c0-42.4-33.9-66.5-58.7-84.2c-4.3-3.1-8.4-6-12.1-8.8C212.8,310.9,211.4,310.4,209.8,310.4z M271.1,404.8c0,50.5-53.3,61.1-98,61.1
	c-59.2,0-94.6-28.1-94.6-75.2c0-43.8,43.4-66.1,129.1-66.5c3.3,2.5,6.9,5,10.6,7.7C241.7,348.6,271.1,369.5,271.1,404.8z"/>
<path class="st1" d="M326.7,4.2H167.1c-35.2,0-127.7,39.4-127.7,128c0,37.8,17.6,68.1,50.9,87.5c23.1,13.5,49.5,19.4,69.3,20.8
	c-5.9,13.3-5.6,31.1,14.5,52.5c0.9,1,1.7,1.9,2.3,2.6c-0.4,0-0.8,0-1.3,0C158,295.6,8,298.8,8,410.2C8,478.5,82.7,509,156.7,509
	c50.9,0,98.6-14.2,124.5-37c31.4-27.7,47.6-63,45.7-99.3c-1.7-32.9-18.8-64-45.6-83.1c-27.7-19.7-49-35.8-49.7-48.6
	c-0.3-6.1,4.1-13.1,13.5-21.4c32.1-28.3,59.8-52.7,59.8-108.8c0-33.9-16.6-57.7-30-71.4c13.2-0.3,23.7-2.5,31.2-6.7
	c17.1-9.6,24.7-15.9,25-16.2c2.2-1.9,3.1-4.9,2.1-7.6C332.2,6.1,329.6,4.2,326.7,4.2z M299.3,20.6c-5.8,3.3-15.2,5-27,5
	c-9.2,0-16.6-1.1-16.7-1.1c-3.1-0.5-6.3,1.4-7.5,4.4c-1.1,3.1,0.1,6.5,2.8,8.2c0.4,0.2,40.2,25.4,40.2,73.6
	c0,49.8-24.3,71.3-55.1,98.4c-12.9,11.4-18.7,21.7-18.1,32.4c1,19,21.6,35,55.4,59.1c23.5,16.7,38.4,43.9,39.9,72.7
	c1.7,32.1-12.9,63.4-41.1,88.3c-23.5,20.7-67.7,33.6-115.4,33.6c-67.2,0-135-26.3-135-85.1c0-98,137.7-100.9,153.4-100.9
	c4.4,0,13.4,0,16.5-7c2.8-6.4-1.9-12.8-7.5-18.8c-16.1-17.2-18.4-31.6-7.1-45.4c1.7-2.1,2-5,0.8-7.4c-1.2-2.3-3.6-3.8-6.1-3.8
	c-0.1,0-0.2,0-0.3,0l-3.3,0.1c-32,0-115.1-17-115.1-94.9C53.1,53.1,135.7,18,167.1,18h136.8C302.4,18.8,300.9,19.7,299.3,20.6z"/>
<path class="st0" d="M160.4,20.4c-20.5,0-37.2,8.3-48.2,24c-9.4,13.5-14.3,31.9-14.3,53.4c0,57.7,34.7,122,84.5,122
	c21.8,0,39.3-7.7,50.6-22.2c9.8-12.6,15-30.2,15-50.8c0-57.2-38.4-126.4-86.1-126.4L160.4,20.4z M234.4,146.7
	c0,17.6-4.2,32.3-12.1,42.4c-8.8,11.3-22.2,17-39.8,17c-40.5,0-70.8-57.2-70.8-108.3c0-18.7,4.1-34.4,11.9-45.6
	c8.4-12,20.8-18.1,37.1-18.1l1.3,0C200.3,34.1,234.4,97.1,234.4,146.7z"/>
<path class="st0" d="M498.4,81h-61.8V19.2c0-3.8-3.1-6.9-6.9-6.9s-6.9,3.1-6.9,6.9V81H361c-3.8,0-6.9,3.1-6.9,6.9
	c0,3.8,3.1,6.9,6.9,6.9h61.8v61.8c0,3.8,3.1,6.9,6.9,6.9s6.9-3.1,6.9-6.9V94.7h61.8c3.8,0,6.9-3.1,6.9-6.9
	C505.2,84.1,502.2,81,498.4,81z"/>
</svg>
