<?xml version="1.0" encoding="utf-8"?>
<!-- Generator: Adobe Illustrator 22.0.0, SVG Export Plug-In . SVG Version: 6.00 Build 0)  -->
<svg version="1.1" id="Layer_1" xmlns="http://www.w3.org/2000/svg" xmlns:xlink="http://www.w3.org/1999/xlink" x="0px" y="0px"
	 viewBox="0 0 512 512" style="enable-background:new 0 0 512 512;" xml:space="preserve">
<style type="text/css">
	.st0{fill:#5E686C;}
	.st1{fill:#3FC6F1;}
</style>
<path class="st0" d="M10.9,197.5c-2.5,0-4.9-1.4-6.2-3.7c-1.8-3.4-0.4-7.6,3-9.3l238-123.6c6.5-5.6,16.3-5.6,22.9,0l233.8,119.5
	c3.4,1.7,4.8,5.9,3,9.3c-1.7,3.4-5.9,4.8-9.3,3l-234.7-120c-0.6-0.3-1.2-0.7-1.7-1.2c-1.4-1.4-3.8-1.4-5.2,0
	c-0.5,0.5-1.1,0.9-1.7,1.2l-238.8,124C13.1,197.2,12,197.5,10.9,197.5z"/>
<path class="st0" d="M380.3,326.5H134.8c-10.1,0-17.9-6.2-17.9-14.2v-97.9c0-3.8,3.1-6.9,6.9-6.9s6.9,3.1,6.9,6.9v97.9
	c0-0.6,1.5,0.4,4.1,0.4h245.5c2.5,0,4-0.9,4.3-1.3l-0.2-101.7c0-3.8,3.1-6.9,6.9-6.9c3.8,0,6.9,3.1,6.9,6.9v102.6
	C398.2,320.2,390.4,326.5,380.3,326.5z"/>
<path class="st1" d="M79.9,468.5c-3.8,0-6.9-3.1-6.9-6.9V206.5c0-3.8,3.1-6.9,6.9-6.9c3.8,0,6.9,3.1,6.9,6.9v255.1
	C86.9,465.4,83.8,468.5,79.9,468.5z"/>
<path class="st0" d="M257.2,245.3c-0.4,0-0.8,0-1.2-0.1L10.8,201.1c-3.8-0.7-6.3-4.3-5.6-8.1c0.7-3.8,4.3-6.2,8-5.6l245.2,44.1
	c3.8,0.7,6.3,4.3,5.6,8.1C263.4,242.9,260.5,245.3,257.2,245.3z"/>
<path class="st0" d="M257.2,245.3c-3.2,0-6.1-2.2-6.8-5.5c-0.8-3.7,1.6-7.4,5.3-8.2l242.1-51.9c3.7-0.8,7.4,1.6,8.2,5.3
	c0.8,3.7-1.6,7.4-5.3,8.2l-242.1,51.9C258.1,245.2,257.6,245.3,257.2,245.3z"/>
</svg>
