<?xml version="1.0" encoding="utf-8"?>
<!-- Generator: Adobe Illustrator 22.0.0, SVG Export Plug-In . SVG Version: 6.00 Build 0)  -->
<svg version="1.1" id="Layer_1" xmlns="http://www.w3.org/2000/svg" xmlns:xlink="http://www.w3.org/1999/xlink" x="0px" y="0px"
	 viewBox="0 0 512 512" style="enable-background:new 0 0 512 512;" xml:space="preserve">
<style type="text/css">
	.st0{fill:#3FC6F1;}
	.st1{fill:#5E686B;}
</style>
<path class="st0" d="M470.8,483c-0.4,0-0.8,0-1.2-0.1l-56.5-10.4c-1.7-0.3-3.2-1.3-4.2-2.7L284.7,296.4c-1.2-1.6-1.5-3.7-1-5.6
	L345.1,68c0.8-2.8,3.2-4.7,6.1-4.9c2.9-0.1,5.5,1.6,6.5,4.2l55,140c3.1,7.8-0.3,17.5-7.7,22.1l-21.4,13.1l120.6,167.7
	c1.1,1.5,1.5,3.3,1.1,5.1l-9.6,50.8c-0.4,1.8-1.4,3.4-3,4.4L474.3,482C473.3,482.6,472,483,470.8,483z M418.2,459.9l51.3,9.4
	l13.8-8.6l8.5-45.2L368.6,244.4c-1.1-1.5-1.5-3.4-1.1-5.2c0.4-1.8,1.5-3.4,3.1-4.4l27.5-16.8c2.1-1.3,2.9-4.2,2.3-5.9L352.6,90.8
	l-55.2,200.4L418.2,459.9z"/>
<path class="st1" d="M173,504h-22.4c-1.7,0-3.4-0.7-4.6-1.9l-38.4-37.4c-1.3-1.3-2-3-2-4.8V260.8H81.9c-8.6,0-17-6.1-19.1-14
	L6.4,40.7c-1.1-4.1-0.4-8.5,1.9-12c2.5-3.7,6.6-6.2,11.3-6.8L142.2,5.8c5.9-0.7,15.2-1.3,21.2-1.3c5.9,0,15.4,0.6,21.1,1.3
	l122.6,16.1c4.7,0.6,8.9,3.1,11.3,6.9c2.3,3.5,3,7.9,1.8,12l-56.3,206.2c-2.1,7.8-10.5,13.9-19.2,13.9h-23.7V460
	c0,1.9-0.8,3.7-2.2,4.9l-40.9,36.9C176.9,502.9,174.7,504,173,504z M153.4,490.7h17.1l37.4-33.7V254.2c0-3.7,3-6.7,6.7-6.7h30.4
	c2.9,0,5.8-2.2,6.3-4.1l56.3-206.3c-0.5-1.6-1.2-2-2.1-2.1L182.9,19c-5.1-0.6-14.1-1.2-19.4-1.2c-5.5,0-14.3,0.5-19.6,1.2L21.4,35.1
	c-0.9,0.1-1.6,0.5-2,1l56.2,207.3c0.5,1.9,3.4,4.1,6.2,4.1h30.4c3.7,0,6.7,3,6.7,6.7v203L153.4,490.7z"/>
<path class="st0" d="M163.7,134.2c-25.7,0-46.6-20.9-46.6-46.6c0-25.7,20.9-46.6,46.6-46.6c25.7,0,46.6,20.9,46.6,46.6
	C210.3,113.3,189.4,134.2,163.7,134.2z M163.7,54.3c-18.3,0-33.3,14.9-33.3,33.3c0,18.3,14.9,33.3,33.3,33.3
	c18.3,0,33.3-14.9,33.3-33.3C197,69.3,182.1,54.3,163.7,54.3z"/>
</svg>
