<?xml version="1.0" encoding="utf-8"?>
<!-- Generator: Adobe Illustrator 22.0.0, SVG Export Plug-In . SVG Version: 6.00 Build 0)  -->
<svg version="1.1" id="Layer_1" xmlns="http://www.w3.org/2000/svg" xmlns:xlink="http://www.w3.org/1999/xlink" x="0px" y="0px"
	 viewBox="0 0 512 512" style="enable-background:new 0 0 512 512;" xml:space="preserve">
<style type="text/css">
	.st0{fill:#5E686C;}
	.st1{fill:#3FC6F1;}
</style>
<path class="st0" d="M414.5,346.5H96.8c-3.8,0-6.8-3-6.8-6.8c0-3.8,3-6.8,6.8-6.8h317.7c3.8,0,6.8,3,6.8,6.8
	C421.3,343.5,418.2,346.5,414.5,346.5z"/>
<path class="st0" d="M414.5,409c-3.8,0-6.8-3-6.8-6.8V244.4c0-83.8-68.2-152.1-152.1-152.1c-83.8,0-152,68.2-152,152.1v157.8
	c0,3.8-3,6.8-6.8,6.8c-3.8,0-6.8-3-6.8-6.8V244.4c0-91.3,74.3-165.6,165.6-165.6c91.3,0,165.6,74.3,165.6,165.6v157.8
	C421.3,406,418.2,409,414.5,409z"/>
<path class="st1" d="M403.9,410H107.4C51.1,410,5.3,364.2,5.3,307.9c0-3.8,3-6.8,6.8-6.8s6.8,3,6.8,6.8c0,48.8,39.7,88.5,88.5,88.5
	h296.5c48.8,0,88.5-39.7,88.5-88.5c0-3.8,3-6.8,6.8-6.8s6.8,3,6.8,6.8C506,364.2,460.2,410,403.9,410z"/>
</svg>
