<?xml version="1.0" encoding="utf-8"?>
<!-- Generator: Adobe Illustrator 22.0.0, SVG Export Plug-In . SVG Version: 6.00 Build 0)  -->
<svg version="1.1" id="Layer_1" xmlns="http://www.w3.org/2000/svg" xmlns:xlink="http://www.w3.org/1999/xlink" x="0px" y="0px"
	 viewBox="0 0 512 512" style="enable-background:new 0 0 512 512;" xml:space="preserve">
<style type="text/css">
	.st0{fill:#5E686B;}
	.st1{fill:#3FC6F1;}
</style>
<path class="st0" d="M12.2,357c-3.7,0-6.7-3-6.7-6.7v-58.4c0-138.8,112.9-251.7,251.7-251.7c138.8,0,251.7,112.9,251.7,251.7v53.3
	c0,3.7-3,6.7-6.7,6.7c-3.7,0-6.7-3-6.7-6.7v-53.3c0-131.3-106.8-238.2-238.2-238.2C125.8,53.7,19,160.6,19,291.9v58.4
	C19,354,16,357,12.2,357z"/>
<path class="st1" d="M103.8,466.5c-30.2,0-54.7-24.5-54.7-54.7v-88.5c0-30.2,24.5-54.7,54.7-54.7s54.7,24.6,54.7,54.7v88.5
	C158.5,442,134,466.5,103.8,466.5z M103.8,282.1c-22.7,0-41.2,18.5-41.2,41.3v88.5c0,22.7,18.5,41.2,41.2,41.2
	c22.7,0,41.2-18.5,41.2-41.2v-88.5C145,300.6,126.5,282.1,103.8,282.1z"/>
<path class="st1" d="M410.5,466.5c-30.2,0-54.7-24.5-54.7-54.7v-88.5c0-30.2,24.5-54.7,54.7-54.7c30.2,0,54.7,24.6,54.7,54.7v88.5
	C465.3,442,440.7,466.5,410.5,466.5z M410.5,282.1c-22.7,0-41.2,18.5-41.2,41.3v88.5c0,22.7,18.5,41.2,41.2,41.2
	c22.7,0,41.2-18.5,41.2-41.2v-88.5C451.8,300.6,433.3,282.1,410.5,282.1z"/>
</svg>
