<?xml version="1.0" encoding="utf-8"?>
<!-- Generator: Adobe Illustrator 22.0.0, SVG Export Plug-In . SVG Version: 6.00 Build 0)  -->
<svg version="1.1" id="Layer_1" xmlns="http://www.w3.org/2000/svg" xmlns:xlink="http://www.w3.org/1999/xlink" x="0px" y="0px"
	 viewBox="0 0 512 512" style="enable-background:new 0 0 512 512;" xml:space="preserve">
<style type="text/css">
	.st0{fill:#5E686C;}
	.st1{fill:#3FC6F1;}
</style>
<path class="st0" d="M191.9,332.2c-15.1,0-27.4-12.3-27.4-27.4c0-15.1,12.3-27.4,27.4-27.4c15.1,0,27.4,12.3,27.4,27.4
	C219.3,319.9,207,332.2,191.9,332.2z M191.9,291.1c-7.6,0-13.7,6.1-13.7,13.7c0,7.6,6.2,13.7,13.7,13.7c7.6,0,13.7-6.2,13.7-13.7
	C205.6,297.2,199.5,291.1,191.9,291.1z"/>
<path class="st0" d="M328.7,332.2c-15.1,0-27.4-12.3-27.4-27.4c0-15.1,12.3-27.4,27.4-27.4c15.1,0,27.4,12.3,27.4,27.4
	C356.1,319.9,343.8,332.2,328.7,332.2z M328.7,291.1c-7.6,0-13.7,6.1-13.7,13.7c0,7.6,6.2,13.7,13.7,13.7c7.6,0,13.7-6.2,13.7-13.7
	C342.4,297.2,336.2,291.1,328.7,291.1z"/>
<path class="st1" d="M295.9,460.6c-18.9,0-34.3-15.4-34.3-34.3c0-18.9,15.4-34.3,34.3-34.3c18.9,0,34.3,15.4,34.3,34.3
	C330.1,445.3,314.8,460.6,295.9,460.6z M295.9,405.8c-11.3,0-20.6,9.2-20.6,20.6c0,11.3,9.2,20.6,20.6,20.6
	c11.3,0,20.6-9.2,20.6-20.6C316.4,415,307.2,405.8,295.9,405.8z"/>
<path class="st0" d="M397.3,246.1c-128.8,0-200.9-82.3-204.1-86c-2.4-3.1-4.1-2.8-5.9-0.3l-73.5,83.6c-2.5,2.8-6.8,3.1-9.7,0.6
	c-2.8-2.5-3.1-6.8-0.6-9.7l73.1-83.2c5.9-7.9,20.6-8.3,27.2,0.4c0.5,0.5,76.7,87.2,208.1,80.5c4.1-0.2,7,2.7,7.2,6.5
	c0.2,3.8-2.7,7-6.5,7.2C407.5,246,402.3,246.1,397.3,246.1z"/>
<path class="st0" d="M261.9,508.9c-96.8,0-167-72.9-167-173.4c0-3.8,3.1-6.9,6.9-6.9s6.9,3.1,6.9,6.9c0,92.5,64.5,159.7,153.3,159.7
	s153.3-64.8,153.3-154.1c0-3.8,3.1-6.9,6.9-6.9c3.8,0,6.9,3.1,6.9,6.9C428.9,436.8,357.1,508.9,261.9,508.9z"/>
<path class="st1" d="M460.6,347.5h-27.4c-14.9,0-27.4-12.6-27.4-27.4v-96c0-14.9,12.6-27.4,27.4-27.4h27.4
	c14.9,0,27.4,12.6,27.4,27.4v96C488,335,475.4,347.5,460.6,347.5z M433.2,210.4c-7.2,0-13.7,6.5-13.7,13.7v96
	c0,7.2,6.5,13.7,13.7,13.7h27.4c7.2,0,13.7-6.5,13.7-13.7v-96c0-7.2-6.5-13.7-13.7-13.7H433.2z"/>
<path class="st1" d="M324.9,433c-3.8,0-6.9-3.1-6.9-6.9c0-3.8,3.1-6.9,6.9-6.9h25.4c2.2-0.2,64.9-5.6,64.9-82.1
	c0-3.8,3.1-6.9,6.9-6.9c3.8,0,6.9,3.1,6.9,6.9c0,89.6-77.4,95.7-78.2,95.8L324.9,433z"/>
<path class="st1" d="M88,348H60.4c-14.9,0-27.6-12.6-27.6-27.6v-96.6c0-14.9,12.6-27.6,27.6-27.6h8.3C69.4,89.6,156.4,3,263.3,3
	c107.2,0,194.4,89.8,194.4,200.1c0,3.8-3.1,6.9-6.9,6.9s-6.9-3.1-6.9-6.9c0-102.8-81.1-186.4-180.7-186.4
	C164,16.7,83.1,97.1,82.4,196.3H88c14.9,0,27.6,12.6,27.6,27.6v96.6C115.5,335.4,102.9,348,88,348z M60.4,210
	c-7.2,0-13.8,6.6-13.8,13.8v96.6c0,7.2,6.6,13.9,13.8,13.9H88c7.2,0,13.9-6.6,13.9-13.9v-96.6c0-7.2-6.6-13.8-13.9-13.8L60.4,210
	L60.4,210z"/>
</svg>
