<?xml version="1.0" encoding="utf-8"?>
<!-- Generator: Adobe Illustrator 22.0.0, SVG Export Plug-In . SVG Version: 6.00 Build 0)  -->
<svg version="1.1" id="Layer_1" xmlns="http://www.w3.org/2000/svg" xmlns:xlink="http://www.w3.org/1999/xlink" x="0px" y="0px"
	 viewBox="0 0 512 512" style="enable-background:new 0 0 512 512;" xml:space="preserve">
<style type="text/css">
	.st0{fill:#5E686C;}
	.st1{fill:#3FC6F1;}
</style>
<path class="st0" d="M497.2,503.2H304.4c-3.8,0-6.9-3.1-6.9-6.9V303.6c0-3.8,3.1-6.9,6.9-6.9h192.8c3.8,0,6.9,3.1,6.9,6.9v192.8
	C504.1,500.1,501,503.2,497.2,503.2z M311.3,489.4h179v-179h-179V489.4z"/>
<path class="st0" d="M207.5,503.2H14.7c-3.8,0-6.9-3.1-6.9-6.9V303.6c0-3.8,3.1-6.9,6.9-6.9h192.8c3.8,0,6.9,3.1,6.9,6.9v192.8
	C214.4,500.1,211.3,503.2,207.5,503.2z M21.6,489.4h179v-179h-179V489.4z"/>
<path class="st0" d="M400.8,259.1H111.1c-3.8,0-6.9-3.1-6.9-6.9c0-3.8,3.1-6.9,6.9-6.9h289.7c3.8,0,6.9,3.1,6.9,6.9
	C407.7,256,404.6,259.1,400.8,259.1z"/>
<path class="st0" d="M400.8,307.3c-3.8,0-6.9-3.1-6.9-6.9v-48.2c0-3.8,3.1-6.9,6.9-6.9c3.8,0,6.9,3.1,6.9,6.9v48.2
	C407.7,304.2,404.6,307.3,400.8,307.3z"/>
<path class="st0" d="M111.1,307.3c-3.8,0-6.9-3.1-6.9-6.9v-48.2c0-3.8,3.1-6.9,6.9-6.9s6.9,3.1,6.9,6.9v48.2
	C118,304.2,114.9,307.3,111.1,307.3z"/>
<path class="st0" d="M256,259.1c-3.8,0-6.9-3.1-6.9-6.9v-42.3c0-3.8,3.1-6.9,6.9-6.9c3.8,0,6.9,3.1,6.9,6.9v42.3
	C262.8,256,259.8,259.1,256,259.1z"/>
<path class="st1" d="M352.6,216.8H159.9c-3.8,0-6.9-3.1-6.9-6.9V10.8c0-3.8,3.1-6.9,6.9-6.9h192.7c3.8,0,6.9,3.1,6.9,6.9v199.2
	C359.5,213.7,356.4,216.8,352.6,216.8z M166.7,203h179V17.6h-179V203z"/>
</svg>
