<?xml version="1.0" encoding="utf-8"?>
<!-- Generator: Adobe Illustrator 22.0.0, SVG Export Plug-In . SVG Version: 6.00 Build 0)  -->
<svg version="1.1" id="Layer_1" xmlns="http://www.w3.org/2000/svg" xmlns:xlink="http://www.w3.org/1999/xlink" x="0px" y="0px"
	 viewBox="0 0 512 512" style="enable-background:new 0 0 512 512;" xml:space="preserve">
<style type="text/css">
	.st0{fill:#5E686B;}
	.st1{fill:#3FC6F1;}
</style>
<path class="st0" d="M499.1,250.4L263.7,14.9c-2.5-2.5-6.8-2.5-9.3,0L18.9,250.4c-2.6,2.6-2.6,6.7,0,9.3c1.3,1.3,3,1.9,4.6,1.9
	c1.7,0,3.4-0.6,4.6-1.9L259,28.8l230.8,230.8c2.6,2.6,6.7,2.6,9.3,0C501.7,257.1,501.7,252.9,499.1,250.4z"/>
<path class="st0" d="M453.5,248.6c-3.5-0.8-7.1,1.3-7.9,4.8l-57.4,230.5h-58.4v-94.4c0-3.6-2.9-6.5-6.5-6.5H194.9
	c-3.6,0-6.5,2.9-6.5,6.5v94.4h-58.6L71,253.4c-0.9-3.5-4.5-5.6-8-4.7c-3.5,0.9-5.6,4.5-4.7,8l60.1,235.5c0,0,0,0.1,0,0.1
	c0.1,0.3,0.2,0.6,0.3,0.9c0,0,0,0.1,0.1,0.1c0.1,0.3,0.3,0.6,0.5,0.8c0,0,0,0,0,0.1c0.2,0.3,0.4,0.5,0.6,0.7c0,0,0.1,0.1,0.1,0.1
	c0.2,0.2,0.4,0.4,0.7,0.6c0,0,0.1,0.1,0.1,0.1c0.5,0.4,1.1,0.7,1.8,0.9c0,0,0.1,0,0.1,0c0.3,0.1,0.6,0.2,0.9,0.2c0.1,0,0.1,0,0.2,0
	c0.3,0,0.7,0.1,1,0.1h268.6c0.3,0,0.7,0,1-0.1c0.1,0,0.1,0,0.2,0c0.3-0.1,0.6-0.1,0.9-0.2c0,0,0.1,0,0.1,0c0.6-0.2,1.2-0.5,1.7-0.9
	c0,0,0.1-0.1,0.1-0.1c0.2-0.2,0.5-0.4,0.7-0.6c0.1-0.1,0.1-0.1,0.2-0.2c0.2-0.2,0.4-0.5,0.6-0.7c0,0,0.1-0.1,0.1-0.1
	c0.1-0.2,0.3-0.5,0.4-0.7c0-0.1,0.1-0.1,0.1-0.2c0.1-0.3,0.2-0.6,0.3-0.9c0,0,0-0.1,0-0.1l58.6-235.5
	C459.2,253.1,457,249.5,453.5,248.6z M201.5,396.1h115.2v87.8H201.5V396.1z"/>
<path class="st1" d="M259,258.6c39,0,70.8-31.8,70.8-70.9c0-39.1-31.7-70.9-70.8-70.9c-39,0-70.8,31.8-70.8,70.9
	C188.3,226.8,220,258.6,259,258.6z M259,129.9c31.8,0,57.7,25.9,57.7,57.8s-25.9,57.8-57.7,57.8c-31.8,0-57.7-25.9-57.7-57.8
	C201.4,155.8,227.2,129.9,259,129.9z"/>
</svg>
