<?xml version="1.0" encoding="utf-8"?>
<!-- Generator: Adobe Illustrator 22.0.0, SVG Export Plug-In . SVG Version: 6.00 Build 0)  -->
<svg version="1.1" id="Layer_1" xmlns="http://www.w3.org/2000/svg" xmlns:xlink="http://www.w3.org/1999/xlink" x="0px" y="0px"
	 viewBox="0 0 512 512" style="enable-background:new 0 0 512 512;" xml:space="preserve">
<style type="text/css">
	.st0{fill:#3FC6F1;}
	.st1{fill:#5E686C;}
</style>
<path class="st0" d="M324.2,503c-3.8,0-6.9-3.1-6.9-6.9V298.9H195.2v194.3c0,3.8-3.1,6.9-6.9,6.9s-6.9-3.1-6.9-6.9V292.1
	c0-3.8,3.1-6.9,6.9-6.9h135.9c3.8,0,6.9,3.1,6.9,6.9v204.1C331.1,499.9,328,503,324.2,503z"/>
<path class="st1" d="M426.9,507H85.8c-3.8,0-6.9-3.1-6.9-6.9V223.7c0-3.8,3.1-6.9,6.9-6.9s6.9,3.1,6.9,6.9v269.6H420V223.7
	c0-3.8,3.1-6.9,6.9-6.9s6.9,3.1,6.9,6.9v276.5C433.7,504,430.6,507,426.9,507z"/>
<path class="st1" d="M503.4,215.1c-1.4,0-2.8-0.4-4-1.3L256.3,39.9L13.2,213.8c-3.1,2.2-7.4,1.5-9.6-1.6c-2.2-3.1-1.5-7.4,1.6-9.6
	L252.3,25.9c2.4-1.7,5.6-1.7,8,0l247.1,176.8c3.1,2.2,3.8,6.5,1.6,9.6C507.7,214.1,505.6,215.1,503.4,215.1z"/>
</svg>
