<?xml version="1.0" encoding="utf-8"?>
<!-- Generator: Adobe Illustrator 22.0.0, SVG Export Plug-In . SVG Version: 6.00 Build 0)  -->
<svg version="1.1" id="Layer_1" xmlns="http://www.w3.org/2000/svg" xmlns:xlink="http://www.w3.org/1999/xlink" x="0px" y="0px"
	 viewBox="0 0 512 512" style="enable-background:new 0 0 512 512;" xml:space="preserve">
<style type="text/css">
	.st0{fill:#5E686B;}
	.st1{fill:#3FC6F1;}
</style>
<path class="st0" d="M259.5,510c-0.6,0-1.3-0.1-1.9-0.3L81,459.9c-2.7-0.8-4.7-3.1-4.9-6L36.7,11.2c-0.2-1.9,0.5-3.8,1.8-5.2
	s3.1-2.2,5-2.2l433.1,0c1.9,0,3.7,0.8,5,2.2c1.3,1.4,1.9,3.3,1.8,5.2L444,453.9c-0.3,2.8-2.2,5.2-5,6l-177.8,49.8
	C260.7,509.9,260.1,510,259.5,510z M89.2,448.1l170.2,48L430.9,448l38.3-430.6l-418.2,0L89.2,448.1z"/>
<path class="st1" d="M382.2,237.7H135.5c-3.5,0-6.5-2.7-6.8-6.2l-11.4-129.7c-0.2-1.9,0.5-3.8,1.8-5.2c1.3-1.4,3.1-2.2,5-2.2H396
	c3.8,0,6.8,3,6.8,6.8c0,3.8-3,6.8-6.8,6.8H131.5L141.7,224h240.4c3.8,0,6.8,3,6.8,6.8C389,234.6,385.9,237.7,382.2,237.7z"/>
<path class="st1" d="M260.7,415.8c-0.6,0-2.4-0.1-3-0.3l-111.4-30.8c-2.8-0.8-4.8-3.2-5-6l-6.8-85.6c-0.3-3.7,2.5-7,6.3-7.3
	c3.8-0.3,7,2.5,7.3,6.3l6.4,80.8l105,29.1l105.2-29.1l10.7-142.5c0.3-3.8,3.6-6.6,7.3-6.3c3.8,0.3,6.6,3.6,6.3,7.3l-11.1,147.3
	c-0.2,2.9-2.2,5.3-5,6.1l-108.8,30.1C263.1,415.5,261.9,415.8,260.7,415.8z"/>
</svg>
