<?xml version="1.0" encoding="utf-8"?>
<!-- Generator: Adobe Illustrator 22.0.0, SVG Export Plug-In . SVG Version: 6.00 Build 0)  -->
<svg version="1.1" id="Layer_1" xmlns="http://www.w3.org/2000/svg" xmlns:xlink="http://www.w3.org/1999/xlink" x="0px" y="0px"
	 viewBox="0 0 512 512" style="enable-background:new 0 0 512 512;" xml:space="preserve">
<style type="text/css">
	.st0{fill:#5E686B;}
	.st1{fill:#3FC6F1;}
</style>
<path class="st0" d="M455.2,505.4H64.3c-3.8,0-6.8-3-6.8-6.8V140.2c0-3.8,3-6.8,6.8-6.8h390.9c3.8,0,6.8,3,6.8,6.8v358.3
	C462,502.3,459,505.4,455.2,505.4z M71.1,491.8h377.3V147.1H71.1V491.8z"/>
<path class="st1" d="M409.6,81.9H110c-3.8,0-6.8-3-6.8-6.8s3-6.8,6.8-6.8h299.6c3.8,0,6.8,3,6.8,6.8S413.3,81.9,409.6,81.9z"/>
<path class="st1" d="M341.5,16.8H178c-3.8,0-6.8-3-6.8-6.8c0-3.8,3-6.8,6.8-6.8h163.4c3.8,0,6.8,3,6.8,6.8
	C348.3,13.7,345.2,16.8,341.5,16.8z"/>
<path class="st0" d="M341.2,293.6H178.3c-3.8,0-6.8-3-6.8-6.8v-32.6c0-3.8,3-6.8,6.8-6.8c3.8,0,6.8,3,6.8,6.8V280h149.3v-25.8
	c0-3.8,3-6.8,6.8-6.8c3.8,0,6.8,3,6.8,6.8v32.6C348,290.6,345,293.6,341.2,293.6z"/>
</svg>
