<?xml version="1.0" encoding="utf-8"?>
<!-- Generator: Adobe Illustrator 22.0.0, SVG Export Plug-In . SVG Version: 6.00 Build 0)  -->
<svg version="1.1" id="Layer_1" xmlns="http://www.w3.org/2000/svg" xmlns:xlink="http://www.w3.org/1999/xlink" x="0px" y="0px"
	 viewBox="0 0 512 512" style="enable-background:new 0 0 512 512;" xml:space="preserve">
<style type="text/css">
	.st0{fill:#5E686B;}
	.st1{fill:#3FC6F1;}
</style>
<path class="st0" d="M58.4,400.2c-29.9,0-54.2,24.3-54.2,54.1c0,29.9,24.3,54.1,54.2,54.1s54.1-24.3,54.1-54.1
	C112.5,424.5,88.2,400.2,58.4,400.2z M58.4,495c-22.4,0-40.6-18.2-40.6-40.6c0-22.4,18.2-40.6,40.6-40.6S99,432,99,454.3
	C99,476.7,80.8,495,58.4,495z"/>
<path class="st0" d="M256.4,400.2c-12.6,0-24.2,4.3-33.4,11.6L100.3,289.2c7.6-9.3,12.2-21.3,12.2-34.2c0-27.6-20.7-50.4-47.4-53.7
	v-92c26.7-3.3,47.4-26.1,47.4-53.7c0-29.9-24.3-54.2-54.1-54.2C28.5,1.4,4.2,25.7,4.2,55.5c0,27.6,20.7,50.4,47.4,53.7v92
	c-26.7,3.3-47.4,26.1-47.4,53.7c0,29.9,24.3,54.1,54.2,54.1c12,0,23.1-3.9,32.1-10.6l122.9,122.9c-7,9.1-11.2,20.5-11.2,32.9
	c0,29.9,24.3,54.1,54.1,54.1c29.9,0,54.1-24.3,54.1-54.1C310.5,424.5,286.2,400.2,256.4,400.2z M17.8,55.5
	c0-22.4,18.2-40.6,40.6-40.6S99,33.1,99,55.5S80.8,96.1,58.4,96.1S17.8,77.9,17.8,55.5z M17.8,254.9c0-22.4,18.2-40.6,40.6-40.6
	S99,232.5,99,254.9c0,11.3-4.7,21.6-12.2,29c-0.2,0.2-0.5,0.4-0.7,0.6c-0.2,0.2-0.3,0.3-0.4,0.5c-7.2,6.6-16.8,10.6-27.3,10.6
	C36,295.5,17.8,277.3,17.8,254.9z M256.4,495c-22.4,0-40.6-18.2-40.6-40.6c0-22.4,18.2-40.6,40.6-40.6c22.4,0,40.6,18.2,40.6,40.6
	C297,476.7,278.8,495,256.4,495z"/>
<path class="st0" d="M256.4,200.8c-29.9,0-54.1,24.3-54.1,54.2c0,29.9,24.3,54.1,54.1,54.1c29.9,0,54.1-24.3,54.1-54.1
	C310.5,225.1,286.2,200.8,256.4,200.8z M256.4,295.5c-22.4,0-40.6-18.2-40.6-40.6c0-22.4,18.2-40.6,40.6-40.6
	c22.4,0,40.6,18.2,40.6,40.6C297,277.3,278.8,295.5,256.4,295.5z"/>
<path class="st0" d="M454.4,400.2c-29.9,0-54.1,24.3-54.1,54.1c0,29.9,24.3,54.1,54.1,54.1c29.9,0,54.1-24.3,54.1-54.1
	C508.5,424.5,484.2,400.2,454.4,400.2z M454.4,495c-22.4,0-40.6-18.2-40.6-40.6c0-22.4,18.2-40.6,40.6-40.6S495,432,495,454.3
	C495,476.7,476.7,495,454.4,495z"/>
<path class="st1" d="M454.4,200.8c-12.3,0-23.6,4.1-32.7,11L298.9,89c7.3-9.2,11.6-20.9,11.6-33.5c0-29.9-24.3-54.2-54.1-54.2
	c-29.9,0-54.1,24.3-54.1,54.2s24.3,54.2,54.1,54.2c12.4,0,23.7-4.2,32.9-11.2L412,221.3c-7.4,9.2-11.8,20.9-11.8,33.7
	c0,29.9,24.3,54.1,54.1,54.1c29.9,0,54.1-24.3,54.1-54.1C508.5,225.1,484.2,200.8,454.4,200.8z M215.8,55.5
	c0-22.4,18.2-40.6,40.6-40.6c22.4,0,40.6,18.2,40.6,40.6c0,11.1-4.5,21.2-11.7,28.5c-0.2,0.1-0.4,0.3-0.5,0.5
	c-0.1,0.1-0.2,0.2-0.3,0.3c-7.3,7-17.2,11.3-28.1,11.3C234,96.1,215.8,77.9,215.8,55.5z M454.4,295.5c-22.4,0-40.6-18.2-40.6-40.6
	c0-22.4,18.2-40.6,40.6-40.6s40.6,18.2,40.6,40.6C495,277.3,476.7,295.5,454.4,295.5z"/>
<path class="st0" d="M454.4,109.7c29.9,0,54.1-24.3,54.1-54.2S484.2,1.4,454.4,1.4c-29.9,0-54.1,24.3-54.1,54.2
	S424.5,109.7,454.4,109.7z M454.4,14.9c22.4,0,40.6,18.2,40.6,40.6s-18.2,40.6-40.6,40.6c-22.4,0-40.6-18.2-40.6-40.6
	S432,14.9,454.4,14.9z"/>
</svg>
