<?xml version="1.0" encoding="utf-8"?>
<!-- Generator: Adobe Illustrator 22.0.0, SVG Export Plug-In . SVG Version: 6.00 Build 0)  -->
<svg version="1.1" id="Layer_1" xmlns="http://www.w3.org/2000/svg" xmlns:xlink="http://www.w3.org/1999/xlink" x="0px" y="0px"
	 viewBox="0 0 512 512" style="enable-background:new 0 0 512 512;" xml:space="preserve">
<style type="text/css">
	.st0{fill:#3FC6F1;}
	.st1{fill:#5E686C;}
</style>
<path class="st0" d="M370.6,173.8H61.7c-3.7,0-6.7-3-6.7-6.7s3-6.7,6.7-6.7h308.9c3.7,0,6.7,3,6.7,6.7S374.3,173.8,370.6,173.8z"/>
<path class="st0" d="M61.7,271.2c-30.6,0-55.4-24.8-55.4-55.4c0-30.5,24.9-55.4,55.4-55.4c3.7,0,6.7,3,6.7,6.7s-3,6.7-6.7,6.7
	c-23.2,0-42.1,18.9-42.1,42c0,23.2,18.9,42,42.1,42c3.7,0,6.7,3,6.7,6.7C68.4,268.2,65.4,271.2,61.7,271.2z"/>
<path class="st1" d="M273.1,449.8c-2.7,0-5.1-1.6-6.2-4.1l-73.1-178.7c-1.4-3.4,0.2-7.3,3.6-8.7c3.4-1.4,7.3,0.2,8.7,3.6l71.1,173.9
	L494,405.3V154.2l-82.3-61.6H308.3l-30.6,30.5c-2.6,2.6-6.8,2.6-9.4,0c-2.6-2.6-2.6-6.8,0-9.4l32.5-32.5c1.2-1.2,2.9-1.9,4.7-1.9
	h108.4c1.4,0,2.8,0.5,4,1.3l86.7,65c1.7,1.3,2.7,3.2,2.7,5.3v260.2c0,3.3-2.4,6.1-5.7,6.6l-227.6,32
	C273.7,449.7,273.4,449.8,273.1,449.8z"/>
<path class="st0" d="M273.2,271.4L273.2,271.4l-211.4-0.2c-3.7,0-6.7-3-6.7-6.7c0-3.7,3-6.7,6.7-6.7h0l211.4,0.2
	c3.7,0,6.7,3,6.7,6.7C279.8,268.4,276.8,271.4,273.2,271.4z"/>
</svg>
