<?xml version="1.0" encoding="utf-8"?>
<!-- Generator: Adobe Illustrator 22.0.0, SVG Export Plug-In . SVG Version: 6.00 Build 0)  -->
<svg version="1.1" id="Layer_1" xmlns="http://www.w3.org/2000/svg" xmlns:xlink="http://www.w3.org/1999/xlink" x="0px" y="0px"
	 viewBox="0 0 512 512" style="enable-background:new 0 0 512 512;" xml:space="preserve">
<style type="text/css">
	.st0{fill:#5E686C;}
	.st1{fill:#3FC6F1;}
</style>
<path class="st0" d="M239.6,448.9c-0.3,0-0.6,0-0.9-0.1L10.7,416.8c-3.3-0.5-5.7-3.3-5.7-6.6V149.2c0-2.1,1-4.1,2.7-5.3l86.8-65.1
	c1.2-0.9,2.6-1.3,4-1.3H207c1.8,0,3.5,0.7,4.7,2l32.6,32.6c2.6,2.6,2.6,6.8,0,9.4c-2.6,2.6-6.8,2.6-9.4,0l-30.6-30.6H100.7
	l-82.4,61.8v251.8l217,30.5l71.2-174.4c1.4-3.4,5.3-5.1,8.7-3.7c3.4,1.4,5.1,5.3,3.7,8.7l-73.2,179.2
	C244.7,447.3,242.3,448.9,239.6,448.9z"/>
<path class="st1" d="M451.2,172.2H141.9c-3.7,0-6.7-3-6.7-6.7c0-3.7,3-6.7,6.7-6.7h309.3c3.7,0,6.7,3,6.7,6.7
	C457.9,169.2,454.9,172.2,451.2,172.2z"/>
<path class="st1" d="M239.5,270.1c-3.7,0-6.7-3-6.7-6.7c0-3.7,3-6.7,6.7-6.7l211.7-0.2h0c3.7,0,6.7,3,6.7,6.7c0,3.7-3,6.7-6.7,6.7
	L239.5,270.1L239.5,270.1z"/>
<path class="st1" d="M451.2,269.8c-3.7,0-6.7-3-6.7-6.7c0-3.7,3-6.7,6.7-6.7c23.2,0,42.2-18.9,42.2-42.2c0-23.2-18.9-42.1-42.2-42.1
	c-3.7,0-6.7-3-6.7-6.7c0-3.7,3-6.7,6.7-6.7c30.6,0,55.5,24.9,55.5,55.5C506.7,244.9,481.8,269.8,451.2,269.8z"/>
</svg>
