<?xml version="1.0" encoding="utf-8"?>
<!-- Generator: Adobe Illustrator 22.0.0, SVG Export Plug-In . SVG Version: 6.00 Build 0)  -->
<svg version="1.1" id="Layer_1" xmlns="http://www.w3.org/2000/svg" xmlns:xlink="http://www.w3.org/1999/xlink" x="0px" y="0px"
	 viewBox="0 0 512 512" style="enable-background:new 0 0 512 512;" xml:space="preserve">
<style type="text/css">
	.st0{fill:#5E686C;}
	.st1{fill:#3FC6F1;}
</style>
<path class="st0" d="M501.5,266.4H361.4c-3.9,0-7-3.1-7-7c0-3.9,3.1-7,7-7h140.1c3.9,0,7,3.1,7,7
	C508.5,263.3,505.4,266.4,501.5,266.4z"/>
<path class="st0" d="M149.7,266.4H12.4c-3.9,0-7-3.1-7-7c0-3.9,3.1-7,7-7h137.3c3.9,0,7,3.1,7,7
	C156.7,263.3,153.6,266.4,149.7,266.4z"/>
<path class="st0" d="M461,509.5H52.9c-26.2,0-47.5-21.3-47.5-47.5V53.9c0-26.2,21.3-47.5,47.5-47.5H461c26.2,0,47.5,21.3,47.5,47.5
	V462C508.5,488.2,487.2,509.5,461,509.5z M52.9,20.4c-18.5,0-33.5,15-33.5,33.5V462c0,18.5,15,33.5,33.5,33.5H461
	c18.5,0,33.5-15,33.5-33.5V53.9c0-18.5-15-33.5-33.5-33.5H52.9z"/>
<path class="st1" d="M257,369.8c-61.6,0-111.8-50.1-111.8-111.8c0-61.6,50.1-111.8,111.8-111.8c61.7,0,111.8,50.1,111.8,111.8
	C368.8,319.6,318.6,369.8,257,369.8z M257,160.2c-53.9,0-97.8,43.9-97.8,97.8c0,53.9,43.9,97.8,97.8,97.8
	c53.9,0,97.8-43.9,97.8-97.8S310.9,160.2,257,160.2z"/>
<path class="st1" d="M405.7,158.2c-27,0-48.9-21.9-48.9-48.9c0-27,21.9-48.9,48.9-48.9s48.9,21.9,48.9,48.9
	C454.6,136.3,432.6,158.2,405.7,158.2z M405.7,74.4c-19.3,0-34.9,15.7-34.9,34.9s15.7,34.9,34.9,34.9c19.3,0,34.9-15.7,34.9-34.9
	S424.9,74.4,405.7,74.4z"/>
</svg>
