<?xml version="1.0" encoding="utf-8"?>
<!-- Generator: Adobe Illustrator 22.0.0, SVG Export Plug-In . SVG Version: 6.00 Build 0)  -->
<svg version="1.1" id="Layer_1" xmlns="http://www.w3.org/2000/svg" xmlns:xlink="http://www.w3.org/1999/xlink" x="0px" y="0px"
	 viewBox="0 0 512 512" style="enable-background:new 0 0 512 512;" xml:space="preserve">
<style type="text/css">
	.st0{fill:#3FC6F1;}
	.st1{fill:#5E686B;}
</style>
<path class="st0" d="M419.7,104.8v70c0,4.3,3.5,7.7,7.7,7.7c4.3,0,7.7-3.5,7.7-7.7V86c0-4.3-3.5-7.7-7.7-7.7h-88.8
	c-4.3,0-7.7,3.5-7.7,7.7c0,4.3,3.5,7.7,7.7,7.7h70.2L296,207.6H13.6c-4.3,0-7.7,3.5-7.7,7.7V501c0,4.3,3.5,7.7,7.7,7.7h285.7
	c4.3,0,7.7-3.5,7.7-7.7V218.5L419.7,104.8z M291.5,493.3H21.3V223.1h270.2L291.5,493.3L291.5,493.3z"/>
<path class="st1" d="M500.4,3.9H13.6c-4.3,0-7.7,3.5-7.7,7.7v148.5c0,4.3,3.5,7.7,7.7,7.7c4.3,0,7.7-3.5,7.7-7.7V19.3h471.3v471.4
	H362c-4.3,0-7.7,3.5-7.7,7.7s3.5,7.7,7.7,7.7h138.4c4.3,0,7.7-3.5,7.7-7.7V11.6C508.1,7.3,504.7,3.9,500.4,3.9z"/>
</svg>
