<?xml version="1.0" encoding="utf-8"?>
<!-- Generator: Adobe Illustrator 22.0.0, SVG Export Plug-In . SVG Version: 6.00 Build 0)  -->
<svg version="1.1" id="Layer_1" xmlns="http://www.w3.org/2000/svg" xmlns:xlink="http://www.w3.org/1999/xlink" x="0px" y="0px"
	 viewBox="0 0 512 512" style="enable-background:new 0 0 512 512;" xml:space="preserve">
<style type="text/css">
	.st0{fill:#5E686C;}
	.st1{fill:#3FC6F1;}
</style>
<path class="st0" d="M256.5,507.3C118,507.3,5.4,394.7,5.4,256.2C5.4,117.7,118,5,256.5,5s251.1,112.7,251.1,251.2
	C507.7,394.7,395,507.3,256.5,507.3z M256.5,18.6C125.5,18.6,19,125.2,19,256.2c0,131,106.6,237.6,237.6,237.6
	s237.6-106.6,237.6-237.6C494.1,125.2,387.5,18.6,256.5,18.6z"/>
<path class="st0" d="M256.5,176.3c-74.9,0-147.2-21.8-198.4-59.8c-3-2.2-3.6-6.5-1.4-9.5c2.2-3,6.5-3.6,9.5-1.4
	c48.9,36.3,118.3,57.1,190.3,57.1s141.4-20.8,190.3-57.1c3-2.2,7.3-1.6,9.5,1.4c2.2,3,1.6,7.3-1.4,9.5
	C403.7,154.5,331.4,176.3,256.5,176.3z"/>
<path class="st0" d="M450.9,408.1c-1.4,0-2.8-0.4-4-1.3c-48.9-36.3-118.2-57.1-190.3-57.1c-72.1,0-141.4,20.8-190.3,57.1
	c-3,2.2-7.3,1.6-9.5-1.4c-2.2-3-1.6-7.3,1.4-9.5c51.2-38,123.5-59.8,198.4-59.8c74.9,0,147.2,21.8,198.4,59.8c3,2.2,3.6,6.5,1.4,9.5
	C455,407.2,452.9,408.1,450.9,408.1z"/>
<path class="st0" d="M500.9,270.8H12.2c-3.8,0-6.8-3-6.8-6.8c0-3.8,3-6.8,6.8-6.8h488.7c3.8,0,6.8,3,6.8,6.8
	C507.7,267.8,504.6,270.8,500.9,270.8z"/>
<path class="st0" d="M256.5,507.3c-3.8,0-6.8-3-6.8-6.8V11.8c0-3.8,3-6.8,6.8-6.8s6.8,3,6.8,6.8v488.7
	C263.3,504.3,260.3,507.3,256.5,507.3z"/>
<path class="st1" d="M256.5,507.3c-78.2,0-141.9-112.7-141.9-251.1C114.6,117.7,178.3,5,256.5,5c78.2,0,141.9,112.7,141.9,251.2
	C398.4,394.7,334.7,507.3,256.5,507.3z M256.5,18.6c-70.7,0-128.3,106.6-128.3,237.6c0,131,57.6,237.6,128.3,237.6
	s128.3-106.6,128.3-237.6C384.8,125.2,327.2,18.6,256.5,18.6z"/>
</svg>
