<?xml version="1.0" encoding="utf-8"?>
<!-- Generator: Adobe Illustrator 22.0.0, SVG Export Plug-In . SVG Version: 6.00 Build 0)  -->
<svg version="1.1" id="Layer_1" xmlns="http://www.w3.org/2000/svg" xmlns:xlink="http://www.w3.org/1999/xlink" x="0px" y="0px"
	 viewBox="0 0 512 512" style="enable-background:new 0 0 512 512;" xml:space="preserve">
<style type="text/css">
	.st0{fill:#3FC6F1;}
	.st1{fill:#5E686B;}
</style>
<path class="st0" d="M206,368h-47.6c-2.4-9.4-9.9-16.9-19.3-19.3v-47.6c0-3.7-3-6.7-6.7-6.7c-3.7,0-6.7,3-6.7,6.7v47.6
	c-11.6,3-20.2,13.5-20.2,26.1c0,14.8,12.1,26.9,26.9,26.9c12.5,0,23.1-8.6,26.1-20.2H206c3.7,0,6.7-3,6.7-6.7S209.7,368,206,368z
	 M132.4,388.1c-7.4,0-13.5-6-13.5-13.5c0-7.4,6-13.5,13.5-13.5c7.4,0,13.5,6,13.5,13.5C145.8,382.1,139.8,388.1,132.4,388.1z"/>
<path class="st0" d="M301.7,144.7h47.5c2.4,9.5,9.9,16.9,19.3,19.3v47.6c0,3.7,3,6.7,6.7,6.7c3.7,0,6.7-3,6.7-6.7V164
	c11.6-3,20.2-13.5,20.2-26.1c0-14.8-12.1-26.9-26.9-26.9c-12.5,0-23.1,8.6-26.1,20.2h-47.6c-3.7,0-6.7,3-6.7,6.7
	C294.9,141.7,297.9,144.7,301.7,144.7z M375.3,124.5c7.4,0,13.4,6,13.4,13.5s-6,13.5-13.4,13.5c-7.4,0-13.5-6-13.5-13.5
	S367.9,124.5,375.3,124.5z"/>
<path class="st1" d="M197,236.1c0-3.7-3-6.7-6.7-6.7h-47.1v-20.8h116.6c3.7,0,6.7-3,6.7-6.7V13.4c0-3.7-3-6.7-6.7-6.7H13
	c-3.7,0-6.7,3-6.7,6.7v188.5c0,3.7,3,6.7,6.7,6.7h116.6v20.8H82.6c-3.7,0-6.7,3-6.7,6.7s3,6.7,6.7,6.7h107.6
	C193.9,242.8,197,239.8,197,236.1z M253,20.1v118.3H19.8V20.1H253z M19.8,151.9H253v43.3H19.8V151.9z"/>
<path class="st1" d="M499.3,268.5H252.6c-3.7,0-6.7,3-6.7,6.7v188.5c0,3.7,3,6.7,6.7,6.7h116.6v20.8h-47.1c-3.7,0-6.7,3-6.7,6.7
	s3,6.7,6.7,6.7h107.6c3.7,0,6.7-3,6.7-6.7s-3-6.7-6.7-6.7h-47.1v-20.8h116.6c3.7,0,6.7-3,6.7-6.7V275.3
	C506,271.5,503,268.5,499.3,268.5z M492.5,282v118.3H259.3V282L492.5,282L492.5,282z M259.3,457.1v-43.3h233.3v43.3H259.3z"/>
</svg>
