<?xml version="1.0" encoding="utf-8"?>
<!-- Generator: Adobe Illustrator 22.0.0, SVG Export Plug-In . SVG Version: 6.00 Build 0)  -->
<svg version="1.1" id="Layer_1" xmlns="http://www.w3.org/2000/svg" xmlns:xlink="http://www.w3.org/1999/xlink" x="0px" y="0px"
	 viewBox="0 0 512 512" style="enable-background:new 0 0 512 512;" xml:space="preserve">
<style type="text/css">
	.st0{fill:#3FC6F1;}
	.st1{fill:#5E686B;}
</style>
<path class="st0" d="M502,136.1L440,74.1l45.4-45.4c2.6-2.6,2.6-6.7,0-9.2c-2.6-2.6-6.7-2.6-9.2,0l-49.9,49.9c0,0-0.1,0.1-0.1,0.1
	s-0.1,0.1-0.1,0.1L359.5,136c0,0-0.1,0.1-0.1,0.1s-0.1,0.1-0.1,0.1l-99.9,99.9c-2.6,2.6-2.6,6.7,0,9.2c1.3,1.3,2.9,1.9,4.6,1.9
	s3.3-0.6,4.6-1.9l95.4-95.4l62.1,62.1c1.3,1.3,2.9,1.9,4.6,1.9c1.7,0,3.3-0.6,4.6-1.9l66.7-66.7C504.6,142.8,504.6,138.7,502,136.1z
	 M430.7,198.2l-57.4-57.4l57.4-57.5l57.4,57.4L430.7,198.2z"/>
<path class="st1" d="M130.6,250c-33.2,0-64.3,12.9-87.8,36.4C19.4,309.8,6.5,341,6.5,374.1c0,33.2,12.9,64.3,36.4,87.8
	c23.4,23.5,54.6,36.4,87.8,36.4c33.2,0,64.3-12.9,87.8-36.4c23.5-23.5,36.4-54.6,36.4-87.8c0-33.2-12.9-64.3-36.4-87.8
	C195,262.9,163.8,250,130.6,250z M209.2,452.7c-21,21-48.9,32.5-78.5,32.5c-29.7,0-57.5-11.6-78.5-32.5c-21-21-32.5-48.9-32.5-78.5
	c0-29.7,11.6-57.5,32.5-78.5c21-21,48.9-32.6,78.5-32.6c29.7,0,57.6,11.6,78.5,32.6c21,21,32.5,48.9,32.5,78.5
	C241.7,403.8,230.2,431.7,209.2,452.7z"/>
</svg>
