<?xml version="1.0" encoding="utf-8"?>
<!-- Generator: Adobe Illustrator 22.0.0, SVG Export Plug-In . SVG Version: 6.00 Build 0)  -->
<svg version="1.1" id="Layer_1" xmlns="http://www.w3.org/2000/svg" xmlns:xlink="http://www.w3.org/1999/xlink" x="0px" y="0px"
	 viewBox="0 0 512 512" style="enable-background:new 0 0 512 512;" xml:space="preserve">
<style type="text/css">
	.st0{fill:#3FC6F1;}
	.st1{fill:#5E686B;}
</style>
<path class="st0" d="M466.5,375H46.2c-3.9,0-7-3.1-7-7V87.8c0-3.9,3.1-7,7-7h420.3c3.9,0,7,3.1,7,7V368
	C473.5,371.9,470.3,375,466.5,375z M53.2,361h406.3V94.8H53.2V361z"/>
<path class="st1" d="M501.5,440.7H11.2c-3.9,0-7-3.1-7-7s3.1-7,7-7h490.3c3.9,0,7,3.1,7,7S505.4,440.7,501.5,440.7z"/>
</svg>
