<?xml version="1.0" encoding="utf-8"?>
<!-- Generator: Adobe Illustrator 22.0.0, SVG Export Plug-In . SVG Version: 6.00 Build 0)  -->
<svg version="1.1" id="Layer_1" xmlns="http://www.w3.org/2000/svg" xmlns:xlink="http://www.w3.org/1999/xlink" x="0px" y="0px"
	 viewBox="0 0 512 512" style="enable-background:new 0 0 512 512;" xml:space="preserve">
<style type="text/css">
	.st0{fill:#3FC6F1;}
	.st1{fill:#5E686B;}
</style>
<path class="st0" d="M256.9,93.1c-41.1,0-74.5,33.4-74.5,74.5s33.4,74.5,74.5,74.5c41.1,0,74.5-33.4,74.5-74.5S298,93.1,256.9,93.1z
	 M256.9,230.5c-34.8,0-63-28.3-63-63s28.3-63,63-63c34.7,0,63,28.3,63,63S291.6,230.5,256.9,230.5z"/>
<path class="st1" d="M256.9,280.3c-41.1,0-74.5,33.4-74.5,74.5c0,41.1,33.4,74.5,74.5,74.5c41.1,0,74.5-33.4,74.5-74.5
	C331.4,313.7,298,280.3,256.9,280.3z M256.9,417.7c-34.8,0-63-28.3-63-63c0-34.7,28.3-63,63-63c34.7,0,63,28.3,63,63
	C319.9,389.5,291.6,417.7,256.9,417.7z"/>
<path class="st1" d="M377.3,246.8H424c1.9,0,3.6-0.9,4.7-2.4l80.2-113.7c0.7-1,1.1-2.1,1.1-3.3v-20.1c0-3.2-2.6-5.7-5.7-5.7h-127
	c-0.3,0-0.6,0-1,0.1V80.6c0-17.9-14.6-32.5-32.5-32.5H170c-17.9,0-32.5,14.6-32.5,32.5v21H9.5c-3.2,0-5.7,2.6-5.7,5.7v20.1
	c0,1.2,0.4,2.3,1,3.3l80.2,113.7c1.1,1.5,2.8,2.4,4.7,2.4h47.8v42.1c-0.3-0.1-0.6-0.1-1-0.1H9.5c-3.2,0-5.7,2.6-5.7,5.7v20.1
	c0,1.2,0.4,2.3,1,3.3l80.2,113.7c1.1,1.5,2.8,2.4,4.7,2.4h46.8c0.3,0,0.6,0,1-0.1v7.7c0,17.9,14.6,32.5,32.5,32.5h173.8
	c17.9,0,32.5-14.6,32.5-32.5v-7.7c0.3,0.1,0.6,0.1,1,0.1H424c1.9,0,3.6-0.9,4.7-2.4l80.2-113.7c0.7-1,1.1-2.1,1.1-3.3v-20.1
	c0-3.2-2.6-5.7-5.7-5.7h-127c-0.3,0-0.6,0-1,0.1v-42.2C376.6,246.8,376.9,246.8,377.3,246.8z M92.7,235.4L15.3,125.6v-12.5h122.3
	v122.3H92.7z M136.6,422.5H92.7L15.3,312.8v-12.5h121.3c0.3,0,0.6,0,1-0.1v122.4C137.2,422.6,136.9,422.5,136.6,422.5z M364.8,441.6
	c0,11.6-9.4,21-21,21H170c-11.6,0-21-9.4-21-21V107.4c0,0,0,0,0,0s0,0,0,0V80.6c0-11.6,9.4-21,21-21h173.8c11.6,0,21,9.4,21,21
	L364.8,441.6L364.8,441.6z M377.3,113.1h121.3v12.5l-77.5,109.8h-43.8c-0.3,0-0.6,0-1,0.1V113C376.6,113.1,376.9,113.1,377.3,113.1z
	 M377.3,300.3h121.3v12.5l-77.5,109.7h-43.8c-0.3,0-0.6,0-1,0.1V300.2C376.6,300.3,376.9,300.3,377.3,300.3z"/>
<path class="st0" d="M256.9,138.9c-15.8,0-28.6,12.9-28.6,28.6s12.8,28.6,28.6,28.6c15.8,0,28.6-12.9,28.6-28.6
	S272.7,138.9,256.9,138.9z M256.9,184.7c-9.5,0-17.2-7.7-17.2-17.2s7.7-17.2,17.2-17.2c9.5,0,17.2,7.7,17.2,17.2
	S266.4,184.7,256.9,184.7z"/>
<path class="st1" d="M256.9,326.1c-15.8,0-28.6,12.8-28.6,28.6c0,15.8,12.8,28.6,28.6,28.6c15.8,0,28.6-12.8,28.6-28.6
	C285.6,338.9,272.7,326.1,256.9,326.1z M256.9,371.9c-9.5,0-17.2-7.7-17.2-17.2c0-9.5,7.7-17.2,17.2-17.2c9.5,0,17.2,7.7,17.2,17.2
	C274.1,364.2,266.4,371.9,256.9,371.9z"/>
</svg>
