<?xml version="1.0" encoding="utf-8"?>
<!-- Generator: Adobe Illustrator 22.0.0, SVG Export Plug-In . SVG Version: 6.00 Build 0)  -->
<svg version="1.1" id="Layer_1" xmlns="http://www.w3.org/2000/svg" xmlns:xlink="http://www.w3.org/1999/xlink" x="0px" y="0px"
	 viewBox="0 0 512 512" style="enable-background:new 0 0 512 512;" xml:space="preserve">
<style type="text/css">
	.st0{fill:#5E686B;}
	.st1{fill:#3FC6F1;}
</style>
<g>
	<path class="st0" d="M341.4,443.8c-9.4,0-18.2-3.6-24.8-10.2l-10-10c-6.6-6.6-10.3-15.4-10.3-24.8c0-7.1,2.1-13.8,6-19.5
		L131.1,208.3c-13.3,9-32.7,7.3-44.4-4.3l-10-10c-13.7-13.7-13.7-35.9,0-49.5L206.9,14.6c13.3-13.2,36.3-13.2,49.6,0l10,10
		c6.6,6.6,10.3,15.5,10.3,24.8c0,7-2.1,13.8-5.9,19.5l171.2,171c13.4-9,32.8-7.3,44.4,4.3l10,10c6.6,6.6,10.3,15.4,10.3,24.7
		c0,9.4-3.6,18.2-10.3,24.8L366.2,433.6C359.6,440.2,350.8,443.8,341.4,443.8z M131.6,192.5c1.7,0,3.5,0.7,4.8,2l179.9,179.6
		c1.3,1.3,2,3,2,4.8s-0.7,3.5-2,4.8c-4.1,4.1-6.3,9.5-6.3,15.2c0,5.7,2.2,11.2,6.3,15.2l10,10c8.1,8.1,22.4,8.1,30.5,0l130.1-129.9
		c4.1-4.1,6.3-9.5,6.3-15.2c0-5.7-2.3-11.1-6.3-15.2l-10-10c-8.2-8.2-22.4-8.2-30.5,0c-2.6,2.6-6.9,2.6-9.5,0L256.9,74.1
		c-1.3-1.3-2-3-2-4.8s0.7-3.5,2-4.8c4.1-4,6.3-9.4,6.3-15.2c0-5.8-2.2-11.2-6.3-15.2l-10-10c-8.2-8.1-22.3-8.1-30.5,0L86.2,154.1
		c-8.4,8.4-8.4,22,0,30.4l10,10c8.1,8.1,22.4,8.1,30.5,0C128.1,193.2,129.8,192.5,131.6,192.5z"/>
</g>
<path class="st1" d="M498.9,507H256c-3.7,0-6.7-3-6.7-6.7s3-6.7,6.7-6.7h242.9c3.7,0,6.7,3,6.7,6.7C505.7,504,502.6,507,498.9,507z"
	/>
<path class="st0" d="M12.5,506.5c-1.7,0-3.5-0.7-4.8-2c-2.6-2.6-2.6-6.9,0-9.5l149.2-149.2c2.6-2.6,6.9-2.6,9.5,0
	c2.6,2.6,2.6,6.9,0,9.5L17.2,504.5C15.9,505.8,14.2,506.5,12.5,506.5z"/>
</svg>
