<?xml version="1.0" encoding="utf-8"?>
<!-- Generator: Adobe Illustrator 22.0.0, SVG Export Plug-In . SVG Version: 6.00 Build 0)  -->
<svg version="1.1" id="Layer_1" xmlns="http://www.w3.org/2000/svg" xmlns:xlink="http://www.w3.org/1999/xlink" x="0px" y="0px"
	 viewBox="0 0 512 512" style="enable-background:new 0 0 512 512;" xml:space="preserve">
<style type="text/css">
	.st0{fill:#5E686B;}
	.st1{fill:#3FC6F1;}
</style>
<path class="st0" d="M255.2,272.9c-15.9,0-30.8-3.3-41.1-9.1L31.9,160.9c-10.5-5.9-16.4-14-16.4-22.2c0-8.3,5.8-16.2,16.4-22.2
	L214.1,13.6c21.5-12.2,60.8-12.2,82.3,0l182.2,102.8c10.6,6,16.4,13.9,16.4,22.2c0,8.2-5.9,16.3-16.4,22.2L296.4,263.8
	C286.1,269.6,271.1,272.9,255.2,272.9z M255.2,17.6c-13.1,0-25.7,2.8-34.5,7.8L38.6,128.2c-7.1,4-9.6,8.2-9.6,10.5
	c0,2.3,2.5,6.5,9.6,10.5L220.7,252c16.7,9.4,52.3,9.4,69,0l182.2-102.8c7.1-4,9.6-8.1,9.6-10.5c0-2.4-2.5-6.5-9.6-10.5L289.7,25.4
	C281,20.4,268.4,17.6,255.2,17.6z"/>
<path class="st1" d="M255.2,394.1c-17.1,0-33.5-3.9-46-11L40.5,287.8c-15.1-8.5-23.4-20.8-23.4-34.6c0-3.7,3-6.8,6.8-6.8
	c3.7,0,6.8,3,6.8,6.8c0,8.7,5.9,16.8,16.5,22.9l168.7,95.2c21.1,11.9,57.6,11.9,78.8,0l168.7-95.2c10.7-6,16.6-14.1,16.6-22.9
	c0-3.7,3-6.8,6.8-6.8c3.7,0,6.8,3,6.8,6.8c0,13.8-8.3,26.1-23.4,34.6l-168.7,95.2C288.7,390.2,272.4,394.1,255.2,394.1z"/>
<path class="st0" d="M255.2,506.7c-17.1,0-33.4-3.9-46-11L40.5,400.4c-15.1-8.5-23.4-20.8-23.4-34.6c0-3.7,3-6.8,6.8-6.8
	c3.7,0,6.8,3,6.8,6.8c0,8.7,5.9,16.8,16.5,22.9l168.7,95.2c21.2,12,57.6,12,78.8,0l168.7-95.2c10.7-6,16.6-14.1,16.6-22.9
	c0-3.7,3-6.8,6.8-6.8c3.7,0,6.8,3,6.8,6.8c0,13.8-8.3,26.1-23.4,34.6l-168.7,95.2C288.7,502.8,272.3,506.7,255.2,506.7z"/>
</svg>
