<?xml version="1.0" encoding="utf-8"?>
<!-- Generator: Adobe Illustrator 22.0.0, SVG Export Plug-In . SVG Version: 6.00 Build 0)  -->
<svg version="1.1" id="Layer_1" xmlns="http://www.w3.org/2000/svg" xmlns:xlink="http://www.w3.org/1999/xlink" x="0px" y="0px"
	 viewBox="0 0 512 512" style="enable-background:new 0 0 512 512;" xml:space="preserve">
<style type="text/css">
	.st0{fill:#5E686C;}
	.st1{fill:#3FC6F1;}
</style>
<path class="st0" d="M250.6,493c-0.9,0-1.8-0.2-2.7-0.6c-0.8-0.4-1.5-0.8-2.1-1.4l0,0l0,0c-0.5-0.5-1-1.1-1.3-1.8v0l0,0
	c0-0.1-0.1-0.2-0.1-0.2c-11-25.4-59.6-33-77.4-33.8l-143.5,0c-3.7,0-6.7-3-6.7-6.7V39.7c0-3.7,3-6.7,6.7-6.7h159
	c2.6,0.1,48.7,2.6,67.4,26.2c17.2-23.6,66.1-26.1,68.6-26.2l23,0c3.7,0,6.7,3,6.7,6.7s-3,6.7-6.7,6.7h-22.7c-0.3,0-61.3,3.6-61.4,31
	c0,0.7-0.1,1.3-0.3,2c-0.3,0.9-0.7,1.8-1.4,2.5c-0.7,0.8-1.5,1.4-2.5,1.8c-0.7,0.3-1.4,0.5-2.1,0.5c-0.8,0-1.6,0-2.4-0.3
	c-0.9-0.3-1.8-0.7-2.5-1.3l0,0c0,0,0,0,0,0c-0.8-0.7-1.4-1.5-1.8-2.5c-0.2-0.6-0.4-1.2-0.5-1.8c-3.8-28.4-61.2-31.9-61.8-31.9
	l-151.9,0v395.3h137.1c2.9,0.1,60,3,83.3,31.8c23.2-28.8,80.3-31.7,83-31.8l137.4,0V46.4h-53.5c-3.7,0-6.7-3-6.7-6.7
	c0-3.7,3-6.7,6.7-6.7h60.3c3.7,0,6.7,3,6.7,6.7v408.8c0,3.7-3,6.7-6.7,6.7H333.9c-0.3,0-63.8,3.2-77.1,33.8c0,0,0,0,0,0l0,0v0l0,0
	c0,0,0,0,0,0c0,0,0,0,0,0c0,0,0,0,0,0c0,0,0,0,0,0l0,0c0,0,0,0,0,0.1l0,0c0,0,0,0,0,0s0,0,0,0l0,0c0,0,0,0,0,0c0,0,0,0,0,0l0,0
	c-0.3,0.7-0.8,1.3-1.3,1.9c-0.6,0.6-1.3,1.1-2.1,1.4C252.4,492.8,251.7,493.1,250.6,493z"/>
<path class="st1" d="M417.2,192.7c-1.5,0-3-0.5-4.2-1.5l-33.7-26.9l-33.6,26.9c-2,1.6-4.8,1.9-7.1,0.8c-2.3-1.1-3.8-3.5-3.8-6.1
	V39.7c0-3.7,3-6.7,6.7-6.7s6.7,3,6.7,6.7V172l26.9-21.6c2.5-2,5.9-2,8.4,0l26.9,21.6V32.1c0.1-1.3,1.2-7.4-2.2-11.5
	c-2.5-3-7.1-4.5-13.8-4.5H349c-1.1-0.1-11.6-1.6-18.1,3.7c-3.3,2.7-5.1,6.9-5.4,12.7c-0.2,3.7-3.4,6.8-7.1,6.3
	c-3.7-0.2-6.5-3.4-6.3-7.1c0.5-9.7,4-17.3,10.4-22.4c11.2-9,26.9-6.7,27.6-6.5l44.4-0.1c10.9,0,19.1,3.2,24.2,9.5
	c7.3,8.9,5.3,20,5.1,21.2l0.1,152.6c0,2.6-1.5,4.9-3.8,6.1C419.1,192.5,418.2,192.7,417.2,192.7z"/>
<path class="st0" d="M250.6,508.2c-3.7,0-6.7-3-6.7-6.7V77.5c0-3.7,3-6.7,6.7-6.7c3.7,0,6.7,3,6.7,6.7v423.9
	C257.3,505.2,254.3,508.2,250.6,508.2z"/>
</svg>
