<?xml version="1.0" encoding="utf-8"?>
<!-- Generator: Adobe Illustrator 22.0.0, SVG Export Plug-In . SVG Version: 6.00 Build 0)  -->
<svg version="1.1" id="Layer_1" xmlns="http://www.w3.org/2000/svg" xmlns:xlink="http://www.w3.org/1999/xlink" x="0px" y="0px"
	 viewBox="0 0 512 512" style="enable-background:new 0 0 512 512;" xml:space="preserve">
<style type="text/css">
	.st0{fill:none;stroke:#69C299;stroke-linecap:round;stroke-linejoin:round;stroke-miterlimit:10;}
	.st1{fill:none;stroke:#5E686C;stroke-linecap:round;stroke-linejoin:round;stroke-miterlimit:10;}
	.st2{fill:#3FC6F1;}
	.st3{fill:#5E686C;}
</style>
<path class="st0" d="M891,1899.2c0-5.1,4.1-9.2,9.2-9.2s9.2,4.1,9.2,9.2"/>
<line class="st0" x1="891" y1="1899.2" x2="891" y2="1913.3"/>
<line class="st0" x1="909.5" y1="1899.2" x2="909.5" y2="1913.3"/>
<line class="st1" x1="895.8" y1="1913.3" x2="895.8" y2="1925.8"/>
<line class="st1" x1="904.8" y1="1913.3" x2="904.8" y2="1925.8"/>
<line class="st1" x1="887.5" y1="1913.3" x2="912.5" y2="1913.3"/>
<line class="st1" x1="895.8" y1="1908" x2="904.8" y2="1908"/>
<path class="st2" d="M386.1,143c-3.8,0-6.8-3.1-6.8-6.8c0-66-53.7-119.7-119.7-119.7S139.8,70.1,139.8,136.1c0,3.8-3.1,6.8-6.8,6.8
	c-3.8,0-6.8-3.1-6.8-6.8C126.1,62.6,186,2.7,259.6,2.7S393,62.6,393,136.1C393,139.9,389.9,143,386.1,143z"/>
<path class="st2" d="M133,335.2c-3.8,0-6.8-3.1-6.8-6.8V136.1c0-3.8,3.1-6.8,6.8-6.8c3.8,0,6.8,3.1,6.8,6.8v192.3
	C139.8,332.2,136.8,335.2,133,335.2z"/>
<path class="st2" d="M386.1,335.2c-3.8,0-6.8-3.1-6.8-6.8V136.1c0-3.8,3.1-6.8,6.8-6.8c3.8,0,6.8,3.1,6.8,6.8v192.3
	C393,332.2,389.9,335.2,386.1,335.2z"/>
<path class="st3" d="M198,507c-3.8,0-6.8-3.1-6.8-6.8V328.4c0-3.8,3.1-6.8,6.8-6.8c3.8,0,6.8,3.1,6.8,6.8v171.7
	C204.8,503.9,201.8,507,198,507z"/>
<path class="st3" d="M321.1,507c-3.8,0-6.8-3.1-6.8-6.8V328.4c0-3.8,3.1-6.8,6.8-6.8c3.8,0,6.8,3.1,6.8,6.8v171.7
	C328,503.9,324.9,507,321.1,507z"/>
<path class="st3" d="M427.2,335.2H85.1c-3.8,0-6.8-3.1-6.8-6.8c0-3.8,3.1-6.8,6.8-6.8h342.1c3.8,0,6.8,3.1,6.8,6.8
	C434,332.2,431,335.2,427.2,335.2z"/>
<path class="st3" d="M321.1,263.4H198c-3.8,0-6.8-3.1-6.8-6.8c0-3.8,3.1-6.8,6.8-6.8h123.1c3.8,0,6.8,3.1,6.8,6.8
	C328,260.3,324.9,263.4,321.1,263.4z"/>
</svg>
