<?xml version="1.0" encoding="utf-8"?>
<!-- Generator: Adobe Illustrator 22.0.0, SVG Export Plug-In . SVG Version: 6.00 Build 0)  -->
<svg version="1.1" id="Layer_1" xmlns="http://www.w3.org/2000/svg" xmlns:xlink="http://www.w3.org/1999/xlink" x="0px" y="0px"
	 viewBox="0 0 512 512" style="enable-background:new 0 0 512 512;" xml:space="preserve">
<style type="text/css">
	.st0{fill:#5E686B;}
	.st1{fill:#3FC6F1;}
</style>
<path class="st0" d="M256.3,506.6c-128.5,0-235.2-96.3-248.2-224c-0.4-3.8,2.4-7.2,6.2-7.6c4-0.4,7.2,2.4,7.6,6.2
	c12.2,120.6,113,211.5,234.4,211.5C386.3,492.7,492,387,492,257.1c0-129.9-105.7-235.6-235.6-235.6c-118.3,0-218.8,88.3-233.7,205.5
	c-0.5,3.8-3.9,6.5-7.8,6c-3.8-0.5-6.5-4-6-7.8C24.7,101.1,131.1,7.6,256.3,7.6c137.6,0,249.5,111.9,249.5,249.5
	C505.8,394.6,393.9,506.6,256.3,506.6z"/>
<path class="st1" d="M325.2,401.6c-1.8,0-3.5-0.7-4.9-2L182.6,262c-2.7-2.7-2.7-7.1,0-9.8l137.7-137.7c2.7-2.7,7.1-2.7,9.8,0
	c2.7,2.7,2.7,7.1,0,9.8L197.3,257.1l132.8,132.8c2.7,2.7,2.7,7.1,0,9.8C328.7,401,327,401.6,325.2,401.6z"/>
</svg>
