<?xml version="1.0" encoding="utf-8"?>
<!-- Generator: Adobe Illustrator 22.0.0, SVG Export Plug-In . SVG Version: 6.00 Build 0)  -->
<svg version="1.1" id="Layer_1" xmlns="http://www.w3.org/2000/svg" xmlns:xlink="http://www.w3.org/1999/xlink" x="0px" y="0px"
	 viewBox="0 0 512 512" style="enable-background:new 0 0 512 512;" xml:space="preserve">
<style type="text/css">
	.st0{fill:#3FC6F1;}
	.st1{fill:#5E686B;}
</style>
<path class="st0" d="M382,263H130c-3.9,0-7-3.1-7-7s3.1-7,7-7h252c3.9,0,7,3.1,7,7C389,259.9,385.9,263,382,263z"/>
<path class="st1" d="M256,507.2c-139,0-252-113.1-252-252C4,127,100,19.3,227.2,4.8c3.9-0.5,7.3,2.3,7.7,6.2
	c0.4,3.8-2.3,7.3-6.2,7.7C108.6,32.4,18,134.1,18,255.2c0,131.2,106.8,238,238,238c131.2,0,238-106.8,238-238
	c0-121.1-90.6-222.8-210.8-236.5c-3.8-0.4-6.6-3.9-6.2-7.7c0.5-3.8,4-6.7,7.8-6.2C412,19.3,508,126.9,508,255.2
	C508,394.2,394.9,507.2,256,507.2z"/>
</svg>
