<?xml version="1.0" encoding="utf-8"?>
<!-- Generator: Adobe Illustrator 22.0.0, SVG Export Plug-In . SVG Version: 6.00 Build 0)  -->
<svg version="1.1" id="Layer_1" xmlns="http://www.w3.org/2000/svg" xmlns:xlink="http://www.w3.org/1999/xlink" x="0px" y="0px"
	 viewBox="0 0 512 512" style="enable-background:new 0 0 512 512;" xml:space="preserve">
<style type="text/css">
	.st0{fill:#5E686B;}
	.st1{fill:#3FC6F1;}
</style>
<path class="st0" d="M82.5,400.5c-6.4,0-12.7-0.8-19-2.5c-18.9-5.1-34.6-17.2-44.4-34.1l-3.7-6.5c-20.2-34.9-8.2-79.7,26.8-99.9
	L210,160.6c34.9-20.2,79.7-8.1,99.9,26.8l3.7,6.5c9.8,16.9,12.4,36.6,7.3,55.5c-5.1,18.9-17.2,34.6-34.1,44.4l-14.9,8.6
	c-3.3,1.9-7.4,0.7-9.3-2.5c-1.9-3.2-0.8-7.4,2.5-9.2l14.9-8.6c13.8-8,23.6-20.8,27.8-36.2c4.1-15.4,2-31.4-6-45.2l-3.7-6.5
	c-16.4-28.4-52.9-38.2-81.4-21.8L48.9,269.3c-13.8,8-23.6,20.8-27.8,36.2c-4.1,15.4-2,31.4,5.9,45.2l3.7,6.5
	c8,13.8,20.8,23.6,36.2,27.8c15.4,4.1,31.4,2,45.2-6l37.5-21.6c3.3-1.9,7.4-0.8,9.2,2.5c1.9,3.2,0.8,7.4-2.5,9.3L119,390.6
	C107.7,397.1,95.2,400.5,82.5,400.5z"/>
<path class="st1" d="M266.1,375.4c-6.4,0-12.7-0.8-19-2.5c-18.9-5-34.6-17.1-44.4-34.1l-3.7-6.5c-20.2-34.9-8.2-79.7,26.8-99.9
	l14.9-8.5c3.2-1.9,7.4-0.8,9.2,2.5c1.9,3.2,0.8,7.4-2.5,9.2l-14.8,8.5c-28.4,16.4-38.2,52.9-21.8,81.4l3.7,6.5
	c8,13.8,20.8,23.6,36.2,27.8c15.4,4.1,31.4,2,45.2-6L463.6,257c13.8-8,23.6-20.8,27.8-36.2c4.1-15.4,2-31.4-5.9-45.2l-3.7-6.4
	c-16.4-28.4-52.9-38.2-81.4-21.8L362.8,169c-3.3,1.8-7.4,0.8-9.2-2.5c-1.9-3.2-0.8-7.4,2.5-9.3l37.5-21.6
	c34.9-20.1,79.8-8.2,99.9,26.8l3.7,6.4c9.8,16.9,12.4,36.6,7.3,55.5c-5.1,18.9-17.2,34.6-34.1,44.4l-167.8,96.9
	C291.2,372.1,278.7,375.4,266.1,375.4z"/>
</svg>
