<?xml version="1.0" encoding="utf-8"?>
<!-- Generator: Adobe Illustrator 22.0.0, SVG Export Plug-In . SVG Version: 6.00 Build 0)  -->
<svg version="1.1" id="Layer_1" xmlns="http://www.w3.org/2000/svg" xmlns:xlink="http://www.w3.org/1999/xlink" x="0px" y="0px"
	 viewBox="0 0 512 512" style="enable-background:new 0 0 512 512;" xml:space="preserve">
<style type="text/css">
	.st0{fill:#3FC6F1;}
	.st1{fill:#5E686B;}
</style>
<path class="st0" d="M103.5,504.1H12.1c-3.8,0-6.8-3-6.8-6.8V132.4c0-3.8,3-6.8,6.8-6.8h91.4c3.8,0,6.8,3,6.8,6.8v364.9
	C110.2,501.1,107.2,504.1,103.5,504.1z M18.9,490.5h77.8V139.2H18.9V490.5z"/>
<path class="st1" d="M499,504.5h-91c-3.8,0-6.8-3-6.8-6.8V284.5c-0.7-3.2-20.1-51.8-54.6-54.1c-5.1-0.6-9.6-1-14-1
	c-54.4,0-69.9,48.2-70.2,55.1v212.8c0,3.8-3,6.8-6.8,6.8h-91.3c-3.8,0-6.8-3-6.8-6.8V132.4c0-3.8,3-6.8,6.8-6.8h91.3
	c3.8,0,6.8,3,6.8,6.8v44.2c17.6-17.8,55.5-50,115-51C484,127,502.7,209.2,505.8,244.5l0,253.2C505.8,501.5,502.8,504.5,499,504.5z
	 M414.8,490.9h77.4V245.1c-3.4-38.7-22.9-104.7-114.8-105.9c-62.7,1.1-98.4,39.4-111.8,53.8c-3.4,3.7-5,5.4-6.9,6.3
	c-2.1,1-4.6,0.9-6.6-0.3c-2-1.2-3.2-3.4-3.2-5.8v-54.1h-77.8v351.4h77.8V284.5c0-8.1,17.7-68.6,83.8-68.6c4.9,0,10.1,0.4,15.3,1
	c43.7,2.9,65.4,58.9,66.7,66.4L414.8,490.9z"/>
<path class="st0" d="M57.8,103.9c-26.2,0-47.5-21.3-47.5-47.5S31.6,8.9,57.8,8.9c26.2,0,47.5,21.3,47.5,47.5S84,103.9,57.8,103.9z
	 M57.8,22.5c-18.7,0-33.9,15.2-33.9,33.9s15.2,33.9,33.9,33.9c18.7,0,33.9-15.2,33.9-33.9S76.5,22.5,57.8,22.5z"/>
</svg>
