<?xml version="1.0" encoding="utf-8"?>
<!-- Generator: Adobe Illustrator 22.0.0, SVG Export Plug-In . SVG Version: 6.00 Build 0)  -->
<svg version="1.1" id="Layer_1" xmlns="http://www.w3.org/2000/svg" xmlns:xlink="http://www.w3.org/1999/xlink" x="0px" y="0px"
	 viewBox="0 0 512 512" style="enable-background:new 0 0 512 512;" xml:space="preserve">
<style type="text/css">
	.st0{fill:#3FC6F1;}
	.st1{fill:#5E686B;}
</style>
<path class="st0" d="M215.2,145c-19.1,0-34.7-15.6-34.7-34.7s15.6-34.7,34.7-34.7c19.2,0,34.8,15.6,34.8,34.7S234.4,145,215.2,145z
	 M215.2,89.4c-11.5,0-20.8,9.3-20.8,20.8s9.3,20.8,20.8,20.8c11.5,0,20.9-9.4,20.9-20.8C236.1,98.8,226.7,89.4,215.2,89.4z"/>
<path class="st0" d="M257.1,430.5c-48.2,0-87.4-47.9-87.4-106.8c0-58.9,39.2-106.8,87.4-106.8c48.2,0,87.4,47.9,87.4,106.8
	C344.6,382.5,305.3,430.5,257.1,430.5z M257.1,230.8c-40.6,0-73.5,41.7-73.5,92.9c0,51.2,33,92.9,73.5,92.9
	c40.5,0,73.5-41.7,73.5-92.9C330.7,272.4,297.7,230.8,257.1,230.8z"/>
<path class="st0" d="M299,145c-19.2,0-34.7-15.6-34.7-34.7s15.6-34.7,34.7-34.7c19.2,0,34.7,15.6,34.7,34.7S318.2,145,299,145z
	 M299,89.4c-11.5,0-20.8,9.3-20.8,20.8s9.4,20.8,20.8,20.8c11.5,0,20.8-9.4,20.8-20.8S310.5,89.4,299,89.4z"/>
<path class="st0" d="M257.1,193.2c-1,0-2-0.2-3-0.7l-41.9-19.9c-3.5-1.6-5-5.8-3.3-9.3c1.7-3.5,5.8-4.9,9.3-3.3l39,18.4l38.9-18.4
	c3.4-1.6,7.6-0.2,9.3,3.3c1.6,3.5,0.2,7.6-3.3,9.2l-41.9,19.9C259.2,193,258.2,193.2,257.1,193.2z"/>
<path class="st1" d="M258.5,511c-78.7,0-145.9-49.9-176.8-130.7c-17.9,5.9-31.6,8.7-41.8,8.7c0,0,0,0,0,0
	c-11.4,0-19.1-3.6-22.9-10.9c-10.4-19.7,15-58.3,57.3-119.5c35.7-51.7,76.1-110.3,76.1-144.2v-4.2c0-58.9,47.9-106.8,106.8-106.8
	c58.9,0,106.8,47.9,106.8,106.8v4.9c0,35.9,40.6,94.2,76.3,145.7c41.1,59.1,65.7,96.3,55.4,116c-7.2,13.9-27.5,15.1-66.2,3.4
	C402,461.1,337,511,258.5,511z M85.9,364.6c2.9,0,5.6,1.8,6.6,4.6c27.8,78.8,91.4,127.8,166,127.8c74.4,0,135.6-48.9,159.9-127.6
	c0.5-1.8,1.8-3.3,3.4-4.1c1.6-0.9,3.6-1,5.3-0.4c19.3,6.2,34.1,9.4,44.1,9.4c4.6,0,10.5-0.7,12.1-3.9c6.9-13.2-25.7-60.2-54.5-101.6
	C391.9,215.7,350,155.4,350,115.2v-4.9c0-51.2-41.7-92.9-92.9-92.9c-51.2,0-92.9,41.7-92.9,92.9v4.2c0,38.2-39.9,96.1-78.6,152.1
	c-28.2,40.9-63.4,91.9-56.4,105.2c1.5,2.8,6.6,3.4,10.6,3.4c0,0,0,0,0,0c9.7,0,24.4-3.4,43.7-10.1C84.3,364.8,85.1,364.6,85.9,364.6
	z"/>
</svg>
