<?xml version="1.0" encoding="utf-8"?>
<!-- Generator: Adobe Illustrator 22.0.0, SVG Export Plug-In . SVG Version: 6.00 Build 0)  -->
<svg version="1.1" id="Layer_1" xmlns="http://www.w3.org/2000/svg" xmlns:xlink="http://www.w3.org/1999/xlink" x="0px" y="0px"
	 viewBox="0 0 512 512" style="enable-background:new 0 0 512 512;" xml:space="preserve">
<style type="text/css">
	.st0{fill:#3FC6F1;}
	.st1{fill:#5E686B;}
</style>
<path class="st0" d="M256.8,506.5c-90.4,0-186.6-20.5-186.6-58.6c0-32.7,66.6-47.9,106.3-54c3.8-0.6,7.2,2,7.8,5.7
	c0.6,3.7-2,7.2-5.7,7.8c-69.9,10.8-94.8,28.5-94.8,40.5c0,21.2,74,45,172.9,45c98.1,0,171.4-23.7,171.4-45
	c0-11.3-24.9-27.8-79.7-37.5c-3.7-0.7-6.2-4.2-5.5-7.9c0.7-3.7,4.2-6.2,7.9-5.5c57.8,10.2,90.9,28.7,90.9,50.9
	C441.8,485.9,346.5,506.5,256.8,506.5z"/>
<path class="st1" d="M256.8,415.1c-2.2,0-4.3-1.1-5.6-2.9c-5.6-7.9-136.8-193-136.8-267.5c0-76.8,63.2-139.3,140.9-139.3
	c77.2,0,142.4,63.8,142.4,139.3c0,74.4-129.8,259.6-135.3,267.4C261.1,414,259,415.1,256.8,415.1
	C256.8,415.1,256.8,415.1,256.8,415.1z M255.2,19C185.1,19,128,75.4,128,144.7c0,61.8,103.3,214.9,128.7,251.6
	C281.9,359.5,384,206.5,384,144.7C384,76.6,325,19,255.2,19z"/>
<path class="st1" d="M256,217.1c-37.4,0-67.7-30.4-67.7-67.7c0-37.4,30.4-67.7,67.7-67.7c37.4,0,67.7,30.4,67.7,67.7
	C323.7,186.7,293.4,217.1,256,217.1z M256,95.2c-29.8,0-54.1,24.3-54.1,54.1c0,29.8,24.3,54.1,54.1,54.1c29.8,0,54.1-24.3,54.1-54.1
	C310.1,119.5,285.8,95.2,256,95.2z"/>
</svg>
