<?xml version="1.0" encoding="utf-8"?>
<!-- Generator: Adobe Illustrator 22.0.0, SVG Export Plug-In . SVG Version: 6.00 Build 0)  -->
<svg version="1.1" id="Layer_1" xmlns="http://www.w3.org/2000/svg" xmlns:xlink="http://www.w3.org/1999/xlink" x="0px" y="0px"
	 viewBox="0 0 512 512" style="enable-background:new 0 0 512 512;" xml:space="preserve">
<style type="text/css">
	.st0{fill:#5E686C;}
	.st1{fill:#3FC6F1;}
</style>
<path class="st0" d="M77,511.3c-20.5,0-39.8-8-54.3-22.5c-29.9-29.9-29.9-78.6,0-108.6c14.5-14.5,33.8-22.5,54.3-22.5
	s39.8,8,54.3,22.5c14.5,14.5,22.5,33.8,22.5,54.3c0,20.5-8,39.8-22.5,54.3C116.8,503.3,97.5,511.3,77,511.3z M77,371.7
	c-16.8,0-32.5,6.5-44.4,18.4c-24.5,24.5-24.5,64.3,0,88.8c11.9,11.9,27.6,18.4,44.4,18.4s32.5-6.5,44.4-18.4
	c11.9-11.9,18.4-27.6,18.4-44.4c0-16.8-6.5-32.6-18.4-44.4C109.5,378.2,93.8,371.7,77,371.7z"/>
<path class="st0" d="M438.8,268.4c-20.5,0-39.8-8-54.3-22.5c-29.9-29.9-29.9-78.6,0-108.6c14.5-14.5,33.8-22.5,54.3-22.5
	c20.5,0,39.8,8,54.3,22.5c14.5,14.5,22.5,33.8,22.5,54.3c0,20.5-8,39.8-22.5,54.3C478.6,260.4,459.3,268.4,438.8,268.4z
	 M438.8,128.8c-16.8,0-32.5,6.5-44.4,18.4c-24.5,24.5-24.5,64.3,0,88.8c11.9,11.9,27.6,18.4,44.4,18.4c16.8,0,32.5-6.5,44.4-18.4
	c11.9-11.9,18.4-27.6,18.4-44.4s-6.5-32.6-18.4-44.4C471.3,135.3,455.5,128.8,438.8,128.8z"/>
<path class="st0" d="M257.8,391.7c-20.5,0-39.8-8-54.3-22.5c-29.9-29.9-29.9-78.6,0-108.6c14.5-14.5,33.8-22.5,54.3-22.5
	c20.5,0,39.8,8,54.3,22.5c29.9,29.9,29.9,78.6,0,108.6C297.6,383.7,278.3,391.7,257.8,391.7z M257.8,252.1
	c-16.8,0-32.6,6.5-44.4,18.4c-24.5,24.5-24.5,64.3,0,88.8c11.9,11.9,27.6,18.4,44.4,18.4c16.8,0,32.6-6.5,44.4-18.4
	c24.5-24.5,24.5-64.3,0-88.8C290.3,258.6,274.5,252.1,257.8,252.1z"/>
<path class="st1" d="M77,154.3c-20.5,0-39.8-8-54.3-22.5c-29.9-29.9-29.9-78.6,0-108.6C37.2,8.7,56.5,0.7,77,0.7
	c20.5,0,39.8,8,54.3,22.5c29.9,29.9,29.9,78.6,0,108.6C116.8,146.3,97.5,154.3,77,154.3z M77,14.7c-16.8,0-32.6,6.5-44.4,18.4
	c-24.5,24.5-24.5,64.3,0,88.8c11.9,11.9,27.6,18.4,44.4,18.4c16.8,0,32.6-6.5,44.4-18.4c24.5-24.5,24.5-64.3,0-88.8
	C109.6,21.2,93.8,14.7,77,14.7z"/>
<path class="st0" d="M317.5,285.9c-2.3,0-4.6-1.1-5.9-3.2c-2.1-3.3-1.1-7.6,2.2-9.6l67.5-42.8c3.2-2.1,7.6-1.1,9.6,2.2
	c2.1,3.3,1.1,7.6-2.2,9.6l-67.5,42.8C320.1,285.5,318.8,285.9,317.5,285.9z"/>
<path class="st0" d="M134.4,401.8c-2.3,0-4.6-1.1-5.9-3.2c-2.1-3.3-1.1-7.6,2.2-9.6l65.2-41.3c3.3-2.1,7.6-1.1,9.6,2.2
	c2.1,3.3,1.1,7.6-2.2,9.6l-65.2,41.3C136.9,401.4,135.6,401.8,134.4,401.8z"/>
<path class="st1" d="M77,370c-3.9,0-7-3.1-7-7V147.3c0-3.9,3.1-7,7-7s7,3.1,7,7V363C84,366.8,80.9,370,77,370z"/>
<path class="st0" d="M257.8,252.1c-3.9,0-7-3.1-7-7V29.4c0-3.9,3.1-7,7-7c3.9,0,7,3.1,7,7v215.7C264.8,249,261.6,252.1,257.8,252.1z
	"/>
</svg>
