<?xml version="1.0" encoding="utf-8"?>
<!-- Generator: Adobe Illustrator 22.0.0, SVG Export Plug-In . SVG Version: 6.00 Build 0)  -->
<svg version="1.1" id="Layer_1" xmlns="http://www.w3.org/2000/svg" xmlns:xlink="http://www.w3.org/1999/xlink" x="0px" y="0px"
	 viewBox="0 0 512 512" style="enable-background:new 0 0 512 512;" xml:space="preserve">
<style type="text/css">
	.st0{fill:#3FC6F1;}
	.st1{fill:#5E686C;}
</style>
<path class="st0" d="M248.1,470.9c-3.7,0-6.7-3-6.7-6.7v-70.9c0-3.7,3-6.7,6.7-6.7s6.7,3,6.7,6.7v70.9
	C254.8,467.9,251.8,470.9,248.1,470.9z"/>
<path class="st0" d="M381.3,52.5H248.1c-3.7,0-6.7-3-6.7-6.7c0-3.7,3-6.7,6.7-6.7h133.2c3.7,0,6.7,3,6.7,6.7
	C388,49.5,385,52.5,381.3,52.5z"/>
<path class="st1" d="M497,396.9H14.3c-3.7,0-6.7-3-6.7-6.7V233.8c0-56.3,45.8-102.1,102.1-102.1s102.1,45.8,102.1,102.1v76.5
	c0,3.7-3,6.7-6.7,6.7s-6.7-3-6.7-6.7v-76.5c0-48.9-39.8-88.7-88.7-88.7s-88.7,39.8-88.7,88.7v149.7h469.3V219.7
	c0-44.6-31.4-74.6-78.1-74.6H284.8c-3.7,0-6.7-3-6.7-6.7c0-3.7,3-6.7,6.7-6.7h127.4c54.7,0,91.4,35.4,91.4,88v170.5
	C503.7,393.9,500.7,396.9,497,396.9z"/>
<path class="st1" d="M143.1,316.9H76.2c-3.7,0-6.7-3-6.7-6.7s3-6.7,6.7-6.7h66.9c3.7,0,6.7,3,6.7,6.7S146.8,316.9,143.1,316.9z"/>
<path class="st1" d="M297.9,145.1H109.6c-3.7,0-6.7-3-6.7-6.7c0-3.7,3-6.7,6.7-6.7h188.3c3.7,0,6.7,3,6.7,6.7
	C304.6,142.1,301.6,145.1,297.9,145.1z"/>
<path class="st0" d="M248.1,226.6c-3.7,0-6.7-3-6.7-6.7V45.8c0-3.7,3-6.7,6.7-6.7s6.7,3,6.7,6.7v174.1
	C254.8,223.6,251.8,226.6,248.1,226.6z"/>
</svg>
