<?xml version="1.0" encoding="utf-8"?>
<!-- Generator: Adobe Illustrator 22.0.0, SVG Export Plug-In . SVG Version: 6.00 Build 0)  -->
<svg version="1.1" id="Layer_1" xmlns="http://www.w3.org/2000/svg" xmlns:xlink="http://www.w3.org/1999/xlink" x="0px" y="0px"
	 viewBox="0 0 512 512" style="enable-background:new 0 0 512 512;" xml:space="preserve">
<style type="text/css">
	.st0{fill:#69C299;}
	.st1{fill:#3FC6F1;}
	.st2{fill:#5E686C;}
</style>
<path class="st0" d="M329.4,219.6c1.2,0.9,2.7,1.3,4.1,1.3c2.1,0,4.2-1,5.5-2.8l91.3-124.6c2.2-3.1,1.6-7.3-1.5-9.6
	c-3.1-2.2-7.4-1.6-9.6,1.5L327.9,210C325.7,213,326.3,217.3,329.4,219.6z"/>
<path class="st0" d="M247.5,219.6c1.2,0.9,2.6,1.3,4,1.3c2.1,0,4.2-1,5.5-2.8l91.3-124.6c2.2-3.1,1.6-7.3-1.5-9.6
	c-3.1-2.2-7.3-1.6-9.6,1.5L246,210C243.8,213,244.4,217.3,247.5,219.6z"/>
<path class="st1" d="M496.2,272.2H19c-3.8,0-6.8-3-6.8-6.8V47.2c0-3.8,3-6.8,6.8-6.8h477.2c3.8,0,6.8,3,6.8,6.8v218.1
	C503,269.2,500,272.2,496.2,272.2z M25.8,258.6h463.5V54.1H25.8V258.6z"/>
<path class="st2" d="M101.5,505.7c-3.8,0-6.8-3-6.8-6.8V275.1c0-3.8,3-6.8,6.8-6.8s6.8,3,6.8,6.8v223.8
	C108.3,502.7,105.3,505.7,101.5,505.7z"/>
<path class="st2" d="M411.4,505.7c-3.8,0-6.8-3-6.8-6.8V275.1c0-3.8,3-6.8,6.8-6.8c3.8,0,6.8,3,6.8,6.8v223.8
	C418.2,502.7,415.1,505.7,411.4,505.7z"/>
<path class="st2" d="M101.5,47c-3.8,0-6.8-3-6.8-6.8V12.9c0-3.8,3-6.8,6.8-6.8s6.8,3,6.8,6.8v27.3C108.3,44,105.3,47,101.5,47z"/>
<path class="st2" d="M411.4,47c-3.8,0-6.8-3-6.8-6.8V12.9c0-3.8,3-6.8,6.8-6.8c3.8,0,6.8,3,6.8,6.8v27.3C418.2,44,415.1,47,411.4,47
	z"/>
<path class="st2" d="M445.5,505.7h-68.2c-3.8,0-6.8-3-6.8-6.8s3-6.8,6.8-6.8h68.2c3.8,0,6.8,3,6.8,6.8S449.2,505.7,445.5,505.7z"/>
<path class="st2" d="M135.6,505.7H67.4c-3.8,0-6.8-3-6.8-6.8s3-6.8,6.8-6.8h68.2c3.8,0,6.8,3,6.8,6.8S139.3,505.7,135.6,505.7z"/>
<path class="st2" d="M334.3,220.5c-1.4,0-2.8-0.4-4-1.3c-3-2.2-3.7-6.5-1.5-9.5l90.7-123.7c2.2-3,6.5-3.7,9.5-1.5
	c3,2.2,3.7,6.5,1.5,9.5l-90.7,123.7C338.5,219.5,336.4,220.5,334.3,220.5z"/>
<path class="st2" d="M252.9,220.5c-1.4,0-2.8-0.4-4-1.3c-3-2.2-3.7-6.5-1.5-9.5l90.7-123.7c2.2-3,6.5-3.7,9.5-1.5
	c3,2.2,3.7,6.5,1.5,9.5l-90.7,123.7C257.1,219.5,255,220.5,252.9,220.5z"/>
<path class="st2" d="M171.6,220.5c-1.4,0-2.8-0.4-4-1.3c-3-2.2-3.7-6.5-1.5-9.5l90.7-123.7c2.2-3,6.5-3.7,9.5-1.5
	c3,2.2,3.7,6.5,1.5,9.5l-90.7,123.7C175.7,219.5,173.7,220.5,171.6,220.5z"/>
<path class="st2" d="M90.2,220.5c-1.4,0-2.8-0.4-4-1.3c-3-2.2-3.7-6.5-1.5-9.5l90.7-123.7c2.2-3,6.5-3.7,9.5-1.5
	c3,2.2,3.7,6.5,1.5,9.5L95.7,217.7C94.4,219.5,92.3,220.5,90.2,220.5z"/>
</svg>
