<?xml version="1.0" encoding="utf-8"?>
<!-- Generator: Adobe Illustrator 22.0.0, SVG Export Plug-In . SVG Version: 6.00 Build 0)  -->
<svg version="1.1" id="Layer_1" xmlns="http://www.w3.org/2000/svg" xmlns:xlink="http://www.w3.org/1999/xlink" x="0px" y="0px"
	 viewBox="0 0 512 512" style="enable-background:new 0 0 512 512;" xml:space="preserve">
<style type="text/css">
	.st0{fill:#5E686B;}
	.st1{fill:#3FC6F1;}
</style>
<path class="st0" d="M300.5,196.6c-14.9,0-27.1,12.1-27.1,27.1c0,3.7,3,6.6,6.6,6.6c3.7,0,6.6-3,6.6-6.6c0-7.6,6.2-13.8,13.8-13.8
	c7.6,0,13.8,6.2,13.8,13.8c0,3.7,3,6.6,6.6,6.6c3.7,0,6.6-3,6.6-6.6C327.5,208.7,315.4,196.6,300.5,196.6z"/>
<path class="st0" d="M208.5,196.6c-14.9,0-27.1,12.1-27.1,27.1c0,3.7,3,6.6,6.6,6.6c3.7,0,6.6-3,6.6-6.6c0-7.6,6.2-13.8,13.8-13.8
	c7.6,0,13.8,6.2,13.8,13.8c0,3.7,3,6.6,6.6,6.6c3.7,0,6.6-3,6.6-6.6C235.5,208.7,223.4,196.6,208.5,196.6z"/>
<path class="st1" d="M89.4,167.4C89.4,259.3,164.1,334,256,334c91.9,0,166.6-74.7,166.6-166.6S347.9,0.8,256,0.8
	c-69.2,0-128.7,42.4-153.8,102.6c-0.2,0.4-0.3,0.7-0.5,1.2C93.8,124,89.4,145.2,89.4,167.4z M256,320.8
	c-84.6,0-153.4-68.8-153.4-153.4c0-19.1,3.5-37.4,9.9-54.3h286.9c6.4,16.9,9.9,35.2,9.9,54.3C409.4,252,340.6,320.8,256,320.8z
	 M256,14c60.4,0,112.7,35,137.7,85.8H118.3C143.3,49.1,195.6,14,256,14z"/>
<path class="st0" d="M374.9,356.9H137.1c-41.2,0-74.6,33.5-74.6,74.6v68.2c0,3.7,3,6.6,6.6,6.6c0.3,0,0.6,0,0.9-0.1h373
	c3.7,0,6.6-3,6.6-6.6v-68C449.6,390.4,416.1,356.9,374.9,356.9z M436.3,493H75.7v-61.4c0-33.9,27.6-61.4,61.4-61.4h237.8
	c33.9,0,61.4,27.6,61.4,61.4L436.3,493L436.3,493z"/>
</svg>
