<?xml version="1.0" encoding="utf-8"?>
<!-- Generator: Adobe Illustrator 22.0.0, SVG Export Plug-In . SVG Version: 6.00 Build 0)  -->
<svg version="1.1" id="Layer_1" xmlns="http://www.w3.org/2000/svg" xmlns:xlink="http://www.w3.org/1999/xlink" x="0px" y="0px"
	 viewBox="0 0 512 512" style="enable-background:new 0 0 512 512;" xml:space="preserve">
<style type="text/css">
	.st0{fill:#5E686C;}
	.st1{fill:#3FC6F1;}
</style>
<path class="st0" d="M13.3,478.2c-1.5,0-3-0.5-4.2-1.4c-1.6-1.3-2.6-3.3-2.6-5.3V89.6c0-3.1,2.1-5.8,5.2-6.6l162.1-39.5
	c3.6-0.9,7.3,1.3,8.2,5c0.9,3.6-1.3,7.3-5,8.2L20.1,94.9v367.9l153.7-37.4c3.7-0.9,7.3,1.3,8.2,5c0.9,3.6-1.3,7.3-5,8.2L14.9,478
	C14.4,478.1,13.8,478.2,13.3,478.2z"/>
<path class="st0" d="M337.4,478.2c-3.1,0-5.8-2.1-6.6-5.2c-0.9-3.6,1.3-7.3,5-8.2l156.9-38.2v-368L339,96.1c-3.6,0.9-7.3-1.3-8.2-5
	c-0.9-3.6,1.3-7.3,5-8.2l162.1-39.5c2-0.5,4.1,0,5.8,1.3c1.6,1.3,2.6,3.2,2.6,5.3v381.9c0,3.1-2.1,5.8-5.2,6.6L339,478
	C338.5,478.1,338,478.2,337.4,478.2z"/>
<path class="st1" d="M337.4,478.2c-0.5,0-1.1-0.1-1.6-0.2l-162.1-39.5c-3-0.7-5.2-3.4-5.2-6.6V50.1c0-2.1,1-4,2.6-5.3
	c1.6-1.3,3.7-1.8,5.8-1.3L339,83c3,0.7,5.2,3.5,5.2,6.6v381.9c0,2.1-1,4-2.6,5.3C340.4,477.7,338.9,478.2,337.4,478.2z M182.1,426.6
	l148.5,36.2V94.9L182.1,58.7V426.6z"/>
</svg>
