<?xml version="1.0" encoding="utf-8"?>
<!-- Generator: Adobe Illustrator 22.0.0, SVG Export Plug-In . SVG Version: 6.00 Build 0)  -->
<svg version="1.1" id="Layer_1" xmlns="http://www.w3.org/2000/svg" xmlns:xlink="http://www.w3.org/1999/xlink" x="0px" y="0px"
	 viewBox="0 0 512 512" style="enable-background:new 0 0 512 512;" xml:space="preserve">
<style type="text/css">
	.st0{fill:#3FC6F1;}
	.st1{fill:#5E686B;}
</style>
<path class="st0" d="M319.3,508c-1.8,0-3.5-0.7-4.8-2l-53.7-53.7c-0.4-0.4-1.2-1.6-1.5-2.1c-2.6-2.6-6.1-2-8.3,0.3
	c-0.2,0.3-0.9,1.5-1.2,1.8L196,506c-2,2-4.9,2.5-7.5,1.5c-2.6-1.1-4.2-3.6-4.2-6.3V339.8c-0.1-1.4,0.3-2.8,1-4
	c1.3-2,3.4-3.2,5.8-3.2h19.5c1.2,0,2.4,0.3,3.4,0.9l41.2,23.8l41.2-23.8c1-0.6,2.2-0.9,3.4-0.9h19.4c2.4,0,4.6,1.2,5.8,3.2
	c0.8,1.2,1.1,2.6,1,4v161.4c0,2.8-1.7,5.3-4.2,6.3C321.1,507.8,320.2,508,319.3,508z M254.9,435.1c5.8,0,10.7,2,14.3,5.6
	c1,1,1.6,2,1.9,2.6l41.3,41.3V346.2h-10.7L258.6,371c-2.1,1.2-4.7,1.2-6.8,0l-43-24.9H198v138.4l42-42c-0.5,0.2,0.2-0.8,1.2-1.8
	C244.8,437.1,249.7,435.1,254.9,435.1z"/>
<path class="st1" d="M255.2,342.4c-1.2,0-2.4-0.3-3.4-0.9l-36.1-20.9h-41.8c-2.4,0-4.7-1.3-5.9-3.4L147,281L110.8,260
	c-2.1-1.2-3.4-3.5-3.4-5.9v-41.8l-20.9-36.2c-1.2-2.1-1.2-4.7,0-6.8l20.9-36.2V91.3c0-2.4,1.3-4.7,3.4-5.9L147,64.5l20.9-36.1
	c1.2-2.1,3.5-3.4,5.9-3.4h41.8L251.8,4c2.1-1.2,4.7-1.2,6.8,0l36.2,20.9h41.8c2.4,0,4.7,1.3,5.9,3.4l20.9,36.1l36.2,20.9
	c2.1,1.2,3.4,3.5,3.4,5.9v41.8l20.9,36.2c1.2,2.1,1.2,4.7,0,6.8l-20.9,36.2v41.7c0,2.4-1.3,4.7-3.4,5.9L363.4,281l-20.9,36.2
	c-1.2,2.1-3.5,3.4-5.9,3.4h-41.8l-36.2,20.9C257.6,342.1,256.4,342.4,255.2,342.4z M177.8,306.9h39.7c1.2,0,2.4,0.3,3.4,0.9
	l34.3,19.8l34.3-19.8c1-0.6,2.2-0.9,3.4-0.9h39.7l19.8-34.3c0.6-1,1.5-1.9,2.5-2.5l34.4-19.9v-39.6c0-1.2,0.3-2.4,0.9-3.4l19.8-34.4
	l-19.8-34.4c-0.6-1-0.9-2.2-0.9-3.4V95.3L355,75.4c-1-0.6-1.9-1.5-2.5-2.5l-19.8-34.3H293c-1.2,0-2.4-0.3-3.4-0.9l-34.3-19.8
	l-34.3,19.8c-1,0.6-2.2,0.9-3.4,0.9h-39.7l-19.8,34.3c-0.6,1-1.5,1.9-2.5,2.5l-34.4,19.9v39.7c0,1.2-0.3,2.4-0.9,3.4l-19.8,34.4
	l19.8,34.3c0.6,1,0.9,2.2,0.9,3.4v39.6l34.4,19.9c1,0.6,1.9,1.5,2.5,2.5L177.8,306.9z"/>
</svg>
