<?xml version="1.0" encoding="utf-8"?>
<!-- Generator: Adobe Illustrator 22.0.0, SVG Export Plug-In . SVG Version: 6.00 Build 0)  -->
<svg version="1.1" id="Layer_1" xmlns="http://www.w3.org/2000/svg" xmlns:xlink="http://www.w3.org/1999/xlink" x="0px" y="0px"
	 viewBox="0 0 512 512" style="enable-background:new 0 0 512 512;" xml:space="preserve">
<style type="text/css">
	.st0{fill:#5E686C;}
	.st1{fill:#3FC6F1;}
</style>
<path class="st0" d="M142.2,439.4H44.7c-3.7,0-6.8-3-6.8-6.8v-107H12.2c-3.7,0-6.8-3-6.8-6.8v-81.2c0-30.6,24.9-55.5,55.5-55.5h65
	c21.3,0,41,12.5,50.2,31.8c1.6,3.4,0.2,7.4-3.2,9c-3.4,1.6-7.4,0.2-9-3.2c-6.9-14.6-21.8-24.1-38-24.1H61c-23.2,0-42,18.8-42,42
	v74.5h25.8c3.7,0,6.8,3,6.8,6.8v107h90.7c3.7,0,6.8,3,6.8,6.8S145.9,439.4,142.2,439.4z"/>
<path class="st0" d="M93.5,145.4c-29.8,0-54-24.2-54-54c0-29.8,24.2-54,54-54c29.8,0,54,24.2,54,54
	C147.5,121.2,123.3,145.4,93.5,145.4z M93.5,50.9C71.1,50.9,53,69.1,53,91.4s18.2,40.5,40.5,40.5c22.4,0,40.5-18.2,40.5-40.5
	S115.8,50.9,93.5,50.9z"/>
<path class="st0" d="M467.2,439.4h-97.5c-3.7,0-6.8-3-6.8-6.8s3-6.8,6.8-6.8h90.7v-107c0-3.7,3-6.8,6.8-6.8h25.8v-74.5
	c0-23.2-18.8-42-42-42h-65c-16.1,0-31,9.4-38,24.1c-1.6,3.4-5.6,4.8-9,3.2c-3.4-1.6-4.8-5.6-3.2-9c9.2-19.3,28.9-31.8,50.2-31.8h65
	c30.6,0,55.5,24.9,55.5,55.5v81.2c0,3.7-3,6.8-6.8,6.8h-25.8v107C473.9,436.4,470.9,439.4,467.2,439.4z"/>
<path class="st0" d="M418.4,145.4c-29.8,0-54-24.2-54-54c0-29.8,24.2-54,54-54c29.8,0,54,24.2,54,54
	C472.5,121.2,448.2,145.4,418.4,145.4z M418.4,50.9c-22.3,0-40.5,18.2-40.5,40.5s18.2,40.5,40.5,40.5c22.3,0,40.5-18.2,40.5-40.5
	S440.8,50.9,418.4,50.9z"/>
<path class="st1" d="M304.7,504.4h-97.5c-3.7,0-6.8-3-6.8-6.8V374.4h-42c-3.7,0-6.8-3-6.8-6.8V253.9c0-39.6,32.2-71.7,71.7-71.7h65
	c39.6,0,71.7,32.2,71.7,71.7v113.7c0,3.7-3,6.8-6.8,6.8h-42v123.2C311.5,501.4,308.4,504.4,304.7,504.4z M214,490.9h84V367.7
	c0-3.7,3-6.8,6.8-6.8h42v-107c0-32.1-26.1-58.2-58.2-58.2h-65c-32.1,0-58.2,26.1-58.2,58.2v107h42c3.7,0,6.8,3,6.8,6.8L214,490.9
	L214,490.9z"/>
<path class="st1" d="M256,142.7c-37.2,0-67.5-30.3-67.5-67.5c0-37.3,30.3-67.6,67.5-67.6s67.5,30.3,67.5,67.6
	C323.5,112.4,293.2,142.7,256,142.7z M256,21.1c-29.8,0-54,24.2-54,54.1c0,29.8,24.2,54,54,54s54-24.2,54-54
	C310,45.4,285.8,21.1,256,21.1z"/>
</svg>
