<?xml version="1.0" encoding="utf-8"?>
<!-- Generator: Adobe Illustrator 22.0.0, SVG Export Plug-In . SVG Version: 6.00 Build 0)  -->
<svg version="1.1" id="Layer_1" xmlns="http://www.w3.org/2000/svg" xmlns:xlink="http://www.w3.org/1999/xlink" x="0px" y="0px"
	 viewBox="0 0 512 512" style="enable-background:new 0 0 512 512;" xml:space="preserve">
<style type="text/css">
	.st0{fill:#5E686B;}
	.st1{fill:#3FC6F1;}
</style>
<path class="st0" d="M350.3,57.3c-6.3,0-12.5,1.7-17.7,4.7c-3.4,1.8-8.2,4.7-14.3,8.4C275,96.5,159.9,165.8,12.9,165.8
	c-3.8,0-6.9,3.1-6.9,6.9v135.6c0,3.8,3.1,6.9,6.9,6.9c49.4,0,95.4,8.5,136.3,20.8v124.9c0,3.8,3.1,6.9,6.9,6.9
	c3.8,0,6.9-3.1,6.9-6.9V340.2c76.4,25.2,133.3,62.5,158.2,78.8c5.5,3.6,9.4,6.2,11.6,7.3c5,2.7,11.1,4.1,17.3,4.1
	c5.6,0,10.9-1.2,14.9-3.4c5.5-3,8.6-7.8,8.6-13.3V74.5C373.4,64.6,363.7,57.3,350.3,57.3z M19.7,179.5c15-0.2,29.7-1.1,44.1-2.6
	v127.4c-14.3-1.6-29-2.6-44.1-2.8V179.5z M359.7,413.8c-0.3,0.8-3.7,2.9-9.8,2.9c-4,0-7.8-0.9-10.8-2.5c-1.9-1-5.5-3.4-10.5-6.7
	C294.4,385.1,200.3,323.4,77.5,306V175.2c119.4-15.7,210.2-70.4,247.8-93.1c5.9-3.6,10.5-6.3,13.9-8.2c3.3-1.9,7.2-2.9,11.1-2.9
	c6.1,0,9.4,2.5,9.4,3.5L359.7,413.8L359.7,413.8z"/>
<path class="st1" d="M437.8,175.5c-3.8,0-6.9,3.1-6.9,6.9V306c0,3.8,3.1,6.9,6.9,6.9s6.9-3.1,6.9-6.9V182.4
	C444.6,178.6,441.6,175.5,437.8,175.5z"/>
<path class="st1" d="M499.6,207.2c-3.8,0-6.9,3.1-6.9,6.9v68.7c0,3.8,3.1,6.9,6.9,6.9s6.9-3.1,6.9-6.9V214
	C506.4,210.2,503.4,207.2,499.6,207.2z"/>
</svg>
