<?xml version="1.0" encoding="utf-8"?>
<!-- Generator: Adobe Illustrator 22.0.0, SVG Export Plug-In . SVG Version: 6.00 Build 0)  -->
<svg version="1.1" id="Layer_1" xmlns="http://www.w3.org/2000/svg" xmlns:xlink="http://www.w3.org/1999/xlink" x="0px" y="0px"
	 viewBox="0 0 512 512" style="enable-background:new 0 0 512 512;" xml:space="preserve">
<style type="text/css">
	.st0{fill:#5E686B;}
	.st1{fill:#3FC6F1;}
</style>
<path class="st0" d="M500.4,89.7H11.7c-4.5,0-8.1-3.6-8.1-8.1c0-4.5,3.6-8.1,8.1-8.1h488.6c4.5,0,8.1,3.6,8.1,8.1
	C508.5,86.1,504.9,89.7,500.4,89.7z"/>
<path class="st1" d="M500.4,268.9H11.7c-4.5,0-8.1-3.6-8.1-8.1s3.6-8.1,8.1-8.1h488.6c4.5,0,8.1,3.6,8.1,8.1
	C508.5,265.3,504.9,268.9,500.4,268.9z"/>
<path class="st0" d="M500.4,448.1H11.7c-4.5,0-8.1-3.6-8.1-8.1s3.6-8.1,8.1-8.1h488.6c4.5,0,8.1,3.6,8.1,8.1
	S504.9,448.1,500.4,448.1z"/>
</svg>
