<?xml version="1.0" encoding="utf-8"?>
<!-- Generator: Adobe Illustrator 22.0.0, SVG Export Plug-In . SVG Version: 6.00 Build 0)  -->
<svg version="1.1" id="Layer_1" xmlns="http://www.w3.org/2000/svg" xmlns:xlink="http://www.w3.org/1999/xlink" x="0px" y="0px"
	 viewBox="0 0 512 512" style="enable-background:new 0 0 512 512;" xml:space="preserve">
<style type="text/css">
	.st0{fill:#5E686C;}
	.st1{fill:#3FC6F1;}
</style>
<path class="st0" d="M376.7,507c-3.8,0-6.9-3.1-6.9-6.9V134.6c0-3.8,3.1-6.9,6.9-6.9c3.8,0,6.9,3.1,6.9,6.9v365.5
	C383.6,503.9,380.5,507,376.7,507z"/>
<path class="st0" d="M74.1,443.6c-3.8,0-6.9-3.1-6.9-6.9V71.2c0-3.8,3.1-6.9,6.9-6.9s6.9,3.1,6.9,6.9v365.5
	C81,440.5,77.9,443.6,74.1,443.6z"/>
<path class="st0" d="M376.7,141.5H13.1c-3.8,0-6.9-3.1-6.9-6.9c0-3.8,3.1-6.9,6.9-6.9h363.6c3.8,0,6.9,3.1,6.9,6.9
	C383.6,138.4,380.5,141.5,376.7,141.5z"/>
<path class="st0" d="M437.7,444.1H72.2c-3.8,0-6.9-3.1-6.9-6.9s3.1-6.9,6.9-6.9h365.5c3.8,0,6.9,3.1,6.9,6.9
	S441.5,444.1,437.7,444.1z"/>
<path class="st1" d="M13.1,505.1c-1.8,0-3.5-0.7-4.8-2c-2.7-2.7-2.7-7,0-9.7L491.9,9.7c2.7-2.7,7-2.7,9.7,0c2.7,2.7,2.7,7,0,9.7
	L18,503C16.6,504.4,14.9,505.1,13.1,505.1z"/>
</svg>
