<?xml version="1.0" encoding="utf-8"?>
<!-- Generator: Adobe Illustrator 22.0.0, SVG Export Plug-In . SVG Version: 6.00 Build 0)  -->
<svg version="1.1" id="Layer_1" xmlns="http://www.w3.org/2000/svg" xmlns:xlink="http://www.w3.org/1999/xlink" x="0px" y="0px"
	 viewBox="0 0 512 512" style="enable-background:new 0 0 512 512;" xml:space="preserve">
<style type="text/css">
	.st0{fill:#5E686B;}
	.st1{fill:#3FC6F1;}
</style>
<path class="st0" d="M393.3,509.4H118.7c-8.6,0-15.7-7-15.7-15.7V16.7C103,8,110,1,118.7,1h274.7C402,1,409,8,409,16.7v477.1
	C409,502.4,402,509.4,393.3,509.4z M118.7,14.7c-1.1,0-2,0.9-2,2v477.1c0,1.1,0.9,2,2,2h274.7c1.1,0,2-0.9,2-2V16.7c0-1.1-0.9-2-2-2
	H118.7z"/>
<path class="st1" d="M276.6,59.3h-41.1c-3.8,0-6.9-3.1-6.9-6.9s3.1-6.9,6.9-6.9h41.1c3.8,0,6.9,3.1,6.9,6.9S280.4,59.3,276.6,59.3z"
	/>
<path class="st1" d="M256,465.8c-15.1,0-27.4-12.3-27.4-27.4c0-15.1,12.3-27.4,27.4-27.4c15.1,0,27.4,12.3,27.4,27.4
	C283.4,453.5,271.1,465.8,256,465.8z M256,424.7c-7.6,0-13.7,6.1-13.7,13.7c0,7.6,6.1,13.7,13.7,13.7c7.6,0,13.7-6.2,13.7-13.7
	C269.7,430.8,263.6,424.7,256,424.7z"/>
</svg>
