<?xml version="1.0" encoding="utf-8"?>
<!-- Generator: Adobe Illustrator 22.0.0, SVG Export Plug-In . SVG Version: 6.00 Build 0)  -->
<svg version="1.1" id="Layer_1" xmlns="http://www.w3.org/2000/svg" xmlns:xlink="http://www.w3.org/1999/xlink" x="0px" y="0px"
	 viewBox="0 0 512 512" style="enable-background:new 0 0 512 512;" xml:space="preserve">
<style type="text/css">
	.st0{fill:#5E686B;}
	.st1{fill:#3FC6F1;}
</style>
<path class="st0" d="M151.9,107c1,2.8,3.6,4.6,6.6,4.6h189.4c2.9,0,5.6-1.9,6.6-4.6l17.5-49.5c3.2-8,2.2-17-2.6-24.1
	c-4.8-7.1-12.8-11.4-21.5-11.4h-49.3C286.6,9.9,270.2,3,253.1,3c-17.1,0-33.4,6.9-45.4,19h-49.4c-8.6,0-16.6,4.3-21.4,11.4
	c-4.8,7.1-5.8,16.1-2.7,23.8L151.9,107z M148.5,41.1c2.3-3.3,5.9-5.3,9.9-5.3h51.6c0.1,0,0.3,0,0.4,0c2,0.1,4-0.7,5.5-2.3
	c9.4-10.6,23-16.6,37.2-16.6c14.2,0,27.7,6.1,37.2,16.6c0,0,0.1,0.1,0.1,0.1c0.1,0.1,0.2,0.2,0.3,0.3c0.1,0.1,0.2,0.1,0.2,0.2
	c0.1,0.1,0.2,0.2,0.3,0.2c0.1,0.1,0.2,0.1,0.3,0.2c0.1,0.1,0.2,0.1,0.3,0.2c0.1,0.1,0.2,0.1,0.3,0.2c0.1,0,0.2,0.1,0.3,0.1
	c0.1,0.1,0.2,0.1,0.3,0.2c0.1,0,0.2,0.1,0.3,0.1c0.1,0,0.2,0.1,0.4,0.1c0.1,0,0.2,0,0.3,0.1c0.6,0.2,1.2,0.2,1.8,0.2c0,0,0,0,0,0
	h52.3c4,0,7.7,1.9,9.9,5.3c2.3,3.3,2.7,7.4,1.1,11.4l-15.9,45.2H163.4l-16-45.4C145.8,48.5,146.3,44.5,148.5,41.1z"/>
<path class="st0" d="M352.4,137.3c-1.3-1.1-2.9-1.7-4.5-1.7H158.4c-1.7,0-3.3,0.6-4.5,1.7c-5.5,4.7-135,117.3-135,251.5
	c0,78.7,59,120.6,101.7,120.6h265.2c42.6,0,101.7-41.9,101.7-120.6C487.4,254.5,357.9,142,352.4,137.3z M385.7,495.5H120.6
	c-36.8,0-87.8-37.1-87.8-106.7C32.8,269.5,145,164,161.1,149.5h184.1c16,14.4,128.3,119.9,128.3,239.3
	C473.5,458.4,422.5,495.5,385.7,495.5z"/>
<path class="st1" d="M260.1,204.5v-15.9c0-3.8-3.1-7-7-7c-3.8,0-7,3.1-7,7v15.9c-33.1,3.5-59,31.6-59,65.6c0,32,24.5,58.5,59,65v94
	c-21.5-4.3-37.8-23.3-37.8-46c0-3.8-3.1-7-7-7c-3.8,0-7,3.1-7,7c0,30.4,22.5,55.7,51.7,60.2v5.4c0,3.8,3.1,7,7,7c3.8,0,7-3.1,7-7
	v-4.9c31.4-2.4,56.2-28.7,56.2-60.7c0-30.3-22.3-53.8-56.2-59.9V218.6c25.4,3.4,45.1,25.2,45.1,51.6c0,3.8,3.1,7,7,7s7-3.1,7-7
	C319.1,236.1,293.2,208,260.1,204.5z M201.1,270.1c0-26.3,19.7-48.2,45.1-51.6v102.4C219.3,315,201.1,294.9,201.1,270.1z
	 M302.4,383.1c0,24.3-18.6,44.3-42.2,46.7v-92.5C285.7,342.9,302.4,360.6,302.4,383.1z"/>
</svg>
