<?xml version="1.0" encoding="utf-8"?>
<!-- Generator: Adobe Illustrator 22.0.0, SVG Export Plug-In . SVG Version: 6.00 Build 0)  -->
<svg version="1.1" id="Layer_1" xmlns="http://www.w3.org/2000/svg" xmlns:xlink="http://www.w3.org/1999/xlink" x="0px" y="0px"
	 viewBox="0 0 512 512" style="enable-background:new 0 0 512 512;" xml:space="preserve">
<style type="text/css">
	.st0{fill:#5E686C;}
	.st1{fill:#3FC6F1;}
</style>
<path class="st0" d="M500.6,403.9H11.4c-3.8,0-6.8-3-6.8-6.8v-93.3c0-3.8,3-6.8,6.8-6.8c3.8,0,6.8,3,6.8,6.8v86.5h475.6v-86.5
	c0-3.8,3-6.8,6.8-6.8s6.8,3,6.8,6.8v93.3C507.4,400.9,504.3,403.9,500.6,403.9z"/>
<path class="st0" d="M256,491c-3.8,0-6.8-3-6.8-6.8v-67.9c0-3.8,3-6.8,6.8-6.8c3.8,0,6.8,3,6.8,6.8v67.9
	C262.8,487.9,259.7,491,256,491z"/>
<path class="st0" d="M375.6,491H136.4c-3.8,0-6.8-3-6.8-6.8s3-6.8,6.8-6.8h239.3c3.8,0,6.8,3,6.8,6.8S379.4,491,375.6,491z"/>
<path class="st1" d="M500.6,310.6H11.4c-3.8,0-6.8-3-6.8-6.8V42.5c0-3.8,3-6.8,6.8-6.8h489.2c3.8,0,6.8,3,6.8,6.8v261.3
	C507.4,307.5,504.3,310.6,500.6,310.6z M18.2,297h475.6V49.3H18.2V297z"/>
</svg>
