<?xml version="1.0" encoding="utf-8"?>
<!-- Generator: Adobe Illustrator 22.0.0, SVG Export Plug-In . SVG Version: 6.00 Build 0)  -->
<svg version="1.1" id="Layer_1" xmlns="http://www.w3.org/2000/svg" xmlns:xlink="http://www.w3.org/1999/xlink" x="0px" y="0px"
	 viewBox="0 0 512 512" style="enable-background:new 0 0 512 512;" xml:space="preserve">
<style type="text/css">
	.st0{fill:#69C299;}
	.st1{fill:#656565;}
	.st2{clip-path:url(#SVGID_4_);fill:#656565;}
	.st3{fill:#3FC6F1;}
</style>
<g>
	<path id="SVGID_1_" class="st0" d="M256,507.2c-85.1,0-154.3-69.2-154.3-154.3V239.6c0-85.1,69.2-154.3,154.3-154.3
		c85.1,0,154.3,69.2,154.3,154.3V353C410.3,438,341.1,507.2,256,507.2z M256,99.3c-77.4,0-140.3,62.9-140.3,140.3V353
		c0,77.4,63,140.3,140.3,140.3c77.4,0,140.3-62.9,140.3-140.3V239.6C396.3,162.2,333.4,99.3,256,99.3z"/>
</g>
<g>
	<g>
		<path id="SVGID_2_" class="st1" d="M256,507.2c-85.1,0-154.3-69.2-154.3-154.3V239.6c0-85.1,69.2-154.3,154.3-154.3
			c85.1,0,154.3,69.2,154.3,154.3V353C410.3,438,341.1,507.2,256,507.2z M256,99.3c-77.4,0-140.3,62.9-140.3,140.3V353
			c0,77.4,63,140.3,140.3,140.3c77.4,0,140.3-62.9,140.3-140.3V239.6C396.3,162.2,333.4,99.3,256,99.3z"/>
	</g>
	<g>
		<defs>
			<path id="SVGID_3_" d="M256,507.2c-85.1,0-154.3-69.2-154.3-154.3V239.6c0-85.1,69.2-154.3,154.3-154.3
				c85.1,0,154.3,69.2,154.3,154.3V353C410.3,438,341.1,507.2,256,507.2z M256,99.3c-77.4,0-140.3,62.9-140.3,140.3V353
				c0,77.4,63,140.3,140.3,140.3c77.4,0,140.3-62.9,140.3-140.3V239.6C396.3,162.2,333.4,99.3,256,99.3z"/>
		</defs>
		<clipPath id="SVGID_4_">
			<use xlink:href="#SVGID_3_"  style="overflow:visible;"/>
		</clipPath>
		<path class="st2" d="M256,507.2c-85.1,0-154.3-69.2-154.3-154.3V239.6c0-85.1,69.2-154.3,154.3-154.3
			c85.1,0,154.3,69.2,154.3,154.3V353C410.3,438,341.1,507.2,256,507.2z M256,99.3c-77.4,0-140.3,62.9-140.3,140.3V353
			c0,77.4,63,140.3,140.3,140.3c77.4,0,140.3-62.9,140.3-140.3V239.6C396.3,162.2,333.4,99.3,256,99.3z"/>
	</g>
</g>
<path class="st1" d="M256,99.3c-3.9,0-7-3.1-7-7V9.8c0-3.9,3.1-7,7-7c3.9,0,7,3.1,7,7v82.5C263,96.2,259.9,99.3,256,99.3z"/>
<path class="st3" d="M256,247.5c-23.1,0-41.8-18.8-41.8-41.9c0-23.1,18.8-41.8,41.8-41.8c23.1,0,41.8,18.8,41.8,41.8
	C297.8,228.7,279.1,247.5,256,247.5z M256,177.7c-15.4,0-27.9,12.5-27.9,27.9c0,15.4,12.5,27.9,27.9,27.9
	c15.4,0,27.9-12.5,27.9-27.9C283.9,190.3,271.4,177.7,256,177.7z"/>
</svg>
