<?xml version="1.0" encoding="utf-8"?>
<!-- Generator: Adobe Illustrator 22.0.0, SVG Export Plug-In . SVG Version: 6.00 Build 0)  -->
<svg version="1.1" id="Layer_1" xmlns="http://www.w3.org/2000/svg" xmlns:xlink="http://www.w3.org/1999/xlink" x="0px" y="0px"
	 viewBox="0 0 512 512" style="enable-background:new 0 0 512 512;" xml:space="preserve">
<style type="text/css">
	.st0{fill:#3FC6F1;}
	.st1{fill:#5E686C;}
</style>
<path class="st0" d="M316.4,341.5c-1.7,0-3.4-0.7-4.8-2c-2.6-2.6-2.6-6.9,0-9.5l60.8-60.8l-60.8-60.8c-2.6-2.6-2.6-6.9,0-9.5
	c2.6-2.6,6.9-2.6,9.5,0l65.5,65.5c2.6,2.6,2.6,6.9,0,9.5l-65.5,65.5C319.8,340.9,318.1,341.5,316.4,341.5z"/>
<path class="st1" d="M500.2,451.5H13.5c-3.7,0-6.8-3-6.8-6.8V80.2c0-3.7,3-6.8,6.8-6.8h160.5c3.7,0,6.8,3,6.8,6.8s-3,6.8-6.8,6.8
	H20.3v351h473.1V87H297.2c-3.7,0-6.8-3-6.8-6.8s3-6.8,6.8-6.8h202.9c3.7,0,6.8,3,6.8,6.8v364.6C506.9,448.5,503.9,451.5,500.2,451.5
	z"/>
<path class="st0" d="M349,277.1h-77.5c-57.5,0-104.2-46.8-104.2-104.2c0-0.3,0-0.6,0.1-0.9V80.2c0-3.7,3-6.8,6.8-6.8s6.8,3,6.8,6.8
	v92.6c0,0.3,0,0.5-0.1,0.8c0.4,49.6,41,89.9,90.7,89.9H349c3.7,0,6.8,3,6.8,6.8C355.8,274,352.7,277.1,349,277.1z"/>
<path class="st0" d="M317,343c-1.7,0-3.5-0.7-4.8-2c-2.6-2.6-2.6-6.9,0-9.6l61.1-61.1l-61.1-61.1c-2.6-2.6-2.6-6.9,0-9.6
	c2.6-2.6,6.9-2.6,9.6,0l65.9,65.9c2.6,2.6,2.6,6.9,0,9.6L321.8,341C320.5,342.3,318.7,343,317,343z"/>
</svg>
