<?xml version="1.0" encoding="utf-8"?>
<!-- Generator: Adobe Illustrator 22.0.0, SVG Export Plug-In . SVG Version: 6.00 Build 0)  -->
<svg version="1.1" id="Layer_1" xmlns="http://www.w3.org/2000/svg" xmlns:xlink="http://www.w3.org/1999/xlink" x="0px" y="0px"
	 viewBox="0 0 512 512" style="enable-background:new 0 0 512 512;" xml:space="preserve">
<style type="text/css">
	.st0{fill:#3FC6F1;}
	.st1{fill:#5E686B;}
</style>
<path class="st0" d="M376.5,308.1c-25.8,0-46.8-21-46.8-46.7c0-25.8,21-46.8,46.8-46.8c12.5,0,24.2,4.9,33.1,13.7
	c8.8,8.8,13.7,20.6,13.7,33.1C423.3,287.1,402.3,308.1,376.5,308.1z M376.5,227.9c-18.4,0-33.4,15-33.4,33.4
	c0,18.4,15,33.4,33.4,33.4c18.4,0,33.4-15,33.4-33.4c0-8.9-3.5-17.3-9.8-23.6C393.8,231.4,385.4,227.9,376.5,227.9z"/>
<path class="st0" d="M257.2,188.8c-25.8,0-46.8-21-46.8-46.8c0-25.8,21-46.8,46.8-46.8s46.8,21,46.8,46.8
	C303.9,167.8,283,188.8,257.2,188.8z M257.2,108.6c-18.4,0-33.4,15-33.4,33.4c0,18.4,15,33.4,33.4,33.4c18.4,0,33.4-15,33.4-33.4
	C290.6,123.6,275.6,108.6,257.2,108.6z"/>
<path class="st0" d="M137.8,308.1c-25.8,0-46.8-21-46.8-46.7c0-25.8,21-46.8,46.8-46.8s46.8,21,46.8,46.8
	C184.6,287.1,163.6,308.1,137.8,308.1z M137.8,227.9c-18.4,0-33.4,15-33.4,33.4c0,18.4,15,33.4,33.4,33.4c18.4,0,33.4-15,33.4-33.4
	C171.2,242.9,156.2,227.9,137.8,227.9z"/>
<path class="st0" d="M257.2,427.5c-25.8,0-46.8-21-46.8-46.8c0-25.8,21-46.7,46.8-46.7s46.8,21,46.8,46.7
	C303.9,406.5,283,427.5,257.2,427.5z M257.2,347.3c-18.4,0-33.4,15-33.4,33.4c0,18.4,15,33.4,33.4,33.4c18.4,0,33.4-15,33.4-33.4
	C290.6,362.3,275.6,347.3,257.2,347.3z"/>
<path class="st1" d="M257.2,508.2C118.6,508.2,5.8,395.4,5.8,256.8S118.6,5.5,257.2,5.5s251.3,112.7,251.3,251.3
	c0,82.5-40.6,159.8-108.5,206.8c-3,2.1-7.2,1.4-9.3-1.7c-2.1-3-1.3-7.2,1.7-9.3c64.3-44.5,102.7-117.7,102.7-195.8
	c0-131.2-106.8-238-238-238c-131.2,0-238,106.8-238,238c0,131.2,106.8,238,238,238c3.7,0,6.7,3,6.7,6.7
	C263.8,505.2,260.9,508.2,257.2,508.2z"/>
<path class="st1" d="M497.3,508.2H257.2c-3.7,0-6.7-3-6.7-6.7s3-6.7,6.7-6.7h240.1c3.7,0,6.7,3,6.7,6.7
	C504,505.2,501,508.2,497.3,508.2z"/>
</svg>
