<?xml version="1.0" encoding="utf-8"?>
<!-- Generator: Adobe Illustrator 22.0.0, SVG Export Plug-In . SVG Version: 6.00 Build 0)  -->
<svg version="1.1" id="Layer_1" xmlns="http://www.w3.org/2000/svg" xmlns:xlink="http://www.w3.org/1999/xlink" x="0px" y="0px"
	 viewBox="0 0 512 512" style="enable-background:new 0 0 512 512;" xml:space="preserve">
<style type="text/css">
	.st0{fill:#5E686B;}
	.st1{fill:#3FC6F1;}
</style>
<path class="st0" d="M404.5,508H115.4c-16,0-29.1-13-29.1-29V34.7c0-16,13-29,29.1-29h289.1c16,0,29.1,13,29.1,29.1V479
	C433.6,495,420.6,508,404.5,508z M115.4,19.3c-8.5,0-15.4,6.9-15.4,15.4V479c0,8.5,6.9,15.4,15.4,15.4h289.1
	c8.5,0,15.4-6.9,15.4-15.4V34.7c0-8.5-6.9-15.4-15.4-15.4H115.4z"/>
<path class="st1" d="M260,466.1c-60.3,0-109.3-49-109.3-109.3c0-60.3,49-109.3,109.3-109.3c60.3,0,109.3,49,109.3,109.3
	C369.3,417,320.3,466.1,260,466.1z M260,261.1c-52.7,0-95.6,42.9-95.6,95.6c0,52.7,42.9,95.6,95.6,95.6c52.7,0,95.6-42.9,95.6-95.6
	S312.7,261.1,260,261.1z"/>
<path class="st0" d="M362.5,220.9H157.5c-3.8,0-6.8-3.1-6.8-6.8V77.4c0-3.8,3.1-6.8,6.8-6.8h204.9c3.8,0,6.8,3.1,6.8,6.8V214
	C369.3,217.8,366.2,220.9,362.5,220.9z M164.4,207.2h191.3v-123H164.4V207.2z"/>
<path class="st1" d="M260,404.6c-26.4,0-47.8-21.5-47.8-47.8c0-26.4,21.5-47.8,47.8-47.8c26.4,0,47.8,21.5,47.8,47.8
	C307.8,383.1,286.4,404.6,260,404.6z M260,322.6c-18.8,0-34.2,15.3-34.2,34.2s15.3,34.2,34.2,34.2c18.8,0,34.2-15.3,34.2-34.2
	S278.8,322.6,260,322.6z"/>
</svg>
