<?xml version="1.0" encoding="utf-8"?>
<!-- Generator: Adobe Illustrator 22.0.0, SVG Export Plug-In . SVG Version: 6.00 Build 0)  -->
<svg version="1.1" id="Layer_1" xmlns="http://www.w3.org/2000/svg" xmlns:xlink="http://www.w3.org/1999/xlink" x="0px" y="0px"
	 viewBox="0 0 512 512" style="enable-background:new 0 0 512 512;" xml:space="preserve">
<style type="text/css">
	.st0{fill:#3FC6F1;}
	.st1{fill:#5E686B;}
</style>
<path class="st0" d="M330.2,342c-1.7,0-3.5-0.7-4.8-2c-2.6-2.6-2.6-6.9,0-9.6l80.6-80.7L325.4,169c-2.6-2.6-2.6-6.9,0-9.6
	c2.6-2.6,6.9-2.6,9.6,0l85.3,85.5c2.6,2.6,2.6,6.9,0,9.6L335,340C333.6,341.3,331.9,342,330.2,342z"/>
<path class="st0" d="M501.1,342c-1.7,0-3.5-0.7-4.8-2l-85.4-85.5c-2.6-2.6-2.6-6.9,0-9.6l85.4-85.5c2.6-2.6,6.9-2.6,9.6,0
	c2.6,2.6,2.6,6.9,0,9.6l-80.6,80.7l80.6,80.7c2.6,2.6,2.6,6.9,0,9.6C504.5,341.3,502.8,342,501.1,342z"/>
<path class="st1" d="M225.7,462.4c-1.4,0-2.9-0.5-4.1-1.3L85.8,359.4H13.1c-3.7,0-6.8-3-6.8-6.8V168.3c0-3.7,3-6.8,6.8-6.8h72.7
	L221.7,59.9c2.1-1.5,4.8-1.8,7.1-0.6c2.3,1.1,3.7,3.5,3.7,6v390.4c0,2.6-1.4,4.9-3.7,6C227.8,462.2,226.7,462.4,225.7,462.4z
	 M19.8,345.9H88c1.5,0,2.9,0.5,4,1.3L219,442.2V78.8l-126.9,95c-1.2,0.9-2.6,1.3-4,1.3H19.8V345.9z"/>
</svg>
