<?xml version="1.0" encoding="utf-8"?>
<!-- Generator: Adobe Illustrator 22.0.0, SVG Export Plug-In . SVG Version: 6.00 Build 0)  -->
<svg version="1.1" id="Layer_1" xmlns="http://www.w3.org/2000/svg" xmlns:xlink="http://www.w3.org/1999/xlink" x="0px" y="0px"
	 viewBox="0 0 512 512" style="enable-background:new 0 0 512 512;" xml:space="preserve">
<style type="text/css">
	.st0{fill:#5E686B;}
	.st1{fill:#3FC6F1;}
</style>
<path class="st0" d="M255.7,509C115.8,509,2,395.2,2,255.3C2,126.2,98.6,17.8,226.7,3.2c3.8-0.5,7.4,2.3,7.8,6.2
	c0.4,3.9-2.3,7.4-6.2,7.8C107.3,31,16.1,133.3,16.1,255.3c0,132.1,107.5,239.6,239.6,239.6s239.6-107.5,239.6-239.6
	c0-121.9-91.2-224.3-212.2-238.1c-3.9-0.4-6.6-3.9-6.2-7.8c0.4-3.9,4-6.7,7.8-6.2c128.1,14.6,224.7,122.9,224.7,252.1
	C509.4,395.2,395.6,509,255.7,509z"/>
<path class="st1" d="M268.3,428.3c-0.2,0-0.3,0-0.5,0c-3.1-0.2-5.8-2.5-6.4-5.5l-31-142.1L88.3,249.5c-3.1-0.7-5.3-3.3-5.5-6.4
	c-0.2-3.1,1.7-6,4.6-7.1l280.5-101.9c2.6-0.9,5.5-0.3,7.4,1.6c1.9,1.9,2.6,4.8,1.6,7.4L275,423.6
	C273.9,426.4,271.3,428.3,268.3,428.3z M115,241l122.8,26.8c2.7,0.6,4.8,2.7,5.4,5.4L270,395.9l88.5-243.4L115,241z"/>
</svg>
