<?xml version="1.0" encoding="utf-8"?>
<!-- Generator: Adobe Illustrator 22.0.0, SVG Export Plug-In . SVG Version: 6.00 Build 0)  -->
<svg version="1.1" id="Layer_1" xmlns="http://www.w3.org/2000/svg" xmlns:xlink="http://www.w3.org/1999/xlink" x="0px" y="0px"
	 viewBox="0 0 512 512" style="enable-background:new 0 0 512 512;" xml:space="preserve">
<style type="text/css">
	.st0{fill:#5E686B;}
	.st1{fill:#3FC6F1;}
</style>
<path class="st0" d="M260.1,398c108.9,0,197.5-88.6,197.5-197.5C457.7,91.5,369,2.9,260.1,2.9C151.2,2.9,62.6,91.5,62.5,200.4
	c0,0,0,0,0,0s0,0,0,0c0,0,0,0,0,0C62.5,309.4,151.2,398,260.1,398z M109,96.1c14.3,10,30.6,18.4,48.2,25.2
	c-5.6,22.2-8.8,46.6-9.3,72.2H76.6C77.9,157.4,89.7,124,109,96.1z M443.6,193.5h-71.3c-0.5-25.6-3.8-50-9.3-72.2
	c17.6-6.7,33.8-15.2,48.2-25.2C430.5,124,442.3,157.4,443.6,193.5z M411.2,304.8c-14.3-10-30.6-18.4-48.2-25.2
	c5.6-22.2,8.8-46.6,9.3-72.2h71.3C442.3,243.4,430.5,276.9,411.2,304.8z M253.2,261.2c-29.2,0.6-57.3,5.3-83.1,13.6
	c-4.9-20.8-7.9-43.5-8.4-67.5h91.4V261.2z M253.2,275.1v108.5c-34.3-4.5-63.8-41.8-79.4-95.2C198.4,280.4,225.4,275.8,253.2,275.1z
	 M267,383.6V275.1c27.7,0.7,54.8,5.3,79.4,13.3C330.8,341.8,301.3,379.2,267,383.6z M267,261.3v-53.9h91.4
	c-0.5,24-3.4,46.8-8.4,67.7C324.2,266.7,295.9,261.9,267,261.3z M358.5,193.5H267v-53.8c28.9-0.7,57.1-5.4,83-13.8
	C355,146.7,358,169.5,358.5,193.5z M267,125.8V17.2c34.3,4.5,63.8,41.8,79.4,95.2C321.8,120.5,294.8,125.1,267,125.8z M253.2,17.2
	v108.5c-27.7-0.7-54.8-5.3-79.4-13.3C189.4,59,218.9,21.7,253.2,17.2z M253.2,139.7v53.8h-91.4c0.5-24,3.4-46.8,8.4-67.6
	C196,134.2,224.3,139,253.2,139.7z M147.9,207.4c0.5,25.5,3.8,49.9,9.3,72.1c-17.5,6.7-33.7,15.2-48.2,25.3
	c-19.3-27.9-31.1-61.3-32.4-97.4H147.9z M117.3,315.9c13-9,27.7-16.7,43.6-22.9c11,36.2,28.1,65.7,49,84.1
	C173,366.7,140.9,344.9,117.3,315.9z M310.3,377.1c20.9-18.4,38.1-47.9,49-84.1c15.9,6.2,30.6,13.8,43.6,22.8
	C379.3,344.9,347.2,366.7,310.3,377.1z M402.9,85c-13,9-27.7,16.7-43.6,22.9c-11-36.2-28.1-65.7-49-84.1
	C347.2,34.2,379.3,56,402.9,85z M209.9,23.7c-20.9,18.4-38.1,47.9-49,84.1C145,101.7,130.3,94,117.3,85
	C140.9,56,173.1,34.2,209.9,23.7z"/>
<path class="st1" d="M417.3,453.5c-12.9,0-23.8,8.9-26.9,20.8H287c-2.5-9.7-10.2-17.4-19.9-19.9v-35.6c0-3.8-3.1-6.9-6.9-6.9
	s-6.9,3.1-6.9,6.9v35.6c-9.7,2.5-17.4,10.2-19.9,19.9H129.3c-3.1-12-14-20.8-26.9-20.8c-15.3,0-27.7,12.4-27.7,27.7
	c0,15.3,12.4,27.8,27.7,27.8c12.9,0,23.8-8.9,26.9-20.8h103.9c3.1,12,14,20.8,26.9,20.8c12.9,0,23.8-8.9,26.9-20.8h103.4
	c3.1,12,14,20.8,26.9,20.8c15.3,0,27.8-12.5,27.8-27.8C445,465.9,432.6,453.5,417.3,453.5z M102.5,495.1c-7.7,0-13.9-6.2-13.9-13.9
	c0-7.6,6.2-13.9,13.9-13.9c7.4,0,13.4,5.8,13.8,13.1c0,0.3-0.1,0.5-0.1,0.8c0,0.3,0,0.5,0.1,0.8
	C115.9,489.3,109.8,495.1,102.5,495.1z M260.1,495.1c-7.7,0-13.9-6.2-13.9-13.9c0-7.6,6.2-13.9,13.9-13.9c7.7,0,13.9,6.2,13.9,13.9
	C274,488.9,267.8,495.1,260.1,495.1z M417.3,495.1c-6.9,0-12.6-5.1-13.7-11.6c0.2-0.7,0.4-1.4,0.4-2.2c0-0.8-0.1-1.5-0.4-2.2
	c1.1-6.6,6.8-11.6,13.7-11.6c7.7,0,13.9,6.2,13.9,13.9C431.1,488.9,424.9,495.1,417.3,495.1z"/>
</svg>
