<?xml version="1.0" encoding="utf-8"?>
<!-- Generator: Adobe Illustrator 22.0.0, SVG Export Plug-In . SVG Version: 6.00 Build 0)  -->
<svg version="1.1" id="Layer_1" xmlns="http://www.w3.org/2000/svg" xmlns:xlink="http://www.w3.org/1999/xlink" x="0px" y="0px"
	 viewBox="0 0 512 512" style="enable-background:new 0 0 512 512;" xml:space="preserve">
<style type="text/css">
	.st0{fill:#5E686B;}
	.st1{fill:#3FC6F1;}
</style>
<path class="st0" d="M213.1,493.7H85.8c-19.6,0-35.6-15.9-35.6-35.6V89.1c9,9.4,21.6,15.2,35.6,15.2h353.9v88.6
	c0,3.8,3.1,6.9,6.9,6.9c3.8,0,6.9-3.1,6.9-6.9V97.4c0-3.8-3.1-6.9-6.9-6.9H85.8c-19.6,0-35.6-16-35.6-35.6s16-35.6,35.6-35.6h360.7
	c3.8,0,6.9-3.1,6.9-6.9c0-3.8-3.1-6.9-6.9-6.9H85.8C58.6,5.7,36.5,27.8,36.5,55c0,2.6,0.2,5.2,0.6,7.8c-0.4,0.9-0.6,1.8-0.6,2.8
	v392.6c0,27.2,22.1,49.3,49.3,49.3h127.3c3.8,0,6.9-3.1,6.9-6.9S216.9,493.7,213.1,493.7z"/>
<path class="st0" d="M361.7,239.1c-74,0-134.2,60.2-134.2,134.2c0,74,60.2,134.2,134.2,134.2c74,0,134.2-60.2,134.2-134.2
	C495.9,299.3,435.7,239.1,361.7,239.1z M361.7,493.7c-66.4,0-120.5-54-120.5-120.4s54-120.5,120.5-120.5
	c66.4,0,120.4,54,120.4,120.5C482.1,439.7,428.1,493.7,361.7,493.7z"/>
<path class="st1" d="M399.3,379.1l-30.7,30.7v-89.5c0-3.8-3.1-6.9-6.9-6.9c-3.8,0-6.9,3.1-6.9,6.9v89.5l-30.7-30.7
	c-2.7-2.7-7-2.7-9.7,0c-2.7,2.7-2.7,7,0,9.7l42.4,42.4c1.3,1.3,3,2,4.9,2s3.6-0.7,4.9-2l42.4-42.4c2.7-2.7,2.7-7,0-9.7
	C406.3,376.4,402,376.4,399.3,379.1z"/>
<path class="st0" d="M85.8,48.1c-3.8,0-6.9,3.1-6.9,6.9c0,3.8,3.1,6.9,6.9,6.9h339.5c3.8,0,6.9-3.1,6.9-6.9c0-3.8-3.1-6.9-6.9-6.9
	H85.8z"/>
</svg>
