<?xml version="1.0" encoding="utf-8"?>
<!-- Generator: Adobe Illustrator 22.0.0, SVG Export Plug-In . SVG Version: 6.00 Build 0)  -->
<svg version="1.1" id="Layer_1" xmlns="http://www.w3.org/2000/svg" xmlns:xlink="http://www.w3.org/1999/xlink" x="0px" y="0px"
	 viewBox="0 0 512 512" style="enable-background:new 0 0 512 512;" xml:space="preserve">
<style type="text/css">
	.st0{fill:#5E686B;}
	.st1{fill:#3FC6F1;}
</style>
<path class="st0" d="M14.2,141.9c-3.7,0-6.7-3-6.7-6.7v-121c0-3.7,3-6.7,6.7-6.7c3.7,0,6.7,3,6.7,6.7v121
	C20.9,138.9,17.9,141.9,14.2,141.9z"/>
<path class="st0" d="M135.2,20.9h-121c-3.7,0-6.7-3-6.7-6.7s3-6.7,6.7-6.7h121c3.7,0,6.7,3,6.7,6.7
	C141.9,17.9,138.9,20.9,135.2,20.9z"/>
<path class="st0" d="M498.1,20.9H377c-3.7,0-6.7-3-6.7-6.7s3-6.7,6.7-6.7h121c3.7,0,6.7,3,6.7,6.7S501.8,20.9,498.1,20.9z"/>
<path class="st0" d="M498.1,141.9c-3.7,0-6.7-3-6.7-6.7v-121c0-3.7,3-6.7,6.7-6.7c3.7,0,6.7,3,6.7,6.7v121
	C504.8,138.9,501.8,141.9,498.1,141.9z"/>
<path class="st0" d="M498.1,505.1c-3.7,0-6.7-3-6.7-6.7v-121c0-3.7,3-6.7,6.7-6.7c3.7,0,6.7,3,6.7,6.7v121
	C504.8,502.1,501.8,505.1,498.1,505.1z"/>
<path class="st0" d="M498.1,505.1H377c-3.7,0-6.7-3-6.7-6.7c0-3.7,3-6.7,6.7-6.7h121c3.7,0,6.7,3,6.7,6.7
	C504.8,502.1,501.8,505.1,498.1,505.1z"/>
<path class="st0" d="M135.2,505.1h-121c-3.7,0-6.7-3-6.7-6.7c0-3.7,3-6.7,6.7-6.7h121c3.7,0,6.7,3,6.7,6.7
	C141.9,502.1,138.9,505.1,135.2,505.1z"/>
<path class="st0" d="M14.2,505.1c-3.7,0-6.7-3-6.7-6.7v-121c0-3.7,3-6.7,6.7-6.7c3.7,0,6.7,3,6.7,6.7v121
	C20.9,502.1,17.9,505.1,14.2,505.1z"/>
<path class="st1" d="M256.1,320.2c-40.8,0-73.9-33.2-73.9-73.9s33.2-73.9,73.9-73.9c40.8,0,73.9,33.2,73.9,73.9
	C330.1,287,296.9,320.2,256.1,320.2z M256.1,185.8c-33.4,0-60.5,27.1-60.5,60.5c0,33.3,27.1,60.5,60.5,60.5
	c33.4,0,60.5-27.1,60.5-60.5C316.6,212.9,289.5,185.8,256.1,185.8z"/>
</svg>
