<?xml version="1.0" encoding="utf-8"?>
<!-- Generator: Adobe Illustrator 22.0.0, SVG Export Plug-In . SVG Version: 6.00 Build 0)  -->
<svg version="1.1" id="Layer_1" xmlns="http://www.w3.org/2000/svg" xmlns:xlink="http://www.w3.org/1999/xlink" x="0px" y="0px"
	 viewBox="0 0 512 512" style="enable-background:new 0 0 512 512;" xml:space="preserve">
<style type="text/css">
	.st0{fill:#5E686B;}
	.st1{fill:#3FC6F1;}
</style>
<path class="st0" d="M260.1,507.3c-121.8,0-220.9-99.1-220.9-220.9c0-91.1,54.6-171.6,139.1-205.2c3.6-1.4,7.6,0.3,9,3.9
	c1.4,3.6-0.3,7.6-3.9,9C104.2,125.6,53.1,201.1,53.1,286.4c0,114.1,92.9,207,207,207s207-92.8,207-207
	c0-85.3-51.2-160.8-130.3-192.3c-3.6-1.4-5.3-5.5-3.9-9c1.4-3.6,5.5-5.3,9-3.9C426.4,114.8,481,195.4,481,286.4
	C481,408.2,381.9,507.3,260.1,507.3z"/>
<path class="st1" d="M260.1,187.5c-3.8,0-6.9-3.1-6.9-6.9V13.8c0-3.8,3.1-6.9,6.9-6.9s6.9,3.1,6.9,6.9v166.8
	C267,184.4,263.9,187.5,260.1,187.5z"/>
</svg>
