<?xml version="1.0" encoding="utf-8"?>
<!-- Generator: Adobe Illustrator 22.0.0, SVG Export Plug-In . SVG Version: 6.00 Build 0)  -->
<svg version="1.1" id="Layer_1" xmlns="http://www.w3.org/2000/svg" xmlns:xlink="http://www.w3.org/1999/xlink" x="0px" y="0px"
	 viewBox="0 0 512 512" style="enable-background:new 0 0 512 512;" xml:space="preserve">
<style type="text/css">
	.st0{fill:#5E686B;}
	.st1{fill:#3FC6F1;}
</style>
<path class="st0" d="M275,509C135.4,509,21.9,395.5,21.9,255.9C21.9,116.4,135.4,2.8,275,2.8c73.9,0,144,32.2,192.2,88.4
	c2.3,2.7,2.2,6.6-0.3,9.1L315.2,255.9l151.6,155.6c2.4,2.5,2.6,6.5,0.3,9.1C418.9,476.8,348.9,509,275,509z M275,16.4
	c-132.1,0-239.5,107.4-239.5,239.5C35.4,388,142.9,495.4,275,495.4c67.9,0,132.3-28.7,177.8-79L300.9,260.6c-2.6-2.6-2.6-6.8,0-9.5
	L452.7,95.4C407.3,45.1,342.8,16.4,275,16.4z"/>
<path class="st1" d="M336.5,142.7c-22.4,0-40.7-18.2-40.7-40.7s18.2-40.7,40.7-40.7c22.4,0,40.7,18.2,40.7,40.7
	S359,142.7,336.5,142.7z M336.5,74.9c-14.9,0-27.1,12.2-27.1,27.1s12.2,27.1,27.1,27.1c15,0,27.1-12.2,27.1-27.1
	S351.5,74.9,336.5,74.9z"/>
</svg>
