<?xml version="1.0" encoding="utf-8"?>
<!-- Generator: Adobe Illustrator 22.0.0, SVG Export Plug-In . SVG Version: 6.00 Build 0)  -->
<svg version="1.1" id="Layer_1" xmlns="http://www.w3.org/2000/svg" xmlns:xlink="http://www.w3.org/1999/xlink" x="0px" y="0px"
	 viewBox="0 0 512 512" style="enable-background:new 0 0 512 512;" xml:space="preserve">
<style type="text/css">
	.st0{fill:#5E686B;}
	.st1{fill:#3FC6F1;}
</style>
<path class="st0" d="M441.9,508H78.6c-3.8,0-6.8-3-6.8-6.8V12.5c0-3.8,3-6.8,6.8-6.8h54.7c3.8,0,6.8,3,6.8,6.8s-3,6.8-6.8,6.8H85.5
	v475.1H435V19.3H195c-3.8,0-6.8-3-6.8-6.8s3-6.8,6.8-6.8h246.9c3.8,0,6.8,3,6.8,6.8v488.7C448.7,505,445.6,508,441.9,508z"/>
<path class="st1" d="M369.4,180.7H155.6c-3.8,0-6.8-3-6.8-6.8s3-6.8,6.8-6.8h213.9c3.8,0,6.8,3,6.8,6.8S373.2,180.7,369.4,180.7z"/>
<path class="st1" d="M365.3,248.6H159.8c-3.8,0-6.8-3-6.8-6.8s3-6.8,6.8-6.8h205.5c3.8,0,6.8,3,6.8,6.8S369,248.6,365.3,248.6z"/>
<path class="st1" d="M278.3,316.5H163.9c-3.8,0-6.8-3-6.8-6.8c0-3.8,3-6.8,6.8-6.8h114.4c3.8,0,6.8,3,6.8,6.8
	C285.1,313.5,282.1,316.5,278.3,316.5z"/>
<path class="st0" d="M365.3,316.5h-35.8c-3.8,0-6.8-3-6.8-6.8c0-3.8,3-6.8,6.8-6.8h35.8c3.8,0,6.8,3,6.8,6.8
	C372.1,313.5,369,316.5,365.3,316.5z"/>
</svg>
