<?xml version="1.0" encoding="utf-8"?>
<!-- Generator: Adobe Illustrator 22.0.0, SVG Export Plug-In . SVG Version: 6.00 Build 0)  -->
<svg version="1.1" id="Layer_1" xmlns="http://www.w3.org/2000/svg" xmlns:xlink="http://www.w3.org/1999/xlink" x="0px" y="0px"
	 viewBox="0 0 512 512" style="enable-background:new 0 0 512 512;" xml:space="preserve">
<style type="text/css">
	.st0{fill:#5E686C;}
	.st1{fill:#3FC6F1;}
</style>
<path class="st0" d="M231.6,504.4H90.4c-2,0-4-0.9-5.2-2.5c-1.3-1.6-1.8-3.7-1.3-5.7l17.2-76.4c0.8-3.6,4.5-5.9,8-5.1
	c3.6,0.8,5.9,4.4,5.1,8L98.8,491h127.4L250,383.1c0.7-3.1,3.4-5.3,6.6-5.3h45.6c85.2,0,151.8-52.3,169.6-133.3
	c11.3-51.5-4.7-85.2-20.1-104.5c-9-11.2-20.4-20.7-33.9-28.1c-3.2-1.8-4.4-5.9-2.6-9.1c1.8-3.2,5.9-4.4,9.1-2.6
	c15,8.3,27.7,18.9,37.8,31.5c17.3,21.5,35.3,59.1,22.8,115.8c-19.3,87.4-91,143.9-182.7,143.9H262l-23.8,107.9
	C237.5,502.2,234.8,504.4,231.6,504.4z"/>
<path class="st1" d="M107.6,428H32.3c-2,0-4-0.9-5.2-2.5c-1.3-1.6-1.8-3.7-1.3-5.7l92-409c0.7-3.1,3.4-5.2,6.6-5.2H295
	c43.3,0,84.1,18.5,109,49.6c11.5,14.3,19.5,30.9,23.6,49.3c0.8,3.6-1.5,7.2-5.1,8c-3.5,0.8-7.2-1.5-8-5.1
	c-3.7-16.4-10.8-31.2-21-43.9C371.1,35.7,334.3,19,295,19H129.7l-89,395.5h66.9c3.7,0,6.7,3,6.7,6.7C114.3,425,111.3,428,107.6,428z
	"/>
<path class="st1" d="M172.2,428h-66.3c-3.7,0-6.7-3-6.7-6.7c0-3.7,3-6.7,6.7-6.7h60.9l23.9-108.4c0.7-3.1,3.4-5.3,6.6-5.3H243
	c85.6,0,152.5-52.6,170.4-134c4.9-22.4,5.1-43.3,0.6-62.3c-0.9-3.6,1.4-7.2,5-8.1c3.6-0.9,7.2,1.4,8.1,5c5,20.9,4.8,43.9-0.6,68.3
	c-19.4,87.8-91.4,144.5-183.5,144.5h-40.5l-23.9,108.4C178,425.8,175.3,428,172.2,428z"/>
<path class="st0" d="M260.3,215.7h-47.8c-2,0-4-0.9-5.3-2.5c-1.3-1.6-1.7-3.7-1.3-5.7l21.8-93.5c0.7-3,3.4-5.2,6.5-5.2h49.8
	c9.7,0,18.7,2.8,26.1,8.1c14.3,10.3,19.9,28.4,14.7,47.2c-2.9,12-9.7,23.5-19.6,32.8c-3.2,3-6.9,5.8-11,8.5
	C283.5,212.1,271.8,215.7,260.3,215.7z M221,202.3h39.3c8.9,0,18.2-2.9,26.8-8.3c3.4-2.2,6.4-4.5,9-6.9c7.9-7.4,13.5-16.8,15.8-26.4
	c3.8-13.7,0.2-25.9-9.5-32.9c-5.1-3.6-11.4-5.6-18.2-5.6h-44.5L221,202.3z"/>
</svg>
