<?xml version="1.0" encoding="utf-8"?>
<!-- Generator: Adobe Illustrator 22.0.0, SVG Export Plug-In . SVG Version: 6.00 Build 0)  -->
<svg version="1.1" id="Layer_1" xmlns="http://www.w3.org/2000/svg" xmlns:xlink="http://www.w3.org/1999/xlink" x="0px" y="0px"
	 viewBox="0 0 512 512" style="enable-background:new 0 0 512 512;" xml:space="preserve">
<style type="text/css">
	.st0{fill:#3FC6F1;}
	.st1{fill:#5E686C;}
</style>
<path class="st0" d="M363.4,250.3c-31.2,0-56.6-25.4-56.6-56.6c0-31.2,25.4-56.6,56.6-56.6c31.2,0,56.5,25.4,56.5,56.6
	C420,224.9,394.6,250.3,363.4,250.3z M363.4,150.8c-23.7,0-43,19.3-43,43c0,23.7,19.3,43,43,43c23.7,0,43-19.3,43-43
	C406.4,170,387.1,150.8,363.4,150.8z"/>
<path class="st0" d="M10.8,500.8c-1.3,0-2.5-0.3-3.7-1.1c-3.2-2-4.1-6.2-2-9.4L159,252.1c1.3-2,3.6-3.1,5.9-3.1
	c2.4,0.1,4.5,1.4,5.7,3.5L243.9,382l38.5-51.2c1.3-1.7,2.7-2.9,5.4-2.7c2.1,0,4.1,1,5.4,2.7l121.2,159c2.3,3,1.7,7.2-1.3,9.5
	c-2.9,2.3-7.3,1.7-9.5-1.3L287.8,346.2l-39.3,52.3c-1.4,1.8-3.6,2.9-5.9,2.7c-2.3-0.1-4.4-1.4-5.5-3.4l-72.8-128.9L16.5,497.7
	C15.2,499.7,13.1,500.8,10.8,500.8z"/>
<path class="st1" d="M499.1,500.8H10.8c-3.8,0-6.8-3-6.8-6.8V14.2c0-3.8,3-6.8,6.8-6.8h488.3c3.8,0,6.8,3,6.8,6.8V494
	C505.9,497.7,502.9,500.8,499.1,500.8z M17.6,487.2h474.7V21H17.6V487.2z"/>
</svg>
