<?xml version="1.0" encoding="utf-8"?>
<!-- Generator: Adobe Illustrator 22.0.0, SVG Export Plug-In . SVG Version: 6.00 Build 0)  -->
<svg version="1.1" id="Layer_1" xmlns="http://www.w3.org/2000/svg" xmlns:xlink="http://www.w3.org/1999/xlink" x="0px" y="0px"
	 viewBox="0 0 512 512" style="enable-background:new 0 0 512 512;" xml:space="preserve">
<style type="text/css">
	.st0{fill:#3FC6F1;}
	.st1{fill:#5E686C;}
</style>
<path class="st0" d="M256,509.4c-3.8,0-6.8-3-6.8-6.8V247.7c0-3.8,3-6.8,6.8-6.8s6.8,3,6.8,6.8v254.9
	C262.8,506.3,259.8,509.4,256,509.4z"/>
<path class="st1" d="M384.8,254.5H127.2c-3.8,0-6.8-3-6.8-6.8c0-3.8,3-6.8,6.8-6.8h257.7c3.8,0,6.8,3,6.8,6.8
	C391.6,251.4,388.6,254.5,384.8,254.5z"/>
<path class="st1" d="M345.7,16.2H155.5c-3.8,0-6.8-3-6.8-6.8c0-3.8,3-6.8,6.8-6.8h190.2c3.8,0,6.8,3,6.8,6.8
	C352.5,13.2,349.4,16.2,345.7,16.2z"/>
<path class="st1" d="M170,254.5c-0.2,0-0.3,0-0.5,0c-3.7-0.3-6.5-3.5-6.3-7.3L180.8,9c0.3-3.8,3.6-6.6,7.3-6.3
	c3.7,0.3,6.5,3.5,6.3,7.3l-17.6,238.2C176.5,251.8,173.5,254.5,170,254.5z"/>
<path class="st1" d="M342,254.5c-3.4,0-6.3-2.5-6.7-6L306.8,10.3c-0.5-3.7,2.2-7.1,5.9-7.6c3.6-0.5,7.1,2.2,7.5,5.9l28.5,238.2
	c0.5,3.7-2.2,7.1-5.9,7.6C342.5,254.5,342.3,254.5,342,254.5z"/>
</svg>
