<?xml version="1.0" encoding="utf-8"?>
<!-- Generator: Adobe Illustrator 22.0.0, SVG Export Plug-In . SVG Version: 6.00 Build 0)  -->
<svg version="1.1" id="Layer_1" xmlns="http://www.w3.org/2000/svg" xmlns:xlink="http://www.w3.org/1999/xlink" x="0px" y="0px"
	 viewBox="0 0 512 512" style="enable-background:new 0 0 512 512;" xml:space="preserve">
<style type="text/css">
	.st0{fill:#5E686C;}
	.st1{fill:#3FC6F1;}
</style>
<path class="st0" d="M152.9,509.7c-1,0-1.9-0.1-2.9-0.4c-4.1-1.1-7.1-4.6-7.6-8.8c-3.8-24.7-8.4-70.7,1-110
	c5.1-21.2,32-134.5,36.2-152c-2.6-6-8.7-22.8-8.7-45.5c0-45,27.2-80.2,62-80.2c27.6,0,45.4,19.4,45.4,49.4
	c0,17.7-6.9,39.9-14.3,63.5c-4,12.7-8.1,25.9-11.1,38.6c-2.8,11.6-0.5,22.7,6.3,31.4c7.4,9.3,19.1,14.7,32.2,14.7
	c47.7,0,83.7-61.7,83.7-143.6C374.9,104,332,65,262.9,65c-64.9,0-133.8,45.1-133.8,128.8c0,20.8,5.6,37.5,17.2,51
	c6.8,7.8,8,12.8,5.5,22l-2.3,9.2c-1.3,5.1-2.7,10.7-3.5,13.6c-1.8,6.7-5.7,9.9-8.7,11.4c-4.3,2.2-9.6,2.3-14.8,0.3
	c-3.5-1.4-5.3-5.4-3.9-8.9c1.4-3.5,5.3-5.3,8.9-3.9c1.5,0.6,2.8,0.7,3.6,0.3c0.9-0.5,1.4-1.9,1.6-2.7c0.8-2.9,2.2-8.3,3.4-13.4
	l2.4-9.3c1.3-4.7,1.3-4.9-2.7-9.5c-13.8-16.2-20.5-35.8-20.5-60c0-69.1,51.7-142.5,147.6-142.5c76.4,0,125.8,45.3,125.8,115.4
	c0,89.7-41.9,157.3-97.4,157.3c-17.3,0-33-7.3-43-19.9c-9.5-12-12.6-27.3-8.9-43.1c3.1-13.1,7.3-26.5,11.4-39.4
	c7-22.6,13.7-43.9,13.7-59.4c0-8.4-2.3-35.7-31.6-35.7c-27,0-48.2,29.2-48.2,66.4c0,24.6,8.3,41.6,8.4,41.8c0.7,1.4,0.9,3.1,0.5,4.7
	c0,0-31.2,131.4-36.8,154.3c-8.7,36.4-4.2,80.5-1.3,100.8c1.7-0.1,3.3,0.3,4.7,1.4c3,2.3,3.6,6.6,1.3,9.6
	C159.4,508.2,156.2,509.7,152.9,509.7z"/>
<path class="st1" d="M155,491.4c13-17,36.7-51.1,46-84.6c3.5-12.3,19.9-77,20.1-77.7c0.7-2.8,3-4.8,5.8-5.1c2.9-0.4,5.6,1.1,6.9,3.6
	c8.3,15.6,34.4,31.7,63.7,31.7c86.7,0,147.3-77,147.3-187.2c0-76.4-65.1-155.4-174.1-155.4c-82,0-197.4,52.8-197.4,170.1
	c0,50.7,19.8,87.8,54.2,101.8c3.5,1.4,5.2,5.4,3.8,8.9c-1.4,3.5-5.4,5.2-8.9,3.8c-39.3-15.9-62.8-58.7-62.8-114.5
	C59.6,71.7,167,2.9,270.7,2.9c117.6,0,187.8,86,187.8,169.1c0,116.4-67.7,201-161.1,201c-25.3,0-51.3-10.8-66.7-26.6
	c-5.1,19.9-14.1,55.1-16.6,64.1c-11,39.6-40.2,79.2-52.2,94.4C160.5,506.7,153.6,493.3,155,491.4z"/>
</svg>
