<?xml version="1.0" encoding="utf-8"?>
<!-- Generator: Adobe Illustrator 22.0.0, SVG Export Plug-In . SVG Version: 6.00 Build 0)  -->
<svg version="1.1" id="Layer_1" xmlns="http://www.w3.org/2000/svg" xmlns:xlink="http://www.w3.org/1999/xlink" x="0px" y="0px"
	 viewBox="0 0 512 512" style="enable-background:new 0 0 512 512;" xml:space="preserve">
<style type="text/css">
	.st0{fill:#3FC6F1;}
	.st1{fill:#5E686B;}
</style>
<path class="st0" d="M95,134.3h32.2c3.7,0,6.7-3,6.7-6.7c0-3.7-3-6.7-6.7-6.7H95c-3.7,0-6.7,3-6.7,6.7
	C88.3,131.3,91.3,134.3,95,134.3z"/>
<path class="st0" d="M191.6,134.3h32.2c3.7,0,6.7-3,6.7-6.7c0-3.7-3-6.7-6.7-6.7h-32.2c-3.7,0-6.7,3-6.7,6.7
	C185,131.3,188,134.3,191.6,134.3z"/>
<path class="st0" d="M352.8,134.3h64.5c3.7,0,6.7-3,6.7-6.7c0-3.7-3-6.7-6.7-6.7h-64.5c-3.7,0-6.7,3-6.7,6.7
	C346.1,131.3,349.1,134.3,352.8,134.3z"/>
<path class="st1" d="M497.8,40.4H14.4c-3.7,0-6.7,3-6.7,6.7v419c0,3.7,3,6.7,6.7,6.7h483.4c3.7,0,6.7-3,6.7-6.7v-419
	C504.5,43.4,501.5,40.4,497.8,40.4z M491.1,53.7v147.8H21.1V53.7H491.1z M21.1,459.3V214.9h470.1v244.5L21.1,459.3L21.1,459.3z"/>
</svg>
