<?xml version="1.0" encoding="utf-8"?>
<!-- Generator: Adobe Illustrator 22.0.0, SVG Export Plug-In . SVG Version: 6.00 Build 0)  -->
<svg version="1.1" id="Layer_1" xmlns="http://www.w3.org/2000/svg" xmlns:xlink="http://www.w3.org/1999/xlink" x="0px" y="0px"
	 viewBox="0 0 512 512" style="enable-background:new 0 0 512 512;" xml:space="preserve">
<style type="text/css">
	.st0{fill:#5E686C;}
	.st1{fill:#3FC6F1;}
</style>
<path class="st0" d="M63.7,506.8c-1.1,0-2.2-0.3-3.3-0.8c-2.1-1.2-3.5-3.4-3.5-5.9V16.1c0-3.7,3-6.7,6.7-6.7c3.7,0,6.7,3,6.7,6.7
	V488l377-235.6c3.1-2,7.3-1,9.3,2.1c2,3.2,1,7.3-2.1,9.3l-387.2,242C66.1,506.5,64.9,506.8,63.7,506.8z"/>
<path class="st1" d="M450.9,264.8c-1.2,0-2.5-0.3-3.6-1L60.1,21.8c-3.1-2-4.1-6.1-2.1-9.3c2-3.1,6.1-4.1,9.3-2.1l387.2,242
	c3.2,2,4.1,6.1,2.1,9.3C455.3,263.7,453.1,264.8,450.9,264.8z"/>
</svg>
