<?xml version="1.0" encoding="utf-8"?>
<!-- Generator: Adobe Illustrator 22.0.0, SVG Export Plug-In . SVG Version: 6.00 Build 0)  -->
<svg version="1.1" id="Layer_1" xmlns="http://www.w3.org/2000/svg" xmlns:xlink="http://www.w3.org/1999/xlink" x="0px" y="0px"
	 viewBox="0 0 512 512" style="enable-background:new 0 0 512 512;" xml:space="preserve">
<style type="text/css">
	.st0{fill:#3FC6F1;}
	.st1{fill:#5E686C;}
</style>
<path class="st0" d="M377.2,344.8c-1.7,0-3.4-0.6-4.7-1.9L42.7,21.6C40,19,39.9,14.7,42.6,12c2.6-2.7,6.9-2.7,9.6-0.1L382,333.2
	c2.7,2.6,2.8,6.9,0.1,9.6C380.7,344.2,379,344.8,377.2,344.8z"/>
<path class="st0" d="M47.4,501.4c-1.8,0-3.5-0.7-4.9-2.1c-2.6-2.7-2.6-7,0.1-9.6l329.8-321.3c2.7-2.6,7-2.6,9.6,0.1
	c2.6,2.7,2.6,7-0.1,9.6L52.2,499.4C50.9,500.7,49.1,501.4,47.4,501.4z"/>
<path class="st1" d="M69.3,507.5c-8.9,0-17.6-2.4-25.4-7c-15.3-9.1-24.5-25.1-24.5-42.9V53.8C19.5,36,28.6,20,44,10.9
	C59,2,78.1,1.7,93.3,10.1l368.6,201.8c16.2,8.9,25.9,25.2,25.9,43.7c0,18.5-9.7,34.9-25.9,43.8L93.3,501.3
	C85.9,505.3,77.6,507.5,69.3,507.5z M69.4,17.5c-6.4,0-12.8,1.8-18.5,5.1c-11.1,6.6-17.8,18.3-17.8,31.2v403.7
	c0,12.9,6.6,24.6,17.8,31.2c10.9,6.5,24.6,6.8,35.9,0.6l368.6-201.9c11.8-6.4,18.8-18.3,18.8-31.8c0-13.4-7-25.3-18.8-31.8L86.8,22
	C81.4,19,75.4,17.5,69.4,17.5z"/>
</svg>
