<?xml version="1.0" encoding="utf-8"?>
<!-- Generator: Adobe Illustrator 22.0.0, SVG Export Plug-In . SVG Version: 6.00 Build 0)  -->
<svg version="1.1" id="Layer_1" xmlns="http://www.w3.org/2000/svg" xmlns:xlink="http://www.w3.org/1999/xlink" x="0px" y="0px"
	 viewBox="0 0 512 512" style="enable-background:new 0 0 512 512;" xml:space="preserve">
<style type="text/css">
	.st0{fill:#3FC6F1;}
	.st1{fill:#5E686C;}
</style>
<path class="st0" d="M190.7,166.1c-3.7,0-6.7-3-6.7-6.7V11.2c0-3.7,3-6.7,6.7-6.7s6.7,3,6.7,6.7v148.1
	C197.4,163.1,194.4,166.1,190.7,166.1z"/>
<path class="st0" d="M332,166.1c-3.7,0-6.7-3-6.7-6.7V11.2c0-3.7,3-6.7,6.7-6.7c3.7,0,6.7,3,6.7,6.7v148.1
	C338.8,163.1,335.8,166.1,332,166.1z"/>
<path class="st1" d="M202.5,509.3h-106c-3.7,0-6.7-3-6.7-6.7c0-3.7,3-6.7,6.7-6.7h106c28.8,0,52.2-23.4,52.2-52.2
	c0-3.7,3-6.7,6.7-6.7c3.7,0,6.7,3,6.7,6.7C268.1,479.9,238.7,509.3,202.5,509.3z"/>
<path class="st1" d="M390.9,450.4H120c-16.7,0-30.3-13.6-30.3-30.3V184.6c0-16.7,13.6-30.3,30.3-30.3h270.9
	c16.7,0,30.3,13.6,30.3,30.3v235.6C421.2,436.8,407.6,450.4,390.9,450.4z M120,167.7c-9.3,0-16.8,7.5-16.8,16.8v235.6
	c0,9.3,7.5,16.8,16.8,16.8h270.9c9.3,0,16.8-7.5,16.8-16.8V184.6c0-9.3-7.5-16.8-16.8-16.8L120,167.7L120,167.7z"/>
</svg>
