<?xml version="1.0" encoding="utf-8"?>
<!-- Generator: Adobe Illustrator 22.0.0, SVG Export Plug-In . SVG Version: 6.00 Build 0)  -->
<svg version="1.1" id="Layer_1" xmlns="http://www.w3.org/2000/svg" xmlns:xlink="http://www.w3.org/1999/xlink" x="0px" y="0px"
	 viewBox="0 0 512 512" style="enable-background:new 0 0 512 512;" xml:space="preserve">
<style type="text/css">
	.st0{fill:#5E686B;}
	.st1{fill:#3FC6F1;}
</style>
<path class="st0" d="M255.7,506.7C117.5,506.7,5,394.2,5,256C5,128.4,100.5,21.3,227.1,6.9c3.8-0.5,7.3,2.3,7.7,6.1
	c0.4,3.8-2.3,7.3-6.1,7.7C109.1,34.3,18.9,135.5,18.9,256c0,130.6,106.2,236.8,236.8,236.8c130.6,0,236.8-106.2,236.8-236.8
	c0-120.5-90.2-221.7-209.7-235.3c-3.8-0.4-6.6-3.9-6.1-7.7c0.4-3.8,3.7-6.7,7.7-6.1C411,21.3,506.4,128.4,506.4,256
	C506.4,394.2,394,506.7,255.7,506.7z"/>
<path class="st1" d="M255.7,388.3c-3.9,0-7-3.1-7-7V130.6c0-3.8,3.1-7,7-7s7,3.1,7,7v250.7C262.7,385.2,259.6,388.3,255.7,388.3z"/>
<path class="st1" d="M381.1,262.9H130.4c-3.8,0-7-3.1-7-7s3.1-7,7-7h250.7c3.8,0,7,3.1,7,7C388,259.8,384.9,262.9,381.1,262.9z"/>
</svg>
