<?xml version="1.0" encoding="utf-8"?>
<!-- Generator: Adobe Illustrator 22.0.0, SVG Export Plug-In . SVG Version: 6.00 Build 0)  -->
<svg version="1.1" id="Layer_1" xmlns="http://www.w3.org/2000/svg" xmlns:xlink="http://www.w3.org/1999/xlink" x="0px" y="0px"
	 viewBox="0 0 512 512" style="enable-background:new 0 0 512 512;" xml:space="preserve">
<style type="text/css">
	.st0{fill:#5E686B;}
	.st1{fill:#3FC6F1;}
</style>
<g id="Page-1">
	<g id="icon-46-bowling-pin-ball">
		<path class="st0" d="M247.4,465.8c0,0.1-0.1,0.1-0.1,0.2c-5.9,13.2-11.3,22.6-14,27.1h-77.7c-8.1-13.4-39.6-70.6-39.6-142.9
			c0-82.5,41-144.2,41.5-144.8c0.8-1.1,1.2-2.4,1.2-3.8V159c0-24-6.5-41.7-12.2-57.4c-4.9-13.3-9.1-24.8-9.1-38.5
			c0-19.3,17.7-46.5,57.2-46.5c39.4,0,57.2,27.2,57.2,46.5c0,13.6-4.2,25.1-9.1,38.5c-5.7,15.6-12.2,33.3-12.2,57.4v42.6
			c0,1.3,0.4,2.7,1.2,3.8c0.2,0.3,21.2,31.8,33.2,79.3c0.2,0.8,0.6,1.6,1.1,2.3c3.3-3.1,7.3-5.6,11.5-7.4
			c-11.1-43-28.7-72.6-33.5-80V159c0-21.6,5.8-37.5,11.4-52.7c5.1-13.9,9.9-27.1,9.9-43.1c0-24.9-21.9-60-70.6-60
			c-44.2,0-70.6,30.5-70.6,60c0,16,4.8,29.2,9.9,43.1c5.6,15.3,11.4,31.1,11.4,52.7v40.6c-7.1,11.1-42.6,70.7-42.6,150.6
			c0,86.7,42,150.6,43.7,153.3c1.2,1.9,3.4,3,5.6,3h85.2c2.2,0,4.4-1.1,5.6-3c0.3-0.5,7.4-11.2,15.9-29.8
			C254.4,471.8,250.6,469.1,247.4,465.8z"/>
	</g>
</g>
<path class="st1" d="M330.2,506.5c-68.3,0-123.9-55.6-123.9-123.9c0-68.3,55.6-123.9,123.9-123.9s123.9,55.6,123.9,123.9
	C454.1,450.9,398.5,506.5,330.2,506.5z M330.2,272.2c-60.9,0-110.4,49.5-110.4,110.4c0,60.9,49.5,110.4,110.4,110.4
	s110.4-49.5,110.4-110.4C440.7,321.7,391.1,272.2,330.2,272.2z"/>
<path class="st0" d="M237.1,208.3h-85.2c-3.7,0-6.7-3-6.7-6.7s3-6.7,6.7-6.7h85.2c3.7,0,6.7,3,6.7,6.7
	C243.8,205.3,240.8,208.3,237.1,208.3z"/>
</svg>
