<?xml version="1.0" encoding="utf-8"?>
<!-- Generator: Adobe Illustrator 22.0.0, SVG Export Plug-In . SVG Version: 6.00 Build 0)  -->
<svg version="1.1" id="Layer_1" xmlns="http://www.w3.org/2000/svg" xmlns:xlink="http://www.w3.org/1999/xlink" x="0px" y="0px"
	 viewBox="0 0 512 512" style="enable-background:new 0 0 512 512;" xml:space="preserve">
<style type="text/css">
	.st0{fill:#5E686B;}
	.st1{fill:#3FC6F1;}
</style>
<path class="st0" d="M64.5,317.6C30.6,317.6,3,289.9,3,256s27.6-61.6,61.6-61.6c33.9,0,61.6,27.6,61.6,61.6
	C126.1,289.9,98.5,317.6,64.5,317.6z M64.5,208.1c-26.4,0-47.9,21.5-47.9,47.9c0,26.4,21.5,47.9,47.9,47.9s47.9-21.5,47.9-47.9
	C112.4,229.6,90.9,208.1,64.5,208.1z"/>
<path class="st1" d="M256,317.6c-33.9,0-61.6-27.6-61.6-61.5s27.6-61.6,61.6-61.6c33.9,0,61.6,27.6,61.6,61.6
	C317.6,289.9,289.9,317.6,256,317.6z M256,208.1c-26.4,0-47.9,21.5-47.9,47.9c0,26.4,21.5,47.9,47.9,47.9s47.9-21.5,47.9-47.9
	C303.9,229.6,282.4,208.1,256,208.1z"/>
<path class="st0" d="M447.5,317.6c-33.9,0-61.5-27.6-61.5-61.5s27.6-61.6,61.5-61.6c33.9,0,61.6,27.6,61.6,61.6
	C509,289.9,481.4,317.6,447.5,317.6z M447.5,208.1c-26.4,0-47.9,21.5-47.9,47.9c0,26.4,21.5,47.9,47.9,47.9
	c26.4,0,47.9-21.5,47.9-47.9C495.3,229.6,473.9,208.1,447.5,208.1z"/>
</svg>
