<?xml version="1.0" encoding="utf-8"?>
<!-- Generator: Adobe Illustrator 22.0.0, SVG Export Plug-In . SVG Version: 6.00 Build 0)  -->
<svg version="1.1" id="Layer_1" xmlns="http://www.w3.org/2000/svg" xmlns:xlink="http://www.w3.org/1999/xlink" x="0px" y="0px"
	 viewBox="0 0 512 512" style="enable-background:new 0 0 512 512;" xml:space="preserve">
<style type="text/css">
	.st0{fill:#5E686C;}
	.st1{fill:#3FC6F1;}
</style>
<path class="st0" d="M410.1,507.6H105.2c-3.8,0-6.9-3.1-6.9-6.9s3.1-6.9,6.9-6.9h304.9c3.8,0,6.9,3.1,6.9,6.9
	S413.9,507.6,410.1,507.6z"/>
<path class="st0" d="M105.2,507.6c-2.6,0-5.1-1.5-6.3-4c-1.6-3.5-0.1-7.6,3.4-9.2c48.5-22.6,79.9-71.8,79.9-125.3
	c0-39-45.1-101.6-45.6-102.2c-24.9-27.9-38.3-64.6-38.3-105.6c0-87.9,71.5-159.4,159.4-159.4C345.6,1.9,417,73.4,417,161.3
	c0,3.8-3.1,6.9-6.9,6.9s-6.9-3.1-6.9-6.9c0-80.2-65.3-145.5-145.5-145.5c-80.2,0-145.5,65.3-145.5,145.5c0,37.6,12.2,71.1,35.2,96.9
	c2.4,3.3,48.7,67.5,48.7,110.9c0,58.9-34.5,113-87.9,137.9C107.2,507.4,106.2,507.6,105.2,507.6z"/>
<path class="st1" d="M373.9,278.8H105.2c-3.8,0-6.9-3.1-6.9-6.9s3.1-6.9,6.9-6.9h268.7c3.8,0,6.9,3.1,6.9,6.9
	S377.7,278.8,373.9,278.8z"/>
</svg>
