<?xml version="1.0" encoding="utf-8"?>
<!-- Generator: Adobe Illustrator 22.0.0, SVG Export Plug-In . SVG Version: 6.00 Build 0)  -->
<svg version="1.1" id="Layer_1" xmlns="http://www.w3.org/2000/svg" xmlns:xlink="http://www.w3.org/1999/xlink" x="0px" y="0px"
	 viewBox="0 0 512 512" style="enable-background:new 0 0 512 512;" xml:space="preserve">
<style type="text/css">
	.st0{fill:#5E686B;}
	.st1{fill:#3FC6F1;}
</style>
<path class="st0" d="M78.2,160V16.2c0-3.7-3-6.7-6.7-6.7c-3.7,0-6.7,3-6.7,6.7V160c-26.3,3.3-46.7,25.8-46.7,53s20.4,49.7,46.7,53
	v229.8c0,3.7,3,6.7,6.7,6.7c3.7,0,6.7-3,6.7-6.7V265.9c26.3-3.3,46.7-25.8,46.7-53S104.5,163.3,78.2,160z M71.6,253
	c-22.1,0-40.1-18-40.1-40.1s18-40.1,40.1-40.1c22.1,0,40,18,40,40.1S93.6,253,71.6,253z"/>
<path class="st1" d="M262.7,86.2v-70c0-3.7-3-6.7-6.7-6.7c-3.7,0-6.7,3-6.7,6.7v70c-26.3,3.3-46.7,25.8-46.7,53s20.4,49.7,46.7,53
	v303.6c0,3.7,3,6.7,6.7,6.7c3.7,0,6.7-3,6.7-6.7V192.2c26.3-3.3,46.7-25.8,46.7-53C309.4,112,289,89.5,262.7,86.2z M256,179.2
	c-22.1,0-40.1-18-40.1-40.1s18-40.1,40.1-40.1c22.1,0,40,18,40,40.1S278.1,179.2,256,179.2z"/>
<path class="st0" d="M493.8,397.4c0-27.2-20.4-49.7-46.7-53V16.2c0-3.7-3-6.7-6.7-6.7c-3.7,0-6.7,3-6.7,6.7v328.2
	c-26.3,3.3-46.7,25.8-46.7,53c0,27.2,20.4,49.7,46.7,53v45.4c0,3.7,3,6.7,6.7,6.7c3.7,0,6.7-3,6.7-6.7v-45.4
	C473.4,447.1,493.8,424.6,493.8,397.4z M440.4,437.5c-22.1,0-40.1-18-40.1-40.1s18-40.1,40.1-40.1c22.1,0,40,18,40,40.1
	S462.5,437.5,440.4,437.5z"/>
</svg>
