<?xml version="1.0" encoding="utf-8"?>
<!-- Generator: Adobe Illustrator 22.0.0, SVG Export Plug-In . SVG Version: 6.00 Build 0)  -->
<svg version="1.1" id="Layer_1" xmlns="http://www.w3.org/2000/svg" xmlns:xlink="http://www.w3.org/1999/xlink" x="0px" y="0px"
	 viewBox="0 0 512 512" style="enable-background:new 0 0 512 512;" xml:space="preserve">
<style type="text/css">
	.st0{fill:#3FC6F1;}
	.st1{fill:#5E686C;}
</style>
<path class="st0" d="M399.8,157.2c-3.8,0-6.8-3-6.8-6.8v-130H121.1v130c0,3.8-3,6.8-6.8,6.8c-3.8,0-6.8-3-6.8-6.8V13.6
	c0-3.8,3-6.8,6.8-6.8h285.6c3.8,0,6.8,3,6.8,6.8v136.8C406.6,154.2,403.6,157.2,399.8,157.2z"/>
<path class="st1" d="M501,408.2h-99.2c-3.8,0-6.8-3-6.8-6.8c0-3.8,3-6.8,6.8-6.8h92.4V157.2H19.9v237.3h92.3c3.8,0,6.8,3,6.8,6.8
	s-3,6.8-6.8,6.8H13.1c-3.8,0-6.8-3-6.8-6.8v-251c0-3.8,3-6.8,6.8-6.8H501c3.8,0,6.8,3,6.8,6.8v251
	C507.8,405.1,504.8,408.2,501,408.2z"/>
<path class="st1" d="M401.8,502.3H112.3c-3.8,0-6.8-3-6.8-6.8V287.2c0-3.8,3-6.8,6.8-6.8h289.6c3.8,0,6.8,3,6.8,6.8v208.2
	C408.6,499.2,405.6,502.3,401.8,502.3z M119.1,488.6H395V294.1H119.1V488.6z"/>
<path class="st0" d="M425.6,249.5c-16.9,0-30.6-13.7-30.6-30.6c0-16.9,13.7-30.6,30.6-30.6s30.6,13.7,30.6,30.6
	C456.2,235.7,442.5,249.5,425.6,249.5z M425.6,201.9c-9.4,0-17,7.6-17,17c0,9.4,7.6,17,17,17c9.4,0,17-7.6,17-17
	C442.6,209.5,435,201.9,425.6,201.9z"/>
</svg>
