<?xml version="1.0" encoding="utf-8"?>
<!-- Generator: Adobe Illustrator 22.0.0, SVG Export Plug-In . SVG Version: 6.00 Build 0)  -->
<svg version="1.1" id="Layer_1" xmlns="http://www.w3.org/2000/svg" xmlns:xlink="http://www.w3.org/1999/xlink" x="0px" y="0px"
	 viewBox="0 0 512 512" style="enable-background:new 0 0 512 512;" xml:space="preserve">
<style type="text/css">
	.st0{fill:#5E686B;}
	.st1{fill:#3FC6F1;}
</style>
<path class="st0" d="M507,59c0-3-2.4-5.4-5.4-5.4H9.5c-0.2,0-0.4,0-0.6,0c-2.7,0.3-4.9,2.6-4.9,5.4v98.4v295.2c0,3,2.4,5.4,5.4,5.4
	h492c3,0,5.4-2.4,5.4-5.4V158.6c0-0.2,0-0.4,0-0.5c0-0.2,0-0.4,0-0.6L507,59L507,59z M496.1,64.5V152H15V64.5H496.1z M15,447.2
	V162.9h481.1v284.3L15,447.2L15,447.2z"/>
<path class="st0" d="M81.6,128.3c12,0,21.7-9.8,21.7-21.8c0-12-9.8-21.8-21.7-21.8c-12,0-21.8,9.8-21.8,21.8
	C59.9,118.6,69.6,128.3,81.6,128.3z M81.6,95.7c6,0,10.9,4.9,10.9,10.9s-4.9,10.9-10.9,10.9c-6,0-10.9-4.9-10.9-10.9
	S75.6,95.7,81.6,95.7z"/>
<path class="st0" d="M158.9,128.3c12,0,21.8-9.8,21.8-21.8c0-12-9.8-21.8-21.8-21.8c-12,0-21.8,9.8-21.8,21.8
	C137.2,118.6,146.9,128.3,158.9,128.3z M158.9,95.7c6,0,10.9,4.9,10.9,10.9s-4.9,10.9-10.9,10.9c-6,0-10.9-4.9-10.9-10.9
	S152.9,95.7,158.9,95.7z"/>
<path class="st0" d="M236.2,128.3c12,0,21.8-9.8,21.8-21.8c0-12-9.8-21.8-21.8-21.8s-21.8,9.8-21.8,21.8
	C214.5,118.6,224.2,128.3,236.2,128.3z M236.2,95.7c6,0,10.9,4.9,10.9,10.9s-4.9,10.9-10.9,10.9s-10.9-4.9-10.9-10.9
	S230.2,95.7,236.2,95.7z"/>
<path class="st1" d="M255.6,267.5c-39,0-70.7,31.7-70.7,70.7c0,39,31.7,70.7,70.7,70.7c39,0,70.7-31.7,70.7-70.7
	C326.3,299.2,294.5,267.5,255.6,267.5z M255.6,398c-33,0-59.8-26.8-59.8-59.8c0-33,26.8-59.8,59.8-59.8c33,0,59.8,26.8,59.8,59.8
	C315.4,371.2,288.6,398,255.6,398z"/>
<path class="st1" d="M255.6,321.3c-3,0-5.4,2.4-5.4,5.4v32.6c0,3,2.4,5.4,5.4,5.4s5.4-2.4,5.4-5.4v-32.6
	C261,323.7,258.6,321.3,255.6,321.3z"/>
<path class="st1" d="M221.9,261.8c3,0,5.4-2.4,5.4-5.4v-21.6c0-8.9,7.3-16.2,16.3-16.2h24c9,0,16.3,7.3,16.3,16.2v21.6
	c0,3,2.4,5.4,5.4,5.4c3,0,5.4-2.4,5.4-5.4v-21.6c0-14.9-12.2-27.1-27.1-27.1h-24c-15,0-27.1,12.2-27.1,27.1v21.6
	C216.4,259.4,218.9,261.8,221.9,261.8z"/>
</svg>
