<?xml version="1.0" encoding="utf-8"?>
<!-- Generator: Adobe Illustrator 22.0.0, SVG Export Plug-In . SVG Version: 6.00 Build 0)  -->
<svg version="1.1" id="Layer_1" xmlns="http://www.w3.org/2000/svg" xmlns:xlink="http://www.w3.org/1999/xlink" x="0px" y="0px"
	 viewBox="0 0 512 512" style="enable-background:new 0 0 512 512;" xml:space="preserve">
<style type="text/css">
	.st0{fill:#3FC6F1;}
	.st1{fill:#5E686C;}
</style>
<path class="st0" d="M423.4,442.3c-29.4,0-53.4-24-53.4-53.4c0-29.4,23.9-53.4,53.4-53.4s53.4,24,53.4,53.4
	C476.8,418.4,452.8,442.3,423.4,442.3z M423.4,348.9c-22.1,0-40,18-40,40c0,22.1,18,40,40,40s40-18,40-40
	C463.4,366.9,445.5,348.9,423.4,348.9z"/>
<path class="st0" d="M287.2,506.6c-29.4,0-53.4-23.9-53.4-53.4s24-53.4,53.4-53.4s53.4,24,53.4,53.4
	C340.6,482.6,316.6,506.6,287.2,506.6z M287.2,413.1c-22.1,0-40.1,18-40.1,40c0,22.1,18,40,40.1,40s40-18,40-40
	C327.2,431.1,309.3,413.1,287.2,413.1z"/>
<path class="st0" d="M403.5,188.4c-29.4,0-53.4-24-53.4-53.4c0-29.4,23.9-53.4,53.4-53.4c29.4,0,53.4,24,53.4,53.4
	S432.9,188.4,403.5,188.4z M403.5,95c-22.1,0-40,18-40,40c0,22.1,18,40,40,40c22.1,0,40-18,40-40S425.5,95,403.5,95z"/>
<path class="st0" d="M320.5,225.2c-1.7,0-3.4-0.7-4.7-2c-2.6-2.6-2.6-6.8,0-9.4l50.3-50.3c2.6-2.6,6.8-2.6,9.4,0s2.6,6.8,0,9.4
	l-50.3,50.3C323.9,224.6,322.2,225.2,320.5,225.2z"/>
<path class="st0" d="M391.1,361.9c-1.7,0-3.4-0.6-4.7-2l-70-70c-2.6-2.6-2.6-6.8,0-9.4c2.6-2.6,6.8-2.6,9.4,0l70,70
	c2.6,2.6,2.6,6.8,0,9.4C394.5,361.2,392.8,361.9,391.1,361.9z"/>
<path class="st0" d="M287.9,413.1c-3.7,0-6.7-3-6.7-6.7V298.7c0-3.7,3-6.7,6.7-6.7c3.7,0,6.7,3,6.7,6.7v107.7
	C294.6,410.2,291.6,413.1,287.9,413.1z"/>
<path class="st1" d="M92.7,305.4c-29.4,0-53.4-24-53.4-53.4s24-53.4,53.4-53.4s53.4,24,53.4,53.4
	C146.1,281.5,122.1,305.4,92.7,305.4z M92.7,212c-22.1,0-40,18-40,40s18,40,40,40s40-18,40-40C132.7,229.9,114.8,212,92.7,212z"/>
<path class="st1" d="M92.7,108.8c-29.4,0-53.4-24-53.4-53.4C39.3,26,63.2,2,92.7,2s53.4,24,53.4,53.4
	C146.1,84.8,122.1,108.8,92.7,108.8z M92.7,15.3c-22.1,0-40,18-40,40s18,40,40,40s40-18,40-40S114.8,15.3,92.7,15.3z"/>
<path class="st1" d="M287.9,305.4c-29.4,0-53.4-24-53.4-53.4s23.9-53.4,53.4-53.4s53.4,24,53.4,53.4
	C341.3,281.5,317.3,305.4,287.9,305.4z M287.9,212c-22.1,0-40,18-40,40s18,40,40,40c22.1,0,40-18,40-40
	C327.9,229.9,310,212,287.9,212z"/>
<path class="st1" d="M254.5,225.2c-1.7,0-3.4-0.7-4.7-2L120.3,93.8c-2.6-2.6-2.6-6.8,0-9.4c2.6-2.6,6.8-2.6,9.4,0l129.5,129.5
	c2.6,2.6,2.6,6.8,0,9.4C257.9,224.6,256.2,225.2,254.5,225.2z"/>
<path class="st1" d="M241.2,258.7H139.4c-3.7,0-6.7-3-6.7-6.7c0-3.7,3-6.7,6.7-6.7h101.8c3.7,0,6.7,3,6.7,6.7
	C247.8,255.7,244.9,258.7,241.2,258.7z"/>
</svg>
