<?xml version="1.0" encoding="utf-8"?>
<!-- Generator: Adobe Illustrator 22.0.0, SVG Export Plug-In . SVG Version: 6.00 Build 0)  -->
<svg version="1.1" id="Layer_1" xmlns="http://www.w3.org/2000/svg" xmlns:xlink="http://www.w3.org/1999/xlink" x="0px" y="0px"
	 viewBox="0 0 512 512" style="enable-background:new 0 0 512 512;" xml:space="preserve">
<style type="text/css">
	.st0{fill:#3FC6F1;}
	.st1{fill:#5E686B;}
</style>
<g>
	<path class="st0" d="M52.4,193.2c-1.7,0-3.4-0.6-4.8-1.9c-2.7-2.6-2.7-6.9-0.1-9.6l170-173.4c2.7-2.7,7-2.7,9.6-0.1
		c2.7,2.6,2.7,6.9,0.1,9.6l-170,173.4C55.9,192.5,54.1,193.2,52.4,193.2z"/>
	<path class="st0" d="M222.4,107.4c-3.8,0-6.8-3-6.8-6.8V19.8h-79.1c-3.8,0-6.8-3-6.8-6.8s3-6.8,6.8-6.8h85.9c3.8,0,6.8,3,6.8,6.8
		v87.6C229.2,104.3,226.2,107.4,222.4,107.4z"/>
</g>
<path class="st1" d="M494.2,507.6H17.5c-3.8,0-6.8-3-6.8-6.8s3-6.8,6.8-6.8h476.7c3.8,0,6.8,3,6.8,6.8
	C501,504.5,498,507.6,494.2,507.6z"/>
<path class="st1" d="M402.6,433.6c-3.8,0-6.8-3-6.8-6.8V18.2c0-3.8,3-6.8,6.8-6.8c3.8,0,6.8,3,6.8,6.8v408.6
	C409.4,430.5,406.4,433.6,402.6,433.6z"/>
<path class="st1" d="M255.9,433.6c-3.8,0-6.8-3-6.8-6.8V181.6c0-3.8,3-6.8,6.8-6.8c3.8,0,6.8,3,6.8,6.8v245.1
	C262.7,430.5,259.6,433.6,255.9,433.6z"/>
<path class="st1" d="M99.2,433.6c-3.8,0-6.8-3-6.8-6.8V290.6c0-3.8,3-6.8,6.8-6.8c3.8,0,6.8,3,6.8,6.8v136.2
	C106,430.5,103,433.6,99.2,433.6z"/>
</svg>
