<?xml version="1.0" encoding="utf-8"?>
<!-- Generator: Adobe Illustrator 22.0.0, SVG Export Plug-In . SVG Version: 6.00 Build 0)  -->
<svg version="1.1" id="Layer_1" xmlns="http://www.w3.org/2000/svg" xmlns:xlink="http://www.w3.org/1999/xlink" x="0px" y="0px"
	 viewBox="0 0 512 512" style="enable-background:new 0 0 512 512;" xml:space="preserve">
<style type="text/css">
	.st0{fill:#5E686C;}
	.st1{fill:#3FC6F1;}
</style>
<path class="st0" d="M261.5,508.6c-89.3,0-162.7-92.1-167.1-209.7c-0.1-3.7,2.7-6.7,6.4-6.9c3.6-0.3,6.7,2.7,6.9,6.4
	c4.1,110.4,71.7,196.9,153.8,196.9c82.2,0,149.8-86.5,153.9-196.9c0.1-3.7,3.3-6.7,6.9-6.4c3.7,0.1,6.5,3.2,6.4,6.9
	C424.2,416.5,350.8,508.6,261.5,508.6z"/>
<path class="st0" d="M437.2,209.8c-2.9,0-5.6-1.9-6.4-4.8c-20.5-72.8-71.4-127.7-132.9-143.3c-3.5-0.9-5.7-4.5-4.8-8.1
	c0.9-3.5,4.5-5.7,8.1-4.8c66.1,16.8,120.7,75.2,142.4,152.6c1,3.5-1.1,7.2-4.6,8.2C438.4,209.7,437.8,209.8,437.2,209.8z"/>
<path class="st0" d="M85.8,209.7c-0.6,0-1.2-0.1-1.8-0.2c-3.5-1-5.6-4.7-4.6-8.2C101.1,124,155.6,65.6,221.7,48.8
	c3.6-0.9,7.1,1.2,8.1,4.8c0.9,3.5-1.2,7.2-4.8,8.1c-61.4,15.6-112.3,70.5-132.7,143.3C91.3,207.8,88.7,209.7,85.8,209.7z"/>
<path class="st0" d="M261.5,57.1c-3.7,0-6.6-3-6.6-6.6V10.6c0-3.7,3-6.6,6.6-6.6c3.7,0,6.6,3,6.6,6.6v39.8
	C268.1,54.1,265.2,57.1,261.5,57.1z"/>
<path class="st1" d="M261.5,351.4c-3.7,0-6.6-3-6.6-6.6V203.1c0-3.7,3-6.6,6.6-6.6c3.7,0,6.6,3,6.6,6.6v141.7
	C268.1,348.5,265.2,351.4,261.5,351.4z"/>
<path class="st0" d="M261.5,504.2c-3.7,0-6.6-3-6.6-6.6V391.5c0-3.7,3-6.6,6.6-6.6c3.7,0,6.6,3,6.6,6.6v106.1
	C268.1,501.3,265.2,504.2,261.5,504.2z"/>
<path class="st1" d="M261.5,351.4c-0.6,0-1.3-0.1-2-0.3L73.9,294c-3.5-1.1-5.5-4.8-4.4-8.3c1.1-3.5,4.8-5.5,8.3-4.4l185.6,57.2
	c3.5,1.1,5.5,4.8,4.4,8.3C267,349.6,264.3,351.4,261.5,351.4z"/>
<path class="st1" d="M261.5,351.4c-2.8,0-5.5-1.8-6.3-4.7c-1.1-3.5,0.9-7.2,4.4-8.3L445,281.3c3.5-1.1,7.2,0.9,8.3,4.4
	c1.1,3.5-0.9,7.2-4.4,8.3l-185.4,57.2C262.8,351.3,262.1,351.4,261.5,351.4z"/>
<path class="st1" d="M460.4,209.7H62.6c-3.7,0-6.6-3-6.6-6.6c0-3.7,3-6.6,6.6-6.6h397.8c3.7,0,6.6,3,6.6,6.6
	C467,206.8,464.1,209.7,460.4,209.7z"/>
<path class="st1" d="M75.8,294.3c-3.2,0-6-2.3-6.5-5.6L56,204.1c-0.6-3.6,1.9-7,5.5-7.6c3.7-0.5,7,1.9,7.6,5.5l13.3,84.5
	c0.6,3.6-1.9,7-5.5,7.6C76.5,294.2,76.2,294.3,75.8,294.3z"/>
<path class="st1" d="M446.9,294.3c-0.4,0-0.7,0-1.1-0.1c-3.6-0.6-6.1-4-5.5-7.6l13.5-84.5c0.6-3.6,3.9-6.1,7.6-5.5
	c3.6,0.6,6.1,4,5.5,7.6l-13.5,84.5C452.9,291.9,450.1,294.3,446.9,294.3z"/>
<path class="st1" d="M395.5,276c-3.7,0-6.6-3-6.6-6.6v-66.3c0-3.7,3-6.6,6.6-6.6s6.6,3,6.6,6.6v66.3
	C402.1,273.1,399.2,276,395.5,276z"/>
<path class="st1" d="M127.8,276c-3.7,0-6.6-3-6.6-6.6v-66.3c0-3.7,3-6.6,6.6-6.6s6.6,3,6.6,6.6v66.3
	C134.4,273.1,131.5,276,127.8,276z"/>
<path class="st1" d="M325,302.6c-3.7,0-6.6-3-6.6-6.6v-92.8c0-3.7,3-6.6,6.6-6.6s6.6,3,6.6,6.6V296
	C331.7,299.6,328.7,302.6,325,302.6z"/>
<path class="st1" d="M199.6,302.6c-3.7,0-6.6-3-6.6-6.6v-92.8c0-3.7,3-6.6,6.6-6.6s6.6,3,6.6,6.6V296
	C206.3,299.6,203.3,302.6,199.6,302.6z"/>
<path class="st0" d="M307.9,17.3h-92.8c-3.7,0-6.6-3-6.6-6.6s3-6.6,6.6-6.6h92.8c3.7,0,6.6,3,6.6,6.6S311.6,17.3,307.9,17.3z"/>
<path class="st0" d="M288,125.2h-53c-3.7,0-6.6-3-6.6-6.6c0-3.7,3-6.6,6.6-6.6h53c3.7,0,6.6,3,6.6,6.6
	C294.6,122.2,291.7,125.2,288,125.2z"/>
<path class="st0" d="M235,125.2c-3.1,0-5.9-2.2-6.5-5.4L208.5,11.8c-0.7-3.6,1.7-7.1,5.3-7.7c3.6-0.7,7.1,1.7,7.7,5.3l19.9,107.9
	c0.7,3.6-1.7,7.1-5.3,7.7C235.8,125.2,235.4,125.2,235,125.2z"/>
<path class="st0" d="M288,125.2c-0.4,0-0.8,0-1.2-0.1c-3.6-0.7-6-4.1-5.3-7.7L301.4,9.4c0.7-3.6,4-6,7.7-5.3c3.6,0.7,6,4.1,5.3,7.7
	l-19.9,107.9C293.9,123,291.2,125.2,288,125.2z"/>
</svg>
