<?xml version="1.0" encoding="utf-8"?>
<!-- Generator: Adobe Illustrator 22.0.0, SVG Export Plug-In . SVG Version: 6.00 Build 0)  -->
<svg version="1.1" id="Layer_1" xmlns="http://www.w3.org/2000/svg" xmlns:xlink="http://www.w3.org/1999/xlink" x="0px" y="0px"
	 viewBox="0 0 512 512" style="enable-background:new 0 0 512 512;" xml:space="preserve">
<style type="text/css">
	.st0{fill:#5E686C;}
	.st1{fill:#3FC6F1;}
</style>
<path class="st0" d="M307.1,494.2c-3.8,0-6.9-3.1-6.9-6.9V361.6c0-5.7-6.5-9.6-11.9-11.9c-8.4-3.5-20.4-5.6-32.9-5.6
	c-24.7,0-44.8,7.8-44.8,17.5v125.6c0,3.8-3.1,6.9-6.9,6.9c-3.8,0-6.9-3.1-6.9-6.9V361.6c0-21.6,29.5-31.3,58.6-31.3
	c29.2,0,58.6,9.7,58.6,31.3v125.6C314,491.1,311,494.2,307.1,494.2z"/>
<path class="st0" d="M292.4,235.5c-3.8,0-6.9-3.1-6.9-6.9v-59.1c0-3.8,3.1-6.9,6.9-6.9s6.9,3.1,6.9,6.9v59.1
	C299.3,232.5,296.2,235.5,292.4,235.5z"/>
<path class="st0" d="M351.5,213.4h-59.1c-3.8,0-6.9-3.1-6.9-6.9c0-3.8,3.1-6.9,6.9-6.9h59.1c3.8,0,6.9,3.1,6.9,6.9
	C358.4,210.3,355.3,213.4,351.5,213.4z"/>
<path class="st0" d="M499.2,494.2c-3.8,0-6.9-3.1-6.9-6.9V295.1c0-5.1-2.8-7.9-7.9-7.9h-81.3c-3.8,0-6.9-3.1-6.9-6.9
	c0-3.8,3.1-6.9,6.9-6.9h81.3c12.8,0,21.7,8.9,21.7,21.7v192.1C506.2,491.1,503.1,494.2,499.2,494.2z"/>
<path class="st0" d="M11.6,494.2c-3.8,0-6.9-3.1-6.9-6.9V295.1c0-12.8,8.9-21.7,21.7-21.7h81.3c3.8,0,6.9,3.1,6.9,6.9
	c0,3.8-3.1,6.9-6.9,6.9H26.4c-5.1,0-7.9,2.8-7.9,7.9v192.1C18.5,491.1,15.4,494.2,11.6,494.2z"/>
<path class="st0" d="M115,494.2H12.6c-3.8,0-6.9-3.1-6.9-6.9c0-3.8,3.1-6.9,6.9-6.9H115c3.8,0,6.9,3.1,6.9,6.9
	C121.9,491.1,118.8,494.2,115,494.2z"/>
<path class="st1" d="M395.8,494.2H115c-3.8,0-6.9-3.1-6.9-6.9c0-3.8,3.1-6.9,6.9-6.9h280.8c3.8,0,6.9,3.1,6.9,6.9
	C402.7,491.1,399.6,494.2,395.8,494.2z"/>
<path class="st0" d="M499.2,494.2H395.8c-3.8,0-6.9-3.1-6.9-6.9c0-3.8,3.1-6.9,6.9-6.9h103.5c3.8,0,6.9,3.1,6.9,6.9
	C506.2,491.1,503.1,494.2,499.2,494.2z"/>
<path class="st0" d="M172.7,285.8c-3.8,0-6.9-3.1-6.9-6.9v-44.3c0-3.8,3.1-6.9,6.9-6.9c3.8,0,6.9,3.1,6.9,6.9v44.3
	C179.6,282.7,176.6,285.8,172.7,285.8z"/>
<path class="st1" d="M395.8,494.2c-3.8,0-6.9-3.1-6.9-6.9V184.3c0-1.4,0.4-2.7,1.2-3.8L448,93.5V43.9c0-5.1-2.8-7.9-7.9-7.9h-73.9
	c-5.1,0-7.9,2.8-7.9,7.9v44.3c0,3.8-3.1,6.9-6.9,6.9h-44.3c-3.8,0-6.9-3.1-6.9-6.9V43.9c0-5.1-2.8-7.9-7.9-7.9h-73.9
	c-5.1,0-7.9,2.8-7.9,7.9v44.3c0,3.8-3.1,6.9-6.9,6.9h-44.3c-3.8,0-6.9-3.1-6.9-6.9V43.9c0-5.1-2.8-7.9-7.9-7.9H70.7
	c-5.1,0-7.9,2.8-7.9,7.9v49.6l57.9,86.9c0.8,1.1,1.2,2.5,1.2,3.8v302.9c0,3.8-3.1,6.9-6.9,6.9c-3.8,0-6.9-3.1-6.9-6.9V186.4
	L50.2,99.5C49.4,98.3,49,97,49,95.6V43.9c0-12.8,8.9-21.7,21.7-21.7h73.9c12.8,0,21.7,8.9,21.7,21.7v37.4h30.5V43.9
	c0-12.8,8.9-21.7,21.7-21.7h73.9c12.8,0,21.7,8.9,21.7,21.7v37.4h30.5V43.9c0-12.8,8.9-21.7,21.7-21.7h73.9
	c12.8,0,21.7,8.9,21.7,21.7v51.7c0,1.4-0.4,2.7-1.2,3.8l-57.9,86.9v300.9C402.7,491.1,399.6,494.2,395.8,494.2z"/>
</svg>
