<?xml version="1.0" encoding="utf-8"?>
<!-- Generator: Adobe Illustrator 22.0.0, SVG Export Plug-In . SVG Version: 6.00 Build 0)  -->
<svg version="1.1" id="Layer_1" xmlns="http://www.w3.org/2000/svg" xmlns:xlink="http://www.w3.org/1999/xlink" x="0px" y="0px"
	 viewBox="0 0 512 512" style="enable-background:new 0 0 512 512;" xml:space="preserve">
<style type="text/css">
	.st0{fill:#5E686B;}
	.st1{fill:#3FC6F1;}
</style>
<path class="st0" d="M175.5,7.5H14.1c-3.7,0-6.6,3-6.6,6.6v161.4c0,3.7,3,6.6,6.6,6.6h161.4c3.7,0,6.6-3,6.6-6.6V14.1
	C182.2,10.5,179.2,7.5,175.5,7.5z M168.9,168.9H20.8V20.8h148.1V168.9z"/>
<path class="st0" d="M74.9,121.4h39.9c3.7,0,6.6-3,6.6-6.6V74.9c0-3.7-3-6.6-6.6-6.6H74.9c-3.7,0-6.6,3-6.6,6.6v39.9
	C68.2,118.5,71.2,121.4,74.9,121.4z M81.5,81.5h26.6v26.6H81.5V81.5z"/>
<path class="st0" d="M175.5,330.2H14.1c-3.7,0-6.6,3-6.6,6.6v161.4c0,3.7,3,6.6,6.6,6.6h161.4c3.7,0,6.6-3,6.6-6.6V336.9
	C182.2,333.2,179.2,330.2,175.5,330.2z M168.9,491.6H20.8V343.5h148.1V491.6z"/>
<path class="st0" d="M74.9,444.2h39.9c3.7,0,6.6-3,6.6-6.6v-39.9c0-3.7-3-6.6-6.6-6.6H74.9c-3.7,0-6.6,3-6.6,6.6v39.9
	C68.2,441.2,71.2,444.2,74.9,444.2z M81.5,404.3h26.6v26.6H81.5V404.3z"/>
<path class="st1" d="M498.3,7.5H336.9c-3.7,0-6.6,3-6.6,6.6v161.4c0,3.7,3,6.6,6.6,6.6h161.4c3.7,0,6.6-3,6.6-6.6V14.1
	C504.9,10.5,501.9,7.5,498.3,7.5z M491.6,168.9H343.6V20.8h148.1V168.9z"/>
<path class="st1" d="M397.6,121.4h39.9c3.7,0,6.6-3,6.6-6.6V74.9c0-3.7-3-6.6-6.6-6.6h-39.9c-3.7,0-6.6,3-6.6,6.6v39.9
	C391,118.5,393.9,121.4,397.6,121.4z M404.3,81.5h26.6v26.6h-26.6V81.5z"/>
<path class="st0" d="M498.3,491.6h-25.6v-41.8c0,0,0,0,0,0v-32.2c0-3.7-3-6.6-6.6-6.6s-6.6,3-6.6,6.6v25.6h-25.6
	c-3.7,0-6.6,3-6.6,6.6v41.8h-67.4v-57.9c0-3.7-3-6.6-6.6-6.6h-90.2v-25.6c0-3.7-3-6.6-6.6-6.6s-6.6,3-6.6,6.6v32.3v0v64.5
	c0,3.7,3,6.6,6.6,6.6c3.7,0,6.6-3,6.6-6.6v-57.9h83.5v57.9c0,3.7,3,6.6,6.6,6.6h145.2c3.7,0,6.6-3,6.6-6.6S501.9,491.6,498.3,491.6z
	 M440.4,456.5h19v35.1h-19V456.5z"/>
<path class="st0" d="M30.3,217.3c-3.7,0-6.6,3-6.6,6.6v32.3c0,3.7,3,6.6,6.6,6.6h90.2v25.6c0,3.7,3,6.6,6.6,6.6c3.7,0,6.6-3,6.6-6.6
	v-25.6h25.6c3.7,0,6.6-3,6.6-6.6c0-3.7-3-6.6-6.6-6.6h-32.3l0,0l0,0H37v-25.6C37,220.3,34,217.3,30.3,217.3z"/>
<path class="st0" d="M498.3,346.4h-57.9v-83.5h57.9c3.7,0,6.6-3,6.6-6.6c0-3.7-3-6.6-6.6-6.6h-25.6v-25.6c0-3.7-3-6.6-6.6-6.6
	s-6.6,3-6.6,6.6v25.6h-25.6c-3.7,0-6.6,3-6.6,6.6v90.2H320.8c-3.7,0-6.6,3-6.6,6.6c0,3.7,3,6.6,6.6,6.6h113h64.5
	c3.7,0,6.6-3,6.6-6.6C504.9,349.3,501.9,346.4,498.3,346.4z"/>
<path class="st0" d="M279,304.6v-41.8h67.4v25.6c0,3.7,3,6.6,6.6,6.6c3.7,0,6.6-3,6.6-6.6v-32.3c0-3.7-3-6.6-6.6-6.6h-80.7h-25.6
	v-67.4h25.6c3.7,0,6.6-3,6.6-6.6s-3-6.6-6.6-6.6h-25.6v-67.4h41.8c3.7,0,6.6-3,6.6-6.6V30.3c0-3.7-3-6.6-6.6-6.6s-6.6,3-6.6,6.6
	v57.9h-41.8c-3.7,0-6.6,3-6.6,6.6v161.4v48.4c0,3.7,3,6.6,6.6,6.6h32.3C276,311.3,279,308.3,279,304.6z M265.7,298h-19v-35.1h19V298
	z"/>
</svg>
