<?xml version="1.0" encoding="utf-8"?>
<!-- Generator: Adobe Illustrator 22.0.0, SVG Export Plug-In . SVG Version: 6.00 Build 0)  -->
<svg version="1.1" id="Layer_1" xmlns="http://www.w3.org/2000/svg" xmlns:xlink="http://www.w3.org/1999/xlink" x="0px" y="0px"
	 viewBox="0 0 512 512" style="enable-background:new 0 0 512 512;" xml:space="preserve">
<style type="text/css">
	.st0{fill:#3FC6F1;}
	.st1{fill:#5E686B;}
</style>
<path class="st0" d="M257.8,415.4c-19.2,0-34.8-15.6-34.8-34.8c0-19.2,15.6-34.8,34.8-34.8s34.8,15.6,34.8,34.8
	S277,415.4,257.8,415.4z M257.8,359.8c-11.5,0-20.9,9.4-20.9,20.9s9.4,20.9,20.9,20.9c11.5,0,20.9-9.4,20.9-20.9
	C278.6,369.1,269.3,359.8,257.8,359.8z"/>
<path class="st1" d="M257.7,505.5C119.6,505.5,7.2,393.1,7.2,255C7.2,116.9,119.6,4.5,257.7,4.5c127.5,0,234.5,95.4,248.9,221.9
	c0.4,3.8-2.3,7.3-6.1,7.7c-3.8,0.3-7.3-2.3-7.7-6.1c-13.6-119.4-114.6-209.5-235-209.5C127.2,18.4,21.1,124.6,21.1,255
	s106.1,236.6,236.6,236.6c120.4,0,221.4-90.1,235-209.5c0.4-3.8,3.9-6.5,7.7-6.1c3.8,0.4,6.6,3.9,6.1,7.7
	C492.2,410.1,385.2,505.5,257.7,505.5z"/>
<path class="st0" d="M259.3,289.6c-3.8,0-7-3.1-7-7v-18.8c0-10.8,3.4-20.5,10-28.7c5.8-7.3,12.2-14.5,19.1-21.6
	c6.6-6.8,12.6-14.1,17.9-21.6c4.8-6.8,7.2-14.8,7.2-24.4c0-7.1-1.1-14.4-3.3-21.5c-2.1-6.8-5.5-12.9-9.9-18
	c-4.4-5.1-10.4-9.3-17.9-12.6c-7.5-3.3-16.8-5-27.5-5c-8.7,0-16.8,1.7-24.2,5c-7.4,3.3-13.9,7.9-19.2,13.8
	c-5.4,6-9.8,13.4-13.1,21.8c-3.3,8.6-5.1,18.2-5.3,28.5c-0.1,3.8-3.2,6.8-7,6.8c0,0-0.1,0-0.2,0c-3.8-0.1-6.9-3.3-6.8-7.1
	c0.3-12,2.4-23.2,6.2-33.2c3.9-10.1,9.1-18.9,15.7-26.1c6.6-7.3,14.6-13.1,23.8-17.2c9.1-4.1,19.2-6.2,29.9-6.2
	c12.7,0,23.8,2.1,33.1,6.2c9.3,4.1,17,9.5,22.8,16.2c5.7,6.6,10,14.3,12.7,23c2.6,8.5,4,17.1,4,25.6c0,12.4-3.3,23.3-9.7,32.4
	c-5.7,8.1-12.2,15.9-19.2,23.3c-6.6,6.8-12.7,13.7-18.2,20.6c-4.6,5.8-6.9,12.4-6.9,20v18.8C266.3,286.5,263.1,289.6,259.3,289.6z"
	/>
</svg>
