<?xml version="1.0" encoding="utf-8"?>
<!-- Generator: Adobe Illustrator 22.0.0, SVG Export Plug-In . SVG Version: 6.00 Build 0)  -->
<svg version="1.1" id="Layer_1" xmlns="http://www.w3.org/2000/svg" xmlns:xlink="http://www.w3.org/1999/xlink" x="0px" y="0px"
	 viewBox="0 0 512 512" style="enable-background:new 0 0 512 512;" xml:space="preserve">
<style type="text/css">
	.st0{fill:#3FC6F1;}
	.st1{fill:#5E686B;}
</style>
<path class="st0" d="M303.2,365.4c-13.9,0-25.3,11.3-25.3,25.3c0,14,11.4,25.3,25.3,25.3c13.9,0,25.3-11.4,25.3-25.3
	C328.5,376.7,317.1,365.4,303.2,365.4z M303.2,403.3c-7,0-12.6-5.7-12.6-12.7c0-7,5.7-12.6,12.6-12.6c7,0,12.6,5.7,12.6,12.6
	C315.8,397.6,310.2,403.3,303.2,403.3z"/>
<path class="st1" d="M385.6,365.4c-13.9,0-25.3,11.3-25.3,25.3c0,14,11.4,25.3,25.3,25.3c13.9,0,25.3-11.4,25.3-25.3
	C410.9,376.7,399.6,365.4,385.6,365.4z M385.6,403.3c-7,0-12.6-5.7-12.6-12.7c0-7,5.7-12.6,12.6-12.6s12.6,5.7,12.6,12.6
	C398.3,397.6,392.6,403.3,385.6,403.3z"/>
<path class="st1" d="M328.5,236.5c0-13.9-11.4-25.3-25.3-25.3c-13.9,0-25.3,11.3-25.3,25.3c0,14,11.4,25.3,25.3,25.3
	C317.1,261.8,328.5,250.5,328.5,236.5z M290.5,236.5c0-7,5.7-12.6,12.6-12.6c7,0,12.6,5.7,12.6,12.6c0,7-5.7,12.7-12.6,12.7
	C296.2,249.2,290.5,243.5,290.5,236.5z"/>
<path class="st0" d="M410.9,236.5c0-13.9-11.4-25.3-25.3-25.3c-13.9,0-25.3,11.3-25.3,25.3c0,14,11.4,25.3,25.3,25.3
	C399.6,261.8,410.9,250.5,410.9,236.5z M373,236.5c0-7,5.7-12.6,12.6-12.6s12.6,5.7,12.6,12.6c0,7-5.7,12.7-12.6,12.7
	C378.6,249.2,373,243.5,373,236.5z"/>
<path class="st1" d="M303.2,107.7c13.9,0,25.3-11.4,25.3-25.3c0-13.9-11.4-25.3-25.3-25.3c-13.9,0-25.3,11.3-25.3,25.3
	C277.9,96.4,289.2,107.7,303.2,107.7z M303.2,69.8c7,0,12.6,5.7,12.6,12.6c0,7-5.7,12.7-12.6,12.7c-7,0-12.6-5.7-12.6-12.7
	C290.5,75.5,296.2,69.8,303.2,69.8z"/>
<path class="st0" d="M385.6,107.7c13.9,0,25.3-11.4,25.3-25.3c0-13.9-11.4-25.3-25.3-25.3c-13.9,0-25.3,11.3-25.3,25.3
	C360.3,96.4,371.7,107.7,385.6,107.7z M385.6,69.8c7,0,12.6,5.7,12.6,12.6c0,7-5.7,12.7-12.6,12.7c-7,0-12.6-5.7-12.6-12.7
	C373,75.5,378.6,69.8,385.6,69.8z"/>
<path class="st1" d="M443.7,2.9H68.3c-15.7,0-28.5,11.8-28.5,26.3v414.7c0,14.5,12.8,26.3,28.5,26.3H103v31.6c0,3.5,2.8,6.3,6.3,6.3
	h63.2c3.5,0,6.3-2.8,6.3-6.3v-31.6H333v31.6c0,3.5,2.8,6.3,6.3,6.3h63.2c3.5,0,6.3-2.8,6.3-6.3v-31.6h34.7
	c15.7,0,28.5-11.8,28.5-26.3V29.2C472.2,14.7,459.4,2.9,443.7,2.9z M166.3,495.5h-50.6v-25.3h50.6V495.5z M396.3,495.5h-50.6v-25.3
	h50.6V495.5z M459.5,443.9c0,7.5-7.1,13.7-15.9,13.7H68.3c-8.8,0-15.9-6.1-15.9-13.7V29.2c0-7.5,7.1-13.7,15.9-13.7h375.3
	c8.7,0,15.9,6.1,15.9,13.7V443.9z"/>
<path class="st1" d="M414.1,156.4H97.9c-3.5,0-6.3,2.8-6.3,6.3s2.8,6.3,6.3,6.3h316.2c3.5,0,6.3-2.8,6.3-6.3
	S417.6,156.4,414.1,156.4z"/>
<path class="st1" d="M414.1,304H97.9c-3.5,0-6.3,2.8-6.3,6.3c0,3.5,2.8,6.3,6.3,6.3h316.2c3.5,0,6.3-2.8,6.3-6.3
	C420.4,306.8,417.6,304,414.1,304z"/>
</svg>
