<?xml version="1.0" encoding="utf-8"?>
<!-- Generator: Adobe Illustrator 22.0.0, SVG Export Plug-In . SVG Version: 6.00 Build 0)  -->
<svg version="1.1" id="Layer_1" xmlns="http://www.w3.org/2000/svg" xmlns:xlink="http://www.w3.org/1999/xlink" x="0px" y="0px"
	 viewBox="0 0 512 512" style="enable-background:new 0 0 512 512;" xml:space="preserve">
<style type="text/css">
	.st0{fill:#5E686B;}
	.st1{fill:#3FC6F1;}
</style>
<path class="st0" d="M494.4,212.6c3.8,0,6.9-3.1,6.9-6.9c0-3.8-3.1-6.9-6.9-6.9h-87V97.7h87c3.8,0,6.9-3.1,6.9-6.9s-3.1-6.9-6.9-6.9
	h-87V8.8c0-3.8-3.1-6.9-6.9-6.9H105.3c-3.8,0-6.9,3.1-6.9,6.9v75.1H16c-3.8,0-6.9,3.1-6.9,6.9s3.1,6.9,6.9,6.9h82.4v101.1H16
	c-3.8,0-6.9,3.1-6.9,6.9c0,3.8,3.1,6.9,6.9,6.9h82.4v101.1H16c-3.8,0-6.9,3.1-6.9,6.9c0,3.8,3.1,6.9,6.9,6.9h82.4v101.1H16
	c-3.8,0-6.9,3.1-6.9,6.9c0,3.8,3.1,6.9,6.9,6.9h82.4V501c0,3.8,3.1,6.9,6.9,6.9h295.3c3.8,0,6.9-3.1,6.9-6.9v-58.7h87
	c3.8,0,6.9-3.1,6.9-6.9c0-3.8-3.1-6.9-6.9-6.9h-87V327.4h87c3.8,0,6.9-3.1,6.9-6.9c0-3.8-3.1-6.9-6.9-6.9h-87V212.6H494.4z
	 M393.7,494.1H112.2V15.7h281.6L393.7,494.1L393.7,494.1z"/>
<path class="st1" d="M318.6,116.7H187.3c-3.8,0-6.9,3.1-6.9,6.9v262.5c0,3.8,3.1,6.9,6.9,6.9h131.3c3.8,0,6.9-3.1,6.9-6.9V123.6
	C325.4,119.8,322.4,116.7,318.6,116.7z M311.7,379.3H194.2V130.5h117.5V379.3z"/>
</svg>
