<?xml version="1.0" encoding="utf-8"?>
<!-- Generator: Adobe Illustrator 22.0.0, SVG Export Plug-In . SVG Version: 6.00 Build 0)  -->
<svg version="1.1" id="Layer_1" xmlns="http://www.w3.org/2000/svg" xmlns:xlink="http://www.w3.org/1999/xlink" x="0px" y="0px"
	 viewBox="0 0 512 512" style="enable-background:new 0 0 512 512;" xml:space="preserve">
<style type="text/css">
	.st0{fill:#5E686B;}
	.st1{fill:#3FC6F1;}
</style>
<path class="st0" d="M433.4,212.9c-1.7,0-3.5-0.7-4.8-2c-2.7-2.7-2.7-7,0-9.6l62.9-62.9l-62.9-62.9c-2.7-2.7-2.7-7,0-9.6
	s7-2.7,9.6,0l67.7,67.7c2.7,2.7,2.7,7,0,9.6l-67.7,67.7C436.9,212.2,435.1,212.9,433.4,212.9z"/>
<path class="st0" d="M282.2,212.9c-1.3,0-2.7-0.4-3.8-1.2c-3.1-2.1-3.9-6.3-1.8-9.5l45.7-67.7c1.3-1.9,3.4-3,5.6-3h173.2
	c3.8,0,6.8,3.1,6.8,6.8s-3.1,6.8-6.8,6.8H331.6l-43.7,64.7C286.5,211.8,284.4,212.9,282.2,212.9z"/>
<path class="st0" d="M149.1,410H9.8c-3.8,0-6.8-3.1-6.8-6.8c0-3.8,3.1-6.8,6.8-6.8h135.7l47.6-70.5c2.1-3.1,6.4-3.9,9.5-1.8
	c3.1,2.1,3.9,6.3,1.8,9.5L154.8,407C153.5,408.8,151.4,410,149.1,410z"/>
<path class="st1" d="M433.4,478.1c-1.7,0-3.5-0.7-4.8-2c-2.7-2.7-2.7-7,0-9.6l62.9-62.9l-62.9-62.9c-2.7-2.7-2.7-7,0-9.6
	c2.7-2.7,7-2.7,9.6,0l67.7,67.8c2.7,2.7,2.7,7,0,9.6l-67.7,67.7C436.9,477.5,435.1,478.1,433.4,478.1z"/>
<path class="st1" d="M500,410.4H328c-2.3,0-4.4-1.1-5.6-3L145.5,145.6H9.8c-3.8,0-6.8-3.1-6.8-6.8s3.1-6.8,6.8-6.8h139.3
	c2.3,0,4.4,1.1,5.6,3l176.8,261.8H500c3.8,0,6.8,3.1,6.8,6.8C506.8,407.3,503.7,410.4,500,410.4z"/>
</svg>
