<?xml version="1.0" encoding="utf-8"?>
<!-- Generator: Adobe Illustrator 22.0.0, SVG Export Plug-In . SVG Version: 6.00 Build 0)  -->
<svg version="1.1" id="Layer_1" xmlns="http://www.w3.org/2000/svg" xmlns:xlink="http://www.w3.org/1999/xlink" x="0px" y="0px"
	 viewBox="0 0 512 512" style="enable-background:new 0 0 512 512;" xml:space="preserve">
<style type="text/css">
	.st0{fill:#5E686B;}
	.st1{fill:#3FC6F1;}
</style>
<path class="st0" d="M230.6,446c-19.3-49.5-63.5-163.8-89.4-230.7c-1.3-3.3-4.4-5.5-8-5.5c-2.9,0.5-6.8,2.2-8,5.6l-16.7,44.9
	c-4,10.8-13.3,22.9-20.2,22.9h-74c-4.7,0-8.6,3.8-8.6,8.6s3.8,8.6,8.6,8.6h74c18.6,0,31.8-22.3,36.2-34.1l8.8-23.8L174.7,349
	c48.2,124.3,51.5,133,57.2,133c0.4,0,0.9-0.1,1.3-0.1c3.5-0.4,6.4-2.9,7.3-6.3l0.4-3.1L230.6,446z"/>
<path class="st1" d="M501.8,283.2l-70.2,0c-9.1-0.7-16.8-7.3-19.2-16.4L353.7,46.2c-1-3.8-4.4-6.4-8.3-6.4s-7.3,2.6-8.3,6.3
	L230.6,446c0,0.1,10.2,26.5,10.2,26.5L345.4,81.7l50.4,189.6c4.3,16.2,18.2,27.9,35.1,29.1h70.8c4.7,0,8.6-3.8,8.6-8.6
	S506.5,283.2,501.8,283.2z"/>
</svg>
