<?xml version="1.0" encoding="utf-8"?>
<!-- Generator: Adobe Illustrator 22.0.0, SVG Export Plug-In . SVG Version: 6.00 Build 0)  -->
<svg version="1.1" id="Layer_1" xmlns="http://www.w3.org/2000/svg" xmlns:xlink="http://www.w3.org/1999/xlink" x="0px" y="0px"
	 viewBox="0 0 512 512" style="enable-background:new 0 0 512 512;" xml:space="preserve">
<style type="text/css">
	.st0{fill:#5E686B;}
	.st1{fill:#3FC6F1;}
</style>
<path class="st0" d="M409.9,235.1c-0.7,0-1.9,0-3.2-0.3l-78.2-15.6c-3.8-0.7-6.2-4.4-5.4-8.2c0.7-3.8,4.4-6.2,8.2-5.5l78.4,15.7
	c0.1-0.1,0.5-0.2,0.8-0.3c0.1-0.3,0.5-1.4,0.6-1.6l15.3-77.2c0.8-3.8,4.6-6.2,8.2-5.4c3.8,0.8,6.2,4.4,5.5,8.2l-15.7,78.4
	c0,0.2-0.1,0.5-0.2,0.7c0,0.1,0,0.1,0,0.1c-0.1,0.3-0.5,1.3-0.6,1.5c-0.5,1.2-0.9,2.1-1.4,2.9c-0.3,0.4-1.1,1.4-1.4,1.7
	c-0.8,0.8-1.6,1.6-2.6,2.3c-0.6,0.6-1.1,0.9-1.9,1.2c-0.3,0.1-0.5,0.2-0.8,0.3C414,234.6,411.9,235.1,409.9,235.1z"/>
<path class="st0" d="M413.3,234.2c-2.4,0-4.7-1.2-6-3.5L302,46.8c-11.5-19.9-26.1-30.9-41.1-30.9c-14.9,0-29.5,11-41.1,31
	l-48.6,72.3c-2.1,3.2-6.4,4-9.6,1.9c-3.2-2.1-4-6.5-1.9-9.6l48.3-71.9C222,15.5,240.8,2,260.9,2C281,2,299.9,15.4,314,39.9
	l105.3,183.9c1.9,3.3,0.7,7.6-2.6,9.5C415.7,233.9,414.5,234.2,413.3,234.2z"/>
<path class="st0" d="M166.3,271.4c-2.8,0-5.4-1.7-6.4-4.4l-31.4-78.4c-0.1-0.1-0.3-0.2-0.4-0.3c-0.4-0.1-0.6-0.2-1.1-0.3l-77.9,15.7
	c-3.8,0.8-7.4-1.7-8.2-5.5c-0.8-3.8,1.7-7.4,5.4-8.2l78.4-15.7c1.3-0.3,2.6-0.3,3.4-0.2c0.6-0.1,1.1,0,1.7,0.1
	c1.6,0.2,3.5,0.8,5.1,1.7c0.3,0.2,0.7,0.4,1,0.7c1.2,0.8,2.2,1.7,3.1,2.8c0.3,0.3,0.9,1.4,1.1,1.7c0.3,0.5,1,1.7,1.2,2.2l31.3,78.3
	c1.4,3.6-0.3,7.6-3.9,9C168,271.2,167.2,271.4,166.3,271.4z"/>
<path class="st0" d="M151.2,454.9H80.6c-26.8,0-48.4-10.8-59.2-29.5c-11.4-19.8-9.7-45.6,4.7-70.7l99.7-175.7
	c1.9-3.3,6.1-4.5,9.5-2.6c3.3,1.9,4.5,6.1,2.6,9.5L38.2,361.6c-11.9,20.7-13.6,41.4-4.7,56.8c8.3,14.3,25.4,22.6,47.2,22.6h70.5
	c3.8,0,6.9,3.1,6.9,6.9S155,454.9,151.2,454.9z"/>
<path class="st1" d="M245.2,455.4c-3.8,0-6.9-3.1-6.9-6.9c0-3.8,3.1-7,6.9-7l188.2-0.2c21.8-0.1,39.1-8.2,47.3-22.5
	c8.8-15.2,7-35.7-4.8-56.2l-32.4-73c-1.6-3.5,0-7.6,3.5-9.2c3.5-1.5,7.6,0,9.2,3.5l32.1,72.4c14,24.3,15.8,49.9,4.5,69.4
	c-10.7,18.6-32.3,29.4-59.3,29.4L245.2,455.4L245.2,455.4L245.2,455.4L245.2,455.4z"/>
<path class="st1" d="M294.6,508c-1.8,0-3.6-0.7-4.9-2l-46.1-46.2c-3-2.2-5.2-6.4-5.2-11c0-0.2,0-0.4,0-0.6c0.1-3.8,1.6-7.4,4.3-10.1
	l47.1-47.1c2.7-2.7,7.1-2.7,9.8,0c2.7,2.7,2.7,7.1,0,9.8l-47,47c0,0.3,0,0.7-0.1,1.1c0.3,0.3,0.8,0.9,1,1.1l46.1,46.2
	c2.7,2.7,2.7,7.1,0,9.8C298.1,507.3,296.4,508,294.6,508z"/>
</svg>
