<?xml version="1.0" encoding="utf-8"?>
<!-- Generator: Adobe Illustrator 22.0.0, SVG Export Plug-In . SVG Version: 6.00 Build 0)  -->
<svg version="1.1" id="Layer_1" xmlns="http://www.w3.org/2000/svg" xmlns:xlink="http://www.w3.org/1999/xlink" x="0px" y="0px"
	 viewBox="0 0 512 512" style="enable-background:new 0 0 512 512;" xml:space="preserve">
<style type="text/css">
	.st0{fill:#3FC6F1;}
	.st1{fill:#5E686C;}
</style>
<path class="st0" d="M258.7,505.7L258.7,505.7L258.7,505.7c-1,0-2-0.2-2.9-0.7c0,0,0,0,0,0l0,0c-0.6-0.3-1.1-0.6-1.6-1.1
	c-11.6-10.2-30.3-35-31.5-58.6c-2.6-24.1,10-43.2,10.5-44c2.1-3.1,6.3-4,9.4-1.9c3.1,2.1,4,6.3,1.9,9.4c-0.1,0.2-10.3,16-8.3,35.4
	c0.9,17.1,13.7,35.4,22.5,45c8.8-9.6,21.6-27.9,22.5-44.7c2.1-20-8.1-35.6-8.2-35.7c-2.1-3.1-1.2-7.3,1.9-9.4
	c3.1-2.1,7.3-1.2,9.4,1.9c0.5,0.8,13.1,19.9,10.5,44.3c-1.2,23.2-19.9,48.1-31.5,58.2c-0.5,0.4-1,0.8-1.6,1.1
	C260.8,505.5,259.7,505.7,258.7,505.7z"/>
<path class="st1" d="M312.6,369.8c-0.8,0-1.7-0.2-2.5-0.5c-3.5-1.4-5.2-5.3-3.9-8.8c89.8-228.7-28.6-329.3-43.9-341H255
	c-16.3,11.8-134.5,107.9-43.9,339.9c1.4,3.5-0.4,7.4-3.9,8.8c-3.5,1.4-7.4-0.4-8.8-3.9C146.8,232,163,142.2,185.7,90.1
	c24.8-57,61.8-82,63.4-83.1c1.1-0.7,2.4-1.1,3.8-1.1h11.7c1.4,0,2.7,0.4,3.8,1.2c1.5,1,149.8,105.6,50.5,358.4
	C317.9,368.2,315.3,369.8,312.6,369.8z"/>
<path class="st1" d="M311.5,406.1H206c-13.2,0-24.4-11.2-24.4-24.4c0-13.2,11.2-24.4,24.4-24.4h105.4c13.2,0,24.4,11.2,24.4,24.4
	C335.8,395,324.7,406.1,311.5,406.1z M206,371c-5.6,0-10.8,5.1-10.8,10.8c0,5.6,5.1,10.8,10.8,10.8h105.4c5.6,0,10.8-5.1,10.8-10.8
	c0-5.6-5.1-10.8-10.8-10.8H206z"/>
<path class="st0" d="M258.7,176.7c-22.5,0-40.8-18.3-40.8-40.8s18.3-40.8,40.8-40.8s40.8,18.3,40.8,40.8
	C299.5,158.4,281.2,176.7,258.7,176.7z M258.7,108.7c-15,0-27.2,12.2-27.2,27.2s12.2,27.2,27.2,27.2c15,0,27.2-12.2,27.2-27.2
	S273.7,108.7,258.7,108.7z"/>
<path class="st1" d="M118.1,371c-1.3,0-2.5-0.3-3.7-1.1c-3.2-2-4.1-6.2-2.1-9.4l59.8-93.6c2-3.2,6.2-4.1,9.4-2.1
	c3.2,2,4.1,6.2,2.1,9.4l-59.8,93.6C122.5,369.9,120.3,371,118.1,371z"/>
<path class="st1" d="M194.3,371h-76.2c-3.8,0-6.8-3-6.8-6.8c0-3.8,3-6.8,6.8-6.8h76.2c3.8,0,6.8,3,6.8,6.8
	C201.1,367.9,198.1,371,194.3,371z"/>
<path class="st1" d="M399.9,371c-2.2,0-4.4-1.1-5.7-3.1l-60.4-93.6c-2-3.2-1.1-7.4,2-9.4c3.1-2,7.3-1.1,9.4,2l60.4,93.6
	c2,3.2,1.1,7.4-2,9.4C402.4,370.6,401.1,371,399.9,371z"/>
<path class="st1" d="M399.9,371h-77c-3.8,0-6.8-3-6.8-6.8c0-3.8,3-6.8,6.8-6.8h77c3.8,0,6.8,3,6.8,6.8
	C406.7,367.9,403.6,371,399.9,371z"/>
</svg>
