<?xml version="1.0" encoding="utf-8"?>
<!-- Generator: Adobe Illustrator 22.0.0, SVG Export Plug-In . SVG Version: 6.00 Build 0)  -->
<svg version="1.1" id="Layer_1" xmlns="http://www.w3.org/2000/svg" xmlns:xlink="http://www.w3.org/1999/xlink" x="0px" y="0px"
	 viewBox="0 0 512 512" style="enable-background:new 0 0 512 512;" xml:space="preserve">
<style type="text/css">
	.st0{fill:#5E686B;}
	.st1{fill:#3FC6F1;}
</style>
<path class="st0" d="M255.9,505.7c-122,0-221.3-99.3-221.3-221.3c0-122,99.3-221.3,221.3-221.3c3.7,0,6.7,3,6.7,6.7
	c0,3.7-3,6.7-6.7,6.7c-114.6,0-207.8,93.2-207.8,207.8c0,114.6,93.2,207.8,207.8,207.8c114.6,0,207.8-93.2,207.8-207.8
	c0-3.7,3-6.7,6.7-6.7c3.7,0,6.7,3,6.7,6.7C477.2,406.4,377.9,505.7,255.9,505.7z"/>
<path class="st1" d="M255.9,133c-1.2,0-2.5-0.3-3.5-1c-2-1.2-3.2-3.4-3.2-5.7V13.3c0-2.3,1.2-4.5,3.2-5.7c2-1.2,4.5-1.3,6.5-0.3
	l112.9,56.5c2.3,1.1,3.7,3.5,3.7,6c0,2.6-1.4,4.9-3.7,6l-112.9,56.5C258,132.8,256.9,133,255.9,133z M262.6,24.2v91.1l91.1-45.6
	L262.6,24.2z"/>
</svg>
