<?xml version="1.0" encoding="utf-8"?>
<!-- Generator: Adobe Illustrator 22.0.0, SVG Export Plug-In . SVG Version: 6.00 Build 0)  -->
<svg version="1.1" id="Layer_1" xmlns="http://www.w3.org/2000/svg" xmlns:xlink="http://www.w3.org/1999/xlink" x="0px" y="0px"
	 viewBox="0 0 512 512" style="enable-background:new 0 0 512 512;" xml:space="preserve">
<style type="text/css">
	.st0{fill:#3FC6F1;}
	.st1{fill:#5E686B;}
</style>
<path class="st0" d="M462.1,193.1c-1.7,0-3.5-0.7-4.8-2L283.7,17.4c-2.7-2.7-2.7-7,0-9.6c2.7-2.7,7-2.7,9.6,0L467,181.4
	c2.7,2.7,2.7,7,0,9.6C465.6,192.4,463.9,193.1,462.1,193.1z"/>
<path class="st0" d="M462.1,193.1h-87.7c-3.8,0-6.8-3.1-6.8-6.8c0-3.8,3.1-6.8,6.8-6.8h80.9V98.5c0-3.8,3.1-6.8,6.8-6.8
	c3.8,0,6.8,3.1,6.8,6.8v87.7C468.9,190,465.9,193.1,462.1,193.1z"/>
<path class="st1" d="M493.1,508H15.6c-3.8,0-6.8-3.1-6.8-6.8c0-3.8,3.1-6.8,6.8-6.8h477.5c3.8,0,6.8,3.1,6.8,6.8
	C499.9,504.9,496.8,508,493.1,508z"/>
<path class="st1" d="M104.5,433.8c-3.8,0-6.8-3.1-6.8-6.8V17.8c0-3.8,3.1-6.8,6.8-6.8s6.8,3.1,6.8,6.8V427
	C111.3,430.8,108.2,433.8,104.5,433.8z"/>
<path class="st1" d="M259.4,433.8c-3.8,0-6.8-3.1-6.8-6.8V181.5c0-3.8,3.1-6.8,6.8-6.8c3.8,0,6.8,3.1,6.8,6.8V427
	C266.2,430.8,263.1,433.8,259.4,433.8z"/>
<path class="st1" d="M414.3,433.8c-3.8,0-6.8-3.1-6.8-6.8V290.6c0-3.8,3.1-6.8,6.8-6.8c3.8,0,6.8,3.1,6.8,6.8V427
	C421.1,430.8,418,433.8,414.3,433.8z"/>
</svg>
