<?xml version="1.0" encoding="utf-8"?>
<!-- Generator: Adobe Illustrator 22.0.0, SVG Export Plug-In . SVG Version: 6.00 Build 0)  -->
<svg version="1.1" id="Layer_1" xmlns="http://www.w3.org/2000/svg" xmlns:xlink="http://www.w3.org/1999/xlink" x="0px" y="0px"
	 viewBox="0 0 512 512" style="enable-background:new 0 0 512 512;" xml:space="preserve">
<style type="text/css">
	.st0{fill:#3FC6F1;}
	.st1{fill:#5E686B;}
</style>
<path class="st0" d="M85.8,194.5c-3.6,0-6.4-2.9-6.4-6.4v-67.9H11.5c-3.6,0-6.4-2.9-6.4-6.4c0-3.6,2.9-6.4,6.4-6.4h74.3
	c3.6,0,6.4,2.9,6.4,6.4V188C92.2,191.6,89.3,194.5,85.8,194.5z"/>
<path class="st1" d="M500.1,415.1h-74.3c-3.6,0-6.4-2.9-6.4-6.4v-74.3c0-3.6,2.9-6.4,6.4-6.4c3.6,0,6.4,2.9,6.4,6.4v67.9h67.9
	c3.6,0,6.4,2.9,6.4,6.4C506.5,412.2,503.6,415.1,500.1,415.1z"/>
<path class="st0" d="M255.8,492.8C128,492.8,24,388.8,24,261c0-55.6,20-109.4,56.3-151.5c2.3-2.7,6.4-3,9.1-0.7
	c2.7,2.3,3,6.4,0.7,9.1C55.7,157.6,36.8,208.4,36.8,261c0,120.7,98.2,219,219,219c41.9,0,82.6-11.9,117.7-34.3c3-1.9,7-1.1,8.9,2
	c1.9,3,1,7-1.9,8.9C343.2,480.3,300.2,492.8,255.8,492.8z"/>
<path class="st1" d="M426.1,415.1c-1.5,0-3-0.5-4.2-1.6c-2.7-2.3-3-6.4-0.6-9.1c34.5-39.8,53.5-90.7,53.5-143.4
	c0-120.7-98.2-219-219-219c-41.6,0-82.1,11.7-117.1,33.9c-3,1.9-7,1-8.9-2c-1.9-3-1-7,2-8.9c37.1-23.5,79.9-35.9,124-35.9
	c127.8,0,231.8,104,231.8,231.8c0,55.8-20.1,109.8-56.6,151.9C429.7,414.3,427.9,415.1,426.1,415.1z"/>
</svg>
