<?xml version="1.0" encoding="utf-8"?>
<!-- Generator: Adobe Illustrator 22.0.0, SVG Export Plug-In . SVG Version: 6.00 Build 0)  -->
<svg version="1.1" id="Layer_1" xmlns="http://www.w3.org/2000/svg" xmlns:xlink="http://www.w3.org/1999/xlink" x="0px" y="0px"
	 viewBox="0 0 512 512" style="enable-background:new 0 0 512 512;" xml:space="preserve">
<style type="text/css">
	.st0{fill:#5E686B;}
	.st1{fill:#3FC6F1;}
</style>
<path class="st0" d="M375.2,443.5c-87.3,55.4-203.8,42.5-277-30.7c-80.9-80.9-87.8-207.5-16.8-296.4v62.3c0,3.7,3,6.6,6.6,6.6
	c3.7,0,6.6-3,6.6-6.6v-76.5c0-3.7-3-6.6-6.6-6.6H11.5c-3.7,0-6.6,3-6.6,6.6c0,3.7,3,6.6,6.6,6.6h59C-4.1,202.9,3.4,336.7,88.9,422.1
	c45.3,45.3,106.3,68.8,167.6,68.8c43.6,0,87.4-11.9,125.8-36.3c3.1-2,4-6,2-9.1C382.4,442.5,378.3,441.6,375.2,443.5z"/>
<path class="st0" d="M501.2,401.6h-59c74.7-94.1,67.2-227.9-18.4-313.4c-77.6-77.6-201-91.2-293.4-32.5c-3.1,2-4,6-2,9.1
	c2,3.1,6,4,9.1,2c87.3-55.5,203.7-42.6,277,30.7c80.9,80.9,87.8,207.6,16.8,296.4v-62.3c0-3.7-3-6.6-6.6-6.6c-3.7,0-6.6,3-6.6,6.6
	v76.5c0,3.7,3,6.6,6.6,6.6h76.5c3.7,0,6.6-3,6.6-6.6C507.8,404.5,504.8,401.6,501.2,401.6z"/>
<path class="st1" d="M397.6,200.1c0-0.1,0-0.2,0-0.2c0-0.1,0-0.3,0-0.4c0-0.1,0-0.1,0-0.2c0-0.1,0-0.3-0.1-0.4c0-0.1,0-0.2,0-0.2
	c0-0.1-0.1-0.2-0.1-0.4c0-0.1,0-0.2-0.1-0.2c0-0.1-0.1-0.2-0.1-0.3c0-0.1-0.1-0.2-0.1-0.3c-0.1-0.1-0.1-0.2-0.2-0.3
	c0-0.1-0.1-0.2-0.1-0.2c-0.1-0.1-0.2-0.3-0.3-0.4c0,0-0.1-0.1-0.1-0.1c-0.1-0.2-0.3-0.4-0.4-0.5L376,174c-1.2-1.3-2.9-2.1-4.7-2.1
	c-2-0.1-3.6,0.7-4.8,2l-13,13.1c-3.9,4-9.2,6.2-14.8,6.2h0c-5.6,0-10.8-2.2-14.8-6.2c-8.2-8.3-8.2-21.7,0-30l13-13.1
	c2.6-2.6,2.6-6.7,0-9.3l-19.6-19.8c0,0,0,0-0.1-0.1c0,0,0,0,0,0c0,0-0.1,0-0.1-0.1c-0.1-0.1-0.3-0.2-0.4-0.4
	c-0.1-0.1-0.2-0.1-0.2-0.2c-0.1-0.1-0.2-0.1-0.3-0.2c-0.1-0.1-0.2-0.1-0.3-0.2c-0.1,0-0.2-0.1-0.2-0.1c-0.1-0.1-0.2-0.1-0.3-0.2
	c-0.1,0-0.2-0.1-0.3-0.1c-0.1,0-0.2-0.1-0.3-0.1c-0.1,0-0.2-0.1-0.3-0.1c-0.1,0-0.2,0-0.2-0.1c-0.1,0-0.3-0.1-0.4-0.1
	c-0.1,0-0.1,0-0.2,0c-0.2,0-0.3-0.1-0.5-0.1c0,0,0,0-0.1,0c-1.9-0.1-3.8,0.5-5.2,1.9c0,0,0,0.1-0.1,0.1c0,0,0,0,0,0l-23.1,23.6
	c-20.5,20.7-23.5,52.6-8.9,76.5L127.8,323c-16.9,17-16.9,44.7,0,61.7c8.2,8.3,19.1,12.8,30.7,12.8h0c11.6,0,22.5-4.5,31.3-13.6
	l106.4-148.6c9.6,6,20.7,9.2,32.2,9.2c0,0,0,0,0,0c16.5,0,32-6.5,43.4-18l23.7-21.5c1-0.9,1.7-2.1,2-3.3c0-0.1,0-0.1,0-0.2
	c0-0.1,0.1-0.3,0.1-0.4c0-0.1,0-0.2,0-0.3c0-0.1,0-0.2,0-0.3C397.6,200.3,397.6,200.2,397.6,200.1z M179.7,375.5
	c-5.7,5.7-13.2,8.9-21.2,8.9c0,0,0,0,0,0c-8,0-15.6-3.2-21.3-8.9c-11.8-11.9-11.8-31.2-0.8-42.4l147.6-107.6
	c0.3,0.3,0.6,0.6,0.8,0.9c0.3,0.3,0.7,0.6,1,0.9L179.7,375.5z M362.7,217c-9.1,9.2-21.3,14.3-34.2,14.3c0,0,0,0,0,0
	c-10.8,0-21-3.5-29.4-10c-0.2-0.2-0.4-0.3-0.6-0.5c0,0-0.1,0-0.1,0c-1.5-1.2-2.9-2.4-4.2-3.8c-1.3-1.3-2.5-2.7-3.7-4.1
	c-0.1-0.1-0.1-0.2-0.2-0.3c-0.1-0.2-0.3-0.4-0.5-0.6c-14.5-19.2-13-46.8,4.4-64.3l18.4-18.9l10.3,10.4l-8.4,8.4
	c-13.3,13.4-13.3,35.2,0,48.6c6.5,6.5,15,10.1,24.2,10.1c0,0,0,0,0,0c9.1,0,17.7-3.6,24.2-10.1l8.1-8.2l10.7,11.6L362.7,217z"/>
<path class="st1" d="M167.9,347h-18.4c-3.7,0-6.6,3-6.6,6.6c0,3.7,3,6.6,6.6,6.6h18.4c3.7,0,6.6-3,6.6-6.6
	C174.5,349.9,171.6,347,167.9,347z"/>
</svg>
