<?xml version="1.0" encoding="utf-8"?>
<!-- Generator: Adobe Illustrator 22.0.0, SVG Export Plug-In . SVG Version: 6.00 Build 0)  -->
<svg version="1.1" id="Layer_1" xmlns="http://www.w3.org/2000/svg" xmlns:xlink="http://www.w3.org/1999/xlink" x="0px" y="0px"
	 viewBox="0 0 512 512" style="enable-background:new 0 0 512 512;" xml:space="preserve">
<style type="text/css">
	.st0{fill:#5E686B;}
	.st1{fill:#3FC6F1;}
</style>
<path class="st0" d="M99.9,327.9c-2.3,0-4.5-1.2-5.8-3.2c-1.2-2-1.4-4.5-0.3-6.6l43.6-89c1.1-2.3,3.5-3.8,6.1-3.8h223.2
	c2.6,0,4.9,1.4,6.1,3.8l44.5,88.8c1,2.1,0.9,4.6-0.3,6.6c-1.2,2-3.4,3.2-5.8,3.2L99.9,327.9L99.9,327.9z M147.8,238.9l-37,75.4
	l289.5-0.2l-37.7-75.3L147.8,238.9L147.8,238.9z"/>
<path class="st1" d="M322.7,149.9H187.8c-2.4,0-4.6-1.2-5.8-3.3c-1.2-2-1.3-4.5-0.2-6.6L250,8.1c1.2-2.3,3.5-3.7,6-3.7c0,0,0,0,0,0
	c2.6,0,4.9,1.5,6,3.7l66.7,131.9c1.1,2.1,1,4.6-0.3,6.6C327.3,148.7,325.1,149.9,322.7,149.9z M198.9,136.3h112.8L255.9,26.1
	L198.9,136.3z"/>
<path class="st0" d="M500.8,507.5H11.2c-2.3,0-4.5-1.2-5.8-3.2c-1.2-2-1.4-4.5-0.3-6.6l44.4-90.6c1.1-2.3,3.5-3.8,6.1-3.8h399.7
	c2.6,0,4.9,1.4,6.1,3.8l45.4,90.6c1,2.1,0.9,4.6-0.3,6.6C505.3,506.3,503.1,507.5,500.8,507.5z M22.1,494h467.7l-38.6-77.1H59.9
	L22.1,494z"/>
</svg>
