<?xml version="1.0" encoding="utf-8"?>
<!-- Generator: Adobe Illustrator 22.0.0, SVG Export Plug-In . SVG Version: 6.00 Build 0)  -->
<svg version="1.1" id="Layer_1" xmlns="http://www.w3.org/2000/svg" xmlns:xlink="http://www.w3.org/1999/xlink" x="0px" y="0px"
	 viewBox="0 0 512 512" style="enable-background:new 0 0 512 512;" xml:space="preserve">
<style type="text/css">
	.st0{fill:#5E686B;}
	.st1{fill:#3FC6F1;}
</style>
<path class="st0" d="M500.8,507.6H11.9c-3.9,0-7-3.1-7-7V11.8c0-3.9,3.1-7,7-7h488.8c3.9,0,7,3.1,7,7v488.9
	C507.8,504.5,504.6,507.6,500.8,507.6z M18.9,493.7h474.9V18.8H18.9V493.7z"/>
<path class="st1" d="M415.6,204.6c-3.9,0-7-3.1-7-7V104H315c-3.9,0-7-3.1-7-7s3.1-7,7-7h100.6c3.9,0,7,3.1,7,7v100.6
	C422.6,201.4,419.4,204.6,415.6,204.6z"/>
<path class="st0" d="M197.7,422.4H97.1c-3.9,0-7-3.1-7-7V314.9c0-3.9,3.1-7,7-7s7,3.1,7,7v93.6h93.6c3.9,0,7,3.1,7,7
	C204.7,419.3,201.6,422.4,197.7,422.4z"/>
<path class="st1" d="M302.8,216.8c-1.8,0-3.6-0.7-4.9-2c-2.7-2.7-2.7-7.1,0-9.9L409.6,93.1c2.7-2.7,7.1-2.7,9.9,0
	c2.7,2.7,2.7,7.1,0,9.9L307.8,214.7C306.4,216.1,304.6,216.8,302.8,216.8z"/>
<path class="st0" d="M98.9,420.7c-1.8,0-3.6-0.7-4.9-2c-2.7-2.7-2.7-7.1,0-9.9L205.7,297c2.7-2.7,7.1-2.7,9.9,0
	c2.7,2.7,2.7,7.1,0,9.9L103.9,418.6C102.5,420,100.7,420.7,98.9,420.7z"/>
</svg>
