<?xml version="1.0" encoding="utf-8"?>
<!-- Generator: Adobe Illustrator 22.0.0, SVG Export Plug-In . SVG Version: 6.00 Build 0)  -->
<svg version="1.1" id="Layer_1" xmlns="http://www.w3.org/2000/svg" xmlns:xlink="http://www.w3.org/1999/xlink" x="0px" y="0px"
	 viewBox="0 0 512 512" style="enable-background:new 0 0 512 512;" xml:space="preserve">
<style type="text/css">
	.st0{fill:#5E686B;}
	.st1{fill:#3FC6F1;}
</style>
<path class="st0" d="M99,508.9c-1,0-2.1-0.2-3-0.7c-2.3-1.2-3.8-3.5-3.8-6.2V6.9C92.1,3.1,95.2,0,99,0h314c3.8,0,6.9,3.1,6.9,6.9
	V502c0,2.6-1.5,5-3.8,6.2c-2.3,1.2-5.2,0.9-7.2-0.7L256,389.9L103.2,507.4C102,508.4,100.5,508.9,99,508.9z M256,374.4
	c1.5,0,3,0.5,4.2,1.4L406.1,488V13.8H105.9V488l145.9-112.2C253,374.8,254.5,374.4,256,374.4z"/>
<path class="st1" d="M359.1,87.9H152.9c-3.8,0-6.9-3.1-6.9-6.9s3.1-6.9,6.9-6.9h206.2c3.8,0,6.9,3.1,6.9,6.9
	C366,84.8,362.9,87.9,359.1,87.9z"/>
<path class="st1" d="M359.1,170.7H152.9c-3.8,0-6.9-3.1-6.9-6.9c0-3.8,3.1-6.9,6.9-6.9h206.2c3.8,0,6.9,3.1,6.9,6.9
	C366,167.7,362.9,170.7,359.1,170.7z"/>
</svg>
