<?xml version="1.0" encoding="utf-8"?>
<!-- Generator: Adobe Illustrator 22.0.0, SVG Export Plug-In . SVG Version: 6.00 Build 0)  -->
<svg version="1.1" id="Layer_1" xmlns="http://www.w3.org/2000/svg" xmlns:xlink="http://www.w3.org/1999/xlink" x="0px" y="0px"
	 viewBox="0 0 512 512" style="enable-background:new 0 0 512 512;" xml:space="preserve">
<style type="text/css">
	.st0{fill:#5E686B;}
	.st1{fill:#3FC6F1;}
</style>
<path class="st0" d="M257.8,509.6C119.7,509.6,7.3,397.2,7.3,259.1C7.3,120.9,119.7,8.6,257.8,8.6c125.8,0,232.6,93.9,248.5,218.5
	c0.5,3.8-2.2,7.3-6,7.8c-3.8,0.5-7.3-2.2-7.8-6c-15-117.6-115.9-206.3-234.7-206.3c-130.5,0-236.6,106.1-236.6,236.6
	s106.1,236.6,236.6,236.6c122.1,0,223.3-91.5,235.4-212.8c0.4-3.8,3.9-6.7,7.6-6.2c3.8,0.4,6.6,3.8,6.2,7.6
	C494.2,412.7,387.1,509.6,257.8,509.6z"/>
<path class="st1" d="M188.7,404.2c-1.8,0-3.6-0.7-4.9-2c-2.7-2.7-2.7-7.1,0-9.8l133.3-133.3L183.8,125.8c-2.7-2.7-2.7-7.1,0-9.8
	s7.1-2.7,9.8,0l138.2,138.2c1.3,1.3,2,3.1,2,4.9s-0.7,3.6-2,4.9L193.6,402.2C192.3,403.5,190.5,404.2,188.7,404.2z"/>
</svg>
