<?xml version="1.0" encoding="utf-8"?>
<!-- Generator: Adobe Illustrator 22.0.0, SVG Export Plug-In . SVG Version: 6.00 Build 0)  -->
<svg version="1.1" id="Layer_1" xmlns="http://www.w3.org/2000/svg" xmlns:xlink="http://www.w3.org/1999/xlink" x="0px" y="0px"
	 viewBox="0 0 512 512" style="enable-background:new 0 0 512 512;" xml:space="preserve">
<style type="text/css">
	.st0{fill:#3FC6F1;}
	.st1{fill:#5E686C;}
</style>
<path class="st0" d="M255.7,148.5c-3.7,0-6.8-3-6.8-6.8V87.6c0-3.7,3-6.8,6.8-6.8c3.7,0,6.8,3,6.8,6.8v54.1
	C262.4,145.5,259.4,148.5,255.7,148.5z"/>
<path class="st1" d="M424.3,487.6H85.9c-3.7,0-6.8-3-6.8-6.8V142.5c0-3.7,3-6.8,6.8-6.8h338.4c3.7,0,6.8,3,6.8,6.8v338.4
	C431,484.6,428,487.6,424.3,487.6z M92.6,474.1h324.9V149.2H92.6V474.1z"/>
<path class="st1" d="M85.9,355.7H11.3c-3.7,0-6.8-3-6.8-6.8v-74.6c0-3.7,3-6.8,6.8-6.8h74.5c3.7,0,6.8,3,6.8,6.8s-3,6.8-6.8,6.8
	H18.1v61h67.8c3.7,0,6.8,3,6.8,6.8S89.6,355.7,85.9,355.7z"/>
<path class="st1" d="M498.8,355.7h-74.5c-3.7,0-6.8-3-6.8-6.8s3-6.8,6.8-6.8H492v-61h-67.8c-3.7,0-6.8-3-6.8-6.8
	c0-3.7,3-6.8,6.8-6.8h74.5c3.7,0,6.8,3,6.8,6.8v74.6C505.6,352.7,502.5,355.7,498.8,355.7z"/>
<path class="st1" d="M345.1,487.6c-3.7,0-6.8-3-6.8-6.8v-82.7H173v82.7c0,3.7-3,6.8-6.8,6.8c-3.7,0-6.8-3-6.8-6.8v-89.4
	c0-3.7,3-6.8,6.8-6.8h178.9c3.7,0,6.8,3,6.8,6.8v89.4C351.9,484.6,348.9,487.6,345.1,487.6z"/>
<path class="st0" d="M255.7,94.4c-19.1,0-34.7-15.6-34.7-34.7s15.6-34.7,34.7-34.7c19.1,0,34.7,15.6,34.7,34.7
	S274.8,94.4,255.7,94.4z M255.7,38.5c-11.7,0-21.2,9.5-21.2,21.2c0,11.7,9.5,21.2,21.2,21.2c11.7,0,21.2-9.5,21.2-21.2
	S267.4,38.5,255.7,38.5z"/>
<path class="st0" d="M188.6,303.4c-19.1,0-34.7-15.6-34.7-34.7c0-19.1,15.6-34.7,34.7-34.7c19.1,0,34.7,15.6,34.7,34.7
	C223.3,287.8,207.7,303.4,188.6,303.4z M188.6,247.5c-11.7,0-21.2,9.5-21.2,21.2c0,11.7,9.5,21.2,21.2,21.2s21.2-9.5,21.2-21.2
	C209.8,257,200.3,247.5,188.6,247.5z"/>
<path class="st0" d="M315.9,303.4c-19.1,0-34.7-15.6-34.7-34.7c0-19.1,15.6-34.7,34.7-34.7s34.7,15.6,34.7,34.7
	C350.6,287.8,335,303.4,315.9,303.4z M315.9,247.5c-11.7,0-21.2,9.5-21.2,21.2c0,11.7,9.5,21.2,21.2,21.2s21.2-9.5,21.2-21.2
	C337.1,257,327.6,247.5,315.9,247.5z"/>
</svg>
