<?xml version="1.0" encoding="utf-8"?>
<!-- Generator: Adobe Illustrator 22.0.0, SVG Export Plug-In . SVG Version: 6.00 Build 0)  -->
<svg version="1.1" id="Layer_1" xmlns="http://www.w3.org/2000/svg" xmlns:xlink="http://www.w3.org/1999/xlink" x="0px" y="0px"
	 viewBox="0 0 512 512" style="enable-background:new 0 0 512 512;" xml:space="preserve">
<style type="text/css">
	.st0{fill:#5E686B;}
	.st1{fill:#3FC6F1;}
</style>
<path class="st0" d="M244.4,471.3C121,471.3,20.6,370.9,20.6,247.5c0-61.9,22.7-116.6,65.6-158.3c2.6-2.6,6.9-2.5,9.4,0.1
	c2.6,2.6,2.5,6.9-0.1,9.4c-40.3,39.1-61.6,90.6-61.6,148.7c0,116.1,94.4,210.5,210.5,210.5c55.4,0,107.7-21.4,147.3-60.1
	c2.6-2.6,6.9-2.5,9.4,0.1c2.6,2.6,2.5,6.9-0.1,9.4C359,448.6,303.4,471.3,244.4,471.3z"/>
<path class="st0" d="M398,407.7c-1.7,0-3.4-0.7-4.7-2L86.2,98.7c-2.6-2.6-2.6-6.8,0-9.4s6.8-2.6,9.4,0l307.1,307.1
	c2.6,2.6,2.6,6.8,0,9.4C401.4,407,399.7,407.7,398,407.7z"/>
<path class="st1" d="M418.1,206.4c-3.7,0-6.7-3-6.7-6.7c0-31.7-12.3-61.4-34.7-83.8c-22.4-22.4-52.1-34.7-83.8-34.7
	c-3.7,0-6.7-3-6.7-6.7c0-3.7,3-6.7,6.7-6.7l0,0c35.3,0,68.4,13.7,93.3,38.6c24.9,24.9,38.6,58,38.6,93.3
	C424.8,203.4,421.8,206.4,418.1,206.4z"/>
<path class="st1" d="M483,196.3L483,196.3c-3.7,0-6.7-3-6.7-6.7c0-45.2-17.6-87.7-49.6-119.7c-32-32-74.4-49.6-119.6-49.6
	c0,0,0,0-0.1,0c-3.7,0-6.7-3-6.7-6.7c0-3.7,3-6.7,6.7-6.7c0,0,0,0,0.1,0c48.8,0,94.6,19,129.1,53.5c34.5,34.5,53.5,80.4,53.5,129.1
	C489.7,193.3,486.7,196.3,483,196.3z"/>
<path class="st0" d="M89.9,504.8c-3.7,0-6.7-3-6.7-6.7V400c0-3.7,3-6.7,6.7-6.7c3.7,0,6.7,3,6.7,6.7v98.1
	C96.6,501.8,93.6,504.8,89.9,504.8z"/>
<path class="st1" d="M311.3,217.7c-20.1,0-36.5-16.4-36.5-36.5s16.4-36.5,36.5-36.5c20.1,0,36.5,16.4,36.5,36.5
	S331.5,217.7,311.3,217.7z M311.3,158.1c-12.8,0-23.1,10.4-23.1,23.1s10.4,23.1,23.1,23.1s23.1-10.4,23.1-23.1
	S324.1,158.1,311.3,158.1z"/>
</svg>
