<?xml version="1.0" encoding="utf-8"?>
<!-- Generator: Adobe Illustrator 22.0.0, SVG Export Plug-In . SVG Version: 6.00 Build 0)  -->
<svg version="1.1" id="Layer_1" xmlns="http://www.w3.org/2000/svg" xmlns:xlink="http://www.w3.org/1999/xlink" x="0px" y="0px"
	 viewBox="0 0 512 512" style="enable-background:new 0 0 512 512;" xml:space="preserve">
<style type="text/css">
	.st0{fill:#5E686B;}
	.st1{fill:#3FC6F1;}
</style>
<path class="st0" d="M152,265.2c-30.8,0-55.9-25.1-55.9-55.9c0-30.8,25.1-55.9,55.9-55.9c30.8,0,55.9,25.1,55.9,55.9
	C207.9,240.2,182.9,265.2,152,265.2z M152,167.4c-23.1,0-41.9,18.8-41.9,41.9s18.8,41.9,41.9,41.9c23.1,0,41.9-18.8,41.9-41.9
	S175.2,167.4,152,167.4z"/>
<path class="st0" d="M359.9,265.2c-30.8,0-55.9-25.1-55.9-55.9c0-30.8,25.1-55.9,55.9-55.9c30.8,0,55.9,25.1,55.9,55.9
	C415.8,240.2,390.7,265.2,359.9,265.2z M359.9,167.4c-23.1,0-41.9,18.8-41.9,41.9s18.8,41.9,41.9,41.9c23.1,0,41.9-18.8,41.9-41.9
	S383,167.4,359.9,167.4z"/>
<path class="st0" d="M256,509.7C117.3,509.7,4.5,396.9,4.5,258.2c0-128.4,96.1-235.8,223.5-250c3.8-0.5,7.3,2.3,7.7,6.2
	c0.4,3.8-2.3,7.3-6.2,7.7C109.2,35.5,18.4,137,18.4,258.2c0,131,106.6,237.5,237.5,237.5c131,0,237.5-106.6,237.5-237.5
	c0-120.5-90.1-222-209.7-235.9c-3.8-0.5-6.6-3.9-6.1-7.8c0.4-3.8,4-6.6,7.8-6.1c126.6,14.8,222,122.2,222,249.8
	C507.5,396.9,394.6,509.7,256,509.7z"/>
<path class="st1" d="M381.7,381.5H130.2c-3.9,0-7-3.1-7-7c0-3.9,3.1-7,7-7h251.5c3.9,0,7,3.1,7,7
	C388.7,378.4,385.6,381.5,381.7,381.5z"/>
</svg>
