<?xml version="1.0" encoding="utf-8"?>
<!-- Generator: Adobe Illustrator 22.0.0, SVG Export Plug-In . SVG Version: 6.00 Build 0)  -->
<svg version="1.1" id="Layer_1" xmlns="http://www.w3.org/2000/svg" xmlns:xlink="http://www.w3.org/1999/xlink" x="0px" y="0px"
	 viewBox="0 0 512 512" style="enable-background:new 0 0 512 512;" xml:space="preserve">
<style type="text/css">
	.st0{fill:#5E686C;}
	.st1{fill:#3FC6F1;}
</style>
<path class="st0" d="M425.1,494.5h-31.8c-21.5,0-38.4-16.9-38.4-38.4v-21.9c-50.7,13.4-106.9,14.2-156.6,2.3v18.4
	c0,21.5-16.9,38.4-38.4,38.4h-33c-21.5,0-38.4-16.9-38.4-38.4v-76.7c-6-6-12-12.1-17.2-18.1H43.9c-20.8,0-38.4-17.6-38.4-38.4v-68.4
	c0-19.8,17.9-37.2,38.4-37.2h8.1c7.4-15,17.6-29.3,29.7-41.7c2.5-21.1-6.2-40.3-27.7-61.9c-4.9-3.1-7.6-11-5.2-17.8
	c1.8-5.6,7.1-10.8,12.7-12.7c50.5-13.5,93.1-2.1,124.1,32.9c16.1-4.7,32.7-8.1,49.4-10.2c3.5-0.6,6.9,2.1,7.4,5.7
	c0.5,3.6-2.1,6.9-5.7,7.4c-17.3,2.2-34.6,5.8-51.3,10.9c-2.5,0.8-5.3-0.1-7-2.1c-28-33.8-66-44.7-113-32c-1.3,0.4-3.4,2.6-4,4.2
	c-0.3,1.1,0.1,2.7,1.1,3.4c26.2,26,36.1,50,32.2,76.1c-0.2,1.4-0.9,2.7-1.9,3.7c-12.7,12.7-23.2,27.7-30.5,43.3
	c-1.1,2.3-3.4,3.8-6,3.8H43.9c-13.2,0-25.2,11.4-25.2,24v68.4c0,13.4,11.8,25.2,25.2,25.2h30.5c2,0,3.8,0.9,5.1,2.4
	c5.9,7,13.1,14.3,20.2,21.3c1.2,1.2,2.2,3.1,2.2,4.9v79.4c0,14.1,11.1,25.2,25.2,25.2h33c14.1,0,25.2-11.1,25.2-25.2V428
	c0-2.1,1-4,2.6-5.2c1.6-1.3,3.8-1.6,5.8-1.1c52.2,14.2,112.8,13.4,166.2-2.4c2-0.6,4.2-0.2,5.8,1c1.7,1.3,2.7,3.2,2.7,5.3v30.6
	c0,14.1,11.1,25.2,25.2,25.2h31.8c14.8,0,26.4-11.6,26.4-26.4v-85.5c0-1.7,0.7-3.3,1.8-4.6c26.4-27.6,40.9-60.3,40.9-92
	c0-56-42.9-108.3-112-136.4c-3.4-1.4-5-5.2-3.6-8.6s5.2-5,8.6-3.6c74.1,30.1,120.2,87.1,120.2,148.6c0,34.4-15.2,69.5-42.8,99.2
	v82.9C464.7,476.7,447,494.5,425.1,494.5z"/>
<path class="st1" d="M314.3,145.4c-32.8,0-59.4-26.7-59.4-59.4c0-32.8,26.7-59.4,59.4-59.4c32.8,0,59.4,26.7,59.4,59.4
	C373.7,118.7,347,145.4,314.3,145.4z M314.3,39.7c-25.5,0-46.2,20.7-46.2,46.2c0,25.5,20.7,46.2,46.2,46.2s46.2-20.7,46.2-46.2
	S339.8,39.7,314.3,39.7z"/>
</svg>
