<?xml version="1.0" encoding="utf-8"?>
<!-- Generator: Adobe Illustrator 22.0.0, SVG Export Plug-In . SVG Version: 6.00 Build 0)  -->
<svg version="1.1" id="Layer_1" xmlns="http://www.w3.org/2000/svg" xmlns:xlink="http://www.w3.org/1999/xlink" x="0px" y="0px"
	 viewBox="0 0 512 512" style="enable-background:new 0 0 512 512;" xml:space="preserve">
<style type="text/css">
	.st0{fill:#3FC6F1;}
	.st1{fill:#5E686C;}
</style>
<path class="st0" d="M211.9,373.4c-15.2,0-27.5,12.4-27.5,27.5s12.4,27.5,27.5,27.5c15.2,0,27.5-12.4,27.5-27.5
	C239.5,385.8,227.1,373.4,211.9,373.4z M211.9,414.7c-7.6,0-13.8-6.2-13.8-13.8s6.2-13.8,13.8-13.8c7.6,0,13.8,6.2,13.8,13.8
	S219.5,414.7,211.9,414.7z"/>
<path class="st0" d="M258.1,236.7c15.2,0,27.5-12.4,27.5-27.5c0-15.2-12.4-27.5-27.5-27.5s-27.5,12.3-27.5,27.5
	C230.5,224.3,242.9,236.7,258.1,236.7z M258.1,195.4c7.6,0,13.8,6.2,13.8,13.8s-6.2,13.8-13.8,13.8c-7.6,0-13.8-6.2-13.8-13.8
	S250.5,195.4,258.1,195.4z"/>
<path class="st0" d="M326.5,410.3c-15.2,0-27.5,12.4-27.5,27.5s12.4,27.5,27.5,27.5c15.2,0,27.5-12.4,27.5-27.5
	C354,422.7,341.6,410.3,326.5,410.3z M326.5,451.6c-7.6,0-13.8-6.2-13.8-13.8c0-7.6,6.2-13.8,13.8-13.8c7.6,0,13.8,6.2,13.8,13.8
	C340.2,445.4,334,451.6,326.5,451.6z"/>
<path class="st1" d="M181.2,19.1h142.5c3.8,0,6.9-3.1,6.9-6.9s-3.1-6.9-6.9-6.9H181.2c-3.8,0-6.9,3.1-6.9,6.9S177.4,19.1,181.2,19.1
	z"/>
<path class="st1" d="M457.9,442.9l-98.5-157.5l-1.4-1.9c-8.6-12.3-43.3-73-43.3-124.7V43.9c0-3.8-3.1-6.9-6.9-6.9H197
	c-3.8,0-6.9,3.1-6.9,6.9v114.8c0,55.4-39.2,126.6-39.6,127.3L63.1,442.5c-16.7,23.5-14.9,38.7-10.4,47.4
	c4.7,9.2,17.1,20.1,49.4,20.1h316.7c32.2,0,44.6-10.9,49.3-20.1C472.5,481.2,474.3,466,457.9,442.9z M203.9,158.7V50.7H301v107.9
	c0,45.6,25,97.5,38.9,121.5c-5.1-0.7-10.4-1-16.1-1c-29.3,0-44.1,8.5-58.4,16.8c-13.3,7.7-25.9,14.9-51.5,14.9
	c-25.6,0-38.2-7.2-51.5-14.9l-1.2-0.7l1.4-2.6C164.3,289.6,203.9,217.7,203.9,158.7z M455.9,483.6c-4.2,8.2-17.4,12.7-37.1,12.7H102
	c-19.7,0-32.9-4.5-37.1-12.7c-3.8-7.4-0.5-19.2,9.8-33.7l79.7-142.6l1,0.6c14.3,8.2,29.1,16.8,58.4,16.8c29.3,0,44.1-8.5,58.4-16.7
	c13.3-7.7,25.9-14.9,51.5-14.9c9.8,0,18.3,1.1,26.1,3.3l96.6,154.3C456.3,464.4,459.7,476.2,455.9,483.6z"/>
</svg>
