<?xml version="1.0" encoding="utf-8"?>
<!-- Generator: Adobe Illustrator 22.0.0, SVG Export Plug-In . SVG Version: 6.00 Build 0)  -->
<svg version="1.1" id="Layer_1" xmlns="http://www.w3.org/2000/svg" xmlns:xlink="http://www.w3.org/1999/xlink" x="0px" y="0px"
	 viewBox="0 0 512 512" style="enable-background:new 0 0 512 512;" xml:space="preserve">
<style type="text/css">
	.st0{fill:#5E686C;}
	.st1{fill:#3FC6F1;}
</style>
<path class="st0" d="M238.4,133.8h-94.5c-3.7,0-6.8-3-6.8-6.8V32.5c0-3.7,3-6.8,6.8-6.8h94.5c3.7,0,6.8,3,6.8,6.8V127
	C245.2,130.7,242.2,133.8,238.4,133.8z M150.6,120.2h81v-81h-81V120.2z"/>
<path class="st1" d="M238.4,309.7H148c-3.7,0-6.8-3-6.8-6.8s3-6.8,6.8-6.8h83.7v-81h-81v33.7c0,3.7-3,6.8-6.8,6.8s-6.8-3-6.8-6.8
	v-40.5c0-3.7,3-6.8,6.8-6.8h94.5c3.7,0,6.8,3,6.8,6.8V303C245.2,306.7,242.2,309.7,238.4,309.7z"/>
<path class="st0" d="M238.4,485.7h-94.5c-3.7,0-6.8-3-6.8-6.8v-94.5c0-3.7,3-6.8,6.8-6.8h94.5c3.7,0,6.8,3,6.8,6.8v94.5
	C245.2,482.7,242.2,485.7,238.4,485.7z M150.6,472.2h81v-81h-81V472.2z"/>
<path class="st0" d="M498.2,58.8H282.2c-3.7,0-6.8-3-6.8-6.8c0-3.7,3-6.8,6.8-6.8h216.1c3.7,0,6.8,3,6.8,6.8
	C505,55.8,502,58.8,498.2,58.8z"/>
<path class="st0" d="M444.8,100.6H282.8c-3.7,0-6.8-3-6.8-6.8s3-6.8,6.8-6.8h162.1c3.7,0,6.8,3,6.8,6.8S448.6,100.6,444.8,100.6z"/>
<path class="st1" d="M498.2,238.6H282.2c-3.7,0-6.8-3-6.8-6.8s3-6.8,6.8-6.8h216.1c3.7,0,6.8,3,6.8,6.8S502,238.6,498.2,238.6z"/>
<path class="st1" d="M444.8,280.4H282.8c-3.7,0-6.8-3-6.8-6.8s3-6.8,6.8-6.8h162.1c3.7,0,6.8,3,6.8,6.8S448.6,280.4,444.8,280.4z"/>
<path class="st0" d="M498.2,418.5H282.2c-3.7,0-6.8-3-6.8-6.8s3-6.8,6.8-6.8h216.1c3.7,0,6.8,3,6.8,6.8S502,418.5,498.2,418.5z"/>
<path class="st0" d="M444.2,460.2H282.2c-3.7,0-6.8-3-6.8-6.8s3-6.8,6.8-6.8h162.1c3.7,0,6.8,3,6.8,6.8S448,460.2,444.2,460.2z"/>
<path class="st0" d="M112.4,400.8c-0.1,0-0.3,0-0.4,0c-3-0.2-5.5-2.4-6.1-5.3l-16.6-76.2l-76.2-16.6c-2.9-0.6-5.1-3.1-5.3-6.1
	c-0.2-3,1.6-5.8,4.4-6.8L166,233.8c2.5-0.9,5.2-0.3,7.1,1.6c1.9,1.9,2.5,4.6,1.6,7.1l-55.9,153.9C117.7,399,115.2,400.8,112.4,400.8
	z M38.6,294.4L96.2,307c2.6,0.6,4.6,2.6,5.2,5.1l12.6,57.6l43-118.4L38.6,294.4z"/>
</svg>
