<?xml version="1.0" encoding="utf-8"?>
<!-- Generator: Adobe Illustrator 22.0.0, SVG Export Plug-In . SVG Version: 6.00 Build 0)  -->
<svg version="1.1" id="Layer_1" xmlns="http://www.w3.org/2000/svg" xmlns:xlink="http://www.w3.org/1999/xlink" x="0px" y="0px"
	 viewBox="0 0 512 512" style="enable-background:new 0 0 512 512;" xml:space="preserve">
<style type="text/css">
	.st0{fill:#5E686B;}
	.st1{fill:#3FC6F1;}
</style>
<path class="st0" d="M184.7,501.1H48c-18.5,0-33.6-12.3-33.6-27.5V38c0-15.1,15.1-27.5,33.6-27.5h136.7c18.5,0,33.6,12.3,33.6,27.5
	v435.7C218.2,488.8,203.2,501.1,184.7,501.1z M48,23.9c-11,0-20.3,6.5-20.3,14.1v435.7c0,7.7,9.3,14.1,20.3,14.1h136.7
	c11,0,20.2-6.5,20.2-14.1V38c0-7.7-9.3-14.1-20.2-14.1L48,23.9L48,23.9z"/>
<path class="st0" d="M471.3,501.1H334.6c-18.5,0-33.6-12.3-33.6-27.5V38c0-15.1,15.1-27.5,33.6-27.5h136.7
	c18.5,0,33.6,12.3,33.6,27.5v435.7C504.9,488.8,489.8,501.1,471.3,501.1z M334.6,23.9c-11,0-20.3,6.5-20.3,14.1v435.7
	c0,7.7,9.3,14.1,20.3,14.1h136.7c11,0,20.3-6.5,20.3-14.1V38c0-7.7-9.3-14.1-20.3-14.1L334.6,23.9L334.6,23.9z"/>
<path class="st1" d="M116.3,163.9c-1.7,0-3.4-0.1-5.2-0.3c-10.6-1.4-20-6.8-26.5-15.2c-6.5-8.5-9.4-19-8-29.5
	c2.8-21.6,22.7-37.5,44.8-34.5c21.8,2.8,37.3,22.9,34.5,44.8C153.3,148.9,136.3,163.9,116.3,163.9z M116.2,97.3
	c-13.3,0-24.6,10-26.4,23.2c-0.9,7,1,14,5.3,19.7c4.3,5.6,10.6,9.2,17.7,10.2c14.8,1.9,28-8.6,29.9-23c1.9-14.6-8.5-28-23-29.8
	C118.5,97.3,117.3,97.3,116.2,97.3z"/>
<path class="st1" d="M403.3,163.9c-1.7,0-3.5-0.1-5.2-0.3c-21.8-2.8-37.3-22.9-34.5-44.8c2.8-21.6,22.9-37.4,44.8-34.5
	c21.9,2.8,37.3,22.9,34.5,44.8C440.3,148.9,423.3,163.9,403.3,163.9z M403.2,97.3c-13.3,0-24.6,10-26.3,23.2
	c-1.9,14.6,8.4,28,23,29.8c14.8,1.9,28-8.6,29.9-23c1.9-14.6-8.5-28-23-29.8C405.5,97.3,404.3,97.3,403.2,97.3z"/>
</svg>
