<?xml version="1.0" encoding="utf-8"?>
<!-- Generator: Adobe Illustrator 22.0.0, SVG Export Plug-In . SVG Version: 6.00 Build 0)  -->
<svg version="1.1" id="Layer_1" xmlns="http://www.w3.org/2000/svg" xmlns:xlink="http://www.w3.org/1999/xlink" x="0px" y="0px"
	 viewBox="0 0 512 512" style="enable-background:new 0 0 512 512;" xml:space="preserve">
<style type="text/css">
	.st0{fill:none;stroke:#69C299;stroke-linecap:round;stroke-linejoin:round;stroke-miterlimit:10;}
	.st1{fill:#5E686B;}
	.st2{fill:#3FC6F1;}
</style>
<path class="st0" d="M92.5,415.7"/>
<path class="st1" d="M255.6,508.9c-10,0-19.8-0.6-29.2-1.7c-25.4-2.9-44.1-25.2-42.5-50.8c0.3-4.8-2.6-9.4-7.1-11.3
	c-3.3-1.4-10.5,0.2-13.2,3.1c-16.4,18.1-46.7,20.6-65.9,5.2c-14.8-12-28.3-25.6-40-40.5c-15.5-19.6-13.2-48.3,5.3-65.3
	c3.7-3.4,4.9-8.6,3.1-13c-1.7-4.2-5.9-7.2-9.9-7.2c-22.5,0-48.2-15-51.3-42.8c-2.2-19.3-2.1-38.7,0.1-57.5c3-24.7,23.2-42.6,48-42.6
	c6.8,0,12.4-2.8,14.2-7.1c1.9-4.4,0.6-9.7-3-13c-18.9-17.2-21.2-46.2-5.2-66c11.9-14.9,25.6-28.5,40.8-40.4
	c19.8-15.2,49.3-12.4,65.5,5.5c2.1,2.3,9.3,4.5,13.1,3c4.4-1.8,7.2-6.4,7.1-11.3c-0.8-25.1,18.1-46.9,43-49.6
	c18.6-2.1,38-2.1,56.8,0.1c25.5,3,44.2,25.3,42.6,50.8c-0.3,4.9,2.6,9.5,7.1,11.4c0.6,0.3,1.9,0.5,3.5,0.5c4.1,0,8-1.8,9.5-3.5
	c16.6-18.3,46.9-20.7,66.1-5.3c14.7,11.8,28.2,25.4,40.1,40.5c15.6,19.7,13.3,48.5-5.3,65.5c-3.6,3.3-4.9,8.6-3,13.1
	c1.8,4.3,6.2,7.1,11.3,7.1c22.2,0,47,16,50,42.9c2.1,19.1,2.1,38.4-0.1,57.4c-2.9,24.4-23.4,42.7-47.8,42.7c-0.8,0-4.4-0.1-4.4-0.1
	c-3.9,0-8.3,3.1-10,7.1c-1.9,4.5-0.7,9.8,2.9,13.1c19,17.2,21.2,46.2,5.2,66.1c-12,14.9-25.7,28.5-40.8,40.4
	c-19.4,15-48.9,12.5-65.3-5.3c-2.7-3-9.9-4.5-13.2-3.2c-4.4,1.8-7.3,6.4-7.1,11.3c0.8,25.1-18,46.9-43,49.7
	C274.1,508.4,264.8,508.9,255.6,508.9z M173.3,430.9c3.1,0,6.1,0.6,8.7,1.6c9.8,4.1,16,14,15.4,24.6c-1.1,18.5,12.2,34.5,30.5,36.5
	c17.2,2.1,35.7,2.2,53.8,0.2c17.9-2,31.5-17.6,30.9-35.7c-0.3-10.6,5.9-20.4,15.6-24.4c8.7-3.6,21.9-0.5,28.3,6.6
	c11.8,12.8,33,14.6,47,3.8c14.3-11.2,27.3-24.1,38.6-38.2c11.5-14.3,9.9-35.1-3.7-47.5c-8-7.2-10.5-18.6-6.4-28.4
	c3.8-9,13.1-15.3,22.7-15.4c0.3,0,3.5,0.1,4.2,0.1c17.5,0,32.2-13.2,34.2-30.7c2.1-18,2.1-36.3,0.1-54.3
	c-2.2-19.3-20.2-30.8-36.4-30.8c-10.6,0-19.9-6.1-23.8-15.5c-4-9.8-1.4-21.1,6.4-28.3c13.4-12.2,15-32.9,3.8-47
	C432.1,94,419.3,81.1,405.4,70c-13.8-11.1-35.5-9.3-47.5,3.9c-6.2,6.9-19.9,9.9-28.3,6.4c-9.8-4.1-16-14.1-15.4-24.7
	c1.1-18.4-12.3-34.4-30.6-36.5c-17.8-2.1-36.2-2.1-53.7-0.1c-17.9,2-31.5,17.6-30.9,35.7c0.3,10.7-5.9,20.5-15.5,24.4
	c-8.7,3.6-22.1,0.4-28.3-6.5c-11.6-12.8-32.9-14.8-47.1-3.9c-14.3,11.2-27.3,24.1-38.6,38.2c-11.5,14.3-9.8,35.1,3.7,47.5
	c7.9,7.2,10.5,18.5,6.4,28.3c-4,9.5-14.2,15.4-26.7,15.4c-17.9,0-32.4,12.9-34.5,30.6c-2.1,17.8-2.1,36.1-0.1,54.4
	c2.2,20,21.1,30.7,37.8,30.7c9.6,0,18.6,6.3,22.5,15.7c4,9.6,1.4,21-6.5,28.2c-13.3,12.2-14.9,32.8-3.8,46.9
	c11.1,14.1,23.8,27,37.8,38.3c13.8,11,35.6,9.3,47.4-3.7C158.1,434,165.7,430.9,173.3,430.9z"/>
<path class="st2" d="M255.8,327.9c-39.5,0-71.6-32.1-71.6-71.6c0-39.5,32.1-71.6,71.6-71.6c39.4,0,71.6,32.1,71.6,71.6
	S295.3,327.9,255.8,327.9z M255.8,198.4c-32,0-58,26-58,58c0,32,26,58,58,58c32,0,57.9-26,57.9-58
	C313.8,224.4,287.8,198.4,255.8,198.4z"/>
</svg>
