<?xml version="1.0" encoding="utf-8"?>
<!-- Generator: Adobe Illustrator 22.0.0, SVG Export Plug-In . SVG Version: 6.00 Build 0)  -->
<svg version="1.1" id="Layer_1" xmlns="http://www.w3.org/2000/svg" xmlns:xlink="http://www.w3.org/1999/xlink" x="0px" y="0px"
	 viewBox="0 0 512 512" style="enable-background:new 0 0 512 512;" xml:space="preserve">
<style type="text/css">
	.st0{fill:#5E686C;}
	.st1{fill:#3FC6F1;}
</style>
<path class="st0" d="M441,395.9H71.1c-22.2,0-40.3-18-40.3-40.1V150.6c0-3.6,2.9-6.5,6.5-6.5s6.5,2.9,6.5,6.5v205.2
	c0,14.9,12.3,27.1,27.4,27.1H441c15.1,0,27.4-12.1,27.4-27.1V108.5c0-3.6,2.9-6.5,6.5-6.5s6.5,2.9,6.5,6.5v247.3
	C481.3,377.9,463.2,395.9,441,395.9z"/>
<path class="st1" d="M37.3,157.1c-3.6,0-6.5-2.9-6.5-6.5l0-58.6c0-40,8-85.9,70.7-85.9h73.9c25.8,0,34.2,11.1,41.5,21
	c7.4,9.9,13.8,18.4,40.1,18.4h184.3c18.2,0,40,8.1,40,46.5v20.4c0,3.6-2.9,6.5-6.5,6.5s-6.5-2.9-6.5-6.5V92
	c0-29.7-14.4-33.5-27-33.5H257.1c-32.9,0-42.7-13.1-50.5-23.6c-6.6-8.8-11.8-15.7-31.1-15.7h-73.9c-41,0-57.7,21.1-57.7,72.9l0,58.6
	C43.8,154.2,40.9,157.1,37.3,157.1L37.3,157.1L37.3,157.1z"/>
<path class="st0" d="M175.4,197.6h-73.9c-35.1,0-57.4-14.1-70.2-44.4c-0.3-0.8-0.5-1.7-0.5-2.5l0-1.3h13c0,0-0.2-0.4,0,0
	c10.8,24.7,28.2,35.2,57.7,35.2h73.9c19.3,0,24.5-6.9,31.1-15.6c7.9-10.4,17.6-23.4,50.5-23.4h184.3c12.6,0,27-3.8,27-33.2h13
	c0,38.1-21.7,46.1-40,46.1H257.1c-26.4,0-32.8,8.5-40.1,18.2C209.6,186.5,201.3,197.6,175.4,197.6z"/>
<path class="st0" d="M256.1,507.3c-14.3,0-26-11.7-26-26s11.6-26,26-26c14.3,0,26,11.7,26,26S270.4,507.3,256.1,507.3z M256.1,468.3
	c-7.2,0-13,5.8-13,13s5.8,13,13,13c7.2,0,13-5.8,13-13S263.2,468.3,256.1,468.3z"/>
<path class="st0" d="M256.1,468.3c-3.6,0-6.5-2.9-6.5-6.5v-38.9c0-3.6,2.9-6.5,6.5-6.5c3.6,0,6.5,2.9,6.5,6.5v38.9
	C262.6,465.4,259.7,468.3,256.1,468.3z"/>
<path class="st0" d="M236.6,487.8H128c-3.6,0-6.5-2.9-6.5-6.5s2.9-6.5,6.5-6.5h108.6c3.6,0,6.5,2.9,6.5,6.5S240.2,487.8,236.6,487.8
	z"/>
<path class="st0" d="M384.2,487.8H275.5c-3.6,0-6.5-2.9-6.5-6.5s2.9-6.5,6.5-6.5h108.6c3.6,0,6.5,2.9,6.5,6.5
	S387.8,487.8,384.2,487.8z"/>
</svg>
