<?xml version="1.0" encoding="utf-8"?>
<!-- Generator: Adobe Illustrator 22.0.0, SVG Export Plug-In . SVG Version: 6.00 Build 0)  -->
<svg version="1.1" id="Layer_1" xmlns="http://www.w3.org/2000/svg" xmlns:xlink="http://www.w3.org/1999/xlink" x="0px" y="0px"
	 viewBox="0 0 512 512" style="enable-background:new 0 0 512 512;" xml:space="preserve">
<style type="text/css">
	.st0{fill:#5E686B;}
	.st1{fill:#3FC6F1;}
</style>
<path class="st0" d="M508.9,249.7L475.3,149c-0.8-2.3-2.9-3.8-5.3-3.8H347V91.7c0-3.1-2.5-5.6-5.6-5.6H61.5c-3.1,0-5.6,2.5-5.6,5.6
	c0,0,0,0,0,0.1s0,0,0,0.1v62.1c0,3.1,2.5,5.6,5.6,5.6s5.6-2.5,5.6-5.6V97.3h268.8v53.4c0,3.1,2.5,5.6,5.6,5.6H466l32,96.1v113.8
	h-37.6c-1,0-2,0.3-2.8,0.8c-1.7-29.2-26-52.5-55.6-52.5c-29.7,0-54,23.4-55.6,52.6c-0.9-0.5-1.9-0.9-3-0.9H224.8c-1,0-2,0.3-2.8,0.8
	c-1.7-29.2-26-52.5-55.6-52.5c-29.7,0-54.1,23.4-55.6,52.8c-0.9-0.6-2-1-3.2-1H67.1v-89.2c0-3.1-2.5-5.6-5.6-5.6s-5.6,2.5-5.6,5.6
	v94.8c0,3.1,2.5,5.6,5.6,5.6h46.1c1.3,0,2.5-0.4,3.4-1.2c3,27.9,26.7,49.7,55.4,49.7c28.6,0,52.2-21.7,55.4-49.4
	c0.9,0.6,1.9,0.9,3.1,0.9h118.5c1.2,0,2.3-0.4,3.2-1c3.1,27.8,26.7,49.6,55.4,49.6c28.6,0,52.2-21.7,55.4-49.4
	c0.9,0.6,1.9,0.9,3.1,0.9h43.2c3.1,0,5.6-2.5,5.6-5.6V251.5C509.1,250.9,509,250.3,508.9,249.7z M166.4,414.7
	c-24.6,0-44.6-20-44.6-44.6c0-24.6,20-44.6,44.6-44.6c24.6,0,44.6,20,44.6,44.6S191,414.7,166.4,414.7z M402,414.7
	c-24.6,0-44.6-20-44.6-44.6c0-24.6,20-44.6,44.6-44.6c24.6,0,44.6,20,44.6,44.6C446.6,394.7,426.6,414.7,402,414.7z"/>
<path class="st1" d="M474.1,261.8c0.1,0,0.2,0,0.2,0c3.1,0,5.6-2.5,5.6-5.6c0-1.2-0.4-2.2-1-3.1l-24.8-74.6
	c-0.8-2.3-2.9-3.8-5.3-3.8H341.4c-3.1,0-5.6,2.5-5.6,5.6v76c0,3.1,2.5,5.6,5.6,5.6H474.1z M347,185.8h97.7l21.6,64.9H347V185.8z"/>
<path class="st1" d="M117.5,199.9c0-3.1-2.5-5.6-5.6-5.6H8.8c-3.1,0-5.6,2.5-5.6,5.6c0,3.1,2.5,5.6,5.6,5.6h103.1
	C115,205.4,117.5,203,117.5,199.9z"/>
<path class="st1" d="M117.5,230.7c0-3.1-2.5-5.6-5.6-5.6H23.6c-3.1,0-5.6,2.5-5.6,5.6s2.5,5.6,5.6,5.6h88.4
	C115,236.2,117.5,233.7,117.5,230.7z"/>
</svg>
