<?xml version="1.0" encoding="utf-8"?>
<!-- Generator: Adobe Illustrator 22.0.0, SVG Export Plug-In . SVG Version: 6.00 Build 0)  -->
<svg version="1.1" id="Layer_1" xmlns="http://www.w3.org/2000/svg" xmlns:xlink="http://www.w3.org/1999/xlink" x="0px" y="0px"
	 viewBox="0 0 512 512" style="enable-background:new 0 0 512 512;" xml:space="preserve">
<style type="text/css">
	.st0{fill:#3FC6F1;}
	.st1{fill:#5E686C;}
</style>
<path class="st0" d="M319.9,138.5c-3.7,0-6.8-3-6.8-6.8V36c0-8.9-25.6-18.9-59.8-18.9c-15.5,0-29.5,2.1-39.6,5.8
	c-6.6,2.5-14.4,6.7-14.4,13.1v95.7c0,3.7-3,6.8-6.8,6.8s-6.8-3-6.8-6.8V36c0-7.8,4-18.6,23.2-25.8c11.5-4.3,27.3-6.7,44.3-6.7
	c35.3,0,73.3,10.1,73.3,32.4v95.7C326.6,135.5,323.6,138.5,319.9,138.5z"/>
<path class="st1" d="M436.4,508.5H76c-3.7,0-6.8-3-6.8-6.8v-370c0-3.7,3-6.8,6.8-6.8h360.3c3.7,0,6.8,3,6.8,6.8v370
	C443.1,505.5,440.1,508.5,436.4,508.5z M82.8,495h346.8V138.5H82.8V495z"/>
</svg>
