<?xml version="1.0" encoding="utf-8"?>
<!-- Generator: Adobe Illustrator 22.0.0, SVG Export Plug-In . SVG Version: 6.00 Build 0)  -->
<svg version="1.1" id="Layer_1" xmlns="http://www.w3.org/2000/svg" xmlns:xlink="http://www.w3.org/1999/xlink" x="0px" y="0px"
	 viewBox="0 0 512 512" style="enable-background:new 0 0 512 512;" xml:space="preserve">
<style type="text/css">
	.st0{fill:#5E686B;}
	.st1{fill:#3FC6F1;}
</style>
<path class="st0" d="M256,506.1c-137.7,0-249.7-112-249.7-249.7c0-127.6,95.5-234.3,222.1-248.2c3.6-0.5,7,2.3,7.4,6
	c0.4,3.7-2.3,7-6,7.4C110.1,34.7,19.8,135.7,19.8,256.4c0,130.3,106,236.3,236.3,236.3c130.3,0,236.3-106,236.3-236.3
	c0-120.7-90.3-221.7-210.1-234.9c-3.7-0.4-6.4-3.7-6-7.4c0.4-3.7,3.8-6.4,7.4-6c126.6,13.9,222.1,120.7,222.1,248.2
	C505.8,394.1,393.7,506.1,256,506.1z"/>
<path class="st1" d="M373.1,364.5c-3.7,0-6.7-3-6.7-6.7c0-111.2-83.9-195.1-195-195.1c-3.7,0-6.7-3-6.7-6.7s3-6.7,6.7-6.7
	c118.9,0,208.5,89.6,208.5,208.5C379.9,361.5,376.8,364.5,373.1,364.5z M294.9,364.5c-3.7,0-6.7-3-6.7-6.7
	c0-73-44.8-118.3-116.8-118.3c-3.7,0-6.7-3-6.7-6.7s3-6.7,6.7-6.7c79.1,0,130.3,51.7,130.3,131.7
	C301.6,361.5,298.6,364.5,294.9,364.5z M194.4,363.2c-16.5,0-29.9-13.5-29.9-30.1c0-16.6,13.4-30.2,29.9-30.2
	c16.5,0,29.9,13.5,29.9,30.1C224.4,349.7,211,363.2,194.4,363.2z M194.4,316.4c-9,0-16.4,7.5-16.4,16.7c0,9.2,7.4,16.6,16.4,16.6
	c9.1,0,16.5-7.5,16.5-16.6C210.9,323.9,203.5,316.4,194.4,316.4z"/>
</svg>
