<?xml version="1.0" encoding="utf-8"?>
<!-- Generator: Adobe Illustrator 22.0.0, SVG Export Plug-In . SVG Version: 6.00 Build 0)  -->
<svg version="1.1" id="Layer_1" xmlns="http://www.w3.org/2000/svg" xmlns:xlink="http://www.w3.org/1999/xlink" x="0px" y="0px"
	 viewBox="0 0 512 512" style="enable-background:new 0 0 512 512;" xml:space="preserve">
<style type="text/css">
	.st0{fill:#5E686B;}
	.st1{fill:#3FC6F1;}
</style>
<path class="st0" d="M153,264.6c-30.8,0-55.9-25.1-55.9-55.9c0-30.8,25.1-55.9,55.9-55.9c30.8,0,55.9,25.1,55.9,55.9
	C208.8,239.6,183.8,264.6,153,264.6z M153,166.8c-23.1,0-41.9,18.8-41.9,41.9s18.8,41.9,41.9,41.9c23.1,0,41.9-18.8,41.9-41.9
	S176.1,166.8,153,166.8z"/>
<path class="st0" d="M360.8,264.6c-30.8,0-55.9-25.1-55.9-55.9c0-30.8,25.1-55.9,55.9-55.9s55.9,25.1,55.9,55.9
	C416.7,239.6,391.6,264.6,360.8,264.6z M360.8,166.8c-23.1,0-41.9,18.8-41.9,41.9s18.8,41.9,41.9,41.9c23.1,0,41.9-18.8,41.9-41.9
	C402.7,185.6,383.9,166.8,360.8,166.8z"/>
<path class="st1" d="M256.9,411.6c-40.2,0-78.8-20.8-108.7-58.5c-2.4-3-1.9-7.4,1.1-9.8c3-2.4,7.4-1.8,9.8,1.1
	c27.1,34.3,61.9,53.3,97.7,53.3c35.9,0,70.5-18.9,97.7-53.2c2.4-3,6.8-3.5,9.8-1.1c3,2.4,3.5,6.8,1.1,9.8
	C335.7,390.9,297.1,411.6,256.9,411.6z"/>
<path class="st0" d="M229,507.6c-0.3,0-0.5,0-0.8,0C101.2,493.1,5.4,385.7,5.4,257.7C5.4,119,118.2,6.2,256.9,6.2
	c138.7,0,251.5,112.8,251.5,251.5c0,128-95.8,235.4-222.8,249.9c-3.8,0.3-7.3-2.3-7.7-6.2c-0.4-3.8,2.3-7.3,6.2-7.7
	C404,480,494.4,378.6,494.4,257.7c0-131-106.6-237.5-237.5-237.5c-131,0-237.5,106.6-237.5,237.5c0,120.9,90.5,222.4,210.4,236
	c3.8,0.4,6.6,3.9,6.2,7.7C235.5,505,232.5,507.6,229,507.6z"/>
</svg>
