<?xml version="1.0" encoding="utf-8"?>
<!-- Generator: Adobe Illustrator 22.0.0, SVG Export Plug-In . SVG Version: 6.00 Build 0)  -->
<svg version="1.1" id="Layer_1" xmlns="http://www.w3.org/2000/svg" xmlns:xlink="http://www.w3.org/1999/xlink" x="0px" y="0px"
	 viewBox="0 0 512 512" style="enable-background:new 0 0 512 512;" xml:space="preserve">
<style type="text/css">
	.st0{fill:#5E686B;}
	.st1{fill:#3FC6F1;}
</style>
<path class="st0" d="M254.8,495.4c-22.1,0-43.8-8-64.3-23.8c-35.4-26.9-67.2-32.8-105.5-20.1c-2,0.7-4.2,0.3-5.9-0.9
	c-1.7-1.3-2.7-3.2-2.7-5.4c0.2-26.4-14.4-29.8-34.8-34.4c-12.9-2.9-27.5-6.2-38.2-16.8c-1.6-1.6-2.3-4-1.8-6.2
	c0.6-2.2,2.2-4,4.5-4.7c46.5-14.1,79.7-41.5,101.4-83.5c7.2-14,9.3-23.7,6.8-30.4c-2.6-7-10.7-13-26.4-19.4c-7.9-3.3-15.6-7-23-10.7
	c-3.3-1.7-6.7-3.3-10.1-4.9c-2.9-1.4-4.3-4.6-3.5-7.7c1-3.6,2-7.2,3.1-10.6c1-3,4.1-4.9,7.2-4.4l11.4,1.5c7.5,1,15,2,22.3,3.2
	c4.5,0.8,8.2,1.2,11.2,1.2c6.9,0,8.9-2.1,9.5-2.8c2.6-2.8,3.6-8.9,3-18.3l-0.2-2.6c-0.9-12.9-1.8-25.8-2.4-38.7
	c-2.6-57.4,20.5-100.1,66.9-123.5c15.3-8.8,43.7-14.4,73.8-14.4c17.1,0,48.9,1.9,69.1,14.7c45.9,23.1,69,65.9,66.4,123.2
	c-0.6,13.8-1.6,27.6-2.5,41.4c-0.6,9.3,0.4,15.5,3,18.2c0.6,0.7,2.6,2.8,9.5,2.8c3.1,0,6.8-0.4,11.2-1.2c7.4-1.3,14.9-2.3,22.3-3.2
	l11.4-1.5c3.1-0.5,6.1,1.4,7.1,4.4c1.1,3.4,2.1,7,3.1,10.6c0.8,3.1-0.6,6.3-3.5,7.7c-3.3,1.6-6.6,3.2-9.9,4.8
	c-7.5,3.7-15.2,7.5-23.2,10.8c-15.6,6.4-23.8,12.3-26.4,19.4c-2.5,6.8-0.3,16.5,6.8,30.5c21.7,42,54.9,69.3,101.4,83.4
	c2.2,0.7,3.9,2.5,4.5,4.7c0.6,2.2-0.1,4.6-1.8,6.2c-10.7,10.6-25.3,13.9-38.2,16.8c-20.3,4.6-35,7.9-34.8,34.4c0,2.1-1,4.1-2.7,5.4
	c-1.7,1.2-3.9,1.6-5.9,0.9c-38.1-12.6-70.2-6.6-105.5,20.2C298.5,487.3,276.9,495.4,254.8,495.4z M121.2,432.1
	c26.2,0,51.5,9.5,77.3,29.1c36.5,28,76.2,28,112.7,0c35.9-27.3,70.6-35.1,109.4-24.7c3.3-29.2,25.1-34.1,44.6-38.6
	c7.9-1.8,15.5-3.5,22-6.6c-43.5-16.2-75.3-44.3-96.7-85.8c-9.1-17.8-11.4-30.5-7.5-41.1c4-10.9,14.1-19,33.7-26.9
	c7.6-3.1,15.1-6.8,22.3-10.4c1.2-0.6,2.4-1.2,3.6-1.8l-4.4,0.6c-7.3,1-14.6,1.9-21.7,3.1c-16.3,3-26.2,1.3-32.6-5.5
	c-5.4-5.8-7.4-14.4-6.5-28.1c0.9-13.7,1.9-27.4,2.5-41.1c2.4-52.6-17.7-90-59.8-111.2c-13.3-8.4-35.9-13-62.6-13
	c-27.5,0-54.1,5-67.6,12.8c-42.3,21.4-62.4,58.8-60.1,111.4c0.6,12.8,1.5,25.6,2.3,38.4l0.2,2.7c0.9,13.7-1.1,22.4-6.5,28.1
	c-6.4,6.8-16,8.6-32.7,5.5c-7.1-1.2-14.4-2.2-21.7-3.1l-4.3-0.6c1.3,0.6,2.6,1.3,3.8,1.9c7.5,3.7,14.6,7.3,22.1,10.3
	c19.6,8,29.7,16,33.7,27c3.9,10.6,1.7,23.3-7.4,41C97.8,347,66,375.2,22.5,391.3c6.5,3.1,14.1,4.8,22,6.6
	c19.5,4.4,41.3,9.4,44.6,38.6C100.1,433.6,110.8,432.1,121.2,432.1z"/>
<path class="st1" d="M169.5,123.4c-0.3,0-0.5,0-0.8-0.1c-3.6-0.4-6.1-3.7-5.7-7.3c0.1-1.3,4-30.9,36.9-48.6c3.2-1.7,7.2-0.5,8.9,2.7
	c1.7,3.2,0.5,7.2-2.7,8.9c-26.7,14.4-30,37.7-30.2,38.7C175.5,121,172.7,123.4,169.5,123.4z"/>
<path class="st1" d="M169.5,187.9c-3.6,0-6.6-2.9-6.6-6.6v-32.2c0-3.6,2.9-6.6,6.6-6.6s6.6,2.9,6.6,6.6v32.2
	C176,185,173.1,187.9,169.5,187.9z"/>
</svg>
