<?xml version="1.0" encoding="utf-8"?>
<!-- Generator: Adobe Illustrator 22.0.0, SVG Export Plug-In . SVG Version: 6.00 Build 0)  -->
<svg version="1.1" id="Layer_1" xmlns="http://www.w3.org/2000/svg" xmlns:xlink="http://www.w3.org/1999/xlink" x="0px" y="0px"
	 viewBox="0 0 512 512" style="enable-background:new 0 0 512 512;" xml:space="preserve">
<style type="text/css">
	.st0{fill:#3FC6F1;}
	.st1{fill:#5E686B;}
</style>
<path class="st0" d="M102.3,63.7c-3.8,0-6.9,3.1-6.9,6.9v385.2H10.1c-3.8,0-6.9,3.1-6.9,6.9c0,3.8,3.1,6.9,6.9,6.9h92.2
	c3.8,0,6.9-3.1,6.9-6.9v-392C109.2,66.8,106.1,63.7,102.3,63.7z"/>
<path class="st1" d="M505.7,295.7l-43.4-32.5V139.8c0-29.2-23.8-53-53-53h-46.1C245,86.8,148.9,183,148.9,301.2V428
	c0,3.8,3.1,6.9,6.9,6.9h52.1c13.5,20.5,36.8,34.1,63.2,34.1c26.4,0,49.6-13.6,63.2-34.1h52.3c6,19.7,24.4,34.1,46,34.1
	s40-14.4,46-34.1h23.1c3.8,0,6.9-3.1,6.9-6.9V301.2C508.5,299,507.5,297,505.7,295.7z M271,455.3c-34.1,0-61.8-27.7-61.8-61.8
	c0-34.1,27.7-61.8,61.8-61.8c34.1,0,61.8,27.7,61.8,61.8C332.9,427.5,305.1,455.3,271,455.3z M432.5,455.3
	c-18.9,0-34.4-15.4-34.4-34.3c0-19,15.4-34.4,34.4-34.4c18.9,0,34.4,15.4,34.4,34.4C466.8,439.9,451.4,455.3,432.5,455.3z
	 M494.8,421.2h-14.2c0-0.1,0-0.1,0-0.2c0-26.5-21.6-48.1-48.1-48.1c-26.5,0-48.1,21.6-48.1,48.1c0,0.1,0,0.1,0,0.2h-43
	c3.4-8.6,5.3-17.9,5.3-27.7c0-41.7-33.9-75.6-75.6-75.6c-41.7,0-75.6,33.9-75.6,75.6c0,9.8,1.9,19.1,5.3,27.7h-38.1v-120
	c0-110.7,90-200.7,200.7-200.7h46.1c21.6,0,39.3,17.6,39.3,39.3v126.9c0,2.2,1,4.2,2.8,5.5l43.4,32.5L494.8,421.2L494.8,421.2z"/>
</svg>
