<?xml version="1.0" encoding="utf-8"?>
<!-- Generator: Adobe Illustrator 22.0.0, SVG Export Plug-In . SVG Version: 6.00 Build 0)  -->
<svg version="1.1" id="Layer_1" xmlns="http://www.w3.org/2000/svg" xmlns:xlink="http://www.w3.org/1999/xlink" x="0px" y="0px"
	 viewBox="0 0 512 512" style="enable-background:new 0 0 512 512;" xml:space="preserve">
<style type="text/css">
	.st0{fill:#3FC6F1;}
	.st1{fill:#5E686C;}
</style>
<path class="st0" d="M123.2,310.3c-2.9,0-5.5-1.8-6.5-4.7c-10.8-32.4-19.2-41.3-24.3-43.1c-4.6-1.6-10.2,1.8-18.9,7.5
	c-15.5,10.3-39,25.9-69.4-9.6c-1.1-1.2-1.6-2.8-1.6-4.5V123.2c0-3.8,3.1-6.9,6.9-6.9h149.2c23.9-21.5,15.2-34.6,5.2-49.8
	c-6.4-9.6-12.9-19.5-9-30.9c4.3-12.4,19.7-22.2,51.7-32.8c1.4-0.5,2.9-0.5,4.3,0c32,10.7,47.4,20.5,51.7,32.8
	c3.9,11.4-2.6,21.3-9,30.9c-10,15.1-18.7,28.3,5.2,49.8h130.2c3.8,0,6.9,3.1,6.9,6.9s-3.1,6.9-6.9,6.9H256c-1.6,0-3.2-0.6-4.5-1.7
	C216.1,98,231.7,74.5,242,59c5.7-8.6,9.1-14.2,7.5-18.9c-1.7-5-10.3-13.1-40.9-23.5c-30.6,10.4-39.2,18.5-40.9,23.6
	c-1.6,4.6,1.8,10.2,7.5,18.9c10.3,15.5,25.8,39-9.5,69.4c-1.2,1.1-2.8,1.7-4.5,1.7H16.2v123.4c21.5,23.9,34.6,15.2,49.8,5.2
	c9.6-6.3,19.5-12.9,30.9-9c12.3,4.3,22.2,19.7,32.8,51.7c1.2,3.6-0.7,7.5-4.3,8.7C124.6,310.2,123.9,310.3,123.2,310.3z"/>
<path class="st1" d="M388.8,509.5H256c-1.6,0-3.2-0.6-4.5-1.6c-35.4-30.4-19.8-53.8-9.6-69.4c5.7-8.7,9.1-14.2,7.5-18.9
	c-1.7-5-10.3-13.1-40.9-23.5c-30.6,10.4-39.2,18.5-40.9,23.6c-1.6,4.6,1.8,10.2,7.5,18.9c10.3,15.5,25.8,39-9.6,69.4
	c-1.2,1.1-2.8,1.6-4.5,1.6H9.4c-3.8,0-6.9-3.1-6.9-6.9V350.9c0-1.6,0.6-3.2,1.6-4.5c30.3-35.4,53.8-19.9,69.4-9.6
	c8.6,5.7,14.2,9,18.9,7.5c5-1.7,13.1-10.3,23.5-40.9l13.7,2.2c-10.6,32-20.5,47.4-32.8,51.7c-11.4,3.9-21.3-2.6-30.9-9
	c-15.1-10-28.3-18.7-49.8,5.2v142.3h142.3c23.9-21.5,15.2-34.6,5.2-49.8c-6.4-9.6-12.9-19.5-9-30.9c4.3-12.4,19.7-22.2,51.7-32.8
	c1.4-0.5,2.9-0.5,4.3,0c31.9,10.6,47.4,20.5,51.7,32.8c3.9,11.4-2.6,21.3-9,30.9c-10,15.2-18.7,28.3,5.2,49.8h123.4V350.9
	c0-1.6,0.6-3.2,1.6-4.5c30.4-35.4,53.9-19.9,69.4-9.6c8.6,5.7,14.2,9,18.9,7.5c5-1.7,13.1-10.3,23.5-40.9
	c-10.4-30.6-18.5-39.2-23.5-40.9c-4.7-1.6-10.2,1.8-18.9,7.5c-15.6,10.3-39.1,25.8-69.4-9.6c-1.1-1.2-1.7-2.8-1.7-4.5V116.3
	c0,0,3.1,0,6.9,0s6.9,3.1,6.9,6.9v130.2c21.5,23.9,34.6,15.2,49.8,5.2c9.6-6.3,19.5-12.9,30.9-9c12.3,4.3,22.2,19.7,32.8,51.7
	c0.5,1.4,0.5,2.9,0,4.3c-10.6,31.9-20.5,47.4-32.8,51.7c-11.4,3.9-21.3-2.6-30.9-9c-15.2-10-28.3-18.7-49.8,5.2v149.2
	C395.6,506.4,392.6,509.5,388.8,509.5z"/>
</svg>
