<?xml version="1.0" encoding="utf-8"?>
<!-- Generator: Adobe Illustrator 22.0.0, SVG Export Plug-In . SVG Version: 6.00 Build 0)  -->
<svg version="1.1" id="Layer_1" xmlns="http://www.w3.org/2000/svg" xmlns:xlink="http://www.w3.org/1999/xlink" x="0px" y="0px"
	 viewBox="0 0 512 512" style="enable-background:new 0 0 512 512;" xml:space="preserve">
<style type="text/css">
	.st0{fill:#5E686C;}
	.st1{fill:#3FC6F1;}
</style>
<path class="st0" d="M131.1,462.5c-7.2,0-13.1-5.7-13.4-12.9c0-1.1,0.2-2.3,0.7-3.3l20.9-43.3c-7.4-6.6-14.3-13.8-20.5-21.5
	l-78.1,26.9c-1.4,0.5-3,0.5-4.5,0c-6.9-2.3-10.8-9.9-8.6-16.8c0.4-1.1,1-2.1,1.8-2.9l60.7-58.6c-6.8-19-10.2-38.8-10.2-59.1
	c0-11,1.1-22.2,3.2-33.3l-51.3-23.2c-1.4-0.6-2.5-1.7-3.3-3.1c-3.5-6.4-1.1-14.6,5.3-18.2c1-0.6,2.2-0.9,3.3-0.9l57.5-0.7L32,122.2
	c-1-1.1-1.6-2.5-1.8-4c-0.4-3.6,0.7-7.1,3-9.9c2.3-2.8,5.5-4.5,9.1-4.8c1.1-0.1,2.3,0.1,3.4,0.5l90.1,38
	c12.7-11.9,27-21.8,42.6-29.5L174,89.2c-0.3-1.5-0.1-3,0.6-4.3c1.6-3.2,4.3-5.6,7.7-6.8c3.4-1.2,7-0.9,10.3,0.6
	c1,0.5,1.9,1.3,2.6,2.2l14.1,20c0.3-0.1,0.6-0.2,0.9-0.2l4.5-90c0.1-1.5,0.6-2.9,1.6-4.1c2.3-2.8,5.5-4.5,9.1-4.9
	c3.5-0.4,7.1,0.8,9.8,3.1c0.9,0.7,1.6,1.7,2,2.7l37,92.1c1.4,3.6-0.3,7.6-3.9,9.1c-3.6,1.4-7.6-0.3-9.1-3.9l-33.1-82.4l-4.3,84.1
	c-0.2,3.1-2.3,5.7-5.4,6.4c-3.4,0.8-6.8,1.7-10.1,2.7c-2.9,0.9-6-0.2-7.7-2.7l-11-15.6l3.3,17.9c0.6,3.2-1.1,6.3-4,7.6
	c-17.4,7.9-33.2,18.7-46.9,32.2c-2,2-5,2.6-7.6,1.5l-84.9-35.8l61.3,67.8c1.9,2.2,2.4,5.3,1,7.9c-1,1.9-1.7,3.4-2.4,4.9
	c-1.1,2.4-3.6,4-6.2,4l-55.9,0.6L94,227.2c3,1.4,4.6,4.7,3.9,7.9c-2.7,11.9-4,24-4,35.8c0,20.2,3.7,39.8,10.9,58.5
	c1,2.6,0.4,5.6-1.7,7.5l-56.7,54.7l72.5-24.9c2.8-1,6,0,7.8,2.4c7.5,9.9,16,18.9,25.5,26.8c2.5,2,3.2,5.5,1.8,8.4l-18.8,38.9
	l35.2-28.8c2.2-1.8,5.2-2.1,7.7-0.7c3.9,2.1,7.9,4,11.9,5.8l19.9,7.3c14.2,4.1,29.3,6.3,44.4,6.4c3.9,0,7,3.1,7,7
	c0,3.8-3.1,6.9-7,6.9c0,0,0,0,0,0c-16.4-0.1-32.8-2.4-48.7-7.1l-20.8-7.6c-3.2-1.4-6.2-2.8-9.1-4.3l-40.1,32.9
	c-1.2,1-2.7,1.5-4.2,1.6C131.4,462.5,131.2,462.5,131.1,462.5z"/>
<path class="st1" d="M282.2,507.5c-3.1,0-6.1-1.1-8.6-3.1c-0.9-0.7-1.5-1.7-2-2.7l-22-54.7l11.2-9.5l19.8,49.3l2.6-50.9
	c0.2-3.1,2.4-5.8,5.5-6.5c7.7-1.6,15.2-3.9,22.4-6.6c2.9-1.1,6.3-0.1,8.2,2.5l4.5,6.4l-1.5-8c-0.6-3.1,1-6.1,3.8-7.5
	c19.3-9.6,36.4-22.9,50.6-39.5c2-2.3,5.2-3.1,8-1.9l79.3,33.5l-59.9-66.2c-1.8-2-2.3-4.9-1.3-7.4c0.9-2.2,1.7-4.3,2.6-6.5
	c1-2.7,3.6-4.4,6.4-4.5l54.2-0.7l-47.9-21.7c-2.8-1.3-4.5-4.3-4-7.4c1.1-7.8,1.7-15.6,1.7-23.2c0-6.4-0.4-13-1.3-20.1
	c-0.3-2.7,0.9-5.3,3.2-6.7l35.4-22.3l-37.4,4.7c-3.3,0.4-6.5-1.6-7.5-4.8c-1.7-5.2-3.6-10.4-5.8-15.4c-1.2-2.7-0.5-5.8,1.6-7.8
	l63.1-60.9l-83.5,28.7c-2.7,0.9-5.7,0.1-7.5-2c-6.1-7.1-12.9-13.7-20.2-19.6c-2.5-2-3.3-5.5-1.9-8.4l24.2-50.1l-46.1,37.8
	c-2.1,1.7-5,2-7.5,0.9c-18.1-8.8-37.4-14-57.6-15.5l5.4-13.5c18.8,1.9,37,6.7,54.2,14.5l51.2-41.9c1.2-1,2.6-1.5,4.1-1.6
	c7.3-0.3,13.6,5.4,14,12.8c0.1,1.2-0.2,2.3-0.7,3.3l-26.3,54.5c5.1,4.4,10,9.2,14.6,14.2l89.4-30.7c1.4-0.5,3-0.5,4.4,0
	c3.4,1.1,6.2,3.5,7.8,6.7c1.6,3.2,1.9,6.8,0.8,10.2c-0.4,1.1-1,2.1-1.8,2.9l-66.9,64.6c0.9,2.2,1.7,4.4,2.5,6.7l42.5-5.3
	c1.5-0.2,3,0.1,4.3,0.9c6.4,3.7,8.6,11.9,5,18.3c-0.6,1-1.4,1.9-2.4,2.5L429,253.6c0.6,6,0.9,11.7,0.9,17.3c0,6.6-0.4,13.3-1.2,20
	l53,24.1c1.4,0.6,2.5,1.7,3.2,3c1.7,3.2,2.1,6.8,1.1,10.3c-1,3.4-3.3,6.2-6.4,7.9c-1,0.5-2.1,0.8-3.2,0.8l-57.5,0.7l62.8,69.4
	c1,1.1,1.6,2.5,1.8,4c0.3,3.6-0.8,7.1-3.1,9.9c-2.3,2.7-5.5,4.4-9,4.7c-1.1,0.1-2.3-0.1-3.3-0.5L384,389.7
	c-13.5,14.9-29.3,27.2-46.9,36.7l2.5,13.8c0.3,1.5,0.1,3-0.6,4.3c-3.2,6.6-11.3,9.4-17.9,6.1c-1.1-0.5-2-1.3-2.6-2.2l-7.5-10.6
	c-4.6,1.6-9.3,2.9-14,4.1l-2.9,56.7c-0.1,1.5-0.6,2.9-1.6,4.1c-2.3,2.8-5.5,4.5-9.1,4.8C283,507.5,282.6,507.5,282.2,507.5z"/>
</svg>
