<?xml version="1.0" encoding="utf-8"?>
<!-- Generator: Adobe Illustrator 22.0.0, SVG Export Plug-In . SVG Version: 6.00 Build 0)  -->
<svg version="1.1" id="Layer_1" xmlns="http://www.w3.org/2000/svg" xmlns:xlink="http://www.w3.org/1999/xlink" x="0px" y="0px"
	 viewBox="0 0 512 512" style="enable-background:new 0 0 512 512;" xml:space="preserve">
<style type="text/css">
	.st0{fill:#5E686C;}
	.st1{fill:#3FC6F1;}
</style>
<path class="st0" d="M228.3,236.7c-1.7,0-3.3-0.6-4.6-1.9L77.3,91.3c-2.6-2.5-2.6-6.7-0.1-9.3c2.5-2.6,6.7-2.6,9.3-0.1l146.4,143.5
	c2.6,2.5,2.6,6.7,0.1,9.3C231.7,236.1,230,236.7,228.3,236.7z"/>
<path class="st0" d="M433,437.4c-1.7,0-3.3-0.6-4.6-1.9L280.1,290.1c-2.6-2.5-2.6-6.7-0.1-9.3c2.6-2.6,6.7-2.6,9.3-0.1l148.3,145.4
	c2.6,2.5,2.6,6.7,0.1,9.3C436.4,436.7,434.7,437.4,433,437.4z"/>
<path class="st0" d="M285.2,235.9c-1.7,0-3.4-0.6-4.7-1.9c-2.6-2.6-2.6-6.7,0-9.3L427.2,77.9c2.6-2.6,6.7-2.6,9.3,0s2.6,6.7,0,9.3
	L289.9,233.9C288.6,235.2,286.9,235.9,285.2,235.9z"/>
<path class="st0" d="M87,434c-1.7,0-3.4-0.6-4.7-1.9c-2.6-2.6-2.6-6.7,0-9.3l141.2-141.2c2.6-2.6,6.7-2.6,9.3,0
	c2.6,2.6,2.6,6.7,0,9.3L91.7,432.1C90.4,433.4,88.7,434,87,434z"/>
<path class="st0" d="M53.9,426.1c-3.6,0-6.6-2.9-6.6-6.6V95.3c0-3.6,2.9-6.6,6.6-6.6c3.6,0,6.6,2.9,6.6,6.6v324.2
	C60.5,423.1,57.6,426.1,53.9,426.1z"/>
<path class="st0" d="M421.4,61.4H93.6c-3.6,0-6.6-2.9-6.6-6.6c0-3.6,2.9-6.6,6.6-6.6h327.8c3.6,0,6.6,2.9,6.6,6.6
	S425,61.4,421.4,61.4z"/>
<path class="st0" d="M460.9,425.9c-3.6,0-6.6-2.9-6.6-6.6V95.5c0-3.6,2.9-6.6,6.6-6.6c3.6,0,6.6,2.9,6.6,6.6v323.9
	C467.4,423,464.5,425.9,460.9,425.9z"/>
<path class="st0" d="M421.4,465.4H93.5c-3.6,0-6.6-2.9-6.6-6.6s2.9-6.6,6.6-6.6h327.9c3.6,0,6.6,2.9,6.6,6.6S425,465.4,421.4,465.4z
	"/>
<path class="st0" d="M54.6,101.9C29.7,101.9,7.9,80,7.9,55.1c0-25.5,20.5-45.4,46.8-45.4c6.6,0,13.1,1.6,19.6,4.8
	C90.9,22.9,100,37.8,100,56.5C100,81.5,79.7,101.9,54.6,101.9z M54.6,22.9C35.8,22.9,21,37,21,55.1C21,73,36.7,88.7,54.6,88.7
	c17.8,0,32.2-14.5,32.2-32.2c0-13.6-6.4-24.1-18.5-30.1C63.7,24,59.1,22.9,54.6,22.9z"/>
<path class="st1" d="M257.4,302.9c-25.4,0-46.1-20.7-46.1-46.1c0-25.4,20.7-46.1,46.1-46.1c25,0,46.1,21.1,46.1,46.1
	c0,19.5-11.7,36.3-29.7,42.9C269,301.3,264,302.9,257.4,302.9z M257.4,223.9c-18.2,0-32.9,14.8-32.9,32.9
	c0,18.1,14.8,32.9,32.9,32.9c4.5,0,8-1.1,11.9-2.4c12.9-4.7,21-16.4,21-30.5C290.3,239.3,274.9,223.9,257.4,223.9z"/>
<path class="st1" d="M460.8,101.2c-25.4,0-46.1-20.7-46.1-46.1c0-25.4,20.7-46.1,46.1-46.1c12.9,0,26.2,6.3,34.7,16.5
	c7.6,9.5,11.4,19.4,11.4,29.6C506.9,80.5,486.3,101.2,460.8,101.2z M460.8,22.2c-18.1,0-32.9,14.8-32.9,32.9
	c0,18.2,14.8,32.9,32.9,32.9c18.2,0,32.9-14.8,32.9-32.9c0-7.2-2.8-14.2-8.4-21.3C479.4,26.7,470,22.2,460.8,22.2z"/>
<path class="st1" d="M50.1,505.1c-8.7,0-17.1-3.3-25.6-10.1C14,486.3,7.9,472.8,7.9,458.9c0-25.3,20.7-45.9,46.1-45.9
	c25,0,46.1,21,46.1,45.9c0,25.3-20.7,46-46.1,46C53.3,505,51.7,505.1,50.1,505.1z M53.9,426.1c-18.1,0-32.9,14.7-32.9,32.8
	c0,10.1,4.4,19.8,11.7,25.9c7.1,5.6,13.4,8,20.2,7c19.1-0.1,33.9-14.8,33.9-32.9C86.9,441.4,71.5,426.1,53.9,426.1z"/>
<path class="st0" d="M460.8,504.9c-25.4,0-46.1-20.7-46.1-46.1s20.7-46.1,46.1-46.1c25.4,0,46.1,20.7,46.1,46.1
	c0,10.2-3.4,19.9-9.9,28.1C487.6,498.2,474.1,504.9,460.8,504.9z M460.8,425.9c-18.1,0-32.9,14.8-32.9,32.9
	c0,18.2,14.8,32.9,32.9,32.9c9.4,0,19.1-4.9,26-13.1c4.5-5.7,6.9-12.5,6.9-19.8C493.8,440.7,479,425.9,460.8,425.9z"/>
</svg>
