<?xml version="1.0" encoding="utf-8"?>
<!-- Generator: Adobe Illustrator 22.0.0, SVG Export Plug-In . SVG Version: 6.00 Build 0)  -->
<svg version="1.1" id="Layer_1" xmlns="http://www.w3.org/2000/svg" xmlns:xlink="http://www.w3.org/1999/xlink" x="0px" y="0px"
	 viewBox="0 0 512 512" style="enable-background:new 0 0 512 512;" xml:space="preserve">
<style type="text/css">
	.st0{fill:#5E686C;}
	.st1{fill:#3FC6F1;}
</style>
<path class="st0" d="M401,505.9c-3.2,0-7.1-0.9-11.7-3.5l-117.5-65.7c-4.4-2.5-10.7-3.9-17.2-3.9c-3.8,0-6.8-3.1-6.8-6.8
	c0-3.7,3.1-6.8,6.8-6.8h0c8.9,0,17.3,2,23.8,5.6L396,490.6c3.4,1.9,5.4,1.9,5.8,1.6c0.3-0.2,1.4-2.1,0.7-7l-21.7-137.7
	c-2.4-15.2,4.1-35.6,14.7-46.3l95.9-96.8c3-3,3.6-5.3,3.4-6.1c-0.3-0.8-2-2.1-5.8-2.7l-131.7-20.9c-14.8-2.4-31.4-15.1-37.9-29.1
	L261.3,20.1c-1.9-4.1-3.6-5-4-5.1c-3.8-0.2-6.6-3.5-6.3-7.2c0.3-3.8,3.9-6.5,7.2-6.3c3.6,0.2,10.5,2.2,15.4,12.9l58.2,125.5
	c4.6,10,17.3,19.7,27.7,21.4l131.6,20.9c11.6,1.8,15.4,8.2,16.6,11.9c1.2,3.7,2,11.2-6.6,19.9l-96,96.8
	c-7.7,7.7-12.7,23.5-10.9,34.6L415.9,483c2,12.4-3.1,18-6.3,20.3C407.9,504.5,405,505.9,401,505.9z"/>
<path class="st1" d="M108,503.9c-4.1,0-7-1.5-8.7-2.7c-3.2-2.3-8.2-7.9-6.1-20.4l23.4-137.4c1.9-11-3-26.9-10.5-34.7l-94.8-98
	c-8.5-8.8-7.7-16.3-6.4-20c1.2-3.6,5.1-10,16.7-11.6l131.9-19.2c10.4-1.5,23.2-11.2,27.9-21L241,14.2c5.8-12.1,14-12.9,17.2-12.7
	L257.4,15l0,0c-0.3,0-2.1,0.9-4.1,5l-59.7,124.7c-6.6,13.9-23.4,26.5-38.2,28.6L23.5,192.6c-3.8,0.5-5.5,1.8-5.8,2.6
	c-0.3,0.8,0.4,3.1,3.3,6.2l94.8,98c10.5,10.8,16.7,31.2,14.2,46.4l-23.4,137.4c-0.8,4.9,0.3,6.8,0.6,7c0.4,0.3,2.4,0.4,5.8-1.5
	l118.3-64.2c6.4-3.4,14.6-5.3,23.3-5.3c0,0,0,13.6,0.1,13.6h0c0,0-0.1,0-0.1,0c-6.4,0-12.5,1.3-16.8,3.7l-118.3,64.1
	C114.9,503.1,111.1,503.9,108,503.9z"/>
</svg>
