<?xml version="1.0" encoding="utf-8"?>
<!-- Generator: Adobe Illustrator 22.0.0, SVG Export Plug-In . SVG Version: 6.00 Build 0)  -->
<svg version="1.1" id="Layer_1" xmlns="http://www.w3.org/2000/svg" xmlns:xlink="http://www.w3.org/1999/xlink" x="0px" y="0px"
	 viewBox="0 0 512 512" style="enable-background:new 0 0 512 512;" xml:space="preserve">
<style type="text/css">
	.st0{fill:#5E686C;}
	.st1{fill:#3FC6F1;}
</style>
<path class="st0" d="M322.9,507.9h-66.6c-3.7,0-6.8-3-6.8-6.8s3-6.8,6.8-6.8h66.6c2.4,0,4.3-2,4.3-4.4v-19.8c0-2.4-1.9-4.4-4.3-4.4
	h-41.1c-2,0-4-0.9-5.2-2.4c-1.3-1.5-1.9-3.5-1.6-5.5c0.5-2.8,0.4-4.9,0.4-5.2c-0.1-0.2-6.8-32.7,2.9-52.7c7.6-15.7,4.9-39.3,3.3-43
	c-3.1-5.4-6.2-28.3,0.2-39.1c4.1-6.8,5.8-25.3,8.2-50.9l0.2-1.9c2.2-22.8-2.8-28.5-2.9-28.6c-1.8-1.3-2.3-2.9-2.3-5v-23.7
	c0-3.7,3-6.8,6.8-6.8h5.1c8.6-0.6,11.9-27.4,13.3-38.9l0.8-6.1c0.7-4.6,1.9-8.9,3.2-13c3.2-10.8,5.8-19.3-2-30
	c-9.5-13.2-32.7-20.5-40.8-22.2c-3.2-0.7-5.5-3.5-5.4-6.8l0.6-16.5c0.1-1.9,0.9-3.7,2.4-4.9c0,0,0,0,0,0c0,0,6-6.4,5.3-26.6
	c-0.6-17.1-12.5-18.2-14.9-18.3h-7c-3.7,0-6.8-3-6.8-6.8s3-6.8,6.8-6.8h7.1c9.4,0,27.4,6.6,28.3,31.3c0.7,20.4-4.5,30.5-7.8,34.9
	l-0.3,8.7c10.3,2.9,32.4,10.7,43.5,26.1c11.6,16.1,7.4,30.4,4,41.8c-1.2,3.9-2.2,7.5-2.8,11.1l-0.8,5.8c-2.4,19.2-6,48.1-25.1,50.6
	v14.6c3.2,4.6,7.2,15,5.1,37.4l-0.2,1.9c-2.8,29.4-4.5,47.1-10.1,56.6c-3.2,5.4-1.5,22.2,0.1,25.9c3.2,5.6,6.5,35.2-3.1,55.2
	c-6.4,13.2-3.4,37.2-1.7,45.3c0,0.3,0.1,0.6,0.1,1.1h34.1c9.8,0,17.8,8,17.8,17.9V490C340.7,499.9,332.7,507.9,322.9,507.9z"/>
<path class="st1" d="M256.3,507.9h-67.4c-9.8,0-17.7-8-17.7-17.9v-19.8c0-9.9,8-17.9,17.7-17.9h34.1c1.8-9.5,4.7-33.3-1.6-46.3
	c-9.6-19.9-6.4-49.6-3.1-55.4c1.6-3.6,3.2-20.4,0.1-25.8c-5.6-9.3-7.2-26.9-10-56l-0.2-2.4c-2.1-22.4,1.8-32.8,5.1-37.4v-14.6
	c-19.1-2.8-22.7-31.4-25.1-50.5l-0.8-5.8c-0.5-3.6-1.6-7.3-2.8-11.2c-3.4-11.4-7.6-25.7,4-41.7c11.1-15.4,33.1-23.1,43.5-26
	l-0.3-8.7c-3.3-4.4-8.4-14.5-7.7-34.9c0.8-24.8,18.9-31.4,28.3-31.4l0.1,13.5c-2.4,0.1-14.3,1.2-14.8,18.3
	c-0.7,20.4,5.4,26.8,5.5,26.8c1.2,1.2,2.1,3,2.2,4.7l0.6,16.5c0.1,3.3-2.1,6.2-5.4,6.8c-0.3,0.1-29.4,6.3-40.8,22.1
	c-7.7,10.7-5.2,19.2-2,30c1.3,4.2,2.5,8.5,3.2,13.1l0.8,6c1.4,11.5,4.8,38.3,13.8,38.9l4.6,0c3.7,0,6.8,3,6.8,6.8v23.7
	c0,2.2-1,4.2-2.8,5.5l0,0c0.2,0-4.4,6.1-2.3,28.1l0.2,2.4c2.4,25.4,4.2,43.7,8.2,50.4c6.4,10.7,3.3,33.7,0.1,39.3
	c-1.4,3.5-4.1,27.1,3.5,42.8c9.3,19.3,3.4,50.3,2.8,53.7c0.1,0,0.1,1.7,0.5,4.2c0.3,2-0.2,3.9-1.5,5.4c-1.3,1.5-3.2,2.4-5.1,2.4
	h-41.4c-2.3,0-4.2,2-4.2,4.4V490c0,2.4,1.9,4.4,4.2,4.4h67.4L256.3,507.9z"/>
</svg>
