<?xml version="1.0" encoding="utf-8"?>
<!-- Generator: Adobe Illustrator 22.0.0, SVG Export Plug-In . SVG Version: 6.00 Build 0)  -->
<svg version="1.1" id="Layer_1" xmlns="http://www.w3.org/2000/svg" xmlns:xlink="http://www.w3.org/1999/xlink" x="0px" y="0px"
	 viewBox="0 0 512 512" style="enable-background:new 0 0 512 512;" xml:space="preserve">
<style type="text/css">
	.st0{fill:#5E686C;}
	.st1{fill:#3FC6F1;}
</style>
<path class="st0" d="M176.4,506.1c-1,0-2-0.2-2.9-0.6L11.9,428.9c-2.4-1.1-3.9-3.5-3.9-6.1V12.3c0-2.3,1.2-4.5,3.2-5.7
	c2-1.3,4.4-1.4,6.5-0.4l161.6,76.5c2.4,1.1,3.9,3.5,3.9,6.1v410.5c0,2.3-1.2,4.5-3.2,5.7C178.9,505.7,177.6,506.1,176.4,506.1z
	 M21.6,418.5l148,70.1V93.1l-148-70.1C21.6,23.1,21.6,418.5,21.6,418.5z"/>
<path class="st0" d="M499.5,506.1c-1,0-2-0.2-2.9-0.6L335,428.9c-3.4-1.6-4.8-5.7-3.2-9c1.6-3.4,5.7-4.8,9-3.2l151.9,71.9V93.1
	L335,18.5c-3.4-1.6-4.8-5.6-3.2-9c1.6-3.4,5.7-4.8,9-3.2l161.6,76.5c2.4,1.1,3.9,3.5,3.9,6.1v410.5c0,2.3-1.2,4.5-3.2,5.7
	C502,505.7,500.8,506.1,499.5,506.1z"/>
<path class="st0" d="M176.4,506.1c-2.5,0-5-1.4-6.1-3.9c-1.6-3.4-0.2-7.4,3.2-9l157.7-74.7V23.1L179.3,95c-3.4,1.6-7.4,0.2-9-3.2
	c-1.6-3.4-0.2-7.4,3.2-9L335,6.2c2.1-1,4.6-0.8,6.5,0.4c2,1.2,3.2,3.4,3.2,5.7v410.5c0,2.6-1.5,5-3.9,6.1l-161.6,76.5
	C178.3,505.9,177.3,506.1,176.4,506.1z"/>
<path class="st1" d="M449.2,211.8c-1.7,0-3.5-0.7-4.8-2l-61.1-61.1c-2.6-2.6-2.6-6.9,0-9.6c2.6-2.6,6.9-2.6,9.6,0l61.1,61.1
	c2.6,2.6,2.6,6.9,0,9.6C452.7,211.2,451,211.8,449.2,211.8z"/>
<path class="st1" d="M388.2,211.8c-1.7,0-3.5-0.7-4.8-2c-2.6-2.6-2.6-6.9,0-9.6l61.1-61.1c2.6-2.6,6.9-2.6,9.6,0
	c2.6,2.6,2.6,6.9,0,9.6L393,209.9C391.6,211.2,389.9,211.8,388.2,211.8z"/>
<path class="st1" d="M65,379.2c-3.8,0-6.8-3-6.8-6.8c0-58.6,25.1-112.1,70.7-150.4c59.8-50.3,146.5-70,237.9-54.1
	c3.7,0.6,6.2,4.1,5.5,7.8c-0.6,3.7-4.2,6.3-7.8,5.5c-87.5-15.2-170.2,3.4-226.9,51.1c-42.5,35.7-65.9,85.5-65.9,140
	C71.8,376.1,68.8,379.2,65,379.2z"/>
</svg>
