<?xml version="1.0" encoding="utf-8"?>
<!-- Generator: Adobe Illustrator 22.0.0, SVG Export Plug-In . SVG Version: 6.00 Build 0)  -->
<svg version="1.1" id="Layer_1" xmlns="http://www.w3.org/2000/svg" xmlns:xlink="http://www.w3.org/1999/xlink" x="0px" y="0px"
	 viewBox="0 0 512 512" style="enable-background:new 0 0 512 512;" xml:space="preserve">
<style type="text/css">
	.st0{fill:#5E686B;}
	.st1{fill:#3FC6F1;}
</style>
<path class="st0" d="M256,405.5c-96,0-175.1-77.3-176.2-172.3l0-2.4c0-3.8,3.1-6.8,6.8-6.8s6.8,3.1,6.8,6.8l0,2
	c1.1,87.7,74,159,162.5,159c94.3,0,161.2-58.7,162.5-142.7c0-1.6,0-32.7,0-33.7c0-3.8,3.1-6.8,6.8-6.8c3.8,0,6.8,3.1,6.8,6.8
	c0,1,0,33,0,34C430.7,339.8,356.6,405.5,256,405.5z"/>
<path class="st0" d="M256,508.7c-3.8,0-6.8-3.1-6.8-6.8v-41.7c0-3.8,3.1-6.8,6.8-6.8s6.8,3.1,6.8,6.8v41.7
	C262.8,505.6,259.8,508.7,256,508.7z"/>
<path class="st0" d="M295.2,508.7h-78.4c-3.8,0-6.8-3.1-6.8-6.8s3.1-6.8,6.8-6.8h78.4c3.8,0,6.8,3.1,6.8,6.8S299,508.7,295.2,508.7z
	"/>
<path class="st1" d="M256,328.8c-53.9,0-97.7-43.4-97.7-96.8V98.9c0-53.4,43.8-96.8,97.7-96.8c53.9,0,97.7,43.4,97.7,96.8V232
	C353.7,285.4,309.9,328.8,256,328.8z M256,15.8c-46.3,0-84,37.3-84,83.1V232c0,45.8,37.7,83.1,84,83.1c46.3,0,84-37.3,84-83.1V98.9
	C340,53.1,302.3,15.8,256,15.8z"/>
</svg>
