<?xml version="1.0" encoding="utf-8"?>
<!-- Generator: Adobe Illustrator 22.0.0, SVG Export Plug-In . SVG Version: 6.00 Build 0)  -->
<svg version="1.1" id="Layer_1" xmlns="http://www.w3.org/2000/svg" xmlns:xlink="http://www.w3.org/1999/xlink" x="0px" y="0px"
	 viewBox="0 0 512 512" style="enable-background:new 0 0 512 512;" xml:space="preserve">
<style type="text/css">
	.st0{fill:#5E686C;}
	.st1{fill:#3FC6F1;}
</style>
<path class="st0" d="M254.2,505.1c-4.1,0-7.5-3.4-7.5-7.5V103.8c0-4.1,3.4-7.5,7.5-7.5c4.1,0,7.5,3.4,7.5,7.5v393.9
	C261.8,501.8,258.4,505.1,254.2,505.1z"/>
<path class="st0" d="M389.3,175h-270c-4.1,0-7.5-3.4-7.5-7.5s3.4-7.5,7.5-7.5h270c4.1,0,7.5,3.4,7.5,7.5S393.4,175,389.3,175z"/>
<path class="st0" d="M254.2,109c-28.9,0-52.5-23.6-52.5-52.5S225.3,4,254.2,4c28.9,0,52.5,23.6,52.5,52.5S283.2,109,254.2,109z
	 M254.2,19c-20.7,0-37.5,16.8-37.5,37.5S233.6,94,254.2,94c20.7,0,37.5-16.8,37.5-37.5S274.9,19,254.2,19z"/>
<path class="st1" d="M254.2,505.1c-119.4,0-228.1-108.7-228.1-228.1v-31.5c0-4.1,3.4-7.5,7.5-7.5s7.5,3.4,7.5,7.5v31.5
	c0,111.5,101.5,213.1,213.1,213.1c111.5,0,213.1-101.6,213.1-213.1v-31.5c0-4.1,3.4-7.5,7.5-7.5c4.1,0,7.5,3.4,7.5,7.5v31.5
	C482.3,396.4,373.6,505.1,254.2,505.1z"/>
<path class="st1" d="M93.7,253.1h-60c-4.1,0-7.5-3.4-7.5-7.5s3.4-7.5,7.5-7.5h60c4.1,0,7.5,3.4,7.5,7.5
	C101.2,249.7,97.8,253.1,93.7,253.1z"/>
<path class="st1" d="M476.2,253.1h-60c-4.1,0-7.5-3.4-7.5-7.5s3.4-7.5,7.5-7.5h60c4.1,0,7.5,3.4,7.5,7.5S480.4,253.1,476.2,253.1z"
	/>
</svg>
