<?xml version="1.0" encoding="utf-8"?>
<!-- Generator: Adobe Illustrator 22.0.0, SVG Export Plug-In . SVG Version: 6.00 Build 0)  -->
<svg version="1.1" id="Layer_1" xmlns="http://www.w3.org/2000/svg" xmlns:xlink="http://www.w3.org/1999/xlink" x="0px" y="0px"
	 viewBox="0 0 512 512" style="enable-background:new 0 0 512 512;" xml:space="preserve">
<style type="text/css">
	.st0{fill:#5E686B;}
	.st1{fill:#3FC6F1;}
</style>
<path class="st0" d="M255.9,413.9c-86.5,0-156.8-70.4-156.8-156.8c0-86.5,70.4-156.8,156.8-156.8c86.5,0,156.8,70.4,156.8,156.8
	C412.7,343.5,342.4,413.9,255.9,413.9z M255.9,113.9c-79,0-143.2,64.2-143.2,143.2c0,79,64.2,143.2,143.2,143.2
	c79,0,143.2-64.2,143.2-143.2C399.1,178.1,334.8,113.9,255.9,113.9z"/>
<path class="st1" d="M255.9,73.1c-3.8,0-6.8-3.1-6.8-6.8V11.7c0-3.8,3.1-6.8,6.8-6.8c3.8,0,6.8,3,6.8,6.8v54.5
	C262.7,70,259.7,73.1,255.9,73.1z"/>
<path class="st1" d="M500.6,263.9H446c-3.8,0-6.8-3-6.8-6.8c0-3.8,3-6.8,6.8-6.8h54.5c3.8,0,6.8,3.1,6.8,6.8
	C507.4,260.8,504.3,263.9,500.6,263.9z"/>
<path class="st1" d="M65.9,263.9H11.3c-3.8,0-6.8-3-6.8-6.8c0-3.8,3-6.8,6.8-6.8h54.5c3.8,0,6.8,3.1,6.8,6.8
	C72.7,260.8,69.6,263.9,65.9,263.9z"/>
<path class="st1" d="M112.5,121.3c-1.7,0-3.5-0.7-4.8-2L69.1,80.7c-2.7-2.7-2.7-7,0-9.6s7-2.7,9.6,0l38.6,38.6c2.7,2.7,2.7,7,0,9.6
	C116,120.6,114.3,121.3,112.5,121.3z"/>
<path class="st1" d="M437.3,446c-1.7,0-3.5-0.7-4.8-2l-38.6-38.6c-2.7-2.7-2.7-7,0-9.6s7-2.7,9.6,0l38.6,38.6c2.7,2.7,2.7,7,0,9.6
	C440.8,445.3,439,446,437.3,446z"/>
<path class="st1" d="M399.2,120.8c-1.7,0-3.5-0.7-4.8-2c-2.7-2.7-2.7-7,0-9.6l38.6-38.6c2.7-2.7,7-2.7,9.6,0s2.7,7,0,9.6L404,118.8
	C402.7,120.1,400.9,120.8,399.2,120.8z"/>
<path class="st1" d="M74.4,445.5c-1.7,0-3.5-0.7-4.8-2c-2.7-2.7-2.7-7,0-9.6l38.6-38.6c2.7-2.7,7-2.7,9.6,0c2.7,2.7,2.7,7,0,9.6
	l-38.6,38.6C77.9,444.9,76.2,445.5,74.4,445.5z"/>
<path class="st1" d="M255.9,506.8c-3.8,0-6.8-3-6.8-6.8v-54.5c0-3.8,3.1-6.8,6.8-6.8c3.8,0,6.8,3.1,6.8,6.8V500
	C262.7,503.8,259.7,506.8,255.9,506.8z"/>
</svg>
