<?xml version="1.0" encoding="utf-8"?>
<!-- Generator: Adobe Illustrator 22.0.0, SVG Export Plug-In . SVG Version: 6.00 Build 0)  -->
<svg version="1.1" id="Layer_1" xmlns="http://www.w3.org/2000/svg" xmlns:xlink="http://www.w3.org/1999/xlink" x="0px" y="0px"
	 viewBox="0 0 512 512" style="enable-background:new 0 0 512 512;" xml:space="preserve">
<style type="text/css">
	.st0{fill:#5E686C;}
	.st1{fill:#3FC6F1;}
</style>
<path class="st0" d="M256.2,506.5c-66.8,0-129.7-26-176.9-73.3C32,386,6,323.1,6,256.3c0-66.8,26-129.6,73.3-176.9
	C126.5,32.1,189.4,6.1,256.2,6.1s129.7,26,176.9,73.3c47.3,47.3,73.3,110.1,73.3,176.9c0,66.8-26,129.7-73.3,176.9
	C385.8,480.5,323,506.5,256.2,506.5z M256.2,20c-63.1,0-122.4,24.6-167.1,69.2s-69.2,104-69.2,167.1c0,63.1,24.6,122.5,69.2,167.1
	c44.6,44.6,104,69.2,167.1,69.2s122.5-24.6,167.1-69.2c44.6-44.6,69.2-104,69.2-167.1c0-63.1-24.6-122.5-69.2-167.1
	C378.6,44.6,319.3,20,256.2,20z"/>
<path class="st0" d="M339.7,179.7c-1.8,0-3.6-0.7-4.9-2c-2.7-2.7-2.7-7.1,0-9.8l88.4-88.4c2.7-2.7,7.1-2.7,9.8,0
	c2.7,2.7,2.7,7.1,0,9.8l-88.4,88.4C343.3,179,341.5,179.7,339.7,179.7z"/>
<path class="st0" d="M84.2,435.2c-1.8,0-3.6-0.7-4.9-2c-2.7-2.7-2.7-7.1,0-9.8l88.4-88.4c2.7-2.7,7.1-2.7,9.8,0
	c2.7,2.7,2.7,7.1,0,9.8l-88.4,88.4C87.7,434.6,86,435.2,84.2,435.2z"/>
<path class="st0" d="M428.2,435.2c-1.8,0-3.6-0.7-4.9-2l-88.4-88.4c-2.7-2.7-2.7-7.1,0-9.8c2.7-2.7,7.1-2.7,9.8,0l88.4,88.4
	c2.7,2.7,2.7,7.1,0,9.8C431.7,434.6,430,435.2,428.2,435.2z"/>
<path class="st0" d="M172.6,179.7c-1.8,0-3.6-0.7-4.9-2L79.3,89.2c-2.7-2.7-2.7-7.1,0-9.8c2.7-2.7,7.1-2.7,9.8,0l88.4,88.4
	c2.7,2.7,2.7,7.1,0,9.8C176.2,179,174.4,179.7,172.6,179.7z"/>
<path class="st1" d="M256.2,381.4c-33.4,0-64.8-13-88.5-36.6c-23.6-23.6-36.6-55-36.6-88.4c0-33.4,13-64.8,36.6-88.5
	c23.6-23.6,55-36.6,88.5-36.6s64.8,13,88.5,36.6c23.6,23.6,36.6,55,36.6,88.5c0,33.4-13,64.8-36.6,88.4
	C321,368.4,289.6,381.4,256.2,381.4z M256.2,145.1c-29.7,0-57.6,11.6-78.6,32.6S145,226.6,145,256.3c0,29.7,11.6,57.6,32.6,78.6
	c21,21,48.9,32.6,78.6,32.6c29.7,0,57.6-11.6,78.6-32.6c21-21,32.6-48.9,32.6-78.6c0-29.7-11.6-57.6-32.6-78.6
	C313.8,156.7,285.9,145.1,256.2,145.1z"/>
</svg>
