<?xml version="1.0" encoding="utf-8"?>
<!-- Generator: Adobe Illustrator 22.0.0, SVG Export Plug-In . SVG Version: 6.00 Build 0)  -->
<svg version="1.1" id="Layer_1" xmlns="http://www.w3.org/2000/svg" xmlns:xlink="http://www.w3.org/1999/xlink" x="0px" y="0px"
	 viewBox="0 0 512 512" style="enable-background:new 0 0 512 512;" xml:space="preserve">
<style type="text/css">
	.st0{fill:#3FC6F1;}
	.st1{fill:#5E686B;}
</style>
<path class="st0" d="M257,409.1c-42.2,0-76.5-34.3-76.5-76.5c0-42.2,34.3-76.6,76.5-76.6c42.2,0,76.5,34.3,76.5,76.6
	C333.6,374.8,299.2,409.1,257,409.1z M257,269.9c-34.5,0-62.6,28.1-62.6,62.6c0,34.5,28.1,62.6,62.6,62.6
	c34.5,0,62.6-28.1,62.6-62.6C319.6,298,291.6,269.9,257,269.9z"/>
<path class="st1" d="M153.5,222.7c-30.7,0-55.7-25-55.7-55.7c0-30.7,25-55.7,55.7-55.7c30.7,0,55.7,25,55.7,55.7
	C209.2,197.8,184.2,222.7,153.5,222.7z M153.5,125.3c-23,0-41.8,18.7-41.8,41.7s18.7,41.8,41.8,41.8c23,0,41.7-18.7,41.7-41.8
	S176.5,125.3,153.5,125.3z"/>
<path class="st1" d="M360.5,222.7c-30.7,0-55.7-25-55.7-55.7c0-30.7,25-55.7,55.7-55.7c30.7,0,55.7,25,55.7,55.7
	C416.2,197.8,391.2,222.7,360.5,222.7z M360.5,125.3c-23,0-41.7,18.7-41.7,41.7s18.7,41.8,41.7,41.8c23,0,41.8-18.7,41.8-41.8
	C402.3,144,383.6,125.3,360.5,125.3z"/>
<path class="st1" d="M229.2,505.6c-0.3,0-0.5,0-0.8,0C101.9,491.2,6.5,384.2,6.5,256.7C6.5,118.5,118.9,6.2,257,6.2
	s250.5,112.4,250.5,250.5c0,127.5-95.4,234.5-221.9,248.9c-3.8,0.3-7.3-2.3-7.7-6.1c-0.4-3.8,2.3-7.3,6.1-7.7
	c119.5-13.6,209.5-114.6,209.5-235.1c0-130.5-106.1-236.6-236.6-236.6c-130.4,0-236.6,106.1-236.6,236.6
	c0,120.4,90.1,221.5,209.6,235.1c3.8,0.4,6.6,3.9,6.1,7.7C235.7,503,232.7,505.6,229.2,505.6z"/>
</svg>
