<?xml version="1.0" encoding="utf-8"?>
<!-- Generator: Adobe Illustrator 22.0.0, SVG Export Plug-In . SVG Version: 6.00 Build 0)  -->
<svg version="1.1" id="Layer_1" xmlns="http://www.w3.org/2000/svg" xmlns:xlink="http://www.w3.org/1999/xlink" x="0px" y="0px"
	 viewBox="0 0 512 512" style="enable-background:new 0 0 512 512;" xml:space="preserve">
<style type="text/css">
	.st0{fill:#5E686B;}
	.st1{fill:#3FC6F1;}
</style>
<path class="st0" d="M386.7,232.9H125.3C61.5,232.9,9.5,181,9.5,117.2S61.5,1.4,125.3,1.4h261.3c63.9,0,115.8,51.9,115.8,115.8
	S450.5,232.9,386.7,232.9z M125.3,19.1c-54.1,0-98.1,44-98.1,98.1c0,54.1,44,98.1,98.1,98.1h261.3c54.1,0,98.1-44,98.1-98.1
	c0-54.1-44-98.1-98.1-98.1L125.3,19.1L125.3,19.1z"/>
<path class="st1" d="M125.3,179.1c-34.1,0-61.9-27.8-61.9-61.9s27.8-61.9,61.9-61.9c34.1,0,61.9,27.8,61.9,61.9
	C187.2,151.3,159.4,179.1,125.3,179.1z M125.3,73c-24.4,0-44.2,19.8-44.2,44.2s19.8,44.2,44.2,44.2c24.4,0,44.2-19.8,44.2-44.2
	S149.7,73,125.3,73z"/>
<path class="st1" d="M386.7,458.1c-34.1,0-61.9-27.8-61.9-61.9c0-34.1,27.8-61.9,61.9-61.9c34.1,0,61.9,27.8,61.9,61.9
	C448.6,430.3,420.8,458.1,386.7,458.1z M386.7,352c-24.4,0-44.2,19.8-44.2,44.2c0,24.4,19.8,44.2,44.2,44.2
	c24.4,0,44.2-19.8,44.2-44.2C430.9,371.9,411.1,352,386.7,352z"/>
<path class="st0" d="M386.7,512H125.3C61.5,512,9.5,460.1,9.5,396.2s51.9-115.8,115.8-115.8h261.3c63.9,0,115.8,51.9,115.8,115.8
	S450.5,512,386.7,512z M125.3,298.1c-54.1,0-98.1,44-98.1,98.1s44,98.1,98.1,98.1h261.3c54.1,0,98.1-44,98.1-98.1
	s-44-98.1-98.1-98.1L125.3,298.1L125.3,298.1z"/>
</svg>
