<?xml version="1.0" encoding="utf-8"?>
<!-- Generator: Adobe Illustrator 22.0.0, SVG Export Plug-In . SVG Version: 6.00 Build 0)  -->
<svg version="1.1" id="Layer_1" xmlns="http://www.w3.org/2000/svg" xmlns:xlink="http://www.w3.org/1999/xlink" x="0px" y="0px"
	 viewBox="0 0 512 512" style="enable-background:new 0 0 512 512;" xml:space="preserve">
<style type="text/css">
	.st0{fill:#3FC6F1;}
	.st1{fill:#5E686B;}
</style>
<path class="st0" d="M435.6,167.6c-1.6,0-3.2-0.6-4.4-1.8c-2.4-2.4-2.4-6.4,0-8.9l61.2-61.2l-61.2-61.2c-2.4-2.4-2.4-6.4,0-8.9
	c2.4-2.4,6.4-2.4,8.9,0l65.6,65.6c2.4,2.4,2.4,6.4,0,8.9l-65.6,65.6C438.8,167,437.2,167.6,435.6,167.6z"/>
<path class="st0" d="M9.3,241.7c-3.5,0-6.3-2.8-6.3-6.3v-84.9C3,114,32.7,84.3,69.2,84.3H399c3.5,0,6.3,2.8,6.3,6.3
	c0,3.5-2.8,6.3-6.3,6.3H69.2c-29.6,0-53.7,24.1-53.7,53.7v84.9C15.5,238.9,12.7,241.7,9.3,241.7z"/>
<path class="st1" d="M441.3,421.8H110.8c-3.5,0-6.3-2.8-6.3-6.3c0-3.5,2.8-6.3,6.3-6.3h330.5c29.6,0,53.7-24.1,53.7-53.7V269
	c0-3.5,2.8-6.3,6.3-6.3s6.3,2.8,6.3,6.3v86.6C507.5,392.1,477.8,421.8,441.3,421.8z"/>
<path class="st1" d="M176.4,487.4c-1.6,0-3.2-0.6-4.4-1.8L106.3,420c-1.2-1.2-1.8-2.8-1.8-4.4s0.7-3.3,1.8-4.4l65.6-65.6
	c2.4-2.4,6.4-2.4,8.9,0c2.4,2.4,2.4,6.4,0,8.9l-61.2,61.2l61.2,61.2c2.4,2.4,2.4,6.4,0,8.9C179.6,486.8,178,487.4,176.4,487.4z"/>
</svg>
