<?xml version="1.0" encoding="utf-8"?>
<!-- Generator: Adobe Illustrator 22.0.0, SVG Export Plug-In . SVG Version: 6.00 Build 0)  -->
<svg version="1.1" id="Layer_1" xmlns="http://www.w3.org/2000/svg" xmlns:xlink="http://www.w3.org/1999/xlink" x="0px" y="0px"
	 viewBox="0 0 512 512" style="enable-background:new 0 0 512 512;" xml:space="preserve">
<style type="text/css">
	.st0{fill:#5E686B;}
	.st1{fill:#3FC6F1;}
</style>
<path class="st0" d="M434,509.5H86.2c-12.5,0-22.6-10.2-22.6-22.6V28.4c0-12.5,10.1-22.6,22.6-22.6H434c12.5,0,22.6,10.1,22.6,22.6
	v458.5C456.6,499.3,446.5,509.5,434,509.5z M86.2,19.4c-5,0-9,4-9,9v458.5c0,5,4,9,9,9H434c5,0,9-4,9-9V28.4c0-5-4-9-9-9H86.2z"/>
<path class="st1" d="M260.1,469c-15,0-27.2-12.2-27.2-27.2s12.2-27.2,27.2-27.2c15,0,27.2,12.2,27.2,27.2S275.1,469,260.1,469z
	 M260.1,428.2c-7.5,0-13.6,6.1-13.6,13.6s6.1,13.6,13.6,13.6s13.6-6.1,13.6-13.6S267.6,428.2,260.1,428.2z"/>
<path class="st1" d="M280.5,59.6h-40.8c-3.8,0-6.8-3-6.8-6.8s3-6.8,6.8-6.8h40.8c3.8,0,6.8,3,6.8,6.8
	C287.3,56.5,284.3,59.6,280.5,59.6z"/>
</svg>
