<?xml version="1.0" encoding="utf-8"?>
<!-- Generator: Adobe Illustrator 22.0.0, SVG Export Plug-In . SVG Version: 6.00 Build 0)  -->
<svg version="1.1" id="Layer_1" xmlns="http://www.w3.org/2000/svg" xmlns:xlink="http://www.w3.org/1999/xlink" x="0px" y="0px"
	 viewBox="0 0 512 512" style="enable-background:new 0 0 512 512;" xml:space="preserve">
<style type="text/css">
	.st0{fill:#5E686C;}
	.st1{fill:#3FC6F1;}
</style>
<path class="st0" d="M400.3,507h-92.8c-3.7,0-6.8-3-6.8-6.8c0-38.2-30.2-71.7-64.6-71.7c-10.8,0-14.9,1.5-18.4,2.8l-1.8,0.7
	c-3.5,1.2-7.4-0.7-8.6-4.3c-1.2-3.5,0.7-7.4,4.3-8.6l1.6-0.5c4.2-1.5,9.9-3.6,23-3.6c39.5,0,74.5,36,77.9,78.5h79.5v-36
	c0-3.7,3-6.8,6.8-6.8c3.7,0,6.8,3,6.8,6.8v42.8C407.1,504,404.1,507,400.3,507z M164.9,507H72.1c-3.7,0-6.8-3-6.8-6.8V57.8
	c0-3.7,3-6.8,6.8-6.8h42.8c3.7,0,6.8,3,6.8,6.8s-3,6.8-6.8,6.8h-36v428.9h79.4c0.5-10.1,2.5-28.7,9.7-39.7c2-3.1,6.2-4,9.4-2
	c3.1,2,4,6.2,2,9.4c-6.1,9.4-7.7,29.7-7.7,39.1C171.6,504,168.6,507,164.9,507z"/>
<path class="st1" d="M443.1,464.2h-92.8c-3.7,0-6.8-3-6.8-6.8c0-38.2-30.2-71.7-64.6-71.7c-34.8,0-65.3,33.5-65.3,71.7
	c0,3.7-3,6.8-6.8,6.8h-92.1c-3.7,0-6.8-3-6.8-6.8V15c0-3.7,3-6.8,6.8-6.8h92.8c3.7,0,6.8,3,6.8,6.8c0,38.2,30.2,71.7,64.6,71.7
	c34.4,0,64.6-33.5,64.6-71.7c0-3.7,3-6.8,6.8-6.8h92.8c3.7,0,6.8,3,6.8,6.8v442.4C449.9,461.2,446.9,464.2,443.1,464.2z
	 M356.9,450.7h79.5V21.8h-79.5c-3.4,42.5-38.3,78.5-77.9,78.5c-39.5,0-74.5-36-77.9-78.5h-79.5v428.9h78.8
	c3.4-42.5,38.7-78.5,78.5-78.5C318.6,372.2,353.5,408.1,356.9,450.7z"/>
<path class="st0" d="M407.9,164.5H164.4c-3.7,0-6.8-3-6.8-6.8c0-3.7,3-6.8,6.8-6.8h243.5c3.7,0,6.8,3,6.8,6.8
	C414.7,161.5,411.6,164.5,407.9,164.5z"/>
</svg>
