<?xml version="1.0" encoding="utf-8"?>
<!-- Generator: Adobe Illustrator 22.0.0, SVG Export Plug-In . SVG Version: 6.00 Build 0)  -->
<svg version="1.1" id="Layer_1" xmlns="http://www.w3.org/2000/svg" xmlns:xlink="http://www.w3.org/1999/xlink" x="0px" y="0px"
	 viewBox="0 0 512 512" style="enable-background:new 0 0 512 512;" xml:space="preserve">
<style type="text/css">
	.st0{fill:#5E686B;}
	.st1{fill:#3FC6F1;}
</style>
<path class="st0" d="M200,147c4-3.2,8.6-5.5,13.7-6.8c-5.5-46.2-49.4-81.9-101.9-81.9c-4,0-7.3,3.2-7.3,7.3c0,4,3.3,7.3,7.3,7.3
	c46.2,0,84.8,31.7,87.7,72.1C199.6,145.6,199.7,146.3,200,147z"/>
<path class="st0" d="M136.4,224.7c-1.1-0.3-2.2-0.3-3.3-0.1c-17.5,3.8-36.3,2.8-53.2-3c-1.7-0.6-3.5-0.5-5.2,0.2l-13.8,6L58.7,214
	c-0.3-1.9-1.3-3.6-2.9-4.8c-20.3-14.7-31.9-36.4-31.9-59.4c0-42.5,39.4-77.1,87.9-77.1c4,0,7.3-3.3,7.3-7.3c0-4-3.3-7.3-7.3-7.3
	C55.3,58.2,9.3,99.3,9.3,149.9c0,26.8,12.9,51.9,35.5,69.3l2.4,14.8c0.1,3.7,2.1,7.1,5.3,8.8c1.6,0.9,3.5,1.3,5.2,1.3
	c1.6,0,3.1-0.4,4.2-1.1l16-6.8c16.5,5.2,34.5,6.5,51.7,3.8C130.6,234.4,133,229.2,136.4,224.7z"/>
<path class="st1" d="M418.9,462.8c-2.4,0-4.7-0.7-6.8-1.9l-32.9-14c-21.5,7.1-44.1,10.6-67.1,10.6c-107.2,0-194.4-77.7-194.4-173.1
	c0-95.5,87.2-173.1,194.4-173.1c107.2,0,194.4,77.7,194.4,173.1c0,51.3-25.2,99.4-69.2,132.4l-5.3,34
	C432,456.9,426.1,462.8,418.9,462.8z M379.5,431.8c1,0,1.9,0.2,2.9,0.6l35.5,15.2l5.6-36c0.3-1.9,1.3-3.6,2.9-4.8
	c41.7-30.3,65.7-75,65.7-122.5c0-87.5-80.7-158.6-179.9-158.6c-99.2,0-179.9,71.1-179.9,158.6c0,87.4,80.7,158.6,179.9,158.6
	c22.4,0,44.2-3.6,65-10.7C377.9,431.9,378.7,431.8,379.5,431.8z"/>
</svg>
