<?xml version="1.0" encoding="utf-8"?>
<!-- Generator: Adobe Illustrator 22.0.0, SVG Export Plug-In . SVG Version: 6.00 Build 0)  -->
<svg version="1.1" id="Layer_1" xmlns="http://www.w3.org/2000/svg" xmlns:xlink="http://www.w3.org/1999/xlink" x="0px" y="0px"
	 viewBox="0 0 512 512" style="enable-background:new 0 0 512 512;" xml:space="preserve">
<style type="text/css">
	.st0{fill:#3FC6F1;}
	.st1{fill:#5E686C;}
</style>
<path class="st0" d="M193.1,375.8c-30.3,0-54.9-24.6-54.9-54.9s24.6-54.9,54.9-54.9s54.9,24.6,54.9,54.9S223.4,375.8,193.1,375.8z
	 M193.1,279.7c-22.7,0-41.2,18.5-41.2,41.2s18.5,41.2,41.2,41.2c22.7,0,41.2-18.5,41.2-41.2S215.8,279.7,193.1,279.7z"/>
<path class="st1" d="M193.1,444.4C125,444.4,69.6,389,69.6,320.9c0-68.1,55.4-123.5,123.5-123.5c68.1,0,123.5,55.4,123.5,123.5
	C316.6,389,261.2,444.4,193.1,444.4z M193.1,211.1c-60.5,0-109.8,49.2-109.8,109.8c0,60.5,49.2,109.8,109.8,109.8
	c60.5,0,109.8-49.2,109.8-109.8C302.9,260.3,253.7,211.1,193.1,211.1z"/>
<path class="st1" d="M193.1,509C89.4,509,5,424.6,5,320.9c0-103.8,84.4-188.2,188.2-188.2s188.2,84.4,188.2,188.2
	C381.3,424.6,296.9,509,193.1,509z M193.1,146.4c-96.2,0-174.4,78.3-174.4,174.4c0,96.2,78.3,174.4,174.4,174.4
	c96.2,0,174.4-78.2,174.4-174.4C367.6,224.7,289.3,146.4,193.1,146.4z"/>
<path class="st1" d="M410.9,181c-17.3,0-34.9-8.7-52-25.9c-21.4-21.4-29.6-43.2-24.4-64.6C347.8,36.6,443,6.3,447,5
	c2.1-0.6,4.4-0.3,6.1,1c1.8,1.3,2.8,3.4,2.8,5.5v46.5h46.5c2.2,0,4.2,1,5.5,2.8c1.3,1.8,1.7,4,1,6.1C507.5,71.6,472.6,181,410.9,181
	z M442.2,21.3c-23.3,8.7-85.1,34.9-94.3,72.5c-4,16.5,2.9,33.8,20.7,51.6c14.5,14.5,28.8,21.9,42.3,21.9c42.6,0,72.4-70.2,81.8-95.5
	h-43.7c-3.8,0-6.9-3.1-6.9-6.9V21.3z"/>
<path class="st1" d="M11.8,509c-1.8,0-3.5-0.7-4.9-2c-2.7-2.7-2.7-7,0-9.7L60.3,444c2.7-2.7,7-2.7,9.7,0c2.7,2.7,2.7,7,0,9.7
	L16.7,507C15.3,508.3,13.6,509,11.8,509z"/>
<path class="st1" d="M374.4,509c-1.8,0-3.5-0.7-4.9-2l-53.3-53.3c-2.7-2.7-2.7-7,0-9.7c2.7-2.7,7-2.7,9.7,0l53.3,53.3
	c2.7,2.7,2.7,7,0,9.7C377.9,508.3,376.2,509,374.4,509z"/>
<path class="st0" d="M193.1,327.7c-1.8,0-3.5-0.7-4.9-2c-2.7-2.7-2.7-7,0-9.7L444.2,60.1c2.7-2.7,7-2.7,9.7,0s2.7,7,0,9.7L198,325.7
	C196.6,327.1,194.9,327.7,193.1,327.7z"/>
<path class="st0" d="M395.8,125.1c-3.8,0-6.9-3.1-6.9-6.9V34.9c0-3.8,3.1-6.9,6.9-6.9c3.8,0,6.9,3.1,6.9,6.9v83.3
	C402.6,122,399.5,125.1,395.8,125.1z"/>
</svg>
