<?xml version="1.0" encoding="utf-8"?>
<!-- Generator: Adobe Illustrator 22.0.0, SVG Export Plug-In . SVG Version: 6.00 Build 0)  -->
<svg version="1.1" id="Layer_1" xmlns="http://www.w3.org/2000/svg" xmlns:xlink="http://www.w3.org/1999/xlink" x="0px" y="0px"
	 viewBox="0 0 512 512" style="enable-background:new 0 0 512 512;" xml:space="preserve">
<style type="text/css">
	.st0{fill:none;stroke:#69C299;stroke-linecap:round;stroke-linejoin:round;stroke-miterlimit:10;}
	.st1{fill:#5E686B;}
	.st2{fill:#3FC6F1;}
</style>
<path class="st0" d="M109.8,419.3"/>
<path class="st1" d="M460.9,508.7H50.4c-3.8,0-6.8-3.1-6.8-6.8c0-3.8,3.1-6.8,6.8-6.8h410.5c3.8,0,6.8,3.1,6.8,6.8
	C467.7,505.7,464.6,508.7,460.9,508.7z"/>
<g id="Cofee_cup_1_1_">
	<g>
		<path class="st1" d="M322.9,445.5H131.4c-3.5,0-7-1.1-9.8-3.2c-45.7-34-71.9-85.8-71.9-142v-96.6c0-9.1,7.4-16.4,16.4-16.4h322
			c9.1,0,16.4,7.4,16.4,16.4v34.1c37.5,8,64.8,41.2,64.4,79.5c-0.6,44.1-36.8,80-80.8,80c-4.7,0-8.8-0.8-12.6-1.7
			c-12.1,18.8-26.5,34.5-42.9,46.7C329.9,444.3,326.5,445.5,322.9,445.5z M66.2,200.9c-1.5,0-2.8,1.2-2.8,2.8v96.6
			c0,51.9,24.2,99.7,66.3,131.1c0.5,0.4,1,0.5,1.6,0.5h191.5c0.6,0,1.2-0.2,1.6-0.5c16.3-12.1,30.4-28,42-47.1
			c1.6-2.5,4.6-3.8,7.4-3.1l2.2,0.5c4.1,1,7.9,1.9,11.2,2c37.4,0,67.5-29.8,68-66.5c0.4-33.5-24.8-62.2-58.5-66.9
			c-3.4-0.5-5.9-3.4-5.9-6.8v-39.8c0-1.5-1.2-2.8-2.8-2.8L66.2,200.9L66.2,200.9z"/>
	</g>
</g>
<path class="st2" d="M146.6,140.4c-3.8,0-6.8-3.1-6.8-6.8V51.5c0-3.8,3.1-6.8,6.8-6.8s6.8,3.1,6.8,6.8v82.1
	C153.5,137.3,150.4,140.4,146.6,140.4z"/>
<path class="st2" d="M307.8,140.4c-3.8,0-6.8-3.1-6.8-6.8V51.5c0-3.8,3.1-6.8,6.8-6.8s6.8,3.1,6.8,6.8v82.1
	C314.6,137.3,311.6,140.4,307.8,140.4z"/>
<path class="st2" d="M227.2,140.4c-3.8,0-6.8-3.1-6.8-6.8V10.4c0-3.8,3.1-6.8,6.8-6.8c3.8,0,6.8,3.1,6.8,6.8v123.1
	C234,137.3,230.9,140.4,227.2,140.4z"/>
</svg>
