<?xml version="1.0" encoding="utf-8"?>
<!-- Generator: Adobe Illustrator 22.0.0, SVG Export Plug-In . SVG Version: 6.00 Build 0)  -->
<svg version="1.1" id="Layer_1" xmlns="http://www.w3.org/2000/svg" xmlns:xlink="http://www.w3.org/1999/xlink" x="0px" y="0px"
	 viewBox="0 0 512 512" style="enable-background:new 0 0 512 512;" xml:space="preserve">
<style type="text/css">
	.st0{fill:#5E686B;}
	.st1{fill:#3FC6F1;}
</style>
<path class="st0" d="M249.1,507.7H27.8c-12.4,0-22.6-10.1-22.6-22.6V26.9c0-12.5,10.1-22.6,22.6-22.6h331.9
	c12.5,0,22.6,10.1,22.6,22.6v79c0,3.7-3,6.8-6.8,6.8c-3.7,0-6.8-3-6.8-6.8v-79c0-5-4.1-9-9-9H27.8c-5,0-9,4.1-9,9v458.3
	c0,5,4.1,9,9,9h221.2c3.7,0,6.8,3,6.8,6.8C255.8,504.7,252.8,507.7,249.1,507.7z"/>
<path class="st1" d="M486.1,507.7H312.3c-12.5,0-22.6-10.1-22.6-22.6V169.1c0-12.5,10.1-22.6,22.6-22.6h173.8
	c12.4,0,22.6,10.1,22.6,22.6v316.1C508.7,497.6,498.5,507.7,486.1,507.7z M312.3,160.1c-5,0-9,4.1-9,9v316.1c0,5,4.1,9,9,9h173.8
	c5,0,9-4.1,9-9V169.1c0-5-4-9-9-9H312.3z"/>
<path class="st0" d="M193.7,472.7c-14.9,0-27.1-12.1-27.1-27.1c0-14.9,12.1-27.1,27.1-27.1s27.1,12.1,27.1,27.1
	C220.8,460.6,208.7,472.7,193.7,472.7z M193.7,432.1c-7.5,0-13.5,6.1-13.5,13.5c0,7.5,6.1,13.5,13.5,13.5s13.5-6.1,13.5-13.5
	C207.3,438.2,201.2,432.1,193.7,432.1z"/>
<path class="st1" d="M399.2,472.7c-14.9,0-27.1-12.1-27.1-27.1c0-14.9,12.1-27.1,27.1-27.1s27.1,12.1,27.1,27.1
	C426.3,460.6,414.1,472.7,399.2,472.7z M399.2,432.1c-7.5,0-13.5,6.1-13.5,13.5c0,7.5,6.1,13.5,13.5,13.5s13.5-6.1,13.5-13.5
	C412.7,438.2,406.7,432.1,399.2,432.1z"/>
</svg>
