<?xml version="1.0" encoding="utf-8"?>
<!-- Generator: Adobe Illustrator 22.0.0, SVG Export Plug-In . SVG Version: 6.00 Build 0)  -->
<svg version="1.1" id="Layer_1" xmlns="http://www.w3.org/2000/svg" xmlns:xlink="http://www.w3.org/1999/xlink" x="0px" y="0px"
	 viewBox="0 0 512 512" style="enable-background:new 0 0 512 512;" xml:space="preserve">
<style type="text/css">
	.st0{fill:#5E686B;}
	.st1{fill:#3FC6F1;}
</style>
<path class="st0" d="M400.8,50.7c-1.5-3.7-4.4-6.5-8.2-7.9c-3.6-1.3-7.8-1-11.1,0.8l-168.1,88.7c-6.2,3.3-8.9,10.6-6.4,17.2l1.4,3.5
	l-91.9,50.4c-6.2,3.4-8.8,10.9-6.1,17.4l0.8,1.8L13.8,269c-6.6,3.2-9.6,11-6.8,17.8l21.2,51c2.2,5.2,7.2,8.5,12.7,8.5
	c1.6,0,3.1-0.3,4.6-0.8l101.6-36l0.8,1.9c2.2,5.2,7.2,8.5,12.8,8.5c1.4,0,2.8-0.2,3.8-0.6l96.8-27.9l0.9,2.2
	c2.5,6.6,10.3,10.4,16.9,8.3l183.5-56.5c3.7-1.1,6.7-3.8,8.4-7.2c1.7-3.5,1.8-7.6,0.4-11.1L400.8,50.7z M160.4,306.1l-3.2-7.8
	c-1.4-3.3-5.1-5-8.5-3.8L41,332.7c0,0-0.1,0-0.1,0l0,6.8l-0.3-6.9l-21-51.4l103-49.2c3.2-1.5,4.7-5.4,3.3-8.7l-3.1-8.1l90.2-49.5
	l43.2,113.1L160.4,306.1z M274.8,288.8l-55-144.6l168.5-88.5l70.4,176.9L274.8,288.8z"/>
<path class="st1" d="M506.6,234.2L421.9,22.4c-1.4-3.5-5.3-5.1-8.8-3.8c-3.5,1.4-5.1,5.3-3.8,8.8l84.7,211.7
	c1.1,2.6,3.6,4.2,6.3,4.2c0.8,0,1.7-0.2,2.5-0.5C506.3,241.5,508,237.6,506.6,234.2z"/>
<path class="st0" d="M295.9,389.4v-15c0-20.2-15.4-36-35-36h-42.4c-19.9,0-35,15-35,35v16.1l-81.4,94.9c-2.4,2.8-2.1,7.1,0.7,9.5
	c2.8,2.4,7.1,2.1,9.5-0.7l83-96.8c1-1.2,1.6-2.8,1.6-4.4v-18.6c0-12.4,9-21.5,21.5-21.5h42.4c12,0,21.5,9.9,21.5,22.5v17.5
	c0,1.6,0.6,3.2,1.6,4.4l83,96.8c1.3,1.6,3.2,2.4,5.1,2.4c1.6,0,3.1-0.5,4.4-1.6c2.8-2.4,3.2-6.7,0.7-9.5L295.9,389.4z"/>
<path class="st0" d="M239.7,386.6c-3.7,0-6.8,3-6.8,6.8v95.4c0,3.7,3,6.8,6.8,6.8c3.7,0,6.8-3,6.8-6.8v-95.4
	C246.5,389.6,243.5,386.6,239.7,386.6z"/>
</svg>
