<?xml version="1.0" encoding="utf-8"?>
<!-- Generator: Adobe Illustrator 22.0.0, SVG Export Plug-In . SVG Version: 6.00 Build 0)  -->
<svg version="1.1" id="Layer_1" xmlns="http://www.w3.org/2000/svg" xmlns:xlink="http://www.w3.org/1999/xlink" x="0px" y="0px"
	 viewBox="0 0 512 512" style="enable-background:new 0 0 512 512;" xml:space="preserve">
<style type="text/css">
	.st0{fill:#3FC6F1;}
	.st1{fill:#5E686B;}
</style>
<path class="st0" d="M84.4,79.3c-16.7,0-30.3,13.6-30.3,30.3s13.6,30.3,30.3,30.3c16.7,0,30.3-13.6,30.3-30.3S101.1,79.3,84.4,79.3z
	 M84.4,124.7c-8.4,0-15.2-6.8-15.2-15.2S76,94.4,84.4,94.4c8.4,0,15.2,6.8,15.2,15.2S92.7,124.7,84.4,124.7z"/>
<path class="st1" d="M494.9,237.3c5.5-18.6,5.3-45-11.9-65c0.9-31.5-7.4-55.4-24.1-69.7c-1.3-18.3-9.8-39.1-21.7-52.8
	c-9.8-11.5-21.5-17.5-33.7-17.5H192c-9.5,0-19.7,3.2-29.8,9.2C155.6,22.8,137.9,9.3,117,9.3H51.8C25.4,9.3,4,30.8,4,57.1v240.5
	c0,26.3,21.4,47.8,47.8,47.8H117c22.4,0,41.2-15.4,46.3-36.2c23.7,23.8,39,58.1,55,103.9v60.3c0,3.5,0.9,6.9,2.7,9.8
	c8.4,13.9,22.8,21.9,39.6,21.9c20.4,0,41.7-12,56.9-32.1c13.7-18.2,34.1-58.5,20.7-127.5h87.2c26.7,0,77.8-25.7,77.8-66.1
	C503.2,266.5,501.7,249.4,494.9,237.3z M149.6,297.6c0,18-14.6,32.6-32.6,32.6H51.8c-18,0-32.6-14.6-32.6-32.6V57.1
	c0-18,14.6-32.6,32.6-32.6H117c18,0,32.6,14.6,32.6,32.6L149.6,297.6L149.6,297.6z M425.4,330.2h-96.5c-2.3,0-4.5,1.1-5.9,2.9
	c-1.4,1.8-2,4.2-1.5,6.4c15.8,68.7-3.3,107.3-16,124.3c-12.4,16.3-29.2,26.1-44.9,26.1c-11.3,0-21-5.3-26.6-14.6
	c-0.3-0.6-0.5-1.3-0.5-2v-61.5c0-0.8-0.1-1.7-0.4-2.5c-18.7-54-36.8-93-68.3-119.4V57.8c9.5-6.7,19-10.4,27.2-10.4h211.5
	c7.7,0,15.4,4.2,22.3,12.3c10.4,12,17.9,31.2,18.2,46.8c0,2.3,1.2,4.5,3,5.9c15,11.2,22.2,32.8,20.8,62.3c-0.1,2.1,0.7,4.1,2.1,5.6
	c15.8,16.5,15.1,40.2,9.6,55.4c-0.8,2.3-0.5,4.9,1,7c4.9,6.9,7.7,19.9,7.7,36.6C488.1,310.5,444,330.2,425.4,330.2z"/>
</svg>
