<?xml version="1.0" encoding="utf-8"?>
<!-- Generator: Adobe Illustrator 22.0.0, SVG Export Plug-In . SVG Version: 6.00 Build 0)  -->
<svg version="1.1" id="Layer_1" xmlns="http://www.w3.org/2000/svg" xmlns:xlink="http://www.w3.org/1999/xlink" x="0px" y="0px"
	 viewBox="0 0 512 512" style="enable-background:new 0 0 512 512;" xml:space="preserve">
<style type="text/css">
	.st0{fill:#3FC6F1;}
	.st1{fill:#5E686B;}
</style>
<path class="st0" d="M86.5,370.6c-16.7,0-30.4,13.6-30.4,30.4c0,16.7,13.6,30.4,30.4,30.4c16.7,0,30.4-13.6,30.4-30.4
	C116.9,384.3,103.3,370.6,86.5,370.6z M86.5,416.2c-8.4,0-15.2-6.8-15.2-15.2s6.8-15.2,15.2-15.2s15.2,6.8,15.2,15.2
	S94.9,416.2,86.5,416.2z"/>
<path class="st1" d="M497.6,273.1c6.8-12.1,8.3-29.3,8.3-42.1c0-40.4-51.2-66.2-77.9-66.2h-87.3c13.4-69.1-6.9-109.5-20.7-127.7
	C304.7,17,283.4,5,263,5c-16.8,0-31.2,8-39.6,21.9c-1.8,2.9-2.7,6.3-2.7,9.8v60.4c-16,45.8-31.3,80.2-55.1,104
	c-5.2-20.8-24-36.2-46.4-36.2H53.8C27.5,164.9,6,186.3,6,212.7v240.9c0,26.4,21.5,47.8,47.8,47.8h65.3c20.9,0,38.7-13.5,45.2-32.2
	c10.2,6.1,20.3,9.2,29.9,9.2H406c12.2,0,23.9-6.1,33.8-17.5c12-13.7,20.5-34.6,21.8-52.9c16.7-14.3,25-38.3,24.1-69.8
	C502.9,318.2,503.1,291.7,497.6,273.1z M151.8,453.6c0,18-14.7,32.7-32.7,32.7H53.8c-18,0-32.7-14.6-32.7-32.7V212.7
	c0-18,14.7-32.6,32.7-32.6h65.3c18,0,32.7,14.6,32.7,32.6V453.6z M483.1,267.7c-1.4,2-1.8,4.6-1,7c5.5,15.3,6.2,39-9.6,55.5
	c-1.4,1.5-2.2,3.5-2.1,5.6c1.4,29.6-5.8,51.2-20.8,62.4c-1.9,1.4-3,3.6-3,5.9c-0.3,15.6-7.8,34.9-18.2,46.9
	c-6.9,8-14.6,12.2-22.3,12.2H194.2c-8.2,0-17.8-3.7-27.2-10.5V220.4c31.5-26.4,49.6-65.4,68.4-119.5c0.3-0.8,0.4-1.6,0.4-2.5V36.7
	c0-0.7,0.2-1.4,0.5-2c5.6-9.3,15.3-14.6,26.6-14.6c15.7,0,32.5,9.8,44.9,26.1c12.8,16.9,31.8,55.6,16,124.4c-0.5,2.3,0,4.6,1.5,6.4
	c1.4,1.8,3.6,2.9,5.9,2.9H428c18.6,0,62.8,19.8,62.8,51C490.8,247.8,488,260.8,483.1,267.7z"/>
</svg>
