<?xml version="1.0" encoding="utf-8"?>
<!-- Generator: Adobe Illustrator 22.0.0, SVG Export Plug-In . SVG Version: 6.00 Build 0)  -->
<svg version="1.1" id="Layer_1" xmlns="http://www.w3.org/2000/svg" xmlns:xlink="http://www.w3.org/1999/xlink" x="0px" y="0px"
	 viewBox="0 0 512 512" style="enable-background:new 0 0 512 512;" xml:space="preserve">
<style type="text/css">
	.st0{fill:#5E686B;}
	.st1{fill:#3FC6F1;}
</style>
<path class="st0" d="M143.9,76.6c3.8,0,6.8-3,6.8-6.8V20.7h54c3.7,0,6.8-3,6.8-6.8s-3.1-6.8-6.8-6.8h-60.8c-3.8,0-6.8,3-6.8,6.8
	v55.9C137.1,73.6,140.1,76.6,143.9,76.6z"/>
<path class="st0" d="M253.1,20.7h95c3.8,0,6.8-3,6.8-6.8c0-3.8-3-6.8-6.8-6.8h-95c-3.8,0-6.8,3-6.8,6.8
	C246.3,17.7,249.3,20.7,253.1,20.7z"/>
<path class="st0" d="M394.8,20.7h54v54c0,3.8,3,6.8,6.8,6.8s6.8-3,6.8-6.8V13.9c0-3.8-3-6.8-6.8-6.8h-60.8c-3.8,0-6.8,3-6.8,6.8
	C388,17.7,391,20.7,394.8,20.7z"/>
<path class="st0" d="M455.5,225.3c-3.8,0-6.8,3-6.8,6.8v76.8c0,3.8,3,6.8,6.8,6.8s6.8-3,6.8-6.8v-76.8
	C462.3,228.3,459.3,225.3,455.5,225.3z"/>
<path class="st0" d="M455.5,106.2c-3.8,0-6.8,3-6.8,6.8v76.8c0,3.8,3,6.8,6.8,6.8s6.8-3,6.8-6.8V113
	C462.3,109.2,459.3,106.2,455.5,106.2z"/>
<path class="st0" d="M455.5,348.9c-3.8,0-6.8,3-6.8,6.8v48.8l-64.9-38.1v15.2l68.2,40.6c1.1,0.6,2.3,1,3.5,1c1.2,0,2.3-0.3,3.4-0.9
	c2.1-1.2,3.4-3.5,3.4-5.9v-60.8C462.3,351.9,459.3,348.9,455.5,348.9z"/>
<path class="st1" d="M383.8,97.6c0-3.8-3-6.8-6.8-6.8H65.4c-3.8,0-6.8,3-6.8,6.8v402.5c0,2.4,1.3,4.7,3.4,5.9
	c2.1,1.2,4.7,1.2,6.8-0.1l152.3-91l152.3,91c1.1,0.6,2.3,1,3.5,1c1.2,0,2.3-0.3,3.4-0.9c2.1-1.2,3.4-3.5,3.4-5.9L383.8,97.6z
	 M370.2,488.1l-145.6-86.9c-1.1-0.6-2.3-1-3.5-1s-2.4,0.3-3.5,1L72.2,488.1V104.4h298V488.1z"/>
</svg>
