<?xml version="1.0" encoding="utf-8"?>
<!-- Generator: Adobe Illustrator 22.0.0, SVG Export Plug-In . SVG Version: 6.00 Build 0)  -->
<svg version="1.1" id="Layer_1" xmlns="http://www.w3.org/2000/svg" xmlns:xlink="http://www.w3.org/1999/xlink" x="0px" y="0px"
	 viewBox="0 0 512 512" style="enable-background:new 0 0 512 512;" xml:space="preserve">
<style type="text/css">
	.st0{fill:#5E686C;}
	.st1{fill:#3FC6F1;}
</style>
<path class="st0" d="M419.6,18.7H103.2c-3.8,0-6.8-3-6.8-6.8c0-3.8,3-6.8,6.8-6.8h316.4c3.8,0,6.8,3,6.8,6.8
	C426.4,15.6,423.4,18.7,419.6,18.7z"/>
<path class="st1" d="M261.4,221.5C261.4,221.5,261.3,221.5,261.4,221.5c-2,0-3.8-0.9-5.1-2.3l-69.8-78.8c-1.8-2-2.2-4.9-1.1-7.3
	c1.1-2.4,3.5-4,6.2-4h143.4c2.7,0,5.2,1.6,6.2,4.1c1.1,2.5,0.6,5.4-1.3,7.3l-73.7,78.8C265.1,220.7,263.3,221.5,261.4,221.5z
	 M206.7,142.8l54.8,61.9l57.9-61.9H206.7z"/>
<path class="st0" d="M419.6,508H103.2c-3.8,0-6.8-3-6.8-6.8s3-6.8,6.8-6.8h316.4c3.8,0,6.8,3,6.8,6.8S423.4,508,419.6,508z"/>
<path class="st1" d="M261.4,341.7c-3.8,0-6.8-3-6.8-6.8v-14.6c0-3.8,3-6.8,6.8-6.8s6.8,3,6.8,6.8v14.6
	C268.2,338.6,265.2,341.7,261.4,341.7z"/>
<path class="st1" d="M261.4,297.8c-3.8,0-6.8-3-6.8-6.8v-14.6c0-3.8,3-6.8,6.8-6.8s6.8,3,6.8,6.8V291
	C268.2,294.8,265.2,297.8,261.4,297.8z"/>
<path class="st1" d="M346.7,458c-1.7,0-3.5-0.7-4.8-2l-80.5-80.5L180.9,456c-2.7,2.7-6.9,2.7-9.6,0c-2.7-2.7-2.7-6.9,0-9.6
	l85.3-85.3c2.6-2.7,6.9-2.7,9.6,0l85.3,85.3c2.7,2.7,2.7,6.9,0,9.6C350.2,457.3,348.4,458,346.7,458z"/>
<path class="st0" d="M392.9,460.6H129.9c-3.8,0-6.8-3-6.8-6.8v-52.8c0-70.8,52.6-119.3,89.5-144.5c-32.1-22.2-88.3-71.5-88.3-144.5
	V59.2c0-3.8,3-6.8,6.8-6.8h261.9c3.8,0,6.8,3,6.8,6.8V112c0,70.8-52.6,119.3-89.5,144.5c32.4,22.4,89.5,72.2,89.5,144.9v52.4
	C399.7,457.6,396.7,460.6,392.9,460.6z M136.7,447.1h249.5v-45.6c0-73.1-64.2-121.7-91.8-139.2c-2-1.2-3.2-3.4-3.2-5.7
	c0-2.3,1.2-4.5,3.2-5.7c34.3-21.7,91.8-68.7,91.8-138.8V66H137.9v46c0,73.4,63.4,121.5,90.6,138.8c2,1.2,3.2,3.4,3.2,5.7
	c0,2.3-1.2,4.5-3.2,5.7c-34.3,21.8-91.8,68.7-91.8,138.8L136.7,447.1L136.7,447.1z"/>
</svg>
