<?xml version="1.0" encoding="utf-8"?>
<!-- Generator: Adobe Illustrator 22.0.0, SVG Export Plug-In . SVG Version: 6.00 Build 0)  -->
<svg version="1.1" id="Layer_1" xmlns="http://www.w3.org/2000/svg" xmlns:xlink="http://www.w3.org/1999/xlink" x="0px" y="0px"
	 viewBox="0 0 512 512" style="enable-background:new 0 0 512 512;" xml:space="preserve">
<style type="text/css">
	.st0{fill:#3FC6F1;}
	.st1{fill:#5E686C;}
</style>
<path class="st0" d="M259,341.3c-12.8,0-24.9-5-34-14.1c-18.7-18.7-18.7-49.2,0-67.9c18.1-18.1,49.8-18.1,67.9,0
	c9.1,9.1,14.1,21.1,14.1,33.9c0,12.8-5,24.9-14.1,34C283.9,336.3,271.9,341.3,259,341.3z M259,259c-9.2,0-17.8,3.6-24.3,10
	c-13.4,13.4-13.4,35.1,0,48.5c13,13,35.5,13,48.5,0c6.5-6.5,10.1-15.1,10.1-24.3c0-9.2-3.6-17.8-10-24.2
	C276.8,262.5,268.2,259,259,259z"/>
<path class="st1" d="M297.4,92.4c-3.8,0-6.9-3.1-6.9-6.9V49.3c0-17.4-14.1-31.5-31.5-31.5s-31.5,14.1-31.5,31.5v32
	c0,3.8-3.1,6.9-6.9,6.9c-3.8,0-6.9-3.1-6.9-6.9v-32c0-24.9,20.3-45.2,45.2-45.2c24.9,0,45.2,20.3,45.2,45.2v36.2
	C304.3,89.3,301.2,92.4,297.4,92.4z"/>
<path class="st0" d="M367.6,121.7c-1.3,0-2.5-0.3-3.6-1.1c-3.2-2-4.2-6.2-2.1-9.5L385,74.4c1-1.6,2.5-2.7,4.3-3c1.8-0.4,3.7,0,5.2,1
	l25.2,16.5c3.2,2.1,4,6.3,2,9.5c-2.1,3.2-6.4,4-9.5,2l-19.3-12.7l-19.5,30.9C372.2,120.6,369.9,121.7,367.6,121.7z"/>
<path class="st0" d="M390.6,84.9c-1.3,0-2.6-0.4-3.8-1.1l-25.2-16.5c-3.2-2.1-4-6.3-2-9.5c2.1-3.2,6.3-4,9.5-2l25.2,16.5
	c3.2,2.1,4,6.3,2,9.5C395,83.8,392.8,84.9,390.6,84.9z"/>
<path class="st0" d="M259,257.5c-3.8,0-6.9-3.1-6.9-6.9v-89.3c0-3.8,3.1-6.9,6.9-6.9c3.8,0,6.9,3.1,6.9,6.9v89.3
	C265.9,254.4,262.8,257.5,259,257.5z"/>
<path class="st0" d="M384.7,300.1h-83c-3.8,0-6.9-3.1-6.9-6.9c0-3.8,3.1-6.9,6.9-6.9h83c3.8,0,6.9,3.1,6.9,6.9
	C391.5,297.1,388.5,300.1,384.7,300.1z"/>
<path class="st1" d="M52,272.7c-0.3,0-0.6,0-0.9-0.1c-3.8-0.5-6.4-3.9-5.9-7.7c14-106.8,106-187.3,213.8-187.3
	c16.5,0,33,1.9,48.8,5.5c22.4,5.2,43.7,13.9,63.3,25.9c3.2,2,4.3,6.2,2.3,9.4c-2,3.2-6.2,4.3-9.4,2.3
	c-18.4-11.2-38.3-19.4-59.3-24.2c-14.9-3.4-30.3-5.2-45.8-5.2c-101,0-187.1,75.4-200.2,175.4C58.4,270.1,55.4,272.7,52,272.7z"/>
<path class="st1" d="M259.1,508.9c-109,0-201-81.5-214.1-189.5c-0.5-3.8,2.2-7.2,6-7.6c3.8-0.4,7.2,2.2,7.6,6
	C70.8,418.9,157,495.2,259.1,495.2c111.4,0,202-90.6,202-202c0-71-36.2-135.5-96.9-172.5c-3.2-2-4.3-6.2-2.3-9.4
	c2-3.2,6.2-4.3,9.4-2.3c64.8,39.5,103.5,108.4,103.5,184.2C474.7,412.2,378,508.9,259.1,508.9z"/>
</svg>
