<?xml version="1.0" encoding="utf-8"?>
<!-- Generator: Adobe Illustrator 22.0.0, SVG Export Plug-In . SVG Version: 6.00 Build 0)  -->
<svg version="1.1" id="Layer_1" xmlns="http://www.w3.org/2000/svg" xmlns:xlink="http://www.w3.org/1999/xlink" x="0px" y="0px"
	 viewBox="0 0 512 512" style="enable-background:new 0 0 512 512;" xml:space="preserve">
<style type="text/css">
	.st0{fill:#5E686B;}
	.st1{fill:#3FC6F1;}
</style>
<path class="st0" d="M33.9,83.4c7.4,7.5,17.4,11.7,27.9,11.7c0,0,0,0,0,0c8.2,0,16.1-2.5,22.7-7.2l98.6,95.9
	c1.3,1.3,3.1,1.9,4.8,1.9c1.8,0,3.6-0.7,4.9-2.1c2.6-2.7,2.6-7.1-0.1-9.7L94.2,78.1c10.7-15.5,9.2-37-4.4-50.8L78.2,15.7
	c-2.6-2.6-7.2-2.6-9.8,0l-46,46.5c-2.7,2.7-2.7,7,0,9.7L33.9,83.4z M73.3,30.3L80,37C90,47.1,90,63.6,80,73.8
	c-4.8,4.9-11.3,7.6-18.1,7.6c-6.9,0-13.3-2.7-18.1-7.6L37,67L73.3,30.3z"/>
<path class="st0" d="M338.2,340.4l88.9,89.8c1.3,1.4,3.1,2,4.9,2c1.7,0,3.5-0.7,4.8-2c2.7-2.7,2.7-7,0.1-9.7L348,330.7
	c-2.7-2.7-7-2.7-9.7-0.1C335.6,333.3,335.5,337.7,338.2,340.4z"/>
<path class="st0" d="M482.9,373.9l-98.8-99.8c-2.7-2.7-7-2.7-9.7-0.1c-2.7,2.7-2.7,7-0.1,9.7l98.8,99.8c22.8,23,22.8,60.4,0.1,83.4
	c-11,11.1-25.6,17.3-41.2,17.3c0,0,0,0,0,0c-15.5,0-30-6.1-41-17.1l-99-99.9c-2.7-2.7-7-2.7-9.7-0.1c-2.7,2.7-2.7,7-0.1,9.7l99,99.9
	c13.6,13.7,31.6,21.2,50.8,21.2c0,0,0,0,0,0c19.2,0,37.3-7.6,50.9-21.3C511,448.3,511,402.2,482.9,373.9z"/>
<path class="st1" d="M379.5,234.5C379.6,234.5,379.6,234.5,379.5,234.5c27.9,0,54.2-11,73.6-30.7l41.9-38.1c0,0,0.1,0,0.1-0.1
	c0.3-0.3,0.5-0.5,0.7-0.8c0.1-0.1,0.1-0.1,0.2-0.2c0,0,0-0.1,0.1-0.1c1.8-2.6,1.6-6.1-0.5-8.5c0,0-0.1-0.1-0.1-0.1l-35.2-38.3
	c-1.3-1.4-3-2.2-4.9-2.2c-1.8-0.1-3.7,0.7-5,2l-23,23.2c-15.8,16-43.5,16-59.3,0c-16.4-16.5-16.4-43.4,0-60l23-23.2
	c2.6-2.7,2.6-7,0-9.7l-34.7-35.2c0,0,0,0,0,0c0,0,0,0,0-0.1c-0.1-0.1-0.2-0.2-0.3-0.2c-0.1-0.1-0.1-0.1-0.2-0.2
	c-0.1-0.1-0.2-0.2-0.3-0.2c-0.1-0.1-0.1-0.1-0.2-0.2c-0.1-0.1-0.3-0.2-0.4-0.2c-0.1,0-0.1-0.1-0.2-0.1c-0.1-0.1-0.3-0.1-0.4-0.2
	c-0.1,0-0.1-0.1-0.2-0.1c-0.2-0.1-0.3-0.1-0.5-0.2c-0.1,0-0.1,0-0.2-0.1c-0.2,0-0.3-0.1-0.5-0.1c0,0-0.1,0-0.1,0
	c-0.2,0-0.3-0.1-0.5-0.1c-0.1,0-0.1,0-0.2,0c-0.2,0-0.3,0-0.5,0c-0.1,0-0.1,0-0.2,0c-0.2,0-0.3,0-0.5,0c-0.1,0-0.1,0-0.2,0
	c-0.1,0-0.3,0-0.4,0.1c-0.1,0-0.2,0-0.2,0c-0.1,0-0.2,0.1-0.4,0.1c-0.1,0-0.2,0-0.3,0.1c-0.1,0-0.2,0.1-0.3,0.1
	c-0.1,0-0.2,0.1-0.3,0.1c-0.1,0-0.2,0.1-0.3,0.1c-0.1,0.1-0.2,0.1-0.4,0.2c-0.1,0-0.1,0.1-0.2,0.1c-0.1,0.1-0.3,0.1-0.4,0.2
	c-0.1,0-0.1,0.1-0.1,0.1c-0.1,0.1-0.3,0.2-0.4,0.3c0,0-0.1,0.1-0.1,0.1c-0.1,0.1-0.2,0.2-0.4,0.3c0,0,0,0.1-0.1,0.1c0,0,0,0,0,0
	l-41,41.9c-40.7,41.1-40.7,108,0,149.1C325.4,223.5,351.6,234.5,379.5,234.5z M315.4,64.2l36.2-37l25,25.3l-18.2,18.4
	c-21.7,21.9-21.7,57.5,0,79.4c10.5,10.6,24.5,16.5,39.4,16.5c14.9,0,28.9-5.9,39.4-16.5l17.9-18.1l25.7,28l-37.1,33.7
	c-17.1,17.3-39.9,26.8-64.1,26.8c0,0,0,0,0,0c-24.2,0-47-9.5-64.2-26.9C279.9,158.2,279.9,100,315.4,64.2z"/>
<path class="st1" d="M62.4,425.8c-3.8,0-6.9,3.1-6.9,6.9s3.1,6.9,6.9,6.9h32.6c3.8,0,6.9-3.1,6.9-6.9s-3.1-6.9-6.9-6.9H62.4z"/>
<path class="st0" d="M282.2,282.2c1.3,1.3,3.1,2,4.9,2c1.8,0,3.5-0.7,4.9-2c2.7-2.7,2.7-7,0-9.7l-64.6-64.4c-2.7-2.7-7-2.7-9.7,0
	c-2.7,2.7-2.7,7,0,9.7L282.2,282.2z"/>
<path class="st1" d="M250.6,304.2c-3.1-2.2-7.4-1.5-9.6,1.6L119.3,474.9c-11,11.1-25.6,17.2-41.1,17.2h0c-15.5,0-30.2-6.1-41.2-17.2
	c-22.8-23-22.8-60.3-0.8-82.6l168.4-123.5c3.1-2.2,3.7-6.5,1.5-9.6c-2.3-3.1-6.6-3.7-9.6-1.5L27.2,381.9c-28,28.3-28.1,74.3,0,102.6
	c13.6,13.7,31.7,21.3,50.9,21.3c0,0,0,0,0,0c19.2,0,37.3-7.6,51.6-22.1l122.4-169.9C254.3,310.7,253.6,306.4,250.6,304.2z"/>
</svg>
