<?xml version="1.0" encoding="utf-8"?>
<!-- Generator: Adobe Illustrator 22.0.0, SVG Export Plug-In . SVG Version: 6.00 Build 0)  -->
<svg version="1.1" id="Layer_1" xmlns="http://www.w3.org/2000/svg" xmlns:xlink="http://www.w3.org/1999/xlink" x="0px" y="0px"
	 viewBox="0 0 512 512" style="enable-background:new 0 0 512 512;" xml:space="preserve">
<style type="text/css">
	.st0{fill:#5E686B;}
	.st1{fill:#3FC6F1;}
</style>
<path class="st0" d="M257.7,5.4C118.9,5.4,6.1,118.3,6.1,257c0,138.8,112.9,251.6,251.6,251.6S509.3,395.8,509.3,257
	C509.3,118.3,396.5,5.4,257.7,5.4z M257.7,494.8C126.6,494.8,19.9,388.1,19.9,257S126.6,19.3,257.7,19.3
	c131.1,0,237.8,106.7,237.8,237.8C495.5,388.1,388.8,494.8,257.7,494.8z"/>
<path class="st1" d="M439.2,258H269.4l85.1-154.7c1.8-3.3,0.6-7.5-2.6-9.3c-57.5-33.2-131.1-33.2-188.4,0c-3.3,1.9-4.4,6-2.6,9.3
	L246,258H76.1c-3.8,0-6.9,3.1-6.9,6.9c0,64.9,33.5,120,94.3,155.2c1.1,0.6,2.3,0.9,3.5,0.9c2.3,0,4.6-1.2,5.9-3.3l84.8-139.5
	l84.8,139.5c1.3,2.1,3.6,3.3,5.9,3.3c1.2,0,2.4-0.3,3.5-0.9c60.8-35.2,94.3-90.3,94.3-155.2C446.2,261.1,443.1,258,439.2,258z
	 M339,102.7l-81.3,147.9l-81.3-147.9C226.5,76.2,288.7,76.1,339,102.7z M164.6,404.6c-50.5-31.4-79.2-78.1-81.4-132.8h162.1
	L164.6,404.6z M350.8,404.6L270,271.9h162.1C429.9,326.5,401.3,373.3,350.8,404.6z"/>
</svg>
