<?xml version="1.0" encoding="utf-8"?>
<!-- Generator: Adobe Illustrator 22.0.0, SVG Export Plug-In . SVG Version: 6.00 Build 0)  -->
<svg version="1.1" id="Layer_1" xmlns="http://www.w3.org/2000/svg" xmlns:xlink="http://www.w3.org/1999/xlink" x="0px" y="0px"
	 viewBox="0 0 512 512" style="enable-background:new 0 0 512 512;" xml:space="preserve">
<style type="text/css">
	.st0{fill:#5E686C;}
	.st1{fill:#3FC6F1;}
</style>
<path class="st0" d="M212.9,432.9c-48.9,0-140.5-13.1-205.1-101.2c-2-2.8-1.6-6.6,0.9-8.9c2.5-2.3,6.4-2.3,9-0.1
	c3.5,3.1,87.1,75.2,172.1-4.4c2.7-2.5,6.9-2.4,9.5,0.3c2.5,2.7,2.4,7-0.3,9.5C141.4,382,83.4,372,46.8,355.9
	c57.4,54.5,126.5,63.5,166.1,63.5c35.1,0,116.6-14.9,173.2-71.2c33.4-33.2,44.8-63.5,48.5-83c0.6-3.2,3.1-5.4,6.7-5.5
	c10.2,0.1,26.3-1,39.5-8.2c-16.9,0.1-38.3-1.4-40-9.5c-0.7-3.4,1.9-7.3,5.1-8.4c0.5-0.2,1-0.3,1.5-0.3c14.6-1.3,24.2-5.2,30.6-9.5
	c-12.1,1.8-27.7,1.5-41.5-6.6c-1.6-0.9-2.7-2.5-3.1-4.3c-10.3-45-46.1-88.2-94.6-83.6c-2.1,0.2-4.3-0.6-5.7-2.3
	c-1.4-1.6-2-3.9-1.5-6c1.7-7.2,1.8-16.9-0.8-19c-0.9-0.8-3.8-0.8-9.1,1.4c-20.5,9-44.8,49.6-66.7,111.2c-1.2,3.5-5.1,5.3-8.6,4.1
	c-3.5-1.2-5.3-5.1-4.1-8.6c13.6-38.3,41.3-104.7,74-119c9.8-4.3,17.5-4.1,23.1,0.5c6.8,5.7,7.3,16.2,6.6,23.8
	c50.8,0,87.9,44.3,99.7,91.4c20.8,10.2,47.4-0.9,47.7-1.1c2.4-1,5.1-0.6,7.1,1.1c1.9,1.7,2.7,4.4,2,6.8c-0.2,0.8-4.4,14.9-22.8,24.5
	c6,0,12.6-0.2,19.3-0.9c2.6-0.2,5.2,1,6.6,3.4c1.3,2.3,1.1,5.2-0.5,7.4c-15.1,20.1-41.2,24.5-58.4,25c-5,21.3-18.1,51.8-51.1,84.6
	C335.8,417.2,249.9,432.9,212.9,432.9z"/>
<path class="st1" d="M186.7,330.4c-21.4,0-32.7-11-34.4-23c-0.8-6,0.7-12.4,4.8-17.7c-27.6-5.2-35.6-17.9-41.1-30.7
	c-2.6-6-1.3-10.4,0.2-13c2.3-3.9,6.3-6.2,11.3-7.7c-20.5-11-36.6-26.7-33.8-45.4c1.8-7.6,9.1-9.2,16.2-9.5
	c-14.3-10.8-35.9-30.1-28.7-58.7c0.5-2,1.9-3.6,3.7-4.5c1.9-0.8,4-0.8,5.8,0.1c11.3,5.8,25.3,11,40.2,16.5
	c37.9,14.1,85.1,31.6,122.8,71.1c2.6,2.7,2.5,6.9-0.2,9.5c-2.7,2.6-6.9,2.5-9.5-0.2c-35.6-37.3-79.2-53.5-117.8-67.8
	c-11.7-4.4-23-8.5-33-13c0.3,16.9,15,29.2,29.3,39.6c5.7,4.2,8.6,6.3,9.7,9.6c0.7,2.1,0.2,5.5-1,7.2c-3,4.1-8.4,4.1-15.2,4
	c-2.5,0-6.8-0.1-9.1,0.3c-0.2,12.6,18.7,28.2,47.1,38c3,1,4.8,4,4.5,7.1s-2.8,5.6-5.9,5.9l-5.2,0.6c-6,0.6-17.1,1.8-19.4,4
	c0.1,0.1,0.2,0.5,0.4,1c4.7,10.9,10,23.2,50.4,24.9c3.4,0.1,6.2,2.9,6.4,6.3s-2.2,6.5-5.6,7c-10.2,1.7-14.7,8.1-13.9,13.6
	c1,6.8,10.2,13.2,28,11c3.7-0.4,7,2.2,7.5,5.9c0.4,3.7-2.2,7-5.9,7.5C192.2,330.2,189.3,330.4,186.7,330.4z"/>
</svg>
