<?xml version="1.0" encoding="utf-8"?>
<!-- Generator: Adobe Illustrator 22.0.0, SVG Export Plug-In . SVG Version: 6.00 Build 0)  -->
<svg version="1.1" id="Layer_1" xmlns="http://www.w3.org/2000/svg" xmlns:xlink="http://www.w3.org/1999/xlink" x="0px" y="0px"
	 viewBox="0 0 512 512" style="enable-background:new 0 0 512 512;" xml:space="preserve">
<style type="text/css">
	.st0{fill:#5E686C;}
	.st1{fill:#3FC6F1;}
</style>
<path class="st0" d="M259.3,469.4c-3.8,0-6.8-3-6.8-6.8V228.8c0-3.8,3-6.8,6.8-6.8s6.8,3,6.8,6.8v233.8
	C266.1,466.4,263.1,469.4,259.3,469.4z"/>
<path class="st0" d="M259.3,53.3c-3.8,0-6.8-3-6.8-6.8V13.5c0-3.8,3-6.8,6.8-6.8s6.8,3,6.8,6.8v32.9
	C266.1,50.2,263.1,53.3,259.3,53.3z"/>
<path class="st0" d="M218.7,509.9c-26,0-47.2-21.2-47.2-47.3c0-3.8,3-6.8,6.8-6.8c3.8,0,6.8,3,6.8,6.8c0,18.6,15.1,33.7,33.6,33.7
	c18.5,0,33.6-15.1,33.6-33.7c0-3.8,3-6.8,6.8-6.8c3.8,0,6.8,3,6.8,6.8C265.9,488.7,244.7,509.9,218.7,509.9z"/>
<path class="st1" d="M467.6,235.6H50.5c-2,0-3.9-0.9-5.2-2.4c-4.1-4.7-0.5-40.5-0.4-40.9c2-14.4,6.6-28.5,14.1-43.1
	c7.8-15.1,18-29.1,30.1-41.6c21.9-22.8,47.8-40.2,77.1-51.5c24-9.3,49.7-14.9,76.4-16.5l32.5,0c18.8,1.2,37,4.4,54.7,9.5
	c23.1,6.7,44.5,16.3,63.5,28.5c19.3,12.3,36.3,28.2,50.5,47.3c16.7,22.4,26.4,44,28.7,64.3l0.2,2.3c4.1,37.1,2.2,39.3,0.2,41.6
	c-1.2,1.4-3.2,2.4-5.1,2.5C467.7,235.6,467.7,235.6,467.6,235.6z M57,222h404.6c-0.2-6.1-1-17.1-2.4-29l-0.2-2.5
	c-2-17.6-10.8-37-26.1-57.4c-13.2-17.7-29-32.5-47-43.9c-18-11.5-38.2-20.6-60-26.9c-16.7-4.8-34-7.8-51.3-9l-31.6,0
	c-24.9,1.5-49.2,6.8-71.8,15.6c-27.5,10.6-51.8,26.9-72.2,48.3c-11.2,11.6-20.6,24.6-27.8,38.5c-6.8,13.2-11,25.8-12.8,38.7
	C58,196.9,57.2,213.1,57,222z"/>
</svg>
