<?xml version="1.0" encoding="utf-8"?>
<!-- Generator: Adobe Illustrator 22.0.0, SVG Export Plug-In . SVG Version: 6.00 Build 0)  -->
<svg version="1.1" id="Layer_1" xmlns="http://www.w3.org/2000/svg" xmlns:xlink="http://www.w3.org/1999/xlink" x="0px" y="0px"
	 viewBox="0 0 512 512" style="enable-background:new 0 0 512 512;" xml:space="preserve">
<style type="text/css">
	.st0{fill:#5E686B;}
	.st1{fill:#3FC6F1;}
</style>
<path class="st0" d="M256,509c-99.5,0-180.5-81-180.5-180.5s81-180.5,180.5-180.5c99.5,0,180.5,81,180.5,180.5
	C436.5,428,355.5,509,256,509z M256,161.8c-91.9,0-166.6,74.8-166.6,166.6c0,91.9,74.8,166.6,166.6,166.6
	c91.9,0,166.6-74.7,166.6-166.6C422.6,236.6,347.9,161.8,256,161.8z"/>
<path class="st1" d="M256,388.5c-3.8,0-6.9-3.1-6.9-6.9v-83.3c0-3.8,3.1-6.9,6.9-6.9c3.8,0,6.9,3.1,6.9,6.9v83.3
	C262.9,385.4,259.8,388.5,256,388.5z"/>
<path class="st1" d="M138.4,160c-2.6,0-5-1.4-6.2-3.9L109.7,110c-6.8-14-7.8-29.8-2.7-44.5c5.1-14.7,15.6-26.6,29.6-33.4l51.1-24.9
	c28.9-14.1,63.9-2.1,77.9,26.8c1.7,3.5,0.2,7.6-3.2,9.3c-3.4,1.7-7.6,0.2-9.3-3.2c-10.7-22-37.4-31.1-59.4-20.4l-51.1,24.9
	C132,49.8,124,58.9,120.1,70.1c-3.9,11.2-3.1,23.2,2,33.9l22.5,46.1c1.7,3.4,0.3,7.6-3.2,9.3C140.4,159.8,139.4,160,138.4,160z"/>
</svg>
