<?xml version="1.0" encoding="utf-8"?>
<!-- Generator: Adobe Illustrator 22.0.0, SVG Export Plug-In . SVG Version: 6.00 Build 0)  -->
<svg version="1.1" id="Layer_1" xmlns="http://www.w3.org/2000/svg" xmlns:xlink="http://www.w3.org/1999/xlink" x="0px" y="0px"
	 viewBox="0 0 512 512" style="enable-background:new 0 0 512 512;" xml:space="preserve">
<style type="text/css">
	.st0{fill:#5E686B;}
	.st1{fill:#3FC6F1;}
</style>
<path class="st0" d="M488.3,508.5H31.6c-3.8,0-6.8-3-6.8-6.8v-100c0-3.8,3-6.8,6.8-6.8s6.8,3,6.8,6.8v93.2h443.1v-93.2
	c0-3.8,3-6.8,6.8-6.8s6.8,3,6.8,6.8v100C495.2,505.5,492.1,508.5,488.3,508.5z"/>
<path class="st1" d="M391.8,145.8c-1.7,0-3.4-0.6-4.7-1.9L260.7,21.8L134.4,143.9c-2.7,2.6-7,2.6-9.6-0.2c-2.6-2.7-2.5-7,0.2-9.6
	L256,7.4c2.6-2.6,6.8-2.6,9.5,0l131.1,126.6c2.7,2.6,2.8,6.9,0.2,9.6C395.4,145.1,393.6,145.8,391.8,145.8z"/>
<path class="st1" d="M260.7,408.5c-3.8,0-6.8-3-6.8-6.8V12.3c0-3.8,3-6.8,6.8-6.8s6.8,3,6.8,6.8v389.3
	C267.5,405.4,264.5,408.5,260.7,408.5z"/>
</svg>
