<?xml version="1.0" encoding="utf-8"?>
<!-- Generator: Adobe Illustrator 22.0.0, SVG Export Plug-In . SVG Version: 6.00 Build 0)  -->
<svg version="1.1" id="Layer_1" xmlns="http://www.w3.org/2000/svg" xmlns:xlink="http://www.w3.org/1999/xlink" x="0px" y="0px"
	 viewBox="0 0 512 512" style="enable-background:new 0 0 512 512;" xml:space="preserve">
<style type="text/css">
	.st0{fill:#5E686B;}
	.st1{fill:#3FC6F1;}
</style>
<path class="st0" d="M305.3,76.2H207c-3.7,0-6.8-3-6.8-6.8V11.3c0-3.7,3-6.8,6.8-6.8h98.2c3.7,0,6.8,3,6.8,6.8v58.2
	C312,73.2,309,76.2,305.3,76.2z M213.8,62.7h84.7V18.1h-84.7V62.7z"/>
<path class="st0" d="M351.8,509.3H160.4c-13.2,0-24-10.8-24-24V125.4c0-13.2,10.8-24,24-24h191.4c13.2,0,24,10.8,24,24v359.9
	C375.8,498.5,365.1,509.3,351.8,509.3z M160.4,114.9c-5.8,0-10.4,4.7-10.4,10.5v359.9c0,5.8,4.7,10.5,10.4,10.5h191.4
	c5.8,0,10.5-4.7,10.5-10.5V125.4c0-5.8-4.7-10.5-10.5-10.5L160.4,114.9L160.4,114.9z"/>
<path class="st1" d="M305.3,457.4H207c-3.7,0-6.8-3-6.8-6.8V193.3c0-3,1.9-5.6,4.8-6.5l98.2-30.3c2-0.6,4.3-0.2,6,1
	c1.7,1.3,2.7,3.3,2.7,5.4v287.7C312,454.4,309,457.4,305.3,457.4z M213.8,443.9h84.7V172.1l-84.7,26.1V443.9z"/>
</svg>
