<?xml version="1.0" encoding="utf-8"?>
<!-- Generator: Adobe Illustrator 22.0.0, SVG Export Plug-In . SVG Version: 6.00 Build 0)  -->
<svg version="1.1" id="Layer_1" xmlns="http://www.w3.org/2000/svg" xmlns:xlink="http://www.w3.org/1999/xlink" x="0px" y="0px"
	 viewBox="0 0 512 512" style="enable-background:new 0 0 512 512;" xml:space="preserve">
<style type="text/css">
	.st0{fill:#5E686B;}
	.st1{fill:#3FC6F1;}
</style>
<path class="st0" d="M223.2,81.4c-3.7,0-6.6,3-6.6,6.6v36.9c0,3.7,3,6.6,6.6,6.6c3.7,0,6.6-3,6.6-6.6V88
	C229.9,84.4,226.9,81.4,223.2,81.4z"/>
<path class="st0" d="M297,81.4c-3.7,0-6.6,3-6.6,6.6v36.9c0,3.7,3,6.6,6.6,6.6c3.7,0,6.6-3,6.6-6.6V88
	C303.6,84.4,300.7,81.4,297,81.4z"/>
<path class="st0" d="M315.5,265.9H204.8c-3.7,0-6.6,3-6.6,6.6c0,3.7,3,6.6,6.6,6.6h110.7c3.7,0,6.6-3,6.6-6.6
	C322.1,268.9,319.1,265.9,315.5,265.9z"/>
<path class="st0" d="M389.3,192.1H131c-3.7,0-6.6,3-6.6,6.6v166c0,74.9,60.9,135.8,135.8,135.8c74.9,0,135.8-60.9,135.8-135.8v-166
	C395.9,195.1,392.9,192.1,389.3,192.1z M382.6,364.8c0,67.5-55,122.5-122.5,122.5c-67.6,0-122.5-55-122.5-122.5V205.3h245
	L382.6,364.8L382.6,364.8z"/>
<path class="st1" d="M174.5,20.9h171.2v171.2H359V14.2c0-3.7-3-6.6-6.6-6.6H167.9c-3.7,0-6.6,3-6.6,6.6v177.8h13.2V20.9z"/>
</svg>
