<?xml version="1.0" encoding="utf-8"?>
<!-- Generator: Adobe Illustrator 22.0.0, SVG Export Plug-In . SVG Version: 6.00 Build 0)  -->
<svg version="1.1" id="Layer_1" xmlns="http://www.w3.org/2000/svg" xmlns:xlink="http://www.w3.org/1999/xlink" x="0px" y="0px"
	 viewBox="0 0 512 512" style="enable-background:new 0 0 512 512;" xml:space="preserve">
<style type="text/css">
	.st0{fill:#5E686B;}
	.st1{fill:#3FC6F1;}
</style>
<path class="st0" d="M257.6,113.7c-29.9,0-54.2-24.3-54.2-54.1c0-29.9,24.3-54.2,54.2-54.2s54.2,24.3,54.2,54.2
	C311.8,89.4,287.5,113.7,257.6,113.7z M257.6,19C235.2,19,217,37.2,217,59.6c0,22.4,18.2,40.6,40.6,40.6s40.6-18.2,40.6-40.6
	C298.2,37.2,280,19,257.6,19z"/>
<path class="st0" d="M143.5,343.4c-0.1,0-0.3,0-0.4,0c-3.7-0.2-6.6-3.4-6.4-7.1l8.1-146.7c0.1-1.8,1-3.6,2.4-4.8l57.1-48.9
	c2.8-2.4,7.1-2.1,9.5,0.7c2.4,2.8,2.1,7.1-0.7,9.5l-54.9,47l-8,143.8C150.1,340.6,147.1,343.4,143.5,343.4z"/>
<path class="st0" d="M371.7,343.4c-3.6,0-6.6-2.8-6.8-6.4l-8-143.8l-54.8-47c-2.8-2.4-3.2-6.7-0.7-9.5c2.5-2.8,6.7-3.2,9.5-0.7
	l57,48.9c1.4,1.2,2.2,2.9,2.4,4.8l8.2,146.7c0.2,3.7-2.6,6.9-6.4,7.1C372,343.4,371.9,343.4,371.7,343.4z"/>
<path class="st1" d="M290.2,506.4H225c-3.5,0-6.4-2.6-6.7-6.1l-16.3-163l0-98.5c0-3.7,3-6.8,6.8-6.8c3.7,0,6.8,3,6.8,6.8v97.8
	l15.6,156.2h53L299.8,336l0-97.1c0-3.7,3-6.8,6.8-6.8c3.7,0,6.8,3,6.8,6.8v97.8L297,500.3C296.6,503.8,293.7,506.4,290.2,506.4z"/>
</svg>
