<?xml version="1.0" encoding="utf-8"?>
<!-- Generator: Adobe Illustrator 22.0.0, SVG Export Plug-In . SVG Version: 6.00 Build 0)  -->
<svg version="1.1" id="Layer_1" xmlns="http://www.w3.org/2000/svg" xmlns:xlink="http://www.w3.org/1999/xlink" x="0px" y="0px"
	 viewBox="0 0 512 512" style="enable-background:new 0 0 512 512;" xml:space="preserve">
<style type="text/css">
	.st0{fill:#5E686B;}
	.st1{fill:#3FC6F1;}
</style>
<path class="st0" d="M258.5,503.5c-85.9,0-164.3-42.3-209.8-113.1c-2.1-3.2-1.1-7.5,2.1-9.5c3.2-2.1,7.5-1.1,9.5,2.1
	c42.9,66.9,117,106.8,198.2,106.8c129.5,0,234.8-105.3,234.8-234.8c0-129.5-105.3-234.8-234.8-234.8c-86.3,0-165.4,46.4-206.3,121
	c-1.8,3.3-6,4.6-9.3,2.7c-3.3-1.8-4.6-6-2.7-9.3c43.3-79,127-128.1,218.3-128.1c137.1,0,248.6,111.5,248.6,248.6
	C507.1,392,395.6,503.5,258.5,503.5z"/>
<path class="st1" d="M251.2,110.9c-15.2,0-27.5-12.4-27.5-27.5c0-15.2,12.3-27.6,27.5-27.6c15.2,0,27.6,12.4,27.6,27.6
	C278.8,98.6,266.4,110.9,251.2,110.9z M251.2,69.6c-7.6,0-13.7,6.2-13.7,13.8c0,7.6,6.2,13.8,13.7,13.8c7.6,0,13.8-6.2,13.8-13.8
	C265,75.8,258.8,69.6,251.2,69.6z"/>
<path class="st0" d="M263.6,316.9c-34.1,0-61.9-27.8-61.9-61.9c0-34.2,27.8-62,61.9-62c34.2,0,62,27.8,62,62
	C325.6,289.1,297.8,316.9,263.6,316.9z M263.6,206.7c-26.5,0-48.1,21.6-48.1,48.2c0,26.6,21.6,48.2,48.1,48.2
	c26.6,0,48.3-21.6,48.3-48.2C311.9,228.4,290.2,206.7,263.6,206.7z"/>
<path class="st1" d="M251.2,453.3c-15.2,0-27.5-12.4-27.5-27.6c0-15.2,12.3-27.5,27.5-27.5c15.2,0,27.6,12.3,27.6,27.5
	C278.8,441,266.4,453.3,251.2,453.3z M251.2,412c-7.6,0-13.7,6.2-13.7,13.7c0,7.6,6.2,13.8,13.7,13.8c7.6,0,13.8-6.2,13.8-13.8
	C265,418.2,258.8,412,251.2,412z"/>
<path class="st1" d="M432.5,292.2c-15.2,0-27.5-12.4-27.5-27.6c0-15.2,12.3-27.5,27.5-27.5c15.2,0,27.6,12.3,27.6,27.5
	C460.1,279.8,447.7,292.2,432.5,292.2z M432.5,250.9c-7.6,0-13.7,6.2-13.7,13.8c0,7.6,6.2,13.8,13.7,13.8c7.6,0,13.8-6.2,13.8-13.8
	C446.3,257.1,440.1,250.9,432.5,250.9z"/>
<path class="st1" d="M392.2,171.3c-15.2,0-27.5-12.3-27.5-27.5c0-15.2,12.3-27.6,27.5-27.6c15.2,0,27.6,12.4,27.6,27.6
	C419.8,159,407.4,171.3,392.2,171.3z M392.2,130c-7.6,0-13.7,6.2-13.7,13.8c0,7.6,6.2,13.7,13.7,13.7c7.6,0,13.8-6.2,13.8-13.7
	C406,136.2,399.8,130,392.2,130z"/>
<path class="st1" d="M372.1,413.1c-15.2,0-27.5-12.4-27.5-27.5c0-15.2,12.3-27.5,27.5-27.5c15.2,0,27.6,12.4,27.6,27.5
	S387.3,413.1,372.1,413.1z M372.1,371.7c-7.6,0-13.7,6.2-13.7,13.8c0,7.6,6.2,13.8,13.7,13.8c7.6,0,13.8-6.2,13.8-13.8
	C385.9,377.9,379.7,371.7,372.1,371.7z"/>
<path class="st1" d="M130.3,399.6c-15.2,0-27.5-12.4-27.5-27.6c0-15.2,12.3-27.5,27.5-27.5c15.2,0,27.6,12.3,27.6,27.5
	C157.9,387.3,145.5,399.6,130.3,399.6z M130.3,358.3c-7.6,0-13.7,6.2-13.7,13.7c0,7.6,6.2,13.8,13.7,13.8c7.6,0,13.8-6.2,13.8-13.8
	C144.1,364.5,137.9,358.3,130.3,358.3z"/>
<path class="st1" d="M130.3,171.3c-15.2,0-27.5-12.3-27.5-27.5c0-15.2,12.3-27.6,27.5-27.6c15.2,0,27.6,12.4,27.6,27.6
	C157.9,159,145.5,171.3,130.3,171.3z M130.3,130c-7.6,0-13.7,6.2-13.7,13.8c0,7.6,6.2,13.7,13.7,13.7c7.6,0,13.8-6.2,13.8-13.7
	C144.1,136.2,137.9,130,130.3,130z"/>
<path class="st0" d="M13.4,352.1c-3.8,0-6.9-3.1-6.9-6.9V184.1c0-3.8,3.1-6.9,6.9-6.9c3.8,0,6.9,3.1,6.9,6.9v161.1
	C20.3,349,17.2,352.1,13.4,352.1z"/>
</svg>
