<?xml version="1.0" encoding="utf-8"?>
<!-- Generator: Adobe Illustrator 22.0.0, SVG Export Plug-In . SVG Version: 6.00 Build 0)  -->
<svg version="1.1" id="Layer_1" xmlns="http://www.w3.org/2000/svg" xmlns:xlink="http://www.w3.org/1999/xlink" x="0px" y="0px"
	 viewBox="0 0 512 512" style="enable-background:new 0 0 512 512;" xml:space="preserve">
<style type="text/css">
	.st0{fill:#5E686B;}
	.st1{fill:#3FC6F1;}
</style>
<path class="st0" d="M308.1,464.2H12.8c-3.9,0-7-3.1-7-7V270c0-3.9,3.1-7,7-7h295.2c3.9,0,7,3.1,7,7v187.2
	C315.1,461,312,464.2,308.1,464.2z M19.8,450.2h281.3V276.9H19.8V450.2z"/>
<path class="st1" d="M502.2,434.1c-0.5,0-1.1-0.1-1.6-0.2l-131.4-31.5c-3.2-0.8-5.4-3.6-5.4-6.8v-63.1c0-3.2,2.2-6,5.3-6.8
	l131.4-32.6c2-0.5,4.3,0,6,1.3c1.7,1.3,2.7,3.3,2.7,5.5v127.2c0,2.1-1,4.2-2.7,5.5C505.3,433.6,503.8,434.1,502.2,434.1z
	 M377.7,390.1l117.5,28.2V308.9L377.7,338V390.1z"/>
<path class="st0" d="M67,208c-27,0-48.9-22-48.9-48.9c0-27,21.9-48.9,48.9-48.9c27,0,49,21.9,49,48.9C116,186,94,208,67,208z
	 M67,124.1c-19.3,0-34.9,15.7-34.9,34.9c0,19.3,15.7,35,34.9,35c19.3,0,35-15.7,35-35C102,139.8,86.3,124.1,67,124.1z"/>
<path class="st0" d="M238.2,211.4c-42.4,0-76.9-34.5-76.9-76.9s34.5-76.9,76.9-76.9c42.4,0,76.9,34.5,76.9,76.9
	S280.6,211.4,238.2,211.4z M238.2,71.5c-34.7,0-62.9,28.2-62.9,62.9s28.2,62.9,62.9,62.9c34.7,0,62.9-28.2,62.9-62.9
	S272.9,71.5,238.2,71.5z"/>
</svg>
