<?xml version="1.0" encoding="utf-8"?>
<!-- Generator: Adobe Illustrator 22.0.0, SVG Export Plug-In . SVG Version: 6.00 Build 0)  -->
<svg version="1.1" id="Layer_1" xmlns="http://www.w3.org/2000/svg" xmlns:xlink="http://www.w3.org/1999/xlink" x="0px" y="0px"
	 viewBox="0 0 512 512" style="enable-background:new 0 0 512 512;" xml:space="preserve">
<style type="text/css">
	.st0{fill:#5E686B;}
	.st1{fill:#3FC6F1;}
</style>
<path class="st0" d="M230.6,467.3c-46.6-3.6-63.5-69.4-74.8-113.3c-1.6-6.1-3-11.8-4.5-17c-2.1-7.6-4.6-17.3-7.4-28.1
	c-19.5-76-37.8-139.5-64.1-146.3c-0.4-0.1-2-0.2-2.4-0.2c-11,0-30.2,13-40.2,20.4l-14.6-19.9c10.6-8.9,22.2-19.7,34.3-31.1
	C92.6,98.1,133.1,60,164.9,60c40.5,0,52.3,48.2,58.9,100.2c17.6,135,40.4,163,54.1,166.2c0-4.7,0.1-9.5-0.2-14.2
	c-11.7-8.7-29.1-64.7-40.7-153.7c-5-39.1-14.3-111.9-72.2-111.9c-37.1,0-79.6,40.1-117.1,75.4C34,135,21,147.3,9.4,156.4
	c-2.8,2.2-3.4,6.3-1.2,9.2l22.4,30.6c1.1,1.5,2.7,2.4,4.5,2.7c1.8,0.3,3.6-0.3,5-1.4c13.3-10.4,31.3-21.7,37-21.8
	c20.1,5.2,43,93.9,53.9,136.6c2.8,11,5.3,20.8,7.5,28.4c1.4,5,2.9,10.7,4.4,16.7c12.4,48.1,30.9,120.3,88.1,123.4
	C231,476.2,230.9,471.8,230.6,467.3z"/>
<path class="st1" d="M423.7,41.4c-66.3,0-116.5,43.9-137.8,120.3c-0.7,2.5,0.1,5.2,2.1,6.9c2,1.7,4.8,2.1,7.2,0.9
	c9.8-4.6,21.4-7.4,31-7.4c16.8,0,25.6,7.6,27,23.2c2.3,26.1-28.7,86.8-54.4,114.8c-7.4,8-12.3,11.2-15.2,12.5l-6-0.4
	c0,2.2,0.2,14.2,0.2,14.2c0.4,0.5,5.9,0.1,5.9,0.1c7.2-1.3,15.4-7,25-17.3c28.2-30.8,60.5-94.5,57.8-124.9
	c-1.9-22.5-16.6-35.4-40.3-35.4c-7.4,0-15.5,1.3-23.4,3.6c21.4-63.1,64-97.6,120.9-97.6c48.5,0,70.2,27.7,70.2,89.9
	c0,81.9-164.3,319.4-257.3,322.7l-6-0.1l0.3,13.4l6,0.1c107-3.5,270.3-258.2,270.3-336.1C507.3,119.1,507.3,41.4,423.7,41.4z"/>
</svg>
