<?xml version="1.0" encoding="utf-8"?>
<!-- Generator: Adobe Illustrator 22.0.0, SVG Export Plug-In . SVG Version: 6.00 Build 0)  -->
<svg version="1.1" id="Layer_1" xmlns="http://www.w3.org/2000/svg" xmlns:xlink="http://www.w3.org/1999/xlink" x="0px" y="0px"
	 viewBox="0 0 512 512" style="enable-background:new 0 0 512 512;" xml:space="preserve">
<style type="text/css">
	.st0{fill:#69C299;}
	.st1{fill:#5E686B;}
	.st2{fill:#3FC6F1;}
</style>
<path class="st0" d="M305.2,99.1c-4.5-1.5-12.9-3.2-12.9-3.2"/>
<path class="st0" d="M294.5,82.8c2.9,0.9,9.4,2,13.2,3"/>
<path class="st1" d="M498.9,273.3h-41.9c-1-31.7-9.5-61.5-23.6-87.8l36.3-21c3.2-1.9,4.3-6,2.5-9.2c-1.9-3.2-6-4.3-9.2-2.5l-36.4,21
	c-14.2-22.8-32.9-42.5-54.7-57.9c-0.4-0.4-0.9-0.7-1.4-0.9c-18.9-13.1-40-23.1-62.8-29.1c0.1-0.2-13.1-3.2-13.2-3
	c-12.4-2.4-25.3-3.7-38.4-3.7c-11.7,0-23.2,1-34.4,3l-19,4.3c-22.1,6.1-42.7,15.9-61.1,28.7c-0.4,0.2-0.8,0.5-1.1,0.8
	c-21.9,15.5-40.6,35.2-54.9,58.1l-36.4-21c-3.2-1.9-7.3-0.8-9.2,2.5c-1.9,3.2-0.8,7.3,2.5,9.2l36.3,21
	c-14.1,26.3-22.5,56.2-23.6,87.8h-42c-3.7,0-6.7,3-6.7,6.7s3,6.7,6.7,6.7h42c1,31.7,9.5,61.5,23.6,87.8l-36.3,21
	c-3.2,1.9-4.3,6-2.5,9.2c1.2,2.2,3.5,3.4,5.8,3.4c1.1,0,2.3-0.3,3.4-0.9l36.4-21c35.5,56.9,98.7,94.8,170.6,94.8
	c71.8,0,135-37.9,170.5-94.8l36.4,21c1.1,0.6,2.2,0.9,3.4,0.9c2.3,0,4.6-1.2,5.8-3.4c1.9-3.2,0.8-7.3-2.5-9.2l-36.3-21
	c14.1-26.3,22.5-56.2,23.6-87.9h41.9c3.7,0,6.7-3,6.7-6.7C505.6,276.3,502.6,273.3,498.9,273.3z M249.4,467.4
	C149.1,463.8,68.6,381.2,68.6,280c0-61.8,30.1-116.8,76.4-150.9c31.6,21,67.9,32.1,104.4,33.3L249.4,467.4L249.4,467.4z
	 M157.1,120.9c15.5-9.7,32.5-17.1,50.6-22c0,0,0,0,0,0c0,0,13.2-3,13.2-3c0,0,0,0,0,0c11.4-2.2,23.2-3.3,35.3-3.3
	c11,0,21.7,1,32.2,2.8c5.8,0.5,16.2,3.8,16.3,3.6c18.1,4.8,35.1,12.3,50.6,22C294.7,158.4,217.4,158.4,157.1,120.9z M262.8,467.4
	v-305c36.5-1.2,72.8-12.3,104.4-33.3c46.3,34.2,76.4,89.1,76.4,150.9C443.6,381.2,363.1,463.9,262.8,467.4z"/>
<path class="st2" d="M217.8,82.9l-2.1-5.2c-11.6-27.7-39-47.2-70.9-47.2c-3.7,0-6.7,3-6.7,6.7s3,6.7,6.7,6.7
	c25.3,0,47.2,14.9,57.3,36.4l2.2,5.6c0,0,3.8,11.3,3.8,19.2c0,0,0,1.5,0,2.3c0,3.7,3,6.7,6.7,6.7s6.7-3,6.7-6.7
	C222.2,95.6,217.8,82.9,217.8,82.9z"/>
<path class="st2" d="M307.7,85.8l2.6-6.1c10.3-21.1,32-35.7,57-35.7c3.7,0,6.7-3,6.7-6.7s-3-6.7-6.7-6.7
	c-31.5,0-58.7,19.1-70.5,46.4l-2.3,5.9c0,0-4.4,14.1-4.1,24.6c0,3.7,3,6.7,6.7,6.7s6.7-3,6.7-6.7C304.4,96.6,307.7,85.8,307.7,85.8z
	"/>
</svg>
