<?xml version="1.0" encoding="utf-8"?>
<!-- Generator: Adobe Illustrator 22.0.0, SVG Export Plug-In . SVG Version: 6.00 Build 0)  -->
<svg version="1.1" id="Layer_1" xmlns="http://www.w3.org/2000/svg" xmlns:xlink="http://www.w3.org/1999/xlink" x="0px" y="0px"
	 viewBox="0 0 512 512" style="enable-background:new 0 0 512 512;" xml:space="preserve">
<style type="text/css">
	.st0{fill:#3FC6F1;}
	.st1{fill:#5E686B;}
</style>
<path class="st0" d="M370.2,365.7c26.6,0,48.3-21.7,48.3-48.3c0-26.6-21.7-48.3-48.3-48.3c-26.6,0-48.2,21.6-48.2,48.3
	C322,344.1,343.6,365.7,370.2,365.7z M370.2,283c19,0,34.5,15.5,34.5,34.5c0,19-15.5,34.5-34.5,34.5c-19,0-34.4-15.5-34.4-34.5
	C335.8,298.4,351.2,283,370.2,283z"/>
<path class="st1" d="M485.9,124.4c-1.3-1.3-3-2-4.9-2c0,0,0,0,0,0l-101.6,0.1V27.7c0-11.4-5-17.8-9.3-21.1
	c-12.9-10.2-33.8-5.7-37-4.8L22.6,123.4c0,0,0,0-0.1,0c-0.1,0.1-0.3,0.1-0.4,0.2c-0.1,0-0.2,0.1-0.2,0.1c-0.1,0.1-0.2,0.1-0.3,0.2
	c-0.1,0.1-0.2,0.1-0.3,0.2c-0.1,0-0.1,0.1-0.2,0.1c-0.1,0.1-0.2,0.2-0.4,0.3c0,0-0.1,0.1-0.1,0.1c-0.1,0.1-0.3,0.2-0.4,0.3
	c0,0-0.1,0.1-0.1,0.1c-0.1,0.1-0.2,0.3-0.4,0.4c0,0.1-0.1,0.1-0.1,0.2c-0.1,0.1-0.2,0.2-0.3,0.3c-0.1,0.1-0.1,0.2-0.2,0.3
	c0,0.1-0.1,0.2-0.1,0.2c-0.1,0.1-0.1,0.3-0.2,0.4c0,0.1-0.1,0.1-0.1,0.2c-0.1,0.2-0.1,0.3-0.2,0.5c0,0.1,0,0.1-0.1,0.2
	c0,0.1-0.1,0.3-0.1,0.4c0,0.1,0,0.2-0.1,0.2c0,0.1,0,0.2-0.1,0.4c0,0.1,0,0.2,0,0.3c0,0.1,0,0.2,0,0.3c0,0.1,0,0.3,0,0.4
	c0,0,0,0.1,0,0.1v342.9c0,24.1,14.8,37.3,41.6,37.3H481c3.8,0,6.9-3.1,6.9-6.9V129.2C487.9,127.4,487.2,125.7,485.9,124.4z
	 M337.1,14.9c4.2-1,17.8-2.7,24.4,2.5c2.7,2.2,4.1,5.5,4.1,10.3v94.8l-303.9,0.4L337.1,14.9z M474.1,496.2H59.9
	c-24.7,0-27.8-12.6-27.8-23.5v-336l442.1-0.6V496.2z"/>
<path class="st0" d="M105.3,418.1c3.8,0,6.9-3.1,6.9-6.9V204.3c0-3.8-3.1-6.9-6.9-6.9c-3.8,0-6.9,3.1-6.9,6.9v206.9
	C98.4,415,101.5,418.1,105.3,418.1z"/>
</svg>
