<?xml version="1.0" encoding="utf-8"?>
<!-- Generator: Adobe Illustrator 22.0.0, SVG Export Plug-In . SVG Version: 6.00 Build 0)  -->
<svg version="1.1" id="Layer_1" xmlns="http://www.w3.org/2000/svg" xmlns:xlink="http://www.w3.org/1999/xlink" x="0px" y="0px"
	 viewBox="0 0 512 512" style="enable-background:new 0 0 512 512;" xml:space="preserve">
<style type="text/css">
	.st0{fill:#3FC6F1;}
	.st1{fill:#5E686B;}
</style>
<path class="st0" d="M301.5,508.8C301.4,508.8,301.4,508.8,301.5,508.8c-83.8-1.1-151-70.2-149.9-153.9c0-42.3,19.7-76.2,36.8-100.9
	c9.6-14.3,20.5-28.2,30.9-41.6c3.7-4.7,7.3-9.4,10.9-14.1c11.2-15.2,22.4-30.4,33.6-45.5c0.1-0.2,30.1-44.9,38.9-44.9
	c2.1,0,4.3,1.1,5.6,2.8L399,233.1c25.7,34.7,52.4,70.6,52.4,121.9C452.4,438.8,385.2,507.7,301.5,508.8
	C301.5,508.8,301.5,508.8,301.5,508.8z M302,124.7c-8.2,9.8-24.6,32-27.1,35.8c-11.4,15.4-22.6,30.6-33.9,45.8
	c-3.7,4.9-7.4,9.6-11.1,14.3c-10.3,13.3-21,27-30.5,41C183.4,284.8,165,316.3,165,355c-1,76.4,60.2,139.2,136.4,140.3
	c76.2-1,137.4-63.8,136.4-140c0-47.2-24.1-79.7-49.7-114.2L302,124.7z"/>
<path class="st1" d="M117,303c-1,0-2-0.2-2.9-0.7c-41.2-19.8-67.4-62.2-66.8-107.9c0-32.9,15.2-59.1,28.5-78.2
	c7.4-10.9,15.6-21.5,23.6-31.8l8.5-11c8.5-11.6,17.1-23.2,25.8-34.8c3.7-5.6,23.6-35.1,31.1-35.1c2.1,0,4.3,1.1,5.6,2.8l69.4,93.8
	c3.3,4.5,6.6,8.9,9.7,13.3c1.2,1.6,1.5,3.7,1,5.7c-3.8,14.2-23.4,38.4-48.1,69c-26.6,32.9-59.6,73.9-79.4,111.2
	C121.8,301.7,119.5,303,117,303z M164.1,20.6c-6.5,8-17.7,23.1-19.4,25.7c-8.8,11.9-17.4,23.5-26,35.2l-8.7,11.2
	c-7.8,10.1-16,20.5-23.1,31.1c-12.2,17.6-26.1,41.5-26.1,70.7c-0.5,38.4,20.3,74.1,53.5,92.7c20.6-36.7,52.1-75.8,77.7-107.5
	c20.2-25,39.3-48.7,44.6-61.2c-2.5-3.4-5-6.8-7.6-10.3L164.1,20.6z"/>
</svg>
