<?xml version="1.0" encoding="utf-8"?>
<!-- Generator: Adobe Illustrator 22.0.0, SVG Export Plug-In . SVG Version: 6.00 Build 0)  -->
<svg version="1.1" id="Layer_1" xmlns="http://www.w3.org/2000/svg" xmlns:xlink="http://www.w3.org/1999/xlink" x="0px" y="0px"
	 viewBox="0 0 512 512" style="enable-background:new 0 0 512 512;" xml:space="preserve">
<style type="text/css">
	.st0{fill:#5E686B;}
	.st1{fill:#3FC6F1;}
</style>
<path class="st0" d="M250.1,455.2c-35.8,0-64.9-29.1-64.9-64.9c0-35.8,29.1-64.9,64.9-64.9c35.8,0,64.9,29.1,64.9,64.9
	C315.1,426.1,285.9,455.2,250.1,455.2z M250.1,338.9c-28.3,0-51.4,23.1-51.4,51.4c0,28.3,23.1,51.4,51.4,51.4
	c28.4,0,51.4-23.1,51.4-51.4C301.6,361.9,278.5,338.9,250.1,338.9z"/>
<path class="st0" d="M348.9,298.3c-1.7,0-3.5-0.7-4.8-2c-25.1-25.1-58.4-38.9-93.9-38.9c-35.5,0-68.8,13.8-93.9,38.9
	c-2.6,2.6-6.9,2.6-9.6,0c-2.6-2.6-2.6-6.9,0-9.6c27.6-27.6,64.4-42.9,103.5-42.9c39.1,0,75.9,15.2,103.5,42.9c2.6,2.6,2.6,6.9,0,9.6
	C352.3,297.6,350.6,298.3,348.9,298.3z"/>
<path class="st1" d="M422.9,235.9c-1.7,0-3.5-0.7-4.8-2c-44.9-44.9-104.5-69.6-168-69.6s-123.1,24.7-168,69.6
	c-2.6,2.6-6.9,2.6-9.6,0c-2.6-2.6-2.6-6.9,0-9.6c47.4-47.4,110.5-73.5,177.5-73.5c67.1,0,130.1,26.1,177.5,73.5
	c2.6,2.6,2.6,6.9,0,9.6C426.4,235.2,424.6,235.9,422.9,235.9z"/>
<path class="st1" d="M498.6,171.8c-1.7,0-3.5-0.7-4.8-2c-63.5-63.6-148-98.5-237.9-98.5c-89.9,0-174.4,35-237.9,98.5
	c-2.6,2.6-6.9,2.6-9.6,0c-2.6-2.6-2.6-6.9,0-9.6C74.6,94.2,162.5,57.8,256,57.8c93.5,0,181.4,36.4,247.5,102.5
	c2.6,2.6,2.6,6.9,0,9.6C502.1,171.1,500.4,171.8,498.6,171.8z"/>
</svg>
