<?xml version="1.0" encoding="utf-8"?>
<!-- Generator: Adobe Illustrator 22.0.0, SVG Export Plug-In . SVG Version: 6.00 Build 0)  -->
<svg version="1.1" id="Layer_1" xmlns="http://www.w3.org/2000/svg" xmlns:xlink="http://www.w3.org/1999/xlink" x="0px" y="0px"
	 viewBox="0 0 512 512" style="enable-background:new 0 0 512 512;" xml:space="preserve">
<style type="text/css">
	.st0{fill:#5E686B;}
	.st1{fill:#3FC6F1;}
</style>
<path class="st0" d="M331.8,441.5h-71.1c0.2-0.7,0.3-1.4,0.3-2.1v-41.3c0-3.7-3-6.7-6.7-6.7c-3.7,0-6.7,3-6.7,6.7v41.3
	c0,0.7,0.1,1.4,0.3,2.1h-69.3c-3.7,0-6.7,3-6.7,6.7s3,6.7,6.7,6.7h153.2c3.7,0,6.7-3,6.7-6.7C338.5,444.5,335.5,441.5,331.8,441.5z"
	/>
<path class="st0" d="M104,231.9H69.3l0,0c-26.9,0-48.8-21.9-48.8-48.8V80.3h69.8V66.8H13.8c-3.7,0-6.7,3-6.7,6.7v109.6
	c0,34.3,27.9,62.3,62.3,62.3h41.3C108.8,241.7,104,231.9,104,231.9z"/>
<path class="st0" d="M500.4,66.8h-76.9l0,13.6l70.1-0.1v102.8h0c0,26.9-21.9,48.8-48.8,48.8H410c-2,4.1-6.4,13.5-6.4,13.5h41.2
	c34.3,0,62.3-27.9,62.3-62.3V73.5C507.1,69.8,504.1,66.8,500.4,66.8z"/>
<path class="st1" d="M411.2,229.3c8-19.4,12.4-40.7,12.4-62.9l0-99.6H90.3l0,99.4c0,23.2,5,45.6,13.7,65.7c0,0,6.4,13.4,6.5,13.4
	c28.2,52.1,83.3,87.6,146.6,87.6c63.3,0,118.4-35.5,146.5-87.6C403.7,245.3,410.9,229.6,411.2,229.3z M257.1,319.4
	c-84.4,0-153-68.6-153-153V80.3H410v86.1C410,250.7,341.4,319.4,257.1,319.4z"/>
</svg>
