<?xml version="1.0" encoding="utf-8"?>
<!-- Generator: Adobe Illustrator 22.0.0, SVG Export Plug-In . SVG Version: 6.00 Build 0)  -->
<svg version="1.1" id="Layer_1" xmlns="http://www.w3.org/2000/svg" xmlns:xlink="http://www.w3.org/1999/xlink" x="0px" y="0px"
	 viewBox="0 0 512 512" style="enable-background:new 0 0 512 512;" xml:space="preserve">
<style type="text/css">
	.st0{fill:#5E686B;}
	.st1{fill:#3FC6F1;}
</style>
<path class="st0" d="M210.9,473.6c-0.3,0-0.6,0-0.9-0.1L12.8,448.2c-3.4-0.4-5.9-3.3-5.9-6.8V276.7c0-3.8,3-6.8,6.8-6.8h197.2
	c3.8,0,6.8,3,6.8,6.8v190.1c0,2-0.8,3.8-2.3,5.1C214.1,473,212.5,473.6,210.9,473.6z M20.5,435.5l183.6,23.6V283.5H20.5V435.5z"/>
<path class="st0" d="M210.9,250.2H13.7c-3.8,0-6.8-3-6.8-6.8V79c0-3.4,2.5-6.3,5.9-6.7L209.9,45c1.9-0.3,3.9,0.3,5.4,1.6
	c1.5,1.3,2.3,3.2,2.3,5.1v191.7C217.7,247.1,214.6,250.2,210.9,250.2z M20.5,236.6h183.6v-177L20.5,84.9V236.6z"/>
<path class="st1" d="M502.5,250.2H244.2c-3.8,0-6.8-3-6.8-6.8V49.1c0-3.4,2.5-6.3,5.9-6.7L501.6,6.7c1.9-0.3,3.9,0.3,5.4,1.6
	c1.5,1.3,2.3,3.2,2.3,5.1v229.9C509.3,247.1,506.3,250.2,502.5,250.2z M251,236.6h244.7V21.3L251,55.1V236.6z"/>
<path class="st0" d="M502.5,509.1c-0.3,0-0.6,0-0.9-0.1l-258.3-33.2c-3.4-0.4-5.9-3.3-5.9-6.8V276.7c0-3.8,3-6.8,6.8-6.8h258.3
	c3.8,0,6.8,3,6.8,6.8v225.6c0,2-0.8,3.8-2.3,5.1C505.8,508.5,504.2,509.1,502.5,509.1z M251,463.2l244.7,31.4V283.5H251V463.2z"/>
</svg>
