<?xml version="1.0" encoding="utf-8"?>
<!-- Generator: Adobe Illustrator 22.0.0, SVG Export Plug-In . SVG Version: 6.00 Build 0)  -->
<svg version="1.1" id="Layer_1" xmlns="http://www.w3.org/2000/svg" xmlns:xlink="http://www.w3.org/1999/xlink" x="0px" y="0px"
	 viewBox="0 0 512 512" style="enable-background:new 0 0 512 512;" xml:space="preserve">
<style type="text/css">
	.st0{fill:#5E686B;}
	.st1{fill:none;stroke:#69C299;stroke-linecap:round;stroke-linejoin:round;stroke-miterlimit:10;}
	.st2{fill:#3FC6F1;}
</style>
<path class="st0" d="M282.3,253.3H65.4c-3.8,0-6.8-3-6.8-6.8s3-6.8,6.8-6.8h216.9c21.6,0,39.1-17.5,39.1-39.1s-17.5-39.1-39.1-39.1
	c-21.6,0-39.1,17.5-39.1,39.1c0,3.8-3,6.8-6.8,6.8c-3.8,0-6.8-3-6.8-6.8c0-29.1,23.6-52.7,52.7-52.7s52.7,23.6,52.7,52.7
	C335,229.7,311.4,253.3,282.3,253.3z"/>
<path class="st0" d="M380.2,384.1c-20.4,0-36.9-16.6-36.9-36.9c0-3.8,3-6.8,6.8-6.8s6.8,3,6.8,6.8c0,12.9,10.5,23.3,23.3,23.3
	c12.9,0,23.3-10.5,23.3-23.3c0-12.9-10.5-23.3-23.3-23.3H120.5c-3.8,0-6.8-3-6.8-6.8c0-3.8,3-6.8,6.8-6.8h259.7
	c20.4,0,36.9,16.6,36.9,36.9C417.2,367.6,400.6,384.1,380.2,384.1z"/>
<path class="st1" d="M366.5,217.4"/>
<path class="st2" d="M433.6,291.4H10.4c-3.8,0-6.8-3-6.8-6.8c0-3.8,3-6.8,6.8-6.8h423.2c33.3,0,60.3-27.1,60.3-60.3
	c0-33.3-27.1-60.3-60.3-60.3c-33.3,0-60.3,27.1-60.3,60.3c0,3.8-3,6.8-6.8,6.8c-3.8,0-6.8-3-6.8-6.8c0-40.8,33.2-73.9,73.9-73.9
	c40.8,0,73.9,33.2,73.9,73.9C507.5,258.2,474.4,291.4,433.6,291.4z"/>
</svg>
