<?xml version="1.0" encoding="utf-8"?>
<!-- Generator: Adobe Illustrator 22.0.0, SVG Export Plug-In . SVG Version: 6.00 Build 0)  -->
<svg version="1.1" id="Layer_1" xmlns="http://www.w3.org/2000/svg" xmlns:xlink="http://www.w3.org/1999/xlink" x="0px" y="0px"
	 viewBox="0 0 512 512" style="enable-background:new 0 0 512 512;" xml:space="preserve">
<style type="text/css">
	.st0{fill:#5E686B;}
	.st1{fill:#3FC6F1;}
</style>
<path class="st0" d="M108.4,416.5l79.4-82.2l-10.1-9.4l-79,81.8l-80.5-80.5c-2.7-2.7-7-2.7-9.7,0c-2.7,2.7-2.7,7,0,9.7l85.4,85.4
	c0.1,0.1,0.1,0.1,0.2,0.2c0,0,0.1,0.1,0.1,0.1l85.3,85.3c1.3,1.3,3.1,2,4.8,2c1.8,0,3.5-0.7,4.8-2c2.7-2.7,2.7-7,0-9.7L108.4,416.5z
	"/>
<path class="st1" d="M143.6,267.1c6.7,20.2,17.6,39.4,32.6,56.2l1.6,1.6l0,0c3.8,4.6,10.9,10,12.7,12.5
	c29.4,25.7,67,39.9,106.1,39.9c0,0,0,0,0,0c43,0,83.4-16.7,113.8-47.1l63-63L143.6,267.1z M400.6,320.4
	c-27.8,27.8-64.8,43.1-104.1,43.1h0c-36.2,0-71-13.2-97.8-37L186.2,314c-9.1-10.2-16.5-21.4-22.3-33.1h276.3L400.6,320.4z"/>
<path class="st0" d="M506.6,224.1L288.3,5.8c-1.4-1.4-2.9-2.5-5.1-2.3c-2,0.1-3.5,0.8-4.7,2.5l-96.2,96.2
	c-42.6,42.6-56.5,103.6-40.8,158.3l2,6.6h14.9l-2.7-6.6c-16.1-50.9-3.8-108.7,36.2-148.7l91.4-91.5L492.1,229l-38,38.1h19.2
	l33.3-33.3C509.3,231.1,509.3,226.8,506.6,224.1z"/>
</svg>
