<?xml version="1.0" encoding="utf-8"?>
<!-- Generator: Adobe Illustrator 22.0.0, SVG Export Plug-In . SVG Version: 6.00 Build 0)  -->
<svg version="1.1" id="Layer_1" xmlns="http://www.w3.org/2000/svg" xmlns:xlink="http://www.w3.org/1999/xlink" x="0px" y="0px"
	 viewBox="0 0 512 512" style="enable-background:new 0 0 512 512;" xml:space="preserve">
<style type="text/css">
	.st0{fill:#5E686B;}
	.st1{fill:#3FC6F1;}
</style>
<path class="st0" d="M153,264.2c-30.9,0-56.1-25.1-56.1-56c0-30.9,25.2-56.1,56.1-56.1c30.9,0,56,25.1,56,56.1
	C209.1,239.1,183.9,264.2,153,264.2z M153,166.1c-23.2,0-42.1,18.9-42.1,42s18.9,42,42.1,42c23.2,0,42-18.9,42-42
	C195.1,185,176.2,166.1,153,166.1z"/>
<path class="st0" d="M410.5,264.2c-3.9,0-7-3.1-7-7c0-23.2-18.9-42-42-42c-23.2,0-42,18.9-42,42c0,3.9-3.1,7-7,7c-3.9,0-7-3.1-7-7
	c0-30.9,25.1-56.1,56-56.1c30.9,0,56,25.1,56,56.1C417.5,261.1,414.4,264.2,410.5,264.2z"/>
<path class="st1" d="M257.3,411.6c-40.4,0-79.1-20.9-109-58.7c-2.4-3-1.9-7.4,1.1-9.9c3.1-2.4,7.5-1.8,9.8,1.1
	c27.2,34.4,62,53.4,98,53.4c35.9,0,70.7-19,98-53.4c2.4-3,6.8-3.5,9.9-1.1c3,2.4,3.5,6.8,1.1,9.9
	C336.3,390.8,297.6,411.6,257.3,411.6z"/>
<path class="st0" d="M257.3,509.4C118.2,509.4,5,396.3,5,257.2c0-128.4,96-236.1,223.4-250.6c3.7-0.5,7.3,2.3,7.8,6.2
	c0.4,3.8-2.3,7.3-6.2,7.8C109.7,34.2,19,136,19,257.2c0,131.4,106.9,238.2,238.2,238.2c131.4,0,238.2-106.9,238.2-238.2
	c0-121.3-90.7-223-211-236.7c-3.8-0.4-6.6-3.9-6.2-7.8c0.4-3.9,4-6.6,7.8-6.2c127.4,14.5,223.4,122.2,223.4,250.6
	C509.5,396.3,396.3,509.4,257.3,509.4z"/>
</svg>
