<?xml version="1.0" encoding="utf-8"?>
<!-- Generator: Adobe Illustrator 22.0.0, SVG Export Plug-In . SVG Version: 6.00 Build 0)  -->
<svg version="1.1" id="Layer_1" xmlns="http://www.w3.org/2000/svg" xmlns:xlink="http://www.w3.org/1999/xlink" x="0px" y="0px"
	 viewBox="0 0 512 512" style="enable-background:new 0 0 512 512;" xml:space="preserve">
<style type="text/css">
	.st0{fill:#3FC6F1;}
	.st1{fill:#5E686B;}
</style>
<path class="st0" d="M488.7,285l-64.6-107.7c0.1-2.4,0.2-4.9,0.2-7.3c0-29.3-7.5-56.8-20.7-80.9c-0.2-0.5-0.5-0.9-0.8-1.3
	C373.9,36.5,318.9,1.7,256,1.7C163.2,1.7,87.7,77.2,87.7,170c0,2.5,0.1,4.9,0.2,7.4L23.3,285c-1.3,2.1-1.3,4.7-0.1,6.9
	c1.2,2.1,3.5,3.5,6,3.5H144c29.8,26.6,69,42.8,112,42.8c43,0,82.3-16.2,112-42.8h114.8c2.5,0,4.7-1.3,6-3.5
	C490,289.8,490,287.1,488.7,285z M256,15.4c54.8,0,103.1,28.7,130.5,71.9l-284.3,66.6C110.3,76.2,176.2,15.4,256,15.4z M90.4,199.8
	c5.6,31.1,19.7,59.2,39.9,81.9H41.2L90.4,199.8z M101.4,170c0-0.6,0-1.2,0-1.9l292.2-68.4c10.8,21.1,16.9,45,16.9,70.3
	c0,85.2-69.3,154.6-154.6,154.6C170.7,324.5,101.4,255.2,101.4,170z M381.7,281.7c20.2-22.7,34.4-50.8,39.9-81.9l49.2,81.9H381.7z"
	/>
<path class="st1" d="M297.2,199.2c-15.1,0-27.5,12.3-27.5,27.5c0,3.8,3.1,6.8,6.8,6.8c3.8,0,6.8-3.1,6.8-6.8
	c0-7.6,6.2-13.8,13.8-13.8c7.6,0,13.8,6.2,13.8,13.8c0,3.8,3.1,6.8,6.8,6.8c3.8,0,6.8-3.1,6.8-6.8
	C324.7,211.5,312.4,199.2,297.2,199.2z"/>
<path class="st1" d="M204.4,199.2c-15.1,0-27.5,12.3-27.5,27.5c0,3.8,3.1,6.8,6.8,6.8s6.8-3.1,6.8-6.8c0-7.6,6.2-13.8,13.8-13.8
	c7.6,0,13.8,6.2,13.8,13.8c0,3.8,3.1,6.8,6.8,6.8s6.8-3.1,6.8-6.8C231.9,211.5,219.6,199.2,204.4,199.2z"/>
<path class="st1" d="M368.7,361h-240c-41.6,0-75.5,33.9-75.5,75.5v68.8c0,3.8,3.1,6.8,6.8,6.8c0.3,0,0.6,0,0.9-0.1h376.3
	c3.8,0,6.8-3.1,6.8-6.8v-68.6C444.2,394.8,410.3,361,368.7,361z M430.5,498.3H66.9v-61.8c0-34.1,27.7-61.8,61.8-61.8h240
	c34.1,0,61.8,27.7,61.8,61.8L430.5,498.3L430.5,498.3z"/>
</svg>
