<?xml version="1.0" encoding="utf-8"?>
<!-- Generator: Adobe Illustrator 22.0.0, SVG Export Plug-In . SVG Version: 6.00 Build 0)  -->
<svg version="1.1" id="Layer_1" xmlns="http://www.w3.org/2000/svg" xmlns:xlink="http://www.w3.org/1999/xlink" x="0px" y="0px"
	 viewBox="0 0 512 512" style="enable-background:new 0 0 512 512;" xml:space="preserve">
<style type="text/css">
	.st0{fill:#3FC6F1;}
	.st1{fill:#5E686B;}
</style>
<path class="st0" d="M166.6,446.9c-1,0-2-0.2-3-0.7c-72.8-35.3-119.8-110-119.8-190.4c0-30.9,6.7-60.6,19.4-85.9
	c1.2-2.4,3.6-3.9,6.4-3.7c2.7,0.2,5,1.9,6,4.4l96.8,265.6c0.8,1.1,1.3,2.5,1.3,4c0,3.8-3.4,6.9-6.9,6.8
	C166.7,446.9,166.7,446.9,166.6,446.9z M68.7,191.2C61.3,211,57.4,233,57.4,255.8c0,69.4,37.5,134.3,96.8,169.9L68.7,191.2z"/>
<path class="st0" d="M357.2,386.8c-3,0-5.6-1.9-6.5-4.8l-68.4-221.6c-0.6-2.1-0.3-4.3,1-6c1.3-1.7,3.3-2.7,5.4-2.7
	c11.6,0,21.4-1.9,21.5-1.9l3.6,6.3l-2-6.5c0-0.1-0.2-1-0.8-2.1c-0.5-0.8-1.1-0.9-1.6-0.9c-0.9,0.1-33.2,2.1-53.9,2.1
	c-20.7,0-52.9-2-54.3-2.1c-1.8,0-2.1,1-2.3,1.3c-0.3,0.8-0.1,1.5,0.1,1.7c0.4,0,1.4,0.1,1.9,0.2c0.1,0,9.9,1.9,19.4,1.9
	c2.9,0,5.4,1.8,6.4,4.5l31.1,87c0.5,1.5,0.5,3.2,0,4.7l-45.6,121.1c-1,2.7-3.4,4.5-6.4,4.4c-2.8,0-5.4-1.8-6.3-4.5l-74.6-208.1
	c-0.7-2.1-0.4-4.4,0.8-6.2c1.3-1.8,3.3-2.9,5.5-2.9c11.5,0,21.4-1.9,21.5-1.9c0,0,1.4-0.1,1.7-0.2c-0.2,0-0.2-1.1-0.8-2.1
	c-0.5-0.8-1.1-0.9-1.6-0.9c-0.9,0.1-33.2,2.1-53.8,2.1H85.9c-2.5,0-4.8-1.4-6-3.5c-1.2-2.2-1.1-4.8,0.3-6.9
	C118.2,80.1,185.4,44,255.7,44c52.4,0,101.6,18.9,142.2,54.6c2.1,1.1,3.6,3.4,3.6,6c0,3.7-3,6.8-6.8,6.8c-0.1,0-0.2,0-0.3,0h-2.1
	c-17,0-28.4,15.8-28.4,30.5c0,12.9,7.7,25,16.5,39.1l3.1,5c8,11.9,17.6,32.1,17.6,59.5c0,13.2-4.6,28-10.4,46.7
	c-2,6.6-4.2,13.7-6.4,21.4L363.6,382C362.8,384.9,360.2,386.8,357.2,386.8L357.2,386.8L357.2,386.8z M297.9,164.9l59.2,192
	l14.3-47.2c2.2-7.7,4.4-14.9,6.5-21.6c5.5-17.6,9.8-31.6,9.8-42.7c0-24-8.4-41.6-15.4-52.2l-3.2-5.1c-9.6-15.1-18.6-29.4-18.6-46.3
	c0-17.1,10.9-35.2,28.3-41.6c-36-28-78.3-42.7-123-42.7c-61.4,0-120.4,29.4-156.8,77.6c20.3,0,52.5-2,52.8-2.1c0,0,0,0,0,0
	c10.2,0,16,8.3,16,16.3c0,8-5.7,13.8-13.5,13.8c0.3,0-5.3,1.1-13.3,1.7l65.2,182.1l38.2-101.5l-28.7-80.3c-9-0.5-16.9-2-17.2-2.1
	c-7.1,0.1-13-6.1-13-14.3c0-4,1.5-7.8,4.2-10.7c3-3.2,7.3-4.9,12.1-4.9c0.8,0,33.6,2.1,53.8,2.1c20.3,0,53.1-2,53.4-2.1c0,0,0,0,0,0
	c10.2,0,16,8.3,16,16.3c0,8-5.7,13.8-13.5,13.8C312,163.2,306.2,164.3,297.9,164.9z"/>
<path class="st0" d="M269.2,467.6c-23.7,0-42.2-2.7-60.1-8.6c-1.7-0.6-3.1-1.8-3.9-3.4c-0.8-1.6-0.9-3.5-0.3-5.2L267,272.2
	c0.9-2.7,4.1-4.3,6.4-4.5c2.9,0,5.4,1.8,6.4,4.5l62.6,171.5c1.6,1.6,2.3,3.9,1.9,6.1c-0.5,2.2-2,4.1-4.1,4.9
	C319.5,462.9,293.7,467.6,269.2,467.6z M219.9,448.2c14.5,4.1,30,5.9,49.3,5.9c20,0,40.9-3.3,58.5-9.3l-54.3-150.2L219.9,448.2z"/>
<path class="st0" d="M359.2,438.6c-1.5,0-3.1-0.5-4.3-1.5c-2.2-1.8-3-4.8-2.1-7.4L415,249.5c11.1-26,16.2-48.2,16.2-70.3
	c0-2.8-0.5-6.1-1-9.4c-0.6-4-1.1-7.9-1.1-11.3c0-3.1,2.2-5.9,5.2-6.6c3.1-0.7,6.2,0.7,7.6,3.6c17,33.9,25.6,67.7,25.6,100.4
	c0,74.3-40.2,144-104.8,181.9C361.6,438.3,360.4,438.6,359.2,438.6z M443.9,195.4c-1.9,18.7-7.2,37.8-16.3,58.9l-55.5,161
	c50.9-37,81.9-96.5,81.9-159.6C454,236.1,450.6,215.9,443.9,195.4z"/>
<path class="st1" d="M255.7,509C116.1,509,2.5,395.4,2.5,255.8S116.1,2.6,255.7,2.6s253.2,113.6,253.2,253.2
	C508.9,393.1,392.9,509,255.7,509z M255.7,16.1C123.5,16.1,16,123.6,16,255.8s107.5,239.7,239.7,239.7
	c129.9,0,239.7-109.8,239.7-239.7C495.4,123.6,387.8,16.1,255.7,16.1z"/>
</svg>
