<?xml version="1.0" encoding="utf-8"?>
<!-- Generator: Adobe Illustrator 22.0.0, SVG Export Plug-In . SVG Version: 6.00 Build 0)  -->
<svg version="1.1" id="Layer_1" xmlns="http://www.w3.org/2000/svg" xmlns:xlink="http://www.w3.org/1999/xlink" x="0px" y="0px"
	 viewBox="0 0 512 512" style="enable-background:new 0 0 512 512;" xml:space="preserve">
<style type="text/css">
	.st0{fill:#5E686B;}
	.st1{fill:#3FC6F1;}
</style>
<path class="st0" d="M457.8,460.9H54.3C27.1,460.9,5,438.8,5,411.6V114.3C5,87.1,27.1,65,54.3,65h403.5c27.2,0,49.3,22.1,49.3,49.3
	v297.3C507.1,438.8,485,460.9,457.8,460.9z M54.3,78.6c-19.7,0-35.7,16-35.7,35.7v297.3c0,19.7,16,35.7,35.7,35.7h403.5
	c19.7,0,35.7-16,35.7-35.7V114.3c0-19.7-16-35.7-35.7-35.7H54.3z"/>
<path class="st1" d="M213.6,333.4c-9.6,0-17.4-7.8-17.4-17.4V209.8c0-13,15.2-22.5,27.3-14.1l81.7,51.2c6.5,2.7,10.8,9,10.8,16
	c0,5.3-2.5,10.3-7,13.7l-85.2,53.3C221.2,332,217.5,333.4,213.6,333.4z M213.6,206c-2.1,0-3.8,1.7-3.8,3.8V316
	c0,2.1,1.7,3.9,3.8,3.9c0.3,0,1.1,0,2.3-1l85.4-53.4c0.2-0.2,1.1-1.2,1.1-2.6c0-1.9-1.4-3.1-2.6-3.5c-0.5-0.2-0.9-0.4-1.3-0.6
	L216,207C214.6,206.1,213.9,206,213.6,206z"/>
</svg>
