<?xml version="1.0" encoding="utf-8"?>
<!-- Generator: Adobe Illustrator 22.0.0, SVG Export Plug-In . SVG Version: 6.00 Build 0)  -->
<svg version="1.1" id="Layer_1" xmlns="http://www.w3.org/2000/svg" xmlns:xlink="http://www.w3.org/1999/xlink" x="0px" y="0px"
	 viewBox="0 0 512 512" style="enable-background:new 0 0 512 512;" xml:space="preserve">
<style type="text/css">
	.st0{fill:none;stroke:#69C299;stroke-linecap:round;stroke-linejoin:round;stroke-miterlimit:10;}
	.st1{fill:#3FC6F1;}
	.st2{fill:#5E686B;}
</style>
<path class="st0" d="M109.8,419.3"/>
<path class="st1" d="M399.6,221.8c-3.6,0-6.6-2.9-6.7-6.5c-1.2-39.3-16.9-70.1-46.5-91.7c-3-2.2-3.7-6.4-1.5-9.4
	c2.2-3,6.4-3.7,9.4-1.5c33.2,24.1,50.7,58.4,52.1,102.1c0.1,3.7-2.8,6.8-6.5,6.9C399.7,221.8,399.7,221.8,399.6,221.8z"/>
<path class="st2" d="M255.1,423.7c-80.5,0-157.3-46.8-191.5-125.2c-7.3-16.9-12.5-34.6-15.2-52.6c-0.6-3.7,2-7.1,5.6-7.6
	c3.7-0.5,7.1,2,7.7,5.6c2.5,16.9,7.3,33.4,14.2,49.2c43,98.7,158.3,143.9,257,100.9c98.6-43,143.9-158.3,100.8-257
	c-20.9-47.8-59.1-84.6-107.6-103.6c-48.5-19-101.6-18-149.4,2.8C113.5,63.8,69.2,123.5,60.9,192c-0.4,3.7-3.9,6.4-7.5,5.9
	c-3.7-0.4-6.3-3.8-5.9-7.5c8.8-73.2,56.2-137.1,123.8-166.5c51.1-22.3,107.8-23.4,159.6-3c51.9,20.4,92.7,59.7,115,110.8
	c46,105.4-2.3,228.7-107.8,274.7C311.2,418.1,282.9,423.7,255.1,423.7z"/>
<path class="st2" d="M379.9,507.7c-2.6,0-5-1.5-6.2-4l-44.4-100.8c-1.5-3.4,0.1-7.3,3.5-8.9c3.3-1.5,7.3,0,8.9,3.5l44.4,100.8
	c1.5,3.4-0.1,7.3-3.5,8.9C381.8,507.5,380.9,507.7,379.9,507.7z"/>
</svg>
